G04 EAGLE Gerber RS-274X export*
G75*
%MOMM*%
%FSLAX34Y34*%
%LPD*%
%INBottom Copper*%
%IPPOS*%
%AMOC8*
5,1,8,0,0,1.08239X$1,22.5*%
G01*
%ADD10C,1.000000*%
%ADD11C,1.879600*%
%ADD12C,0.863600*%
%ADD13R,2.032000X2.032000*%
%ADD14C,2.032000*%
%ADD15C,0.736600*%
%ADD16C,0.203200*%
%ADD17C,0.609600*%


D10*
X1790700Y241300D03*
X50800Y50800D03*
D11*
X165100Y12700D03*
X139700Y12700D03*
X114300Y12700D03*
X88900Y12700D03*
D12*
X228600Y50800D03*
X254000Y50800D03*
X228600Y76200D03*
X254000Y76200D03*
X228600Y101600D03*
X254000Y101600D03*
D13*
X1136650Y222250D03*
D14*
X1171650Y222250D03*
D13*
X1593850Y222250D03*
D14*
X1628850Y222250D03*
D13*
X679450Y222250D03*
D14*
X714450Y222250D03*
D13*
X222250Y222250D03*
D14*
X257250Y222250D03*
D15*
X203200Y38100D03*
D16*
X146050Y38100D01*
X139700Y31750D02*
X139700Y12700D01*
X139700Y31750D02*
X146050Y38100D01*
X254000Y63500D02*
X254000Y76200D01*
X254000Y63500D02*
X228600Y38100D01*
X203200Y38100D01*
D15*
X139700Y31750D03*
D16*
X165100Y76200D02*
X228600Y76200D01*
D15*
X165100Y76200D03*
X127000Y76200D03*
D16*
X165100Y76200D01*
D15*
X76200Y127000D03*
D17*
X114300Y127000D01*
X127000Y127000D01*
X213300Y127000D01*
X257810Y127000D01*
X673100Y127000D01*
X716280Y127000D01*
X1171650Y127000D01*
X1628140Y127000D01*
X1739900Y127000D01*
X1752600Y114300D01*
D15*
X1752600Y114300D03*
D17*
X1171650Y127000D02*
X1171650Y222250D01*
X1628850Y222250D02*
X1628850Y127710D01*
X1628140Y127000D01*
X714450Y128830D02*
X714450Y222250D01*
X714450Y128830D02*
X716280Y127000D01*
X257250Y127560D02*
X257250Y222250D01*
X257250Y127560D02*
X257810Y127000D01*
D15*
X213300Y127000D03*
X673100Y127000D03*
X127000Y127000D03*
D17*
X114300Y127000D02*
X114300Y12700D01*
M02*
