G04 EAGLE Gerber RS-274X export*
G75*
%MOMM*%
%FSLAX34Y34*%
%LPD*%
%INSilkscreen Top*%
%IPPOS*%
%AMOC8*
5,1,8,0,0,1.08239X$1,22.5*%
G01*
%ADD10C,0.203200*%
%ADD11C,0.152400*%
%ADD12C,0.127000*%

G36*
X936136Y214086D02*
X936136Y214086D01*
X936163Y214083D01*
X936220Y214105D01*
X936279Y214119D01*
X936299Y214136D01*
X936325Y214146D01*
X936383Y214205D01*
X936412Y214229D01*
X936417Y214239D01*
X936426Y214249D01*
X936606Y214518D01*
X936879Y214791D01*
X936891Y214811D01*
X936914Y214832D01*
X937198Y215210D01*
X937679Y215691D01*
X937687Y215704D01*
X937702Y215717D01*
X938191Y216303D01*
X938779Y216891D01*
X938793Y216914D01*
X938819Y216939D01*
X939301Y217614D01*
X940579Y218891D01*
X940587Y218904D01*
X940602Y218917D01*
X941078Y219487D01*
X942028Y220247D01*
X942444Y220497D01*
X942941Y220580D01*
X944810Y220580D01*
X944836Y220586D01*
X944873Y220585D01*
X946073Y220785D01*
X946088Y220792D01*
X946110Y220793D01*
X947210Y221093D01*
X947227Y221102D01*
X947251Y221107D01*
X948251Y221507D01*
X948273Y221522D01*
X948306Y221534D01*
X949306Y222134D01*
X949326Y222154D01*
X949360Y222174D01*
X950160Y222874D01*
X950167Y222883D01*
X950179Y222891D01*
X950979Y223691D01*
X950990Y223709D01*
X951010Y223727D01*
X951710Y224627D01*
X951721Y224650D01*
X951742Y224675D01*
X952742Y226475D01*
X952752Y226510D01*
X952776Y226558D01*
X953276Y228358D01*
X953278Y228392D01*
X953290Y228439D01*
X953390Y230239D01*
X953383Y230275D01*
X953384Y230330D01*
X953084Y231930D01*
X953073Y231954D01*
X953068Y231988D01*
X952568Y233388D01*
X952552Y233413D01*
X952538Y233452D01*
X951838Y234652D01*
X951817Y234674D01*
X951794Y234713D01*
X950994Y235613D01*
X950990Y235616D01*
X950880Y235700D01*
X950080Y236100D01*
X950070Y236102D01*
X950064Y236107D01*
X950025Y236114D01*
X949982Y236133D01*
X949947Y236132D01*
X949912Y236140D01*
X949861Y236129D01*
X949809Y236127D01*
X949778Y236110D01*
X949743Y236101D01*
X949703Y236069D01*
X949657Y236044D01*
X949636Y236015D01*
X949609Y235992D01*
X949587Y235945D01*
X949557Y235902D01*
X949549Y235861D01*
X949537Y235834D01*
X949537Y235828D01*
X949537Y235826D01*
X949538Y235801D01*
X949530Y235760D01*
X949530Y235022D01*
X949391Y234604D01*
X949242Y234505D01*
X949048Y234440D01*
X948500Y234440D01*
X947801Y234790D01*
X947530Y234971D01*
X947138Y235264D01*
X947129Y235268D01*
X947121Y235276D01*
X946852Y235456D01*
X946623Y235685D01*
X946450Y236030D01*
X946437Y236046D01*
X946426Y236071D01*
X946263Y236316D01*
X946179Y236652D01*
X946173Y236664D01*
X946171Y236680D01*
X946111Y236860D01*
X946162Y237014D01*
X946250Y237190D01*
X946256Y237213D01*
X946271Y237240D01*
X946355Y237492D01*
X946490Y237695D01*
X946811Y237935D01*
X947090Y238075D01*
X947134Y238097D01*
X947585Y238187D01*
X947592Y238191D01*
X947602Y238191D01*
X947957Y238280D01*
X948148Y238280D01*
X948390Y238199D01*
X948427Y238196D01*
X948510Y238180D01*
X948810Y238180D01*
X948835Y238186D01*
X948861Y238183D01*
X948919Y238205D01*
X948979Y238219D01*
X948999Y238236D01*
X949023Y238245D01*
X949065Y238290D01*
X949112Y238329D01*
X949123Y238353D01*
X949140Y238372D01*
X949158Y238431D01*
X949183Y238488D01*
X949182Y238513D01*
X949190Y238538D01*
X949179Y238599D01*
X949177Y238661D01*
X949164Y238683D01*
X949160Y238709D01*
X949112Y238780D01*
X949094Y238813D01*
X949086Y238819D01*
X949079Y238829D01*
X948979Y238929D01*
X948959Y238941D01*
X948938Y238964D01*
X948538Y239264D01*
X948512Y239276D01*
X948480Y239300D01*
X947880Y239600D01*
X947863Y239604D01*
X947844Y239616D01*
X947044Y239916D01*
X947037Y239917D01*
X947030Y239921D01*
X946130Y240221D01*
X946093Y240224D01*
X946010Y240240D01*
X945010Y240240D01*
X944982Y240234D01*
X944942Y240234D01*
X943842Y240034D01*
X943807Y240019D01*
X943728Y239994D01*
X942628Y239394D01*
X942602Y239371D01*
X942557Y239344D01*
X941657Y238544D01*
X941638Y238516D01*
X941601Y238481D01*
X941101Y237781D01*
X941086Y237745D01*
X941049Y237680D01*
X940749Y236780D01*
X940746Y236743D01*
X940730Y236660D01*
X940730Y235860D01*
X940737Y235827D01*
X940739Y235778D01*
X940939Y234878D01*
X940956Y234842D01*
X940978Y234775D01*
X941478Y233875D01*
X941500Y233851D01*
X941524Y233810D01*
X942224Y233010D01*
X942225Y233009D01*
X942226Y233007D01*
X942375Y232839D01*
X942713Y232459D01*
X943024Y232109D01*
X943684Y231355D01*
X943930Y230782D01*
X943930Y230222D01*
X943771Y229745D01*
X943450Y229344D01*
X942954Y229013D01*
X942263Y228840D01*
X941548Y228840D01*
X941119Y228926D01*
X940688Y229098D01*
X940452Y229256D01*
X940223Y229485D01*
X940062Y229806D01*
X939990Y230022D01*
X939990Y230198D01*
X940055Y230392D01*
X940206Y230618D01*
X940515Y230928D01*
X940730Y230999D01*
X940750Y231012D01*
X940780Y231020D01*
X941180Y231220D01*
X941209Y231244D01*
X941279Y231291D01*
X941379Y231391D01*
X941392Y231412D01*
X941411Y231428D01*
X941437Y231485D01*
X941470Y231538D01*
X941473Y231563D01*
X941483Y231586D01*
X941481Y231649D01*
X941487Y231711D01*
X941478Y231734D01*
X941477Y231759D01*
X941447Y231814D01*
X941425Y231873D01*
X941407Y231890D01*
X941395Y231912D01*
X941325Y231966D01*
X941298Y231990D01*
X941289Y231993D01*
X941280Y232000D01*
X941080Y232100D01*
X941065Y232104D01*
X941052Y232113D01*
X940918Y232139D01*
X940912Y232140D01*
X940911Y232140D01*
X940910Y232140D01*
X940757Y232140D01*
X940402Y232229D01*
X940366Y232229D01*
X940310Y232240D01*
X939510Y232240D01*
X939484Y232234D01*
X939448Y232235D01*
X938848Y232135D01*
X938817Y232122D01*
X938769Y232113D01*
X937769Y231713D01*
X937738Y231691D01*
X937682Y231664D01*
X937298Y231376D01*
X936814Y231086D01*
X936800Y231072D01*
X936781Y231063D01*
X936711Y230986D01*
X936690Y230965D01*
X936688Y230960D01*
X936684Y230956D01*
X936384Y230456D01*
X936380Y230443D01*
X936370Y230430D01*
X936070Y229830D01*
X936064Y229807D01*
X936049Y229780D01*
X935849Y229180D01*
X935846Y229147D01*
X935832Y229102D01*
X935632Y227302D01*
X935634Y227283D01*
X935630Y227260D01*
X935630Y214460D01*
X935641Y214410D01*
X935643Y214359D01*
X935661Y214327D01*
X935669Y214291D01*
X935702Y214252D01*
X935726Y214207D01*
X935756Y214186D01*
X935779Y214158D01*
X935826Y214137D01*
X935868Y214107D01*
X935910Y214099D01*
X935938Y214087D01*
X935968Y214088D01*
X936010Y214080D01*
X936110Y214080D01*
X936136Y214086D01*
G37*
G36*
X890385Y188592D02*
X890385Y188592D01*
X890411Y188593D01*
X890465Y188623D01*
X890523Y188645D01*
X890540Y188664D01*
X890563Y188676D01*
X890598Y188727D01*
X890640Y188772D01*
X890648Y188797D01*
X890663Y188818D01*
X890679Y188902D01*
X890690Y188938D01*
X890688Y188948D01*
X890690Y188960D01*
X890690Y198201D01*
X890913Y197922D01*
X890936Y197905D01*
X891014Y197834D01*
X892014Y197234D01*
X892027Y197230D01*
X892040Y197220D01*
X892640Y196920D01*
X892678Y196911D01*
X892748Y196885D01*
X894548Y196585D01*
X894586Y196587D01*
X894660Y196583D01*
X896160Y196783D01*
X896188Y196794D01*
X896230Y196799D01*
X897430Y197199D01*
X897463Y197220D01*
X897534Y197252D01*
X898634Y198052D01*
X898651Y198072D01*
X898679Y198091D01*
X899579Y198991D01*
X899599Y199024D01*
X899644Y199078D01*
X900244Y200178D01*
X900249Y200195D01*
X900261Y200214D01*
X900761Y201414D01*
X900766Y201441D01*
X900781Y201475D01*
X901081Y202775D01*
X901080Y202800D01*
X901089Y202833D01*
X901189Y204233D01*
X901186Y204256D01*
X901189Y204285D01*
X901089Y205785D01*
X901082Y205808D01*
X901082Y205840D01*
X900782Y207240D01*
X900775Y207253D01*
X900773Y207272D01*
X900373Y208572D01*
X900354Y208605D01*
X900331Y208664D01*
X899631Y209764D01*
X899611Y209783D01*
X899593Y209814D01*
X898693Y210814D01*
X898661Y210836D01*
X898614Y210881D01*
X897514Y211581D01*
X897482Y211592D01*
X897438Y211618D01*
X896038Y212118D01*
X895999Y212122D01*
X895935Y212139D01*
X894435Y212239D01*
X894424Y212238D01*
X894410Y212240D01*
X893710Y212240D01*
X893684Y212234D01*
X893648Y212235D01*
X892448Y212035D01*
X892436Y212030D01*
X892314Y211986D01*
X891314Y211386D01*
X891298Y211371D01*
X891272Y211357D01*
X890772Y210957D01*
X890761Y210942D01*
X890741Y210929D01*
X890590Y210778D01*
X890590Y211560D01*
X890590Y211561D01*
X890590Y211562D01*
X890570Y211645D01*
X890551Y211729D01*
X890550Y211730D01*
X890550Y211731D01*
X890496Y211795D01*
X890441Y211862D01*
X890440Y211863D01*
X890439Y211864D01*
X890360Y211899D01*
X890282Y211933D01*
X890281Y211933D01*
X890280Y211934D01*
X890135Y211933D01*
X889135Y211733D01*
X889128Y211729D01*
X889118Y211729D01*
X888727Y211631D01*
X888235Y211533D01*
X888228Y211529D01*
X888218Y211529D01*
X887863Y211440D01*
X887410Y211440D01*
X887380Y211433D01*
X887335Y211433D01*
X886835Y211333D01*
X886828Y211329D01*
X886818Y211329D01*
X886418Y211229D01*
X886414Y211227D01*
X886409Y211227D01*
X886337Y211187D01*
X886264Y211150D01*
X886261Y211146D01*
X886257Y211144D01*
X886210Y211077D01*
X886161Y211010D01*
X886160Y211006D01*
X886157Y211002D01*
X886130Y210860D01*
X886130Y192360D01*
X886132Y192350D01*
X886130Y192340D01*
X886143Y192297D01*
X886143Y192282D01*
X886152Y192266D01*
X886169Y192191D01*
X886176Y192183D01*
X886179Y192174D01*
X886272Y192063D01*
X886756Y191676D01*
X887641Y190791D01*
X887657Y190781D01*
X887672Y190763D01*
X889156Y189576D01*
X890041Y188691D01*
X890063Y188678D01*
X890079Y188658D01*
X890136Y188632D01*
X890188Y188600D01*
X890214Y188597D01*
X890238Y188587D01*
X890299Y188589D01*
X890361Y188583D01*
X890385Y188592D01*
G37*
G36*
X907447Y196588D02*
X907447Y196588D01*
X907530Y196599D01*
X907772Y196680D01*
X908110Y196680D01*
X908147Y196688D01*
X908230Y196699D01*
X908472Y196780D01*
X908710Y196780D01*
X908747Y196788D01*
X908830Y196799D01*
X910030Y197199D01*
X910063Y197219D01*
X910121Y197244D01*
X910379Y197415D01*
X910630Y197499D01*
X910663Y197519D01*
X910721Y197544D01*
X911021Y197744D01*
X911042Y197767D01*
X911079Y197791D01*
X911216Y197928D01*
X911230Y197908D01*
X911230Y197760D01*
X911247Y197686D01*
X911260Y197611D01*
X911267Y197601D01*
X911269Y197591D01*
X911293Y197562D01*
X911341Y197491D01*
X911347Y197485D01*
X911360Y197411D01*
X911367Y197401D01*
X911369Y197391D01*
X911393Y197362D01*
X911441Y197291D01*
X911442Y197290D01*
X911443Y197259D01*
X911461Y197227D01*
X911469Y197191D01*
X911502Y197152D01*
X911526Y197107D01*
X911556Y197086D01*
X911579Y197058D01*
X911626Y197037D01*
X911668Y197007D01*
X911710Y196999D01*
X911738Y196987D01*
X911768Y196988D01*
X911810Y196980D01*
X915710Y196980D01*
X915760Y196991D01*
X915811Y196993D01*
X915843Y197011D01*
X915879Y197019D01*
X915918Y197052D01*
X915963Y197076D01*
X915984Y197106D01*
X916012Y197129D01*
X916033Y197176D01*
X916063Y197218D01*
X916071Y197260D01*
X916083Y197288D01*
X916082Y197318D01*
X916090Y197360D01*
X916090Y197460D01*
X916073Y197534D01*
X916060Y197609D01*
X916053Y197619D01*
X916051Y197629D01*
X916027Y197658D01*
X915979Y197729D01*
X915923Y197785D01*
X915890Y197850D01*
X915890Y198060D01*
X915887Y198075D01*
X915889Y198090D01*
X915852Y198222D01*
X915851Y198229D01*
X915850Y198229D01*
X915850Y198230D01*
X915790Y198350D01*
X915790Y198460D01*
X915787Y198475D01*
X915789Y198490D01*
X915767Y198571D01*
X915766Y198582D01*
X915761Y198592D01*
X915752Y198622D01*
X915751Y198629D01*
X915750Y198629D01*
X915750Y198630D01*
X915690Y198750D01*
X915690Y199560D01*
X915687Y199575D01*
X915689Y199590D01*
X915652Y199722D01*
X915651Y199729D01*
X915650Y199729D01*
X915650Y199730D01*
X915590Y199850D01*
X915590Y208460D01*
X915583Y208490D01*
X915583Y208535D01*
X915483Y209035D01*
X915471Y209061D01*
X915463Y209101D01*
X915263Y209601D01*
X915255Y209613D01*
X915250Y209630D01*
X915050Y210030D01*
X915032Y210052D01*
X915014Y210088D01*
X914714Y210488D01*
X914689Y210509D01*
X914682Y210522D01*
X914667Y210533D01*
X914638Y210564D01*
X913438Y211464D01*
X913403Y211479D01*
X913351Y211513D01*
X912851Y211713D01*
X912822Y211717D01*
X912785Y211733D01*
X912319Y211826D01*
X911851Y212013D01*
X911822Y212017D01*
X911785Y212033D01*
X911285Y212133D01*
X911253Y212132D01*
X911210Y212140D01*
X910648Y212140D01*
X910185Y212233D01*
X910153Y212232D01*
X910110Y212240D01*
X907810Y212240D01*
X907780Y212233D01*
X907735Y212233D01*
X907241Y212134D01*
X906648Y212035D01*
X906624Y212025D01*
X906590Y212021D01*
X906012Y211828D01*
X905535Y211733D01*
X905509Y211721D01*
X905469Y211713D01*
X904969Y211513D01*
X904947Y211498D01*
X904914Y211486D01*
X903914Y210886D01*
X903902Y210874D01*
X903882Y210864D01*
X903482Y210564D01*
X903457Y210534D01*
X903406Y210488D01*
X903106Y210088D01*
X903099Y210072D01*
X903084Y210056D01*
X902794Y209572D01*
X902506Y209188D01*
X902491Y209154D01*
X902449Y209080D01*
X902249Y208480D01*
X902247Y208458D01*
X902239Y208440D01*
X902239Y208435D01*
X902235Y208423D01*
X902035Y207223D01*
X902040Y207141D01*
X902043Y207059D01*
X902046Y207055D01*
X902046Y207050D01*
X902087Y206979D01*
X902126Y206907D01*
X902130Y206904D01*
X902133Y206900D01*
X902201Y206854D01*
X902268Y206807D01*
X902273Y206806D01*
X902277Y206804D01*
X902305Y206800D01*
X902410Y206780D01*
X906310Y206780D01*
X906360Y206791D01*
X906411Y206793D01*
X906443Y206811D01*
X906479Y206819D01*
X906518Y206852D01*
X906563Y206876D01*
X906584Y206906D01*
X906612Y206929D01*
X906633Y206976D01*
X906663Y207018D01*
X906671Y207060D01*
X906683Y207088D01*
X906682Y207118D01*
X906690Y207160D01*
X906690Y207570D01*
X906750Y207690D01*
X906756Y207713D01*
X906771Y207740D01*
X906862Y208014D01*
X906923Y208135D01*
X907235Y208448D01*
X907915Y208787D01*
X908100Y208880D01*
X909720Y208880D01*
X909840Y208820D01*
X909855Y208816D01*
X909868Y208807D01*
X910002Y208781D01*
X910009Y208780D01*
X910010Y208780D01*
X910120Y208780D01*
X910527Y208577D01*
X910570Y208490D01*
X910594Y208461D01*
X910641Y208391D01*
X910698Y208335D01*
X910930Y207870D01*
X910930Y206987D01*
X910751Y206748D01*
X910350Y206508D01*
X909797Y206323D01*
X909131Y206133D01*
X908462Y206037D01*
X906668Y205838D01*
X905768Y205738D01*
X905747Y205730D01*
X905718Y205729D01*
X904918Y205529D01*
X904901Y205520D01*
X904877Y205516D01*
X904077Y205216D01*
X904055Y205201D01*
X904021Y205190D01*
X903321Y204790D01*
X903299Y204770D01*
X903263Y204749D01*
X902563Y204149D01*
X902543Y204122D01*
X902480Y204049D01*
X902080Y203349D01*
X902071Y203319D01*
X902049Y203280D01*
X901749Y202380D01*
X901748Y202363D01*
X901745Y202356D01*
X901745Y202351D01*
X901736Y202328D01*
X901536Y201228D01*
X901536Y201218D01*
X901537Y201085D01*
X901630Y200622D01*
X901630Y200160D01*
X901633Y200145D01*
X901631Y200130D01*
X901668Y199998D01*
X901669Y199991D01*
X901670Y199991D01*
X901670Y199990D01*
X901847Y199636D01*
X901937Y199185D01*
X901938Y199184D01*
X901938Y199183D01*
X901994Y199049D01*
X902194Y198749D01*
X902201Y198742D01*
X902206Y198732D01*
X902500Y198340D01*
X902694Y198049D01*
X902717Y198028D01*
X902741Y197991D01*
X903041Y197691D01*
X903073Y197671D01*
X903140Y197620D01*
X903519Y197431D01*
X903799Y197244D01*
X903819Y197236D01*
X903840Y197220D01*
X904240Y197020D01*
X904254Y197017D01*
X904269Y197007D01*
X904769Y196807D01*
X904791Y196804D01*
X904818Y196791D01*
X905218Y196691D01*
X905254Y196691D01*
X905310Y196680D01*
X905772Y196680D01*
X906235Y196587D01*
X906267Y196588D01*
X906310Y196580D01*
X907410Y196580D01*
X907447Y196588D01*
G37*
G36*
X931960Y196991D02*
X931960Y196991D01*
X932011Y196993D01*
X932043Y197011D01*
X932079Y197019D01*
X932118Y197052D01*
X932163Y197076D01*
X932184Y197106D01*
X932212Y197129D01*
X932233Y197176D01*
X932263Y197218D01*
X932271Y197260D01*
X932283Y197288D01*
X932282Y197318D01*
X932290Y197360D01*
X932290Y202095D01*
X933331Y203066D01*
X936987Y197160D01*
X937010Y197136D01*
X937026Y197107D01*
X937071Y197076D01*
X937109Y197037D01*
X937141Y197027D01*
X937168Y197007D01*
X937236Y196994D01*
X937273Y196982D01*
X937290Y196984D01*
X937310Y196980D01*
X942010Y196980D01*
X942082Y196997D01*
X942154Y197008D01*
X942165Y197016D01*
X942179Y197019D01*
X942235Y197066D01*
X942295Y197109D01*
X942302Y197121D01*
X942312Y197129D01*
X942342Y197197D01*
X942377Y197261D01*
X942378Y197275D01*
X942383Y197288D01*
X942380Y197361D01*
X942383Y197434D01*
X942377Y197448D01*
X942377Y197461D01*
X942358Y197495D01*
X942328Y197568D01*
X936599Y206307D01*
X941676Y211289D01*
X941691Y211312D01*
X941712Y211329D01*
X941737Y211384D01*
X941769Y211435D01*
X941772Y211462D01*
X941783Y211488D01*
X941781Y211548D01*
X941787Y211607D01*
X941778Y211633D01*
X941777Y211661D01*
X941748Y211713D01*
X941727Y211770D01*
X941707Y211789D01*
X941694Y211813D01*
X941645Y211847D01*
X941601Y211889D01*
X941575Y211897D01*
X941552Y211913D01*
X941472Y211928D01*
X941436Y211939D01*
X941424Y211938D01*
X941410Y211940D01*
X936810Y211940D01*
X936732Y211922D01*
X936654Y211907D01*
X936648Y211902D01*
X936641Y211901D01*
X936616Y211880D01*
X936536Y211823D01*
X932290Y207405D01*
X932290Y216860D01*
X932277Y216916D01*
X932273Y216973D01*
X932258Y216999D01*
X932251Y217029D01*
X932214Y217073D01*
X932185Y217123D01*
X932160Y217139D01*
X932141Y217162D01*
X932088Y217186D01*
X932040Y217217D01*
X932010Y217221D01*
X931982Y217233D01*
X931925Y217231D01*
X931868Y217238D01*
X931835Y217228D01*
X931809Y217227D01*
X931779Y217210D01*
X931730Y217195D01*
X927830Y215095D01*
X927796Y215065D01*
X927757Y215044D01*
X927732Y215009D01*
X927700Y214980D01*
X927683Y214939D01*
X927657Y214902D01*
X927648Y214852D01*
X927634Y214820D01*
X927636Y214794D01*
X927630Y214760D01*
X927630Y197360D01*
X927641Y197310D01*
X927643Y197259D01*
X927661Y197227D01*
X927669Y197191D01*
X927702Y197152D01*
X927726Y197107D01*
X927756Y197086D01*
X927779Y197058D01*
X927826Y197037D01*
X927868Y197007D01*
X927910Y196999D01*
X927938Y196987D01*
X927968Y196988D01*
X928010Y196980D01*
X931910Y196980D01*
X931960Y196991D01*
G37*
G36*
X971360Y196991D02*
X971360Y196991D01*
X971411Y196993D01*
X971443Y197011D01*
X971479Y197019D01*
X971518Y197052D01*
X971563Y197076D01*
X971584Y197106D01*
X971612Y197129D01*
X971633Y197176D01*
X971663Y197218D01*
X971671Y197260D01*
X971683Y197288D01*
X971682Y197318D01*
X971690Y197360D01*
X971690Y205739D01*
X971782Y206562D01*
X972049Y207187D01*
X972323Y207642D01*
X972664Y208069D01*
X973044Y208297D01*
X973565Y208384D01*
X974302Y208476D01*
X974841Y208386D01*
X975271Y208300D01*
X975651Y208072D01*
X975894Y207748D01*
X976147Y207326D01*
X976234Y206803D01*
X976333Y206109D01*
X976430Y205336D01*
X976430Y197360D01*
X976441Y197310D01*
X976443Y197259D01*
X976461Y197227D01*
X976469Y197191D01*
X976502Y197152D01*
X976526Y197107D01*
X976556Y197086D01*
X976579Y197058D01*
X976626Y197037D01*
X976668Y197007D01*
X976710Y196999D01*
X976738Y196987D01*
X976768Y196988D01*
X976810Y196980D01*
X980710Y196980D01*
X980760Y196991D01*
X980811Y196993D01*
X980843Y197011D01*
X980879Y197019D01*
X980918Y197052D01*
X980963Y197076D01*
X980984Y197106D01*
X981012Y197129D01*
X981033Y197176D01*
X981063Y197218D01*
X981071Y197260D01*
X981083Y197288D01*
X981082Y197318D01*
X981090Y197360D01*
X981090Y206060D01*
X981087Y206073D01*
X981089Y206089D01*
X980989Y207389D01*
X980984Y207406D01*
X980984Y207428D01*
X980784Y208528D01*
X980777Y208545D01*
X980774Y208569D01*
X980474Y209569D01*
X980455Y209602D01*
X980432Y209662D01*
X979932Y210462D01*
X979908Y210486D01*
X979879Y210529D01*
X979179Y211229D01*
X979146Y211249D01*
X979095Y211292D01*
X978195Y211792D01*
X978160Y211802D01*
X978110Y211827D01*
X977010Y212127D01*
X976979Y212128D01*
X976937Y212139D01*
X975537Y212239D01*
X975525Y212237D01*
X975510Y212240D01*
X974910Y212240D01*
X974884Y212234D01*
X974848Y212235D01*
X974248Y212135D01*
X974224Y212125D01*
X974190Y212121D01*
X972990Y211721D01*
X972957Y211701D01*
X972899Y211676D01*
X972299Y211276D01*
X972289Y211266D01*
X972272Y211257D01*
X971772Y210857D01*
X971761Y210842D01*
X971741Y210829D01*
X971490Y210578D01*
X971490Y211560D01*
X971479Y211610D01*
X971477Y211661D01*
X971459Y211693D01*
X971451Y211729D01*
X971418Y211768D01*
X971394Y211813D01*
X971364Y211834D01*
X971341Y211862D01*
X971294Y211883D01*
X971252Y211913D01*
X971210Y211921D01*
X971182Y211933D01*
X971152Y211932D01*
X971110Y211940D01*
X967410Y211940D01*
X967360Y211929D01*
X967309Y211927D01*
X967277Y211909D01*
X967241Y211901D01*
X967202Y211868D01*
X967157Y211844D01*
X967136Y211814D01*
X967108Y211791D01*
X967087Y211744D01*
X967057Y211702D01*
X967049Y211660D01*
X967037Y211632D01*
X967038Y211602D01*
X967030Y211560D01*
X967030Y197360D01*
X967041Y197310D01*
X967043Y197259D01*
X967061Y197227D01*
X967069Y197191D01*
X967102Y197152D01*
X967126Y197107D01*
X967156Y197086D01*
X967179Y197058D01*
X967226Y197037D01*
X967268Y197007D01*
X967310Y196999D01*
X967338Y196987D01*
X967368Y196988D01*
X967410Y196980D01*
X971310Y196980D01*
X971360Y196991D01*
G37*
G36*
X957218Y196586D02*
X957218Y196586D01*
X957273Y196585D01*
X957867Y196684D01*
X958564Y196784D01*
X958591Y196794D01*
X958630Y196799D01*
X959230Y196999D01*
X959239Y197005D01*
X959251Y197007D01*
X959751Y197207D01*
X959763Y197215D01*
X959780Y197220D01*
X960100Y197380D01*
X960380Y197520D01*
X960405Y197541D01*
X960448Y197563D01*
X960948Y197963D01*
X960969Y197990D01*
X961007Y198022D01*
X961230Y198301D01*
X961230Y197360D01*
X961241Y197310D01*
X961243Y197259D01*
X961261Y197227D01*
X961269Y197191D01*
X961302Y197152D01*
X961326Y197107D01*
X961356Y197086D01*
X961379Y197058D01*
X961426Y197037D01*
X961468Y197007D01*
X961510Y196999D01*
X961538Y196987D01*
X961568Y196988D01*
X961610Y196980D01*
X965310Y196980D01*
X965360Y196991D01*
X965411Y196993D01*
X965443Y197011D01*
X965479Y197019D01*
X965518Y197052D01*
X965563Y197076D01*
X965584Y197106D01*
X965612Y197129D01*
X965633Y197176D01*
X965663Y197218D01*
X965671Y197260D01*
X965683Y197288D01*
X965682Y197318D01*
X965690Y197360D01*
X965690Y211560D01*
X965679Y211610D01*
X965677Y211661D01*
X965659Y211693D01*
X965651Y211729D01*
X965618Y211768D01*
X965594Y211813D01*
X965564Y211834D01*
X965541Y211862D01*
X965494Y211883D01*
X965452Y211913D01*
X965410Y211921D01*
X965382Y211933D01*
X965352Y211932D01*
X965310Y211940D01*
X961410Y211940D01*
X961360Y211929D01*
X961309Y211927D01*
X961277Y211909D01*
X961241Y211901D01*
X961202Y211868D01*
X961157Y211844D01*
X961136Y211814D01*
X961108Y211791D01*
X961087Y211744D01*
X961057Y211702D01*
X961049Y211660D01*
X961037Y211632D01*
X961038Y211602D01*
X961030Y211560D01*
X961030Y203084D01*
X960939Y202360D01*
X960665Y201720D01*
X960398Y201185D01*
X960074Y200862D01*
X959676Y200623D01*
X959155Y200536D01*
X958418Y200444D01*
X957879Y200534D01*
X957449Y200620D01*
X957070Y200848D01*
X956570Y201514D01*
X956486Y202015D01*
X956290Y203584D01*
X956290Y211560D01*
X956279Y211610D01*
X956277Y211661D01*
X956259Y211693D01*
X956251Y211729D01*
X956218Y211768D01*
X956194Y211813D01*
X956164Y211834D01*
X956141Y211862D01*
X956094Y211883D01*
X956052Y211913D01*
X956010Y211921D01*
X955982Y211933D01*
X955952Y211932D01*
X955910Y211940D01*
X952110Y211940D01*
X952060Y211929D01*
X952009Y211927D01*
X951977Y211909D01*
X951941Y211901D01*
X951902Y211868D01*
X951857Y211844D01*
X951836Y211814D01*
X951808Y211791D01*
X951787Y211744D01*
X951757Y211702D01*
X951749Y211660D01*
X951737Y211632D01*
X951738Y211602D01*
X951730Y211560D01*
X951730Y201560D01*
X951736Y201532D01*
X951736Y201492D01*
X951936Y200392D01*
X951943Y200375D01*
X951946Y200351D01*
X952246Y199351D01*
X952262Y199322D01*
X952278Y199275D01*
X952778Y198375D01*
X952797Y198354D01*
X952863Y198271D01*
X953563Y197671D01*
X953591Y197657D01*
X953625Y197628D01*
X954525Y197128D01*
X954550Y197120D01*
X954580Y197103D01*
X955680Y196703D01*
X955719Y196698D01*
X955783Y196681D01*
X957183Y196581D01*
X957218Y196586D01*
G37*
G36*
X879642Y196681D02*
X879642Y196681D01*
X879655Y196685D01*
X879673Y196685D01*
X880873Y196885D01*
X880888Y196892D01*
X880910Y196893D01*
X882010Y197193D01*
X882038Y197208D01*
X882080Y197220D01*
X882400Y197380D01*
X883080Y197720D01*
X883109Y197744D01*
X883160Y197774D01*
X883960Y198474D01*
X883979Y198500D01*
X884014Y198532D01*
X884614Y199332D01*
X884630Y199368D01*
X884667Y199430D01*
X885067Y200530D01*
X885071Y200561D01*
X885086Y200602D01*
X885286Y201902D01*
X885283Y201940D01*
X885288Y202002D01*
X885188Y202902D01*
X885175Y202939D01*
X885160Y203010D01*
X884860Y203710D01*
X884842Y203734D01*
X884826Y203771D01*
X884426Y204371D01*
X884398Y204398D01*
X884353Y204452D01*
X883753Y204952D01*
X883728Y204965D01*
X883699Y204990D01*
X882299Y205790D01*
X882261Y205801D01*
X882193Y205831D01*
X881298Y206030D01*
X878902Y206629D01*
X878882Y206629D01*
X878857Y206637D01*
X878095Y206733D01*
X877556Y206912D01*
X877011Y207185D01*
X876682Y207432D01*
X876460Y207727D01*
X876390Y208007D01*
X876390Y208245D01*
X876654Y208641D01*
X876816Y208695D01*
X877202Y208791D01*
X877214Y208797D01*
X877230Y208799D01*
X877472Y208880D01*
X879037Y208880D01*
X879454Y208713D01*
X879819Y208531D01*
X880036Y208386D01*
X880172Y208182D01*
X880344Y207751D01*
X880437Y207285D01*
X880443Y207273D01*
X880443Y207259D01*
X880479Y207195D01*
X880509Y207128D01*
X880520Y207119D01*
X880526Y207107D01*
X880586Y207065D01*
X880643Y207018D01*
X880657Y207015D01*
X880668Y207007D01*
X880810Y206980D01*
X884510Y206980D01*
X884590Y206998D01*
X884670Y207015D01*
X884674Y207018D01*
X884679Y207019D01*
X884742Y207072D01*
X884806Y207122D01*
X884808Y207126D01*
X884812Y207129D01*
X884846Y207204D01*
X884881Y207278D01*
X884881Y207283D01*
X884883Y207288D01*
X884882Y207315D01*
X884885Y207423D01*
X884685Y208623D01*
X884670Y208659D01*
X884650Y208730D01*
X884150Y209730D01*
X884132Y209752D01*
X884114Y209788D01*
X883514Y210588D01*
X883484Y210613D01*
X883438Y210664D01*
X882638Y211264D01*
X882606Y211278D01*
X882564Y211307D01*
X881664Y211707D01*
X881644Y211711D01*
X881619Y211724D01*
X880619Y212024D01*
X880600Y212025D01*
X880578Y212034D01*
X879478Y212234D01*
X879449Y212233D01*
X879410Y212240D01*
X877110Y212240D01*
X877082Y212234D01*
X877042Y212234D01*
X875942Y212034D01*
X875939Y212033D01*
X875935Y212033D01*
X874935Y211833D01*
X874901Y211817D01*
X874840Y211800D01*
X874740Y211750D01*
X873980Y211370D01*
X873840Y211300D01*
X873812Y211277D01*
X873763Y211249D01*
X873063Y210649D01*
X873048Y210630D01*
X873024Y210610D01*
X872324Y209810D01*
X872308Y209780D01*
X872257Y209701D01*
X871857Y208701D01*
X871851Y208662D01*
X871831Y208592D01*
X871731Y207392D01*
X871736Y207361D01*
X871732Y207318D01*
X871832Y206418D01*
X871842Y206391D01*
X871843Y206366D01*
X871852Y206348D01*
X871861Y206310D01*
X872161Y205610D01*
X872178Y205587D01*
X872194Y205549D01*
X872594Y204949D01*
X872595Y204948D01*
X872596Y204946D01*
X872699Y204844D01*
X873299Y204444D01*
X873310Y204439D01*
X873321Y204430D01*
X874021Y204030D01*
X874040Y204024D01*
X874060Y204011D01*
X874760Y203711D01*
X874768Y203709D01*
X874777Y203704D01*
X875577Y203404D01*
X875600Y203401D01*
X875628Y203389D01*
X876528Y203189D01*
X876531Y203189D01*
X876535Y203187D01*
X877527Y202989D01*
X879104Y202595D01*
X879650Y202412D01*
X880098Y202144D01*
X880410Y201910D01*
X880551Y201627D01*
X880618Y201360D01*
X880467Y200754D01*
X880260Y200548D01*
X879909Y200285D01*
X879577Y200119D01*
X879263Y200040D01*
X878910Y200040D01*
X878874Y200032D01*
X878818Y200029D01*
X878494Y199948D01*
X877979Y200034D01*
X877485Y200133D01*
X877479Y200133D01*
X877473Y200135D01*
X876964Y200220D01*
X876282Y200732D01*
X876044Y201048D01*
X875890Y201433D01*
X875890Y201960D01*
X875879Y202010D01*
X875877Y202061D01*
X875859Y202093D01*
X875851Y202129D01*
X875818Y202168D01*
X875794Y202213D01*
X875764Y202234D01*
X875741Y202262D01*
X875694Y202283D01*
X875652Y202313D01*
X875610Y202321D01*
X875582Y202333D01*
X875552Y202332D01*
X875510Y202340D01*
X871810Y202340D01*
X871733Y202322D01*
X871655Y202307D01*
X871649Y202303D01*
X871641Y202301D01*
X871580Y202250D01*
X871517Y202202D01*
X871513Y202195D01*
X871508Y202191D01*
X871475Y202118D01*
X871440Y202047D01*
X871440Y202039D01*
X871437Y202032D01*
X871438Y201999D01*
X871434Y201902D01*
X871634Y200602D01*
X871647Y200570D01*
X871657Y200519D01*
X872057Y199519D01*
X872079Y199487D01*
X872110Y199427D01*
X872810Y198527D01*
X872834Y198507D01*
X872860Y198474D01*
X873660Y197774D01*
X873693Y197756D01*
X873740Y197720D01*
X874740Y197220D01*
X874770Y197213D01*
X874810Y197193D01*
X875910Y196893D01*
X875927Y196893D01*
X875948Y196885D01*
X877148Y196685D01*
X877162Y196686D01*
X877178Y196681D01*
X878378Y196581D01*
X878405Y196585D01*
X878442Y196581D01*
X879642Y196681D01*
G37*
G36*
X948260Y196991D02*
X948260Y196991D01*
X948311Y196993D01*
X948343Y197011D01*
X948379Y197019D01*
X948418Y197052D01*
X948463Y197076D01*
X948484Y197106D01*
X948512Y197129D01*
X948533Y197176D01*
X948563Y197218D01*
X948571Y197260D01*
X948583Y197288D01*
X948582Y197318D01*
X948590Y197360D01*
X948590Y208580D01*
X950910Y208580D01*
X950960Y208591D01*
X951011Y208593D01*
X951043Y208611D01*
X951079Y208619D01*
X951118Y208652D01*
X951163Y208676D01*
X951184Y208706D01*
X951212Y208729D01*
X951233Y208776D01*
X951263Y208818D01*
X951271Y208860D01*
X951283Y208888D01*
X951282Y208918D01*
X951290Y208960D01*
X951290Y211560D01*
X951279Y211610D01*
X951277Y211661D01*
X951259Y211693D01*
X951251Y211729D01*
X951218Y211768D01*
X951194Y211813D01*
X951164Y211834D01*
X951141Y211862D01*
X951094Y211883D01*
X951052Y211913D01*
X951010Y211921D01*
X950982Y211933D01*
X950952Y211932D01*
X950910Y211940D01*
X948590Y211940D01*
X948590Y212313D01*
X948679Y212668D01*
X948679Y212704D01*
X948690Y212760D01*
X948690Y213070D01*
X948740Y213169D01*
X948870Y213365D01*
X948880Y213370D01*
X949143Y213501D01*
X949457Y213580D01*
X951110Y213580D01*
X951160Y213591D01*
X951211Y213593D01*
X951243Y213611D01*
X951279Y213619D01*
X951318Y213652D01*
X951363Y213676D01*
X951384Y213706D01*
X951412Y213729D01*
X951433Y213776D01*
X951463Y213818D01*
X951471Y213860D01*
X951483Y213888D01*
X951482Y213918D01*
X951490Y213960D01*
X951490Y216760D01*
X951479Y216809D01*
X951477Y216859D01*
X951459Y216892D01*
X951451Y216929D01*
X951419Y216968D01*
X951395Y217012D01*
X951360Y217038D01*
X951341Y217062D01*
X951313Y217075D01*
X951280Y217100D01*
X951080Y217200D01*
X951065Y217204D01*
X951052Y217213D01*
X950918Y217239D01*
X950912Y217240D01*
X950911Y217240D01*
X950910Y217240D01*
X948010Y217240D01*
X947972Y217231D01*
X947901Y217224D01*
X946901Y216924D01*
X946877Y216910D01*
X946840Y216900D01*
X946466Y216713D01*
X946040Y216500D01*
X946020Y216484D01*
X945989Y216469D01*
X945289Y215969D01*
X945264Y215941D01*
X945218Y215903D01*
X944718Y215303D01*
X944700Y215268D01*
X944661Y215210D01*
X944361Y214510D01*
X944359Y214502D01*
X944354Y214494D01*
X944054Y213694D01*
X944051Y213667D01*
X944030Y213560D01*
X944030Y211940D01*
X943210Y211940D01*
X943194Y211937D01*
X943178Y211939D01*
X943111Y211917D01*
X943041Y211901D01*
X943029Y211890D01*
X943013Y211885D01*
X942917Y211798D01*
X942908Y211791D01*
X942907Y211789D01*
X942906Y211788D01*
X942638Y211432D01*
X942282Y211164D01*
X942267Y211146D01*
X942241Y211129D01*
X940660Y209548D01*
X940282Y209264D01*
X940248Y209224D01*
X940208Y209191D01*
X940193Y209158D01*
X940171Y209131D01*
X940158Y209080D01*
X940137Y209032D01*
X940138Y208997D01*
X940130Y208963D01*
X940141Y208912D01*
X940143Y208859D01*
X940160Y208828D01*
X940168Y208794D01*
X940201Y208753D01*
X940226Y208707D01*
X940255Y208687D01*
X940277Y208659D01*
X940325Y208638D01*
X940368Y208607D01*
X940408Y208600D01*
X940435Y208587D01*
X940466Y208588D01*
X940510Y208580D01*
X944030Y208580D01*
X944030Y197360D01*
X944041Y197310D01*
X944043Y197259D01*
X944061Y197227D01*
X944069Y197191D01*
X944102Y197152D01*
X944126Y197107D01*
X944156Y197086D01*
X944179Y197058D01*
X944226Y197037D01*
X944268Y197007D01*
X944310Y196999D01*
X944338Y196987D01*
X944368Y196988D01*
X944410Y196980D01*
X948210Y196980D01*
X948260Y196991D01*
G37*
G36*
X921360Y196991D02*
X921360Y196991D01*
X921411Y196993D01*
X921443Y197011D01*
X921479Y197019D01*
X921518Y197052D01*
X921563Y197076D01*
X921584Y197106D01*
X921612Y197129D01*
X921633Y197176D01*
X921663Y197218D01*
X921671Y197260D01*
X921683Y197288D01*
X921682Y197318D01*
X921690Y197360D01*
X921690Y204618D01*
X921879Y205466D01*
X922063Y206111D01*
X922424Y206742D01*
X922858Y207264D01*
X923453Y207604D01*
X924175Y207784D01*
X925129Y207880D01*
X926120Y207880D01*
X926240Y207820D01*
X926255Y207816D01*
X926268Y207807D01*
X926402Y207781D01*
X926409Y207780D01*
X926410Y207780D01*
X926510Y207780D01*
X926560Y207791D01*
X926611Y207793D01*
X926643Y207811D01*
X926679Y207819D01*
X926718Y207852D01*
X926763Y207876D01*
X926784Y207906D01*
X926812Y207929D01*
X926833Y207976D01*
X926863Y208018D01*
X926871Y208060D01*
X926883Y208088D01*
X926882Y208118D01*
X926890Y208160D01*
X926890Y211760D01*
X926879Y211810D01*
X926877Y211861D01*
X926859Y211893D01*
X926851Y211929D01*
X926818Y211968D01*
X926794Y212013D01*
X926764Y212034D01*
X926741Y212062D01*
X926694Y212083D01*
X926652Y212113D01*
X926610Y212121D01*
X926582Y212133D01*
X926572Y212133D01*
X926514Y212169D01*
X926452Y212213D01*
X926440Y212215D01*
X926432Y212220D01*
X926395Y212224D01*
X926310Y212240D01*
X924910Y212240D01*
X924872Y212231D01*
X924806Y212226D01*
X924106Y212026D01*
X924099Y212022D01*
X924090Y212021D01*
X923490Y211821D01*
X923463Y211804D01*
X923421Y211790D01*
X922721Y211390D01*
X922703Y211373D01*
X922672Y211357D01*
X922172Y210957D01*
X922153Y210932D01*
X922118Y210903D01*
X921618Y210303D01*
X921616Y210300D01*
X921613Y210298D01*
X921490Y210144D01*
X921490Y211560D01*
X921488Y211570D01*
X921490Y211580D01*
X921468Y211654D01*
X921451Y211729D01*
X921444Y211737D01*
X921441Y211747D01*
X921390Y211803D01*
X921341Y211862D01*
X921331Y211867D01*
X921324Y211874D01*
X921253Y211902D01*
X921182Y211933D01*
X921172Y211933D01*
X921162Y211937D01*
X921018Y211929D01*
X920627Y211831D01*
X919635Y211633D01*
X919628Y211629D01*
X919618Y211629D01*
X919227Y211531D01*
X918772Y211440D01*
X918310Y211440D01*
X918274Y211432D01*
X918218Y211429D01*
X917827Y211331D01*
X917335Y211233D01*
X917323Y211227D01*
X917309Y211227D01*
X917245Y211192D01*
X917178Y211161D01*
X917169Y211150D01*
X917157Y211144D01*
X917115Y211084D01*
X917068Y211027D01*
X917065Y211013D01*
X917057Y211002D01*
X917030Y210860D01*
X917030Y197360D01*
X917041Y197310D01*
X917043Y197259D01*
X917061Y197227D01*
X917069Y197191D01*
X917102Y197152D01*
X917126Y197107D01*
X917156Y197086D01*
X917179Y197058D01*
X917226Y197037D01*
X917268Y197007D01*
X917310Y196999D01*
X917338Y196987D01*
X917368Y196988D01*
X917410Y196980D01*
X921310Y196980D01*
X921360Y196991D01*
G37*
%LPC*%
G36*
X892784Y200434D02*
X892784Y200434D01*
X892192Y200604D01*
X891667Y201041D01*
X891231Y201477D01*
X890972Y202082D01*
X890590Y203607D01*
X890590Y205236D01*
X890682Y205968D01*
X890963Y206718D01*
X891238Y207359D01*
X891678Y207887D01*
X892100Y208225D01*
X892802Y208488D01*
X893513Y208577D01*
X894312Y208488D01*
X894928Y208224D01*
X895453Y207874D01*
X895882Y207359D01*
X896157Y206718D01*
X896438Y205968D01*
X896530Y205236D01*
X896530Y203584D01*
X896438Y202852D01*
X896157Y202102D01*
X895881Y201457D01*
X895537Y201028D01*
X895033Y200608D01*
X894340Y200434D01*
X893607Y200343D01*
X892784Y200434D01*
G37*
%LPD*%
%LPC*%
G36*
X907800Y199940D02*
X907800Y199940D01*
X907680Y200000D01*
X907665Y200004D01*
X907652Y200013D01*
X907518Y200039D01*
X907512Y200040D01*
X907511Y200040D01*
X907510Y200040D01*
X907400Y200040D01*
X907280Y200100D01*
X907265Y200104D01*
X907252Y200113D01*
X907118Y200139D01*
X907112Y200140D01*
X907111Y200140D01*
X907110Y200140D01*
X907000Y200140D01*
X906735Y200273D01*
X906679Y200329D01*
X906647Y200349D01*
X906580Y200400D01*
X906493Y200443D01*
X906450Y200530D01*
X906426Y200559D01*
X906379Y200629D01*
X906323Y200685D01*
X906290Y200750D01*
X906290Y200860D01*
X906282Y200897D01*
X906271Y200980D01*
X906190Y201222D01*
X906190Y201570D01*
X906250Y201690D01*
X906254Y201705D01*
X906263Y201718D01*
X906289Y201852D01*
X906290Y201859D01*
X906290Y201860D01*
X906290Y201970D01*
X906493Y202377D01*
X906580Y202420D01*
X906609Y202444D01*
X906679Y202491D01*
X906735Y202548D01*
X907047Y202703D01*
X907080Y202720D01*
X907109Y202744D01*
X907179Y202791D01*
X907235Y202848D01*
X907356Y202908D01*
X907572Y202980D01*
X907710Y202980D01*
X907725Y202983D01*
X907740Y202981D01*
X907872Y203018D01*
X907879Y203019D01*
X907879Y203020D01*
X907880Y203020D01*
X908000Y203080D01*
X908310Y203080D01*
X908347Y203088D01*
X908430Y203099D01*
X908672Y203180D01*
X909010Y203180D01*
X909047Y203188D01*
X909130Y203199D01*
X909372Y203280D01*
X909510Y203280D01*
X909525Y203283D01*
X909540Y203281D01*
X909672Y203318D01*
X909679Y203319D01*
X909679Y203320D01*
X909680Y203320D01*
X909800Y203380D01*
X910110Y203380D01*
X910125Y203383D01*
X910140Y203381D01*
X910272Y203418D01*
X910279Y203419D01*
X910279Y203420D01*
X910280Y203420D01*
X910368Y203464D01*
X910400Y203480D01*
X910510Y203480D01*
X910525Y203483D01*
X910540Y203481D01*
X910672Y203518D01*
X910679Y203519D01*
X910679Y203520D01*
X910680Y203520D01*
X910930Y203645D01*
X910930Y202022D01*
X910858Y201806D01*
X910770Y201630D01*
X910764Y201607D01*
X910749Y201580D01*
X910578Y201065D01*
X910441Y200929D01*
X910425Y200902D01*
X910394Y200871D01*
X910215Y200602D01*
X910068Y200456D01*
X909854Y200313D01*
X909518Y200229D01*
X909488Y200213D01*
X909440Y200200D01*
X909120Y200040D01*
X908710Y200040D01*
X908680Y200033D01*
X908635Y200033D01*
X908172Y199940D01*
X907800Y199940D01*
G37*
%LPD*%
D10*
X1528763Y200025D02*
X1519238Y200025D01*
X714375Y17463D02*
X714375Y7938D01*
X1062038Y200025D02*
X1071563Y200025D01*
X614363Y200025D02*
X604838Y200025D01*
X157163Y200025D02*
X147638Y200025D01*
X1849400Y142000D02*
X1849400Y112000D01*
X1823400Y97000D02*
X1806900Y97000D01*
X1806900Y149500D02*
X1806900Y157000D01*
X1823400Y157000D01*
X1806900Y104500D02*
X1806900Y97000D01*
X1799384Y102000D02*
X1799386Y102063D01*
X1799392Y102126D01*
X1799402Y102189D01*
X1799415Y102250D01*
X1799433Y102311D01*
X1799454Y102370D01*
X1799479Y102429D01*
X1799507Y102485D01*
X1799539Y102540D01*
X1799574Y102592D01*
X1799613Y102642D01*
X1799654Y102690D01*
X1799699Y102735D01*
X1799746Y102777D01*
X1799795Y102816D01*
X1799847Y102852D01*
X1799901Y102885D01*
X1799957Y102914D01*
X1800015Y102940D01*
X1800074Y102962D01*
X1800134Y102981D01*
X1800196Y102995D01*
X1800258Y103006D01*
X1800321Y103013D01*
X1800384Y103016D01*
X1800447Y103015D01*
X1800510Y103010D01*
X1800573Y103001D01*
X1800635Y102988D01*
X1800696Y102972D01*
X1800756Y102952D01*
X1800814Y102928D01*
X1800871Y102900D01*
X1800926Y102869D01*
X1800979Y102835D01*
X1801030Y102797D01*
X1801078Y102756D01*
X1801124Y102713D01*
X1801167Y102666D01*
X1801207Y102617D01*
X1801244Y102566D01*
X1801277Y102513D01*
X1801307Y102457D01*
X1801334Y102400D01*
X1801357Y102341D01*
X1801376Y102281D01*
X1801392Y102219D01*
X1801404Y102157D01*
X1801412Y102095D01*
X1801416Y102032D01*
X1801416Y101968D01*
X1801412Y101905D01*
X1801404Y101843D01*
X1801392Y101781D01*
X1801376Y101719D01*
X1801357Y101659D01*
X1801334Y101600D01*
X1801307Y101543D01*
X1801277Y101487D01*
X1801244Y101434D01*
X1801207Y101383D01*
X1801167Y101334D01*
X1801124Y101287D01*
X1801078Y101244D01*
X1801030Y101203D01*
X1800979Y101165D01*
X1800926Y101131D01*
X1800871Y101100D01*
X1800814Y101072D01*
X1800756Y101048D01*
X1800696Y101028D01*
X1800635Y101012D01*
X1800573Y100999D01*
X1800510Y100990D01*
X1800447Y100985D01*
X1800384Y100984D01*
X1800321Y100987D01*
X1800258Y100994D01*
X1800196Y101005D01*
X1800134Y101019D01*
X1800074Y101038D01*
X1800015Y101060D01*
X1799957Y101086D01*
X1799901Y101115D01*
X1799847Y101148D01*
X1799795Y101184D01*
X1799746Y101223D01*
X1799699Y101265D01*
X1799654Y101310D01*
X1799613Y101358D01*
X1799574Y101408D01*
X1799539Y101460D01*
X1799507Y101515D01*
X1799479Y101571D01*
X1799454Y101630D01*
X1799433Y101689D01*
X1799415Y101750D01*
X1799402Y101811D01*
X1799392Y101874D01*
X1799386Y101937D01*
X1799384Y102000D01*
X4800Y112000D02*
X4800Y142000D01*
X30800Y157000D02*
X47300Y157000D01*
X47300Y104500D02*
X47300Y97000D01*
X30800Y97000D01*
X47300Y149500D02*
X47300Y157000D01*
X52784Y152000D02*
X52786Y152063D01*
X52792Y152126D01*
X52802Y152189D01*
X52815Y152250D01*
X52833Y152311D01*
X52854Y152370D01*
X52879Y152429D01*
X52907Y152485D01*
X52939Y152540D01*
X52974Y152592D01*
X53013Y152642D01*
X53054Y152690D01*
X53099Y152735D01*
X53146Y152777D01*
X53195Y152816D01*
X53247Y152852D01*
X53301Y152885D01*
X53357Y152914D01*
X53415Y152940D01*
X53474Y152962D01*
X53534Y152981D01*
X53596Y152995D01*
X53658Y153006D01*
X53721Y153013D01*
X53784Y153016D01*
X53847Y153015D01*
X53910Y153010D01*
X53973Y153001D01*
X54035Y152988D01*
X54096Y152972D01*
X54156Y152952D01*
X54214Y152928D01*
X54271Y152900D01*
X54326Y152869D01*
X54379Y152835D01*
X54430Y152797D01*
X54478Y152756D01*
X54524Y152713D01*
X54567Y152666D01*
X54607Y152617D01*
X54644Y152566D01*
X54677Y152513D01*
X54707Y152457D01*
X54734Y152400D01*
X54757Y152341D01*
X54776Y152281D01*
X54792Y152219D01*
X54804Y152157D01*
X54812Y152095D01*
X54816Y152032D01*
X54816Y151968D01*
X54812Y151905D01*
X54804Y151843D01*
X54792Y151781D01*
X54776Y151719D01*
X54757Y151659D01*
X54734Y151600D01*
X54707Y151543D01*
X54677Y151487D01*
X54644Y151434D01*
X54607Y151383D01*
X54567Y151334D01*
X54524Y151287D01*
X54478Y151244D01*
X54430Y151203D01*
X54379Y151165D01*
X54326Y151131D01*
X54271Y151100D01*
X54214Y151072D01*
X54156Y151048D01*
X54096Y151028D01*
X54035Y151012D01*
X53973Y150999D01*
X53910Y150990D01*
X53847Y150985D01*
X53784Y150984D01*
X53721Y150987D01*
X53658Y150994D01*
X53596Y151005D01*
X53534Y151019D01*
X53474Y151038D01*
X53415Y151060D01*
X53357Y151086D01*
X53301Y151115D01*
X53247Y151148D01*
X53195Y151184D01*
X53146Y151223D01*
X53099Y151265D01*
X53054Y151310D01*
X53013Y151358D01*
X52974Y151408D01*
X52939Y151460D01*
X52907Y151515D01*
X52879Y151571D01*
X52854Y151630D01*
X52833Y151689D01*
X52815Y151750D01*
X52802Y151811D01*
X52792Y151874D01*
X52786Y151937D01*
X52784Y152000D01*
D11*
X688340Y72136D02*
X688340Y54864D01*
X706120Y52324D02*
X706220Y52326D01*
X706319Y52332D01*
X706419Y52342D01*
X706517Y52355D01*
X706616Y52373D01*
X706713Y52394D01*
X706809Y52419D01*
X706905Y52448D01*
X706999Y52481D01*
X707092Y52517D01*
X707183Y52557D01*
X707273Y52601D01*
X707361Y52648D01*
X707447Y52698D01*
X707531Y52752D01*
X707613Y52809D01*
X707692Y52869D01*
X707770Y52933D01*
X707844Y52999D01*
X707916Y53068D01*
X707985Y53140D01*
X708051Y53214D01*
X708115Y53292D01*
X708175Y53371D01*
X708232Y53453D01*
X708286Y53537D01*
X708336Y53623D01*
X708383Y53711D01*
X708427Y53801D01*
X708467Y53892D01*
X708503Y53985D01*
X708536Y54079D01*
X708565Y54175D01*
X708590Y54271D01*
X708611Y54368D01*
X708629Y54467D01*
X708642Y54565D01*
X708652Y54665D01*
X708658Y54764D01*
X708660Y54864D01*
X708660Y72136D02*
X708658Y72236D01*
X708652Y72335D01*
X708642Y72435D01*
X708629Y72533D01*
X708611Y72632D01*
X708590Y72729D01*
X708565Y72825D01*
X708536Y72921D01*
X708503Y73015D01*
X708467Y73108D01*
X708427Y73199D01*
X708383Y73289D01*
X708336Y73377D01*
X708286Y73463D01*
X708232Y73547D01*
X708175Y73629D01*
X708115Y73708D01*
X708051Y73786D01*
X707985Y73860D01*
X707916Y73932D01*
X707844Y74001D01*
X707770Y74067D01*
X707692Y74131D01*
X707613Y74191D01*
X707531Y74248D01*
X707447Y74302D01*
X707361Y74352D01*
X707273Y74399D01*
X707183Y74443D01*
X707092Y74483D01*
X706999Y74519D01*
X706905Y74552D01*
X706809Y74581D01*
X706713Y74606D01*
X706616Y74627D01*
X706517Y74645D01*
X706419Y74658D01*
X706319Y74668D01*
X706220Y74674D01*
X706120Y74676D01*
X690880Y74676D02*
X690780Y74674D01*
X690681Y74668D01*
X690581Y74658D01*
X690483Y74645D01*
X690384Y74627D01*
X690287Y74606D01*
X690191Y74581D01*
X690095Y74552D01*
X690001Y74519D01*
X689908Y74483D01*
X689817Y74443D01*
X689727Y74399D01*
X689639Y74352D01*
X689553Y74302D01*
X689469Y74248D01*
X689387Y74191D01*
X689308Y74131D01*
X689230Y74067D01*
X689156Y74001D01*
X689084Y73932D01*
X689015Y73860D01*
X688949Y73786D01*
X688885Y73708D01*
X688825Y73629D01*
X688768Y73547D01*
X688714Y73463D01*
X688664Y73377D01*
X688617Y73289D01*
X688573Y73199D01*
X688533Y73108D01*
X688497Y73015D01*
X688464Y72921D01*
X688435Y72825D01*
X688410Y72729D01*
X688389Y72632D01*
X688371Y72533D01*
X688358Y72435D01*
X688348Y72335D01*
X688342Y72236D01*
X688340Y72136D01*
X688340Y54864D02*
X688342Y54764D01*
X688348Y54665D01*
X688358Y54565D01*
X688371Y54467D01*
X688389Y54368D01*
X688410Y54271D01*
X688435Y54175D01*
X688464Y54079D01*
X688497Y53985D01*
X688533Y53892D01*
X688573Y53801D01*
X688617Y53711D01*
X688664Y53623D01*
X688714Y53537D01*
X688768Y53453D01*
X688825Y53371D01*
X688885Y53292D01*
X688949Y53214D01*
X689015Y53140D01*
X689084Y53068D01*
X689156Y52999D01*
X689230Y52933D01*
X689308Y52869D01*
X689387Y52809D01*
X689469Y52752D01*
X689553Y52698D01*
X689639Y52648D01*
X689727Y52601D01*
X689817Y52557D01*
X689908Y52517D01*
X690001Y52481D01*
X690095Y52448D01*
X690191Y52419D01*
X690287Y52394D01*
X690384Y52373D01*
X690483Y52355D01*
X690581Y52342D01*
X690681Y52332D01*
X690780Y52326D01*
X690880Y52324D01*
X706120Y52324D01*
X706120Y74676D02*
X690880Y74676D01*
X708660Y72136D02*
X708660Y54864D01*
X199136Y60960D02*
X181864Y60960D01*
X179324Y43180D02*
X179326Y43080D01*
X179332Y42981D01*
X179342Y42881D01*
X179355Y42783D01*
X179373Y42684D01*
X179394Y42587D01*
X179419Y42491D01*
X179448Y42395D01*
X179481Y42301D01*
X179517Y42208D01*
X179557Y42117D01*
X179601Y42027D01*
X179648Y41939D01*
X179698Y41853D01*
X179752Y41769D01*
X179809Y41687D01*
X179869Y41608D01*
X179933Y41530D01*
X179999Y41456D01*
X180068Y41384D01*
X180140Y41315D01*
X180214Y41249D01*
X180292Y41185D01*
X180371Y41125D01*
X180453Y41068D01*
X180537Y41014D01*
X180623Y40964D01*
X180711Y40917D01*
X180801Y40873D01*
X180892Y40833D01*
X180985Y40797D01*
X181079Y40764D01*
X181175Y40735D01*
X181271Y40710D01*
X181368Y40689D01*
X181467Y40671D01*
X181565Y40658D01*
X181665Y40648D01*
X181764Y40642D01*
X181864Y40640D01*
X199136Y40640D02*
X199236Y40642D01*
X199335Y40648D01*
X199435Y40658D01*
X199533Y40671D01*
X199632Y40689D01*
X199729Y40710D01*
X199825Y40735D01*
X199921Y40764D01*
X200015Y40797D01*
X200108Y40833D01*
X200199Y40873D01*
X200289Y40917D01*
X200377Y40964D01*
X200463Y41014D01*
X200547Y41068D01*
X200629Y41125D01*
X200708Y41185D01*
X200786Y41249D01*
X200860Y41315D01*
X200932Y41384D01*
X201001Y41456D01*
X201067Y41530D01*
X201131Y41608D01*
X201191Y41687D01*
X201248Y41769D01*
X201302Y41853D01*
X201352Y41939D01*
X201399Y42027D01*
X201443Y42117D01*
X201483Y42208D01*
X201519Y42301D01*
X201552Y42395D01*
X201581Y42491D01*
X201606Y42587D01*
X201627Y42684D01*
X201645Y42783D01*
X201658Y42881D01*
X201668Y42981D01*
X201674Y43080D01*
X201676Y43180D01*
X201676Y58420D02*
X201674Y58520D01*
X201668Y58619D01*
X201658Y58719D01*
X201645Y58817D01*
X201627Y58916D01*
X201606Y59013D01*
X201581Y59109D01*
X201552Y59205D01*
X201519Y59299D01*
X201483Y59392D01*
X201443Y59483D01*
X201399Y59573D01*
X201352Y59661D01*
X201302Y59747D01*
X201248Y59831D01*
X201191Y59913D01*
X201131Y59992D01*
X201067Y60070D01*
X201001Y60144D01*
X200932Y60216D01*
X200860Y60285D01*
X200786Y60351D01*
X200708Y60415D01*
X200629Y60475D01*
X200547Y60532D01*
X200463Y60586D01*
X200377Y60636D01*
X200289Y60683D01*
X200199Y60727D01*
X200108Y60767D01*
X200015Y60803D01*
X199921Y60836D01*
X199825Y60865D01*
X199729Y60890D01*
X199632Y60911D01*
X199533Y60929D01*
X199435Y60942D01*
X199335Y60952D01*
X199236Y60958D01*
X199136Y60960D01*
X181864Y60960D02*
X181764Y60958D01*
X181665Y60952D01*
X181565Y60942D01*
X181467Y60929D01*
X181368Y60911D01*
X181271Y60890D01*
X181175Y60865D01*
X181079Y60836D01*
X180985Y60803D01*
X180892Y60767D01*
X180801Y60727D01*
X180711Y60683D01*
X180623Y60636D01*
X180537Y60586D01*
X180453Y60532D01*
X180371Y60475D01*
X180292Y60415D01*
X180214Y60351D01*
X180140Y60285D01*
X180068Y60216D01*
X179999Y60144D01*
X179933Y60070D01*
X179869Y59992D01*
X179809Y59913D01*
X179752Y59831D01*
X179698Y59747D01*
X179648Y59661D01*
X179601Y59573D01*
X179557Y59483D01*
X179517Y59392D01*
X179481Y59299D01*
X179448Y59205D01*
X179419Y59109D01*
X179394Y59013D01*
X179373Y58916D01*
X179355Y58817D01*
X179342Y58719D01*
X179332Y58619D01*
X179326Y58520D01*
X179324Y58420D01*
X179324Y43180D01*
X201676Y43180D02*
X201676Y58420D01*
X199136Y40640D02*
X181864Y40640D01*
D12*
X930700Y258800D02*
X930700Y858800D01*
X1380700Y858800D01*
X1380700Y258800D01*
X930700Y258800D01*
D10*
X1263200Y788800D02*
X1263209Y789536D01*
X1263236Y790272D01*
X1263281Y791007D01*
X1263344Y791741D01*
X1263426Y792472D01*
X1263525Y793202D01*
X1263642Y793929D01*
X1263776Y794653D01*
X1263929Y795373D01*
X1264099Y796089D01*
X1264287Y796801D01*
X1264492Y797509D01*
X1264714Y798210D01*
X1264954Y798907D01*
X1265210Y799597D01*
X1265484Y800281D01*
X1265774Y800957D01*
X1266080Y801627D01*
X1266403Y802288D01*
X1266742Y802942D01*
X1267097Y803587D01*
X1267468Y804223D01*
X1267854Y804850D01*
X1268256Y805467D01*
X1268672Y806074D01*
X1269104Y806671D01*
X1269550Y807257D01*
X1270010Y807832D01*
X1270484Y808395D01*
X1270971Y808947D01*
X1271473Y809486D01*
X1271987Y810013D01*
X1272514Y810527D01*
X1273053Y811029D01*
X1273605Y811516D01*
X1274168Y811990D01*
X1274743Y812450D01*
X1275329Y812896D01*
X1275926Y813328D01*
X1276533Y813744D01*
X1277150Y814146D01*
X1277777Y814532D01*
X1278413Y814903D01*
X1279058Y815258D01*
X1279712Y815597D01*
X1280373Y815920D01*
X1281043Y816226D01*
X1281719Y816516D01*
X1282403Y816790D01*
X1283093Y817046D01*
X1283790Y817286D01*
X1284491Y817508D01*
X1285199Y817713D01*
X1285911Y817901D01*
X1286627Y818071D01*
X1287347Y818224D01*
X1288071Y818358D01*
X1288798Y818475D01*
X1289528Y818574D01*
X1290259Y818656D01*
X1290993Y818719D01*
X1291728Y818764D01*
X1292464Y818791D01*
X1293200Y818800D01*
X1293936Y818791D01*
X1294672Y818764D01*
X1295407Y818719D01*
X1296141Y818656D01*
X1296872Y818574D01*
X1297602Y818475D01*
X1298329Y818358D01*
X1299053Y818224D01*
X1299773Y818071D01*
X1300489Y817901D01*
X1301201Y817713D01*
X1301909Y817508D01*
X1302610Y817286D01*
X1303307Y817046D01*
X1303997Y816790D01*
X1304681Y816516D01*
X1305357Y816226D01*
X1306027Y815920D01*
X1306688Y815597D01*
X1307342Y815258D01*
X1307987Y814903D01*
X1308623Y814532D01*
X1309250Y814146D01*
X1309867Y813744D01*
X1310474Y813328D01*
X1311071Y812896D01*
X1311657Y812450D01*
X1312232Y811990D01*
X1312795Y811516D01*
X1313347Y811029D01*
X1313886Y810527D01*
X1314413Y810013D01*
X1314927Y809486D01*
X1315429Y808947D01*
X1315916Y808395D01*
X1316390Y807832D01*
X1316850Y807257D01*
X1317296Y806671D01*
X1317728Y806074D01*
X1318144Y805467D01*
X1318546Y804850D01*
X1318932Y804223D01*
X1319303Y803587D01*
X1319658Y802942D01*
X1319997Y802288D01*
X1320320Y801627D01*
X1320626Y800957D01*
X1320916Y800281D01*
X1321190Y799597D01*
X1321446Y798907D01*
X1321686Y798210D01*
X1321908Y797509D01*
X1322113Y796801D01*
X1322301Y796089D01*
X1322471Y795373D01*
X1322624Y794653D01*
X1322758Y793929D01*
X1322875Y793202D01*
X1322974Y792472D01*
X1323056Y791741D01*
X1323119Y791007D01*
X1323164Y790272D01*
X1323191Y789536D01*
X1323200Y788800D01*
X1323191Y788064D01*
X1323164Y787328D01*
X1323119Y786593D01*
X1323056Y785859D01*
X1322974Y785128D01*
X1322875Y784398D01*
X1322758Y783671D01*
X1322624Y782947D01*
X1322471Y782227D01*
X1322301Y781511D01*
X1322113Y780799D01*
X1321908Y780091D01*
X1321686Y779390D01*
X1321446Y778693D01*
X1321190Y778003D01*
X1320916Y777319D01*
X1320626Y776643D01*
X1320320Y775973D01*
X1319997Y775312D01*
X1319658Y774658D01*
X1319303Y774013D01*
X1318932Y773377D01*
X1318546Y772750D01*
X1318144Y772133D01*
X1317728Y771526D01*
X1317296Y770929D01*
X1316850Y770343D01*
X1316390Y769768D01*
X1315916Y769205D01*
X1315429Y768653D01*
X1314927Y768114D01*
X1314413Y767587D01*
X1313886Y767073D01*
X1313347Y766571D01*
X1312795Y766084D01*
X1312232Y765610D01*
X1311657Y765150D01*
X1311071Y764704D01*
X1310474Y764272D01*
X1309867Y763856D01*
X1309250Y763454D01*
X1308623Y763068D01*
X1307987Y762697D01*
X1307342Y762342D01*
X1306688Y762003D01*
X1306027Y761680D01*
X1305357Y761374D01*
X1304681Y761084D01*
X1303997Y760810D01*
X1303307Y760554D01*
X1302610Y760314D01*
X1301909Y760092D01*
X1301201Y759887D01*
X1300489Y759699D01*
X1299773Y759529D01*
X1299053Y759376D01*
X1298329Y759242D01*
X1297602Y759125D01*
X1296872Y759026D01*
X1296141Y758944D01*
X1295407Y758881D01*
X1294672Y758836D01*
X1293936Y758809D01*
X1293200Y758800D01*
X1292464Y758809D01*
X1291728Y758836D01*
X1290993Y758881D01*
X1290259Y758944D01*
X1289528Y759026D01*
X1288798Y759125D01*
X1288071Y759242D01*
X1287347Y759376D01*
X1286627Y759529D01*
X1285911Y759699D01*
X1285199Y759887D01*
X1284491Y760092D01*
X1283790Y760314D01*
X1283093Y760554D01*
X1282403Y760810D01*
X1281719Y761084D01*
X1281043Y761374D01*
X1280373Y761680D01*
X1279712Y762003D01*
X1279058Y762342D01*
X1278413Y762697D01*
X1277777Y763068D01*
X1277150Y763454D01*
X1276533Y763856D01*
X1275926Y764272D01*
X1275329Y764704D01*
X1274743Y765150D01*
X1274168Y765610D01*
X1273605Y766084D01*
X1273053Y766571D01*
X1272514Y767073D01*
X1271987Y767587D01*
X1271473Y768114D01*
X1270971Y768653D01*
X1270484Y769205D01*
X1270010Y769768D01*
X1269550Y770343D01*
X1269104Y770929D01*
X1268672Y771526D01*
X1268256Y772133D01*
X1267854Y772750D01*
X1267468Y773377D01*
X1267097Y774013D01*
X1266742Y774658D01*
X1266403Y775312D01*
X1266080Y775973D01*
X1265774Y776643D01*
X1265484Y777319D01*
X1265210Y778003D01*
X1264954Y778693D01*
X1264714Y779390D01*
X1264492Y780091D01*
X1264287Y780799D01*
X1264099Y781511D01*
X1263929Y782227D01*
X1263776Y782947D01*
X1263642Y783671D01*
X1263525Y784398D01*
X1263426Y785128D01*
X1263344Y785859D01*
X1263281Y786593D01*
X1263236Y787328D01*
X1263209Y788064D01*
X1263200Y788800D01*
X924844Y863720D02*
X924846Y863783D01*
X924852Y863846D01*
X924862Y863909D01*
X924875Y863970D01*
X924893Y864031D01*
X924914Y864090D01*
X924939Y864149D01*
X924967Y864205D01*
X924999Y864260D01*
X925034Y864312D01*
X925073Y864362D01*
X925114Y864410D01*
X925159Y864455D01*
X925206Y864497D01*
X925255Y864536D01*
X925307Y864572D01*
X925361Y864605D01*
X925417Y864634D01*
X925475Y864660D01*
X925534Y864682D01*
X925594Y864701D01*
X925656Y864715D01*
X925718Y864726D01*
X925781Y864733D01*
X925844Y864736D01*
X925907Y864735D01*
X925970Y864730D01*
X926033Y864721D01*
X926095Y864708D01*
X926156Y864692D01*
X926216Y864672D01*
X926274Y864648D01*
X926331Y864620D01*
X926386Y864589D01*
X926439Y864555D01*
X926490Y864517D01*
X926538Y864476D01*
X926584Y864433D01*
X926627Y864386D01*
X926667Y864337D01*
X926704Y864286D01*
X926737Y864233D01*
X926767Y864177D01*
X926794Y864120D01*
X926817Y864061D01*
X926836Y864001D01*
X926852Y863939D01*
X926864Y863877D01*
X926872Y863815D01*
X926876Y863752D01*
X926876Y863688D01*
X926872Y863625D01*
X926864Y863563D01*
X926852Y863501D01*
X926836Y863439D01*
X926817Y863379D01*
X926794Y863320D01*
X926767Y863263D01*
X926737Y863207D01*
X926704Y863154D01*
X926667Y863103D01*
X926627Y863054D01*
X926584Y863007D01*
X926538Y862964D01*
X926490Y862923D01*
X926439Y862885D01*
X926386Y862851D01*
X926331Y862820D01*
X926274Y862792D01*
X926216Y862768D01*
X926156Y862748D01*
X926095Y862732D01*
X926033Y862719D01*
X925970Y862710D01*
X925907Y862705D01*
X925844Y862704D01*
X925781Y862707D01*
X925718Y862714D01*
X925656Y862725D01*
X925594Y862739D01*
X925534Y862758D01*
X925475Y862780D01*
X925417Y862806D01*
X925361Y862835D01*
X925307Y862868D01*
X925255Y862904D01*
X925206Y862943D01*
X925159Y862985D01*
X925114Y863030D01*
X925073Y863078D01*
X925034Y863128D01*
X924999Y863180D01*
X924967Y863235D01*
X924939Y863291D01*
X924914Y863350D01*
X924893Y863409D01*
X924875Y863470D01*
X924862Y863531D01*
X924852Y863594D01*
X924846Y863657D01*
X924844Y863720D01*
X988200Y788800D02*
X988209Y789536D01*
X988236Y790272D01*
X988281Y791007D01*
X988344Y791741D01*
X988426Y792472D01*
X988525Y793202D01*
X988642Y793929D01*
X988776Y794653D01*
X988929Y795373D01*
X989099Y796089D01*
X989287Y796801D01*
X989492Y797509D01*
X989714Y798210D01*
X989954Y798907D01*
X990210Y799597D01*
X990484Y800281D01*
X990774Y800957D01*
X991080Y801627D01*
X991403Y802288D01*
X991742Y802942D01*
X992097Y803587D01*
X992468Y804223D01*
X992854Y804850D01*
X993256Y805467D01*
X993672Y806074D01*
X994104Y806671D01*
X994550Y807257D01*
X995010Y807832D01*
X995484Y808395D01*
X995971Y808947D01*
X996473Y809486D01*
X996987Y810013D01*
X997514Y810527D01*
X998053Y811029D01*
X998605Y811516D01*
X999168Y811990D01*
X999743Y812450D01*
X1000329Y812896D01*
X1000926Y813328D01*
X1001533Y813744D01*
X1002150Y814146D01*
X1002777Y814532D01*
X1003413Y814903D01*
X1004058Y815258D01*
X1004712Y815597D01*
X1005373Y815920D01*
X1006043Y816226D01*
X1006719Y816516D01*
X1007403Y816790D01*
X1008093Y817046D01*
X1008790Y817286D01*
X1009491Y817508D01*
X1010199Y817713D01*
X1010911Y817901D01*
X1011627Y818071D01*
X1012347Y818224D01*
X1013071Y818358D01*
X1013798Y818475D01*
X1014528Y818574D01*
X1015259Y818656D01*
X1015993Y818719D01*
X1016728Y818764D01*
X1017464Y818791D01*
X1018200Y818800D01*
X1018936Y818791D01*
X1019672Y818764D01*
X1020407Y818719D01*
X1021141Y818656D01*
X1021872Y818574D01*
X1022602Y818475D01*
X1023329Y818358D01*
X1024053Y818224D01*
X1024773Y818071D01*
X1025489Y817901D01*
X1026201Y817713D01*
X1026909Y817508D01*
X1027610Y817286D01*
X1028307Y817046D01*
X1028997Y816790D01*
X1029681Y816516D01*
X1030357Y816226D01*
X1031027Y815920D01*
X1031688Y815597D01*
X1032342Y815258D01*
X1032987Y814903D01*
X1033623Y814532D01*
X1034250Y814146D01*
X1034867Y813744D01*
X1035474Y813328D01*
X1036071Y812896D01*
X1036657Y812450D01*
X1037232Y811990D01*
X1037795Y811516D01*
X1038347Y811029D01*
X1038886Y810527D01*
X1039413Y810013D01*
X1039927Y809486D01*
X1040429Y808947D01*
X1040916Y808395D01*
X1041390Y807832D01*
X1041850Y807257D01*
X1042296Y806671D01*
X1042728Y806074D01*
X1043144Y805467D01*
X1043546Y804850D01*
X1043932Y804223D01*
X1044303Y803587D01*
X1044658Y802942D01*
X1044997Y802288D01*
X1045320Y801627D01*
X1045626Y800957D01*
X1045916Y800281D01*
X1046190Y799597D01*
X1046446Y798907D01*
X1046686Y798210D01*
X1046908Y797509D01*
X1047113Y796801D01*
X1047301Y796089D01*
X1047471Y795373D01*
X1047624Y794653D01*
X1047758Y793929D01*
X1047875Y793202D01*
X1047974Y792472D01*
X1048056Y791741D01*
X1048119Y791007D01*
X1048164Y790272D01*
X1048191Y789536D01*
X1048200Y788800D01*
X1048191Y788064D01*
X1048164Y787328D01*
X1048119Y786593D01*
X1048056Y785859D01*
X1047974Y785128D01*
X1047875Y784398D01*
X1047758Y783671D01*
X1047624Y782947D01*
X1047471Y782227D01*
X1047301Y781511D01*
X1047113Y780799D01*
X1046908Y780091D01*
X1046686Y779390D01*
X1046446Y778693D01*
X1046190Y778003D01*
X1045916Y777319D01*
X1045626Y776643D01*
X1045320Y775973D01*
X1044997Y775312D01*
X1044658Y774658D01*
X1044303Y774013D01*
X1043932Y773377D01*
X1043546Y772750D01*
X1043144Y772133D01*
X1042728Y771526D01*
X1042296Y770929D01*
X1041850Y770343D01*
X1041390Y769768D01*
X1040916Y769205D01*
X1040429Y768653D01*
X1039927Y768114D01*
X1039413Y767587D01*
X1038886Y767073D01*
X1038347Y766571D01*
X1037795Y766084D01*
X1037232Y765610D01*
X1036657Y765150D01*
X1036071Y764704D01*
X1035474Y764272D01*
X1034867Y763856D01*
X1034250Y763454D01*
X1033623Y763068D01*
X1032987Y762697D01*
X1032342Y762342D01*
X1031688Y762003D01*
X1031027Y761680D01*
X1030357Y761374D01*
X1029681Y761084D01*
X1028997Y760810D01*
X1028307Y760554D01*
X1027610Y760314D01*
X1026909Y760092D01*
X1026201Y759887D01*
X1025489Y759699D01*
X1024773Y759529D01*
X1024053Y759376D01*
X1023329Y759242D01*
X1022602Y759125D01*
X1021872Y759026D01*
X1021141Y758944D01*
X1020407Y758881D01*
X1019672Y758836D01*
X1018936Y758809D01*
X1018200Y758800D01*
X1017464Y758809D01*
X1016728Y758836D01*
X1015993Y758881D01*
X1015259Y758944D01*
X1014528Y759026D01*
X1013798Y759125D01*
X1013071Y759242D01*
X1012347Y759376D01*
X1011627Y759529D01*
X1010911Y759699D01*
X1010199Y759887D01*
X1009491Y760092D01*
X1008790Y760314D01*
X1008093Y760554D01*
X1007403Y760810D01*
X1006719Y761084D01*
X1006043Y761374D01*
X1005373Y761680D01*
X1004712Y762003D01*
X1004058Y762342D01*
X1003413Y762697D01*
X1002777Y763068D01*
X1002150Y763454D01*
X1001533Y763856D01*
X1000926Y764272D01*
X1000329Y764704D01*
X999743Y765150D01*
X999168Y765610D01*
X998605Y766084D01*
X998053Y766571D01*
X997514Y767073D01*
X996987Y767587D01*
X996473Y768114D01*
X995971Y768653D01*
X995484Y769205D01*
X995010Y769768D01*
X994550Y770343D01*
X994104Y770929D01*
X993672Y771526D01*
X993256Y772133D01*
X992854Y772750D01*
X992468Y773377D01*
X992097Y774013D01*
X991742Y774658D01*
X991403Y775312D01*
X991080Y775973D01*
X990774Y776643D01*
X990484Y777319D01*
X990210Y778003D01*
X989954Y778693D01*
X989714Y779390D01*
X989492Y780091D01*
X989287Y780799D01*
X989099Y781511D01*
X988929Y782227D01*
X988776Y782947D01*
X988642Y783671D01*
X988525Y784398D01*
X988426Y785128D01*
X988344Y785859D01*
X988281Y786593D01*
X988236Y787328D01*
X988209Y788064D01*
X988200Y788800D01*
X988200Y318800D02*
X988209Y319536D01*
X988236Y320272D01*
X988281Y321007D01*
X988344Y321741D01*
X988426Y322472D01*
X988525Y323202D01*
X988642Y323929D01*
X988776Y324653D01*
X988929Y325373D01*
X989099Y326089D01*
X989287Y326801D01*
X989492Y327509D01*
X989714Y328210D01*
X989954Y328907D01*
X990210Y329597D01*
X990484Y330281D01*
X990774Y330957D01*
X991080Y331627D01*
X991403Y332288D01*
X991742Y332942D01*
X992097Y333587D01*
X992468Y334223D01*
X992854Y334850D01*
X993256Y335467D01*
X993672Y336074D01*
X994104Y336671D01*
X994550Y337257D01*
X995010Y337832D01*
X995484Y338395D01*
X995971Y338947D01*
X996473Y339486D01*
X996987Y340013D01*
X997514Y340527D01*
X998053Y341029D01*
X998605Y341516D01*
X999168Y341990D01*
X999743Y342450D01*
X1000329Y342896D01*
X1000926Y343328D01*
X1001533Y343744D01*
X1002150Y344146D01*
X1002777Y344532D01*
X1003413Y344903D01*
X1004058Y345258D01*
X1004712Y345597D01*
X1005373Y345920D01*
X1006043Y346226D01*
X1006719Y346516D01*
X1007403Y346790D01*
X1008093Y347046D01*
X1008790Y347286D01*
X1009491Y347508D01*
X1010199Y347713D01*
X1010911Y347901D01*
X1011627Y348071D01*
X1012347Y348224D01*
X1013071Y348358D01*
X1013798Y348475D01*
X1014528Y348574D01*
X1015259Y348656D01*
X1015993Y348719D01*
X1016728Y348764D01*
X1017464Y348791D01*
X1018200Y348800D01*
X1018936Y348791D01*
X1019672Y348764D01*
X1020407Y348719D01*
X1021141Y348656D01*
X1021872Y348574D01*
X1022602Y348475D01*
X1023329Y348358D01*
X1024053Y348224D01*
X1024773Y348071D01*
X1025489Y347901D01*
X1026201Y347713D01*
X1026909Y347508D01*
X1027610Y347286D01*
X1028307Y347046D01*
X1028997Y346790D01*
X1029681Y346516D01*
X1030357Y346226D01*
X1031027Y345920D01*
X1031688Y345597D01*
X1032342Y345258D01*
X1032987Y344903D01*
X1033623Y344532D01*
X1034250Y344146D01*
X1034867Y343744D01*
X1035474Y343328D01*
X1036071Y342896D01*
X1036657Y342450D01*
X1037232Y341990D01*
X1037795Y341516D01*
X1038347Y341029D01*
X1038886Y340527D01*
X1039413Y340013D01*
X1039927Y339486D01*
X1040429Y338947D01*
X1040916Y338395D01*
X1041390Y337832D01*
X1041850Y337257D01*
X1042296Y336671D01*
X1042728Y336074D01*
X1043144Y335467D01*
X1043546Y334850D01*
X1043932Y334223D01*
X1044303Y333587D01*
X1044658Y332942D01*
X1044997Y332288D01*
X1045320Y331627D01*
X1045626Y330957D01*
X1045916Y330281D01*
X1046190Y329597D01*
X1046446Y328907D01*
X1046686Y328210D01*
X1046908Y327509D01*
X1047113Y326801D01*
X1047301Y326089D01*
X1047471Y325373D01*
X1047624Y324653D01*
X1047758Y323929D01*
X1047875Y323202D01*
X1047974Y322472D01*
X1048056Y321741D01*
X1048119Y321007D01*
X1048164Y320272D01*
X1048191Y319536D01*
X1048200Y318800D01*
X1048191Y318064D01*
X1048164Y317328D01*
X1048119Y316593D01*
X1048056Y315859D01*
X1047974Y315128D01*
X1047875Y314398D01*
X1047758Y313671D01*
X1047624Y312947D01*
X1047471Y312227D01*
X1047301Y311511D01*
X1047113Y310799D01*
X1046908Y310091D01*
X1046686Y309390D01*
X1046446Y308693D01*
X1046190Y308003D01*
X1045916Y307319D01*
X1045626Y306643D01*
X1045320Y305973D01*
X1044997Y305312D01*
X1044658Y304658D01*
X1044303Y304013D01*
X1043932Y303377D01*
X1043546Y302750D01*
X1043144Y302133D01*
X1042728Y301526D01*
X1042296Y300929D01*
X1041850Y300343D01*
X1041390Y299768D01*
X1040916Y299205D01*
X1040429Y298653D01*
X1039927Y298114D01*
X1039413Y297587D01*
X1038886Y297073D01*
X1038347Y296571D01*
X1037795Y296084D01*
X1037232Y295610D01*
X1036657Y295150D01*
X1036071Y294704D01*
X1035474Y294272D01*
X1034867Y293856D01*
X1034250Y293454D01*
X1033623Y293068D01*
X1032987Y292697D01*
X1032342Y292342D01*
X1031688Y292003D01*
X1031027Y291680D01*
X1030357Y291374D01*
X1029681Y291084D01*
X1028997Y290810D01*
X1028307Y290554D01*
X1027610Y290314D01*
X1026909Y290092D01*
X1026201Y289887D01*
X1025489Y289699D01*
X1024773Y289529D01*
X1024053Y289376D01*
X1023329Y289242D01*
X1022602Y289125D01*
X1021872Y289026D01*
X1021141Y288944D01*
X1020407Y288881D01*
X1019672Y288836D01*
X1018936Y288809D01*
X1018200Y288800D01*
X1017464Y288809D01*
X1016728Y288836D01*
X1015993Y288881D01*
X1015259Y288944D01*
X1014528Y289026D01*
X1013798Y289125D01*
X1013071Y289242D01*
X1012347Y289376D01*
X1011627Y289529D01*
X1010911Y289699D01*
X1010199Y289887D01*
X1009491Y290092D01*
X1008790Y290314D01*
X1008093Y290554D01*
X1007403Y290810D01*
X1006719Y291084D01*
X1006043Y291374D01*
X1005373Y291680D01*
X1004712Y292003D01*
X1004058Y292342D01*
X1003413Y292697D01*
X1002777Y293068D01*
X1002150Y293454D01*
X1001533Y293856D01*
X1000926Y294272D01*
X1000329Y294704D01*
X999743Y295150D01*
X999168Y295610D01*
X998605Y296084D01*
X998053Y296571D01*
X997514Y297073D01*
X996987Y297587D01*
X996473Y298114D01*
X995971Y298653D01*
X995484Y299205D01*
X995010Y299768D01*
X994550Y300343D01*
X994104Y300929D01*
X993672Y301526D01*
X993256Y302133D01*
X992854Y302750D01*
X992468Y303377D01*
X992097Y304013D01*
X991742Y304658D01*
X991403Y305312D01*
X991080Y305973D01*
X990774Y306643D01*
X990484Y307319D01*
X990210Y308003D01*
X989954Y308693D01*
X989714Y309390D01*
X989492Y310091D01*
X989287Y310799D01*
X989099Y311511D01*
X988929Y312227D01*
X988776Y312947D01*
X988642Y313671D01*
X988525Y314398D01*
X988426Y315128D01*
X988344Y315859D01*
X988281Y316593D01*
X988236Y317328D01*
X988209Y318064D01*
X988200Y318800D01*
X1263200Y318800D02*
X1263209Y319536D01*
X1263236Y320272D01*
X1263281Y321007D01*
X1263344Y321741D01*
X1263426Y322472D01*
X1263525Y323202D01*
X1263642Y323929D01*
X1263776Y324653D01*
X1263929Y325373D01*
X1264099Y326089D01*
X1264287Y326801D01*
X1264492Y327509D01*
X1264714Y328210D01*
X1264954Y328907D01*
X1265210Y329597D01*
X1265484Y330281D01*
X1265774Y330957D01*
X1266080Y331627D01*
X1266403Y332288D01*
X1266742Y332942D01*
X1267097Y333587D01*
X1267468Y334223D01*
X1267854Y334850D01*
X1268256Y335467D01*
X1268672Y336074D01*
X1269104Y336671D01*
X1269550Y337257D01*
X1270010Y337832D01*
X1270484Y338395D01*
X1270971Y338947D01*
X1271473Y339486D01*
X1271987Y340013D01*
X1272514Y340527D01*
X1273053Y341029D01*
X1273605Y341516D01*
X1274168Y341990D01*
X1274743Y342450D01*
X1275329Y342896D01*
X1275926Y343328D01*
X1276533Y343744D01*
X1277150Y344146D01*
X1277777Y344532D01*
X1278413Y344903D01*
X1279058Y345258D01*
X1279712Y345597D01*
X1280373Y345920D01*
X1281043Y346226D01*
X1281719Y346516D01*
X1282403Y346790D01*
X1283093Y347046D01*
X1283790Y347286D01*
X1284491Y347508D01*
X1285199Y347713D01*
X1285911Y347901D01*
X1286627Y348071D01*
X1287347Y348224D01*
X1288071Y348358D01*
X1288798Y348475D01*
X1289528Y348574D01*
X1290259Y348656D01*
X1290993Y348719D01*
X1291728Y348764D01*
X1292464Y348791D01*
X1293200Y348800D01*
X1293936Y348791D01*
X1294672Y348764D01*
X1295407Y348719D01*
X1296141Y348656D01*
X1296872Y348574D01*
X1297602Y348475D01*
X1298329Y348358D01*
X1299053Y348224D01*
X1299773Y348071D01*
X1300489Y347901D01*
X1301201Y347713D01*
X1301909Y347508D01*
X1302610Y347286D01*
X1303307Y347046D01*
X1303997Y346790D01*
X1304681Y346516D01*
X1305357Y346226D01*
X1306027Y345920D01*
X1306688Y345597D01*
X1307342Y345258D01*
X1307987Y344903D01*
X1308623Y344532D01*
X1309250Y344146D01*
X1309867Y343744D01*
X1310474Y343328D01*
X1311071Y342896D01*
X1311657Y342450D01*
X1312232Y341990D01*
X1312795Y341516D01*
X1313347Y341029D01*
X1313886Y340527D01*
X1314413Y340013D01*
X1314927Y339486D01*
X1315429Y338947D01*
X1315916Y338395D01*
X1316390Y337832D01*
X1316850Y337257D01*
X1317296Y336671D01*
X1317728Y336074D01*
X1318144Y335467D01*
X1318546Y334850D01*
X1318932Y334223D01*
X1319303Y333587D01*
X1319658Y332942D01*
X1319997Y332288D01*
X1320320Y331627D01*
X1320626Y330957D01*
X1320916Y330281D01*
X1321190Y329597D01*
X1321446Y328907D01*
X1321686Y328210D01*
X1321908Y327509D01*
X1322113Y326801D01*
X1322301Y326089D01*
X1322471Y325373D01*
X1322624Y324653D01*
X1322758Y323929D01*
X1322875Y323202D01*
X1322974Y322472D01*
X1323056Y321741D01*
X1323119Y321007D01*
X1323164Y320272D01*
X1323191Y319536D01*
X1323200Y318800D01*
X1323191Y318064D01*
X1323164Y317328D01*
X1323119Y316593D01*
X1323056Y315859D01*
X1322974Y315128D01*
X1322875Y314398D01*
X1322758Y313671D01*
X1322624Y312947D01*
X1322471Y312227D01*
X1322301Y311511D01*
X1322113Y310799D01*
X1321908Y310091D01*
X1321686Y309390D01*
X1321446Y308693D01*
X1321190Y308003D01*
X1320916Y307319D01*
X1320626Y306643D01*
X1320320Y305973D01*
X1319997Y305312D01*
X1319658Y304658D01*
X1319303Y304013D01*
X1318932Y303377D01*
X1318546Y302750D01*
X1318144Y302133D01*
X1317728Y301526D01*
X1317296Y300929D01*
X1316850Y300343D01*
X1316390Y299768D01*
X1315916Y299205D01*
X1315429Y298653D01*
X1314927Y298114D01*
X1314413Y297587D01*
X1313886Y297073D01*
X1313347Y296571D01*
X1312795Y296084D01*
X1312232Y295610D01*
X1311657Y295150D01*
X1311071Y294704D01*
X1310474Y294272D01*
X1309867Y293856D01*
X1309250Y293454D01*
X1308623Y293068D01*
X1307987Y292697D01*
X1307342Y292342D01*
X1306688Y292003D01*
X1306027Y291680D01*
X1305357Y291374D01*
X1304681Y291084D01*
X1303997Y290810D01*
X1303307Y290554D01*
X1302610Y290314D01*
X1301909Y290092D01*
X1301201Y289887D01*
X1300489Y289699D01*
X1299773Y289529D01*
X1299053Y289376D01*
X1298329Y289242D01*
X1297602Y289125D01*
X1296872Y289026D01*
X1296141Y288944D01*
X1295407Y288881D01*
X1294672Y288836D01*
X1293936Y288809D01*
X1293200Y288800D01*
X1292464Y288809D01*
X1291728Y288836D01*
X1290993Y288881D01*
X1290259Y288944D01*
X1289528Y289026D01*
X1288798Y289125D01*
X1288071Y289242D01*
X1287347Y289376D01*
X1286627Y289529D01*
X1285911Y289699D01*
X1285199Y289887D01*
X1284491Y290092D01*
X1283790Y290314D01*
X1283093Y290554D01*
X1282403Y290810D01*
X1281719Y291084D01*
X1281043Y291374D01*
X1280373Y291680D01*
X1279712Y292003D01*
X1279058Y292342D01*
X1278413Y292697D01*
X1277777Y293068D01*
X1277150Y293454D01*
X1276533Y293856D01*
X1275926Y294272D01*
X1275329Y294704D01*
X1274743Y295150D01*
X1274168Y295610D01*
X1273605Y296084D01*
X1273053Y296571D01*
X1272514Y297073D01*
X1271987Y297587D01*
X1271473Y298114D01*
X1270971Y298653D01*
X1270484Y299205D01*
X1270010Y299768D01*
X1269550Y300343D01*
X1269104Y300929D01*
X1268672Y301526D01*
X1268256Y302133D01*
X1267854Y302750D01*
X1267468Y303377D01*
X1267097Y304013D01*
X1266742Y304658D01*
X1266403Y305312D01*
X1266080Y305973D01*
X1265774Y306643D01*
X1265484Y307319D01*
X1265210Y308003D01*
X1264954Y308693D01*
X1264714Y309390D01*
X1264492Y310091D01*
X1264287Y310799D01*
X1264099Y311511D01*
X1263929Y312227D01*
X1263776Y312947D01*
X1263642Y313671D01*
X1263525Y314398D01*
X1263426Y315128D01*
X1263344Y315859D01*
X1263281Y316593D01*
X1263236Y317328D01*
X1263209Y318064D01*
X1263200Y318800D01*
X1111250Y228600D02*
X1111250Y215900D01*
X1200150Y215900D02*
X1200150Y228600D01*
X1206500Y222250D02*
X1193800Y222250D01*
X1189150Y256250D02*
X1119150Y256250D01*
X1189150Y256250D02*
X1189150Y194250D01*
X1189150Y186250D01*
X1119150Y186250D01*
X1119150Y194250D01*
X1119150Y256250D01*
X1119150Y194250D02*
X1189150Y194250D01*
D12*
X1387900Y258800D02*
X1387900Y858800D01*
X1837900Y858800D01*
X1837900Y258800D01*
X1387900Y258800D01*
D10*
X1720400Y788800D02*
X1720409Y789536D01*
X1720436Y790272D01*
X1720481Y791007D01*
X1720544Y791741D01*
X1720626Y792472D01*
X1720725Y793202D01*
X1720842Y793929D01*
X1720976Y794653D01*
X1721129Y795373D01*
X1721299Y796089D01*
X1721487Y796801D01*
X1721692Y797509D01*
X1721914Y798210D01*
X1722154Y798907D01*
X1722410Y799597D01*
X1722684Y800281D01*
X1722974Y800957D01*
X1723280Y801627D01*
X1723603Y802288D01*
X1723942Y802942D01*
X1724297Y803587D01*
X1724668Y804223D01*
X1725054Y804850D01*
X1725456Y805467D01*
X1725872Y806074D01*
X1726304Y806671D01*
X1726750Y807257D01*
X1727210Y807832D01*
X1727684Y808395D01*
X1728171Y808947D01*
X1728673Y809486D01*
X1729187Y810013D01*
X1729714Y810527D01*
X1730253Y811029D01*
X1730805Y811516D01*
X1731368Y811990D01*
X1731943Y812450D01*
X1732529Y812896D01*
X1733126Y813328D01*
X1733733Y813744D01*
X1734350Y814146D01*
X1734977Y814532D01*
X1735613Y814903D01*
X1736258Y815258D01*
X1736912Y815597D01*
X1737573Y815920D01*
X1738243Y816226D01*
X1738919Y816516D01*
X1739603Y816790D01*
X1740293Y817046D01*
X1740990Y817286D01*
X1741691Y817508D01*
X1742399Y817713D01*
X1743111Y817901D01*
X1743827Y818071D01*
X1744547Y818224D01*
X1745271Y818358D01*
X1745998Y818475D01*
X1746728Y818574D01*
X1747459Y818656D01*
X1748193Y818719D01*
X1748928Y818764D01*
X1749664Y818791D01*
X1750400Y818800D01*
X1751136Y818791D01*
X1751872Y818764D01*
X1752607Y818719D01*
X1753341Y818656D01*
X1754072Y818574D01*
X1754802Y818475D01*
X1755529Y818358D01*
X1756253Y818224D01*
X1756973Y818071D01*
X1757689Y817901D01*
X1758401Y817713D01*
X1759109Y817508D01*
X1759810Y817286D01*
X1760507Y817046D01*
X1761197Y816790D01*
X1761881Y816516D01*
X1762557Y816226D01*
X1763227Y815920D01*
X1763888Y815597D01*
X1764542Y815258D01*
X1765187Y814903D01*
X1765823Y814532D01*
X1766450Y814146D01*
X1767067Y813744D01*
X1767674Y813328D01*
X1768271Y812896D01*
X1768857Y812450D01*
X1769432Y811990D01*
X1769995Y811516D01*
X1770547Y811029D01*
X1771086Y810527D01*
X1771613Y810013D01*
X1772127Y809486D01*
X1772629Y808947D01*
X1773116Y808395D01*
X1773590Y807832D01*
X1774050Y807257D01*
X1774496Y806671D01*
X1774928Y806074D01*
X1775344Y805467D01*
X1775746Y804850D01*
X1776132Y804223D01*
X1776503Y803587D01*
X1776858Y802942D01*
X1777197Y802288D01*
X1777520Y801627D01*
X1777826Y800957D01*
X1778116Y800281D01*
X1778390Y799597D01*
X1778646Y798907D01*
X1778886Y798210D01*
X1779108Y797509D01*
X1779313Y796801D01*
X1779501Y796089D01*
X1779671Y795373D01*
X1779824Y794653D01*
X1779958Y793929D01*
X1780075Y793202D01*
X1780174Y792472D01*
X1780256Y791741D01*
X1780319Y791007D01*
X1780364Y790272D01*
X1780391Y789536D01*
X1780400Y788800D01*
X1780391Y788064D01*
X1780364Y787328D01*
X1780319Y786593D01*
X1780256Y785859D01*
X1780174Y785128D01*
X1780075Y784398D01*
X1779958Y783671D01*
X1779824Y782947D01*
X1779671Y782227D01*
X1779501Y781511D01*
X1779313Y780799D01*
X1779108Y780091D01*
X1778886Y779390D01*
X1778646Y778693D01*
X1778390Y778003D01*
X1778116Y777319D01*
X1777826Y776643D01*
X1777520Y775973D01*
X1777197Y775312D01*
X1776858Y774658D01*
X1776503Y774013D01*
X1776132Y773377D01*
X1775746Y772750D01*
X1775344Y772133D01*
X1774928Y771526D01*
X1774496Y770929D01*
X1774050Y770343D01*
X1773590Y769768D01*
X1773116Y769205D01*
X1772629Y768653D01*
X1772127Y768114D01*
X1771613Y767587D01*
X1771086Y767073D01*
X1770547Y766571D01*
X1769995Y766084D01*
X1769432Y765610D01*
X1768857Y765150D01*
X1768271Y764704D01*
X1767674Y764272D01*
X1767067Y763856D01*
X1766450Y763454D01*
X1765823Y763068D01*
X1765187Y762697D01*
X1764542Y762342D01*
X1763888Y762003D01*
X1763227Y761680D01*
X1762557Y761374D01*
X1761881Y761084D01*
X1761197Y760810D01*
X1760507Y760554D01*
X1759810Y760314D01*
X1759109Y760092D01*
X1758401Y759887D01*
X1757689Y759699D01*
X1756973Y759529D01*
X1756253Y759376D01*
X1755529Y759242D01*
X1754802Y759125D01*
X1754072Y759026D01*
X1753341Y758944D01*
X1752607Y758881D01*
X1751872Y758836D01*
X1751136Y758809D01*
X1750400Y758800D01*
X1749664Y758809D01*
X1748928Y758836D01*
X1748193Y758881D01*
X1747459Y758944D01*
X1746728Y759026D01*
X1745998Y759125D01*
X1745271Y759242D01*
X1744547Y759376D01*
X1743827Y759529D01*
X1743111Y759699D01*
X1742399Y759887D01*
X1741691Y760092D01*
X1740990Y760314D01*
X1740293Y760554D01*
X1739603Y760810D01*
X1738919Y761084D01*
X1738243Y761374D01*
X1737573Y761680D01*
X1736912Y762003D01*
X1736258Y762342D01*
X1735613Y762697D01*
X1734977Y763068D01*
X1734350Y763454D01*
X1733733Y763856D01*
X1733126Y764272D01*
X1732529Y764704D01*
X1731943Y765150D01*
X1731368Y765610D01*
X1730805Y766084D01*
X1730253Y766571D01*
X1729714Y767073D01*
X1729187Y767587D01*
X1728673Y768114D01*
X1728171Y768653D01*
X1727684Y769205D01*
X1727210Y769768D01*
X1726750Y770343D01*
X1726304Y770929D01*
X1725872Y771526D01*
X1725456Y772133D01*
X1725054Y772750D01*
X1724668Y773377D01*
X1724297Y774013D01*
X1723942Y774658D01*
X1723603Y775312D01*
X1723280Y775973D01*
X1722974Y776643D01*
X1722684Y777319D01*
X1722410Y778003D01*
X1722154Y778693D01*
X1721914Y779390D01*
X1721692Y780091D01*
X1721487Y780799D01*
X1721299Y781511D01*
X1721129Y782227D01*
X1720976Y782947D01*
X1720842Y783671D01*
X1720725Y784398D01*
X1720626Y785128D01*
X1720544Y785859D01*
X1720481Y786593D01*
X1720436Y787328D01*
X1720409Y788064D01*
X1720400Y788800D01*
X1382044Y863720D02*
X1382046Y863783D01*
X1382052Y863846D01*
X1382062Y863909D01*
X1382075Y863970D01*
X1382093Y864031D01*
X1382114Y864090D01*
X1382139Y864149D01*
X1382167Y864205D01*
X1382199Y864260D01*
X1382234Y864312D01*
X1382273Y864362D01*
X1382314Y864410D01*
X1382359Y864455D01*
X1382406Y864497D01*
X1382455Y864536D01*
X1382507Y864572D01*
X1382561Y864605D01*
X1382617Y864634D01*
X1382675Y864660D01*
X1382734Y864682D01*
X1382794Y864701D01*
X1382856Y864715D01*
X1382918Y864726D01*
X1382981Y864733D01*
X1383044Y864736D01*
X1383107Y864735D01*
X1383170Y864730D01*
X1383233Y864721D01*
X1383295Y864708D01*
X1383356Y864692D01*
X1383416Y864672D01*
X1383474Y864648D01*
X1383531Y864620D01*
X1383586Y864589D01*
X1383639Y864555D01*
X1383690Y864517D01*
X1383738Y864476D01*
X1383784Y864433D01*
X1383827Y864386D01*
X1383867Y864337D01*
X1383904Y864286D01*
X1383937Y864233D01*
X1383967Y864177D01*
X1383994Y864120D01*
X1384017Y864061D01*
X1384036Y864001D01*
X1384052Y863939D01*
X1384064Y863877D01*
X1384072Y863815D01*
X1384076Y863752D01*
X1384076Y863688D01*
X1384072Y863625D01*
X1384064Y863563D01*
X1384052Y863501D01*
X1384036Y863439D01*
X1384017Y863379D01*
X1383994Y863320D01*
X1383967Y863263D01*
X1383937Y863207D01*
X1383904Y863154D01*
X1383867Y863103D01*
X1383827Y863054D01*
X1383784Y863007D01*
X1383738Y862964D01*
X1383690Y862923D01*
X1383639Y862885D01*
X1383586Y862851D01*
X1383531Y862820D01*
X1383474Y862792D01*
X1383416Y862768D01*
X1383356Y862748D01*
X1383295Y862732D01*
X1383233Y862719D01*
X1383170Y862710D01*
X1383107Y862705D01*
X1383044Y862704D01*
X1382981Y862707D01*
X1382918Y862714D01*
X1382856Y862725D01*
X1382794Y862739D01*
X1382734Y862758D01*
X1382675Y862780D01*
X1382617Y862806D01*
X1382561Y862835D01*
X1382507Y862868D01*
X1382455Y862904D01*
X1382406Y862943D01*
X1382359Y862985D01*
X1382314Y863030D01*
X1382273Y863078D01*
X1382234Y863128D01*
X1382199Y863180D01*
X1382167Y863235D01*
X1382139Y863291D01*
X1382114Y863350D01*
X1382093Y863409D01*
X1382075Y863470D01*
X1382062Y863531D01*
X1382052Y863594D01*
X1382046Y863657D01*
X1382044Y863720D01*
X1445400Y788800D02*
X1445409Y789536D01*
X1445436Y790272D01*
X1445481Y791007D01*
X1445544Y791741D01*
X1445626Y792472D01*
X1445725Y793202D01*
X1445842Y793929D01*
X1445976Y794653D01*
X1446129Y795373D01*
X1446299Y796089D01*
X1446487Y796801D01*
X1446692Y797509D01*
X1446914Y798210D01*
X1447154Y798907D01*
X1447410Y799597D01*
X1447684Y800281D01*
X1447974Y800957D01*
X1448280Y801627D01*
X1448603Y802288D01*
X1448942Y802942D01*
X1449297Y803587D01*
X1449668Y804223D01*
X1450054Y804850D01*
X1450456Y805467D01*
X1450872Y806074D01*
X1451304Y806671D01*
X1451750Y807257D01*
X1452210Y807832D01*
X1452684Y808395D01*
X1453171Y808947D01*
X1453673Y809486D01*
X1454187Y810013D01*
X1454714Y810527D01*
X1455253Y811029D01*
X1455805Y811516D01*
X1456368Y811990D01*
X1456943Y812450D01*
X1457529Y812896D01*
X1458126Y813328D01*
X1458733Y813744D01*
X1459350Y814146D01*
X1459977Y814532D01*
X1460613Y814903D01*
X1461258Y815258D01*
X1461912Y815597D01*
X1462573Y815920D01*
X1463243Y816226D01*
X1463919Y816516D01*
X1464603Y816790D01*
X1465293Y817046D01*
X1465990Y817286D01*
X1466691Y817508D01*
X1467399Y817713D01*
X1468111Y817901D01*
X1468827Y818071D01*
X1469547Y818224D01*
X1470271Y818358D01*
X1470998Y818475D01*
X1471728Y818574D01*
X1472459Y818656D01*
X1473193Y818719D01*
X1473928Y818764D01*
X1474664Y818791D01*
X1475400Y818800D01*
X1476136Y818791D01*
X1476872Y818764D01*
X1477607Y818719D01*
X1478341Y818656D01*
X1479072Y818574D01*
X1479802Y818475D01*
X1480529Y818358D01*
X1481253Y818224D01*
X1481973Y818071D01*
X1482689Y817901D01*
X1483401Y817713D01*
X1484109Y817508D01*
X1484810Y817286D01*
X1485507Y817046D01*
X1486197Y816790D01*
X1486881Y816516D01*
X1487557Y816226D01*
X1488227Y815920D01*
X1488888Y815597D01*
X1489542Y815258D01*
X1490187Y814903D01*
X1490823Y814532D01*
X1491450Y814146D01*
X1492067Y813744D01*
X1492674Y813328D01*
X1493271Y812896D01*
X1493857Y812450D01*
X1494432Y811990D01*
X1494995Y811516D01*
X1495547Y811029D01*
X1496086Y810527D01*
X1496613Y810013D01*
X1497127Y809486D01*
X1497629Y808947D01*
X1498116Y808395D01*
X1498590Y807832D01*
X1499050Y807257D01*
X1499496Y806671D01*
X1499928Y806074D01*
X1500344Y805467D01*
X1500746Y804850D01*
X1501132Y804223D01*
X1501503Y803587D01*
X1501858Y802942D01*
X1502197Y802288D01*
X1502520Y801627D01*
X1502826Y800957D01*
X1503116Y800281D01*
X1503390Y799597D01*
X1503646Y798907D01*
X1503886Y798210D01*
X1504108Y797509D01*
X1504313Y796801D01*
X1504501Y796089D01*
X1504671Y795373D01*
X1504824Y794653D01*
X1504958Y793929D01*
X1505075Y793202D01*
X1505174Y792472D01*
X1505256Y791741D01*
X1505319Y791007D01*
X1505364Y790272D01*
X1505391Y789536D01*
X1505400Y788800D01*
X1505391Y788064D01*
X1505364Y787328D01*
X1505319Y786593D01*
X1505256Y785859D01*
X1505174Y785128D01*
X1505075Y784398D01*
X1504958Y783671D01*
X1504824Y782947D01*
X1504671Y782227D01*
X1504501Y781511D01*
X1504313Y780799D01*
X1504108Y780091D01*
X1503886Y779390D01*
X1503646Y778693D01*
X1503390Y778003D01*
X1503116Y777319D01*
X1502826Y776643D01*
X1502520Y775973D01*
X1502197Y775312D01*
X1501858Y774658D01*
X1501503Y774013D01*
X1501132Y773377D01*
X1500746Y772750D01*
X1500344Y772133D01*
X1499928Y771526D01*
X1499496Y770929D01*
X1499050Y770343D01*
X1498590Y769768D01*
X1498116Y769205D01*
X1497629Y768653D01*
X1497127Y768114D01*
X1496613Y767587D01*
X1496086Y767073D01*
X1495547Y766571D01*
X1494995Y766084D01*
X1494432Y765610D01*
X1493857Y765150D01*
X1493271Y764704D01*
X1492674Y764272D01*
X1492067Y763856D01*
X1491450Y763454D01*
X1490823Y763068D01*
X1490187Y762697D01*
X1489542Y762342D01*
X1488888Y762003D01*
X1488227Y761680D01*
X1487557Y761374D01*
X1486881Y761084D01*
X1486197Y760810D01*
X1485507Y760554D01*
X1484810Y760314D01*
X1484109Y760092D01*
X1483401Y759887D01*
X1482689Y759699D01*
X1481973Y759529D01*
X1481253Y759376D01*
X1480529Y759242D01*
X1479802Y759125D01*
X1479072Y759026D01*
X1478341Y758944D01*
X1477607Y758881D01*
X1476872Y758836D01*
X1476136Y758809D01*
X1475400Y758800D01*
X1474664Y758809D01*
X1473928Y758836D01*
X1473193Y758881D01*
X1472459Y758944D01*
X1471728Y759026D01*
X1470998Y759125D01*
X1470271Y759242D01*
X1469547Y759376D01*
X1468827Y759529D01*
X1468111Y759699D01*
X1467399Y759887D01*
X1466691Y760092D01*
X1465990Y760314D01*
X1465293Y760554D01*
X1464603Y760810D01*
X1463919Y761084D01*
X1463243Y761374D01*
X1462573Y761680D01*
X1461912Y762003D01*
X1461258Y762342D01*
X1460613Y762697D01*
X1459977Y763068D01*
X1459350Y763454D01*
X1458733Y763856D01*
X1458126Y764272D01*
X1457529Y764704D01*
X1456943Y765150D01*
X1456368Y765610D01*
X1455805Y766084D01*
X1455253Y766571D01*
X1454714Y767073D01*
X1454187Y767587D01*
X1453673Y768114D01*
X1453171Y768653D01*
X1452684Y769205D01*
X1452210Y769768D01*
X1451750Y770343D01*
X1451304Y770929D01*
X1450872Y771526D01*
X1450456Y772133D01*
X1450054Y772750D01*
X1449668Y773377D01*
X1449297Y774013D01*
X1448942Y774658D01*
X1448603Y775312D01*
X1448280Y775973D01*
X1447974Y776643D01*
X1447684Y777319D01*
X1447410Y778003D01*
X1447154Y778693D01*
X1446914Y779390D01*
X1446692Y780091D01*
X1446487Y780799D01*
X1446299Y781511D01*
X1446129Y782227D01*
X1445976Y782947D01*
X1445842Y783671D01*
X1445725Y784398D01*
X1445626Y785128D01*
X1445544Y785859D01*
X1445481Y786593D01*
X1445436Y787328D01*
X1445409Y788064D01*
X1445400Y788800D01*
X1445400Y318800D02*
X1445409Y319536D01*
X1445436Y320272D01*
X1445481Y321007D01*
X1445544Y321741D01*
X1445626Y322472D01*
X1445725Y323202D01*
X1445842Y323929D01*
X1445976Y324653D01*
X1446129Y325373D01*
X1446299Y326089D01*
X1446487Y326801D01*
X1446692Y327509D01*
X1446914Y328210D01*
X1447154Y328907D01*
X1447410Y329597D01*
X1447684Y330281D01*
X1447974Y330957D01*
X1448280Y331627D01*
X1448603Y332288D01*
X1448942Y332942D01*
X1449297Y333587D01*
X1449668Y334223D01*
X1450054Y334850D01*
X1450456Y335467D01*
X1450872Y336074D01*
X1451304Y336671D01*
X1451750Y337257D01*
X1452210Y337832D01*
X1452684Y338395D01*
X1453171Y338947D01*
X1453673Y339486D01*
X1454187Y340013D01*
X1454714Y340527D01*
X1455253Y341029D01*
X1455805Y341516D01*
X1456368Y341990D01*
X1456943Y342450D01*
X1457529Y342896D01*
X1458126Y343328D01*
X1458733Y343744D01*
X1459350Y344146D01*
X1459977Y344532D01*
X1460613Y344903D01*
X1461258Y345258D01*
X1461912Y345597D01*
X1462573Y345920D01*
X1463243Y346226D01*
X1463919Y346516D01*
X1464603Y346790D01*
X1465293Y347046D01*
X1465990Y347286D01*
X1466691Y347508D01*
X1467399Y347713D01*
X1468111Y347901D01*
X1468827Y348071D01*
X1469547Y348224D01*
X1470271Y348358D01*
X1470998Y348475D01*
X1471728Y348574D01*
X1472459Y348656D01*
X1473193Y348719D01*
X1473928Y348764D01*
X1474664Y348791D01*
X1475400Y348800D01*
X1476136Y348791D01*
X1476872Y348764D01*
X1477607Y348719D01*
X1478341Y348656D01*
X1479072Y348574D01*
X1479802Y348475D01*
X1480529Y348358D01*
X1481253Y348224D01*
X1481973Y348071D01*
X1482689Y347901D01*
X1483401Y347713D01*
X1484109Y347508D01*
X1484810Y347286D01*
X1485507Y347046D01*
X1486197Y346790D01*
X1486881Y346516D01*
X1487557Y346226D01*
X1488227Y345920D01*
X1488888Y345597D01*
X1489542Y345258D01*
X1490187Y344903D01*
X1490823Y344532D01*
X1491450Y344146D01*
X1492067Y343744D01*
X1492674Y343328D01*
X1493271Y342896D01*
X1493857Y342450D01*
X1494432Y341990D01*
X1494995Y341516D01*
X1495547Y341029D01*
X1496086Y340527D01*
X1496613Y340013D01*
X1497127Y339486D01*
X1497629Y338947D01*
X1498116Y338395D01*
X1498590Y337832D01*
X1499050Y337257D01*
X1499496Y336671D01*
X1499928Y336074D01*
X1500344Y335467D01*
X1500746Y334850D01*
X1501132Y334223D01*
X1501503Y333587D01*
X1501858Y332942D01*
X1502197Y332288D01*
X1502520Y331627D01*
X1502826Y330957D01*
X1503116Y330281D01*
X1503390Y329597D01*
X1503646Y328907D01*
X1503886Y328210D01*
X1504108Y327509D01*
X1504313Y326801D01*
X1504501Y326089D01*
X1504671Y325373D01*
X1504824Y324653D01*
X1504958Y323929D01*
X1505075Y323202D01*
X1505174Y322472D01*
X1505256Y321741D01*
X1505319Y321007D01*
X1505364Y320272D01*
X1505391Y319536D01*
X1505400Y318800D01*
X1505391Y318064D01*
X1505364Y317328D01*
X1505319Y316593D01*
X1505256Y315859D01*
X1505174Y315128D01*
X1505075Y314398D01*
X1504958Y313671D01*
X1504824Y312947D01*
X1504671Y312227D01*
X1504501Y311511D01*
X1504313Y310799D01*
X1504108Y310091D01*
X1503886Y309390D01*
X1503646Y308693D01*
X1503390Y308003D01*
X1503116Y307319D01*
X1502826Y306643D01*
X1502520Y305973D01*
X1502197Y305312D01*
X1501858Y304658D01*
X1501503Y304013D01*
X1501132Y303377D01*
X1500746Y302750D01*
X1500344Y302133D01*
X1499928Y301526D01*
X1499496Y300929D01*
X1499050Y300343D01*
X1498590Y299768D01*
X1498116Y299205D01*
X1497629Y298653D01*
X1497127Y298114D01*
X1496613Y297587D01*
X1496086Y297073D01*
X1495547Y296571D01*
X1494995Y296084D01*
X1494432Y295610D01*
X1493857Y295150D01*
X1493271Y294704D01*
X1492674Y294272D01*
X1492067Y293856D01*
X1491450Y293454D01*
X1490823Y293068D01*
X1490187Y292697D01*
X1489542Y292342D01*
X1488888Y292003D01*
X1488227Y291680D01*
X1487557Y291374D01*
X1486881Y291084D01*
X1486197Y290810D01*
X1485507Y290554D01*
X1484810Y290314D01*
X1484109Y290092D01*
X1483401Y289887D01*
X1482689Y289699D01*
X1481973Y289529D01*
X1481253Y289376D01*
X1480529Y289242D01*
X1479802Y289125D01*
X1479072Y289026D01*
X1478341Y288944D01*
X1477607Y288881D01*
X1476872Y288836D01*
X1476136Y288809D01*
X1475400Y288800D01*
X1474664Y288809D01*
X1473928Y288836D01*
X1473193Y288881D01*
X1472459Y288944D01*
X1471728Y289026D01*
X1470998Y289125D01*
X1470271Y289242D01*
X1469547Y289376D01*
X1468827Y289529D01*
X1468111Y289699D01*
X1467399Y289887D01*
X1466691Y290092D01*
X1465990Y290314D01*
X1465293Y290554D01*
X1464603Y290810D01*
X1463919Y291084D01*
X1463243Y291374D01*
X1462573Y291680D01*
X1461912Y292003D01*
X1461258Y292342D01*
X1460613Y292697D01*
X1459977Y293068D01*
X1459350Y293454D01*
X1458733Y293856D01*
X1458126Y294272D01*
X1457529Y294704D01*
X1456943Y295150D01*
X1456368Y295610D01*
X1455805Y296084D01*
X1455253Y296571D01*
X1454714Y297073D01*
X1454187Y297587D01*
X1453673Y298114D01*
X1453171Y298653D01*
X1452684Y299205D01*
X1452210Y299768D01*
X1451750Y300343D01*
X1451304Y300929D01*
X1450872Y301526D01*
X1450456Y302133D01*
X1450054Y302750D01*
X1449668Y303377D01*
X1449297Y304013D01*
X1448942Y304658D01*
X1448603Y305312D01*
X1448280Y305973D01*
X1447974Y306643D01*
X1447684Y307319D01*
X1447410Y308003D01*
X1447154Y308693D01*
X1446914Y309390D01*
X1446692Y310091D01*
X1446487Y310799D01*
X1446299Y311511D01*
X1446129Y312227D01*
X1445976Y312947D01*
X1445842Y313671D01*
X1445725Y314398D01*
X1445626Y315128D01*
X1445544Y315859D01*
X1445481Y316593D01*
X1445436Y317328D01*
X1445409Y318064D01*
X1445400Y318800D01*
X1720400Y318800D02*
X1720409Y319536D01*
X1720436Y320272D01*
X1720481Y321007D01*
X1720544Y321741D01*
X1720626Y322472D01*
X1720725Y323202D01*
X1720842Y323929D01*
X1720976Y324653D01*
X1721129Y325373D01*
X1721299Y326089D01*
X1721487Y326801D01*
X1721692Y327509D01*
X1721914Y328210D01*
X1722154Y328907D01*
X1722410Y329597D01*
X1722684Y330281D01*
X1722974Y330957D01*
X1723280Y331627D01*
X1723603Y332288D01*
X1723942Y332942D01*
X1724297Y333587D01*
X1724668Y334223D01*
X1725054Y334850D01*
X1725456Y335467D01*
X1725872Y336074D01*
X1726304Y336671D01*
X1726750Y337257D01*
X1727210Y337832D01*
X1727684Y338395D01*
X1728171Y338947D01*
X1728673Y339486D01*
X1729187Y340013D01*
X1729714Y340527D01*
X1730253Y341029D01*
X1730805Y341516D01*
X1731368Y341990D01*
X1731943Y342450D01*
X1732529Y342896D01*
X1733126Y343328D01*
X1733733Y343744D01*
X1734350Y344146D01*
X1734977Y344532D01*
X1735613Y344903D01*
X1736258Y345258D01*
X1736912Y345597D01*
X1737573Y345920D01*
X1738243Y346226D01*
X1738919Y346516D01*
X1739603Y346790D01*
X1740293Y347046D01*
X1740990Y347286D01*
X1741691Y347508D01*
X1742399Y347713D01*
X1743111Y347901D01*
X1743827Y348071D01*
X1744547Y348224D01*
X1745271Y348358D01*
X1745998Y348475D01*
X1746728Y348574D01*
X1747459Y348656D01*
X1748193Y348719D01*
X1748928Y348764D01*
X1749664Y348791D01*
X1750400Y348800D01*
X1751136Y348791D01*
X1751872Y348764D01*
X1752607Y348719D01*
X1753341Y348656D01*
X1754072Y348574D01*
X1754802Y348475D01*
X1755529Y348358D01*
X1756253Y348224D01*
X1756973Y348071D01*
X1757689Y347901D01*
X1758401Y347713D01*
X1759109Y347508D01*
X1759810Y347286D01*
X1760507Y347046D01*
X1761197Y346790D01*
X1761881Y346516D01*
X1762557Y346226D01*
X1763227Y345920D01*
X1763888Y345597D01*
X1764542Y345258D01*
X1765187Y344903D01*
X1765823Y344532D01*
X1766450Y344146D01*
X1767067Y343744D01*
X1767674Y343328D01*
X1768271Y342896D01*
X1768857Y342450D01*
X1769432Y341990D01*
X1769995Y341516D01*
X1770547Y341029D01*
X1771086Y340527D01*
X1771613Y340013D01*
X1772127Y339486D01*
X1772629Y338947D01*
X1773116Y338395D01*
X1773590Y337832D01*
X1774050Y337257D01*
X1774496Y336671D01*
X1774928Y336074D01*
X1775344Y335467D01*
X1775746Y334850D01*
X1776132Y334223D01*
X1776503Y333587D01*
X1776858Y332942D01*
X1777197Y332288D01*
X1777520Y331627D01*
X1777826Y330957D01*
X1778116Y330281D01*
X1778390Y329597D01*
X1778646Y328907D01*
X1778886Y328210D01*
X1779108Y327509D01*
X1779313Y326801D01*
X1779501Y326089D01*
X1779671Y325373D01*
X1779824Y324653D01*
X1779958Y323929D01*
X1780075Y323202D01*
X1780174Y322472D01*
X1780256Y321741D01*
X1780319Y321007D01*
X1780364Y320272D01*
X1780391Y319536D01*
X1780400Y318800D01*
X1780391Y318064D01*
X1780364Y317328D01*
X1780319Y316593D01*
X1780256Y315859D01*
X1780174Y315128D01*
X1780075Y314398D01*
X1779958Y313671D01*
X1779824Y312947D01*
X1779671Y312227D01*
X1779501Y311511D01*
X1779313Y310799D01*
X1779108Y310091D01*
X1778886Y309390D01*
X1778646Y308693D01*
X1778390Y308003D01*
X1778116Y307319D01*
X1777826Y306643D01*
X1777520Y305973D01*
X1777197Y305312D01*
X1776858Y304658D01*
X1776503Y304013D01*
X1776132Y303377D01*
X1775746Y302750D01*
X1775344Y302133D01*
X1774928Y301526D01*
X1774496Y300929D01*
X1774050Y300343D01*
X1773590Y299768D01*
X1773116Y299205D01*
X1772629Y298653D01*
X1772127Y298114D01*
X1771613Y297587D01*
X1771086Y297073D01*
X1770547Y296571D01*
X1769995Y296084D01*
X1769432Y295610D01*
X1768857Y295150D01*
X1768271Y294704D01*
X1767674Y294272D01*
X1767067Y293856D01*
X1766450Y293454D01*
X1765823Y293068D01*
X1765187Y292697D01*
X1764542Y292342D01*
X1763888Y292003D01*
X1763227Y291680D01*
X1762557Y291374D01*
X1761881Y291084D01*
X1761197Y290810D01*
X1760507Y290554D01*
X1759810Y290314D01*
X1759109Y290092D01*
X1758401Y289887D01*
X1757689Y289699D01*
X1756973Y289529D01*
X1756253Y289376D01*
X1755529Y289242D01*
X1754802Y289125D01*
X1754072Y289026D01*
X1753341Y288944D01*
X1752607Y288881D01*
X1751872Y288836D01*
X1751136Y288809D01*
X1750400Y288800D01*
X1749664Y288809D01*
X1748928Y288836D01*
X1748193Y288881D01*
X1747459Y288944D01*
X1746728Y289026D01*
X1745998Y289125D01*
X1745271Y289242D01*
X1744547Y289376D01*
X1743827Y289529D01*
X1743111Y289699D01*
X1742399Y289887D01*
X1741691Y290092D01*
X1740990Y290314D01*
X1740293Y290554D01*
X1739603Y290810D01*
X1738919Y291084D01*
X1738243Y291374D01*
X1737573Y291680D01*
X1736912Y292003D01*
X1736258Y292342D01*
X1735613Y292697D01*
X1734977Y293068D01*
X1734350Y293454D01*
X1733733Y293856D01*
X1733126Y294272D01*
X1732529Y294704D01*
X1731943Y295150D01*
X1731368Y295610D01*
X1730805Y296084D01*
X1730253Y296571D01*
X1729714Y297073D01*
X1729187Y297587D01*
X1728673Y298114D01*
X1728171Y298653D01*
X1727684Y299205D01*
X1727210Y299768D01*
X1726750Y300343D01*
X1726304Y300929D01*
X1725872Y301526D01*
X1725456Y302133D01*
X1725054Y302750D01*
X1724668Y303377D01*
X1724297Y304013D01*
X1723942Y304658D01*
X1723603Y305312D01*
X1723280Y305973D01*
X1722974Y306643D01*
X1722684Y307319D01*
X1722410Y308003D01*
X1722154Y308693D01*
X1721914Y309390D01*
X1721692Y310091D01*
X1721487Y310799D01*
X1721299Y311511D01*
X1721129Y312227D01*
X1720976Y312947D01*
X1720842Y313671D01*
X1720725Y314398D01*
X1720626Y315128D01*
X1720544Y315859D01*
X1720481Y316593D01*
X1720436Y317328D01*
X1720409Y318064D01*
X1720400Y318800D01*
X1568450Y228600D02*
X1568450Y215900D01*
X1657350Y215900D02*
X1657350Y228600D01*
X1663700Y222250D02*
X1651000Y222250D01*
X1646350Y256250D02*
X1576350Y256250D01*
X1646350Y256250D02*
X1646350Y194250D01*
X1646350Y186250D01*
X1576350Y186250D01*
X1576350Y194250D01*
X1576350Y256250D01*
X1576350Y194250D02*
X1646350Y194250D01*
D12*
X473500Y258800D02*
X473500Y858800D01*
X923500Y858800D01*
X923500Y258800D01*
X473500Y258800D01*
D10*
X806000Y788800D02*
X806009Y789536D01*
X806036Y790272D01*
X806081Y791007D01*
X806144Y791741D01*
X806226Y792472D01*
X806325Y793202D01*
X806442Y793929D01*
X806576Y794653D01*
X806729Y795373D01*
X806899Y796089D01*
X807087Y796801D01*
X807292Y797509D01*
X807514Y798210D01*
X807754Y798907D01*
X808010Y799597D01*
X808284Y800281D01*
X808574Y800957D01*
X808880Y801627D01*
X809203Y802288D01*
X809542Y802942D01*
X809897Y803587D01*
X810268Y804223D01*
X810654Y804850D01*
X811056Y805467D01*
X811472Y806074D01*
X811904Y806671D01*
X812350Y807257D01*
X812810Y807832D01*
X813284Y808395D01*
X813771Y808947D01*
X814273Y809486D01*
X814787Y810013D01*
X815314Y810527D01*
X815853Y811029D01*
X816405Y811516D01*
X816968Y811990D01*
X817543Y812450D01*
X818129Y812896D01*
X818726Y813328D01*
X819333Y813744D01*
X819950Y814146D01*
X820577Y814532D01*
X821213Y814903D01*
X821858Y815258D01*
X822512Y815597D01*
X823173Y815920D01*
X823843Y816226D01*
X824519Y816516D01*
X825203Y816790D01*
X825893Y817046D01*
X826590Y817286D01*
X827291Y817508D01*
X827999Y817713D01*
X828711Y817901D01*
X829427Y818071D01*
X830147Y818224D01*
X830871Y818358D01*
X831598Y818475D01*
X832328Y818574D01*
X833059Y818656D01*
X833793Y818719D01*
X834528Y818764D01*
X835264Y818791D01*
X836000Y818800D01*
X836736Y818791D01*
X837472Y818764D01*
X838207Y818719D01*
X838941Y818656D01*
X839672Y818574D01*
X840402Y818475D01*
X841129Y818358D01*
X841853Y818224D01*
X842573Y818071D01*
X843289Y817901D01*
X844001Y817713D01*
X844709Y817508D01*
X845410Y817286D01*
X846107Y817046D01*
X846797Y816790D01*
X847481Y816516D01*
X848157Y816226D01*
X848827Y815920D01*
X849488Y815597D01*
X850142Y815258D01*
X850787Y814903D01*
X851423Y814532D01*
X852050Y814146D01*
X852667Y813744D01*
X853274Y813328D01*
X853871Y812896D01*
X854457Y812450D01*
X855032Y811990D01*
X855595Y811516D01*
X856147Y811029D01*
X856686Y810527D01*
X857213Y810013D01*
X857727Y809486D01*
X858229Y808947D01*
X858716Y808395D01*
X859190Y807832D01*
X859650Y807257D01*
X860096Y806671D01*
X860528Y806074D01*
X860944Y805467D01*
X861346Y804850D01*
X861732Y804223D01*
X862103Y803587D01*
X862458Y802942D01*
X862797Y802288D01*
X863120Y801627D01*
X863426Y800957D01*
X863716Y800281D01*
X863990Y799597D01*
X864246Y798907D01*
X864486Y798210D01*
X864708Y797509D01*
X864913Y796801D01*
X865101Y796089D01*
X865271Y795373D01*
X865424Y794653D01*
X865558Y793929D01*
X865675Y793202D01*
X865774Y792472D01*
X865856Y791741D01*
X865919Y791007D01*
X865964Y790272D01*
X865991Y789536D01*
X866000Y788800D01*
X865991Y788064D01*
X865964Y787328D01*
X865919Y786593D01*
X865856Y785859D01*
X865774Y785128D01*
X865675Y784398D01*
X865558Y783671D01*
X865424Y782947D01*
X865271Y782227D01*
X865101Y781511D01*
X864913Y780799D01*
X864708Y780091D01*
X864486Y779390D01*
X864246Y778693D01*
X863990Y778003D01*
X863716Y777319D01*
X863426Y776643D01*
X863120Y775973D01*
X862797Y775312D01*
X862458Y774658D01*
X862103Y774013D01*
X861732Y773377D01*
X861346Y772750D01*
X860944Y772133D01*
X860528Y771526D01*
X860096Y770929D01*
X859650Y770343D01*
X859190Y769768D01*
X858716Y769205D01*
X858229Y768653D01*
X857727Y768114D01*
X857213Y767587D01*
X856686Y767073D01*
X856147Y766571D01*
X855595Y766084D01*
X855032Y765610D01*
X854457Y765150D01*
X853871Y764704D01*
X853274Y764272D01*
X852667Y763856D01*
X852050Y763454D01*
X851423Y763068D01*
X850787Y762697D01*
X850142Y762342D01*
X849488Y762003D01*
X848827Y761680D01*
X848157Y761374D01*
X847481Y761084D01*
X846797Y760810D01*
X846107Y760554D01*
X845410Y760314D01*
X844709Y760092D01*
X844001Y759887D01*
X843289Y759699D01*
X842573Y759529D01*
X841853Y759376D01*
X841129Y759242D01*
X840402Y759125D01*
X839672Y759026D01*
X838941Y758944D01*
X838207Y758881D01*
X837472Y758836D01*
X836736Y758809D01*
X836000Y758800D01*
X835264Y758809D01*
X834528Y758836D01*
X833793Y758881D01*
X833059Y758944D01*
X832328Y759026D01*
X831598Y759125D01*
X830871Y759242D01*
X830147Y759376D01*
X829427Y759529D01*
X828711Y759699D01*
X827999Y759887D01*
X827291Y760092D01*
X826590Y760314D01*
X825893Y760554D01*
X825203Y760810D01*
X824519Y761084D01*
X823843Y761374D01*
X823173Y761680D01*
X822512Y762003D01*
X821858Y762342D01*
X821213Y762697D01*
X820577Y763068D01*
X819950Y763454D01*
X819333Y763856D01*
X818726Y764272D01*
X818129Y764704D01*
X817543Y765150D01*
X816968Y765610D01*
X816405Y766084D01*
X815853Y766571D01*
X815314Y767073D01*
X814787Y767587D01*
X814273Y768114D01*
X813771Y768653D01*
X813284Y769205D01*
X812810Y769768D01*
X812350Y770343D01*
X811904Y770929D01*
X811472Y771526D01*
X811056Y772133D01*
X810654Y772750D01*
X810268Y773377D01*
X809897Y774013D01*
X809542Y774658D01*
X809203Y775312D01*
X808880Y775973D01*
X808574Y776643D01*
X808284Y777319D01*
X808010Y778003D01*
X807754Y778693D01*
X807514Y779390D01*
X807292Y780091D01*
X807087Y780799D01*
X806899Y781511D01*
X806729Y782227D01*
X806576Y782947D01*
X806442Y783671D01*
X806325Y784398D01*
X806226Y785128D01*
X806144Y785859D01*
X806081Y786593D01*
X806036Y787328D01*
X806009Y788064D01*
X806000Y788800D01*
X467644Y863720D02*
X467646Y863783D01*
X467652Y863846D01*
X467662Y863909D01*
X467675Y863970D01*
X467693Y864031D01*
X467714Y864090D01*
X467739Y864149D01*
X467767Y864205D01*
X467799Y864260D01*
X467834Y864312D01*
X467873Y864362D01*
X467914Y864410D01*
X467959Y864455D01*
X468006Y864497D01*
X468055Y864536D01*
X468107Y864572D01*
X468161Y864605D01*
X468217Y864634D01*
X468275Y864660D01*
X468334Y864682D01*
X468394Y864701D01*
X468456Y864715D01*
X468518Y864726D01*
X468581Y864733D01*
X468644Y864736D01*
X468707Y864735D01*
X468770Y864730D01*
X468833Y864721D01*
X468895Y864708D01*
X468956Y864692D01*
X469016Y864672D01*
X469074Y864648D01*
X469131Y864620D01*
X469186Y864589D01*
X469239Y864555D01*
X469290Y864517D01*
X469338Y864476D01*
X469384Y864433D01*
X469427Y864386D01*
X469467Y864337D01*
X469504Y864286D01*
X469537Y864233D01*
X469567Y864177D01*
X469594Y864120D01*
X469617Y864061D01*
X469636Y864001D01*
X469652Y863939D01*
X469664Y863877D01*
X469672Y863815D01*
X469676Y863752D01*
X469676Y863688D01*
X469672Y863625D01*
X469664Y863563D01*
X469652Y863501D01*
X469636Y863439D01*
X469617Y863379D01*
X469594Y863320D01*
X469567Y863263D01*
X469537Y863207D01*
X469504Y863154D01*
X469467Y863103D01*
X469427Y863054D01*
X469384Y863007D01*
X469338Y862964D01*
X469290Y862923D01*
X469239Y862885D01*
X469186Y862851D01*
X469131Y862820D01*
X469074Y862792D01*
X469016Y862768D01*
X468956Y862748D01*
X468895Y862732D01*
X468833Y862719D01*
X468770Y862710D01*
X468707Y862705D01*
X468644Y862704D01*
X468581Y862707D01*
X468518Y862714D01*
X468456Y862725D01*
X468394Y862739D01*
X468334Y862758D01*
X468275Y862780D01*
X468217Y862806D01*
X468161Y862835D01*
X468107Y862868D01*
X468055Y862904D01*
X468006Y862943D01*
X467959Y862985D01*
X467914Y863030D01*
X467873Y863078D01*
X467834Y863128D01*
X467799Y863180D01*
X467767Y863235D01*
X467739Y863291D01*
X467714Y863350D01*
X467693Y863409D01*
X467675Y863470D01*
X467662Y863531D01*
X467652Y863594D01*
X467646Y863657D01*
X467644Y863720D01*
X531000Y788800D02*
X531009Y789536D01*
X531036Y790272D01*
X531081Y791007D01*
X531144Y791741D01*
X531226Y792472D01*
X531325Y793202D01*
X531442Y793929D01*
X531576Y794653D01*
X531729Y795373D01*
X531899Y796089D01*
X532087Y796801D01*
X532292Y797509D01*
X532514Y798210D01*
X532754Y798907D01*
X533010Y799597D01*
X533284Y800281D01*
X533574Y800957D01*
X533880Y801627D01*
X534203Y802288D01*
X534542Y802942D01*
X534897Y803587D01*
X535268Y804223D01*
X535654Y804850D01*
X536056Y805467D01*
X536472Y806074D01*
X536904Y806671D01*
X537350Y807257D01*
X537810Y807832D01*
X538284Y808395D01*
X538771Y808947D01*
X539273Y809486D01*
X539787Y810013D01*
X540314Y810527D01*
X540853Y811029D01*
X541405Y811516D01*
X541968Y811990D01*
X542543Y812450D01*
X543129Y812896D01*
X543726Y813328D01*
X544333Y813744D01*
X544950Y814146D01*
X545577Y814532D01*
X546213Y814903D01*
X546858Y815258D01*
X547512Y815597D01*
X548173Y815920D01*
X548843Y816226D01*
X549519Y816516D01*
X550203Y816790D01*
X550893Y817046D01*
X551590Y817286D01*
X552291Y817508D01*
X552999Y817713D01*
X553711Y817901D01*
X554427Y818071D01*
X555147Y818224D01*
X555871Y818358D01*
X556598Y818475D01*
X557328Y818574D01*
X558059Y818656D01*
X558793Y818719D01*
X559528Y818764D01*
X560264Y818791D01*
X561000Y818800D01*
X561736Y818791D01*
X562472Y818764D01*
X563207Y818719D01*
X563941Y818656D01*
X564672Y818574D01*
X565402Y818475D01*
X566129Y818358D01*
X566853Y818224D01*
X567573Y818071D01*
X568289Y817901D01*
X569001Y817713D01*
X569709Y817508D01*
X570410Y817286D01*
X571107Y817046D01*
X571797Y816790D01*
X572481Y816516D01*
X573157Y816226D01*
X573827Y815920D01*
X574488Y815597D01*
X575142Y815258D01*
X575787Y814903D01*
X576423Y814532D01*
X577050Y814146D01*
X577667Y813744D01*
X578274Y813328D01*
X578871Y812896D01*
X579457Y812450D01*
X580032Y811990D01*
X580595Y811516D01*
X581147Y811029D01*
X581686Y810527D01*
X582213Y810013D01*
X582727Y809486D01*
X583229Y808947D01*
X583716Y808395D01*
X584190Y807832D01*
X584650Y807257D01*
X585096Y806671D01*
X585528Y806074D01*
X585944Y805467D01*
X586346Y804850D01*
X586732Y804223D01*
X587103Y803587D01*
X587458Y802942D01*
X587797Y802288D01*
X588120Y801627D01*
X588426Y800957D01*
X588716Y800281D01*
X588990Y799597D01*
X589246Y798907D01*
X589486Y798210D01*
X589708Y797509D01*
X589913Y796801D01*
X590101Y796089D01*
X590271Y795373D01*
X590424Y794653D01*
X590558Y793929D01*
X590675Y793202D01*
X590774Y792472D01*
X590856Y791741D01*
X590919Y791007D01*
X590964Y790272D01*
X590991Y789536D01*
X591000Y788800D01*
X590991Y788064D01*
X590964Y787328D01*
X590919Y786593D01*
X590856Y785859D01*
X590774Y785128D01*
X590675Y784398D01*
X590558Y783671D01*
X590424Y782947D01*
X590271Y782227D01*
X590101Y781511D01*
X589913Y780799D01*
X589708Y780091D01*
X589486Y779390D01*
X589246Y778693D01*
X588990Y778003D01*
X588716Y777319D01*
X588426Y776643D01*
X588120Y775973D01*
X587797Y775312D01*
X587458Y774658D01*
X587103Y774013D01*
X586732Y773377D01*
X586346Y772750D01*
X585944Y772133D01*
X585528Y771526D01*
X585096Y770929D01*
X584650Y770343D01*
X584190Y769768D01*
X583716Y769205D01*
X583229Y768653D01*
X582727Y768114D01*
X582213Y767587D01*
X581686Y767073D01*
X581147Y766571D01*
X580595Y766084D01*
X580032Y765610D01*
X579457Y765150D01*
X578871Y764704D01*
X578274Y764272D01*
X577667Y763856D01*
X577050Y763454D01*
X576423Y763068D01*
X575787Y762697D01*
X575142Y762342D01*
X574488Y762003D01*
X573827Y761680D01*
X573157Y761374D01*
X572481Y761084D01*
X571797Y760810D01*
X571107Y760554D01*
X570410Y760314D01*
X569709Y760092D01*
X569001Y759887D01*
X568289Y759699D01*
X567573Y759529D01*
X566853Y759376D01*
X566129Y759242D01*
X565402Y759125D01*
X564672Y759026D01*
X563941Y758944D01*
X563207Y758881D01*
X562472Y758836D01*
X561736Y758809D01*
X561000Y758800D01*
X560264Y758809D01*
X559528Y758836D01*
X558793Y758881D01*
X558059Y758944D01*
X557328Y759026D01*
X556598Y759125D01*
X555871Y759242D01*
X555147Y759376D01*
X554427Y759529D01*
X553711Y759699D01*
X552999Y759887D01*
X552291Y760092D01*
X551590Y760314D01*
X550893Y760554D01*
X550203Y760810D01*
X549519Y761084D01*
X548843Y761374D01*
X548173Y761680D01*
X547512Y762003D01*
X546858Y762342D01*
X546213Y762697D01*
X545577Y763068D01*
X544950Y763454D01*
X544333Y763856D01*
X543726Y764272D01*
X543129Y764704D01*
X542543Y765150D01*
X541968Y765610D01*
X541405Y766084D01*
X540853Y766571D01*
X540314Y767073D01*
X539787Y767587D01*
X539273Y768114D01*
X538771Y768653D01*
X538284Y769205D01*
X537810Y769768D01*
X537350Y770343D01*
X536904Y770929D01*
X536472Y771526D01*
X536056Y772133D01*
X535654Y772750D01*
X535268Y773377D01*
X534897Y774013D01*
X534542Y774658D01*
X534203Y775312D01*
X533880Y775973D01*
X533574Y776643D01*
X533284Y777319D01*
X533010Y778003D01*
X532754Y778693D01*
X532514Y779390D01*
X532292Y780091D01*
X532087Y780799D01*
X531899Y781511D01*
X531729Y782227D01*
X531576Y782947D01*
X531442Y783671D01*
X531325Y784398D01*
X531226Y785128D01*
X531144Y785859D01*
X531081Y786593D01*
X531036Y787328D01*
X531009Y788064D01*
X531000Y788800D01*
X531000Y318800D02*
X531009Y319536D01*
X531036Y320272D01*
X531081Y321007D01*
X531144Y321741D01*
X531226Y322472D01*
X531325Y323202D01*
X531442Y323929D01*
X531576Y324653D01*
X531729Y325373D01*
X531899Y326089D01*
X532087Y326801D01*
X532292Y327509D01*
X532514Y328210D01*
X532754Y328907D01*
X533010Y329597D01*
X533284Y330281D01*
X533574Y330957D01*
X533880Y331627D01*
X534203Y332288D01*
X534542Y332942D01*
X534897Y333587D01*
X535268Y334223D01*
X535654Y334850D01*
X536056Y335467D01*
X536472Y336074D01*
X536904Y336671D01*
X537350Y337257D01*
X537810Y337832D01*
X538284Y338395D01*
X538771Y338947D01*
X539273Y339486D01*
X539787Y340013D01*
X540314Y340527D01*
X540853Y341029D01*
X541405Y341516D01*
X541968Y341990D01*
X542543Y342450D01*
X543129Y342896D01*
X543726Y343328D01*
X544333Y343744D01*
X544950Y344146D01*
X545577Y344532D01*
X546213Y344903D01*
X546858Y345258D01*
X547512Y345597D01*
X548173Y345920D01*
X548843Y346226D01*
X549519Y346516D01*
X550203Y346790D01*
X550893Y347046D01*
X551590Y347286D01*
X552291Y347508D01*
X552999Y347713D01*
X553711Y347901D01*
X554427Y348071D01*
X555147Y348224D01*
X555871Y348358D01*
X556598Y348475D01*
X557328Y348574D01*
X558059Y348656D01*
X558793Y348719D01*
X559528Y348764D01*
X560264Y348791D01*
X561000Y348800D01*
X561736Y348791D01*
X562472Y348764D01*
X563207Y348719D01*
X563941Y348656D01*
X564672Y348574D01*
X565402Y348475D01*
X566129Y348358D01*
X566853Y348224D01*
X567573Y348071D01*
X568289Y347901D01*
X569001Y347713D01*
X569709Y347508D01*
X570410Y347286D01*
X571107Y347046D01*
X571797Y346790D01*
X572481Y346516D01*
X573157Y346226D01*
X573827Y345920D01*
X574488Y345597D01*
X575142Y345258D01*
X575787Y344903D01*
X576423Y344532D01*
X577050Y344146D01*
X577667Y343744D01*
X578274Y343328D01*
X578871Y342896D01*
X579457Y342450D01*
X580032Y341990D01*
X580595Y341516D01*
X581147Y341029D01*
X581686Y340527D01*
X582213Y340013D01*
X582727Y339486D01*
X583229Y338947D01*
X583716Y338395D01*
X584190Y337832D01*
X584650Y337257D01*
X585096Y336671D01*
X585528Y336074D01*
X585944Y335467D01*
X586346Y334850D01*
X586732Y334223D01*
X587103Y333587D01*
X587458Y332942D01*
X587797Y332288D01*
X588120Y331627D01*
X588426Y330957D01*
X588716Y330281D01*
X588990Y329597D01*
X589246Y328907D01*
X589486Y328210D01*
X589708Y327509D01*
X589913Y326801D01*
X590101Y326089D01*
X590271Y325373D01*
X590424Y324653D01*
X590558Y323929D01*
X590675Y323202D01*
X590774Y322472D01*
X590856Y321741D01*
X590919Y321007D01*
X590964Y320272D01*
X590991Y319536D01*
X591000Y318800D01*
X590991Y318064D01*
X590964Y317328D01*
X590919Y316593D01*
X590856Y315859D01*
X590774Y315128D01*
X590675Y314398D01*
X590558Y313671D01*
X590424Y312947D01*
X590271Y312227D01*
X590101Y311511D01*
X589913Y310799D01*
X589708Y310091D01*
X589486Y309390D01*
X589246Y308693D01*
X588990Y308003D01*
X588716Y307319D01*
X588426Y306643D01*
X588120Y305973D01*
X587797Y305312D01*
X587458Y304658D01*
X587103Y304013D01*
X586732Y303377D01*
X586346Y302750D01*
X585944Y302133D01*
X585528Y301526D01*
X585096Y300929D01*
X584650Y300343D01*
X584190Y299768D01*
X583716Y299205D01*
X583229Y298653D01*
X582727Y298114D01*
X582213Y297587D01*
X581686Y297073D01*
X581147Y296571D01*
X580595Y296084D01*
X580032Y295610D01*
X579457Y295150D01*
X578871Y294704D01*
X578274Y294272D01*
X577667Y293856D01*
X577050Y293454D01*
X576423Y293068D01*
X575787Y292697D01*
X575142Y292342D01*
X574488Y292003D01*
X573827Y291680D01*
X573157Y291374D01*
X572481Y291084D01*
X571797Y290810D01*
X571107Y290554D01*
X570410Y290314D01*
X569709Y290092D01*
X569001Y289887D01*
X568289Y289699D01*
X567573Y289529D01*
X566853Y289376D01*
X566129Y289242D01*
X565402Y289125D01*
X564672Y289026D01*
X563941Y288944D01*
X563207Y288881D01*
X562472Y288836D01*
X561736Y288809D01*
X561000Y288800D01*
X560264Y288809D01*
X559528Y288836D01*
X558793Y288881D01*
X558059Y288944D01*
X557328Y289026D01*
X556598Y289125D01*
X555871Y289242D01*
X555147Y289376D01*
X554427Y289529D01*
X553711Y289699D01*
X552999Y289887D01*
X552291Y290092D01*
X551590Y290314D01*
X550893Y290554D01*
X550203Y290810D01*
X549519Y291084D01*
X548843Y291374D01*
X548173Y291680D01*
X547512Y292003D01*
X546858Y292342D01*
X546213Y292697D01*
X545577Y293068D01*
X544950Y293454D01*
X544333Y293856D01*
X543726Y294272D01*
X543129Y294704D01*
X542543Y295150D01*
X541968Y295610D01*
X541405Y296084D01*
X540853Y296571D01*
X540314Y297073D01*
X539787Y297587D01*
X539273Y298114D01*
X538771Y298653D01*
X538284Y299205D01*
X537810Y299768D01*
X537350Y300343D01*
X536904Y300929D01*
X536472Y301526D01*
X536056Y302133D01*
X535654Y302750D01*
X535268Y303377D01*
X534897Y304013D01*
X534542Y304658D01*
X534203Y305312D01*
X533880Y305973D01*
X533574Y306643D01*
X533284Y307319D01*
X533010Y308003D01*
X532754Y308693D01*
X532514Y309390D01*
X532292Y310091D01*
X532087Y310799D01*
X531899Y311511D01*
X531729Y312227D01*
X531576Y312947D01*
X531442Y313671D01*
X531325Y314398D01*
X531226Y315128D01*
X531144Y315859D01*
X531081Y316593D01*
X531036Y317328D01*
X531009Y318064D01*
X531000Y318800D01*
X806000Y318800D02*
X806009Y319536D01*
X806036Y320272D01*
X806081Y321007D01*
X806144Y321741D01*
X806226Y322472D01*
X806325Y323202D01*
X806442Y323929D01*
X806576Y324653D01*
X806729Y325373D01*
X806899Y326089D01*
X807087Y326801D01*
X807292Y327509D01*
X807514Y328210D01*
X807754Y328907D01*
X808010Y329597D01*
X808284Y330281D01*
X808574Y330957D01*
X808880Y331627D01*
X809203Y332288D01*
X809542Y332942D01*
X809897Y333587D01*
X810268Y334223D01*
X810654Y334850D01*
X811056Y335467D01*
X811472Y336074D01*
X811904Y336671D01*
X812350Y337257D01*
X812810Y337832D01*
X813284Y338395D01*
X813771Y338947D01*
X814273Y339486D01*
X814787Y340013D01*
X815314Y340527D01*
X815853Y341029D01*
X816405Y341516D01*
X816968Y341990D01*
X817543Y342450D01*
X818129Y342896D01*
X818726Y343328D01*
X819333Y343744D01*
X819950Y344146D01*
X820577Y344532D01*
X821213Y344903D01*
X821858Y345258D01*
X822512Y345597D01*
X823173Y345920D01*
X823843Y346226D01*
X824519Y346516D01*
X825203Y346790D01*
X825893Y347046D01*
X826590Y347286D01*
X827291Y347508D01*
X827999Y347713D01*
X828711Y347901D01*
X829427Y348071D01*
X830147Y348224D01*
X830871Y348358D01*
X831598Y348475D01*
X832328Y348574D01*
X833059Y348656D01*
X833793Y348719D01*
X834528Y348764D01*
X835264Y348791D01*
X836000Y348800D01*
X836736Y348791D01*
X837472Y348764D01*
X838207Y348719D01*
X838941Y348656D01*
X839672Y348574D01*
X840402Y348475D01*
X841129Y348358D01*
X841853Y348224D01*
X842573Y348071D01*
X843289Y347901D01*
X844001Y347713D01*
X844709Y347508D01*
X845410Y347286D01*
X846107Y347046D01*
X846797Y346790D01*
X847481Y346516D01*
X848157Y346226D01*
X848827Y345920D01*
X849488Y345597D01*
X850142Y345258D01*
X850787Y344903D01*
X851423Y344532D01*
X852050Y344146D01*
X852667Y343744D01*
X853274Y343328D01*
X853871Y342896D01*
X854457Y342450D01*
X855032Y341990D01*
X855595Y341516D01*
X856147Y341029D01*
X856686Y340527D01*
X857213Y340013D01*
X857727Y339486D01*
X858229Y338947D01*
X858716Y338395D01*
X859190Y337832D01*
X859650Y337257D01*
X860096Y336671D01*
X860528Y336074D01*
X860944Y335467D01*
X861346Y334850D01*
X861732Y334223D01*
X862103Y333587D01*
X862458Y332942D01*
X862797Y332288D01*
X863120Y331627D01*
X863426Y330957D01*
X863716Y330281D01*
X863990Y329597D01*
X864246Y328907D01*
X864486Y328210D01*
X864708Y327509D01*
X864913Y326801D01*
X865101Y326089D01*
X865271Y325373D01*
X865424Y324653D01*
X865558Y323929D01*
X865675Y323202D01*
X865774Y322472D01*
X865856Y321741D01*
X865919Y321007D01*
X865964Y320272D01*
X865991Y319536D01*
X866000Y318800D01*
X865991Y318064D01*
X865964Y317328D01*
X865919Y316593D01*
X865856Y315859D01*
X865774Y315128D01*
X865675Y314398D01*
X865558Y313671D01*
X865424Y312947D01*
X865271Y312227D01*
X865101Y311511D01*
X864913Y310799D01*
X864708Y310091D01*
X864486Y309390D01*
X864246Y308693D01*
X863990Y308003D01*
X863716Y307319D01*
X863426Y306643D01*
X863120Y305973D01*
X862797Y305312D01*
X862458Y304658D01*
X862103Y304013D01*
X861732Y303377D01*
X861346Y302750D01*
X860944Y302133D01*
X860528Y301526D01*
X860096Y300929D01*
X859650Y300343D01*
X859190Y299768D01*
X858716Y299205D01*
X858229Y298653D01*
X857727Y298114D01*
X857213Y297587D01*
X856686Y297073D01*
X856147Y296571D01*
X855595Y296084D01*
X855032Y295610D01*
X854457Y295150D01*
X853871Y294704D01*
X853274Y294272D01*
X852667Y293856D01*
X852050Y293454D01*
X851423Y293068D01*
X850787Y292697D01*
X850142Y292342D01*
X849488Y292003D01*
X848827Y291680D01*
X848157Y291374D01*
X847481Y291084D01*
X846797Y290810D01*
X846107Y290554D01*
X845410Y290314D01*
X844709Y290092D01*
X844001Y289887D01*
X843289Y289699D01*
X842573Y289529D01*
X841853Y289376D01*
X841129Y289242D01*
X840402Y289125D01*
X839672Y289026D01*
X838941Y288944D01*
X838207Y288881D01*
X837472Y288836D01*
X836736Y288809D01*
X836000Y288800D01*
X835264Y288809D01*
X834528Y288836D01*
X833793Y288881D01*
X833059Y288944D01*
X832328Y289026D01*
X831598Y289125D01*
X830871Y289242D01*
X830147Y289376D01*
X829427Y289529D01*
X828711Y289699D01*
X827999Y289887D01*
X827291Y290092D01*
X826590Y290314D01*
X825893Y290554D01*
X825203Y290810D01*
X824519Y291084D01*
X823843Y291374D01*
X823173Y291680D01*
X822512Y292003D01*
X821858Y292342D01*
X821213Y292697D01*
X820577Y293068D01*
X819950Y293454D01*
X819333Y293856D01*
X818726Y294272D01*
X818129Y294704D01*
X817543Y295150D01*
X816968Y295610D01*
X816405Y296084D01*
X815853Y296571D01*
X815314Y297073D01*
X814787Y297587D01*
X814273Y298114D01*
X813771Y298653D01*
X813284Y299205D01*
X812810Y299768D01*
X812350Y300343D01*
X811904Y300929D01*
X811472Y301526D01*
X811056Y302133D01*
X810654Y302750D01*
X810268Y303377D01*
X809897Y304013D01*
X809542Y304658D01*
X809203Y305312D01*
X808880Y305973D01*
X808574Y306643D01*
X808284Y307319D01*
X808010Y308003D01*
X807754Y308693D01*
X807514Y309390D01*
X807292Y310091D01*
X807087Y310799D01*
X806899Y311511D01*
X806729Y312227D01*
X806576Y312947D01*
X806442Y313671D01*
X806325Y314398D01*
X806226Y315128D01*
X806144Y315859D01*
X806081Y316593D01*
X806036Y317328D01*
X806009Y318064D01*
X806000Y318800D01*
X654050Y228600D02*
X654050Y215900D01*
X742950Y215900D02*
X742950Y228600D01*
X749300Y222250D02*
X736600Y222250D01*
X731950Y256250D02*
X661950Y256250D01*
X731950Y256250D02*
X731950Y194250D01*
X731950Y186250D01*
X661950Y186250D01*
X661950Y194250D01*
X661950Y256250D01*
X661950Y194250D02*
X731950Y194250D01*
D12*
X16300Y258800D02*
X16300Y858800D01*
X466300Y858800D01*
X466300Y258800D01*
X16300Y258800D01*
D10*
X348800Y788800D02*
X348809Y789536D01*
X348836Y790272D01*
X348881Y791007D01*
X348944Y791741D01*
X349026Y792472D01*
X349125Y793202D01*
X349242Y793929D01*
X349376Y794653D01*
X349529Y795373D01*
X349699Y796089D01*
X349887Y796801D01*
X350092Y797509D01*
X350314Y798210D01*
X350554Y798907D01*
X350810Y799597D01*
X351084Y800281D01*
X351374Y800957D01*
X351680Y801627D01*
X352003Y802288D01*
X352342Y802942D01*
X352697Y803587D01*
X353068Y804223D01*
X353454Y804850D01*
X353856Y805467D01*
X354272Y806074D01*
X354704Y806671D01*
X355150Y807257D01*
X355610Y807832D01*
X356084Y808395D01*
X356571Y808947D01*
X357073Y809486D01*
X357587Y810013D01*
X358114Y810527D01*
X358653Y811029D01*
X359205Y811516D01*
X359768Y811990D01*
X360343Y812450D01*
X360929Y812896D01*
X361526Y813328D01*
X362133Y813744D01*
X362750Y814146D01*
X363377Y814532D01*
X364013Y814903D01*
X364658Y815258D01*
X365312Y815597D01*
X365973Y815920D01*
X366643Y816226D01*
X367319Y816516D01*
X368003Y816790D01*
X368693Y817046D01*
X369390Y817286D01*
X370091Y817508D01*
X370799Y817713D01*
X371511Y817901D01*
X372227Y818071D01*
X372947Y818224D01*
X373671Y818358D01*
X374398Y818475D01*
X375128Y818574D01*
X375859Y818656D01*
X376593Y818719D01*
X377328Y818764D01*
X378064Y818791D01*
X378800Y818800D01*
X379536Y818791D01*
X380272Y818764D01*
X381007Y818719D01*
X381741Y818656D01*
X382472Y818574D01*
X383202Y818475D01*
X383929Y818358D01*
X384653Y818224D01*
X385373Y818071D01*
X386089Y817901D01*
X386801Y817713D01*
X387509Y817508D01*
X388210Y817286D01*
X388907Y817046D01*
X389597Y816790D01*
X390281Y816516D01*
X390957Y816226D01*
X391627Y815920D01*
X392288Y815597D01*
X392942Y815258D01*
X393587Y814903D01*
X394223Y814532D01*
X394850Y814146D01*
X395467Y813744D01*
X396074Y813328D01*
X396671Y812896D01*
X397257Y812450D01*
X397832Y811990D01*
X398395Y811516D01*
X398947Y811029D01*
X399486Y810527D01*
X400013Y810013D01*
X400527Y809486D01*
X401029Y808947D01*
X401516Y808395D01*
X401990Y807832D01*
X402450Y807257D01*
X402896Y806671D01*
X403328Y806074D01*
X403744Y805467D01*
X404146Y804850D01*
X404532Y804223D01*
X404903Y803587D01*
X405258Y802942D01*
X405597Y802288D01*
X405920Y801627D01*
X406226Y800957D01*
X406516Y800281D01*
X406790Y799597D01*
X407046Y798907D01*
X407286Y798210D01*
X407508Y797509D01*
X407713Y796801D01*
X407901Y796089D01*
X408071Y795373D01*
X408224Y794653D01*
X408358Y793929D01*
X408475Y793202D01*
X408574Y792472D01*
X408656Y791741D01*
X408719Y791007D01*
X408764Y790272D01*
X408791Y789536D01*
X408800Y788800D01*
X408791Y788064D01*
X408764Y787328D01*
X408719Y786593D01*
X408656Y785859D01*
X408574Y785128D01*
X408475Y784398D01*
X408358Y783671D01*
X408224Y782947D01*
X408071Y782227D01*
X407901Y781511D01*
X407713Y780799D01*
X407508Y780091D01*
X407286Y779390D01*
X407046Y778693D01*
X406790Y778003D01*
X406516Y777319D01*
X406226Y776643D01*
X405920Y775973D01*
X405597Y775312D01*
X405258Y774658D01*
X404903Y774013D01*
X404532Y773377D01*
X404146Y772750D01*
X403744Y772133D01*
X403328Y771526D01*
X402896Y770929D01*
X402450Y770343D01*
X401990Y769768D01*
X401516Y769205D01*
X401029Y768653D01*
X400527Y768114D01*
X400013Y767587D01*
X399486Y767073D01*
X398947Y766571D01*
X398395Y766084D01*
X397832Y765610D01*
X397257Y765150D01*
X396671Y764704D01*
X396074Y764272D01*
X395467Y763856D01*
X394850Y763454D01*
X394223Y763068D01*
X393587Y762697D01*
X392942Y762342D01*
X392288Y762003D01*
X391627Y761680D01*
X390957Y761374D01*
X390281Y761084D01*
X389597Y760810D01*
X388907Y760554D01*
X388210Y760314D01*
X387509Y760092D01*
X386801Y759887D01*
X386089Y759699D01*
X385373Y759529D01*
X384653Y759376D01*
X383929Y759242D01*
X383202Y759125D01*
X382472Y759026D01*
X381741Y758944D01*
X381007Y758881D01*
X380272Y758836D01*
X379536Y758809D01*
X378800Y758800D01*
X378064Y758809D01*
X377328Y758836D01*
X376593Y758881D01*
X375859Y758944D01*
X375128Y759026D01*
X374398Y759125D01*
X373671Y759242D01*
X372947Y759376D01*
X372227Y759529D01*
X371511Y759699D01*
X370799Y759887D01*
X370091Y760092D01*
X369390Y760314D01*
X368693Y760554D01*
X368003Y760810D01*
X367319Y761084D01*
X366643Y761374D01*
X365973Y761680D01*
X365312Y762003D01*
X364658Y762342D01*
X364013Y762697D01*
X363377Y763068D01*
X362750Y763454D01*
X362133Y763856D01*
X361526Y764272D01*
X360929Y764704D01*
X360343Y765150D01*
X359768Y765610D01*
X359205Y766084D01*
X358653Y766571D01*
X358114Y767073D01*
X357587Y767587D01*
X357073Y768114D01*
X356571Y768653D01*
X356084Y769205D01*
X355610Y769768D01*
X355150Y770343D01*
X354704Y770929D01*
X354272Y771526D01*
X353856Y772133D01*
X353454Y772750D01*
X353068Y773377D01*
X352697Y774013D01*
X352342Y774658D01*
X352003Y775312D01*
X351680Y775973D01*
X351374Y776643D01*
X351084Y777319D01*
X350810Y778003D01*
X350554Y778693D01*
X350314Y779390D01*
X350092Y780091D01*
X349887Y780799D01*
X349699Y781511D01*
X349529Y782227D01*
X349376Y782947D01*
X349242Y783671D01*
X349125Y784398D01*
X349026Y785128D01*
X348944Y785859D01*
X348881Y786593D01*
X348836Y787328D01*
X348809Y788064D01*
X348800Y788800D01*
X10444Y863720D02*
X10446Y863783D01*
X10452Y863846D01*
X10462Y863909D01*
X10475Y863970D01*
X10493Y864031D01*
X10514Y864090D01*
X10539Y864149D01*
X10567Y864205D01*
X10599Y864260D01*
X10634Y864312D01*
X10673Y864362D01*
X10714Y864410D01*
X10759Y864455D01*
X10806Y864497D01*
X10855Y864536D01*
X10907Y864572D01*
X10961Y864605D01*
X11017Y864634D01*
X11075Y864660D01*
X11134Y864682D01*
X11194Y864701D01*
X11256Y864715D01*
X11318Y864726D01*
X11381Y864733D01*
X11444Y864736D01*
X11507Y864735D01*
X11570Y864730D01*
X11633Y864721D01*
X11695Y864708D01*
X11756Y864692D01*
X11816Y864672D01*
X11874Y864648D01*
X11931Y864620D01*
X11986Y864589D01*
X12039Y864555D01*
X12090Y864517D01*
X12138Y864476D01*
X12184Y864433D01*
X12227Y864386D01*
X12267Y864337D01*
X12304Y864286D01*
X12337Y864233D01*
X12367Y864177D01*
X12394Y864120D01*
X12417Y864061D01*
X12436Y864001D01*
X12452Y863939D01*
X12464Y863877D01*
X12472Y863815D01*
X12476Y863752D01*
X12476Y863688D01*
X12472Y863625D01*
X12464Y863563D01*
X12452Y863501D01*
X12436Y863439D01*
X12417Y863379D01*
X12394Y863320D01*
X12367Y863263D01*
X12337Y863207D01*
X12304Y863154D01*
X12267Y863103D01*
X12227Y863054D01*
X12184Y863007D01*
X12138Y862964D01*
X12090Y862923D01*
X12039Y862885D01*
X11986Y862851D01*
X11931Y862820D01*
X11874Y862792D01*
X11816Y862768D01*
X11756Y862748D01*
X11695Y862732D01*
X11633Y862719D01*
X11570Y862710D01*
X11507Y862705D01*
X11444Y862704D01*
X11381Y862707D01*
X11318Y862714D01*
X11256Y862725D01*
X11194Y862739D01*
X11134Y862758D01*
X11075Y862780D01*
X11017Y862806D01*
X10961Y862835D01*
X10907Y862868D01*
X10855Y862904D01*
X10806Y862943D01*
X10759Y862985D01*
X10714Y863030D01*
X10673Y863078D01*
X10634Y863128D01*
X10599Y863180D01*
X10567Y863235D01*
X10539Y863291D01*
X10514Y863350D01*
X10493Y863409D01*
X10475Y863470D01*
X10462Y863531D01*
X10452Y863594D01*
X10446Y863657D01*
X10444Y863720D01*
X73800Y788800D02*
X73809Y789536D01*
X73836Y790272D01*
X73881Y791007D01*
X73944Y791741D01*
X74026Y792472D01*
X74125Y793202D01*
X74242Y793929D01*
X74376Y794653D01*
X74529Y795373D01*
X74699Y796089D01*
X74887Y796801D01*
X75092Y797509D01*
X75314Y798210D01*
X75554Y798907D01*
X75810Y799597D01*
X76084Y800281D01*
X76374Y800957D01*
X76680Y801627D01*
X77003Y802288D01*
X77342Y802942D01*
X77697Y803587D01*
X78068Y804223D01*
X78454Y804850D01*
X78856Y805467D01*
X79272Y806074D01*
X79704Y806671D01*
X80150Y807257D01*
X80610Y807832D01*
X81084Y808395D01*
X81571Y808947D01*
X82073Y809486D01*
X82587Y810013D01*
X83114Y810527D01*
X83653Y811029D01*
X84205Y811516D01*
X84768Y811990D01*
X85343Y812450D01*
X85929Y812896D01*
X86526Y813328D01*
X87133Y813744D01*
X87750Y814146D01*
X88377Y814532D01*
X89013Y814903D01*
X89658Y815258D01*
X90312Y815597D01*
X90973Y815920D01*
X91643Y816226D01*
X92319Y816516D01*
X93003Y816790D01*
X93693Y817046D01*
X94390Y817286D01*
X95091Y817508D01*
X95799Y817713D01*
X96511Y817901D01*
X97227Y818071D01*
X97947Y818224D01*
X98671Y818358D01*
X99398Y818475D01*
X100128Y818574D01*
X100859Y818656D01*
X101593Y818719D01*
X102328Y818764D01*
X103064Y818791D01*
X103800Y818800D01*
X104536Y818791D01*
X105272Y818764D01*
X106007Y818719D01*
X106741Y818656D01*
X107472Y818574D01*
X108202Y818475D01*
X108929Y818358D01*
X109653Y818224D01*
X110373Y818071D01*
X111089Y817901D01*
X111801Y817713D01*
X112509Y817508D01*
X113210Y817286D01*
X113907Y817046D01*
X114597Y816790D01*
X115281Y816516D01*
X115957Y816226D01*
X116627Y815920D01*
X117288Y815597D01*
X117942Y815258D01*
X118587Y814903D01*
X119223Y814532D01*
X119850Y814146D01*
X120467Y813744D01*
X121074Y813328D01*
X121671Y812896D01*
X122257Y812450D01*
X122832Y811990D01*
X123395Y811516D01*
X123947Y811029D01*
X124486Y810527D01*
X125013Y810013D01*
X125527Y809486D01*
X126029Y808947D01*
X126516Y808395D01*
X126990Y807832D01*
X127450Y807257D01*
X127896Y806671D01*
X128328Y806074D01*
X128744Y805467D01*
X129146Y804850D01*
X129532Y804223D01*
X129903Y803587D01*
X130258Y802942D01*
X130597Y802288D01*
X130920Y801627D01*
X131226Y800957D01*
X131516Y800281D01*
X131790Y799597D01*
X132046Y798907D01*
X132286Y798210D01*
X132508Y797509D01*
X132713Y796801D01*
X132901Y796089D01*
X133071Y795373D01*
X133224Y794653D01*
X133358Y793929D01*
X133475Y793202D01*
X133574Y792472D01*
X133656Y791741D01*
X133719Y791007D01*
X133764Y790272D01*
X133791Y789536D01*
X133800Y788800D01*
X133791Y788064D01*
X133764Y787328D01*
X133719Y786593D01*
X133656Y785859D01*
X133574Y785128D01*
X133475Y784398D01*
X133358Y783671D01*
X133224Y782947D01*
X133071Y782227D01*
X132901Y781511D01*
X132713Y780799D01*
X132508Y780091D01*
X132286Y779390D01*
X132046Y778693D01*
X131790Y778003D01*
X131516Y777319D01*
X131226Y776643D01*
X130920Y775973D01*
X130597Y775312D01*
X130258Y774658D01*
X129903Y774013D01*
X129532Y773377D01*
X129146Y772750D01*
X128744Y772133D01*
X128328Y771526D01*
X127896Y770929D01*
X127450Y770343D01*
X126990Y769768D01*
X126516Y769205D01*
X126029Y768653D01*
X125527Y768114D01*
X125013Y767587D01*
X124486Y767073D01*
X123947Y766571D01*
X123395Y766084D01*
X122832Y765610D01*
X122257Y765150D01*
X121671Y764704D01*
X121074Y764272D01*
X120467Y763856D01*
X119850Y763454D01*
X119223Y763068D01*
X118587Y762697D01*
X117942Y762342D01*
X117288Y762003D01*
X116627Y761680D01*
X115957Y761374D01*
X115281Y761084D01*
X114597Y760810D01*
X113907Y760554D01*
X113210Y760314D01*
X112509Y760092D01*
X111801Y759887D01*
X111089Y759699D01*
X110373Y759529D01*
X109653Y759376D01*
X108929Y759242D01*
X108202Y759125D01*
X107472Y759026D01*
X106741Y758944D01*
X106007Y758881D01*
X105272Y758836D01*
X104536Y758809D01*
X103800Y758800D01*
X103064Y758809D01*
X102328Y758836D01*
X101593Y758881D01*
X100859Y758944D01*
X100128Y759026D01*
X99398Y759125D01*
X98671Y759242D01*
X97947Y759376D01*
X97227Y759529D01*
X96511Y759699D01*
X95799Y759887D01*
X95091Y760092D01*
X94390Y760314D01*
X93693Y760554D01*
X93003Y760810D01*
X92319Y761084D01*
X91643Y761374D01*
X90973Y761680D01*
X90312Y762003D01*
X89658Y762342D01*
X89013Y762697D01*
X88377Y763068D01*
X87750Y763454D01*
X87133Y763856D01*
X86526Y764272D01*
X85929Y764704D01*
X85343Y765150D01*
X84768Y765610D01*
X84205Y766084D01*
X83653Y766571D01*
X83114Y767073D01*
X82587Y767587D01*
X82073Y768114D01*
X81571Y768653D01*
X81084Y769205D01*
X80610Y769768D01*
X80150Y770343D01*
X79704Y770929D01*
X79272Y771526D01*
X78856Y772133D01*
X78454Y772750D01*
X78068Y773377D01*
X77697Y774013D01*
X77342Y774658D01*
X77003Y775312D01*
X76680Y775973D01*
X76374Y776643D01*
X76084Y777319D01*
X75810Y778003D01*
X75554Y778693D01*
X75314Y779390D01*
X75092Y780091D01*
X74887Y780799D01*
X74699Y781511D01*
X74529Y782227D01*
X74376Y782947D01*
X74242Y783671D01*
X74125Y784398D01*
X74026Y785128D01*
X73944Y785859D01*
X73881Y786593D01*
X73836Y787328D01*
X73809Y788064D01*
X73800Y788800D01*
X73800Y318800D02*
X73809Y319536D01*
X73836Y320272D01*
X73881Y321007D01*
X73944Y321741D01*
X74026Y322472D01*
X74125Y323202D01*
X74242Y323929D01*
X74376Y324653D01*
X74529Y325373D01*
X74699Y326089D01*
X74887Y326801D01*
X75092Y327509D01*
X75314Y328210D01*
X75554Y328907D01*
X75810Y329597D01*
X76084Y330281D01*
X76374Y330957D01*
X76680Y331627D01*
X77003Y332288D01*
X77342Y332942D01*
X77697Y333587D01*
X78068Y334223D01*
X78454Y334850D01*
X78856Y335467D01*
X79272Y336074D01*
X79704Y336671D01*
X80150Y337257D01*
X80610Y337832D01*
X81084Y338395D01*
X81571Y338947D01*
X82073Y339486D01*
X82587Y340013D01*
X83114Y340527D01*
X83653Y341029D01*
X84205Y341516D01*
X84768Y341990D01*
X85343Y342450D01*
X85929Y342896D01*
X86526Y343328D01*
X87133Y343744D01*
X87750Y344146D01*
X88377Y344532D01*
X89013Y344903D01*
X89658Y345258D01*
X90312Y345597D01*
X90973Y345920D01*
X91643Y346226D01*
X92319Y346516D01*
X93003Y346790D01*
X93693Y347046D01*
X94390Y347286D01*
X95091Y347508D01*
X95799Y347713D01*
X96511Y347901D01*
X97227Y348071D01*
X97947Y348224D01*
X98671Y348358D01*
X99398Y348475D01*
X100128Y348574D01*
X100859Y348656D01*
X101593Y348719D01*
X102328Y348764D01*
X103064Y348791D01*
X103800Y348800D01*
X104536Y348791D01*
X105272Y348764D01*
X106007Y348719D01*
X106741Y348656D01*
X107472Y348574D01*
X108202Y348475D01*
X108929Y348358D01*
X109653Y348224D01*
X110373Y348071D01*
X111089Y347901D01*
X111801Y347713D01*
X112509Y347508D01*
X113210Y347286D01*
X113907Y347046D01*
X114597Y346790D01*
X115281Y346516D01*
X115957Y346226D01*
X116627Y345920D01*
X117288Y345597D01*
X117942Y345258D01*
X118587Y344903D01*
X119223Y344532D01*
X119850Y344146D01*
X120467Y343744D01*
X121074Y343328D01*
X121671Y342896D01*
X122257Y342450D01*
X122832Y341990D01*
X123395Y341516D01*
X123947Y341029D01*
X124486Y340527D01*
X125013Y340013D01*
X125527Y339486D01*
X126029Y338947D01*
X126516Y338395D01*
X126990Y337832D01*
X127450Y337257D01*
X127896Y336671D01*
X128328Y336074D01*
X128744Y335467D01*
X129146Y334850D01*
X129532Y334223D01*
X129903Y333587D01*
X130258Y332942D01*
X130597Y332288D01*
X130920Y331627D01*
X131226Y330957D01*
X131516Y330281D01*
X131790Y329597D01*
X132046Y328907D01*
X132286Y328210D01*
X132508Y327509D01*
X132713Y326801D01*
X132901Y326089D01*
X133071Y325373D01*
X133224Y324653D01*
X133358Y323929D01*
X133475Y323202D01*
X133574Y322472D01*
X133656Y321741D01*
X133719Y321007D01*
X133764Y320272D01*
X133791Y319536D01*
X133800Y318800D01*
X133791Y318064D01*
X133764Y317328D01*
X133719Y316593D01*
X133656Y315859D01*
X133574Y315128D01*
X133475Y314398D01*
X133358Y313671D01*
X133224Y312947D01*
X133071Y312227D01*
X132901Y311511D01*
X132713Y310799D01*
X132508Y310091D01*
X132286Y309390D01*
X132046Y308693D01*
X131790Y308003D01*
X131516Y307319D01*
X131226Y306643D01*
X130920Y305973D01*
X130597Y305312D01*
X130258Y304658D01*
X129903Y304013D01*
X129532Y303377D01*
X129146Y302750D01*
X128744Y302133D01*
X128328Y301526D01*
X127896Y300929D01*
X127450Y300343D01*
X126990Y299768D01*
X126516Y299205D01*
X126029Y298653D01*
X125527Y298114D01*
X125013Y297587D01*
X124486Y297073D01*
X123947Y296571D01*
X123395Y296084D01*
X122832Y295610D01*
X122257Y295150D01*
X121671Y294704D01*
X121074Y294272D01*
X120467Y293856D01*
X119850Y293454D01*
X119223Y293068D01*
X118587Y292697D01*
X117942Y292342D01*
X117288Y292003D01*
X116627Y291680D01*
X115957Y291374D01*
X115281Y291084D01*
X114597Y290810D01*
X113907Y290554D01*
X113210Y290314D01*
X112509Y290092D01*
X111801Y289887D01*
X111089Y289699D01*
X110373Y289529D01*
X109653Y289376D01*
X108929Y289242D01*
X108202Y289125D01*
X107472Y289026D01*
X106741Y288944D01*
X106007Y288881D01*
X105272Y288836D01*
X104536Y288809D01*
X103800Y288800D01*
X103064Y288809D01*
X102328Y288836D01*
X101593Y288881D01*
X100859Y288944D01*
X100128Y289026D01*
X99398Y289125D01*
X98671Y289242D01*
X97947Y289376D01*
X97227Y289529D01*
X96511Y289699D01*
X95799Y289887D01*
X95091Y290092D01*
X94390Y290314D01*
X93693Y290554D01*
X93003Y290810D01*
X92319Y291084D01*
X91643Y291374D01*
X90973Y291680D01*
X90312Y292003D01*
X89658Y292342D01*
X89013Y292697D01*
X88377Y293068D01*
X87750Y293454D01*
X87133Y293856D01*
X86526Y294272D01*
X85929Y294704D01*
X85343Y295150D01*
X84768Y295610D01*
X84205Y296084D01*
X83653Y296571D01*
X83114Y297073D01*
X82587Y297587D01*
X82073Y298114D01*
X81571Y298653D01*
X81084Y299205D01*
X80610Y299768D01*
X80150Y300343D01*
X79704Y300929D01*
X79272Y301526D01*
X78856Y302133D01*
X78454Y302750D01*
X78068Y303377D01*
X77697Y304013D01*
X77342Y304658D01*
X77003Y305312D01*
X76680Y305973D01*
X76374Y306643D01*
X76084Y307319D01*
X75810Y308003D01*
X75554Y308693D01*
X75314Y309390D01*
X75092Y310091D01*
X74887Y310799D01*
X74699Y311511D01*
X74529Y312227D01*
X74376Y312947D01*
X74242Y313671D01*
X74125Y314398D01*
X74026Y315128D01*
X73944Y315859D01*
X73881Y316593D01*
X73836Y317328D01*
X73809Y318064D01*
X73800Y318800D01*
X348800Y318800D02*
X348809Y319536D01*
X348836Y320272D01*
X348881Y321007D01*
X348944Y321741D01*
X349026Y322472D01*
X349125Y323202D01*
X349242Y323929D01*
X349376Y324653D01*
X349529Y325373D01*
X349699Y326089D01*
X349887Y326801D01*
X350092Y327509D01*
X350314Y328210D01*
X350554Y328907D01*
X350810Y329597D01*
X351084Y330281D01*
X351374Y330957D01*
X351680Y331627D01*
X352003Y332288D01*
X352342Y332942D01*
X352697Y333587D01*
X353068Y334223D01*
X353454Y334850D01*
X353856Y335467D01*
X354272Y336074D01*
X354704Y336671D01*
X355150Y337257D01*
X355610Y337832D01*
X356084Y338395D01*
X356571Y338947D01*
X357073Y339486D01*
X357587Y340013D01*
X358114Y340527D01*
X358653Y341029D01*
X359205Y341516D01*
X359768Y341990D01*
X360343Y342450D01*
X360929Y342896D01*
X361526Y343328D01*
X362133Y343744D01*
X362750Y344146D01*
X363377Y344532D01*
X364013Y344903D01*
X364658Y345258D01*
X365312Y345597D01*
X365973Y345920D01*
X366643Y346226D01*
X367319Y346516D01*
X368003Y346790D01*
X368693Y347046D01*
X369390Y347286D01*
X370091Y347508D01*
X370799Y347713D01*
X371511Y347901D01*
X372227Y348071D01*
X372947Y348224D01*
X373671Y348358D01*
X374398Y348475D01*
X375128Y348574D01*
X375859Y348656D01*
X376593Y348719D01*
X377328Y348764D01*
X378064Y348791D01*
X378800Y348800D01*
X379536Y348791D01*
X380272Y348764D01*
X381007Y348719D01*
X381741Y348656D01*
X382472Y348574D01*
X383202Y348475D01*
X383929Y348358D01*
X384653Y348224D01*
X385373Y348071D01*
X386089Y347901D01*
X386801Y347713D01*
X387509Y347508D01*
X388210Y347286D01*
X388907Y347046D01*
X389597Y346790D01*
X390281Y346516D01*
X390957Y346226D01*
X391627Y345920D01*
X392288Y345597D01*
X392942Y345258D01*
X393587Y344903D01*
X394223Y344532D01*
X394850Y344146D01*
X395467Y343744D01*
X396074Y343328D01*
X396671Y342896D01*
X397257Y342450D01*
X397832Y341990D01*
X398395Y341516D01*
X398947Y341029D01*
X399486Y340527D01*
X400013Y340013D01*
X400527Y339486D01*
X401029Y338947D01*
X401516Y338395D01*
X401990Y337832D01*
X402450Y337257D01*
X402896Y336671D01*
X403328Y336074D01*
X403744Y335467D01*
X404146Y334850D01*
X404532Y334223D01*
X404903Y333587D01*
X405258Y332942D01*
X405597Y332288D01*
X405920Y331627D01*
X406226Y330957D01*
X406516Y330281D01*
X406790Y329597D01*
X407046Y328907D01*
X407286Y328210D01*
X407508Y327509D01*
X407713Y326801D01*
X407901Y326089D01*
X408071Y325373D01*
X408224Y324653D01*
X408358Y323929D01*
X408475Y323202D01*
X408574Y322472D01*
X408656Y321741D01*
X408719Y321007D01*
X408764Y320272D01*
X408791Y319536D01*
X408800Y318800D01*
X408791Y318064D01*
X408764Y317328D01*
X408719Y316593D01*
X408656Y315859D01*
X408574Y315128D01*
X408475Y314398D01*
X408358Y313671D01*
X408224Y312947D01*
X408071Y312227D01*
X407901Y311511D01*
X407713Y310799D01*
X407508Y310091D01*
X407286Y309390D01*
X407046Y308693D01*
X406790Y308003D01*
X406516Y307319D01*
X406226Y306643D01*
X405920Y305973D01*
X405597Y305312D01*
X405258Y304658D01*
X404903Y304013D01*
X404532Y303377D01*
X404146Y302750D01*
X403744Y302133D01*
X403328Y301526D01*
X402896Y300929D01*
X402450Y300343D01*
X401990Y299768D01*
X401516Y299205D01*
X401029Y298653D01*
X400527Y298114D01*
X400013Y297587D01*
X399486Y297073D01*
X398947Y296571D01*
X398395Y296084D01*
X397832Y295610D01*
X397257Y295150D01*
X396671Y294704D01*
X396074Y294272D01*
X395467Y293856D01*
X394850Y293454D01*
X394223Y293068D01*
X393587Y292697D01*
X392942Y292342D01*
X392288Y292003D01*
X391627Y291680D01*
X390957Y291374D01*
X390281Y291084D01*
X389597Y290810D01*
X388907Y290554D01*
X388210Y290314D01*
X387509Y290092D01*
X386801Y289887D01*
X386089Y289699D01*
X385373Y289529D01*
X384653Y289376D01*
X383929Y289242D01*
X383202Y289125D01*
X382472Y289026D01*
X381741Y288944D01*
X381007Y288881D01*
X380272Y288836D01*
X379536Y288809D01*
X378800Y288800D01*
X378064Y288809D01*
X377328Y288836D01*
X376593Y288881D01*
X375859Y288944D01*
X375128Y289026D01*
X374398Y289125D01*
X373671Y289242D01*
X372947Y289376D01*
X372227Y289529D01*
X371511Y289699D01*
X370799Y289887D01*
X370091Y290092D01*
X369390Y290314D01*
X368693Y290554D01*
X368003Y290810D01*
X367319Y291084D01*
X366643Y291374D01*
X365973Y291680D01*
X365312Y292003D01*
X364658Y292342D01*
X364013Y292697D01*
X363377Y293068D01*
X362750Y293454D01*
X362133Y293856D01*
X361526Y294272D01*
X360929Y294704D01*
X360343Y295150D01*
X359768Y295610D01*
X359205Y296084D01*
X358653Y296571D01*
X358114Y297073D01*
X357587Y297587D01*
X357073Y298114D01*
X356571Y298653D01*
X356084Y299205D01*
X355610Y299768D01*
X355150Y300343D01*
X354704Y300929D01*
X354272Y301526D01*
X353856Y302133D01*
X353454Y302750D01*
X353068Y303377D01*
X352697Y304013D01*
X352342Y304658D01*
X352003Y305312D01*
X351680Y305973D01*
X351374Y306643D01*
X351084Y307319D01*
X350810Y308003D01*
X350554Y308693D01*
X350314Y309390D01*
X350092Y310091D01*
X349887Y310799D01*
X349699Y311511D01*
X349529Y312227D01*
X349376Y312947D01*
X349242Y313671D01*
X349125Y314398D01*
X349026Y315128D01*
X348944Y315859D01*
X348881Y316593D01*
X348836Y317328D01*
X348809Y318064D01*
X348800Y318800D01*
X196850Y228600D02*
X196850Y215900D01*
X285750Y215900D02*
X285750Y228600D01*
X292100Y222250D02*
X279400Y222250D01*
X274750Y256250D02*
X204750Y256250D01*
X274750Y256250D02*
X274750Y194250D01*
X274750Y186250D01*
X204750Y186250D01*
X204750Y194250D01*
X204750Y256250D01*
X204750Y194250D02*
X274750Y194250D01*
X1522700Y184800D02*
X1528700Y184800D01*
X1522700Y184800D02*
X1522700Y176800D01*
X1544700Y184800D02*
X1550700Y184800D01*
X1550700Y176800D01*
X1071500Y184800D02*
X1065500Y184800D01*
X1065500Y176800D01*
X1087500Y184800D02*
X1093500Y184800D01*
X1093500Y176800D01*
X614300Y184800D02*
X608300Y184800D01*
X608300Y176800D01*
X630300Y184800D02*
X636300Y184800D01*
X636300Y176800D01*
X157100Y184800D02*
X151100Y184800D01*
X151100Y176800D01*
X173100Y184800D02*
X179100Y184800D01*
X179100Y176800D01*
X260763Y118618D02*
X260763Y33782D01*
X225647Y29972D02*
X225534Y29956D01*
X225420Y29945D01*
X225306Y29938D01*
X225192Y29934D01*
X225077Y29935D01*
X224963Y29939D01*
X224849Y29947D01*
X224735Y29959D01*
X224622Y29975D01*
X224510Y29995D01*
X224398Y30019D01*
X224287Y30046D01*
X224177Y30078D01*
X224068Y30113D01*
X223960Y30151D01*
X223854Y30194D01*
X223750Y30240D01*
X223646Y30289D01*
X223545Y30342D01*
X223446Y30398D01*
X223348Y30458D01*
X223253Y30521D01*
X223160Y30588D01*
X223069Y30657D01*
X222981Y30729D01*
X222895Y30805D01*
X222811Y30883D01*
X222731Y30964D01*
X222653Y31048D01*
X222578Y31135D01*
X222507Y31224D01*
X222438Y31315D01*
X222372Y31409D01*
X222310Y31504D01*
X222251Y31602D01*
X222195Y31702D01*
X222143Y31804D01*
X222094Y31907D01*
X222049Y32012D01*
X222008Y32119D01*
X221970Y32227D01*
X221935Y32336D01*
X221905Y32446D01*
X221878Y32557D01*
X221856Y32669D01*
X221837Y32782D01*
X260763Y118618D02*
X260746Y118748D01*
X260725Y118877D01*
X260700Y119006D01*
X260672Y119134D01*
X260639Y119261D01*
X260603Y119387D01*
X260562Y119512D01*
X260518Y119635D01*
X260471Y119757D01*
X260419Y119878D01*
X260365Y119997D01*
X260306Y120114D01*
X260244Y120229D01*
X260179Y120343D01*
X260110Y120455D01*
X260037Y120564D01*
X259962Y120671D01*
X259883Y120776D01*
X259801Y120878D01*
X259716Y120978D01*
X259629Y121075D01*
X259538Y121170D01*
X259444Y121262D01*
X259348Y121351D01*
X259249Y121437D01*
X259148Y121519D01*
X259044Y121599D01*
X258937Y121676D01*
X258829Y121749D01*
X258718Y121819D01*
X258605Y121886D01*
X258490Y121949D01*
X258374Y122009D01*
X258255Y122065D01*
X258135Y122118D01*
X258014Y122167D01*
X257891Y122212D01*
X257766Y122254D01*
X257641Y122292D01*
X257514Y122325D01*
X257387Y122356D01*
X257258Y122382D01*
X257129Y122404D01*
X256999Y122423D01*
X256869Y122437D01*
X256738Y122448D01*
X256607Y122454D01*
X256476Y122457D01*
X256345Y122456D01*
X256214Y122450D01*
X256084Y122441D01*
X255953Y122428D01*
X260763Y33782D02*
X260761Y33660D01*
X260755Y33538D01*
X260745Y33416D01*
X260732Y33295D01*
X260714Y33174D01*
X260693Y33054D01*
X260668Y32934D01*
X260639Y32815D01*
X260606Y32698D01*
X260569Y32581D01*
X260529Y32466D01*
X260485Y32352D01*
X260437Y32240D01*
X260386Y32129D01*
X260331Y32020D01*
X260273Y31912D01*
X260211Y31807D01*
X260146Y31703D01*
X260078Y31602D01*
X260007Y31503D01*
X259932Y31406D01*
X259854Y31312D01*
X259774Y31220D01*
X259690Y31131D01*
X259604Y31045D01*
X259515Y30961D01*
X259423Y30881D01*
X259329Y30803D01*
X259232Y30728D01*
X259133Y30657D01*
X259032Y30589D01*
X258928Y30524D01*
X258823Y30462D01*
X258715Y30404D01*
X258606Y30349D01*
X258495Y30298D01*
X258383Y30250D01*
X258269Y30206D01*
X258154Y30166D01*
X258037Y30129D01*
X257920Y30096D01*
X257801Y30067D01*
X257681Y30042D01*
X257561Y30021D01*
X257440Y30003D01*
X257319Y29990D01*
X257197Y29980D01*
X257075Y29974D01*
X256953Y29972D01*
X221837Y118617D02*
X221822Y118731D01*
X221810Y118845D01*
X221803Y118959D01*
X221799Y119073D01*
X221800Y119187D01*
X221804Y119302D01*
X221812Y119416D01*
X221824Y119529D01*
X221840Y119642D01*
X221860Y119755D01*
X221884Y119867D01*
X221911Y119978D01*
X221942Y120088D01*
X221977Y120197D01*
X222016Y120304D01*
X222058Y120411D01*
X222104Y120515D01*
X222154Y120618D01*
X222207Y120720D01*
X222263Y120819D01*
X222323Y120917D01*
X222386Y121012D01*
X222452Y121105D01*
X222522Y121196D01*
X222594Y121284D01*
X222670Y121370D01*
X222748Y121453D01*
X222829Y121534D01*
X222913Y121612D01*
X222999Y121686D01*
X223088Y121758D01*
X223180Y121827D01*
X223273Y121893D01*
X223369Y121955D01*
X223467Y122014D01*
X223567Y122070D01*
X223669Y122122D01*
X223772Y122170D01*
X223877Y122216D01*
X223984Y122257D01*
X224092Y122295D01*
X224201Y122329D01*
X224311Y122359D01*
X224422Y122386D01*
X224534Y122409D01*
X224647Y122428D01*
X221837Y118618D02*
X221837Y32782D01*
X225647Y29972D02*
X256953Y29972D01*
X247396Y121920D02*
X247394Y121762D01*
X247388Y121603D01*
X247378Y121445D01*
X247364Y121288D01*
X247347Y121130D01*
X247325Y120974D01*
X247300Y120817D01*
X247270Y120662D01*
X247237Y120507D01*
X247200Y120353D01*
X247159Y120200D01*
X247114Y120048D01*
X247065Y119898D01*
X247013Y119748D01*
X246957Y119600D01*
X246897Y119453D01*
X246834Y119308D01*
X246767Y119165D01*
X246697Y119023D01*
X246623Y118883D01*
X246545Y118745D01*
X246464Y118609D01*
X246380Y118475D01*
X246293Y118343D01*
X246202Y118213D01*
X246108Y118086D01*
X246011Y117961D01*
X245910Y117838D01*
X245807Y117718D01*
X245701Y117601D01*
X245592Y117486D01*
X245480Y117374D01*
X245365Y117265D01*
X245248Y117159D01*
X245128Y117056D01*
X245005Y116955D01*
X244880Y116858D01*
X244753Y116764D01*
X244623Y116673D01*
X244491Y116586D01*
X244357Y116502D01*
X244221Y116421D01*
X244083Y116343D01*
X243943Y116269D01*
X243801Y116199D01*
X243658Y116132D01*
X243513Y116069D01*
X243366Y116009D01*
X243218Y115953D01*
X243068Y115901D01*
X242918Y115852D01*
X242766Y115807D01*
X242613Y115766D01*
X242459Y115729D01*
X242304Y115696D01*
X242149Y115666D01*
X241992Y115641D01*
X241836Y115619D01*
X241678Y115602D01*
X241521Y115588D01*
X241363Y115578D01*
X241204Y115572D01*
X241046Y115570D01*
X240888Y115572D01*
X240729Y115578D01*
X240571Y115588D01*
X240414Y115602D01*
X240256Y115619D01*
X240100Y115641D01*
X239943Y115666D01*
X239788Y115696D01*
X239633Y115729D01*
X239479Y115766D01*
X239326Y115807D01*
X239174Y115852D01*
X239024Y115901D01*
X238874Y115953D01*
X238726Y116009D01*
X238579Y116069D01*
X238434Y116132D01*
X238291Y116199D01*
X238149Y116269D01*
X238009Y116343D01*
X237871Y116421D01*
X237735Y116502D01*
X237601Y116586D01*
X237469Y116673D01*
X237339Y116764D01*
X237212Y116858D01*
X237087Y116955D01*
X236964Y117056D01*
X236844Y117159D01*
X236727Y117265D01*
X236612Y117374D01*
X236500Y117486D01*
X236391Y117601D01*
X236285Y117718D01*
X236182Y117838D01*
X236081Y117961D01*
X235984Y118086D01*
X235890Y118213D01*
X235799Y118343D01*
X235712Y118475D01*
X235628Y118609D01*
X235547Y118745D01*
X235469Y118883D01*
X235395Y119023D01*
X235325Y119165D01*
X235258Y119308D01*
X235195Y119453D01*
X235135Y119600D01*
X235079Y119748D01*
X235027Y119898D01*
X234978Y120048D01*
X234933Y120200D01*
X234892Y120353D01*
X234855Y120507D01*
X234822Y120662D01*
X234792Y120817D01*
X234767Y120974D01*
X234745Y121130D01*
X234728Y121288D01*
X234714Y121445D01*
X234704Y121603D01*
X234698Y121762D01*
X234696Y121920D01*
X247396Y122428D02*
X255826Y122428D01*
X234696Y122428D02*
X224647Y122428D01*
X216472Y125413D02*
X216474Y125476D01*
X216480Y125539D01*
X216490Y125602D01*
X216503Y125663D01*
X216521Y125724D01*
X216542Y125783D01*
X216567Y125842D01*
X216595Y125898D01*
X216627Y125953D01*
X216662Y126005D01*
X216701Y126055D01*
X216742Y126103D01*
X216787Y126148D01*
X216834Y126190D01*
X216883Y126229D01*
X216935Y126265D01*
X216989Y126298D01*
X217045Y126327D01*
X217103Y126353D01*
X217162Y126375D01*
X217222Y126394D01*
X217284Y126408D01*
X217346Y126419D01*
X217409Y126426D01*
X217472Y126429D01*
X217535Y126428D01*
X217598Y126423D01*
X217661Y126414D01*
X217723Y126401D01*
X217784Y126385D01*
X217844Y126365D01*
X217902Y126341D01*
X217959Y126313D01*
X218014Y126282D01*
X218067Y126248D01*
X218118Y126210D01*
X218166Y126169D01*
X218212Y126126D01*
X218255Y126079D01*
X218295Y126030D01*
X218332Y125979D01*
X218365Y125926D01*
X218395Y125870D01*
X218422Y125813D01*
X218445Y125754D01*
X218464Y125694D01*
X218480Y125632D01*
X218492Y125570D01*
X218500Y125508D01*
X218504Y125445D01*
X218504Y125381D01*
X218500Y125318D01*
X218492Y125256D01*
X218480Y125194D01*
X218464Y125132D01*
X218445Y125072D01*
X218422Y125013D01*
X218395Y124956D01*
X218365Y124900D01*
X218332Y124847D01*
X218295Y124796D01*
X218255Y124747D01*
X218212Y124700D01*
X218166Y124657D01*
X218118Y124616D01*
X218067Y124578D01*
X218014Y124544D01*
X217959Y124513D01*
X217902Y124485D01*
X217844Y124461D01*
X217784Y124441D01*
X217723Y124425D01*
X217661Y124412D01*
X217598Y124403D01*
X217535Y124398D01*
X217472Y124397D01*
X217409Y124400D01*
X217346Y124407D01*
X217284Y124418D01*
X217222Y124432D01*
X217162Y124451D01*
X217103Y124473D01*
X217045Y124499D01*
X216989Y124528D01*
X216935Y124561D01*
X216883Y124597D01*
X216834Y124636D01*
X216787Y124678D01*
X216742Y124723D01*
X216701Y124771D01*
X216662Y124821D01*
X216627Y124873D01*
X216595Y124928D01*
X216567Y124984D01*
X216542Y125043D01*
X216521Y125102D01*
X216503Y125163D01*
X216490Y125224D01*
X216480Y125287D01*
X216474Y125350D01*
X216472Y125413D01*
X139700Y104140D02*
X114300Y104140D01*
X139700Y124460D02*
X139833Y124458D01*
X139966Y124452D01*
X140098Y124443D01*
X140231Y124429D01*
X140363Y124412D01*
X140494Y124391D01*
X140625Y124366D01*
X140754Y124337D01*
X140883Y124304D01*
X141011Y124268D01*
X141138Y124228D01*
X141264Y124184D01*
X141388Y124137D01*
X141511Y124086D01*
X141632Y124032D01*
X141752Y123974D01*
X141870Y123912D01*
X141986Y123847D01*
X142100Y123779D01*
X142212Y123708D01*
X142322Y123633D01*
X142430Y123555D01*
X142536Y123474D01*
X142639Y123390D01*
X142739Y123303D01*
X142837Y123214D01*
X142933Y123121D01*
X143026Y123025D01*
X143115Y122927D01*
X143202Y122827D01*
X143286Y122724D01*
X143367Y122618D01*
X143445Y122510D01*
X143520Y122400D01*
X143591Y122288D01*
X143659Y122174D01*
X143724Y122058D01*
X143786Y121940D01*
X143844Y121820D01*
X143898Y121699D01*
X143949Y121576D01*
X143996Y121452D01*
X144040Y121326D01*
X144080Y121199D01*
X144116Y121071D01*
X144149Y120942D01*
X144178Y120813D01*
X144203Y120682D01*
X144224Y120551D01*
X144241Y120419D01*
X144255Y120286D01*
X144264Y120154D01*
X144270Y120021D01*
X144272Y119888D01*
X114300Y124460D02*
X114167Y124458D01*
X114034Y124452D01*
X113902Y124443D01*
X113769Y124429D01*
X113637Y124412D01*
X113506Y124391D01*
X113375Y124366D01*
X113246Y124337D01*
X113117Y124304D01*
X112989Y124268D01*
X112862Y124228D01*
X112736Y124184D01*
X112612Y124137D01*
X112489Y124086D01*
X112368Y124032D01*
X112248Y123974D01*
X112130Y123912D01*
X112014Y123847D01*
X111900Y123779D01*
X111788Y123708D01*
X111678Y123633D01*
X111570Y123555D01*
X111464Y123474D01*
X111361Y123390D01*
X111261Y123303D01*
X111163Y123214D01*
X111067Y123121D01*
X110974Y123025D01*
X110885Y122927D01*
X110798Y122827D01*
X110714Y122724D01*
X110633Y122618D01*
X110555Y122510D01*
X110480Y122400D01*
X110409Y122288D01*
X110341Y122174D01*
X110276Y122058D01*
X110214Y121940D01*
X110156Y121820D01*
X110102Y121699D01*
X110051Y121576D01*
X110004Y121452D01*
X109960Y121326D01*
X109920Y121199D01*
X109884Y121071D01*
X109851Y120942D01*
X109822Y120813D01*
X109797Y120682D01*
X109776Y120551D01*
X109759Y120419D01*
X109745Y120286D01*
X109736Y120154D01*
X109730Y120021D01*
X109728Y119888D01*
X109728Y108712D02*
X109730Y108579D01*
X109736Y108446D01*
X109745Y108314D01*
X109759Y108181D01*
X109776Y108049D01*
X109797Y107918D01*
X109822Y107787D01*
X109851Y107658D01*
X109884Y107529D01*
X109920Y107401D01*
X109960Y107274D01*
X110004Y107148D01*
X110051Y107024D01*
X110102Y106901D01*
X110156Y106780D01*
X110214Y106660D01*
X110276Y106542D01*
X110341Y106426D01*
X110409Y106312D01*
X110480Y106200D01*
X110555Y106090D01*
X110633Y105982D01*
X110714Y105876D01*
X110798Y105773D01*
X110885Y105673D01*
X110974Y105575D01*
X111067Y105479D01*
X111163Y105386D01*
X111261Y105297D01*
X111361Y105210D01*
X111464Y105126D01*
X111570Y105045D01*
X111678Y104967D01*
X111788Y104892D01*
X111900Y104821D01*
X112014Y104753D01*
X112130Y104688D01*
X112248Y104626D01*
X112368Y104568D01*
X112489Y104514D01*
X112612Y104463D01*
X112736Y104416D01*
X112862Y104372D01*
X112989Y104332D01*
X113117Y104296D01*
X113246Y104263D01*
X113375Y104234D01*
X113506Y104209D01*
X113637Y104188D01*
X113769Y104171D01*
X113902Y104157D01*
X114034Y104148D01*
X114167Y104142D01*
X114300Y104140D01*
X139700Y104140D02*
X139833Y104142D01*
X139966Y104148D01*
X140098Y104157D01*
X140231Y104171D01*
X140363Y104188D01*
X140494Y104209D01*
X140625Y104234D01*
X140754Y104263D01*
X140883Y104296D01*
X141011Y104332D01*
X141138Y104372D01*
X141264Y104416D01*
X141388Y104463D01*
X141511Y104514D01*
X141632Y104568D01*
X141752Y104626D01*
X141870Y104688D01*
X141986Y104753D01*
X142100Y104821D01*
X142212Y104892D01*
X142322Y104967D01*
X142430Y105045D01*
X142536Y105126D01*
X142639Y105210D01*
X142739Y105297D01*
X142837Y105386D01*
X142933Y105479D01*
X143026Y105575D01*
X143115Y105673D01*
X143202Y105773D01*
X143286Y105876D01*
X143367Y105982D01*
X143445Y106090D01*
X143520Y106200D01*
X143591Y106312D01*
X143659Y106426D01*
X143724Y106542D01*
X143786Y106660D01*
X143844Y106780D01*
X143898Y106901D01*
X143949Y107024D01*
X143996Y107148D01*
X144040Y107274D01*
X144080Y107401D01*
X144116Y107529D01*
X144149Y107658D01*
X144178Y107787D01*
X144203Y107918D01*
X144224Y108049D01*
X144241Y108181D01*
X144255Y108314D01*
X144264Y108446D01*
X144270Y108579D01*
X144272Y108712D01*
X144272Y119888D01*
X109728Y119888D02*
X109728Y108712D01*
X114300Y124460D02*
X139700Y124460D01*
M02*
