G04 EAGLE Gerber RS-274X export*
G75*
%MOMM*%
%FSLAX34Y34*%
%LPD*%
%INSoldermask Top*%
%IPPOS*%
%AMOC8*
5,1,8,0,0,1.08239X$1,22.5*%
G01*
%ADD10R,1.303200X1.203200*%
%ADD11C,0.505344*%
%ADD12C,1.203200*%
%ADD13C,2.082800*%
%ADD14R,2.203200X1.403200*%
%ADD15R,1.553200X0.803200*%
%ADD16R,1.473200X0.838200*%
%ADD17R,0.838200X1.473200*%
%ADD18C,3.505200*%
%ADD19C,4.703200*%
%ADD20R,2.235200X2.235200*%
%ADD21C,2.235200*%
%ADD22R,1.003200X1.103200*%
%ADD23R,1.203200X1.303200*%
%ADD24R,1.403200X0.803200*%
%ADD25R,0.863600X1.473200*%

G36*
X123890Y112407D02*
X123890Y112407D01*
X123956Y112409D01*
X123999Y112427D01*
X124046Y112435D01*
X124103Y112469D01*
X124163Y112494D01*
X124198Y112525D01*
X124239Y112550D01*
X124281Y112601D01*
X124329Y112645D01*
X124351Y112687D01*
X124380Y112724D01*
X124401Y112786D01*
X124432Y112845D01*
X124440Y112899D01*
X124452Y112936D01*
X124451Y112976D01*
X124459Y113030D01*
X124459Y115570D01*
X124448Y115635D01*
X124446Y115701D01*
X124428Y115744D01*
X124420Y115791D01*
X124386Y115848D01*
X124361Y115908D01*
X124330Y115943D01*
X124305Y115984D01*
X124254Y116026D01*
X124210Y116074D01*
X124168Y116096D01*
X124131Y116125D01*
X124069Y116146D01*
X124010Y116177D01*
X123956Y116185D01*
X123919Y116197D01*
X123879Y116196D01*
X123825Y116204D01*
X120015Y116204D01*
X119950Y116193D01*
X119884Y116191D01*
X119841Y116173D01*
X119794Y116165D01*
X119737Y116131D01*
X119677Y116106D01*
X119642Y116075D01*
X119601Y116050D01*
X119560Y115999D01*
X119511Y115955D01*
X119489Y115913D01*
X119460Y115876D01*
X119439Y115814D01*
X119408Y115755D01*
X119400Y115701D01*
X119388Y115664D01*
X119388Y115661D01*
X119389Y115624D01*
X119381Y115570D01*
X119381Y113030D01*
X119392Y112965D01*
X119394Y112899D01*
X119412Y112856D01*
X119420Y112809D01*
X119454Y112752D01*
X119479Y112692D01*
X119510Y112657D01*
X119535Y112616D01*
X119586Y112575D01*
X119630Y112526D01*
X119672Y112504D01*
X119709Y112475D01*
X119771Y112454D01*
X119830Y112423D01*
X119884Y112415D01*
X119921Y112403D01*
X119961Y112404D01*
X120015Y112396D01*
X123825Y112396D01*
X123890Y112407D01*
G37*
G36*
X134050Y112407D02*
X134050Y112407D01*
X134116Y112409D01*
X134159Y112427D01*
X134206Y112435D01*
X134263Y112469D01*
X134323Y112494D01*
X134358Y112525D01*
X134399Y112550D01*
X134441Y112601D01*
X134489Y112645D01*
X134511Y112687D01*
X134540Y112724D01*
X134561Y112786D01*
X134592Y112845D01*
X134600Y112899D01*
X134612Y112936D01*
X134611Y112976D01*
X134619Y113030D01*
X134619Y115570D01*
X134608Y115635D01*
X134606Y115701D01*
X134588Y115744D01*
X134580Y115791D01*
X134546Y115848D01*
X134521Y115908D01*
X134490Y115943D01*
X134465Y115984D01*
X134414Y116026D01*
X134370Y116074D01*
X134328Y116096D01*
X134291Y116125D01*
X134229Y116146D01*
X134170Y116177D01*
X134116Y116185D01*
X134079Y116197D01*
X134039Y116196D01*
X133985Y116204D01*
X130175Y116204D01*
X130110Y116193D01*
X130044Y116191D01*
X130001Y116173D01*
X129954Y116165D01*
X129897Y116131D01*
X129837Y116106D01*
X129802Y116075D01*
X129761Y116050D01*
X129720Y115999D01*
X129671Y115955D01*
X129649Y115913D01*
X129620Y115876D01*
X129599Y115814D01*
X129568Y115755D01*
X129560Y115701D01*
X129548Y115664D01*
X129548Y115661D01*
X129549Y115624D01*
X129541Y115570D01*
X129541Y113030D01*
X129552Y112965D01*
X129554Y112899D01*
X129572Y112856D01*
X129580Y112809D01*
X129614Y112752D01*
X129639Y112692D01*
X129670Y112657D01*
X129695Y112616D01*
X129746Y112575D01*
X129790Y112526D01*
X129832Y112504D01*
X129869Y112475D01*
X129931Y112454D01*
X129990Y112423D01*
X130044Y112415D01*
X130081Y112403D01*
X130121Y112404D01*
X130175Y112396D01*
X133985Y112396D01*
X134050Y112407D01*
G37*
D10*
X232800Y133350D03*
X249800Y133350D03*
D11*
X1520510Y210620D02*
X1527490Y210620D01*
X1527490Y203640D01*
X1520510Y203640D01*
X1520510Y210620D01*
X1520510Y208440D02*
X1527490Y208440D01*
X1527490Y228160D02*
X1520510Y228160D01*
X1527490Y228160D02*
X1527490Y221180D01*
X1520510Y221180D01*
X1520510Y228160D01*
X1520510Y225980D02*
X1527490Y225980D01*
X703780Y16190D02*
X703780Y9210D01*
X703780Y16190D02*
X710760Y16190D01*
X710760Y9210D01*
X703780Y9210D01*
X703780Y14010D02*
X710760Y14010D01*
X686240Y16190D02*
X686240Y9210D01*
X686240Y16190D02*
X693220Y16190D01*
X693220Y9210D01*
X686240Y9210D01*
X686240Y14010D02*
X693220Y14010D01*
X1063310Y210620D02*
X1070290Y210620D01*
X1070290Y203640D01*
X1063310Y203640D01*
X1063310Y210620D01*
X1063310Y208440D02*
X1070290Y208440D01*
X1070290Y228160D02*
X1063310Y228160D01*
X1070290Y228160D02*
X1070290Y221180D01*
X1063310Y221180D01*
X1063310Y228160D01*
X1063310Y225980D02*
X1070290Y225980D01*
X613090Y210620D02*
X606110Y210620D01*
X613090Y210620D02*
X613090Y203640D01*
X606110Y203640D01*
X606110Y210620D01*
X606110Y208440D02*
X613090Y208440D01*
X613090Y228160D02*
X606110Y228160D01*
X613090Y228160D02*
X613090Y221180D01*
X606110Y221180D01*
X606110Y228160D01*
X606110Y225980D02*
X613090Y225980D01*
X155890Y210620D02*
X148910Y210620D01*
X155890Y210620D02*
X155890Y203640D01*
X148910Y203640D01*
X148910Y210620D01*
X148910Y208440D02*
X155890Y208440D01*
X155890Y228160D02*
X148910Y228160D01*
X155890Y228160D02*
X155890Y221180D01*
X148910Y221180D01*
X148910Y228160D01*
X148910Y225980D02*
X155890Y225980D01*
D12*
X1790700Y241300D03*
X50800Y50800D03*
D13*
X165100Y12700D03*
X139700Y12700D03*
X114300Y12700D03*
X88900Y12700D03*
D14*
X1840150Y99000D03*
X1840150Y155000D03*
D15*
X1803400Y112000D03*
X1803400Y122000D03*
X1803400Y132000D03*
X1803400Y142000D03*
D14*
X14050Y155000D03*
X14050Y99000D03*
D15*
X50800Y142000D03*
X50800Y132000D03*
X50800Y122000D03*
X50800Y112000D03*
D16*
X698500Y67564D03*
X698500Y59436D03*
D17*
X194564Y50800D03*
X186436Y50800D03*
D18*
X1828800Y25400D03*
X25400Y228600D03*
X25400Y25400D03*
X1828800Y228600D03*
D19*
X1155700Y323800D03*
X1155700Y793800D03*
D20*
X1136650Y222250D03*
D21*
X1171650Y222250D03*
D19*
X1612900Y323800D03*
X1612900Y793800D03*
D20*
X1593850Y222250D03*
D21*
X1628850Y222250D03*
D19*
X698500Y323800D03*
X698500Y793800D03*
D20*
X679450Y222250D03*
D21*
X714450Y222250D03*
D19*
X241300Y323800D03*
X241300Y793800D03*
D20*
X222250Y222250D03*
D21*
X257250Y222250D03*
D22*
X1527200Y167800D03*
X1546200Y167800D03*
X1536700Y188800D03*
X1070000Y167800D03*
X1089000Y167800D03*
X1079500Y188800D03*
X612800Y167800D03*
X631800Y167800D03*
X622300Y188800D03*
X155600Y167800D03*
X174600Y167800D03*
X165100Y188800D03*
D23*
X1498600Y224400D03*
X1498600Y207400D03*
X127000Y224400D03*
X127000Y207400D03*
D10*
X707000Y38100D03*
X690000Y38100D03*
D23*
X177800Y207400D03*
X177800Y224400D03*
X127000Y169300D03*
X127000Y186300D03*
D10*
X232800Y152400D03*
X249800Y152400D03*
D23*
X1549400Y207400D03*
X1549400Y224400D03*
X1498600Y169300D03*
X1498600Y186300D03*
X1041400Y224400D03*
X1041400Y207400D03*
X1092200Y207400D03*
X1092200Y224400D03*
X1041400Y169300D03*
X1041400Y186300D03*
X584200Y224400D03*
X584200Y207400D03*
X635000Y207400D03*
X635000Y224400D03*
X584200Y169300D03*
X584200Y186300D03*
D24*
X213300Y114300D03*
X213300Y101600D03*
X213300Y88900D03*
X213300Y76200D03*
X213300Y63500D03*
X213300Y50800D03*
X213300Y38100D03*
X269300Y38100D03*
X269300Y50800D03*
X269300Y63500D03*
X269300Y76200D03*
X269300Y88900D03*
X269300Y101600D03*
X269300Y114300D03*
D25*
X116586Y114300D03*
X127000Y114300D03*
X137414Y114300D03*
D23*
X95250Y122800D03*
X95250Y105800D03*
X158750Y122800D03*
X158750Y105800D03*
M02*
