G04 EAGLE Gerber RS-274X export*
G75*
%MOMM*%
%FSLAX34Y34*%
%LPD*%
%INSilkscreen Bottom*%
%IPPOS*%
%AMOC8*
5,1,8,0,0,1.08239X$1,22.5*%
G01*
%ADD10C,0.203200*%

G36*
X936420Y12846D02*
X936420Y12846D01*
X936528Y12856D01*
X936541Y12862D01*
X936555Y12864D01*
X936652Y12912D01*
X936751Y12957D01*
X936764Y12968D01*
X936773Y12972D01*
X936788Y12988D01*
X936865Y13050D01*
X939450Y15635D01*
X939513Y15724D01*
X939579Y15809D01*
X939584Y15822D01*
X939592Y15834D01*
X939623Y15937D01*
X939659Y16040D01*
X939659Y16054D01*
X939663Y16067D01*
X939659Y16175D01*
X939660Y16284D01*
X939655Y16297D01*
X939655Y16311D01*
X939617Y16413D01*
X939582Y16515D01*
X939573Y16530D01*
X939569Y16539D01*
X939555Y16556D01*
X939501Y16638D01*
X936737Y20028D01*
X937294Y21110D01*
X937300Y21130D01*
X937342Y21225D01*
X937713Y22384D01*
X942064Y22827D01*
X942168Y22855D01*
X942274Y22880D01*
X942286Y22887D01*
X942299Y22890D01*
X942389Y22951D01*
X942482Y23008D01*
X942490Y23019D01*
X942502Y23027D01*
X942568Y23113D01*
X942637Y23197D01*
X942641Y23210D01*
X942650Y23221D01*
X942684Y23324D01*
X942723Y23425D01*
X942724Y23443D01*
X942728Y23452D01*
X942728Y23474D01*
X942737Y23572D01*
X942737Y27228D01*
X942720Y27335D01*
X942706Y27443D01*
X942700Y27455D01*
X942698Y27469D01*
X942646Y27565D01*
X942599Y27662D01*
X942589Y27672D01*
X942583Y27684D01*
X942503Y27758D01*
X942427Y27835D01*
X942415Y27841D01*
X942405Y27851D01*
X942306Y27896D01*
X942209Y27944D01*
X942191Y27948D01*
X942182Y27952D01*
X942161Y27954D01*
X942064Y27973D01*
X937713Y28416D01*
X937342Y29575D01*
X937333Y29592D01*
X937331Y29600D01*
X937327Y29607D01*
X937294Y29690D01*
X936737Y30772D01*
X939501Y34162D01*
X939555Y34256D01*
X939612Y34348D01*
X939615Y34361D01*
X939622Y34373D01*
X939643Y34480D01*
X939668Y34585D01*
X939666Y34599D01*
X939669Y34613D01*
X939654Y34720D01*
X939644Y34828D01*
X939638Y34841D01*
X939636Y34855D01*
X939588Y34952D01*
X939543Y35051D01*
X939532Y35064D01*
X939528Y35073D01*
X939512Y35088D01*
X939450Y35165D01*
X936865Y37750D01*
X936776Y37813D01*
X936691Y37879D01*
X936678Y37884D01*
X936666Y37892D01*
X936563Y37923D01*
X936460Y37959D01*
X936446Y37959D01*
X936433Y37963D01*
X936325Y37959D01*
X936216Y37960D01*
X936203Y37955D01*
X936189Y37955D01*
X936087Y37917D01*
X935985Y37882D01*
X935970Y37873D01*
X935961Y37869D01*
X935944Y37855D01*
X935862Y37801D01*
X932472Y35037D01*
X931390Y35594D01*
X931370Y35600D01*
X931275Y35642D01*
X930116Y36013D01*
X929673Y40364D01*
X929645Y40468D01*
X929620Y40574D01*
X929613Y40586D01*
X929610Y40599D01*
X929549Y40689D01*
X929492Y40782D01*
X929481Y40790D01*
X929473Y40802D01*
X929387Y40868D01*
X929303Y40937D01*
X929290Y40941D01*
X929279Y40950D01*
X929176Y40984D01*
X929075Y41023D01*
X929057Y41024D01*
X929048Y41028D01*
X929026Y41028D01*
X928928Y41037D01*
X925272Y41037D01*
X925165Y41020D01*
X925057Y41006D01*
X925045Y41000D01*
X925031Y40998D01*
X924935Y40946D01*
X924838Y40899D01*
X924828Y40889D01*
X924816Y40883D01*
X924742Y40803D01*
X924665Y40727D01*
X924659Y40715D01*
X924649Y40705D01*
X924604Y40606D01*
X924556Y40509D01*
X924552Y40491D01*
X924548Y40482D01*
X924546Y40461D01*
X924527Y40364D01*
X924084Y36013D01*
X922925Y35642D01*
X922907Y35632D01*
X922810Y35594D01*
X921728Y35037D01*
X918338Y37801D01*
X918244Y37855D01*
X918152Y37912D01*
X918139Y37915D01*
X918127Y37922D01*
X918020Y37943D01*
X917915Y37968D01*
X917901Y37966D01*
X917887Y37969D01*
X917780Y37954D01*
X917672Y37944D01*
X917659Y37938D01*
X917646Y37936D01*
X917548Y37888D01*
X917449Y37843D01*
X917436Y37832D01*
X917427Y37828D01*
X917412Y37812D01*
X917335Y37750D01*
X914750Y35165D01*
X914687Y35076D01*
X914621Y34991D01*
X914616Y34978D01*
X914608Y34966D01*
X914577Y34863D01*
X914541Y34760D01*
X914541Y34746D01*
X914537Y34733D01*
X914541Y34625D01*
X914540Y34516D01*
X914545Y34503D01*
X914545Y34489D01*
X914583Y34387D01*
X914618Y34285D01*
X914627Y34270D01*
X914631Y34261D01*
X914645Y34244D01*
X914699Y34162D01*
X917463Y30772D01*
X916906Y29690D01*
X916900Y29670D01*
X916858Y29575D01*
X916487Y28416D01*
X912136Y27973D01*
X912032Y27945D01*
X911926Y27920D01*
X911914Y27913D01*
X911901Y27910D01*
X911811Y27849D01*
X911718Y27792D01*
X911710Y27781D01*
X911698Y27773D01*
X911632Y27687D01*
X911564Y27603D01*
X911559Y27590D01*
X911550Y27579D01*
X911516Y27476D01*
X911477Y27375D01*
X911476Y27357D01*
X911472Y27348D01*
X911473Y27326D01*
X911463Y27228D01*
X911463Y23572D01*
X911480Y23465D01*
X911494Y23357D01*
X911500Y23345D01*
X911502Y23331D01*
X911554Y23235D01*
X911601Y23138D01*
X911611Y23128D01*
X911617Y23116D01*
X911697Y23042D01*
X911773Y22965D01*
X911785Y22959D01*
X911796Y22949D01*
X911894Y22904D01*
X911991Y22856D01*
X912009Y22852D01*
X912018Y22848D01*
X912039Y22846D01*
X912136Y22827D01*
X916487Y22384D01*
X916858Y21225D01*
X916868Y21207D01*
X916906Y21110D01*
X917463Y20028D01*
X914699Y16638D01*
X914645Y16544D01*
X914588Y16452D01*
X914585Y16439D01*
X914578Y16427D01*
X914557Y16320D01*
X914532Y16215D01*
X914534Y16201D01*
X914531Y16187D01*
X914546Y16080D01*
X914556Y15972D01*
X914562Y15959D01*
X914564Y15946D01*
X914612Y15848D01*
X914657Y15749D01*
X914668Y15736D01*
X914672Y15727D01*
X914688Y15712D01*
X914750Y15635D01*
X917335Y13050D01*
X917424Y12987D01*
X917509Y12921D01*
X917522Y12916D01*
X917534Y12908D01*
X917637Y12877D01*
X917740Y12841D01*
X917754Y12841D01*
X917767Y12837D01*
X917875Y12841D01*
X917984Y12840D01*
X917997Y12845D01*
X918011Y12845D01*
X918113Y12883D01*
X918215Y12918D01*
X918230Y12927D01*
X918239Y12931D01*
X918256Y12945D01*
X918338Y12999D01*
X921728Y15763D01*
X922810Y15206D01*
X922863Y15189D01*
X922912Y15163D01*
X922978Y15152D01*
X923042Y15131D01*
X923098Y15132D01*
X923152Y15123D01*
X923219Y15134D01*
X923286Y15135D01*
X923338Y15153D01*
X923393Y15162D01*
X923453Y15194D01*
X923516Y15217D01*
X923559Y15251D01*
X923609Y15277D01*
X923655Y15326D01*
X923707Y15368D01*
X923738Y15415D01*
X923776Y15455D01*
X923832Y15560D01*
X923840Y15573D01*
X923841Y15578D01*
X923845Y15585D01*
X925998Y20782D01*
X926018Y20865D01*
X926023Y20878D01*
X926025Y20894D01*
X926050Y20979D01*
X926049Y21000D01*
X926054Y21020D01*
X926046Y21102D01*
X926048Y21121D01*
X926043Y21141D01*
X926039Y21222D01*
X926032Y21242D01*
X926030Y21263D01*
X925999Y21332D01*
X925992Y21359D01*
X925977Y21383D01*
X925951Y21450D01*
X925938Y21466D01*
X925929Y21485D01*
X925884Y21534D01*
X925864Y21566D01*
X925833Y21591D01*
X925795Y21637D01*
X925772Y21653D01*
X925762Y21663D01*
X925741Y21675D01*
X925676Y21720D01*
X925675Y21721D01*
X925674Y21722D01*
X924775Y22228D01*
X924088Y22872D01*
X923573Y23660D01*
X923261Y24548D01*
X923169Y25485D01*
X923302Y26417D01*
X923653Y27291D01*
X924202Y28056D01*
X924916Y28669D01*
X925756Y29094D01*
X926673Y29308D01*
X927614Y29298D01*
X928526Y29064D01*
X929356Y28621D01*
X930057Y27992D01*
X930589Y27215D01*
X930920Y26334D01*
X931033Y25399D01*
X930925Y24482D01*
X930605Y23614D01*
X930091Y22845D01*
X929412Y22218D01*
X928528Y21723D01*
X928486Y21690D01*
X928444Y21667D01*
X928413Y21634D01*
X928365Y21599D01*
X928353Y21583D01*
X928337Y21570D01*
X928302Y21515D01*
X928277Y21489D01*
X928263Y21458D01*
X928222Y21401D01*
X928216Y21382D01*
X928206Y21365D01*
X928187Y21290D01*
X928177Y21267D01*
X928174Y21243D01*
X928151Y21168D01*
X928152Y21148D01*
X928147Y21128D01*
X928154Y21043D01*
X928153Y21024D01*
X928156Y21007D01*
X928159Y20924D01*
X928167Y20899D01*
X928168Y20885D01*
X928178Y20863D01*
X928202Y20782D01*
X928511Y20037D01*
X929442Y17789D01*
X929752Y17040D01*
X930355Y15585D01*
X930384Y15538D01*
X930405Y15486D01*
X930448Y15435D01*
X930484Y15378D01*
X930527Y15343D01*
X930563Y15300D01*
X930620Y15266D01*
X930672Y15223D01*
X930724Y15204D01*
X930772Y15175D01*
X930838Y15161D01*
X930901Y15137D01*
X930956Y15135D01*
X931010Y15124D01*
X931077Y15131D01*
X931144Y15129D01*
X931198Y15145D01*
X931253Y15152D01*
X931364Y15196D01*
X931378Y15200D01*
X931382Y15203D01*
X931390Y15206D01*
X932472Y15763D01*
X935862Y12999D01*
X935956Y12945D01*
X936048Y12888D01*
X936061Y12885D01*
X936073Y12878D01*
X936180Y12857D01*
X936285Y12832D01*
X936299Y12834D01*
X936313Y12831D01*
X936420Y12846D01*
G37*
D10*
X220726Y47244D02*
X220726Y54102D01*
M02*
