M48
;GenerationSoftware,Autodesk,EAGLE,9.6.0*%
;CreationDate,2020-05-08T18:18:09Z*%
FMAT,2
ICI,OFF
METRIC,TZ,000.000
T6C0.381
T5C0.508
T4C1.016
T3C1.200
T2C3.302
T1C4.500
%
G90
M71
T1
X115570Y79380
X24130Y79380
X24130Y32380
X69850Y79380
X69850Y32380
X161290Y79380
X161290Y32380
X115570Y32380
T2
X182880Y2540
X2540Y22860
X2540Y2540
X182880Y22860
T3
X162885Y22225
X67945Y22225
X71445Y22225
X22225Y22225
X25725Y22225
X117165Y22225
X113665Y22225
X159385Y22225
T4
X11430Y1270
X8890Y1270
X16510Y1270
X13970Y1270
T5
X22860Y5080
X22860Y7620
X25400Y7620
X22860Y10160
X25400Y10160
X25400Y5080
T6
X17780Y15240
X27940Y13970
X24130Y8890
X62230Y15240
X110490Y16510
X99060Y3810
X157480Y16510
X177800Y8890
X20320Y3810
X13970Y3175
X16510Y7620
X12700Y7620
X12700Y12700
X67310Y12700
X73660Y7620
X21330Y12700
X175260Y11430
X7620Y12700
M30