G04 EAGLE Gerber RS-274X export*
G75*
%MOMM*%
%FSLAX34Y34*%
%LPD*%
%INSolderpaste Top*%
%IPPOS*%
%AMOC8*
5,1,8,0,0,1.08239X$1,22.5*%
G01*
%ADD10R,1.100000X1.000000*%
%ADD11C,0.300000*%
%ADD12R,2.000000X1.200000*%
%ADD13R,1.350000X0.600000*%
%ADD14R,0.800000X0.900000*%
%ADD15R,1.000000X1.100000*%
%ADD16R,1.200000X0.600000*%


D10*
X334400Y133350D03*
X351400Y133350D03*
D11*
X1520500Y210630D02*
X1527500Y210630D01*
X1527500Y203630D01*
X1520500Y203630D01*
X1520500Y210630D01*
X1520500Y206480D02*
X1527500Y206480D01*
X1527500Y209330D02*
X1520500Y209330D01*
X1520500Y228170D02*
X1527500Y228170D01*
X1527500Y221170D01*
X1520500Y221170D01*
X1520500Y228170D01*
X1520500Y224020D02*
X1527500Y224020D01*
X1527500Y226870D02*
X1520500Y226870D01*
X932370Y16200D02*
X932370Y9200D01*
X932370Y16200D02*
X939370Y16200D01*
X939370Y9200D01*
X932370Y9200D01*
X932370Y12050D02*
X939370Y12050D01*
X939370Y14900D02*
X932370Y14900D01*
X914830Y16200D02*
X914830Y9200D01*
X914830Y16200D02*
X921830Y16200D01*
X921830Y9200D01*
X914830Y9200D01*
X914830Y12050D02*
X921830Y12050D01*
X921830Y14900D02*
X914830Y14900D01*
X1063300Y210630D02*
X1070300Y210630D01*
X1070300Y203630D01*
X1063300Y203630D01*
X1063300Y210630D01*
X1063300Y206480D02*
X1070300Y206480D01*
X1070300Y209330D02*
X1063300Y209330D01*
X1063300Y228170D02*
X1070300Y228170D01*
X1070300Y221170D01*
X1063300Y221170D01*
X1063300Y228170D01*
X1063300Y224020D02*
X1070300Y224020D01*
X1070300Y226870D02*
X1063300Y226870D01*
X613100Y210630D02*
X606100Y210630D01*
X613100Y210630D02*
X613100Y203630D01*
X606100Y203630D01*
X606100Y210630D01*
X606100Y206480D02*
X613100Y206480D01*
X613100Y209330D02*
X606100Y209330D01*
X606100Y228170D02*
X613100Y228170D01*
X613100Y221170D01*
X606100Y221170D01*
X606100Y228170D01*
X606100Y224020D02*
X613100Y224020D01*
X613100Y226870D02*
X606100Y226870D01*
X155900Y210630D02*
X148900Y210630D01*
X155900Y210630D02*
X155900Y203630D01*
X148900Y203630D01*
X148900Y210630D01*
X148900Y206480D02*
X155900Y206480D01*
X155900Y209330D02*
X148900Y209330D01*
X148900Y228170D02*
X155900Y228170D01*
X155900Y221170D01*
X148900Y221170D01*
X148900Y228170D01*
X148900Y224020D02*
X155900Y224020D01*
X155900Y226870D02*
X148900Y226870D01*
D12*
X1840150Y99000D03*
X1840150Y155000D03*
D13*
X1803400Y112000D03*
X1803400Y122000D03*
X1803400Y132000D03*
X1803400Y142000D03*
D12*
X14050Y155000D03*
X14050Y99000D03*
D13*
X50800Y142000D03*
X50800Y132000D03*
X50800Y122000D03*
X50800Y112000D03*
D14*
X1527200Y167800D03*
X1546200Y167800D03*
X1536700Y188800D03*
X1070000Y167800D03*
X1089000Y167800D03*
X1079500Y188800D03*
X612800Y167800D03*
X631800Y167800D03*
X622300Y188800D03*
X155600Y167800D03*
X174600Y167800D03*
X165100Y188800D03*
D15*
X1498600Y224400D03*
X1498600Y207400D03*
X127000Y224400D03*
X127000Y207400D03*
D10*
X935600Y38100D03*
X918600Y38100D03*
D15*
X177800Y207400D03*
X177800Y224400D03*
X127000Y169300D03*
X127000Y186300D03*
D10*
X334400Y152400D03*
X351400Y152400D03*
D15*
X1549400Y207400D03*
X1549400Y224400D03*
X1498600Y169300D03*
X1498600Y186300D03*
X1041400Y224400D03*
X1041400Y207400D03*
X1092200Y207400D03*
X1092200Y224400D03*
X1041400Y169300D03*
X1041400Y186300D03*
X584200Y224400D03*
X584200Y207400D03*
X635000Y207400D03*
X635000Y224400D03*
X584200Y169300D03*
X584200Y186300D03*
D16*
X314900Y114300D03*
X314900Y101600D03*
X314900Y88900D03*
X314900Y76200D03*
X314900Y63500D03*
X314900Y50800D03*
X314900Y38100D03*
X370900Y38100D03*
X370900Y50800D03*
X370900Y63500D03*
X370900Y76200D03*
X370900Y88900D03*
X370900Y101600D03*
X370900Y114300D03*
D15*
X95250Y122800D03*
X95250Y105800D03*
X158750Y122800D03*
X158750Y105800D03*
D10*
X334400Y1052830D03*
X351400Y1052830D03*
D11*
X1520500Y1130110D02*
X1527500Y1130110D01*
X1527500Y1123110D01*
X1520500Y1123110D01*
X1520500Y1130110D01*
X1520500Y1125960D02*
X1527500Y1125960D01*
X1527500Y1128810D02*
X1520500Y1128810D01*
X1520500Y1147650D02*
X1527500Y1147650D01*
X1527500Y1140650D01*
X1520500Y1140650D01*
X1520500Y1147650D01*
X1520500Y1143500D02*
X1527500Y1143500D01*
X1527500Y1146350D02*
X1520500Y1146350D01*
X932370Y935680D02*
X932370Y928680D01*
X932370Y935680D02*
X939370Y935680D01*
X939370Y928680D01*
X932370Y928680D01*
X932370Y931530D02*
X939370Y931530D01*
X939370Y934380D02*
X932370Y934380D01*
X914830Y935680D02*
X914830Y928680D01*
X914830Y935680D02*
X921830Y935680D01*
X921830Y928680D01*
X914830Y928680D01*
X914830Y931530D02*
X921830Y931530D01*
X921830Y934380D02*
X914830Y934380D01*
X1063300Y1130110D02*
X1070300Y1130110D01*
X1070300Y1123110D01*
X1063300Y1123110D01*
X1063300Y1130110D01*
X1063300Y1125960D02*
X1070300Y1125960D01*
X1070300Y1128810D02*
X1063300Y1128810D01*
X1063300Y1147650D02*
X1070300Y1147650D01*
X1070300Y1140650D01*
X1063300Y1140650D01*
X1063300Y1147650D01*
X1063300Y1143500D02*
X1070300Y1143500D01*
X1070300Y1146350D02*
X1063300Y1146350D01*
X613100Y1130110D02*
X606100Y1130110D01*
X613100Y1130110D02*
X613100Y1123110D01*
X606100Y1123110D01*
X606100Y1130110D01*
X606100Y1125960D02*
X613100Y1125960D01*
X613100Y1128810D02*
X606100Y1128810D01*
X606100Y1147650D02*
X613100Y1147650D01*
X613100Y1140650D01*
X606100Y1140650D01*
X606100Y1147650D01*
X606100Y1143500D02*
X613100Y1143500D01*
X613100Y1146350D02*
X606100Y1146350D01*
X155900Y1130110D02*
X148900Y1130110D01*
X155900Y1130110D02*
X155900Y1123110D01*
X148900Y1123110D01*
X148900Y1130110D01*
X148900Y1125960D02*
X155900Y1125960D01*
X155900Y1128810D02*
X148900Y1128810D01*
X148900Y1147650D02*
X155900Y1147650D01*
X155900Y1140650D01*
X148900Y1140650D01*
X148900Y1147650D01*
X148900Y1143500D02*
X155900Y1143500D01*
X155900Y1146350D02*
X148900Y1146350D01*
D12*
X1840150Y1018480D03*
X1840150Y1074480D03*
D13*
X1803400Y1031480D03*
X1803400Y1041480D03*
X1803400Y1051480D03*
X1803400Y1061480D03*
D12*
X14050Y1074480D03*
X14050Y1018480D03*
D13*
X50800Y1061480D03*
X50800Y1051480D03*
X50800Y1041480D03*
X50800Y1031480D03*
D14*
X1527200Y1087280D03*
X1546200Y1087280D03*
X1536700Y1108280D03*
X1070000Y1087280D03*
X1089000Y1087280D03*
X1079500Y1108280D03*
X612800Y1087280D03*
X631800Y1087280D03*
X622300Y1108280D03*
X155600Y1087280D03*
X174600Y1087280D03*
X165100Y1108280D03*
D15*
X1498600Y1143880D03*
X1498600Y1126880D03*
X127000Y1143880D03*
X127000Y1126880D03*
D10*
X935600Y957580D03*
X918600Y957580D03*
D15*
X177800Y1126880D03*
X177800Y1143880D03*
X127000Y1088780D03*
X127000Y1105780D03*
D10*
X334400Y1071880D03*
X351400Y1071880D03*
D15*
X1549400Y1126880D03*
X1549400Y1143880D03*
X1498600Y1088780D03*
X1498600Y1105780D03*
X1041400Y1143880D03*
X1041400Y1126880D03*
X1092200Y1126880D03*
X1092200Y1143880D03*
X1041400Y1088780D03*
X1041400Y1105780D03*
X584200Y1143880D03*
X584200Y1126880D03*
X635000Y1126880D03*
X635000Y1143880D03*
X584200Y1088780D03*
X584200Y1105780D03*
D16*
X314900Y1033780D03*
X314900Y1021080D03*
X314900Y1008380D03*
X314900Y995680D03*
X314900Y982980D03*
X314900Y970280D03*
X314900Y957580D03*
X370900Y957580D03*
X370900Y970280D03*
X370900Y982980D03*
X370900Y995680D03*
X370900Y1008380D03*
X370900Y1021080D03*
X370900Y1033780D03*
D15*
X95250Y1042280D03*
X95250Y1025280D03*
X158750Y1042280D03*
X158750Y1025280D03*
M02*
