G04 EAGLE Gerber RS-274X export*
G75*
%MOMM*%
%FSLAX34Y34*%
%LPD*%
%INSilkscreen Bottom*%
%IPPOS*%
%AMOC8*
5,1,8,0,0,1.08239X$1,22.5*%
G01*
%ADD10C,0.203200*%
%ADD11R,0.900000X0.180000*%
%ADD12R,0.720000X0.180000*%
%ADD13R,1.080000X0.180000*%
%ADD14R,1.260000X0.180000*%
%ADD15R,1.620000X0.180000*%
%ADD16R,2.160000X0.180000*%
%ADD17R,1.980000X0.180000*%
%ADD18R,0.360000X0.180000*%
%ADD19R,2.700000X0.180000*%
%ADD20R,2.520000X0.180000*%
%ADD21R,3.060000X0.180000*%
%ADD22R,3.240000X0.180000*%
%ADD23R,2.880000X0.180000*%
%ADD24R,3.600000X0.180000*%
%ADD25R,3.420000X0.180000*%
%ADD26R,3.960000X0.180000*%
%ADD27R,1.440000X0.180000*%
%ADD28R,2.340000X0.180000*%
%ADD29R,1.800000X0.180000*%
%ADD30R,3.780000X0.180000*%
%ADD31R,0.540000X0.180000*%
%ADD32R,4.500000X0.180000*%
%ADD33R,4.320000X0.180000*%
%ADD34R,4.140000X0.180000*%
%ADD35R,0.180000X0.180000*%
%ADD36R,0.040000X3.880000*%
%ADD37R,0.040000X0.840000*%
%ADD38R,0.040000X2.800000*%
%ADD39R,0.040000X0.760000*%
%ADD40R,0.040000X0.320000*%
%ADD41R,0.040000X0.480000*%
%ADD42R,0.040000X0.160000*%
%ADD43R,0.040000X0.680000*%
%ADD44R,0.040000X0.200000*%
%ADD45R,0.040000X0.400000*%
%ADD46R,0.040000X0.120000*%
%ADD47R,0.040000X0.640000*%
%ADD48R,0.040000X0.360000*%
%ADD49R,0.040000X0.560000*%
%ADD50R,0.040000X0.600000*%
%ADD51R,0.040000X0.520000*%
%ADD52R,0.040000X0.280000*%
%ADD53R,0.040000X0.240000*%
%ADD54R,0.040000X0.720000*%
%ADD55R,0.040000X0.440000*%
%ADD56R,0.040000X0.040000*%
%ADD57R,0.040000X0.080000*%
%ADD58R,0.040000X0.800000*%
%ADD59R,0.040000X3.640000*%
%ADD60R,0.040000X1.800000*%
%ADD61R,0.040000X0.880000*%
%ADD62R,0.040000X3.080000*%
%ADD63R,0.040000X3.320000*%
%ADD64R,0.040000X3.480000*%
%ADD65R,0.040000X3.720000*%
%ADD66R,0.040000X3.800000*%
%ADD67R,0.040000X0.960000*%
%ADD68R,0.040000X1.240000*%
%ADD69R,0.040000X1.280000*%
%ADD70R,0.040000X1.320000*%
%ADD71R,0.040000X0.920000*%
%ADD72R,0.040000X1.000000*%
%ADD73R,0.040000X1.080000*%
%ADD74R,0.040000X3.560000*%
%ADD75R,0.040000X3.960000*%
%ADD76R,0.040000X4.040000*%
%ADD77R,0.040000X4.120000*%
%ADD78R,0.040000X3.040000*%
%ADD79R,0.040000X1.160000*%
%ADD80R,0.040000X1.120000*%
%ADD81R,0.040000X1.040000*%
%ADD82R,0.040000X1.360000*%
%ADD83R,0.040000X2.520000*%
%ADD84R,0.040000X2.600000*%
%ADD85R,0.040000X2.760000*%
%ADD86R,0.040000X2.840000*%
%ADD87R,0.040000X3.400000*%
%ADD88R,0.040000X2.920000*%

G36*
X1288007Y1351248D02*
X1288007Y1351248D01*
X1288033Y1351243D01*
X1292833Y1355543D01*
X1297733Y1359843D01*
X1302533Y1364143D01*
X1307333Y1368443D01*
X1312233Y1372743D01*
X1312233Y1372744D01*
X1317033Y1377143D01*
X1321933Y1381443D01*
X1326733Y1385743D01*
X1326738Y1385772D01*
X1326749Y1385780D01*
X1326749Y1569880D01*
X1326713Y1569927D01*
X1326710Y1569925D01*
X1326708Y1569929D01*
X1312908Y1572329D01*
X1308309Y1573128D01*
X1303709Y1574028D01*
X1303708Y1574029D01*
X1289908Y1576429D01*
X1289856Y1576401D01*
X1289862Y1576389D01*
X1289851Y1576380D01*
X1289851Y1558429D01*
X1289625Y1558429D01*
X1285840Y1563709D01*
X1285835Y1563710D01*
X1285836Y1563714D01*
X1281536Y1568214D01*
X1281531Y1568215D01*
X1281531Y1568218D01*
X1276831Y1572018D01*
X1276825Y1572019D01*
X1276825Y1572023D01*
X1271625Y1575023D01*
X1271620Y1575022D01*
X1271619Y1575025D01*
X1266119Y1577325D01*
X1266114Y1577324D01*
X1266113Y1577328D01*
X1260213Y1578928D01*
X1260209Y1578926D01*
X1260208Y1578929D01*
X1254108Y1579929D01*
X1254104Y1579927D01*
X1254102Y1579929D01*
X1247602Y1580229D01*
X1247601Y1580228D01*
X1247600Y1580229D01*
X1245600Y1580229D01*
X1245596Y1580227D01*
X1245594Y1580229D01*
X1232194Y1578629D01*
X1232191Y1578626D01*
X1232189Y1578628D01*
X1230389Y1578228D01*
X1230386Y1578224D01*
X1230383Y1578226D01*
X1218983Y1574026D01*
X1218980Y1574022D01*
X1218977Y1574023D01*
X1217477Y1573223D01*
X1217475Y1573220D01*
X1217473Y1573221D01*
X1207873Y1566821D01*
X1207871Y1566816D01*
X1207867Y1566816D01*
X1206667Y1565716D01*
X1206666Y1565713D01*
X1206664Y1565713D01*
X1198964Y1557313D01*
X1198963Y1557310D01*
X1198961Y1557310D01*
X1197961Y1556010D01*
X1197961Y1556005D01*
X1197957Y1556005D01*
X1192157Y1546005D01*
X1192158Y1546003D01*
X1192157Y1546003D01*
X1191357Y1544503D01*
X1191357Y1544501D01*
X1191357Y1544498D01*
X1191354Y1544497D01*
X1187254Y1533097D01*
X1187255Y1533093D01*
X1187252Y1533092D01*
X1186852Y1531492D01*
X1186853Y1531490D01*
X1186852Y1531489D01*
X1184452Y1519189D01*
X1184452Y1519188D01*
X1184451Y1519188D01*
X1184151Y1517288D01*
X1184153Y1517284D01*
X1184151Y1517283D01*
X1183451Y1504383D01*
X1183484Y1504333D01*
X1183494Y1504340D01*
X1183501Y1504331D01*
X1183551Y1504332D01*
X1183551Y1502580D01*
X1183552Y1502578D01*
X1183551Y1502576D01*
X1184451Y1490376D01*
X1184453Y1490374D01*
X1184452Y1490371D01*
X1184752Y1488671D01*
X1184753Y1488670D01*
X1184752Y1488669D01*
X1187352Y1477069D01*
X1187354Y1477067D01*
X1187353Y1477065D01*
X1187853Y1475465D01*
X1187855Y1475464D01*
X1187854Y1475462D01*
X1192154Y1464762D01*
X1192158Y1464760D01*
X1192157Y1464757D01*
X1192957Y1463257D01*
X1192959Y1463256D01*
X1192959Y1463254D01*
X1198959Y1453854D01*
X1198962Y1453852D01*
X1198961Y1453850D01*
X1199961Y1452550D01*
X1199965Y1452549D01*
X1199965Y1452546D01*
X1207665Y1444646D01*
X1207669Y1444645D01*
X1207668Y1444642D01*
X1208868Y1443642D01*
X1208873Y1443642D01*
X1208873Y1443639D01*
X1218273Y1437539D01*
X1218278Y1437539D01*
X1218279Y1437535D01*
X1219779Y1436835D01*
X1219783Y1436836D01*
X1219784Y1436833D01*
X1230884Y1433033D01*
X1230889Y1433035D01*
X1230890Y1433035D01*
X1230891Y1433032D01*
X1232591Y1432732D01*
X1232594Y1432733D01*
X1232595Y1432731D01*
X1245495Y1431531D01*
X1245500Y1431534D01*
X1245502Y1431531D01*
X1251802Y1431831D01*
X1251806Y1431834D01*
X1251808Y1431831D01*
X1258008Y1432831D01*
X1258011Y1432835D01*
X1258014Y1432833D01*
X1263914Y1434533D01*
X1263916Y1434536D01*
X1263919Y1434535D01*
X1269519Y1436935D01*
X1269522Y1436939D01*
X1269525Y1436937D01*
X1274725Y1439937D01*
X1274727Y1439942D01*
X1274730Y1439941D01*
X1279530Y1443641D01*
X1279531Y1443645D01*
X1279534Y1443644D01*
X1283934Y1447844D01*
X1283935Y1447849D01*
X1283939Y1447849D01*
X1287824Y1452731D01*
X1287951Y1452731D01*
X1287951Y1351280D01*
X1287958Y1351270D01*
X1287956Y1351258D01*
X1287969Y1351256D01*
X1287987Y1351233D01*
X1288007Y1351248D01*
G37*
G36*
X1288007Y431768D02*
X1288007Y431768D01*
X1288033Y431763D01*
X1292833Y436063D01*
X1297733Y440363D01*
X1302533Y444663D01*
X1307333Y448963D01*
X1312233Y453263D01*
X1312233Y453264D01*
X1317033Y457663D01*
X1321933Y461963D01*
X1326733Y466263D01*
X1326738Y466292D01*
X1326749Y466300D01*
X1326749Y650400D01*
X1326713Y650447D01*
X1326710Y650445D01*
X1326708Y650449D01*
X1312908Y652849D01*
X1308309Y653648D01*
X1303709Y654548D01*
X1303708Y654549D01*
X1289908Y656949D01*
X1289856Y656921D01*
X1289862Y656909D01*
X1289851Y656900D01*
X1289851Y638949D01*
X1289625Y638949D01*
X1285840Y644229D01*
X1285835Y644230D01*
X1285836Y644234D01*
X1281536Y648734D01*
X1281531Y648735D01*
X1281531Y648738D01*
X1276831Y652538D01*
X1276825Y652539D01*
X1276825Y652543D01*
X1271625Y655543D01*
X1271620Y655542D01*
X1271619Y655545D01*
X1266119Y657845D01*
X1266114Y657844D01*
X1266113Y657848D01*
X1260213Y659448D01*
X1260209Y659446D01*
X1260208Y659449D01*
X1254108Y660449D01*
X1254104Y660447D01*
X1254102Y660449D01*
X1247602Y660749D01*
X1247601Y660748D01*
X1247600Y660749D01*
X1245600Y660749D01*
X1245596Y660747D01*
X1245594Y660749D01*
X1232194Y659149D01*
X1232191Y659146D01*
X1232189Y659148D01*
X1230389Y658748D01*
X1230386Y658744D01*
X1230383Y658746D01*
X1218983Y654546D01*
X1218980Y654542D01*
X1218977Y654543D01*
X1217477Y653743D01*
X1217475Y653740D01*
X1217473Y653741D01*
X1207873Y647341D01*
X1207871Y647336D01*
X1207867Y647336D01*
X1206667Y646236D01*
X1206666Y646233D01*
X1206664Y646233D01*
X1198964Y637833D01*
X1198963Y637830D01*
X1198961Y637830D01*
X1197961Y636530D01*
X1197961Y636525D01*
X1197957Y636525D01*
X1192157Y626525D01*
X1192158Y626523D01*
X1192157Y626523D01*
X1191357Y625023D01*
X1191357Y625021D01*
X1191357Y625018D01*
X1191354Y625017D01*
X1187254Y613617D01*
X1187255Y613613D01*
X1187252Y613612D01*
X1186852Y612012D01*
X1186853Y612010D01*
X1186852Y612009D01*
X1184452Y599709D01*
X1184452Y599708D01*
X1184451Y599708D01*
X1184151Y597808D01*
X1184153Y597804D01*
X1184151Y597803D01*
X1183451Y584903D01*
X1183484Y584853D01*
X1183494Y584860D01*
X1183501Y584851D01*
X1183551Y584852D01*
X1183551Y583100D01*
X1183552Y583098D01*
X1183551Y583096D01*
X1184451Y570896D01*
X1184453Y570894D01*
X1184452Y570891D01*
X1184752Y569191D01*
X1184753Y569190D01*
X1184752Y569189D01*
X1187352Y557589D01*
X1187354Y557587D01*
X1187353Y557585D01*
X1187853Y555985D01*
X1187855Y555984D01*
X1187854Y555982D01*
X1192154Y545282D01*
X1192158Y545280D01*
X1192157Y545277D01*
X1192957Y543777D01*
X1192959Y543776D01*
X1192959Y543774D01*
X1198959Y534374D01*
X1198962Y534372D01*
X1198961Y534370D01*
X1199961Y533070D01*
X1199965Y533069D01*
X1199965Y533066D01*
X1207665Y525166D01*
X1207669Y525165D01*
X1207668Y525162D01*
X1208868Y524162D01*
X1208873Y524162D01*
X1208873Y524159D01*
X1218273Y518059D01*
X1218278Y518059D01*
X1218279Y518055D01*
X1219779Y517355D01*
X1219783Y517356D01*
X1219784Y517353D01*
X1230884Y513553D01*
X1230889Y513555D01*
X1230890Y513555D01*
X1230891Y513552D01*
X1232591Y513252D01*
X1232594Y513253D01*
X1232595Y513251D01*
X1245495Y512051D01*
X1245500Y512054D01*
X1245502Y512051D01*
X1251802Y512351D01*
X1251806Y512354D01*
X1251808Y512351D01*
X1258008Y513351D01*
X1258011Y513355D01*
X1258014Y513353D01*
X1263914Y515053D01*
X1263916Y515056D01*
X1263919Y515055D01*
X1269519Y517455D01*
X1269522Y517459D01*
X1269525Y517457D01*
X1274725Y520457D01*
X1274727Y520462D01*
X1274730Y520461D01*
X1279530Y524161D01*
X1279531Y524165D01*
X1279534Y524164D01*
X1283934Y528364D01*
X1283935Y528369D01*
X1283939Y528369D01*
X1287824Y533251D01*
X1287951Y533251D01*
X1287951Y431800D01*
X1287958Y431790D01*
X1287956Y431778D01*
X1287969Y431776D01*
X1287987Y431753D01*
X1288007Y431768D01*
G37*
G36*
X1129303Y1431233D02*
X1129303Y1431233D01*
X1129304Y1431231D01*
X1134104Y1431631D01*
X1134107Y1431633D01*
X1134108Y1431631D01*
X1138808Y1432431D01*
X1138811Y1432434D01*
X1138813Y1432433D01*
X1143213Y1433633D01*
X1143214Y1433634D01*
X1143216Y1433633D01*
X1147416Y1435033D01*
X1147418Y1435036D01*
X1147420Y1435035D01*
X1151420Y1436835D01*
X1151422Y1436839D01*
X1151425Y1436837D01*
X1155025Y1438937D01*
X1155026Y1438941D01*
X1155028Y1438940D01*
X1158428Y1441340D01*
X1158430Y1441344D01*
X1158433Y1441343D01*
X1161533Y1444143D01*
X1161534Y1444148D01*
X1161537Y1444148D01*
X1164237Y1447248D01*
X1164237Y1447252D01*
X1164241Y1447252D01*
X1166641Y1450752D01*
X1166640Y1450757D01*
X1166644Y1450757D01*
X1168644Y1454557D01*
X1168643Y1454561D01*
X1168645Y1454562D01*
X1168646Y1454562D01*
X1170246Y1458762D01*
X1170245Y1458767D01*
X1170248Y1458768D01*
X1171348Y1463268D01*
X1171346Y1463272D01*
X1171349Y1463273D01*
X1172049Y1468173D01*
X1172047Y1468176D01*
X1172049Y1468177D01*
X1172349Y1473377D01*
X1172348Y1473379D01*
X1172349Y1473380D01*
X1172349Y1474880D01*
X1172347Y1474884D01*
X1172349Y1474886D01*
X1171249Y1484286D01*
X1171243Y1484292D01*
X1171247Y1484296D01*
X1168147Y1493196D01*
X1168139Y1493201D01*
X1168141Y1493207D01*
X1163441Y1500207D01*
X1163432Y1500211D01*
X1163432Y1500217D01*
X1157232Y1505617D01*
X1157225Y1505618D01*
X1157224Y1505623D01*
X1150024Y1509723D01*
X1150019Y1509722D01*
X1150017Y1509726D01*
X1142017Y1512726D01*
X1142013Y1512725D01*
X1142012Y1512728D01*
X1133412Y1514828D01*
X1133409Y1514827D01*
X1133408Y1514829D01*
X1124608Y1516329D01*
X1124607Y1516328D01*
X1124606Y1516329D01*
X1115806Y1517429D01*
X1107406Y1518429D01*
X1099509Y1519528D01*
X1092514Y1521227D01*
X1086622Y1523225D01*
X1082135Y1526116D01*
X1079447Y1529999D01*
X1078649Y1535183D01*
X1078749Y1538075D01*
X1079148Y1540670D01*
X1079747Y1542965D01*
X1080544Y1545058D01*
X1081640Y1546851D01*
X1082936Y1548346D01*
X1084431Y1549741D01*
X1086025Y1550837D01*
X1087821Y1551735D01*
X1089716Y1552533D01*
X1091811Y1553132D01*
X1094008Y1553531D01*
X1096306Y1553831D01*
X1098603Y1554131D01*
X1106397Y1554131D01*
X1108994Y1553831D01*
X1111491Y1553432D01*
X1113787Y1552932D01*
X1115982Y1552234D01*
X1117978Y1551336D01*
X1119875Y1550337D01*
X1121570Y1549241D01*
X1123065Y1547846D01*
X1124462Y1546249D01*
X1125758Y1544554D01*
X1126755Y1542559D01*
X1127654Y1540463D01*
X1128352Y1538068D01*
X1128851Y1535572D01*
X1129251Y1532873D01*
X1129294Y1532831D01*
X1129297Y1532835D01*
X1129300Y1532831D01*
X1168000Y1532831D01*
X1168047Y1532867D01*
X1168046Y1532869D01*
X1168047Y1532869D01*
X1168041Y1532878D01*
X1168049Y1532886D01*
X1167249Y1539286D01*
X1167246Y1539289D01*
X1167248Y1539291D01*
X1165848Y1545191D01*
X1165844Y1545194D01*
X1165846Y1545197D01*
X1163846Y1550597D01*
X1163841Y1550600D01*
X1163843Y1550604D01*
X1161143Y1555404D01*
X1161139Y1555406D01*
X1161140Y1555408D01*
X1158040Y1559808D01*
X1158035Y1559810D01*
X1158036Y1559814D01*
X1154436Y1563614D01*
X1154431Y1563615D01*
X1154431Y1563618D01*
X1150331Y1567018D01*
X1150327Y1567018D01*
X1150327Y1567021D01*
X1145927Y1569921D01*
X1145924Y1569921D01*
X1145923Y1569923D01*
X1141123Y1572523D01*
X1141120Y1572523D01*
X1141119Y1572526D01*
X1136019Y1574626D01*
X1136016Y1574625D01*
X1136015Y1574627D01*
X1130615Y1576327D01*
X1130613Y1576326D01*
X1130612Y1576328D01*
X1125112Y1577728D01*
X1125110Y1577727D01*
X1125109Y1577728D01*
X1119409Y1578828D01*
X1119407Y1578827D01*
X1119406Y1578829D01*
X1113506Y1579529D01*
X1113504Y1579528D01*
X1113503Y1579529D01*
X1107603Y1579929D01*
X1107601Y1579928D01*
X1107600Y1579929D01*
X1096300Y1579929D01*
X1096298Y1579928D01*
X1096297Y1579929D01*
X1090897Y1579629D01*
X1090896Y1579628D01*
X1090895Y1579629D01*
X1085495Y1579129D01*
X1085494Y1579129D01*
X1085494Y1579128D01*
X1085494Y1579129D01*
X1080094Y1578429D01*
X1080092Y1578427D01*
X1080091Y1578428D01*
X1074891Y1577428D01*
X1074890Y1577427D01*
X1074889Y1577428D01*
X1069689Y1576228D01*
X1069687Y1576225D01*
X1069685Y1576227D01*
X1064785Y1574627D01*
X1064783Y1574624D01*
X1064780Y1574625D01*
X1060180Y1572625D01*
X1060179Y1572622D01*
X1060176Y1572623D01*
X1055776Y1570223D01*
X1055775Y1570219D01*
X1055771Y1570220D01*
X1051871Y1567420D01*
X1051870Y1567416D01*
X1051867Y1567416D01*
X1048367Y1564216D01*
X1048366Y1564210D01*
X1048361Y1564210D01*
X1045461Y1560410D01*
X1045461Y1560405D01*
X1045457Y1560405D01*
X1042957Y1556105D01*
X1042958Y1556099D01*
X1042954Y1556097D01*
X1041154Y1551297D01*
X1041156Y1551292D01*
X1041152Y1551290D01*
X1040052Y1545890D01*
X1040054Y1545885D01*
X1040051Y1545883D01*
X1039651Y1539883D01*
X1039652Y1539881D01*
X1039651Y1539880D01*
X1039651Y1461681D01*
X1039551Y1459282D01*
X1039552Y1459281D01*
X1039551Y1459280D01*
X1039551Y1456981D01*
X1039451Y1454683D01*
X1039251Y1452386D01*
X1038951Y1450287D01*
X1038651Y1448088D01*
X1038252Y1446090D01*
X1038252Y1446088D01*
X1038251Y1446088D01*
X1037952Y1444189D01*
X1037552Y1442292D01*
X1037053Y1440594D01*
X1037053Y1440592D01*
X1037052Y1440592D01*
X1036653Y1438996D01*
X1036055Y1437599D01*
X1035456Y1436302D01*
X1034856Y1435102D01*
X1034857Y1435097D01*
X1034853Y1435093D01*
X1034859Y1435085D01*
X1034867Y1435044D01*
X1034887Y1435047D01*
X1034900Y1435031D01*
X1074100Y1435031D01*
X1074140Y1435061D01*
X1074146Y1435063D01*
X1074446Y1435863D01*
X1074446Y1435864D01*
X1074447Y1435864D01*
X1074746Y1436763D01*
X1075346Y1438363D01*
X1075346Y1438364D01*
X1075347Y1438364D01*
X1075647Y1439264D01*
X1075646Y1439267D01*
X1075648Y1439268D01*
X1075848Y1440068D01*
X1075847Y1440069D01*
X1075848Y1440069D01*
X1076048Y1440968D01*
X1076248Y1441768D01*
X1076247Y1441769D01*
X1076248Y1441769D01*
X1076448Y1442669D01*
X1076446Y1442673D01*
X1076449Y1442675D01*
X1076549Y1443575D01*
X1076649Y1444474D01*
X1076749Y1445274D01*
X1076747Y1445278D01*
X1076749Y1445280D01*
X1076749Y1446177D01*
X1076849Y1447075D01*
X1076847Y1447078D01*
X1076849Y1447080D01*
X1076849Y1447877D01*
X1076938Y1448673D01*
X1079165Y1446445D01*
X1079168Y1446445D01*
X1079168Y1446442D01*
X1081668Y1444342D01*
X1081671Y1444342D01*
X1081671Y1444340D01*
X1084271Y1442440D01*
X1084273Y1442440D01*
X1084273Y1442439D01*
X1086973Y1440639D01*
X1086975Y1440639D01*
X1086976Y1440637D01*
X1089776Y1439037D01*
X1089778Y1439038D01*
X1089778Y1439036D01*
X1092578Y1437636D01*
X1092580Y1437636D01*
X1092580Y1437635D01*
X1095580Y1436335D01*
X1095583Y1436335D01*
X1095583Y1436334D01*
X1098583Y1435234D01*
X1098585Y1435234D01*
X1098585Y1435233D01*
X1101685Y1434233D01*
X1101687Y1434234D01*
X1101688Y1434232D01*
X1104788Y1433432D01*
X1104789Y1433433D01*
X1104789Y1433432D01*
X1107989Y1432732D01*
X1107992Y1432733D01*
X1107992Y1432731D01*
X1111192Y1432231D01*
X1111194Y1432232D01*
X1111194Y1432231D01*
X1117794Y1431431D01*
X1117796Y1431432D01*
X1117797Y1431431D01*
X1120997Y1431231D01*
X1120999Y1431232D01*
X1121000Y1431231D01*
X1129300Y1431231D01*
X1129303Y1431233D01*
G37*
G36*
X1129303Y511753D02*
X1129303Y511753D01*
X1129304Y511751D01*
X1134104Y512151D01*
X1134107Y512153D01*
X1134108Y512151D01*
X1138808Y512951D01*
X1138811Y512954D01*
X1138813Y512953D01*
X1143213Y514153D01*
X1143214Y514154D01*
X1143216Y514153D01*
X1147416Y515553D01*
X1147418Y515556D01*
X1147420Y515555D01*
X1151420Y517355D01*
X1151422Y517359D01*
X1151425Y517357D01*
X1155025Y519457D01*
X1155026Y519461D01*
X1155028Y519460D01*
X1158428Y521860D01*
X1158430Y521864D01*
X1158433Y521863D01*
X1161533Y524663D01*
X1161534Y524668D01*
X1161537Y524668D01*
X1164237Y527768D01*
X1164237Y527772D01*
X1164241Y527772D01*
X1166641Y531272D01*
X1166640Y531277D01*
X1166644Y531277D01*
X1168644Y535077D01*
X1168643Y535081D01*
X1168645Y535082D01*
X1168646Y535082D01*
X1170246Y539282D01*
X1170245Y539287D01*
X1170248Y539288D01*
X1171348Y543788D01*
X1171346Y543792D01*
X1171349Y543793D01*
X1172049Y548693D01*
X1172047Y548696D01*
X1172049Y548697D01*
X1172349Y553897D01*
X1172348Y553899D01*
X1172349Y553900D01*
X1172349Y555400D01*
X1172347Y555404D01*
X1172349Y555406D01*
X1171249Y564806D01*
X1171243Y564812D01*
X1171247Y564816D01*
X1168147Y573716D01*
X1168139Y573721D01*
X1168141Y573727D01*
X1163441Y580727D01*
X1163432Y580731D01*
X1163432Y580737D01*
X1157232Y586137D01*
X1157225Y586138D01*
X1157224Y586143D01*
X1150024Y590243D01*
X1150019Y590242D01*
X1150017Y590246D01*
X1142017Y593246D01*
X1142013Y593245D01*
X1142012Y593248D01*
X1133412Y595348D01*
X1133409Y595347D01*
X1133408Y595349D01*
X1124608Y596849D01*
X1124607Y596848D01*
X1124606Y596849D01*
X1115806Y597949D01*
X1107406Y598949D01*
X1099509Y600048D01*
X1092514Y601747D01*
X1086622Y603745D01*
X1082135Y606636D01*
X1079447Y610519D01*
X1078649Y615703D01*
X1078749Y618595D01*
X1079148Y621190D01*
X1079747Y623485D01*
X1080544Y625578D01*
X1081640Y627371D01*
X1082936Y628866D01*
X1084431Y630261D01*
X1086025Y631357D01*
X1087821Y632255D01*
X1089716Y633053D01*
X1091811Y633652D01*
X1094008Y634051D01*
X1096306Y634351D01*
X1098603Y634651D01*
X1106397Y634651D01*
X1108994Y634351D01*
X1111491Y633952D01*
X1113787Y633452D01*
X1115982Y632754D01*
X1117978Y631856D01*
X1119875Y630857D01*
X1121570Y629761D01*
X1123065Y628366D01*
X1124462Y626769D01*
X1125758Y625074D01*
X1126755Y623079D01*
X1127654Y620983D01*
X1128352Y618588D01*
X1128851Y616092D01*
X1129251Y613393D01*
X1129294Y613351D01*
X1129297Y613355D01*
X1129300Y613351D01*
X1168000Y613351D01*
X1168047Y613387D01*
X1168046Y613389D01*
X1168047Y613389D01*
X1168041Y613398D01*
X1168049Y613406D01*
X1167249Y619806D01*
X1167246Y619809D01*
X1167248Y619811D01*
X1165848Y625711D01*
X1165844Y625714D01*
X1165846Y625717D01*
X1163846Y631117D01*
X1163841Y631120D01*
X1163843Y631124D01*
X1161143Y635924D01*
X1161139Y635926D01*
X1161140Y635928D01*
X1158040Y640328D01*
X1158035Y640330D01*
X1158036Y640334D01*
X1154436Y644134D01*
X1154431Y644135D01*
X1154431Y644138D01*
X1150331Y647538D01*
X1150327Y647538D01*
X1150327Y647541D01*
X1145927Y650441D01*
X1145924Y650441D01*
X1145923Y650443D01*
X1141123Y653043D01*
X1141120Y653043D01*
X1141119Y653046D01*
X1136019Y655146D01*
X1136016Y655145D01*
X1136015Y655147D01*
X1130615Y656847D01*
X1130613Y656846D01*
X1130612Y656848D01*
X1125112Y658248D01*
X1125110Y658247D01*
X1125109Y658248D01*
X1119409Y659348D01*
X1119407Y659347D01*
X1119406Y659349D01*
X1113506Y660049D01*
X1113504Y660048D01*
X1113503Y660049D01*
X1107603Y660449D01*
X1107601Y660448D01*
X1107600Y660449D01*
X1096300Y660449D01*
X1096298Y660448D01*
X1096297Y660449D01*
X1090897Y660149D01*
X1090896Y660148D01*
X1090895Y660149D01*
X1085495Y659649D01*
X1085494Y659649D01*
X1085494Y659648D01*
X1085494Y659649D01*
X1080094Y658949D01*
X1080092Y658947D01*
X1080091Y658948D01*
X1074891Y657948D01*
X1074890Y657947D01*
X1074889Y657948D01*
X1069689Y656748D01*
X1069687Y656745D01*
X1069685Y656747D01*
X1064785Y655147D01*
X1064783Y655144D01*
X1064780Y655145D01*
X1060180Y653145D01*
X1060179Y653142D01*
X1060176Y653143D01*
X1055776Y650743D01*
X1055775Y650739D01*
X1055771Y650740D01*
X1051871Y647940D01*
X1051870Y647936D01*
X1051867Y647936D01*
X1048367Y644736D01*
X1048366Y644730D01*
X1048361Y644730D01*
X1045461Y640930D01*
X1045461Y640925D01*
X1045457Y640925D01*
X1042957Y636625D01*
X1042958Y636619D01*
X1042954Y636617D01*
X1041154Y631817D01*
X1041156Y631812D01*
X1041152Y631810D01*
X1040052Y626410D01*
X1040054Y626405D01*
X1040051Y626403D01*
X1039651Y620403D01*
X1039652Y620401D01*
X1039651Y620400D01*
X1039651Y542201D01*
X1039551Y539802D01*
X1039552Y539801D01*
X1039551Y539800D01*
X1039551Y537501D01*
X1039451Y535203D01*
X1039251Y532906D01*
X1038951Y530807D01*
X1038651Y528608D01*
X1038252Y526610D01*
X1038252Y526608D01*
X1038251Y526608D01*
X1037952Y524709D01*
X1037552Y522812D01*
X1037053Y521114D01*
X1037053Y521112D01*
X1037052Y521112D01*
X1036653Y519516D01*
X1036055Y518119D01*
X1035456Y516822D01*
X1034856Y515622D01*
X1034857Y515617D01*
X1034853Y515613D01*
X1034859Y515605D01*
X1034867Y515564D01*
X1034887Y515567D01*
X1034900Y515551D01*
X1074100Y515551D01*
X1074140Y515581D01*
X1074146Y515583D01*
X1074446Y516383D01*
X1074446Y516384D01*
X1074447Y516384D01*
X1074746Y517283D01*
X1075346Y518883D01*
X1075346Y518884D01*
X1075347Y518884D01*
X1075647Y519784D01*
X1075646Y519787D01*
X1075648Y519788D01*
X1075848Y520588D01*
X1075847Y520589D01*
X1075848Y520589D01*
X1076048Y521488D01*
X1076248Y522288D01*
X1076247Y522289D01*
X1076248Y522289D01*
X1076448Y523189D01*
X1076446Y523193D01*
X1076449Y523195D01*
X1076549Y524095D01*
X1076649Y524994D01*
X1076749Y525794D01*
X1076747Y525798D01*
X1076749Y525800D01*
X1076749Y526697D01*
X1076849Y527595D01*
X1076847Y527598D01*
X1076849Y527600D01*
X1076849Y528397D01*
X1076938Y529193D01*
X1079165Y526965D01*
X1079168Y526965D01*
X1079168Y526962D01*
X1081668Y524862D01*
X1081671Y524862D01*
X1081671Y524860D01*
X1084271Y522960D01*
X1084273Y522960D01*
X1084273Y522959D01*
X1086973Y521159D01*
X1086975Y521159D01*
X1086976Y521157D01*
X1089776Y519557D01*
X1089778Y519558D01*
X1089778Y519556D01*
X1092578Y518156D01*
X1092580Y518156D01*
X1092580Y518155D01*
X1095580Y516855D01*
X1095583Y516855D01*
X1095583Y516854D01*
X1098583Y515754D01*
X1098585Y515754D01*
X1098585Y515753D01*
X1101685Y514753D01*
X1101687Y514754D01*
X1101688Y514752D01*
X1104788Y513952D01*
X1104789Y513953D01*
X1104789Y513952D01*
X1107989Y513252D01*
X1107992Y513253D01*
X1107992Y513251D01*
X1111192Y512751D01*
X1111194Y512752D01*
X1111194Y512751D01*
X1117794Y511951D01*
X1117796Y511952D01*
X1117797Y511951D01*
X1120997Y511751D01*
X1120999Y511752D01*
X1121000Y511751D01*
X1129300Y511751D01*
X1129303Y511753D01*
G37*
G36*
X819629Y1435353D02*
X819629Y1435353D01*
X819642Y1435354D01*
X858310Y1498302D01*
X873251Y1483859D01*
X873251Y1435380D01*
X873287Y1435333D01*
X873294Y1435338D01*
X873300Y1435331D01*
X912100Y1435331D01*
X912147Y1435367D01*
X912142Y1435374D01*
X912149Y1435380D01*
X912149Y1608880D01*
X912125Y1608912D01*
X912124Y1608923D01*
X873324Y1630123D01*
X873317Y1630122D01*
X873313Y1630127D01*
X873304Y1630120D01*
X873265Y1630114D01*
X873268Y1630093D01*
X873251Y1630080D01*
X873251Y1525702D01*
X824536Y1576414D01*
X824508Y1576418D01*
X824500Y1576429D01*
X778700Y1576429D01*
X778689Y1576421D01*
X778675Y1576423D01*
X778674Y1576409D01*
X778653Y1576393D01*
X778669Y1576372D01*
X778666Y1576345D01*
X831836Y1524473D01*
X772659Y1435407D01*
X772660Y1435399D01*
X772653Y1435393D01*
X772661Y1435383D01*
X772663Y1435348D01*
X772686Y1435349D01*
X772700Y1435331D01*
X819600Y1435331D01*
X819629Y1435353D01*
G37*
G36*
X819629Y515873D02*
X819629Y515873D01*
X819642Y515874D01*
X858310Y578822D01*
X873251Y564379D01*
X873251Y515900D01*
X873287Y515853D01*
X873294Y515858D01*
X873300Y515851D01*
X912100Y515851D01*
X912147Y515887D01*
X912142Y515894D01*
X912149Y515900D01*
X912149Y689400D01*
X912125Y689432D01*
X912124Y689443D01*
X873324Y710643D01*
X873317Y710642D01*
X873313Y710647D01*
X873304Y710640D01*
X873265Y710634D01*
X873268Y710613D01*
X873251Y710600D01*
X873251Y606222D01*
X824536Y656934D01*
X824508Y656938D01*
X824500Y656949D01*
X778700Y656949D01*
X778689Y656941D01*
X778675Y656943D01*
X778674Y656929D01*
X778653Y656913D01*
X778669Y656892D01*
X778666Y656865D01*
X831836Y604993D01*
X772659Y515927D01*
X772660Y515919D01*
X772653Y515913D01*
X772661Y515903D01*
X772663Y515868D01*
X772686Y515869D01*
X772700Y515851D01*
X819600Y515851D01*
X819629Y515873D01*
G37*
G36*
X425947Y515887D02*
X425947Y515887D01*
X425942Y515894D01*
X425949Y515900D01*
X425949Y595499D01*
X426349Y603695D01*
X427348Y610690D01*
X429046Y616682D01*
X431541Y621572D01*
X434932Y625262D01*
X439221Y627955D01*
X444510Y629651D01*
X450800Y630151D01*
X458091Y629551D01*
X464281Y627854D01*
X469469Y624961D01*
X473560Y620670D01*
X476755Y615180D01*
X478952Y608189D01*
X480251Y599795D01*
X480651Y589799D01*
X480651Y515900D01*
X480687Y515853D01*
X480694Y515858D01*
X480700Y515851D01*
X519500Y515851D01*
X519547Y515887D01*
X519542Y515894D01*
X519549Y515900D01*
X519549Y639300D01*
X519549Y639301D01*
X519149Y656901D01*
X519112Y656948D01*
X519105Y656942D01*
X519100Y656949D01*
X482300Y656949D01*
X482253Y656913D01*
X482258Y656906D01*
X482251Y656900D01*
X482251Y637349D01*
X481825Y637349D01*
X477840Y642929D01*
X477835Y642930D01*
X477836Y642934D01*
X473336Y647734D01*
X473331Y647735D01*
X473331Y647738D01*
X468231Y651838D01*
X468226Y651839D01*
X468226Y651842D01*
X462826Y655142D01*
X462820Y655142D01*
X462820Y655145D01*
X457020Y657645D01*
X457015Y657644D01*
X457013Y657647D01*
X451013Y659347D01*
X451010Y659346D01*
X451009Y659348D01*
X444909Y660448D01*
X444905Y660446D01*
X444903Y660449D01*
X444902Y660449D01*
X438702Y660749D01*
X438701Y660748D01*
X438700Y660749D01*
X436800Y660749D01*
X436798Y660747D01*
X436796Y660749D01*
X424696Y659749D01*
X424693Y659747D01*
X424691Y659748D01*
X423091Y659448D01*
X423089Y659446D01*
X423086Y659447D01*
X413286Y656647D01*
X413284Y656644D01*
X413281Y656645D01*
X412081Y656145D01*
X412079Y656141D01*
X412075Y656143D01*
X404275Y651643D01*
X404272Y651634D01*
X404265Y651635D01*
X397465Y644835D01*
X397464Y644826D01*
X397457Y644825D01*
X392557Y636425D01*
X392558Y636420D01*
X392555Y636419D01*
X392055Y635219D01*
X392055Y635216D01*
X392053Y635215D01*
X389353Y626515D01*
X389355Y626509D01*
X389351Y626507D01*
X389151Y625107D01*
X387651Y615207D01*
X387653Y615205D01*
X387651Y615203D01*
X387551Y613703D01*
X387552Y613702D01*
X387551Y613702D01*
X387151Y602702D01*
X387152Y602701D01*
X387151Y602700D01*
X387151Y515900D01*
X387187Y515853D01*
X387194Y515858D01*
X387200Y515851D01*
X425900Y515851D01*
X425947Y515887D01*
G37*
G36*
X425947Y1435367D02*
X425947Y1435367D01*
X425942Y1435374D01*
X425949Y1435380D01*
X425949Y1514979D01*
X426349Y1523175D01*
X427348Y1530170D01*
X429046Y1536162D01*
X431541Y1541052D01*
X434932Y1544742D01*
X439221Y1547435D01*
X444510Y1549131D01*
X450800Y1549631D01*
X458091Y1549031D01*
X464281Y1547334D01*
X469469Y1544441D01*
X473560Y1540150D01*
X476755Y1534660D01*
X478952Y1527669D01*
X480251Y1519275D01*
X480651Y1509279D01*
X480651Y1435380D01*
X480687Y1435333D01*
X480694Y1435338D01*
X480700Y1435331D01*
X519500Y1435331D01*
X519547Y1435367D01*
X519542Y1435374D01*
X519549Y1435380D01*
X519549Y1558780D01*
X519549Y1558781D01*
X519149Y1576381D01*
X519112Y1576428D01*
X519105Y1576422D01*
X519100Y1576429D01*
X482300Y1576429D01*
X482253Y1576393D01*
X482258Y1576386D01*
X482251Y1576380D01*
X482251Y1556829D01*
X481825Y1556829D01*
X477840Y1562409D01*
X477835Y1562410D01*
X477836Y1562414D01*
X473336Y1567214D01*
X473331Y1567215D01*
X473331Y1567218D01*
X468231Y1571318D01*
X468226Y1571319D01*
X468226Y1571322D01*
X462826Y1574622D01*
X462820Y1574622D01*
X462820Y1574625D01*
X457020Y1577125D01*
X457015Y1577124D01*
X457013Y1577127D01*
X451013Y1578827D01*
X451010Y1578826D01*
X451009Y1578828D01*
X444909Y1579928D01*
X444905Y1579926D01*
X444903Y1579929D01*
X444902Y1579929D01*
X438702Y1580229D01*
X438701Y1580228D01*
X438700Y1580229D01*
X436800Y1580229D01*
X436798Y1580227D01*
X436796Y1580229D01*
X424696Y1579229D01*
X424693Y1579227D01*
X424691Y1579228D01*
X423091Y1578928D01*
X423089Y1578926D01*
X423086Y1578927D01*
X413286Y1576127D01*
X413284Y1576124D01*
X413281Y1576125D01*
X412081Y1575625D01*
X412079Y1575621D01*
X412075Y1575623D01*
X404275Y1571123D01*
X404272Y1571114D01*
X404265Y1571115D01*
X397465Y1564315D01*
X397464Y1564306D01*
X397457Y1564305D01*
X392557Y1555905D01*
X392558Y1555900D01*
X392555Y1555899D01*
X392055Y1554699D01*
X392055Y1554696D01*
X392053Y1554695D01*
X389353Y1545995D01*
X389355Y1545989D01*
X389351Y1545987D01*
X389151Y1544587D01*
X387651Y1534687D01*
X387653Y1534685D01*
X387651Y1534683D01*
X387551Y1533183D01*
X387552Y1533182D01*
X387551Y1533182D01*
X387151Y1522182D01*
X387152Y1522181D01*
X387151Y1522180D01*
X387151Y1435380D01*
X387187Y1435333D01*
X387194Y1435338D01*
X387200Y1435331D01*
X425900Y1435331D01*
X425947Y1435367D01*
G37*
G36*
X622803Y1431433D02*
X622803Y1431433D01*
X622804Y1431431D01*
X634904Y1432531D01*
X634907Y1432533D01*
X634909Y1432532D01*
X636509Y1432832D01*
X636511Y1432834D01*
X636514Y1432833D01*
X646314Y1435633D01*
X646316Y1435635D01*
X646318Y1435634D01*
X647618Y1436134D01*
X647621Y1436139D01*
X647625Y1436137D01*
X655325Y1440637D01*
X655328Y1440646D01*
X655335Y1440645D01*
X662135Y1447445D01*
X662136Y1447454D01*
X662143Y1447455D01*
X667043Y1455855D01*
X667042Y1455860D01*
X667045Y1455861D01*
X667545Y1457061D01*
X667545Y1457065D01*
X667547Y1457065D01*
X670247Y1465765D01*
X670246Y1465768D01*
X670248Y1465769D01*
X670548Y1467069D01*
X670547Y1467072D01*
X670549Y1467073D01*
X671949Y1477073D01*
X671947Y1477076D01*
X671949Y1477077D01*
X672049Y1478577D01*
X672049Y1478578D01*
X672449Y1489578D01*
X672448Y1489579D01*
X672449Y1489580D01*
X672449Y1576380D01*
X672413Y1576427D01*
X672406Y1576422D01*
X672400Y1576429D01*
X633700Y1576429D01*
X633653Y1576393D01*
X633656Y1576389D01*
X633653Y1576387D01*
X633655Y1576383D01*
X633651Y1576380D01*
X633651Y1496681D01*
X633251Y1488584D01*
X632352Y1481490D01*
X630554Y1475599D01*
X628059Y1470708D01*
X624668Y1466918D01*
X620379Y1464225D01*
X615191Y1462629D01*
X608900Y1462129D01*
X601509Y1462629D01*
X595319Y1464426D01*
X590130Y1467320D01*
X586040Y1471510D01*
X582845Y1477100D01*
X580648Y1484091D01*
X579349Y1492485D01*
X578849Y1502481D01*
X578849Y1576380D01*
X578813Y1576427D01*
X578806Y1576422D01*
X578800Y1576429D01*
X540100Y1576429D01*
X540053Y1576393D01*
X540056Y1576389D01*
X540053Y1576387D01*
X540055Y1576383D01*
X540051Y1576380D01*
X540051Y1452980D01*
X540051Y1452979D01*
X540451Y1435379D01*
X540488Y1435332D01*
X540495Y1435338D01*
X540500Y1435331D01*
X577300Y1435331D01*
X577347Y1435367D01*
X577342Y1435374D01*
X577349Y1435380D01*
X577349Y1454931D01*
X577775Y1454931D01*
X581760Y1449351D01*
X581765Y1449350D01*
X581764Y1449346D01*
X586364Y1444446D01*
X586369Y1444445D01*
X586369Y1444442D01*
X591369Y1440442D01*
X591374Y1440441D01*
X591375Y1440438D01*
X596875Y1437138D01*
X596879Y1437138D01*
X596880Y1437135D01*
X602580Y1434635D01*
X602585Y1434636D01*
X602586Y1434633D01*
X608586Y1432833D01*
X608590Y1432835D01*
X608592Y1432831D01*
X614692Y1431831D01*
X614695Y1431833D01*
X614697Y1431831D01*
X620897Y1431431D01*
X620899Y1431432D01*
X620900Y1431431D01*
X622800Y1431431D01*
X622803Y1431433D01*
G37*
G36*
X622803Y511953D02*
X622803Y511953D01*
X622804Y511951D01*
X634904Y513051D01*
X634907Y513053D01*
X634909Y513052D01*
X636509Y513352D01*
X636511Y513354D01*
X636514Y513353D01*
X646314Y516153D01*
X646316Y516155D01*
X646318Y516154D01*
X647618Y516654D01*
X647621Y516659D01*
X647625Y516657D01*
X655325Y521157D01*
X655328Y521166D01*
X655335Y521165D01*
X662135Y527965D01*
X662136Y527974D01*
X662143Y527975D01*
X667043Y536375D01*
X667042Y536380D01*
X667045Y536381D01*
X667545Y537581D01*
X667545Y537585D01*
X667547Y537585D01*
X670247Y546285D01*
X670246Y546288D01*
X670248Y546289D01*
X670548Y547589D01*
X670547Y547592D01*
X670549Y547593D01*
X671949Y557593D01*
X671947Y557596D01*
X671949Y557597D01*
X672049Y559097D01*
X672049Y559098D01*
X672449Y570098D01*
X672448Y570099D01*
X672449Y570100D01*
X672449Y656900D01*
X672413Y656947D01*
X672406Y656942D01*
X672400Y656949D01*
X633700Y656949D01*
X633653Y656913D01*
X633656Y656909D01*
X633653Y656907D01*
X633655Y656903D01*
X633651Y656900D01*
X633651Y577201D01*
X633251Y569104D01*
X632352Y562010D01*
X630554Y556119D01*
X628059Y551228D01*
X624668Y547438D01*
X620379Y544745D01*
X615191Y543149D01*
X608900Y542649D01*
X601509Y543149D01*
X595319Y544946D01*
X590130Y547840D01*
X586040Y552030D01*
X582845Y557620D01*
X580648Y564611D01*
X579349Y573005D01*
X578849Y583001D01*
X578849Y656900D01*
X578813Y656947D01*
X578806Y656942D01*
X578800Y656949D01*
X540100Y656949D01*
X540053Y656913D01*
X540056Y656909D01*
X540053Y656907D01*
X540055Y656903D01*
X540051Y656900D01*
X540051Y533500D01*
X540051Y533499D01*
X540451Y515899D01*
X540488Y515852D01*
X540495Y515858D01*
X540500Y515851D01*
X577300Y515851D01*
X577347Y515887D01*
X577342Y515894D01*
X577349Y515900D01*
X577349Y535451D01*
X577775Y535451D01*
X581760Y529871D01*
X581765Y529870D01*
X581764Y529866D01*
X586364Y524966D01*
X586369Y524965D01*
X586369Y524962D01*
X591369Y520962D01*
X591374Y520961D01*
X591375Y520958D01*
X596875Y517658D01*
X596879Y517658D01*
X596880Y517655D01*
X602580Y515155D01*
X602585Y515156D01*
X602586Y515153D01*
X608586Y513353D01*
X608590Y513355D01*
X608592Y513351D01*
X614692Y512351D01*
X614695Y512353D01*
X614697Y512351D01*
X620897Y511951D01*
X620899Y511952D01*
X620900Y511951D01*
X622800Y511951D01*
X622803Y511953D01*
G37*
G36*
X1408502Y512352D02*
X1408502Y512352D01*
X1408503Y512351D01*
X1419103Y512951D01*
X1419105Y512953D01*
X1419107Y512951D01*
X1420607Y513151D01*
X1420607Y513152D01*
X1420608Y513151D01*
X1430908Y514851D01*
X1430909Y514853D01*
X1430910Y514852D01*
X1432310Y515152D01*
X1432313Y515155D01*
X1432315Y515153D01*
X1441915Y518153D01*
X1441918Y518157D01*
X1441921Y518155D01*
X1443221Y518755D01*
X1443221Y518757D01*
X1443222Y518756D01*
X1451822Y523156D01*
X1451823Y523158D01*
X1451825Y523157D01*
X1453025Y523857D01*
X1453027Y523863D01*
X1453031Y523862D01*
X1460331Y529862D01*
X1460333Y529867D01*
X1460337Y529867D01*
X1461237Y530867D01*
X1461237Y530870D01*
X1461239Y530870D01*
X1466939Y538470D01*
X1466939Y538475D01*
X1466943Y538475D01*
X1467643Y539675D01*
X1467642Y539681D01*
X1467646Y539682D01*
X1471346Y549182D01*
X1471345Y549185D01*
X1471347Y549186D01*
X1471747Y550486D01*
X1471745Y550491D01*
X1471749Y550493D01*
X1473249Y561693D01*
X1473220Y561745D01*
X1473208Y561739D01*
X1473200Y561749D01*
X1436400Y561749D01*
X1436353Y561713D01*
X1436356Y561709D01*
X1436351Y561706D01*
X1435652Y555912D01*
X1433756Y551024D01*
X1430863Y546933D01*
X1427072Y543641D01*
X1422580Y541145D01*
X1417587Y539348D01*
X1412194Y538349D01*
X1406600Y538049D01*
X1402405Y538249D01*
X1398111Y538948D01*
X1393817Y540146D01*
X1389925Y541943D01*
X1386433Y544437D01*
X1383742Y547527D01*
X1381948Y551414D01*
X1381350Y556099D01*
X1382047Y560081D01*
X1384337Y563567D01*
X1387928Y566559D01*
X1392920Y569155D01*
X1399215Y571553D01*
X1406713Y573652D01*
X1415412Y575752D01*
X1416611Y576052D01*
X1425210Y577852D01*
X1425211Y577853D01*
X1425212Y577852D01*
X1433612Y579952D01*
X1433613Y579954D01*
X1433614Y579953D01*
X1441714Y582353D01*
X1441716Y582356D01*
X1441719Y582354D01*
X1449319Y585454D01*
X1449321Y585459D01*
X1449324Y585457D01*
X1456024Y589257D01*
X1456027Y589263D01*
X1456031Y589262D01*
X1461731Y593962D01*
X1461733Y593970D01*
X1461739Y593970D01*
X1466139Y599770D01*
X1466139Y599780D01*
X1466146Y599782D01*
X1468946Y606882D01*
X1468943Y606891D01*
X1468949Y606894D01*
X1469949Y615494D01*
X1469947Y615498D01*
X1469949Y615500D01*
X1469949Y617200D01*
X1469946Y617204D01*
X1469949Y617206D01*
X1468549Y627806D01*
X1468547Y627809D01*
X1468548Y627810D01*
X1468248Y629210D01*
X1468243Y629215D01*
X1468245Y629219D01*
X1464645Y637819D01*
X1464640Y637822D01*
X1464642Y637826D01*
X1463942Y638926D01*
X1463938Y638928D01*
X1463939Y638931D01*
X1458539Y645731D01*
X1458530Y645733D01*
X1458530Y645739D01*
X1450630Y651739D01*
X1450624Y651739D01*
X1450624Y651743D01*
X1449524Y652343D01*
X1449521Y652343D01*
X1449520Y652345D01*
X1441320Y656045D01*
X1441316Y656044D01*
X1441314Y656047D01*
X1440014Y656447D01*
X1440013Y656447D01*
X1440013Y656448D01*
X1430913Y658848D01*
X1430911Y658847D01*
X1430911Y658848D01*
X1429611Y659148D01*
X1429608Y659147D01*
X1429607Y659149D01*
X1419907Y660449D01*
X1419904Y660448D01*
X1419904Y660449D01*
X1418504Y660549D01*
X1418503Y660548D01*
X1418502Y660549D01*
X1408602Y660949D01*
X1408601Y660948D01*
X1408600Y660949D01*
X1407100Y660949D01*
X1407098Y660948D01*
X1407097Y660949D01*
X1397197Y660349D01*
X1395797Y660249D01*
X1395796Y660249D01*
X1395795Y660249D01*
X1395794Y660247D01*
X1395792Y660249D01*
X1386392Y658749D01*
X1386390Y658747D01*
X1386389Y658748D01*
X1385089Y658448D01*
X1385088Y658446D01*
X1385086Y658447D01*
X1376186Y655847D01*
X1376184Y655844D01*
X1376181Y655845D01*
X1374981Y655345D01*
X1374980Y655343D01*
X1374978Y655344D01*
X1367078Y651444D01*
X1367075Y651437D01*
X1367070Y651439D01*
X1359270Y645339D01*
X1359269Y645336D01*
X1359267Y645337D01*
X1358367Y644537D01*
X1358366Y644530D01*
X1358361Y644530D01*
X1352961Y637530D01*
X1352961Y637524D01*
X1352957Y637524D01*
X1352357Y636424D01*
X1352357Y636420D01*
X1352355Y636420D01*
X1348555Y627720D01*
X1348556Y627716D01*
X1348553Y627714D01*
X1348153Y626414D01*
X1348154Y626410D01*
X1348152Y626409D01*
X1346252Y615909D01*
X1346278Y615856D01*
X1346291Y615862D01*
X1346300Y615851D01*
X1383200Y615851D01*
X1383247Y615887D01*
X1383245Y615890D01*
X1383249Y615892D01*
X1384048Y620986D01*
X1385843Y625175D01*
X1388435Y628465D01*
X1391626Y630958D01*
X1395418Y632854D01*
X1399810Y634052D01*
X1404605Y634751D01*
X1409601Y634951D01*
X1413098Y634951D01*
X1416694Y634651D01*
X1420289Y634052D01*
X1423680Y632955D01*
X1426670Y631260D01*
X1429060Y628971D01*
X1430552Y625885D01*
X1431150Y622001D01*
X1430154Y617321D01*
X1427365Y613636D01*
X1423076Y610644D01*
X1417383Y608346D01*
X1410787Y606348D01*
X1403290Y604548D01*
X1395390Y602948D01*
X1395389Y602948D01*
X1387289Y601148D01*
X1387288Y601147D01*
X1387288Y601148D01*
X1378788Y598948D01*
X1378787Y598946D01*
X1378785Y598947D01*
X1370685Y596447D01*
X1370683Y596444D01*
X1370681Y596445D01*
X1363181Y593245D01*
X1363178Y593241D01*
X1363175Y593242D01*
X1356375Y589142D01*
X1356372Y589136D01*
X1356368Y589137D01*
X1350668Y584137D01*
X1350666Y584129D01*
X1350660Y584129D01*
X1346260Y578029D01*
X1346260Y578020D01*
X1346259Y578019D01*
X1346254Y578017D01*
X1343454Y570517D01*
X1343456Y570509D01*
X1343451Y570505D01*
X1342451Y561505D01*
X1342454Y561500D01*
X1342451Y561497D01*
X1342551Y559797D01*
X1342553Y559795D01*
X1342551Y559794D01*
X1343951Y548694D01*
X1343955Y548690D01*
X1343953Y548686D01*
X1344353Y547286D01*
X1344356Y547284D01*
X1344354Y547281D01*
X1348054Y538181D01*
X1348059Y538179D01*
X1348057Y538175D01*
X1348757Y536975D01*
X1348762Y536973D01*
X1348761Y536970D01*
X1354461Y529670D01*
X1354464Y529669D01*
X1354463Y529667D01*
X1355363Y528667D01*
X1355370Y528666D01*
X1355370Y528661D01*
X1362770Y522961D01*
X1362773Y522961D01*
X1362774Y522958D01*
X1363874Y522258D01*
X1363878Y522259D01*
X1363878Y522256D01*
X1372478Y518056D01*
X1372484Y518057D01*
X1372486Y518053D01*
X1373786Y517653D01*
X1383386Y514753D01*
X1383389Y514754D01*
X1383390Y514752D01*
X1384790Y514452D01*
X1384792Y514453D01*
X1384793Y514451D01*
X1394993Y512951D01*
X1394995Y512953D01*
X1394997Y512951D01*
X1396497Y512851D01*
X1396498Y512851D01*
X1406898Y512351D01*
X1406899Y512352D01*
X1406900Y512351D01*
X1408500Y512351D01*
X1408502Y512352D01*
G37*
G36*
X1408502Y1431832D02*
X1408502Y1431832D01*
X1408503Y1431831D01*
X1419103Y1432431D01*
X1419105Y1432433D01*
X1419107Y1432431D01*
X1420607Y1432631D01*
X1420607Y1432632D01*
X1420608Y1432631D01*
X1430908Y1434331D01*
X1430909Y1434333D01*
X1430910Y1434332D01*
X1432310Y1434632D01*
X1432313Y1434635D01*
X1432315Y1434633D01*
X1441915Y1437633D01*
X1441918Y1437637D01*
X1441921Y1437635D01*
X1443221Y1438235D01*
X1443221Y1438237D01*
X1443222Y1438236D01*
X1451822Y1442636D01*
X1451823Y1442638D01*
X1451825Y1442637D01*
X1453025Y1443337D01*
X1453027Y1443343D01*
X1453031Y1443342D01*
X1460331Y1449342D01*
X1460333Y1449347D01*
X1460337Y1449347D01*
X1461237Y1450347D01*
X1461237Y1450350D01*
X1461239Y1450350D01*
X1466939Y1457950D01*
X1466939Y1457955D01*
X1466943Y1457955D01*
X1467643Y1459155D01*
X1467642Y1459161D01*
X1467646Y1459162D01*
X1471346Y1468662D01*
X1471345Y1468665D01*
X1471347Y1468666D01*
X1471747Y1469966D01*
X1471745Y1469971D01*
X1471749Y1469973D01*
X1473249Y1481173D01*
X1473220Y1481225D01*
X1473208Y1481219D01*
X1473200Y1481229D01*
X1436400Y1481229D01*
X1436353Y1481193D01*
X1436356Y1481189D01*
X1436351Y1481186D01*
X1435652Y1475392D01*
X1433756Y1470504D01*
X1430863Y1466413D01*
X1427072Y1463121D01*
X1422580Y1460625D01*
X1417587Y1458828D01*
X1412194Y1457829D01*
X1406600Y1457529D01*
X1402405Y1457729D01*
X1398111Y1458428D01*
X1393817Y1459626D01*
X1389925Y1461423D01*
X1386433Y1463917D01*
X1383742Y1467007D01*
X1381948Y1470894D01*
X1381350Y1475579D01*
X1382047Y1479561D01*
X1384337Y1483047D01*
X1387928Y1486039D01*
X1392920Y1488635D01*
X1399215Y1491033D01*
X1406713Y1493132D01*
X1415412Y1495232D01*
X1416611Y1495532D01*
X1425210Y1497332D01*
X1425211Y1497333D01*
X1425212Y1497332D01*
X1433612Y1499432D01*
X1433613Y1499434D01*
X1433614Y1499433D01*
X1441714Y1501833D01*
X1441716Y1501836D01*
X1441719Y1501834D01*
X1449319Y1504934D01*
X1449321Y1504939D01*
X1449324Y1504937D01*
X1456024Y1508737D01*
X1456027Y1508743D01*
X1456031Y1508742D01*
X1461731Y1513442D01*
X1461733Y1513450D01*
X1461739Y1513450D01*
X1466139Y1519250D01*
X1466139Y1519260D01*
X1466146Y1519262D01*
X1468946Y1526362D01*
X1468943Y1526371D01*
X1468949Y1526374D01*
X1469949Y1534974D01*
X1469947Y1534978D01*
X1469949Y1534980D01*
X1469949Y1536680D01*
X1469946Y1536684D01*
X1469949Y1536686D01*
X1468549Y1547286D01*
X1468547Y1547289D01*
X1468548Y1547290D01*
X1468248Y1548690D01*
X1468243Y1548695D01*
X1468245Y1548699D01*
X1464645Y1557299D01*
X1464640Y1557302D01*
X1464642Y1557306D01*
X1463942Y1558406D01*
X1463938Y1558408D01*
X1463939Y1558411D01*
X1458539Y1565211D01*
X1458530Y1565213D01*
X1458530Y1565219D01*
X1450630Y1571219D01*
X1450624Y1571219D01*
X1450624Y1571223D01*
X1449524Y1571823D01*
X1449521Y1571823D01*
X1449520Y1571825D01*
X1441320Y1575525D01*
X1441316Y1575524D01*
X1441314Y1575527D01*
X1440014Y1575927D01*
X1440013Y1575927D01*
X1440013Y1575928D01*
X1430913Y1578328D01*
X1430911Y1578327D01*
X1430911Y1578328D01*
X1429611Y1578628D01*
X1429608Y1578627D01*
X1429607Y1578629D01*
X1419907Y1579929D01*
X1419904Y1579928D01*
X1419904Y1579929D01*
X1418504Y1580029D01*
X1418503Y1580028D01*
X1418502Y1580029D01*
X1408602Y1580429D01*
X1408601Y1580428D01*
X1408600Y1580429D01*
X1407100Y1580429D01*
X1407098Y1580428D01*
X1407097Y1580429D01*
X1397197Y1579829D01*
X1395797Y1579729D01*
X1395796Y1579729D01*
X1395795Y1579729D01*
X1395794Y1579727D01*
X1395792Y1579729D01*
X1386392Y1578229D01*
X1386390Y1578227D01*
X1386389Y1578228D01*
X1385089Y1577928D01*
X1385088Y1577926D01*
X1385086Y1577927D01*
X1376186Y1575327D01*
X1376184Y1575324D01*
X1376181Y1575325D01*
X1374981Y1574825D01*
X1374980Y1574823D01*
X1374978Y1574824D01*
X1367078Y1570924D01*
X1367075Y1570917D01*
X1367070Y1570919D01*
X1359270Y1564819D01*
X1359269Y1564816D01*
X1359267Y1564817D01*
X1358367Y1564017D01*
X1358366Y1564010D01*
X1358361Y1564010D01*
X1352961Y1557010D01*
X1352961Y1557004D01*
X1352957Y1557004D01*
X1352357Y1555904D01*
X1352357Y1555900D01*
X1352355Y1555900D01*
X1348555Y1547200D01*
X1348556Y1547196D01*
X1348553Y1547194D01*
X1348153Y1545894D01*
X1348154Y1545890D01*
X1348152Y1545889D01*
X1346252Y1535389D01*
X1346278Y1535336D01*
X1346291Y1535342D01*
X1346300Y1535331D01*
X1383200Y1535331D01*
X1383247Y1535367D01*
X1383245Y1535370D01*
X1383249Y1535372D01*
X1384048Y1540466D01*
X1385843Y1544655D01*
X1388435Y1547945D01*
X1391626Y1550438D01*
X1395418Y1552334D01*
X1399810Y1553532D01*
X1404605Y1554231D01*
X1409601Y1554431D01*
X1413098Y1554431D01*
X1416694Y1554131D01*
X1420289Y1553532D01*
X1423680Y1552435D01*
X1426670Y1550740D01*
X1429060Y1548451D01*
X1430552Y1545365D01*
X1431150Y1541481D01*
X1430154Y1536801D01*
X1427365Y1533116D01*
X1423076Y1530124D01*
X1417383Y1527826D01*
X1410787Y1525828D01*
X1403290Y1524028D01*
X1395390Y1522428D01*
X1395389Y1522428D01*
X1387289Y1520628D01*
X1387288Y1520627D01*
X1387288Y1520628D01*
X1378788Y1518428D01*
X1378787Y1518426D01*
X1378785Y1518427D01*
X1370685Y1515927D01*
X1370683Y1515924D01*
X1370681Y1515925D01*
X1363181Y1512725D01*
X1363178Y1512721D01*
X1363175Y1512722D01*
X1356375Y1508622D01*
X1356372Y1508616D01*
X1356368Y1508617D01*
X1350668Y1503617D01*
X1350666Y1503609D01*
X1350660Y1503609D01*
X1346260Y1497509D01*
X1346260Y1497500D01*
X1346259Y1497499D01*
X1346254Y1497497D01*
X1343454Y1489997D01*
X1343456Y1489989D01*
X1343451Y1489985D01*
X1342451Y1480985D01*
X1342454Y1480980D01*
X1342451Y1480977D01*
X1342551Y1479277D01*
X1342553Y1479275D01*
X1342551Y1479274D01*
X1343951Y1468174D01*
X1343955Y1468170D01*
X1343953Y1468166D01*
X1344353Y1466766D01*
X1344356Y1466764D01*
X1344354Y1466761D01*
X1348054Y1457661D01*
X1348059Y1457659D01*
X1348057Y1457655D01*
X1348757Y1456455D01*
X1348762Y1456453D01*
X1348761Y1456450D01*
X1354461Y1449150D01*
X1354464Y1449149D01*
X1354463Y1449147D01*
X1355363Y1448147D01*
X1355370Y1448146D01*
X1355370Y1448141D01*
X1362770Y1442441D01*
X1362773Y1442441D01*
X1362774Y1442438D01*
X1363874Y1441738D01*
X1363878Y1441739D01*
X1363878Y1441736D01*
X1372478Y1437536D01*
X1372484Y1437537D01*
X1372486Y1437533D01*
X1373786Y1437133D01*
X1383386Y1434233D01*
X1383389Y1434234D01*
X1383390Y1434232D01*
X1384790Y1433932D01*
X1384792Y1433933D01*
X1384793Y1433931D01*
X1394993Y1432431D01*
X1394995Y1432433D01*
X1394997Y1432431D01*
X1396497Y1432331D01*
X1396498Y1432331D01*
X1406898Y1431831D01*
X1406899Y1431832D01*
X1406900Y1431831D01*
X1408500Y1431831D01*
X1408502Y1431832D01*
G37*
G36*
X749247Y1435267D02*
X749247Y1435267D01*
X749242Y1435274D01*
X749249Y1435280D01*
X749249Y1535980D01*
X749150Y1550431D01*
X787300Y1550431D01*
X787311Y1550439D01*
X787325Y1550437D01*
X787326Y1550451D01*
X787347Y1550467D01*
X787331Y1550488D01*
X787334Y1550515D01*
X784034Y1553715D01*
X780735Y1557015D01*
X780734Y1557015D01*
X777434Y1560215D01*
X774135Y1563515D01*
X774134Y1563515D01*
X767534Y1569915D01*
X764235Y1573215D01*
X764234Y1573215D01*
X760934Y1576415D01*
X760908Y1576419D01*
X760900Y1576429D01*
X749149Y1576429D01*
X749149Y1587180D01*
X749147Y1587182D01*
X749149Y1587184D01*
X748449Y1596284D01*
X748445Y1596289D01*
X748448Y1596293D01*
X746248Y1604493D01*
X746242Y1604497D01*
X746244Y1604502D01*
X742644Y1611802D01*
X742637Y1611806D01*
X742638Y1611811D01*
X737438Y1618111D01*
X737430Y1618113D01*
X737430Y1618119D01*
X730830Y1623119D01*
X730822Y1623119D01*
X730821Y1623125D01*
X722721Y1626925D01*
X722714Y1626923D01*
X722712Y1626928D01*
X713112Y1629328D01*
X713109Y1629326D01*
X713108Y1629329D01*
X711808Y1629529D01*
X711804Y1629527D01*
X711803Y1629529D01*
X701903Y1630129D01*
X701901Y1630128D01*
X701900Y1630129D01*
X694200Y1630129D01*
X694197Y1630127D01*
X694194Y1630129D01*
X691594Y1629829D01*
X688995Y1629529D01*
X686498Y1629329D01*
X681500Y1629329D01*
X681453Y1629293D01*
X681455Y1629291D01*
X681453Y1629289D01*
X681456Y1629284D01*
X681451Y1629280D01*
X681451Y1600280D01*
X681487Y1600233D01*
X681498Y1600241D01*
X681509Y1600232D01*
X683208Y1600531D01*
X685004Y1600831D01*
X695698Y1600831D01*
X699393Y1600531D01*
X702484Y1599933D01*
X704974Y1598738D01*
X706964Y1597146D01*
X708556Y1594957D01*
X709552Y1592167D01*
X710151Y1588774D01*
X710351Y1584779D01*
X710351Y1576329D01*
X683700Y1576329D01*
X683653Y1576293D01*
X683658Y1576286D01*
X683651Y1576280D01*
X683651Y1550380D01*
X683687Y1550333D01*
X683694Y1550338D01*
X683700Y1550331D01*
X710351Y1550331D01*
X710351Y1435280D01*
X710387Y1435233D01*
X710394Y1435238D01*
X710400Y1435231D01*
X749200Y1435231D01*
X749247Y1435267D01*
G37*
G36*
X749247Y515787D02*
X749247Y515787D01*
X749242Y515794D01*
X749249Y515800D01*
X749249Y616500D01*
X749150Y630951D01*
X787300Y630951D01*
X787311Y630959D01*
X787325Y630957D01*
X787326Y630971D01*
X787347Y630987D01*
X787331Y631008D01*
X787334Y631035D01*
X784034Y634235D01*
X780735Y637535D01*
X780734Y637535D01*
X777434Y640735D01*
X774135Y644035D01*
X774134Y644035D01*
X767534Y650435D01*
X764235Y653735D01*
X764234Y653735D01*
X760934Y656935D01*
X760908Y656939D01*
X760900Y656949D01*
X749149Y656949D01*
X749149Y667700D01*
X749147Y667702D01*
X749149Y667704D01*
X748449Y676804D01*
X748445Y676809D01*
X748448Y676813D01*
X746248Y685013D01*
X746242Y685017D01*
X746244Y685022D01*
X742644Y692322D01*
X742637Y692326D01*
X742638Y692331D01*
X737438Y698631D01*
X737430Y698633D01*
X737430Y698639D01*
X730830Y703639D01*
X730822Y703639D01*
X730821Y703645D01*
X722721Y707445D01*
X722714Y707443D01*
X722712Y707448D01*
X713112Y709848D01*
X713109Y709846D01*
X713108Y709849D01*
X711808Y710049D01*
X711804Y710047D01*
X711803Y710049D01*
X701903Y710649D01*
X701901Y710648D01*
X701900Y710649D01*
X694200Y710649D01*
X694197Y710647D01*
X694194Y710649D01*
X691594Y710349D01*
X688995Y710049D01*
X686498Y709849D01*
X681500Y709849D01*
X681453Y709813D01*
X681455Y709811D01*
X681453Y709809D01*
X681456Y709804D01*
X681451Y709800D01*
X681451Y680800D01*
X681487Y680753D01*
X681498Y680761D01*
X681509Y680752D01*
X683208Y681051D01*
X685004Y681351D01*
X695698Y681351D01*
X699393Y681051D01*
X702484Y680453D01*
X704974Y679258D01*
X706964Y677666D01*
X708556Y675477D01*
X709552Y672687D01*
X710151Y669294D01*
X710351Y665299D01*
X710351Y656849D01*
X683700Y656849D01*
X683653Y656813D01*
X683658Y656806D01*
X683651Y656800D01*
X683651Y630900D01*
X683687Y630853D01*
X683694Y630858D01*
X683700Y630851D01*
X710351Y630851D01*
X710351Y515800D01*
X710387Y515753D01*
X710394Y515758D01*
X710400Y515751D01*
X749200Y515751D01*
X749247Y515787D01*
G37*
G36*
X1018247Y1435367D02*
X1018247Y1435367D01*
X1018242Y1435374D01*
X1018249Y1435380D01*
X1018249Y1552980D01*
X1018249Y1552981D01*
X1017949Y1569781D01*
X1017912Y1569828D01*
X1017911Y1569826D01*
X1017909Y1569828D01*
X1013309Y1570728D01*
X1013308Y1570729D01*
X994908Y1573929D01*
X990309Y1574728D01*
X985709Y1575628D01*
X985708Y1575629D01*
X981108Y1576429D01*
X981056Y1576401D01*
X981062Y1576389D01*
X981051Y1576380D01*
X981051Y1550229D01*
X980830Y1550229D01*
X977644Y1556502D01*
X977639Y1556505D01*
X977640Y1556509D01*
X973440Y1562309D01*
X973435Y1562310D01*
X973436Y1562314D01*
X968536Y1567414D01*
X968530Y1567415D01*
X968530Y1567419D01*
X962830Y1571819D01*
X962825Y1571819D01*
X962825Y1571823D01*
X956625Y1575423D01*
X956619Y1575422D01*
X956618Y1575426D01*
X950018Y1578026D01*
X950013Y1578024D01*
X950011Y1578028D01*
X943011Y1579628D01*
X943006Y1579626D01*
X943004Y1579629D01*
X935804Y1580229D01*
X935801Y1580227D01*
X935800Y1580229D01*
X931500Y1580229D01*
X931493Y1580224D01*
X931491Y1580224D01*
X931487Y1580228D01*
X930387Y1579928D01*
X930386Y1579927D01*
X928386Y1579327D01*
X927287Y1579028D01*
X927251Y1578980D01*
X927251Y1542980D01*
X927287Y1542933D01*
X927299Y1542942D01*
X927310Y1542932D01*
X928809Y1543232D01*
X930409Y1543532D01*
X932108Y1543831D01*
X933904Y1544131D01*
X941298Y1544131D01*
X951090Y1543232D01*
X959279Y1540535D01*
X965869Y1536442D01*
X971060Y1530951D01*
X974855Y1524260D01*
X977452Y1516568D01*
X978951Y1508074D01*
X979451Y1498878D01*
X979451Y1435380D01*
X979487Y1435333D01*
X979494Y1435338D01*
X979500Y1435331D01*
X1018200Y1435331D01*
X1018247Y1435367D01*
G37*
G36*
X1018247Y515887D02*
X1018247Y515887D01*
X1018242Y515894D01*
X1018249Y515900D01*
X1018249Y633500D01*
X1018249Y633501D01*
X1017949Y650301D01*
X1017912Y650348D01*
X1017911Y650346D01*
X1017909Y650348D01*
X1013309Y651248D01*
X1013308Y651249D01*
X994908Y654449D01*
X990309Y655248D01*
X985709Y656148D01*
X985708Y656149D01*
X981108Y656949D01*
X981056Y656921D01*
X981062Y656909D01*
X981051Y656900D01*
X981051Y630749D01*
X980830Y630749D01*
X977644Y637022D01*
X977639Y637025D01*
X977640Y637029D01*
X973440Y642829D01*
X973435Y642830D01*
X973436Y642834D01*
X968536Y647934D01*
X968530Y647935D01*
X968530Y647939D01*
X962830Y652339D01*
X962825Y652339D01*
X962825Y652343D01*
X956625Y655943D01*
X956619Y655942D01*
X956618Y655946D01*
X950018Y658546D01*
X950013Y658544D01*
X950011Y658548D01*
X943011Y660148D01*
X943006Y660146D01*
X943004Y660149D01*
X935804Y660749D01*
X935801Y660747D01*
X935800Y660749D01*
X931500Y660749D01*
X931493Y660744D01*
X931491Y660744D01*
X931487Y660748D01*
X930387Y660448D01*
X930386Y660447D01*
X928386Y659847D01*
X927287Y659548D01*
X927251Y659500D01*
X927251Y623500D01*
X927287Y623453D01*
X927299Y623462D01*
X927310Y623452D01*
X928809Y623752D01*
X930409Y624052D01*
X932108Y624351D01*
X933904Y624651D01*
X941298Y624651D01*
X951090Y623752D01*
X959279Y621055D01*
X965869Y616962D01*
X971060Y611471D01*
X974855Y604780D01*
X977452Y597088D01*
X978951Y588594D01*
X979451Y579398D01*
X979451Y515900D01*
X979487Y515853D01*
X979494Y515858D01*
X979500Y515851D01*
X1018200Y515851D01*
X1018247Y515887D01*
G37*
%LPC*%
G36*
X1247112Y1461728D02*
X1247112Y1461728D01*
X1239924Y1464524D01*
X1234134Y1468816D01*
X1229542Y1474507D01*
X1226244Y1481202D01*
X1226199Y1481225D01*
X1226222Y1481236D01*
X1226232Y1481255D01*
X1226245Y1481265D01*
X1226240Y1481272D01*
X1226248Y1481289D01*
X1226245Y1481291D01*
X1226247Y1481294D01*
X1224048Y1488791D01*
X1222749Y1496985D01*
X1222352Y1505430D01*
X1222749Y1513875D01*
X1224148Y1522069D01*
X1226546Y1529762D01*
X1229942Y1536654D01*
X1234535Y1542445D01*
X1240425Y1546937D01*
X1247513Y1549932D01*
X1256100Y1550930D01*
X1264788Y1549932D01*
X1272075Y1547037D01*
X1277865Y1542545D01*
X1282358Y1536754D01*
X1285654Y1529862D01*
X1287952Y1522169D01*
X1289251Y1513975D01*
X1289651Y1505480D01*
X1289151Y1496986D01*
X1287852Y1488791D01*
X1285554Y1481198D01*
X1282158Y1474507D01*
X1277566Y1468816D01*
X1271676Y1464524D01*
X1264488Y1461728D01*
X1255800Y1460730D01*
X1247112Y1461728D01*
G37*
%LPD*%
%LPC*%
G36*
X1247112Y542248D02*
X1247112Y542248D01*
X1239924Y545044D01*
X1234134Y549336D01*
X1229542Y555027D01*
X1226244Y561722D01*
X1226199Y561745D01*
X1226222Y561756D01*
X1226232Y561775D01*
X1226245Y561785D01*
X1226240Y561792D01*
X1226248Y561809D01*
X1226245Y561811D01*
X1226247Y561814D01*
X1224048Y569311D01*
X1222749Y577505D01*
X1222352Y585950D01*
X1222749Y594395D01*
X1224148Y602589D01*
X1226546Y610282D01*
X1229942Y617174D01*
X1234535Y622965D01*
X1240425Y627457D01*
X1247513Y630452D01*
X1256100Y631450D01*
X1264788Y630452D01*
X1272075Y627557D01*
X1277865Y623065D01*
X1282358Y617274D01*
X1285654Y610382D01*
X1287952Y602689D01*
X1289251Y594495D01*
X1289651Y586000D01*
X1289151Y577506D01*
X1287852Y569311D01*
X1285554Y561718D01*
X1282158Y555027D01*
X1277566Y549336D01*
X1271676Y545044D01*
X1264488Y542248D01*
X1255800Y541250D01*
X1247112Y542248D01*
G37*
%LPD*%
%LPC*%
G36*
X1109901Y1457529D02*
X1109901Y1457529D01*
X1104606Y1457829D01*
X1099911Y1458628D01*
X1095817Y1459826D01*
X1092324Y1461423D01*
X1089329Y1463320D01*
X1086735Y1465515D01*
X1084639Y1467910D01*
X1082943Y1470504D01*
X1081645Y1473200D01*
X1080547Y1475896D01*
X1079848Y1478592D01*
X1079249Y1481288D01*
X1078949Y1483785D01*
X1078749Y1486083D01*
X1078649Y1488181D01*
X1078649Y1504280D01*
X1079870Y1503341D01*
X1079874Y1503341D01*
X1079875Y1503338D01*
X1081375Y1502438D01*
X1081378Y1502438D01*
X1081378Y1502436D01*
X1082978Y1501636D01*
X1082981Y1501636D01*
X1082981Y1501634D01*
X1084681Y1500934D01*
X1084684Y1500935D01*
X1084685Y1500933D01*
X1088485Y1499733D01*
X1088489Y1499734D01*
X1088490Y1499732D01*
X1090489Y1499332D01*
X1092589Y1498832D01*
X1092593Y1498834D01*
X1092596Y1498831D01*
X1094762Y1498634D01*
X1094752Y1498591D01*
X1094777Y1498537D01*
X1094787Y1498542D01*
X1094793Y1498531D01*
X1096993Y1498231D01*
X1099292Y1497831D01*
X1099293Y1497832D01*
X1099294Y1497831D01*
X1101593Y1497531D01*
X1103892Y1497131D01*
X1103893Y1497132D01*
X1103894Y1497131D01*
X1106194Y1496831D01*
X1108493Y1496531D01*
X1110790Y1496132D01*
X1112989Y1495632D01*
X1112991Y1495633D01*
X1112991Y1495632D01*
X1115189Y1495232D01*
X1117268Y1494638D01*
X1117253Y1494596D01*
X1117272Y1494539D01*
X1117283Y1494543D01*
X1117286Y1494533D01*
X1119384Y1493933D01*
X1121380Y1493135D01*
X1123277Y1492236D01*
X1125074Y1491238D01*
X1126671Y1490140D01*
X1128167Y1488943D01*
X1129563Y1487548D01*
X1130759Y1485952D01*
X1131756Y1484258D01*
X1132553Y1482364D01*
X1133152Y1480170D01*
X1133551Y1477875D01*
X1133651Y1475380D01*
X1133551Y1472785D01*
X1133152Y1470491D01*
X1132554Y1468397D01*
X1131757Y1466604D01*
X1130660Y1464909D01*
X1129464Y1463414D01*
X1128069Y1462119D01*
X1126474Y1461022D01*
X1124778Y1460124D01*
X1122983Y1459326D01*
X1120987Y1458727D01*
X1118990Y1458228D01*
X1116792Y1457829D01*
X1114597Y1457529D01*
X1109901Y1457529D01*
G37*
%LPD*%
%LPC*%
G36*
X1109901Y538049D02*
X1109901Y538049D01*
X1104606Y538349D01*
X1099911Y539148D01*
X1095817Y540346D01*
X1092324Y541943D01*
X1089329Y543840D01*
X1086735Y546035D01*
X1084639Y548430D01*
X1082943Y551024D01*
X1081645Y553720D01*
X1080547Y556416D01*
X1079848Y559112D01*
X1079249Y561808D01*
X1078949Y564305D01*
X1078749Y566603D01*
X1078649Y568701D01*
X1078649Y584800D01*
X1079870Y583861D01*
X1079874Y583861D01*
X1079875Y583858D01*
X1081375Y582958D01*
X1081378Y582958D01*
X1081378Y582956D01*
X1082978Y582156D01*
X1082981Y582156D01*
X1082981Y582154D01*
X1084681Y581454D01*
X1084684Y581455D01*
X1084685Y581453D01*
X1088485Y580253D01*
X1088489Y580254D01*
X1088490Y580252D01*
X1090489Y579852D01*
X1092589Y579352D01*
X1092593Y579354D01*
X1092596Y579351D01*
X1094762Y579154D01*
X1094752Y579111D01*
X1094777Y579057D01*
X1094787Y579062D01*
X1094793Y579051D01*
X1096993Y578751D01*
X1099292Y578351D01*
X1099293Y578352D01*
X1099294Y578351D01*
X1101593Y578051D01*
X1103892Y577651D01*
X1103893Y577652D01*
X1103894Y577651D01*
X1106194Y577351D01*
X1108493Y577051D01*
X1110790Y576652D01*
X1112989Y576152D01*
X1112991Y576153D01*
X1112991Y576152D01*
X1115189Y575752D01*
X1117268Y575158D01*
X1117253Y575116D01*
X1117272Y575059D01*
X1117283Y575063D01*
X1117286Y575053D01*
X1119384Y574453D01*
X1121380Y573655D01*
X1123277Y572756D01*
X1125074Y571758D01*
X1126671Y570660D01*
X1128167Y569463D01*
X1129563Y568068D01*
X1130759Y566472D01*
X1131756Y564778D01*
X1132553Y562884D01*
X1133152Y560690D01*
X1133551Y558395D01*
X1133651Y555900D01*
X1133551Y553305D01*
X1133152Y551011D01*
X1132554Y548917D01*
X1131757Y547124D01*
X1130660Y545429D01*
X1129464Y543934D01*
X1128069Y542639D01*
X1126474Y541542D01*
X1124778Y540644D01*
X1122983Y539846D01*
X1120987Y539247D01*
X1118990Y538748D01*
X1116792Y538349D01*
X1114597Y538049D01*
X1109901Y538049D01*
G37*
%LPD*%
G36*
X936420Y12846D02*
X936420Y12846D01*
X936528Y12856D01*
X936541Y12862D01*
X936555Y12864D01*
X936652Y12912D01*
X936751Y12957D01*
X936764Y12968D01*
X936773Y12972D01*
X936788Y12988D01*
X936865Y13050D01*
X939450Y15635D01*
X939513Y15724D01*
X939579Y15809D01*
X939584Y15822D01*
X939592Y15834D01*
X939623Y15937D01*
X939659Y16040D01*
X939659Y16054D01*
X939663Y16067D01*
X939659Y16175D01*
X939660Y16284D01*
X939655Y16297D01*
X939655Y16311D01*
X939617Y16413D01*
X939582Y16515D01*
X939573Y16530D01*
X939569Y16539D01*
X939555Y16556D01*
X939501Y16638D01*
X936737Y20028D01*
X937294Y21110D01*
X937300Y21130D01*
X937342Y21225D01*
X937713Y22384D01*
X942064Y22827D01*
X942168Y22855D01*
X942274Y22880D01*
X942286Y22887D01*
X942299Y22890D01*
X942389Y22951D01*
X942482Y23008D01*
X942490Y23019D01*
X942502Y23027D01*
X942568Y23113D01*
X942637Y23197D01*
X942641Y23210D01*
X942650Y23221D01*
X942684Y23324D01*
X942723Y23425D01*
X942724Y23443D01*
X942728Y23452D01*
X942728Y23474D01*
X942737Y23572D01*
X942737Y27228D01*
X942720Y27335D01*
X942706Y27443D01*
X942700Y27455D01*
X942698Y27469D01*
X942646Y27565D01*
X942599Y27662D01*
X942589Y27672D01*
X942583Y27684D01*
X942503Y27758D01*
X942427Y27835D01*
X942415Y27841D01*
X942405Y27851D01*
X942306Y27896D01*
X942209Y27944D01*
X942191Y27948D01*
X942182Y27952D01*
X942161Y27954D01*
X942064Y27973D01*
X937713Y28416D01*
X937342Y29575D01*
X937333Y29592D01*
X937331Y29600D01*
X937327Y29607D01*
X937294Y29690D01*
X936737Y30772D01*
X939501Y34162D01*
X939555Y34256D01*
X939612Y34348D01*
X939615Y34361D01*
X939622Y34373D01*
X939643Y34480D01*
X939668Y34585D01*
X939666Y34599D01*
X939669Y34613D01*
X939654Y34720D01*
X939644Y34828D01*
X939638Y34841D01*
X939636Y34855D01*
X939588Y34952D01*
X939543Y35051D01*
X939532Y35064D01*
X939528Y35073D01*
X939512Y35088D01*
X939450Y35165D01*
X936865Y37750D01*
X936776Y37813D01*
X936691Y37879D01*
X936678Y37884D01*
X936666Y37892D01*
X936563Y37923D01*
X936460Y37959D01*
X936446Y37959D01*
X936433Y37963D01*
X936325Y37959D01*
X936216Y37960D01*
X936203Y37955D01*
X936189Y37955D01*
X936087Y37917D01*
X935985Y37882D01*
X935970Y37873D01*
X935961Y37869D01*
X935944Y37855D01*
X935862Y37801D01*
X932472Y35037D01*
X931390Y35594D01*
X931370Y35600D01*
X931275Y35642D01*
X930116Y36013D01*
X929673Y40364D01*
X929645Y40468D01*
X929620Y40574D01*
X929613Y40586D01*
X929610Y40599D01*
X929549Y40689D01*
X929492Y40782D01*
X929481Y40790D01*
X929473Y40802D01*
X929387Y40868D01*
X929303Y40937D01*
X929290Y40941D01*
X929279Y40950D01*
X929176Y40984D01*
X929075Y41023D01*
X929057Y41024D01*
X929048Y41028D01*
X929026Y41028D01*
X928928Y41037D01*
X925272Y41037D01*
X925165Y41020D01*
X925057Y41006D01*
X925045Y41000D01*
X925031Y40998D01*
X924935Y40946D01*
X924838Y40899D01*
X924828Y40889D01*
X924816Y40883D01*
X924742Y40803D01*
X924665Y40727D01*
X924659Y40715D01*
X924649Y40705D01*
X924604Y40606D01*
X924556Y40509D01*
X924552Y40491D01*
X924548Y40482D01*
X924546Y40461D01*
X924527Y40364D01*
X924084Y36013D01*
X922925Y35642D01*
X922907Y35632D01*
X922810Y35594D01*
X921728Y35037D01*
X918338Y37801D01*
X918244Y37855D01*
X918152Y37912D01*
X918139Y37915D01*
X918127Y37922D01*
X918020Y37943D01*
X917915Y37968D01*
X917901Y37966D01*
X917887Y37969D01*
X917780Y37954D01*
X917672Y37944D01*
X917659Y37938D01*
X917646Y37936D01*
X917548Y37888D01*
X917449Y37843D01*
X917436Y37832D01*
X917427Y37828D01*
X917412Y37812D01*
X917335Y37750D01*
X914750Y35165D01*
X914687Y35076D01*
X914621Y34991D01*
X914616Y34978D01*
X914608Y34966D01*
X914577Y34863D01*
X914541Y34760D01*
X914541Y34746D01*
X914537Y34733D01*
X914541Y34625D01*
X914540Y34516D01*
X914545Y34503D01*
X914545Y34489D01*
X914583Y34387D01*
X914618Y34285D01*
X914627Y34270D01*
X914631Y34261D01*
X914645Y34244D01*
X914699Y34162D01*
X917463Y30772D01*
X916906Y29690D01*
X916900Y29670D01*
X916858Y29575D01*
X916487Y28416D01*
X912136Y27973D01*
X912032Y27945D01*
X911926Y27920D01*
X911914Y27913D01*
X911901Y27910D01*
X911811Y27849D01*
X911718Y27792D01*
X911710Y27781D01*
X911698Y27773D01*
X911632Y27687D01*
X911564Y27603D01*
X911559Y27590D01*
X911550Y27579D01*
X911516Y27476D01*
X911477Y27375D01*
X911476Y27357D01*
X911472Y27348D01*
X911473Y27326D01*
X911463Y27228D01*
X911463Y23572D01*
X911480Y23465D01*
X911494Y23357D01*
X911500Y23345D01*
X911502Y23331D01*
X911554Y23235D01*
X911601Y23138D01*
X911611Y23128D01*
X911617Y23116D01*
X911697Y23042D01*
X911773Y22965D01*
X911785Y22959D01*
X911796Y22949D01*
X911894Y22904D01*
X911991Y22856D01*
X912009Y22852D01*
X912018Y22848D01*
X912039Y22846D01*
X912136Y22827D01*
X916487Y22384D01*
X916858Y21225D01*
X916868Y21207D01*
X916906Y21110D01*
X917463Y20028D01*
X914699Y16638D01*
X914645Y16544D01*
X914588Y16452D01*
X914585Y16439D01*
X914578Y16427D01*
X914557Y16320D01*
X914532Y16215D01*
X914534Y16201D01*
X914531Y16187D01*
X914546Y16080D01*
X914556Y15972D01*
X914562Y15959D01*
X914564Y15946D01*
X914612Y15848D01*
X914657Y15749D01*
X914668Y15736D01*
X914672Y15727D01*
X914688Y15712D01*
X914750Y15635D01*
X917335Y13050D01*
X917424Y12987D01*
X917509Y12921D01*
X917522Y12916D01*
X917534Y12908D01*
X917637Y12877D01*
X917740Y12841D01*
X917754Y12841D01*
X917767Y12837D01*
X917875Y12841D01*
X917984Y12840D01*
X917997Y12845D01*
X918011Y12845D01*
X918113Y12883D01*
X918215Y12918D01*
X918230Y12927D01*
X918239Y12931D01*
X918256Y12945D01*
X918338Y12999D01*
X921728Y15763D01*
X922810Y15206D01*
X922863Y15189D01*
X922912Y15163D01*
X922978Y15152D01*
X923042Y15131D01*
X923098Y15132D01*
X923152Y15123D01*
X923219Y15134D01*
X923286Y15135D01*
X923338Y15153D01*
X923393Y15162D01*
X923453Y15194D01*
X923516Y15217D01*
X923559Y15251D01*
X923609Y15277D01*
X923655Y15326D01*
X923707Y15368D01*
X923738Y15415D01*
X923776Y15455D01*
X923832Y15560D01*
X923840Y15573D01*
X923841Y15578D01*
X923845Y15585D01*
X925998Y20782D01*
X926018Y20865D01*
X926023Y20878D01*
X926025Y20894D01*
X926050Y20979D01*
X926049Y21000D01*
X926054Y21020D01*
X926046Y21102D01*
X926048Y21121D01*
X926043Y21141D01*
X926039Y21222D01*
X926032Y21242D01*
X926030Y21263D01*
X925999Y21332D01*
X925992Y21359D01*
X925977Y21383D01*
X925951Y21450D01*
X925938Y21466D01*
X925929Y21485D01*
X925884Y21534D01*
X925864Y21566D01*
X925833Y21591D01*
X925795Y21637D01*
X925772Y21653D01*
X925762Y21663D01*
X925741Y21675D01*
X925676Y21720D01*
X925675Y21721D01*
X925674Y21722D01*
X924775Y22228D01*
X924088Y22872D01*
X923573Y23660D01*
X923261Y24548D01*
X923169Y25485D01*
X923302Y26417D01*
X923653Y27291D01*
X924202Y28056D01*
X924916Y28669D01*
X925756Y29094D01*
X926673Y29308D01*
X927614Y29298D01*
X928526Y29064D01*
X929356Y28621D01*
X930057Y27992D01*
X930589Y27215D01*
X930920Y26334D01*
X931033Y25399D01*
X930925Y24482D01*
X930605Y23614D01*
X930091Y22845D01*
X929412Y22218D01*
X928528Y21723D01*
X928486Y21690D01*
X928444Y21667D01*
X928413Y21634D01*
X928365Y21599D01*
X928353Y21583D01*
X928337Y21570D01*
X928302Y21515D01*
X928277Y21489D01*
X928263Y21458D01*
X928222Y21401D01*
X928216Y21382D01*
X928206Y21365D01*
X928187Y21290D01*
X928177Y21267D01*
X928174Y21243D01*
X928151Y21168D01*
X928152Y21148D01*
X928147Y21128D01*
X928154Y21043D01*
X928153Y21024D01*
X928156Y21007D01*
X928159Y20924D01*
X928167Y20899D01*
X928168Y20885D01*
X928178Y20863D01*
X928202Y20782D01*
X928511Y20037D01*
X929442Y17789D01*
X929752Y17040D01*
X930355Y15585D01*
X930384Y15538D01*
X930405Y15486D01*
X930448Y15435D01*
X930484Y15378D01*
X930527Y15343D01*
X930563Y15300D01*
X930620Y15266D01*
X930672Y15223D01*
X930724Y15204D01*
X930772Y15175D01*
X930838Y15161D01*
X930901Y15137D01*
X930956Y15135D01*
X931010Y15124D01*
X931077Y15131D01*
X931144Y15129D01*
X931198Y15145D01*
X931253Y15152D01*
X931364Y15196D01*
X931378Y15200D01*
X931382Y15203D01*
X931390Y15206D01*
X932472Y15763D01*
X935862Y12999D01*
X935956Y12945D01*
X936048Y12888D01*
X936061Y12885D01*
X936073Y12878D01*
X936180Y12857D01*
X936285Y12832D01*
X936299Y12834D01*
X936313Y12831D01*
X936420Y12846D01*
G37*
G36*
X936420Y932326D02*
X936420Y932326D01*
X936528Y932336D01*
X936541Y932342D01*
X936555Y932344D01*
X936652Y932392D01*
X936751Y932437D01*
X936764Y932448D01*
X936773Y932452D01*
X936788Y932468D01*
X936865Y932530D01*
X939450Y935115D01*
X939513Y935204D01*
X939579Y935289D01*
X939584Y935302D01*
X939592Y935314D01*
X939623Y935417D01*
X939659Y935520D01*
X939659Y935534D01*
X939663Y935547D01*
X939659Y935655D01*
X939660Y935764D01*
X939655Y935777D01*
X939655Y935791D01*
X939617Y935893D01*
X939582Y935995D01*
X939573Y936010D01*
X939569Y936019D01*
X939555Y936036D01*
X939501Y936118D01*
X936737Y939508D01*
X937294Y940590D01*
X937300Y940610D01*
X937342Y940705D01*
X937713Y941864D01*
X942064Y942307D01*
X942168Y942335D01*
X942274Y942360D01*
X942286Y942367D01*
X942299Y942370D01*
X942389Y942431D01*
X942482Y942488D01*
X942490Y942499D01*
X942502Y942507D01*
X942568Y942593D01*
X942637Y942677D01*
X942641Y942690D01*
X942650Y942701D01*
X942684Y942804D01*
X942723Y942905D01*
X942724Y942923D01*
X942728Y942932D01*
X942728Y942954D01*
X942737Y943052D01*
X942737Y946708D01*
X942720Y946815D01*
X942706Y946923D01*
X942700Y946935D01*
X942698Y946949D01*
X942646Y947045D01*
X942599Y947142D01*
X942589Y947152D01*
X942583Y947164D01*
X942503Y947238D01*
X942427Y947315D01*
X942415Y947321D01*
X942405Y947331D01*
X942306Y947376D01*
X942209Y947424D01*
X942191Y947428D01*
X942182Y947432D01*
X942161Y947434D01*
X942064Y947453D01*
X937713Y947896D01*
X937342Y949055D01*
X937333Y949073D01*
X937331Y949080D01*
X937327Y949087D01*
X937294Y949170D01*
X936737Y950252D01*
X939501Y953642D01*
X939555Y953736D01*
X939612Y953828D01*
X939615Y953841D01*
X939622Y953853D01*
X939643Y953960D01*
X939668Y954065D01*
X939666Y954079D01*
X939669Y954093D01*
X939654Y954200D01*
X939644Y954308D01*
X939638Y954321D01*
X939636Y954335D01*
X939588Y954432D01*
X939543Y954531D01*
X939532Y954544D01*
X939528Y954553D01*
X939512Y954568D01*
X939450Y954645D01*
X936865Y957230D01*
X936776Y957293D01*
X936691Y957359D01*
X936678Y957364D01*
X936666Y957372D01*
X936563Y957403D01*
X936460Y957439D01*
X936446Y957439D01*
X936433Y957443D01*
X936325Y957439D01*
X936216Y957440D01*
X936203Y957435D01*
X936189Y957435D01*
X936087Y957397D01*
X935985Y957362D01*
X935970Y957353D01*
X935961Y957349D01*
X935944Y957335D01*
X935862Y957281D01*
X932472Y954517D01*
X931390Y955074D01*
X931370Y955080D01*
X931275Y955122D01*
X930116Y955493D01*
X929673Y959844D01*
X929645Y959948D01*
X929620Y960054D01*
X929613Y960066D01*
X929610Y960079D01*
X929549Y960169D01*
X929492Y960262D01*
X929481Y960270D01*
X929473Y960282D01*
X929387Y960348D01*
X929303Y960417D01*
X929290Y960421D01*
X929279Y960430D01*
X929176Y960464D01*
X929075Y960503D01*
X929057Y960504D01*
X929048Y960508D01*
X929026Y960508D01*
X928928Y960517D01*
X925272Y960517D01*
X925165Y960500D01*
X925057Y960486D01*
X925045Y960480D01*
X925031Y960478D01*
X924935Y960426D01*
X924838Y960379D01*
X924828Y960369D01*
X924816Y960363D01*
X924742Y960283D01*
X924665Y960207D01*
X924659Y960195D01*
X924649Y960185D01*
X924604Y960086D01*
X924556Y959989D01*
X924552Y959971D01*
X924548Y959962D01*
X924546Y959941D01*
X924527Y959844D01*
X924084Y955493D01*
X922925Y955122D01*
X922907Y955112D01*
X922810Y955074D01*
X921728Y954517D01*
X918338Y957281D01*
X918244Y957335D01*
X918152Y957392D01*
X918139Y957395D01*
X918127Y957402D01*
X918020Y957423D01*
X917915Y957448D01*
X917901Y957446D01*
X917887Y957449D01*
X917780Y957434D01*
X917672Y957424D01*
X917659Y957418D01*
X917646Y957416D01*
X917548Y957368D01*
X917449Y957323D01*
X917436Y957312D01*
X917427Y957308D01*
X917412Y957292D01*
X917335Y957230D01*
X914750Y954645D01*
X914687Y954556D01*
X914621Y954471D01*
X914616Y954458D01*
X914608Y954446D01*
X914577Y954343D01*
X914541Y954240D01*
X914541Y954226D01*
X914537Y954213D01*
X914541Y954105D01*
X914540Y953996D01*
X914545Y953983D01*
X914545Y953969D01*
X914583Y953867D01*
X914618Y953765D01*
X914627Y953750D01*
X914631Y953741D01*
X914645Y953724D01*
X914699Y953642D01*
X917463Y950252D01*
X916906Y949170D01*
X916900Y949150D01*
X916858Y949055D01*
X916487Y947896D01*
X912136Y947453D01*
X912032Y947425D01*
X911926Y947400D01*
X911914Y947393D01*
X911901Y947390D01*
X911811Y947329D01*
X911718Y947272D01*
X911710Y947261D01*
X911698Y947253D01*
X911632Y947167D01*
X911564Y947083D01*
X911559Y947070D01*
X911550Y947059D01*
X911516Y946956D01*
X911477Y946855D01*
X911476Y946837D01*
X911472Y946828D01*
X911473Y946806D01*
X911463Y946708D01*
X911463Y943052D01*
X911480Y942945D01*
X911494Y942837D01*
X911500Y942825D01*
X911502Y942811D01*
X911554Y942715D01*
X911601Y942618D01*
X911611Y942608D01*
X911617Y942596D01*
X911697Y942522D01*
X911773Y942445D01*
X911785Y942439D01*
X911796Y942429D01*
X911894Y942384D01*
X911991Y942336D01*
X912009Y942332D01*
X912018Y942328D01*
X912039Y942326D01*
X912136Y942307D01*
X916487Y941864D01*
X916858Y940705D01*
X916868Y940687D01*
X916906Y940590D01*
X917463Y939508D01*
X914699Y936118D01*
X914645Y936024D01*
X914588Y935932D01*
X914585Y935919D01*
X914578Y935907D01*
X914557Y935800D01*
X914532Y935695D01*
X914534Y935681D01*
X914531Y935667D01*
X914546Y935560D01*
X914556Y935452D01*
X914562Y935439D01*
X914564Y935426D01*
X914612Y935328D01*
X914657Y935229D01*
X914668Y935216D01*
X914672Y935207D01*
X914688Y935192D01*
X914750Y935115D01*
X917335Y932530D01*
X917424Y932467D01*
X917509Y932401D01*
X917522Y932396D01*
X917534Y932388D01*
X917637Y932357D01*
X917740Y932321D01*
X917754Y932321D01*
X917767Y932317D01*
X917875Y932321D01*
X917984Y932320D01*
X917997Y932325D01*
X918011Y932325D01*
X918113Y932363D01*
X918215Y932398D01*
X918230Y932407D01*
X918239Y932411D01*
X918256Y932425D01*
X918338Y932479D01*
X921728Y935243D01*
X922810Y934686D01*
X922863Y934669D01*
X922912Y934643D01*
X922978Y934632D01*
X923042Y934611D01*
X923098Y934612D01*
X923152Y934603D01*
X923219Y934614D01*
X923286Y934615D01*
X923338Y934633D01*
X923393Y934642D01*
X923453Y934674D01*
X923516Y934697D01*
X923559Y934731D01*
X923609Y934757D01*
X923655Y934806D01*
X923707Y934848D01*
X923738Y934895D01*
X923776Y934935D01*
X923832Y935040D01*
X923840Y935053D01*
X923841Y935058D01*
X923845Y935065D01*
X925998Y940262D01*
X926018Y940345D01*
X926023Y940358D01*
X926025Y940374D01*
X926050Y940459D01*
X926049Y940480D01*
X926054Y940500D01*
X926046Y940582D01*
X926047Y940601D01*
X926043Y940621D01*
X926039Y940702D01*
X926032Y940722D01*
X926030Y940743D01*
X925998Y940812D01*
X925992Y940839D01*
X925977Y940863D01*
X925951Y940930D01*
X925938Y940946D01*
X925929Y940965D01*
X925884Y941014D01*
X925864Y941046D01*
X925833Y941071D01*
X925795Y941117D01*
X925772Y941133D01*
X925762Y941143D01*
X925741Y941155D01*
X925676Y941200D01*
X925675Y941201D01*
X925674Y941202D01*
X924775Y941708D01*
X924088Y942352D01*
X923573Y943140D01*
X923261Y944028D01*
X923169Y944965D01*
X923302Y945897D01*
X923653Y946771D01*
X924202Y947536D01*
X924916Y948149D01*
X925756Y948574D01*
X926673Y948788D01*
X927614Y948778D01*
X928526Y948544D01*
X929356Y948101D01*
X930057Y947472D01*
X930589Y946695D01*
X930920Y945814D01*
X931033Y944879D01*
X930925Y943962D01*
X930605Y943094D01*
X930091Y942325D01*
X929412Y941698D01*
X928528Y941203D01*
X928486Y941170D01*
X928444Y941147D01*
X928413Y941114D01*
X928365Y941079D01*
X928353Y941063D01*
X928337Y941050D01*
X928302Y940995D01*
X928277Y940969D01*
X928264Y940939D01*
X928222Y940881D01*
X928216Y940862D01*
X928206Y940845D01*
X928187Y940770D01*
X928177Y940747D01*
X928174Y940723D01*
X928151Y940648D01*
X928152Y940628D01*
X928147Y940608D01*
X928154Y940522D01*
X928153Y940504D01*
X928156Y940488D01*
X928159Y940404D01*
X928167Y940379D01*
X928168Y940365D01*
X928178Y940343D01*
X928202Y940262D01*
X929131Y938019D01*
X929131Y938018D01*
X930062Y935771D01*
X930063Y935771D01*
X930355Y935065D01*
X930384Y935018D01*
X930405Y934966D01*
X930448Y934915D01*
X930484Y934858D01*
X930527Y934823D01*
X930563Y934780D01*
X930620Y934746D01*
X930672Y934703D01*
X930724Y934684D01*
X930772Y934655D01*
X930838Y934641D01*
X930901Y934617D01*
X930956Y934615D01*
X931010Y934604D01*
X931077Y934611D01*
X931144Y934609D01*
X931198Y934625D01*
X931253Y934632D01*
X931364Y934676D01*
X931378Y934680D01*
X931382Y934683D01*
X931390Y934686D01*
X932472Y935243D01*
X935862Y932479D01*
X935956Y932425D01*
X936048Y932368D01*
X936061Y932365D01*
X936073Y932358D01*
X936180Y932337D01*
X936285Y932312D01*
X936299Y932314D01*
X936313Y932311D01*
X936420Y932326D01*
G37*
D10*
X322326Y47244D02*
X322326Y54102D01*
D11*
X1043900Y482400D03*
D12*
X935000Y482400D03*
X913400Y482400D03*
D11*
X874700Y482400D03*
X579500Y482400D03*
D13*
X1179800Y480600D03*
X1044800Y480600D03*
D14*
X1000700Y480600D03*
D13*
X935000Y480600D03*
X913400Y480600D03*
X875600Y480600D03*
D14*
X831500Y480600D03*
D15*
X649700Y480600D03*
D14*
X579500Y480600D03*
D16*
X1179800Y478800D03*
D14*
X1043900Y478800D03*
D17*
X1000700Y478800D03*
D13*
X935000Y478800D03*
X913400Y478800D03*
D14*
X874700Y478800D03*
D17*
X831500Y478800D03*
D18*
X801800Y478800D03*
X733400Y478800D03*
D19*
X647900Y478800D03*
D14*
X579500Y478800D03*
D20*
X1179800Y477000D03*
D14*
X1043900Y477000D03*
D20*
X1001600Y477000D03*
D13*
X935000Y477000D03*
X913400Y477000D03*
D14*
X874700Y477000D03*
D20*
X830600Y477000D03*
D13*
X801800Y477000D03*
X733400Y477000D03*
D21*
X647900Y477000D03*
D14*
X579500Y477000D03*
D22*
X1179800Y475200D03*
D14*
X1043900Y475200D03*
D23*
X1001600Y475200D03*
D13*
X935000Y475200D03*
X913400Y475200D03*
D14*
X874700Y475200D03*
D19*
X831500Y475200D03*
D14*
X800900Y475200D03*
D13*
X733400Y475200D03*
D22*
X647000Y475200D03*
D14*
X579500Y475200D03*
D24*
X1179800Y473400D03*
D14*
X1043900Y473400D03*
D21*
X1000700Y473400D03*
D13*
X935000Y473400D03*
X913400Y473400D03*
D14*
X874700Y473400D03*
D21*
X831500Y473400D03*
D14*
X800900Y473400D03*
X734300Y473400D03*
D25*
X646100Y473400D03*
D14*
X579500Y473400D03*
D26*
X1179800Y471600D03*
D14*
X1043900Y471600D03*
D21*
X1002500Y471600D03*
D13*
X935000Y471600D03*
D18*
X913400Y471600D03*
D14*
X874700Y471600D03*
D23*
X832400Y471600D03*
D14*
X800900Y471600D03*
X734300Y471600D03*
D24*
X645200Y471600D03*
D14*
X579500Y471600D03*
D26*
X1179800Y469800D03*
D14*
X1043900Y469800D03*
D27*
X1010600Y469800D03*
D13*
X992600Y469800D03*
X935000Y469800D03*
D14*
X874700Y469800D03*
D27*
X841400Y469800D03*
D13*
X823400Y469800D03*
D14*
X800900Y469800D03*
X734300Y469800D03*
D24*
X645200Y469800D03*
D14*
X579500Y469800D03*
D15*
X1193300Y468000D03*
X1166300Y468000D03*
D14*
X1043900Y468000D03*
X1011500Y468000D03*
D12*
X992600Y468000D03*
D18*
X962000Y468000D03*
D13*
X935000Y468000D03*
D14*
X874700Y468000D03*
X842300Y468000D03*
D12*
X823400Y468000D03*
D14*
X800900Y468000D03*
X734300Y468000D03*
D18*
X699200Y468000D03*
D14*
X656900Y468000D03*
D27*
X632600Y468000D03*
D18*
X605600Y468000D03*
D14*
X579500Y468000D03*
D27*
X1194200Y466200D03*
X1165400Y466200D03*
D11*
X1144700Y466200D03*
X1121300Y466200D03*
X1096100Y466200D03*
X1083500Y466200D03*
D13*
X1057400Y466200D03*
D14*
X1043900Y466200D03*
X1011500Y466200D03*
D15*
X962900Y466200D03*
D13*
X935000Y466200D03*
D11*
X914300Y466200D03*
D13*
X888200Y466200D03*
D14*
X874700Y466200D03*
X842300Y466200D03*
D28*
X799100Y466200D03*
D11*
X768500Y466200D03*
X754100Y466200D03*
D20*
X731600Y466200D03*
D15*
X698300Y466200D03*
D14*
X656900Y466200D03*
X631700Y466200D03*
D29*
X605600Y466200D03*
D14*
X579500Y466200D03*
D11*
X550700Y466200D03*
X536300Y466200D03*
X521900Y466200D03*
D12*
X497600Y466200D03*
D27*
X1196000Y464400D03*
X1163600Y464400D03*
D14*
X1144700Y464400D03*
D13*
X1122200Y464400D03*
D19*
X1090700Y464400D03*
D23*
X1052000Y464400D03*
D14*
X1011500Y464400D03*
D16*
X962000Y464400D03*
D13*
X935000Y464400D03*
X913400Y464400D03*
D23*
X882800Y464400D03*
D27*
X841400Y464400D03*
D19*
X799100Y464400D03*
D23*
X762200Y464400D03*
D19*
X732500Y464400D03*
D28*
X698300Y464400D03*
D14*
X656900Y464400D03*
X631700Y464400D03*
D16*
X605600Y464400D03*
D14*
X579500Y464400D03*
D23*
X544400Y464400D03*
D13*
X522800Y464400D03*
X497600Y464400D03*
D14*
X1196900Y462600D03*
X1162700Y462600D03*
X1144700Y462600D03*
X1121300Y462600D03*
D23*
X1091600Y462600D03*
D21*
X1052900Y462600D03*
D29*
X1008800Y462600D03*
D19*
X962900Y462600D03*
D13*
X935000Y462600D03*
X913400Y462600D03*
D21*
X883700Y462600D03*
D29*
X839600Y462600D03*
D19*
X799100Y462600D03*
D21*
X763100Y462600D03*
D23*
X731600Y462600D03*
D19*
X698300Y462600D03*
D14*
X656900Y462600D03*
X631700Y462600D03*
D19*
X606500Y462600D03*
D14*
X579500Y462600D03*
D21*
X545300Y462600D03*
D14*
X521900Y462600D03*
X496700Y462600D03*
X1196900Y460800D03*
X1162700Y460800D03*
X1144700Y460800D03*
X1121300Y460800D03*
D21*
X1092500Y460800D03*
D22*
X1053800Y460800D03*
D28*
X1004300Y460800D03*
D23*
X962000Y460800D03*
D13*
X935000Y460800D03*
X913400Y460800D03*
D22*
X884600Y460800D03*
D28*
X835100Y460800D03*
D19*
X799100Y460800D03*
D22*
X764000Y460800D03*
D23*
X731600Y460800D03*
X699200Y460800D03*
D14*
X656900Y460800D03*
X631700Y460800D03*
D23*
X605600Y460800D03*
D14*
X579500Y460800D03*
D22*
X546200Y460800D03*
D14*
X521900Y460800D03*
D27*
X497600Y460800D03*
D14*
X1196900Y459000D03*
X1162700Y459000D03*
X1144700Y459000D03*
X1121300Y459000D03*
D22*
X1093400Y459000D03*
X1053800Y459000D03*
D19*
X1002500Y459000D03*
D21*
X962900Y459000D03*
D13*
X935000Y459000D03*
X913400Y459000D03*
D22*
X884600Y459000D03*
D19*
X833300Y459000D03*
X799100Y459000D03*
D22*
X764000Y459000D03*
D23*
X731600Y459000D03*
D22*
X699200Y459000D03*
D14*
X656900Y459000D03*
D27*
X632600Y459000D03*
D21*
X606500Y459000D03*
D14*
X579500Y459000D03*
D22*
X546200Y459000D03*
D27*
X521000Y459000D03*
D14*
X498500Y459000D03*
X1196900Y457200D03*
X1162700Y457200D03*
X1144700Y457200D03*
X1121300Y457200D03*
D25*
X1094300Y457200D03*
X1054700Y457200D03*
D19*
X1000700Y457200D03*
D25*
X962900Y457200D03*
D13*
X935000Y457200D03*
X913400Y457200D03*
D25*
X885500Y457200D03*
D23*
X830600Y457200D03*
D19*
X799100Y457200D03*
D25*
X764900Y457200D03*
D20*
X731600Y457200D03*
D22*
X699200Y457200D03*
D30*
X644300Y457200D03*
D25*
X606500Y457200D03*
D14*
X579500Y457200D03*
D25*
X547100Y457200D03*
D27*
X519200Y457200D03*
X499400Y457200D03*
D14*
X1196900Y455400D03*
X1162700Y455400D03*
X1144700Y455400D03*
X1121300Y455400D03*
D25*
X1094300Y455400D03*
X1054700Y455400D03*
D19*
X998900Y455400D03*
D27*
X972800Y455400D03*
X953000Y455400D03*
D13*
X935000Y455400D03*
X913400Y455400D03*
D25*
X885500Y455400D03*
D20*
X828800Y455400D03*
D27*
X801800Y455400D03*
D18*
X791000Y455400D03*
D25*
X764900Y455400D03*
D27*
X735200Y455400D03*
D18*
X724400Y455400D03*
D27*
X710000Y455400D03*
D13*
X688400Y455400D03*
D24*
X645200Y455400D03*
D27*
X616400Y455400D03*
D14*
X595700Y455400D03*
X579500Y455400D03*
D25*
X547100Y455400D03*
D14*
X518300Y455400D03*
X500300Y455400D03*
X1196900Y453600D03*
X1162700Y453600D03*
X1144700Y453600D03*
X1121300Y453600D03*
X1105100Y453600D03*
D27*
X1084400Y453600D03*
X1066400Y453600D03*
X1044800Y453600D03*
D20*
X996200Y453600D03*
D14*
X973700Y453600D03*
D27*
X951200Y453600D03*
D13*
X935000Y453600D03*
X913400Y453600D03*
D27*
X897200Y453600D03*
X875600Y453600D03*
D28*
X826100Y453600D03*
D14*
X800900Y453600D03*
D27*
X776600Y453600D03*
X755000Y453600D03*
D14*
X734300Y453600D03*
X710900Y453600D03*
D13*
X688400Y453600D03*
D24*
X645200Y453600D03*
D14*
X617300Y453600D03*
X595700Y453600D03*
X579500Y453600D03*
D27*
X558800Y453600D03*
X537200Y453600D03*
X517400Y453600D03*
D14*
X500300Y453600D03*
X1196900Y451800D03*
X1162700Y451800D03*
X1144700Y451800D03*
X1121300Y451800D03*
D13*
X1106000Y451800D03*
D14*
X1083500Y451800D03*
X1067300Y451800D03*
X1043900Y451800D03*
D29*
X992600Y451800D03*
D13*
X974600Y451800D03*
D14*
X950300Y451800D03*
D13*
X935000Y451800D03*
X913400Y451800D03*
D14*
X898100Y451800D03*
X874700Y451800D03*
D29*
X823400Y451800D03*
D14*
X800900Y451800D03*
X777500Y451800D03*
X754100Y451800D03*
X734300Y451800D03*
D25*
X700100Y451800D03*
X646100Y451800D03*
X606500Y451800D03*
D14*
X579500Y451800D03*
X559700Y451800D03*
X536300Y451800D03*
X516500Y451800D03*
X502100Y451800D03*
X1196900Y450000D03*
X1162700Y450000D03*
X1144700Y450000D03*
X1121300Y450000D03*
X1106900Y450000D03*
X1083500Y450000D03*
X1067300Y450000D03*
X1043900Y450000D03*
X989900Y450000D03*
X975500Y450000D03*
X950300Y450000D03*
D13*
X935000Y450000D03*
X913400Y450000D03*
D14*
X898100Y450000D03*
X874700Y450000D03*
X820700Y450000D03*
X800900Y450000D03*
X777500Y450000D03*
X754100Y450000D03*
X734300Y450000D03*
D25*
X700100Y450000D03*
X646100Y450000D03*
D22*
X607400Y450000D03*
D14*
X579500Y450000D03*
X559700Y450000D03*
X536300Y450000D03*
D19*
X509300Y450000D03*
D27*
X1196000Y448200D03*
D14*
X1164500Y448200D03*
X1144700Y448200D03*
X1121300Y448200D03*
D13*
X1106000Y448200D03*
D14*
X1083500Y448200D03*
X1067300Y448200D03*
X1043900Y448200D03*
D12*
X1012400Y448200D03*
D14*
X989900Y448200D03*
D13*
X974600Y448200D03*
D14*
X950300Y448200D03*
D13*
X935000Y448200D03*
X913400Y448200D03*
D14*
X898100Y448200D03*
X874700Y448200D03*
D31*
X842300Y448200D03*
D14*
X820700Y448200D03*
X800900Y448200D03*
X777500Y448200D03*
X754100Y448200D03*
X734300Y448200D03*
D22*
X701000Y448200D03*
D25*
X646100Y448200D03*
D22*
X607400Y448200D03*
D14*
X579500Y448200D03*
X559700Y448200D03*
X536300Y448200D03*
D28*
X509300Y448200D03*
D27*
X1194200Y446400D03*
X1165400Y446400D03*
X1143800Y446400D03*
X1122200Y446400D03*
D14*
X1105100Y446400D03*
D27*
X1084400Y446400D03*
X1066400Y446400D03*
X1044800Y446400D03*
D13*
X1012400Y446400D03*
D14*
X989900Y446400D03*
X973700Y446400D03*
D27*
X951200Y446400D03*
D13*
X935000Y446400D03*
X913400Y446400D03*
D27*
X897200Y446400D03*
X875600Y446400D03*
D11*
X842300Y446400D03*
D14*
X820700Y446400D03*
X800900Y446400D03*
D27*
X776600Y446400D03*
X755000Y446400D03*
D14*
X734300Y446400D03*
D21*
X701900Y446400D03*
D25*
X646100Y446400D03*
D23*
X609200Y446400D03*
D14*
X579500Y446400D03*
D27*
X558800Y446400D03*
X537200Y446400D03*
D16*
X508400Y446400D03*
D29*
X1192400Y444600D03*
D17*
X1166300Y444600D03*
D25*
X1132100Y444600D03*
X1094300Y444600D03*
X1054700Y444600D03*
D14*
X1011500Y444600D03*
X989900Y444600D03*
D27*
X972800Y444600D03*
X953000Y444600D03*
D14*
X934100Y444600D03*
D13*
X913400Y444600D03*
D25*
X885500Y444600D03*
D14*
X842300Y444600D03*
X820700Y444600D03*
X800900Y444600D03*
D25*
X764900Y444600D03*
D13*
X733400Y444600D03*
D27*
X710000Y444600D03*
D14*
X656900Y444600D03*
X633500Y444600D03*
X617300Y444600D03*
X579500Y444600D03*
D25*
X547100Y444600D03*
D17*
X509300Y444600D03*
D32*
X1177100Y442800D03*
D25*
X1132100Y442800D03*
X1094300Y442800D03*
X1054700Y442800D03*
X1000700Y442800D03*
X962900Y442800D03*
D15*
X932300Y442800D03*
D13*
X913400Y442800D03*
D25*
X885500Y442800D03*
X831500Y442800D03*
D29*
X798200Y442800D03*
D25*
X764900Y442800D03*
D29*
X729800Y442800D03*
D27*
X708200Y442800D03*
D31*
X689300Y442800D03*
D14*
X656900Y442800D03*
X633500Y442800D03*
D15*
X615500Y442800D03*
D12*
X596600Y442800D03*
D29*
X576800Y442800D03*
D25*
X547100Y442800D03*
D29*
X508400Y442800D03*
D32*
X1175300Y441000D03*
D25*
X1132100Y441000D03*
D22*
X1093400Y441000D03*
X1053800Y441000D03*
X1001600Y441000D03*
D21*
X962900Y441000D03*
D29*
X931400Y441000D03*
D13*
X913400Y441000D03*
D22*
X884600Y441000D03*
X832400Y441000D03*
D17*
X797300Y441000D03*
D22*
X764000Y441000D03*
D17*
X728900Y441000D03*
D21*
X700100Y441000D03*
D14*
X656900Y441000D03*
D27*
X632600Y441000D03*
D23*
X607400Y441000D03*
D29*
X576800Y441000D03*
D22*
X546200Y441000D03*
D29*
X508400Y441000D03*
D33*
X1174400Y439200D03*
D22*
X1131200Y439200D03*
D21*
X1092500Y439200D03*
D22*
X1053800Y439200D03*
D21*
X1000700Y439200D03*
D23*
X962000Y439200D03*
D29*
X931400Y439200D03*
D13*
X913400Y439200D03*
D22*
X884600Y439200D03*
D21*
X831500Y439200D03*
D29*
X796400Y439200D03*
D22*
X764000Y439200D03*
D17*
X728900Y439200D03*
D23*
X699200Y439200D03*
D14*
X656900Y439200D03*
X631700Y439200D03*
D23*
X605600Y439200D03*
D15*
X575900Y439200D03*
D22*
X546200Y439200D03*
D27*
X508400Y439200D03*
D34*
X1173500Y437400D03*
D21*
X1130300Y437400D03*
D23*
X1091600Y437400D03*
D21*
X1052900Y437400D03*
D19*
X1000700Y437400D03*
D20*
X962000Y437400D03*
D15*
X930500Y437400D03*
D13*
X913400Y437400D03*
D21*
X883700Y437400D03*
D19*
X831500Y437400D03*
D29*
X796400Y437400D03*
D21*
X763100Y437400D03*
D29*
X728000Y437400D03*
D19*
X698300Y437400D03*
D14*
X656900Y437400D03*
X631700Y437400D03*
D23*
X605600Y437400D03*
D15*
X575900Y437400D03*
D21*
X545300Y437400D03*
D27*
X508400Y437400D03*
D20*
X1179800Y435600D03*
D14*
X1159100Y435600D03*
D19*
X1130300Y435600D03*
X1090700Y435600D03*
X1052900Y435600D03*
D28*
X1000700Y435600D03*
D16*
X962000Y435600D03*
D15*
X930500Y435600D03*
D13*
X913400Y435600D03*
D19*
X883700Y435600D03*
D28*
X831500Y435600D03*
D15*
X795500Y435600D03*
D23*
X762200Y435600D03*
D27*
X728000Y435600D03*
D20*
X697400Y435600D03*
D14*
X656900Y435600D03*
D13*
X630800Y435600D03*
D19*
X604700Y435600D03*
D15*
X575900Y435600D03*
D23*
X544400Y435600D03*
D14*
X509300Y435600D03*
D29*
X1179800Y433800D03*
D12*
X1158200Y433800D03*
D11*
X1135700Y433800D03*
X1121300Y433800D03*
X1096100Y433800D03*
X1083500Y433800D03*
D13*
X1057400Y433800D03*
D11*
X1043900Y433800D03*
D15*
X1000700Y433800D03*
X962900Y433800D03*
D13*
X929600Y433800D03*
D11*
X914300Y433800D03*
D13*
X888200Y433800D03*
D11*
X874700Y433800D03*
D15*
X831500Y433800D03*
D13*
X794600Y433800D03*
X767600Y433800D03*
D11*
X754100Y433800D03*
D14*
X727100Y433800D03*
D16*
X697400Y433800D03*
D11*
X656900Y433800D03*
X631700Y433800D03*
D17*
X604700Y433800D03*
D14*
X574100Y433800D03*
D13*
X549800Y433800D03*
D11*
X536300Y433800D03*
D14*
X509300Y433800D03*
D31*
X1178900Y432000D03*
D18*
X1001600Y432000D03*
D35*
X962900Y432000D03*
X831500Y432000D03*
D12*
X697400Y432000D03*
D11*
X604700Y432000D03*
D14*
X511100Y432000D03*
X511100Y430200D03*
X512900Y428400D03*
X512900Y426600D03*
D27*
X513800Y424800D03*
D14*
X514700Y423000D03*
X514700Y421200D03*
D35*
X182800Y823500D03*
D11*
X182800Y821700D03*
D14*
X182800Y819900D03*
D27*
X183700Y818100D03*
D15*
X184600Y816300D03*
D29*
X185500Y814500D03*
D16*
X187300Y812700D03*
D28*
X188200Y810900D03*
X188200Y809100D03*
X188200Y807300D03*
X188200Y805500D03*
D16*
X187300Y803700D03*
D35*
X193600Y801900D03*
D14*
X182800Y801900D03*
X182800Y800100D03*
X182800Y798300D03*
X182800Y796500D03*
X182800Y794700D03*
X182800Y792900D03*
X182800Y791100D03*
X182800Y789300D03*
X182800Y787500D03*
X182800Y785700D03*
X182800Y783900D03*
X182800Y782100D03*
X182800Y780300D03*
X182800Y778500D03*
D11*
X182800Y776700D03*
D13*
X639100Y823500D03*
D29*
X639100Y821700D03*
D28*
X638200Y819900D03*
D19*
X638200Y818100D03*
D23*
X639100Y816300D03*
D22*
X639100Y814500D03*
X639100Y812700D03*
D14*
X649000Y810900D03*
D27*
X628300Y810900D03*
D14*
X650800Y809100D03*
X627400Y809100D03*
X650800Y807300D03*
X627400Y807300D03*
X650800Y805500D03*
X627400Y805500D03*
X650800Y803700D03*
X627400Y803700D03*
D11*
X650800Y801900D03*
D27*
X628300Y801900D03*
X630100Y800100D03*
D15*
X631000Y798300D03*
D29*
X633700Y796500D03*
D17*
X636400Y794700D03*
X638200Y792900D03*
D16*
X640900Y791100D03*
X642700Y789300D03*
D21*
X640000Y787500D03*
D24*
X637300Y785700D03*
D30*
X638200Y783900D03*
X638200Y782100D03*
X638200Y780300D03*
D24*
X637300Y778500D03*
D22*
X637300Y776700D03*
D14*
X1095400Y823500D03*
D17*
X1095400Y821700D03*
D28*
X1095400Y819900D03*
D19*
X1095400Y818100D03*
D21*
X1095400Y816300D03*
X1095400Y814500D03*
D25*
X1095400Y812700D03*
D14*
X1106200Y810900D03*
X1084600Y810900D03*
D13*
X1105300Y809100D03*
D14*
X1084600Y809100D03*
D12*
X1105300Y807300D03*
D14*
X1084600Y807300D03*
D16*
X1089100Y805500D03*
D17*
X1090000Y803700D03*
X1091800Y801900D03*
X1091800Y800100D03*
X1090000Y798300D03*
D16*
X1089100Y796500D03*
D27*
X1085500Y794700D03*
D11*
X1108000Y792900D03*
D27*
X1083700Y792900D03*
D14*
X1108000Y791100D03*
X1082800Y791100D03*
X1108000Y789300D03*
X1082800Y789300D03*
D27*
X1107100Y787500D03*
D14*
X1084600Y787500D03*
D25*
X1095400Y785700D03*
X1095400Y783900D03*
D21*
X1095400Y782100D03*
D23*
X1096300Y780300D03*
D28*
X1095400Y778500D03*
D29*
X1096300Y776700D03*
D31*
X1095400Y774900D03*
D18*
X1560700Y823500D03*
X1542700Y823500D03*
D11*
X1559800Y821700D03*
D13*
X1542700Y821700D03*
D14*
X1559800Y819900D03*
X1541800Y819900D03*
X1559800Y818100D03*
X1541800Y818100D03*
X1559800Y816300D03*
X1541800Y816300D03*
X1559800Y814500D03*
X1541800Y814500D03*
X1561600Y812700D03*
X1541800Y812700D03*
X1561600Y810900D03*
X1541800Y810900D03*
X1561600Y809100D03*
X1541800Y809100D03*
X1561600Y807300D03*
X1541800Y807300D03*
X1563400Y805500D03*
X1541800Y805500D03*
X1563400Y803700D03*
X1541800Y803700D03*
X1563400Y801900D03*
X1541800Y801900D03*
D25*
X1552600Y800100D03*
D24*
X1553500Y798300D03*
X1553500Y796500D03*
X1553500Y794700D03*
X1553500Y792900D03*
D25*
X1552600Y791100D03*
D21*
X1550800Y789300D03*
D14*
X1541800Y787500D03*
X1541800Y785700D03*
X1541800Y783900D03*
X1541800Y782100D03*
X1541800Y780300D03*
X1541800Y778500D03*
D11*
X1541800Y776700D03*
D36*
X84200Y39440D03*
X83800Y39440D03*
X83400Y39440D03*
X83000Y39440D03*
X82600Y39440D03*
X82200Y39440D03*
X81800Y39440D03*
D37*
X81400Y24240D03*
D38*
X81400Y44840D03*
D39*
X81000Y23840D03*
D40*
X81000Y33640D03*
D41*
X81000Y39640D03*
D42*
X81000Y44840D03*
D39*
X81000Y55040D03*
D43*
X80600Y23440D03*
D44*
X80600Y33840D03*
D45*
X80600Y39640D03*
D46*
X80600Y44640D03*
D43*
X80600Y55440D03*
D47*
X80200Y23240D03*
D42*
X80200Y34040D03*
D48*
X80200Y39840D03*
D46*
X80200Y44640D03*
D47*
X80200Y55640D03*
D49*
X79800Y22840D03*
D42*
X79800Y34040D03*
D48*
X79800Y39840D03*
D46*
X79800Y44640D03*
D50*
X79800Y55840D03*
D49*
X79400Y22840D03*
D42*
X79400Y34040D03*
D40*
X79400Y40040D03*
D46*
X79400Y44640D03*
D49*
X79400Y56040D03*
D51*
X79000Y22640D03*
D42*
X79000Y34040D03*
D52*
X79000Y40240D03*
D46*
X79000Y44640D03*
D51*
X79000Y56240D03*
D41*
X78600Y22440D03*
D52*
X78600Y29840D03*
D44*
X78600Y33840D03*
D53*
X78600Y40440D03*
D46*
X78600Y44640D03*
D53*
X78600Y49240D03*
D41*
X78600Y56440D03*
X78200Y22440D03*
D54*
X78200Y31240D03*
D53*
X78200Y40440D03*
D46*
X78200Y44640D03*
D52*
X78200Y49440D03*
D41*
X78200Y56440D03*
X77800Y22440D03*
D39*
X77800Y31040D03*
D44*
X77800Y40640D03*
D46*
X77800Y44640D03*
D40*
X77800Y49640D03*
D55*
X77800Y56640D03*
X77400Y22240D03*
D39*
X77400Y31040D03*
D42*
X77400Y40840D03*
D46*
X77400Y44640D03*
D48*
X77400Y49840D03*
D55*
X77400Y56640D03*
X77000Y22240D03*
D52*
X77000Y28240D03*
D42*
X77000Y34040D03*
D46*
X77000Y41040D03*
X77000Y44640D03*
D45*
X77000Y50040D03*
D55*
X77000Y56640D03*
X76600Y22240D03*
D53*
X76600Y28040D03*
D46*
X76600Y34240D03*
X76600Y41040D03*
X76600Y44640D03*
D45*
X76600Y50040D03*
D55*
X76600Y56640D03*
X76200Y22240D03*
D53*
X76200Y28040D03*
D46*
X76200Y34240D03*
D56*
X76200Y37840D03*
D57*
X76200Y41240D03*
D46*
X76200Y44640D03*
D45*
X76200Y50040D03*
D55*
X76200Y56640D03*
X75800Y22240D03*
D53*
X75800Y28040D03*
D46*
X75800Y34240D03*
D57*
X75800Y38040D03*
D56*
X75800Y41440D03*
D46*
X75800Y44640D03*
D45*
X75800Y50040D03*
D55*
X75800Y56640D03*
X75400Y22240D03*
D53*
X75400Y28040D03*
D46*
X75400Y34240D03*
D57*
X75400Y38040D03*
D46*
X75400Y44640D03*
D45*
X75400Y50040D03*
D55*
X75400Y56640D03*
X75000Y22240D03*
D45*
X75000Y29240D03*
D46*
X75000Y34240D03*
X75000Y38240D03*
X75000Y44640D03*
D48*
X75000Y49840D03*
D55*
X75000Y56640D03*
D41*
X74600Y22440D03*
D45*
X74600Y29240D03*
D46*
X74600Y34240D03*
D42*
X74600Y38440D03*
D46*
X74600Y44640D03*
D48*
X74600Y49840D03*
D55*
X74600Y56640D03*
D41*
X74200Y22440D03*
D48*
X74200Y29440D03*
D46*
X74200Y34240D03*
D44*
X74200Y38640D03*
D46*
X74200Y44640D03*
D40*
X74200Y49640D03*
D41*
X74200Y56440D03*
X73800Y22440D03*
D40*
X73800Y29640D03*
D46*
X73800Y34240D03*
D44*
X73800Y38640D03*
D46*
X73800Y44640D03*
D52*
X73800Y49440D03*
D41*
X73800Y56440D03*
D51*
X73400Y22640D03*
D44*
X73400Y29840D03*
D46*
X73400Y34240D03*
D53*
X73400Y38840D03*
D46*
X73400Y44640D03*
D42*
X73400Y48840D03*
D51*
X73400Y56240D03*
X73000Y22640D03*
D46*
X73000Y34240D03*
D52*
X73000Y39040D03*
D46*
X73000Y44640D03*
D51*
X73000Y56240D03*
D49*
X72600Y22840D03*
D46*
X72600Y34240D03*
D40*
X72600Y39240D03*
D46*
X72600Y44640D03*
D49*
X72600Y56040D03*
D50*
X72200Y23040D03*
D46*
X72200Y34240D03*
D40*
X72200Y39240D03*
D46*
X72200Y44640D03*
D50*
X72200Y55840D03*
D47*
X71800Y23240D03*
D42*
X71800Y34040D03*
D48*
X71800Y39440D03*
D46*
X71800Y44640D03*
D47*
X71800Y55640D03*
D54*
X71400Y23640D03*
D53*
X71400Y34040D03*
D55*
X71400Y39440D03*
D42*
X71400Y44840D03*
D54*
X71400Y55240D03*
D58*
X71000Y24040D03*
D40*
X71000Y33640D03*
D41*
X71000Y39640D03*
D44*
X71000Y44640D03*
D37*
X71000Y54640D03*
D36*
X70600Y39440D03*
X70200Y39440D03*
X69800Y39440D03*
X69400Y39440D03*
X69000Y39440D03*
X68600Y39440D03*
X68200Y39440D03*
D59*
X109600Y39910D03*
X109200Y39910D03*
X108800Y39910D03*
X108400Y39910D03*
X108000Y39910D03*
X107600Y39910D03*
X107200Y39910D03*
D54*
X106800Y25310D03*
D60*
X106800Y39910D03*
D54*
X106800Y54510D03*
D50*
X106400Y24710D03*
D52*
X106400Y33510D03*
D50*
X106400Y39910D03*
D52*
X106400Y46310D03*
D50*
X106400Y55110D03*
D49*
X106000Y24510D03*
D44*
X106000Y33510D03*
D50*
X106000Y39910D03*
D44*
X106000Y46310D03*
D49*
X106000Y55310D03*
D51*
X105600Y24310D03*
D42*
X105600Y33710D03*
D51*
X105600Y39910D03*
D42*
X105600Y46110D03*
D51*
X105600Y55510D03*
D41*
X105200Y24110D03*
D46*
X105200Y33910D03*
D51*
X105200Y39910D03*
D46*
X105200Y45910D03*
D41*
X105200Y55710D03*
X104800Y24110D03*
D42*
X104800Y34110D03*
D41*
X104800Y40110D03*
D42*
X104800Y45710D03*
D41*
X104800Y55710D03*
X104400Y24110D03*
D57*
X104400Y30110D03*
D46*
X104400Y34310D03*
D55*
X104400Y39910D03*
D42*
X104400Y45710D03*
D57*
X104400Y50110D03*
D55*
X104400Y55910D03*
D41*
X104000Y24110D03*
D44*
X104000Y29910D03*
D42*
X104000Y34510D03*
D45*
X104000Y40110D03*
D44*
X104000Y45510D03*
X104000Y49910D03*
D55*
X104000Y55910D03*
D41*
X103600Y24110D03*
D52*
X103600Y29910D03*
D42*
X103600Y34510D03*
D48*
X103600Y39910D03*
D44*
X103600Y45510D03*
D52*
X103600Y49910D03*
D55*
X103600Y55910D03*
D49*
X103200Y24510D03*
D52*
X103200Y29510D03*
D44*
X103200Y34710D03*
D40*
X103200Y40110D03*
X103200Y45710D03*
D52*
X103200Y49510D03*
D55*
X103200Y55910D03*
D54*
X102800Y25310D03*
D53*
X102800Y34510D03*
D52*
X102800Y39910D03*
D41*
X102800Y46510D03*
X102800Y55710D03*
D54*
X102400Y25310D03*
D52*
X102400Y34710D03*
X102400Y39910D03*
D51*
X102400Y46310D03*
D41*
X102400Y55710D03*
D54*
X102000Y25310D03*
D40*
X102000Y34510D03*
D44*
X102000Y39910D03*
D51*
X102000Y46310D03*
X102000Y55510D03*
D54*
X101600Y25310D03*
D45*
X101600Y34510D03*
D44*
X101600Y39910D03*
D49*
X101600Y46110D03*
X101600Y55310D03*
D54*
X101200Y25310D03*
D40*
X101200Y34910D03*
D46*
X101200Y39910D03*
D49*
X101200Y46110D03*
D41*
X101200Y55710D03*
D54*
X100800Y25310D03*
D48*
X100800Y35110D03*
D46*
X100800Y39910D03*
D50*
X100800Y45910D03*
D41*
X100800Y55710D03*
D61*
X100400Y26110D03*
D40*
X100400Y35310D03*
D56*
X100400Y39910D03*
D39*
X100400Y46710D03*
D55*
X100400Y55910D03*
D41*
X100000Y24110D03*
D40*
X100000Y29710D03*
D48*
X100000Y35510D03*
D56*
X100000Y39910D03*
D45*
X100000Y44510D03*
D40*
X100000Y49710D03*
D55*
X100000Y55910D03*
X99600Y23910D03*
D52*
X99600Y29910D03*
D48*
X99600Y35510D03*
X99600Y44310D03*
D52*
X99600Y49910D03*
D55*
X99600Y55910D03*
X99200Y23910D03*
D52*
X99200Y29910D03*
D45*
X99200Y35710D03*
X99200Y44110D03*
D52*
X99200Y49910D03*
D55*
X99200Y55910D03*
X98800Y23910D03*
D44*
X98800Y29910D03*
D45*
X98800Y35710D03*
X98800Y44110D03*
D44*
X98800Y49910D03*
D55*
X98800Y55910D03*
X98400Y23910D03*
X98400Y35910D03*
X98400Y43910D03*
X98400Y55910D03*
X98000Y23910D03*
X98000Y35910D03*
X98000Y43910D03*
X98000Y55910D03*
D41*
X97600Y24110D03*
D51*
X97600Y35910D03*
X97600Y43910D03*
D41*
X97600Y55710D03*
D51*
X97200Y24310D03*
D49*
X97200Y35710D03*
X97200Y44110D03*
D51*
X97200Y55510D03*
D49*
X96800Y24510D03*
D47*
X96800Y35710D03*
X96800Y44110D03*
D49*
X96800Y55310D03*
D47*
X96400Y24910D03*
D39*
X96400Y35510D03*
X96400Y44310D03*
D47*
X96400Y54910D03*
D59*
X96000Y39910D03*
X95600Y39910D03*
X95200Y39910D03*
X94800Y39910D03*
X94400Y39910D03*
X94000Y39910D03*
X93600Y39910D03*
D62*
X160400Y41250D03*
D63*
X160000Y41250D03*
D64*
X159600Y41250D03*
D59*
X159200Y41250D03*
D65*
X158800Y41250D03*
D66*
X158400Y41250D03*
D36*
X158000Y41250D03*
D67*
X157600Y26250D03*
D37*
X157600Y37250D03*
D60*
X157600Y52050D03*
D61*
X157200Y25450D03*
D50*
X157200Y37250D03*
D52*
X157200Y45650D03*
D68*
X157200Y55250D03*
D37*
X156800Y25250D03*
D55*
X156800Y37250D03*
D42*
X156800Y45850D03*
D68*
X156800Y55250D03*
D37*
X156400Y24850D03*
D40*
X156400Y37050D03*
D46*
X156400Y46050D03*
D68*
X156400Y55650D03*
D37*
X156000Y24850D03*
D52*
X156000Y36850D03*
D57*
X156000Y46250D03*
D68*
X156000Y55650D03*
D37*
X155600Y24450D03*
D52*
X155600Y36450D03*
D57*
X155600Y46250D03*
D69*
X155600Y55850D03*
D37*
X155200Y24450D03*
D42*
X155200Y32250D03*
D53*
X155200Y36250D03*
D46*
X155200Y46050D03*
D69*
X155200Y55850D03*
D37*
X154800Y24450D03*
D53*
X154800Y32250D03*
D52*
X154800Y36050D03*
X154800Y42050D03*
D42*
X154800Y45850D03*
D69*
X154800Y55850D03*
D61*
X154400Y24250D03*
D50*
X154400Y34050D03*
D45*
X154400Y42250D03*
D44*
X154400Y45650D03*
D70*
X154400Y56050D03*
D61*
X154000Y24250D03*
D49*
X154000Y34250D03*
D43*
X154000Y43250D03*
D70*
X154000Y56050D03*
D61*
X153600Y24250D03*
D41*
X153600Y34650D03*
D54*
X153600Y43050D03*
D70*
X153600Y56050D03*
D61*
X153200Y24250D03*
D52*
X153200Y35250D03*
D54*
X153200Y43050D03*
D70*
X153200Y56050D03*
D71*
X152800Y24450D03*
D44*
X152800Y35650D03*
D54*
X152800Y43050D03*
D70*
X152800Y56050D03*
D67*
X152400Y24650D03*
D46*
X152400Y36050D03*
D54*
X152400Y43050D03*
D70*
X152400Y56050D03*
D72*
X152000Y24850D03*
D46*
X152000Y36050D03*
D54*
X152000Y43050D03*
D70*
X152000Y56050D03*
D73*
X151600Y25250D03*
D57*
X151600Y36250D03*
D54*
X151600Y43050D03*
D70*
X151600Y56050D03*
D68*
X151200Y26050D03*
D46*
X151200Y36450D03*
D54*
X151200Y43050D03*
D70*
X151200Y56050D03*
X150800Y26450D03*
D46*
X150800Y36450D03*
D54*
X150800Y43050D03*
D70*
X150800Y56050D03*
D71*
X150400Y24450D03*
D40*
X150400Y31850D03*
D46*
X150400Y36450D03*
D43*
X150400Y43250D03*
D70*
X150400Y56050D03*
D37*
X150000Y24450D03*
D52*
X150000Y32050D03*
D42*
X150000Y36650D03*
D48*
X150000Y42050D03*
D42*
X150000Y45850D03*
D69*
X150000Y55850D03*
D37*
X149600Y24450D03*
D53*
X149600Y32250D03*
D42*
X149600Y36650D03*
D44*
X149600Y42050D03*
D46*
X149600Y46050D03*
D69*
X149600Y55850D03*
D58*
X149200Y24250D03*
D44*
X149200Y36850D03*
D46*
X149200Y46050D03*
D69*
X149200Y55850D03*
D58*
X148800Y24650D03*
D44*
X148800Y36850D03*
D57*
X148800Y46250D03*
D39*
X148800Y58050D03*
D58*
X148400Y24650D03*
D52*
X148400Y36850D03*
D57*
X148400Y46250D03*
D39*
X148400Y58050D03*
D58*
X148000Y25050D03*
D45*
X148000Y37050D03*
D46*
X148000Y46050D03*
D54*
X148000Y57850D03*
D61*
X147600Y25450D03*
D41*
X147600Y37050D03*
D53*
X147600Y45850D03*
D54*
X147600Y57850D03*
D61*
X147200Y25850D03*
D47*
X147200Y37050D03*
D40*
X147200Y45450D03*
D54*
X147200Y57450D03*
D36*
X146800Y41250D03*
D66*
X146400Y41250D03*
D65*
X146000Y41250D03*
D59*
X145600Y41250D03*
D64*
X145200Y41250D03*
D63*
X144800Y41250D03*
D62*
X144400Y41250D03*
D63*
X135000Y42450D03*
D74*
X134600Y42450D03*
D65*
X134200Y42450D03*
D36*
X133800Y42450D03*
D75*
X133400Y42450D03*
D76*
X133000Y42450D03*
D77*
X132600Y42450D03*
D67*
X132200Y26250D03*
D78*
X132200Y48250D03*
D71*
X131800Y25650D03*
D52*
X131800Y35650D03*
D58*
X131800Y46650D03*
D79*
X131800Y58050D03*
D37*
X131400Y25250D03*
D44*
X131400Y36050D03*
D43*
X131400Y46850D03*
D80*
X131400Y58250D03*
D37*
X131000Y24850D03*
D42*
X131000Y36250D03*
D49*
X131000Y47050D03*
D79*
X131000Y58450D03*
D37*
X130600Y24850D03*
D42*
X130600Y36250D03*
D51*
X130600Y47250D03*
D80*
X130600Y58650D03*
D37*
X130200Y24450D03*
D42*
X130200Y36250D03*
D55*
X130200Y47250D03*
D79*
X130200Y58850D03*
D37*
X129800Y24450D03*
D42*
X129800Y32250D03*
D44*
X129800Y36050D03*
D45*
X129800Y47450D03*
D80*
X129800Y59050D03*
D37*
X129400Y24450D03*
D53*
X129400Y32250D03*
X129400Y35850D03*
X129400Y40650D03*
D45*
X129400Y47450D03*
D80*
X129400Y59050D03*
D61*
X129000Y24250D03*
D50*
X129000Y34050D03*
D40*
X129000Y41050D03*
X129000Y47450D03*
D79*
X129000Y59250D03*
D61*
X128600Y24250D03*
D49*
X128600Y34250D03*
D48*
X128600Y41250D03*
D40*
X128600Y47450D03*
D80*
X128600Y59450D03*
D61*
X128200Y24250D03*
D41*
X128200Y34650D03*
D45*
X128200Y41450D03*
D53*
X128200Y47450D03*
D80*
X128200Y59450D03*
D71*
X127800Y24450D03*
D40*
X127800Y35450D03*
D45*
X127800Y41450D03*
D53*
X127800Y47450D03*
D73*
X127800Y59650D03*
D71*
X127400Y24450D03*
D44*
X127400Y36050D03*
D55*
X127400Y41650D03*
D44*
X127400Y47250D03*
D57*
X127400Y51450D03*
D73*
X127400Y59650D03*
D67*
X127000Y24650D03*
D42*
X127000Y36250D03*
D55*
X127000Y41650D03*
D44*
X127000Y47250D03*
D57*
X127000Y51450D03*
D81*
X127000Y59850D03*
D72*
X126600Y24850D03*
D46*
X126600Y36450D03*
D55*
X126600Y41650D03*
D42*
X126600Y47050D03*
D46*
X126600Y51250D03*
D81*
X126600Y59850D03*
D80*
X126200Y25450D03*
D46*
X126200Y36450D03*
D45*
X126200Y41450D03*
D42*
X126200Y47050D03*
X126200Y51450D03*
D72*
X126200Y60050D03*
D68*
X125800Y26050D03*
D46*
X125800Y36450D03*
D45*
X125800Y41450D03*
D46*
X125800Y46850D03*
D72*
X125800Y60050D03*
D82*
X125400Y26650D03*
D46*
X125400Y36450D03*
D45*
X125400Y41450D03*
D42*
X125400Y46650D03*
D67*
X125400Y60250D03*
D71*
X125000Y24450D03*
D40*
X125000Y31850D03*
D57*
X125000Y36650D03*
D48*
X125000Y41250D03*
D46*
X125000Y46450D03*
D67*
X125000Y60250D03*
D37*
X124600Y24450D03*
D52*
X124600Y32050D03*
D46*
X124600Y36450D03*
D40*
X124600Y41050D03*
D46*
X124600Y46450D03*
D61*
X124600Y60250D03*
D37*
X124200Y24450D03*
D53*
X124200Y32250D03*
D46*
X124200Y36450D03*
D42*
X124200Y40650D03*
D46*
X124200Y46050D03*
D61*
X124200Y60250D03*
D37*
X123800Y24450D03*
D46*
X123800Y36450D03*
D42*
X123800Y45850D03*
D45*
X123800Y51450D03*
D37*
X123800Y60450D03*
D58*
X123400Y24650D03*
D46*
X123400Y36450D03*
D42*
X123400Y45450D03*
D55*
X123400Y51250D03*
D58*
X123400Y60250D03*
D37*
X123000Y24850D03*
D42*
X123000Y36250D03*
X123000Y45450D03*
D41*
X123000Y51450D03*
D39*
X123000Y60450D03*
D58*
X122600Y25050D03*
D44*
X122600Y36050D03*
D53*
X122600Y45050D03*
D51*
X122600Y51250D03*
D54*
X122600Y60250D03*
D61*
X122200Y25450D03*
D53*
X122200Y35850D03*
D52*
X122200Y44850D03*
D49*
X122200Y51450D03*
D54*
X122200Y60250D03*
D71*
X121800Y26050D03*
D48*
X121800Y35650D03*
D55*
X121800Y44450D03*
D50*
X121800Y51250D03*
D39*
X121800Y59650D03*
D77*
X121400Y42450D03*
D76*
X121000Y42450D03*
D75*
X120600Y42450D03*
D36*
X120200Y42450D03*
D65*
X119800Y42450D03*
D74*
X119400Y42450D03*
D63*
X119000Y42450D03*
D83*
X185800Y38310D03*
D84*
X185400Y38310D03*
D85*
X185000Y38310D03*
D86*
X184600Y38310D03*
D48*
X184200Y25510D03*
D45*
X184200Y50910D03*
D48*
X183800Y25110D03*
D45*
X183800Y51310D03*
X183400Y24910D03*
D55*
X183400Y51510D03*
X183000Y24710D03*
D41*
X183000Y51710D03*
X182600Y24510D03*
D51*
X182600Y51910D03*
D49*
X182200Y24510D03*
D50*
X182200Y51910D03*
D87*
X181800Y38310D03*
D64*
X181400Y38310D03*
D74*
X181000Y38310D03*
D59*
X180600Y38310D03*
D58*
X180200Y23710D03*
D55*
X180200Y34310D03*
D42*
X180200Y40510D03*
D39*
X180200Y53110D03*
D58*
X179800Y23710D03*
D52*
X179800Y34310D03*
D57*
X179800Y40510D03*
D39*
X179800Y53110D03*
D37*
X179400Y23510D03*
D44*
X179400Y34310D03*
D56*
X179400Y40710D03*
D58*
X179400Y53310D03*
D61*
X179000Y23310D03*
D42*
X179000Y34510D03*
D57*
X179000Y40910D03*
D37*
X179000Y53510D03*
D61*
X178600Y23310D03*
D57*
X178600Y34510D03*
D48*
X178600Y42310D03*
D80*
X178600Y52110D03*
D61*
X178200Y23310D03*
D44*
X178200Y30710D03*
D57*
X178200Y34510D03*
D44*
X178200Y37910D03*
D45*
X178200Y42110D03*
D79*
X178200Y51910D03*
D61*
X177800Y23310D03*
D53*
X177800Y30910D03*
D57*
X177800Y34510D03*
D54*
X177800Y40510D03*
D79*
X177800Y51910D03*
D61*
X177400Y23310D03*
D53*
X177400Y30910D03*
D57*
X177400Y34510D03*
D43*
X177400Y40710D03*
D79*
X177400Y51910D03*
D61*
X177000Y23310D03*
D53*
X177000Y30910D03*
D57*
X177000Y34510D03*
D50*
X177000Y41110D03*
D79*
X177000Y51910D03*
D61*
X176600Y23310D03*
D53*
X176600Y30910D03*
D46*
X176600Y34710D03*
D55*
X176600Y41910D03*
D79*
X176600Y51910D03*
D37*
X176200Y23510D03*
D44*
X176200Y30710D03*
D42*
X176200Y34910D03*
D48*
X176200Y42310D03*
D80*
X176200Y51710D03*
D58*
X175800Y23710D03*
D44*
X175800Y35110D03*
D40*
X175800Y42510D03*
D73*
X175800Y51510D03*
D58*
X175400Y23710D03*
D40*
X175400Y35310D03*
X175400Y42510D03*
D73*
X175400Y51510D03*
D39*
X175000Y23910D03*
D51*
X175000Y35910D03*
D40*
X175000Y42510D03*
D81*
X175000Y51310D03*
D54*
X174600Y24110D03*
D51*
X174600Y36310D03*
D40*
X174600Y42510D03*
D72*
X174600Y51110D03*
D43*
X174200Y24310D03*
D42*
X174200Y34510D03*
D53*
X174200Y37710D03*
D40*
X174200Y42510D03*
D67*
X174200Y50910D03*
D47*
X173800Y24510D03*
D44*
X173800Y30710D03*
D57*
X173800Y34510D03*
D44*
X173800Y37910D03*
D40*
X173800Y42510D03*
D71*
X173800Y50710D03*
D50*
X173400Y24710D03*
D44*
X173400Y30710D03*
D57*
X173400Y34510D03*
D40*
X173400Y42510D03*
D61*
X173400Y50510D03*
D49*
X173000Y24910D03*
D53*
X173000Y30910D03*
D57*
X173000Y34510D03*
D40*
X173000Y42510D03*
D37*
X173000Y50310D03*
D51*
X172600Y25110D03*
D53*
X172600Y30910D03*
D57*
X172600Y34910D03*
D48*
X172600Y42310D03*
D58*
X172600Y50110D03*
D41*
X172200Y25310D03*
D52*
X172200Y31110D03*
D46*
X172200Y35110D03*
D45*
X172200Y42110D03*
D39*
X172200Y49910D03*
D55*
X171800Y25510D03*
D40*
X171800Y30910D03*
D52*
X171800Y35110D03*
D51*
X171800Y41910D03*
D54*
X171800Y49710D03*
D88*
X171400Y38310D03*
D86*
X171000Y38310D03*
D85*
X170600Y38310D03*
D84*
X170200Y38310D03*
D83*
X169800Y38310D03*
D10*
X322326Y966724D02*
X322326Y973582D01*
D11*
X1043900Y1401880D03*
D12*
X935000Y1401880D03*
X913400Y1401880D03*
D11*
X874700Y1401880D03*
X579500Y1401880D03*
D13*
X1179800Y1400080D03*
X1044800Y1400080D03*
D14*
X1000700Y1400080D03*
D13*
X935000Y1400080D03*
X913400Y1400080D03*
X875600Y1400080D03*
D14*
X831500Y1400080D03*
D15*
X649700Y1400080D03*
D14*
X579500Y1400080D03*
D16*
X1179800Y1398280D03*
D14*
X1043900Y1398280D03*
D17*
X1000700Y1398280D03*
D13*
X935000Y1398280D03*
X913400Y1398280D03*
D14*
X874700Y1398280D03*
D17*
X831500Y1398280D03*
D18*
X801800Y1398280D03*
X733400Y1398280D03*
D19*
X647900Y1398280D03*
D14*
X579500Y1398280D03*
D20*
X1179800Y1396480D03*
D14*
X1043900Y1396480D03*
D20*
X1001600Y1396480D03*
D13*
X935000Y1396480D03*
X913400Y1396480D03*
D14*
X874700Y1396480D03*
D20*
X830600Y1396480D03*
D13*
X801800Y1396480D03*
X733400Y1396480D03*
D21*
X647900Y1396480D03*
D14*
X579500Y1396480D03*
D22*
X1179800Y1394680D03*
D14*
X1043900Y1394680D03*
D23*
X1001600Y1394680D03*
D13*
X935000Y1394680D03*
X913400Y1394680D03*
D14*
X874700Y1394680D03*
D19*
X831500Y1394680D03*
D14*
X800900Y1394680D03*
D13*
X733400Y1394680D03*
D22*
X647000Y1394680D03*
D14*
X579500Y1394680D03*
D24*
X1179800Y1392880D03*
D14*
X1043900Y1392880D03*
D21*
X1000700Y1392880D03*
D13*
X935000Y1392880D03*
X913400Y1392880D03*
D14*
X874700Y1392880D03*
D21*
X831500Y1392880D03*
D14*
X800900Y1392880D03*
X734300Y1392880D03*
D25*
X646100Y1392880D03*
D14*
X579500Y1392880D03*
D26*
X1179800Y1391080D03*
D14*
X1043900Y1391080D03*
D21*
X1002500Y1391080D03*
D13*
X935000Y1391080D03*
D18*
X913400Y1391080D03*
D14*
X874700Y1391080D03*
D23*
X832400Y1391080D03*
D14*
X800900Y1391080D03*
X734300Y1391080D03*
D24*
X645200Y1391080D03*
D14*
X579500Y1391080D03*
D26*
X1179800Y1389280D03*
D14*
X1043900Y1389280D03*
D27*
X1010600Y1389280D03*
D13*
X992600Y1389280D03*
X935000Y1389280D03*
D14*
X874700Y1389280D03*
D27*
X841400Y1389280D03*
D13*
X823400Y1389280D03*
D14*
X800900Y1389280D03*
X734300Y1389280D03*
D24*
X645200Y1389280D03*
D14*
X579500Y1389280D03*
D15*
X1193300Y1387480D03*
X1166300Y1387480D03*
D14*
X1043900Y1387480D03*
X1011500Y1387480D03*
D12*
X992600Y1387480D03*
D18*
X962000Y1387480D03*
D13*
X935000Y1387480D03*
D14*
X874700Y1387480D03*
X842300Y1387480D03*
D12*
X823400Y1387480D03*
D14*
X800900Y1387480D03*
X734300Y1387480D03*
D18*
X699200Y1387480D03*
D14*
X656900Y1387480D03*
D27*
X632600Y1387480D03*
D18*
X605600Y1387480D03*
D14*
X579500Y1387480D03*
D27*
X1194200Y1385680D03*
X1165400Y1385680D03*
D11*
X1144700Y1385680D03*
X1121300Y1385680D03*
X1096100Y1385680D03*
X1083500Y1385680D03*
D13*
X1057400Y1385680D03*
D14*
X1043900Y1385680D03*
X1011500Y1385680D03*
D15*
X962900Y1385680D03*
D13*
X935000Y1385680D03*
D11*
X914300Y1385680D03*
D13*
X888200Y1385680D03*
D14*
X874700Y1385680D03*
X842300Y1385680D03*
D28*
X799100Y1385680D03*
D11*
X768500Y1385680D03*
X754100Y1385680D03*
D20*
X731600Y1385680D03*
D15*
X698300Y1385680D03*
D14*
X656900Y1385680D03*
X631700Y1385680D03*
D29*
X605600Y1385680D03*
D14*
X579500Y1385680D03*
D11*
X550700Y1385680D03*
X536300Y1385680D03*
X521900Y1385680D03*
D12*
X497600Y1385680D03*
D27*
X1196000Y1383880D03*
X1163600Y1383880D03*
D14*
X1144700Y1383880D03*
D13*
X1122200Y1383880D03*
D19*
X1090700Y1383880D03*
D23*
X1052000Y1383880D03*
D14*
X1011500Y1383880D03*
D16*
X962000Y1383880D03*
D13*
X935000Y1383880D03*
X913400Y1383880D03*
D23*
X882800Y1383880D03*
D27*
X841400Y1383880D03*
D19*
X799100Y1383880D03*
D23*
X762200Y1383880D03*
D19*
X732500Y1383880D03*
D28*
X698300Y1383880D03*
D14*
X656900Y1383880D03*
X631700Y1383880D03*
D16*
X605600Y1383880D03*
D14*
X579500Y1383880D03*
D23*
X544400Y1383880D03*
D13*
X522800Y1383880D03*
X497600Y1383880D03*
D14*
X1196900Y1382080D03*
X1162700Y1382080D03*
X1144700Y1382080D03*
X1121300Y1382080D03*
D23*
X1091600Y1382080D03*
D21*
X1052900Y1382080D03*
D29*
X1008800Y1382080D03*
D19*
X962900Y1382080D03*
D13*
X935000Y1382080D03*
X913400Y1382080D03*
D21*
X883700Y1382080D03*
D29*
X839600Y1382080D03*
D19*
X799100Y1382080D03*
D21*
X763100Y1382080D03*
D23*
X731600Y1382080D03*
D19*
X698300Y1382080D03*
D14*
X656900Y1382080D03*
X631700Y1382080D03*
D19*
X606500Y1382080D03*
D14*
X579500Y1382080D03*
D21*
X545300Y1382080D03*
D14*
X521900Y1382080D03*
X496700Y1382080D03*
X1196900Y1380280D03*
X1162700Y1380280D03*
X1144700Y1380280D03*
X1121300Y1380280D03*
D21*
X1092500Y1380280D03*
D22*
X1053800Y1380280D03*
D28*
X1004300Y1380280D03*
D23*
X962000Y1380280D03*
D13*
X935000Y1380280D03*
X913400Y1380280D03*
D22*
X884600Y1380280D03*
D28*
X835100Y1380280D03*
D19*
X799100Y1380280D03*
D22*
X764000Y1380280D03*
D23*
X731600Y1380280D03*
X699200Y1380280D03*
D14*
X656900Y1380280D03*
X631700Y1380280D03*
D23*
X605600Y1380280D03*
D14*
X579500Y1380280D03*
D22*
X546200Y1380280D03*
D14*
X521900Y1380280D03*
D27*
X497600Y1380280D03*
D14*
X1196900Y1378480D03*
X1162700Y1378480D03*
X1144700Y1378480D03*
X1121300Y1378480D03*
D22*
X1093400Y1378480D03*
X1053800Y1378480D03*
D19*
X1002500Y1378480D03*
D21*
X962900Y1378480D03*
D13*
X935000Y1378480D03*
X913400Y1378480D03*
D22*
X884600Y1378480D03*
D19*
X833300Y1378480D03*
X799100Y1378480D03*
D22*
X764000Y1378480D03*
D23*
X731600Y1378480D03*
D22*
X699200Y1378480D03*
D14*
X656900Y1378480D03*
D27*
X632600Y1378480D03*
D21*
X606500Y1378480D03*
D14*
X579500Y1378480D03*
D22*
X546200Y1378480D03*
D27*
X521000Y1378480D03*
D14*
X498500Y1378480D03*
X1196900Y1376680D03*
X1162700Y1376680D03*
X1144700Y1376680D03*
X1121300Y1376680D03*
D25*
X1094300Y1376680D03*
X1054700Y1376680D03*
D19*
X1000700Y1376680D03*
D25*
X962900Y1376680D03*
D13*
X935000Y1376680D03*
X913400Y1376680D03*
D25*
X885500Y1376680D03*
D23*
X830600Y1376680D03*
D19*
X799100Y1376680D03*
D25*
X764900Y1376680D03*
D20*
X731600Y1376680D03*
D22*
X699200Y1376680D03*
D30*
X644300Y1376680D03*
D25*
X606500Y1376680D03*
D14*
X579500Y1376680D03*
D25*
X547100Y1376680D03*
D27*
X519200Y1376680D03*
X499400Y1376680D03*
D14*
X1196900Y1374880D03*
X1162700Y1374880D03*
X1144700Y1374880D03*
X1121300Y1374880D03*
D25*
X1094300Y1374880D03*
X1054700Y1374880D03*
D19*
X998900Y1374880D03*
D27*
X972800Y1374880D03*
X953000Y1374880D03*
D13*
X935000Y1374880D03*
X913400Y1374880D03*
D25*
X885500Y1374880D03*
D20*
X828800Y1374880D03*
D27*
X801800Y1374880D03*
D18*
X791000Y1374880D03*
D25*
X764900Y1374880D03*
D27*
X735200Y1374880D03*
D18*
X724400Y1374880D03*
D27*
X710000Y1374880D03*
D13*
X688400Y1374880D03*
D24*
X645200Y1374880D03*
D27*
X616400Y1374880D03*
D14*
X595700Y1374880D03*
X579500Y1374880D03*
D25*
X547100Y1374880D03*
D14*
X518300Y1374880D03*
X500300Y1374880D03*
X1196900Y1373080D03*
X1162700Y1373080D03*
X1144700Y1373080D03*
X1121300Y1373080D03*
X1105100Y1373080D03*
D27*
X1084400Y1373080D03*
X1066400Y1373080D03*
X1044800Y1373080D03*
D20*
X996200Y1373080D03*
D14*
X973700Y1373080D03*
D27*
X951200Y1373080D03*
D13*
X935000Y1373080D03*
X913400Y1373080D03*
D27*
X897200Y1373080D03*
X875600Y1373080D03*
D28*
X826100Y1373080D03*
D14*
X800900Y1373080D03*
D27*
X776600Y1373080D03*
X755000Y1373080D03*
D14*
X734300Y1373080D03*
X710900Y1373080D03*
D13*
X688400Y1373080D03*
D24*
X645200Y1373080D03*
D14*
X617300Y1373080D03*
X595700Y1373080D03*
X579500Y1373080D03*
D27*
X558800Y1373080D03*
X537200Y1373080D03*
X517400Y1373080D03*
D14*
X500300Y1373080D03*
X1196900Y1371280D03*
X1162700Y1371280D03*
X1144700Y1371280D03*
X1121300Y1371280D03*
D13*
X1106000Y1371280D03*
D14*
X1083500Y1371280D03*
X1067300Y1371280D03*
X1043900Y1371280D03*
D29*
X992600Y1371280D03*
D13*
X974600Y1371280D03*
D14*
X950300Y1371280D03*
D13*
X935000Y1371280D03*
X913400Y1371280D03*
D14*
X898100Y1371280D03*
X874700Y1371280D03*
D29*
X823400Y1371280D03*
D14*
X800900Y1371280D03*
X777500Y1371280D03*
X754100Y1371280D03*
X734300Y1371280D03*
D25*
X700100Y1371280D03*
X646100Y1371280D03*
X606500Y1371280D03*
D14*
X579500Y1371280D03*
X559700Y1371280D03*
X536300Y1371280D03*
X516500Y1371280D03*
X502100Y1371280D03*
X1196900Y1369480D03*
X1162700Y1369480D03*
X1144700Y1369480D03*
X1121300Y1369480D03*
X1106900Y1369480D03*
X1083500Y1369480D03*
X1067300Y1369480D03*
X1043900Y1369480D03*
X989900Y1369480D03*
X975500Y1369480D03*
X950300Y1369480D03*
D13*
X935000Y1369480D03*
X913400Y1369480D03*
D14*
X898100Y1369480D03*
X874700Y1369480D03*
X820700Y1369480D03*
X800900Y1369480D03*
X777500Y1369480D03*
X754100Y1369480D03*
X734300Y1369480D03*
D25*
X700100Y1369480D03*
X646100Y1369480D03*
D22*
X607400Y1369480D03*
D14*
X579500Y1369480D03*
X559700Y1369480D03*
X536300Y1369480D03*
D19*
X509300Y1369480D03*
D27*
X1196000Y1367680D03*
D14*
X1164500Y1367680D03*
X1144700Y1367680D03*
X1121300Y1367680D03*
D13*
X1106000Y1367680D03*
D14*
X1083500Y1367680D03*
X1067300Y1367680D03*
X1043900Y1367680D03*
D12*
X1012400Y1367680D03*
D14*
X989900Y1367680D03*
D13*
X974600Y1367680D03*
D14*
X950300Y1367680D03*
D13*
X935000Y1367680D03*
X913400Y1367680D03*
D14*
X898100Y1367680D03*
X874700Y1367680D03*
D31*
X842300Y1367680D03*
D14*
X820700Y1367680D03*
X800900Y1367680D03*
X777500Y1367680D03*
X754100Y1367680D03*
X734300Y1367680D03*
D22*
X701000Y1367680D03*
D25*
X646100Y1367680D03*
D22*
X607400Y1367680D03*
D14*
X579500Y1367680D03*
X559700Y1367680D03*
X536300Y1367680D03*
D28*
X509300Y1367680D03*
D27*
X1194200Y1365880D03*
X1165400Y1365880D03*
X1143800Y1365880D03*
X1122200Y1365880D03*
D14*
X1105100Y1365880D03*
D27*
X1084400Y1365880D03*
X1066400Y1365880D03*
X1044800Y1365880D03*
D13*
X1012400Y1365880D03*
D14*
X989900Y1365880D03*
X973700Y1365880D03*
D27*
X951200Y1365880D03*
D13*
X935000Y1365880D03*
X913400Y1365880D03*
D27*
X897200Y1365880D03*
X875600Y1365880D03*
D11*
X842300Y1365880D03*
D14*
X820700Y1365880D03*
X800900Y1365880D03*
D27*
X776600Y1365880D03*
X755000Y1365880D03*
D14*
X734300Y1365880D03*
D21*
X701900Y1365880D03*
D25*
X646100Y1365880D03*
D23*
X609200Y1365880D03*
D14*
X579500Y1365880D03*
D27*
X558800Y1365880D03*
X537200Y1365880D03*
D16*
X508400Y1365880D03*
D29*
X1192400Y1364080D03*
D17*
X1166300Y1364080D03*
D25*
X1132100Y1364080D03*
X1094300Y1364080D03*
X1054700Y1364080D03*
D14*
X1011500Y1364080D03*
X989900Y1364080D03*
D27*
X972800Y1364080D03*
X953000Y1364080D03*
D14*
X934100Y1364080D03*
D13*
X913400Y1364080D03*
D25*
X885500Y1364080D03*
D14*
X842300Y1364080D03*
X820700Y1364080D03*
X800900Y1364080D03*
D25*
X764900Y1364080D03*
D13*
X733400Y1364080D03*
D27*
X710000Y1364080D03*
D14*
X656900Y1364080D03*
X633500Y1364080D03*
X617300Y1364080D03*
X579500Y1364080D03*
D25*
X547100Y1364080D03*
D17*
X509300Y1364080D03*
D32*
X1177100Y1362280D03*
D25*
X1132100Y1362280D03*
X1094300Y1362280D03*
X1054700Y1362280D03*
X1000700Y1362280D03*
X962900Y1362280D03*
D15*
X932300Y1362280D03*
D13*
X913400Y1362280D03*
D25*
X885500Y1362280D03*
X831500Y1362280D03*
D29*
X798200Y1362280D03*
D25*
X764900Y1362280D03*
D29*
X729800Y1362280D03*
D27*
X708200Y1362280D03*
D31*
X689300Y1362280D03*
D14*
X656900Y1362280D03*
X633500Y1362280D03*
D15*
X615500Y1362280D03*
D12*
X596600Y1362280D03*
D29*
X576800Y1362280D03*
D25*
X547100Y1362280D03*
D29*
X508400Y1362280D03*
D32*
X1175300Y1360480D03*
D25*
X1132100Y1360480D03*
D22*
X1093400Y1360480D03*
X1053800Y1360480D03*
X1001600Y1360480D03*
D21*
X962900Y1360480D03*
D29*
X931400Y1360480D03*
D13*
X913400Y1360480D03*
D22*
X884600Y1360480D03*
X832400Y1360480D03*
D17*
X797300Y1360480D03*
D22*
X764000Y1360480D03*
D17*
X728900Y1360480D03*
D21*
X700100Y1360480D03*
D14*
X656900Y1360480D03*
D27*
X632600Y1360480D03*
D23*
X607400Y1360480D03*
D29*
X576800Y1360480D03*
D22*
X546200Y1360480D03*
D29*
X508400Y1360480D03*
D33*
X1174400Y1358680D03*
D22*
X1131200Y1358680D03*
D21*
X1092500Y1358680D03*
D22*
X1053800Y1358680D03*
D21*
X1000700Y1358680D03*
D23*
X962000Y1358680D03*
D29*
X931400Y1358680D03*
D13*
X913400Y1358680D03*
D22*
X884600Y1358680D03*
D21*
X831500Y1358680D03*
D29*
X796400Y1358680D03*
D22*
X764000Y1358680D03*
D17*
X728900Y1358680D03*
D23*
X699200Y1358680D03*
D14*
X656900Y1358680D03*
X631700Y1358680D03*
D23*
X605600Y1358680D03*
D15*
X575900Y1358680D03*
D22*
X546200Y1358680D03*
D27*
X508400Y1358680D03*
D34*
X1173500Y1356880D03*
D21*
X1130300Y1356880D03*
D23*
X1091600Y1356880D03*
D21*
X1052900Y1356880D03*
D19*
X1000700Y1356880D03*
D20*
X962000Y1356880D03*
D15*
X930500Y1356880D03*
D13*
X913400Y1356880D03*
D21*
X883700Y1356880D03*
D19*
X831500Y1356880D03*
D29*
X796400Y1356880D03*
D21*
X763100Y1356880D03*
D29*
X728000Y1356880D03*
D19*
X698300Y1356880D03*
D14*
X656900Y1356880D03*
X631700Y1356880D03*
D23*
X605600Y1356880D03*
D15*
X575900Y1356880D03*
D21*
X545300Y1356880D03*
D27*
X508400Y1356880D03*
D20*
X1179800Y1355080D03*
D14*
X1159100Y1355080D03*
D19*
X1130300Y1355080D03*
X1090700Y1355080D03*
X1052900Y1355080D03*
D28*
X1000700Y1355080D03*
D16*
X962000Y1355080D03*
D15*
X930500Y1355080D03*
D13*
X913400Y1355080D03*
D19*
X883700Y1355080D03*
D28*
X831500Y1355080D03*
D15*
X795500Y1355080D03*
D23*
X762200Y1355080D03*
D27*
X728000Y1355080D03*
D20*
X697400Y1355080D03*
D14*
X656900Y1355080D03*
D13*
X630800Y1355080D03*
D19*
X604700Y1355080D03*
D15*
X575900Y1355080D03*
D23*
X544400Y1355080D03*
D14*
X509300Y1355080D03*
D29*
X1179800Y1353280D03*
D12*
X1158200Y1353280D03*
D11*
X1135700Y1353280D03*
X1121300Y1353280D03*
X1096100Y1353280D03*
X1083500Y1353280D03*
D13*
X1057400Y1353280D03*
D11*
X1043900Y1353280D03*
D15*
X1000700Y1353280D03*
X962900Y1353280D03*
D13*
X929600Y1353280D03*
D11*
X914300Y1353280D03*
D13*
X888200Y1353280D03*
D11*
X874700Y1353280D03*
D15*
X831500Y1353280D03*
D13*
X794600Y1353280D03*
X767600Y1353280D03*
D11*
X754100Y1353280D03*
D14*
X727100Y1353280D03*
D16*
X697400Y1353280D03*
D11*
X656900Y1353280D03*
X631700Y1353280D03*
D17*
X604700Y1353280D03*
D14*
X574100Y1353280D03*
D13*
X549800Y1353280D03*
D11*
X536300Y1353280D03*
D14*
X509300Y1353280D03*
D31*
X1178900Y1351480D03*
D18*
X1001600Y1351480D03*
D35*
X962900Y1351480D03*
X831500Y1351480D03*
D12*
X697400Y1351480D03*
D11*
X604700Y1351480D03*
D14*
X511100Y1351480D03*
X511100Y1349680D03*
X512900Y1347880D03*
X512900Y1346080D03*
D27*
X513800Y1344280D03*
D14*
X514700Y1342480D03*
X514700Y1340680D03*
D35*
X182800Y1742980D03*
D11*
X182800Y1741180D03*
D14*
X182800Y1739380D03*
D27*
X183700Y1737580D03*
D15*
X184600Y1735780D03*
D29*
X185500Y1733980D03*
D16*
X187300Y1732180D03*
D28*
X188200Y1730380D03*
X188200Y1728580D03*
X188200Y1726780D03*
X188200Y1724980D03*
D16*
X187300Y1723180D03*
D35*
X193600Y1721380D03*
D14*
X182800Y1721380D03*
X182800Y1719580D03*
X182800Y1717780D03*
X182800Y1715980D03*
X182800Y1714180D03*
X182800Y1712380D03*
X182800Y1710580D03*
X182800Y1708780D03*
X182800Y1706980D03*
X182800Y1705180D03*
X182800Y1703380D03*
X182800Y1701580D03*
X182800Y1699780D03*
X182800Y1697980D03*
D11*
X182800Y1696180D03*
D13*
X639100Y1742980D03*
D29*
X639100Y1741180D03*
D28*
X638200Y1739380D03*
D19*
X638200Y1737580D03*
D23*
X639100Y1735780D03*
D22*
X639100Y1733980D03*
X639100Y1732180D03*
D14*
X649000Y1730380D03*
D27*
X628300Y1730380D03*
D14*
X650800Y1728580D03*
X627400Y1728580D03*
X650800Y1726780D03*
X627400Y1726780D03*
X650800Y1724980D03*
X627400Y1724980D03*
X650800Y1723180D03*
X627400Y1723180D03*
D11*
X650800Y1721380D03*
D27*
X628300Y1721380D03*
X630100Y1719580D03*
D15*
X631000Y1717780D03*
D29*
X633700Y1715980D03*
D17*
X636400Y1714180D03*
X638200Y1712380D03*
D16*
X640900Y1710580D03*
X642700Y1708780D03*
D21*
X640000Y1706980D03*
D24*
X637300Y1705180D03*
D30*
X638200Y1703380D03*
X638200Y1701580D03*
X638200Y1699780D03*
D24*
X637300Y1697980D03*
D22*
X637300Y1696180D03*
D14*
X1095400Y1742980D03*
D17*
X1095400Y1741180D03*
D28*
X1095400Y1739380D03*
D19*
X1095400Y1737580D03*
D21*
X1095400Y1735780D03*
X1095400Y1733980D03*
D25*
X1095400Y1732180D03*
D14*
X1106200Y1730380D03*
X1084600Y1730380D03*
D13*
X1105300Y1728580D03*
D14*
X1084600Y1728580D03*
D12*
X1105300Y1726780D03*
D14*
X1084600Y1726780D03*
D16*
X1089100Y1724980D03*
D17*
X1090000Y1723180D03*
X1091800Y1721380D03*
X1091800Y1719580D03*
X1090000Y1717780D03*
D16*
X1089100Y1715980D03*
D27*
X1085500Y1714180D03*
D11*
X1108000Y1712380D03*
D27*
X1083700Y1712380D03*
D14*
X1108000Y1710580D03*
X1082800Y1710580D03*
X1108000Y1708780D03*
X1082800Y1708780D03*
D27*
X1107100Y1706980D03*
D14*
X1084600Y1706980D03*
D25*
X1095400Y1705180D03*
X1095400Y1703380D03*
D21*
X1095400Y1701580D03*
D23*
X1096300Y1699780D03*
D28*
X1095400Y1697980D03*
D29*
X1096300Y1696180D03*
D31*
X1095400Y1694380D03*
D18*
X1560700Y1742980D03*
X1542700Y1742980D03*
D11*
X1559800Y1741180D03*
D13*
X1542700Y1741180D03*
D14*
X1559800Y1739380D03*
X1541800Y1739380D03*
X1559800Y1737580D03*
X1541800Y1737580D03*
X1559800Y1735780D03*
X1541800Y1735780D03*
X1559800Y1733980D03*
X1541800Y1733980D03*
X1561600Y1732180D03*
X1541800Y1732180D03*
X1561600Y1730380D03*
X1541800Y1730380D03*
X1561600Y1728580D03*
X1541800Y1728580D03*
X1561600Y1726780D03*
X1541800Y1726780D03*
X1563400Y1724980D03*
X1541800Y1724980D03*
X1563400Y1723180D03*
X1541800Y1723180D03*
X1563400Y1721380D03*
X1541800Y1721380D03*
D25*
X1552600Y1719580D03*
D24*
X1553500Y1717780D03*
X1553500Y1715980D03*
X1553500Y1714180D03*
X1553500Y1712380D03*
D25*
X1552600Y1710580D03*
D21*
X1550800Y1708780D03*
D14*
X1541800Y1706980D03*
X1541800Y1705180D03*
X1541800Y1703380D03*
X1541800Y1701580D03*
X1541800Y1699780D03*
X1541800Y1697980D03*
D11*
X1541800Y1696180D03*
D36*
X84200Y958920D03*
X83800Y958920D03*
X83400Y958920D03*
X83000Y958920D03*
X82600Y958920D03*
X82200Y958920D03*
X81800Y958920D03*
D37*
X81400Y943720D03*
D38*
X81400Y964320D03*
D39*
X81000Y943320D03*
D40*
X81000Y953120D03*
D41*
X81000Y959120D03*
D42*
X81000Y964320D03*
D39*
X81000Y974520D03*
D43*
X80600Y942920D03*
D44*
X80600Y953320D03*
D45*
X80600Y959120D03*
D46*
X80600Y964120D03*
D43*
X80600Y974920D03*
D47*
X80200Y942720D03*
D42*
X80200Y953520D03*
D48*
X80200Y959320D03*
D46*
X80200Y964120D03*
D47*
X80200Y975120D03*
D49*
X79800Y942320D03*
D42*
X79800Y953520D03*
D48*
X79800Y959320D03*
D46*
X79800Y964120D03*
D50*
X79800Y975320D03*
D49*
X79400Y942320D03*
D42*
X79400Y953520D03*
D40*
X79400Y959520D03*
D46*
X79400Y964120D03*
D49*
X79400Y975520D03*
D51*
X79000Y942120D03*
D42*
X79000Y953520D03*
D52*
X79000Y959720D03*
D46*
X79000Y964120D03*
D51*
X79000Y975720D03*
D41*
X78600Y941920D03*
D52*
X78600Y949320D03*
D44*
X78600Y953320D03*
D53*
X78600Y959920D03*
D46*
X78600Y964120D03*
D53*
X78600Y968720D03*
D41*
X78600Y975920D03*
X78200Y941920D03*
D54*
X78200Y950720D03*
D53*
X78200Y959920D03*
D46*
X78200Y964120D03*
D52*
X78200Y968920D03*
D41*
X78200Y975920D03*
X77800Y941920D03*
D39*
X77800Y950520D03*
D44*
X77800Y960120D03*
D46*
X77800Y964120D03*
D40*
X77800Y969120D03*
D55*
X77800Y976120D03*
X77400Y941720D03*
D39*
X77400Y950520D03*
D42*
X77400Y960320D03*
D46*
X77400Y964120D03*
D48*
X77400Y969320D03*
D55*
X77400Y976120D03*
X77000Y941720D03*
D52*
X77000Y947720D03*
D42*
X77000Y953520D03*
D46*
X77000Y960520D03*
X77000Y964120D03*
D45*
X77000Y969520D03*
D55*
X77000Y976120D03*
X76600Y941720D03*
D53*
X76600Y947520D03*
D46*
X76600Y953720D03*
X76600Y960520D03*
X76600Y964120D03*
D45*
X76600Y969520D03*
D55*
X76600Y976120D03*
X76200Y941720D03*
D53*
X76200Y947520D03*
D46*
X76200Y953720D03*
D56*
X76200Y957320D03*
D57*
X76200Y960720D03*
D46*
X76200Y964120D03*
D45*
X76200Y969520D03*
D55*
X76200Y976120D03*
X75800Y941720D03*
D53*
X75800Y947520D03*
D46*
X75800Y953720D03*
D57*
X75800Y957520D03*
D56*
X75800Y960920D03*
D46*
X75800Y964120D03*
D45*
X75800Y969520D03*
D55*
X75800Y976120D03*
X75400Y941720D03*
D53*
X75400Y947520D03*
D46*
X75400Y953720D03*
D57*
X75400Y957520D03*
D46*
X75400Y964120D03*
D45*
X75400Y969520D03*
D55*
X75400Y976120D03*
X75000Y941720D03*
D45*
X75000Y948720D03*
D46*
X75000Y953720D03*
X75000Y957720D03*
X75000Y964120D03*
D48*
X75000Y969320D03*
D55*
X75000Y976120D03*
D41*
X74600Y941920D03*
D45*
X74600Y948720D03*
D46*
X74600Y953720D03*
D42*
X74600Y957920D03*
D46*
X74600Y964120D03*
D48*
X74600Y969320D03*
D55*
X74600Y976120D03*
D41*
X74200Y941920D03*
D48*
X74200Y948920D03*
D46*
X74200Y953720D03*
D44*
X74200Y958120D03*
D46*
X74200Y964120D03*
D40*
X74200Y969120D03*
D41*
X74200Y975920D03*
X73800Y941920D03*
D40*
X73800Y949120D03*
D46*
X73800Y953720D03*
D44*
X73800Y958120D03*
D46*
X73800Y964120D03*
D52*
X73800Y968920D03*
D41*
X73800Y975920D03*
D51*
X73400Y942120D03*
D44*
X73400Y949320D03*
D46*
X73400Y953720D03*
D53*
X73400Y958320D03*
D46*
X73400Y964120D03*
D42*
X73400Y968320D03*
D51*
X73400Y975720D03*
X73000Y942120D03*
D46*
X73000Y953720D03*
D52*
X73000Y958520D03*
D46*
X73000Y964120D03*
D51*
X73000Y975720D03*
D49*
X72600Y942320D03*
D46*
X72600Y953720D03*
D40*
X72600Y958720D03*
D46*
X72600Y964120D03*
D49*
X72600Y975520D03*
D50*
X72200Y942520D03*
D46*
X72200Y953720D03*
D40*
X72200Y958720D03*
D46*
X72200Y964120D03*
D50*
X72200Y975320D03*
D47*
X71800Y942720D03*
D42*
X71800Y953520D03*
D48*
X71800Y958920D03*
D46*
X71800Y964120D03*
D47*
X71800Y975120D03*
D54*
X71400Y943120D03*
D53*
X71400Y953520D03*
D55*
X71400Y958920D03*
D42*
X71400Y964320D03*
D54*
X71400Y974720D03*
D58*
X71000Y943520D03*
D40*
X71000Y953120D03*
D41*
X71000Y959120D03*
D44*
X71000Y964120D03*
D37*
X71000Y974120D03*
D36*
X70600Y958920D03*
X70200Y958920D03*
X69800Y958920D03*
X69400Y958920D03*
X69000Y958920D03*
X68600Y958920D03*
X68200Y958920D03*
D59*
X109600Y959390D03*
X109200Y959390D03*
X108800Y959390D03*
X108400Y959390D03*
X108000Y959390D03*
X107600Y959390D03*
X107200Y959390D03*
D54*
X106800Y944790D03*
D60*
X106800Y959390D03*
D54*
X106800Y973990D03*
D50*
X106400Y944190D03*
D52*
X106400Y952990D03*
D50*
X106400Y959390D03*
D52*
X106400Y965790D03*
D50*
X106400Y974590D03*
D49*
X106000Y943990D03*
D44*
X106000Y952990D03*
D50*
X106000Y959390D03*
D44*
X106000Y965790D03*
D49*
X106000Y974790D03*
D51*
X105600Y943790D03*
D42*
X105600Y953190D03*
D51*
X105600Y959390D03*
D42*
X105600Y965590D03*
D51*
X105600Y974990D03*
D41*
X105200Y943590D03*
D46*
X105200Y953390D03*
D51*
X105200Y959390D03*
D46*
X105200Y965390D03*
D41*
X105200Y975190D03*
X104800Y943590D03*
D42*
X104800Y953590D03*
D41*
X104800Y959590D03*
D42*
X104800Y965190D03*
D41*
X104800Y975190D03*
X104400Y943590D03*
D57*
X104400Y949590D03*
D46*
X104400Y953790D03*
D55*
X104400Y959390D03*
D42*
X104400Y965190D03*
D57*
X104400Y969590D03*
D55*
X104400Y975390D03*
D41*
X104000Y943590D03*
D44*
X104000Y949390D03*
D42*
X104000Y953990D03*
D45*
X104000Y959590D03*
D44*
X104000Y964990D03*
X104000Y969390D03*
D55*
X104000Y975390D03*
D41*
X103600Y943590D03*
D52*
X103600Y949390D03*
D42*
X103600Y953990D03*
D48*
X103600Y959390D03*
D44*
X103600Y964990D03*
D52*
X103600Y969390D03*
D55*
X103600Y975390D03*
D49*
X103200Y943990D03*
D52*
X103200Y948990D03*
D44*
X103200Y954190D03*
D40*
X103200Y959590D03*
X103200Y965190D03*
D52*
X103200Y968990D03*
D55*
X103200Y975390D03*
D54*
X102800Y944790D03*
D53*
X102800Y953990D03*
D52*
X102800Y959390D03*
D41*
X102800Y965990D03*
X102800Y975190D03*
D54*
X102400Y944790D03*
D52*
X102400Y954190D03*
X102400Y959390D03*
D51*
X102400Y965790D03*
D41*
X102400Y975190D03*
D54*
X102000Y944790D03*
D40*
X102000Y953990D03*
D44*
X102000Y959390D03*
D51*
X102000Y965790D03*
X102000Y974990D03*
D54*
X101600Y944790D03*
D45*
X101600Y953990D03*
D44*
X101600Y959390D03*
D49*
X101600Y965590D03*
X101600Y974790D03*
D54*
X101200Y944790D03*
D40*
X101200Y954390D03*
D46*
X101200Y959390D03*
D49*
X101200Y965590D03*
D41*
X101200Y975190D03*
D54*
X100800Y944790D03*
D48*
X100800Y954590D03*
D46*
X100800Y959390D03*
D50*
X100800Y965390D03*
D41*
X100800Y975190D03*
D61*
X100400Y945590D03*
D40*
X100400Y954790D03*
D56*
X100400Y959390D03*
D39*
X100400Y966190D03*
D55*
X100400Y975390D03*
D41*
X100000Y943590D03*
D40*
X100000Y949190D03*
D48*
X100000Y954990D03*
D56*
X100000Y959390D03*
D45*
X100000Y963990D03*
D40*
X100000Y969190D03*
D55*
X100000Y975390D03*
X99600Y943390D03*
D52*
X99600Y949390D03*
D48*
X99600Y954990D03*
X99600Y963790D03*
D52*
X99600Y969390D03*
D55*
X99600Y975390D03*
X99200Y943390D03*
D52*
X99200Y949390D03*
D45*
X99200Y955190D03*
X99200Y963590D03*
D52*
X99200Y969390D03*
D55*
X99200Y975390D03*
X98800Y943390D03*
D44*
X98800Y949390D03*
D45*
X98800Y955190D03*
X98800Y963590D03*
D44*
X98800Y969390D03*
D55*
X98800Y975390D03*
X98400Y943390D03*
X98400Y955390D03*
X98400Y963390D03*
X98400Y975390D03*
X98000Y943390D03*
X98000Y955390D03*
X98000Y963390D03*
X98000Y975390D03*
D41*
X97600Y943590D03*
D51*
X97600Y955390D03*
X97600Y963390D03*
D41*
X97600Y975190D03*
D51*
X97200Y943790D03*
D49*
X97200Y955190D03*
X97200Y963590D03*
D51*
X97200Y974990D03*
D49*
X96800Y943990D03*
D47*
X96800Y955190D03*
X96800Y963590D03*
D49*
X96800Y974790D03*
D47*
X96400Y944390D03*
D39*
X96400Y954990D03*
X96400Y963790D03*
D47*
X96400Y974390D03*
D59*
X96000Y959390D03*
X95600Y959390D03*
X95200Y959390D03*
X94800Y959390D03*
X94400Y959390D03*
X94000Y959390D03*
X93600Y959390D03*
D62*
X160400Y960730D03*
D63*
X160000Y960730D03*
D64*
X159600Y960730D03*
D59*
X159200Y960730D03*
D65*
X158800Y960730D03*
D66*
X158400Y960730D03*
D36*
X158000Y960730D03*
D67*
X157600Y945730D03*
D37*
X157600Y956730D03*
D60*
X157600Y971530D03*
D61*
X157200Y944930D03*
D50*
X157200Y956730D03*
D52*
X157200Y965130D03*
D68*
X157200Y974730D03*
D37*
X156800Y944730D03*
D55*
X156800Y956730D03*
D42*
X156800Y965330D03*
D68*
X156800Y974730D03*
D37*
X156400Y944330D03*
D40*
X156400Y956530D03*
D46*
X156400Y965530D03*
D68*
X156400Y975130D03*
D37*
X156000Y944330D03*
D52*
X156000Y956330D03*
D57*
X156000Y965730D03*
D68*
X156000Y975130D03*
D37*
X155600Y943930D03*
D52*
X155600Y955930D03*
D57*
X155600Y965730D03*
D69*
X155600Y975330D03*
D37*
X155200Y943930D03*
D42*
X155200Y951730D03*
D53*
X155200Y955730D03*
D46*
X155200Y965530D03*
D69*
X155200Y975330D03*
D37*
X154800Y943930D03*
D53*
X154800Y951730D03*
D52*
X154800Y955530D03*
X154800Y961530D03*
D42*
X154800Y965330D03*
D69*
X154800Y975330D03*
D61*
X154400Y943730D03*
D50*
X154400Y953530D03*
D45*
X154400Y961730D03*
D44*
X154400Y965130D03*
D70*
X154400Y975530D03*
D61*
X154000Y943730D03*
D49*
X154000Y953730D03*
D43*
X154000Y962730D03*
D70*
X154000Y975530D03*
D61*
X153600Y943730D03*
D41*
X153600Y954130D03*
D54*
X153600Y962530D03*
D70*
X153600Y975530D03*
D61*
X153200Y943730D03*
D52*
X153200Y954730D03*
D54*
X153200Y962530D03*
D70*
X153200Y975530D03*
D71*
X152800Y943930D03*
D44*
X152800Y955130D03*
D54*
X152800Y962530D03*
D70*
X152800Y975530D03*
D67*
X152400Y944130D03*
D46*
X152400Y955530D03*
D54*
X152400Y962530D03*
D70*
X152400Y975530D03*
D72*
X152000Y944330D03*
D46*
X152000Y955530D03*
D54*
X152000Y962530D03*
D70*
X152000Y975530D03*
D73*
X151600Y944730D03*
D57*
X151600Y955730D03*
D54*
X151600Y962530D03*
D70*
X151600Y975530D03*
D68*
X151200Y945530D03*
D46*
X151200Y955930D03*
D54*
X151200Y962530D03*
D70*
X151200Y975530D03*
X150800Y945930D03*
D46*
X150800Y955930D03*
D54*
X150800Y962530D03*
D70*
X150800Y975530D03*
D71*
X150400Y943930D03*
D40*
X150400Y951330D03*
D46*
X150400Y955930D03*
D43*
X150400Y962730D03*
D70*
X150400Y975530D03*
D37*
X150000Y943930D03*
D52*
X150000Y951530D03*
D42*
X150000Y956130D03*
D48*
X150000Y961530D03*
D42*
X150000Y965330D03*
D69*
X150000Y975330D03*
D37*
X149600Y943930D03*
D53*
X149600Y951730D03*
D42*
X149600Y956130D03*
D44*
X149600Y961530D03*
D46*
X149600Y965530D03*
D69*
X149600Y975330D03*
D58*
X149200Y943730D03*
D44*
X149200Y956330D03*
D46*
X149200Y965530D03*
D69*
X149200Y975330D03*
D58*
X148800Y944130D03*
D44*
X148800Y956330D03*
D57*
X148800Y965730D03*
D39*
X148800Y977530D03*
D58*
X148400Y944130D03*
D52*
X148400Y956330D03*
D57*
X148400Y965730D03*
D39*
X148400Y977530D03*
D58*
X148000Y944530D03*
D45*
X148000Y956530D03*
D46*
X148000Y965530D03*
D54*
X148000Y977330D03*
D61*
X147600Y944930D03*
D41*
X147600Y956530D03*
D53*
X147600Y965330D03*
D54*
X147600Y977330D03*
D61*
X147200Y945330D03*
D47*
X147200Y956530D03*
D40*
X147200Y964930D03*
D54*
X147200Y976930D03*
D36*
X146800Y960730D03*
D66*
X146400Y960730D03*
D65*
X146000Y960730D03*
D59*
X145600Y960730D03*
D64*
X145200Y960730D03*
D63*
X144800Y960730D03*
D62*
X144400Y960730D03*
D63*
X135000Y961930D03*
D74*
X134600Y961930D03*
D65*
X134200Y961930D03*
D36*
X133800Y961930D03*
D75*
X133400Y961930D03*
D76*
X133000Y961930D03*
D77*
X132600Y961930D03*
D67*
X132200Y945730D03*
D78*
X132200Y967730D03*
D71*
X131800Y945130D03*
D52*
X131800Y955130D03*
D58*
X131800Y966130D03*
D79*
X131800Y977530D03*
D37*
X131400Y944730D03*
D44*
X131400Y955530D03*
D43*
X131400Y966330D03*
D80*
X131400Y977730D03*
D37*
X131000Y944330D03*
D42*
X131000Y955730D03*
D49*
X131000Y966530D03*
D79*
X131000Y977930D03*
D37*
X130600Y944330D03*
D42*
X130600Y955730D03*
D51*
X130600Y966730D03*
D80*
X130600Y978130D03*
D37*
X130200Y943930D03*
D42*
X130200Y955730D03*
D55*
X130200Y966730D03*
D79*
X130200Y978330D03*
D37*
X129800Y943930D03*
D42*
X129800Y951730D03*
D44*
X129800Y955530D03*
D45*
X129800Y966930D03*
D80*
X129800Y978530D03*
D37*
X129400Y943930D03*
D53*
X129400Y951730D03*
X129400Y955330D03*
X129400Y960130D03*
D45*
X129400Y966930D03*
D80*
X129400Y978530D03*
D61*
X129000Y943730D03*
D50*
X129000Y953530D03*
D40*
X129000Y960530D03*
X129000Y966930D03*
D79*
X129000Y978730D03*
D61*
X128600Y943730D03*
D49*
X128600Y953730D03*
D48*
X128600Y960730D03*
D40*
X128600Y966930D03*
D80*
X128600Y978930D03*
D61*
X128200Y943730D03*
D41*
X128200Y954130D03*
D45*
X128200Y960930D03*
D53*
X128200Y966930D03*
D80*
X128200Y978930D03*
D71*
X127800Y943930D03*
D40*
X127800Y954930D03*
D45*
X127800Y960930D03*
D53*
X127800Y966930D03*
D73*
X127800Y979130D03*
D71*
X127400Y943930D03*
D44*
X127400Y955530D03*
D55*
X127400Y961130D03*
D44*
X127400Y966730D03*
D57*
X127400Y970930D03*
D73*
X127400Y979130D03*
D67*
X127000Y944130D03*
D42*
X127000Y955730D03*
D55*
X127000Y961130D03*
D44*
X127000Y966730D03*
D57*
X127000Y970930D03*
D81*
X127000Y979330D03*
D72*
X126600Y944330D03*
D46*
X126600Y955930D03*
D55*
X126600Y961130D03*
D42*
X126600Y966530D03*
D46*
X126600Y970730D03*
D81*
X126600Y979330D03*
D80*
X126200Y944930D03*
D46*
X126200Y955930D03*
D45*
X126200Y960930D03*
D42*
X126200Y966530D03*
X126200Y970930D03*
D72*
X126200Y979530D03*
D68*
X125800Y945530D03*
D46*
X125800Y955930D03*
D45*
X125800Y960930D03*
D46*
X125800Y966330D03*
D72*
X125800Y979530D03*
D82*
X125400Y946130D03*
D46*
X125400Y955930D03*
D45*
X125400Y960930D03*
D42*
X125400Y966130D03*
D67*
X125400Y979730D03*
D71*
X125000Y943930D03*
D40*
X125000Y951330D03*
D57*
X125000Y956130D03*
D48*
X125000Y960730D03*
D46*
X125000Y965930D03*
D67*
X125000Y979730D03*
D37*
X124600Y943930D03*
D52*
X124600Y951530D03*
D46*
X124600Y955930D03*
D40*
X124600Y960530D03*
D46*
X124600Y965930D03*
D61*
X124600Y979730D03*
D37*
X124200Y943930D03*
D53*
X124200Y951730D03*
D46*
X124200Y955930D03*
D42*
X124200Y960130D03*
D46*
X124200Y965530D03*
D61*
X124200Y979730D03*
D37*
X123800Y943930D03*
D46*
X123800Y955930D03*
D42*
X123800Y965330D03*
D45*
X123800Y970930D03*
D37*
X123800Y979930D03*
D58*
X123400Y944130D03*
D46*
X123400Y955930D03*
D42*
X123400Y964930D03*
D55*
X123400Y970730D03*
D58*
X123400Y979730D03*
D37*
X123000Y944330D03*
D42*
X123000Y955730D03*
X123000Y964930D03*
D41*
X123000Y970930D03*
D39*
X123000Y979930D03*
D58*
X122600Y944530D03*
D44*
X122600Y955530D03*
D53*
X122600Y964530D03*
D51*
X122600Y970730D03*
D54*
X122600Y979730D03*
D61*
X122200Y944930D03*
D53*
X122200Y955330D03*
D52*
X122200Y964330D03*
D49*
X122200Y970930D03*
D54*
X122200Y979730D03*
D71*
X121800Y945530D03*
D48*
X121800Y955130D03*
D55*
X121800Y963930D03*
D50*
X121800Y970730D03*
D39*
X121800Y979130D03*
D77*
X121400Y961930D03*
D76*
X121000Y961930D03*
D75*
X120600Y961930D03*
D36*
X120200Y961930D03*
D65*
X119800Y961930D03*
D74*
X119400Y961930D03*
D63*
X119000Y961930D03*
D83*
X185800Y957790D03*
D84*
X185400Y957790D03*
D85*
X185000Y957790D03*
D86*
X184600Y957790D03*
D48*
X184200Y944990D03*
D45*
X184200Y970390D03*
D48*
X183800Y944590D03*
D45*
X183800Y970790D03*
X183400Y944390D03*
D55*
X183400Y970990D03*
X183000Y944190D03*
D41*
X183000Y971190D03*
X182600Y943990D03*
D51*
X182600Y971390D03*
D49*
X182200Y943990D03*
D50*
X182200Y971390D03*
D87*
X181800Y957790D03*
D64*
X181400Y957790D03*
D74*
X181000Y957790D03*
D59*
X180600Y957790D03*
D58*
X180200Y943190D03*
D55*
X180200Y953790D03*
D42*
X180200Y959990D03*
D39*
X180200Y972590D03*
D58*
X179800Y943190D03*
D52*
X179800Y953790D03*
D57*
X179800Y959990D03*
D39*
X179800Y972590D03*
D37*
X179400Y942990D03*
D44*
X179400Y953790D03*
D56*
X179400Y960190D03*
D58*
X179400Y972790D03*
D61*
X179000Y942790D03*
D42*
X179000Y953990D03*
D57*
X179000Y960390D03*
D37*
X179000Y972990D03*
D61*
X178600Y942790D03*
D57*
X178600Y953990D03*
D48*
X178600Y961790D03*
D80*
X178600Y971590D03*
D61*
X178200Y942790D03*
D44*
X178200Y950190D03*
D57*
X178200Y953990D03*
D44*
X178200Y957390D03*
D45*
X178200Y961590D03*
D79*
X178200Y971390D03*
D61*
X177800Y942790D03*
D53*
X177800Y950390D03*
D57*
X177800Y953990D03*
D54*
X177800Y959990D03*
D79*
X177800Y971390D03*
D61*
X177400Y942790D03*
D53*
X177400Y950390D03*
D57*
X177400Y953990D03*
D43*
X177400Y960190D03*
D79*
X177400Y971390D03*
D61*
X177000Y942790D03*
D53*
X177000Y950390D03*
D57*
X177000Y953990D03*
D50*
X177000Y960590D03*
D79*
X177000Y971390D03*
D61*
X176600Y942790D03*
D53*
X176600Y950390D03*
D46*
X176600Y954190D03*
D55*
X176600Y961390D03*
D79*
X176600Y971390D03*
D37*
X176200Y942990D03*
D44*
X176200Y950190D03*
D42*
X176200Y954390D03*
D48*
X176200Y961790D03*
D80*
X176200Y971190D03*
D58*
X175800Y943190D03*
D44*
X175800Y954590D03*
D40*
X175800Y961990D03*
D73*
X175800Y970990D03*
D58*
X175400Y943190D03*
D40*
X175400Y954790D03*
X175400Y961990D03*
D73*
X175400Y970990D03*
D39*
X175000Y943390D03*
D51*
X175000Y955390D03*
D40*
X175000Y961990D03*
D81*
X175000Y970790D03*
D54*
X174600Y943590D03*
D51*
X174600Y955790D03*
D40*
X174600Y961990D03*
D72*
X174600Y970590D03*
D43*
X174200Y943790D03*
D42*
X174200Y953990D03*
D53*
X174200Y957190D03*
D40*
X174200Y961990D03*
D67*
X174200Y970390D03*
D47*
X173800Y943990D03*
D44*
X173800Y950190D03*
D57*
X173800Y953990D03*
D44*
X173800Y957390D03*
D40*
X173800Y961990D03*
D71*
X173800Y970190D03*
D50*
X173400Y944190D03*
D44*
X173400Y950190D03*
D57*
X173400Y953990D03*
D40*
X173400Y961990D03*
D61*
X173400Y969990D03*
D49*
X173000Y944390D03*
D53*
X173000Y950390D03*
D57*
X173000Y953990D03*
D40*
X173000Y961990D03*
D37*
X173000Y969790D03*
D51*
X172600Y944590D03*
D53*
X172600Y950390D03*
D57*
X172600Y954390D03*
D48*
X172600Y961790D03*
D58*
X172600Y969590D03*
D41*
X172200Y944790D03*
D52*
X172200Y950590D03*
D46*
X172200Y954590D03*
D45*
X172200Y961590D03*
D39*
X172200Y969390D03*
D55*
X171800Y944990D03*
D40*
X171800Y950390D03*
D52*
X171800Y954590D03*
D51*
X171800Y961390D03*
D54*
X171800Y969190D03*
D88*
X171400Y957790D03*
D86*
X171000Y957790D03*
D85*
X170600Y957790D03*
D84*
X170200Y957790D03*
D83*
X169800Y957790D03*
M02*
