G04 EAGLE Gerber RS-274X export*
G75*
%MOMM*%
%FSLAX34Y34*%
%LPD*%
%INSolderpaste Top*%
%IPPOS*%
%AMOC8*
5,1,8,0,0,1.08239X$1,22.5*%
G01*
%ADD10R,1.100000X1.000000*%
%ADD11C,0.300000*%
%ADD12R,2.000000X1.200000*%
%ADD13R,1.350000X0.600000*%
%ADD14R,0.800000X0.900000*%
%ADD15R,1.000000X1.100000*%
%ADD16R,1.200000X0.600000*%


D10*
X232800Y133350D03*
X249800Y133350D03*
D11*
X1520500Y210630D02*
X1527500Y210630D01*
X1527500Y203630D01*
X1520500Y203630D01*
X1520500Y210630D01*
X1520500Y206480D02*
X1527500Y206480D01*
X1527500Y209330D02*
X1520500Y209330D01*
X1520500Y228170D02*
X1527500Y228170D01*
X1527500Y221170D01*
X1520500Y221170D01*
X1520500Y228170D01*
X1520500Y224020D02*
X1527500Y224020D01*
X1527500Y226870D02*
X1520500Y226870D01*
X703770Y16200D02*
X703770Y9200D01*
X703770Y16200D02*
X710770Y16200D01*
X710770Y9200D01*
X703770Y9200D01*
X703770Y12050D02*
X710770Y12050D01*
X710770Y14900D02*
X703770Y14900D01*
X686230Y16200D02*
X686230Y9200D01*
X686230Y16200D02*
X693230Y16200D01*
X693230Y9200D01*
X686230Y9200D01*
X686230Y12050D02*
X693230Y12050D01*
X693230Y14900D02*
X686230Y14900D01*
X1063300Y210630D02*
X1070300Y210630D01*
X1070300Y203630D01*
X1063300Y203630D01*
X1063300Y210630D01*
X1063300Y206480D02*
X1070300Y206480D01*
X1070300Y209330D02*
X1063300Y209330D01*
X1063300Y228170D02*
X1070300Y228170D01*
X1070300Y221170D01*
X1063300Y221170D01*
X1063300Y228170D01*
X1063300Y224020D02*
X1070300Y224020D01*
X1070300Y226870D02*
X1063300Y226870D01*
X613100Y210630D02*
X606100Y210630D01*
X613100Y210630D02*
X613100Y203630D01*
X606100Y203630D01*
X606100Y210630D01*
X606100Y206480D02*
X613100Y206480D01*
X613100Y209330D02*
X606100Y209330D01*
X606100Y228170D02*
X613100Y228170D01*
X613100Y221170D01*
X606100Y221170D01*
X606100Y228170D01*
X606100Y224020D02*
X613100Y224020D01*
X613100Y226870D02*
X606100Y226870D01*
X155900Y210630D02*
X148900Y210630D01*
X155900Y210630D02*
X155900Y203630D01*
X148900Y203630D01*
X148900Y210630D01*
X148900Y206480D02*
X155900Y206480D01*
X155900Y209330D02*
X148900Y209330D01*
X148900Y228170D02*
X155900Y228170D01*
X155900Y221170D01*
X148900Y221170D01*
X148900Y228170D01*
X148900Y224020D02*
X155900Y224020D01*
X155900Y226870D02*
X148900Y226870D01*
D12*
X1840150Y99000D03*
X1840150Y155000D03*
D13*
X1803400Y112000D03*
X1803400Y122000D03*
X1803400Y132000D03*
X1803400Y142000D03*
D12*
X14050Y155000D03*
X14050Y99000D03*
D13*
X50800Y142000D03*
X50800Y132000D03*
X50800Y122000D03*
X50800Y112000D03*
D14*
X1527200Y167800D03*
X1546200Y167800D03*
X1536700Y188800D03*
X1070000Y167800D03*
X1089000Y167800D03*
X1079500Y188800D03*
X612800Y167800D03*
X631800Y167800D03*
X622300Y188800D03*
X155600Y167800D03*
X174600Y167800D03*
X165100Y188800D03*
D15*
X1498600Y224400D03*
X1498600Y207400D03*
X127000Y224400D03*
X127000Y207400D03*
D10*
X707000Y38100D03*
X690000Y38100D03*
D15*
X177800Y207400D03*
X177800Y224400D03*
X127000Y169300D03*
X127000Y186300D03*
D10*
X232800Y152400D03*
X249800Y152400D03*
D15*
X1549400Y207400D03*
X1549400Y224400D03*
X1498600Y169300D03*
X1498600Y186300D03*
X1041400Y224400D03*
X1041400Y207400D03*
X1092200Y207400D03*
X1092200Y224400D03*
X1041400Y169300D03*
X1041400Y186300D03*
X584200Y224400D03*
X584200Y207400D03*
X635000Y207400D03*
X635000Y224400D03*
X584200Y169300D03*
X584200Y186300D03*
D16*
X213300Y114300D03*
X213300Y101600D03*
X213300Y88900D03*
X213300Y76200D03*
X213300Y63500D03*
X213300Y50800D03*
X213300Y38100D03*
X269300Y38100D03*
X269300Y50800D03*
X269300Y63500D03*
X269300Y76200D03*
X269300Y88900D03*
X269300Y101600D03*
X269300Y114300D03*
D15*
X95250Y122800D03*
X95250Y105800D03*
X158750Y122800D03*
X158750Y105800D03*
M02*
