G04 EAGLE Gerber RS-274X export*
G75*
%MOMM*%
%FSLAX34Y34*%
%LPD*%
%INTop Copper*%
%IPPOS*%
%AMOC8*
5,1,8,0,0,1.08239X$1,22.5*%
G01*
%ADD10R,1.100000X1.000000*%
%ADD11C,0.300000*%
%ADD12C,1.000000*%
%ADD13C,1.879600*%
%ADD14R,2.000000X1.200000*%
%ADD15R,1.350000X0.600000*%
%ADD16C,0.863600*%
%ADD17R,1.270000X0.635000*%
%ADD18R,0.635000X1.270000*%
%ADD19R,2.032000X2.032000*%
%ADD20C,2.032000*%
%ADD21R,0.800000X0.900000*%
%ADD22R,1.000000X1.100000*%
%ADD23R,1.200000X0.600000*%
%ADD24R,0.660400X1.270000*%
%ADD25C,0.736600*%
%ADD26C,0.203200*%
%ADD27C,0.609600*%

G36*
X78515Y4078D02*
X78515Y4078D01*
X78607Y4081D01*
X78656Y4097D01*
X78706Y4105D01*
X78790Y4142D01*
X78877Y4171D01*
X78919Y4200D01*
X78965Y4221D01*
X79035Y4280D01*
X79111Y4332D01*
X79143Y4372D01*
X79182Y4404D01*
X79233Y4481D01*
X79292Y4552D01*
X79312Y4599D01*
X79340Y4641D01*
X79368Y4729D01*
X79404Y4813D01*
X79410Y4864D01*
X79426Y4912D01*
X79428Y5004D01*
X79439Y5095D01*
X79432Y5146D01*
X79433Y5196D01*
X79410Y5285D01*
X79395Y5376D01*
X79375Y5416D01*
X79361Y5471D01*
X79280Y5608D01*
X79246Y5677D01*
X78689Y6443D01*
X77836Y8117D01*
X77255Y9904D01*
X77134Y10669D01*
X87884Y10669D01*
X87942Y10677D01*
X88000Y10675D01*
X88082Y10697D01*
X88165Y10709D01*
X88219Y10733D01*
X88275Y10747D01*
X88348Y10790D01*
X88425Y10825D01*
X88469Y10863D01*
X88520Y10893D01*
X88577Y10954D01*
X88642Y11009D01*
X88674Y11057D01*
X88714Y11100D01*
X88753Y11175D01*
X88799Y11245D01*
X88817Y11301D01*
X88844Y11353D01*
X88855Y11421D01*
X88885Y11516D01*
X88888Y11616D01*
X88899Y11684D01*
X88899Y12701D01*
X89916Y12701D01*
X89974Y12709D01*
X90032Y12708D01*
X90114Y12729D01*
X90197Y12741D01*
X90251Y12765D01*
X90307Y12779D01*
X90380Y12822D01*
X90457Y12857D01*
X90502Y12895D01*
X90552Y12925D01*
X90610Y12986D01*
X90674Y13041D01*
X90706Y13089D01*
X90746Y13132D01*
X90785Y13207D01*
X90831Y13277D01*
X90849Y13333D01*
X90876Y13385D01*
X90887Y13453D01*
X90917Y13548D01*
X90920Y13648D01*
X90931Y13716D01*
X90931Y24466D01*
X91696Y24345D01*
X93483Y23764D01*
X95157Y22911D01*
X96678Y21806D01*
X98006Y20478D01*
X99111Y18957D01*
X99964Y17283D01*
X100328Y16163D01*
X100358Y16101D01*
X100379Y16035D01*
X100420Y15974D01*
X100453Y15908D01*
X100499Y15857D01*
X100538Y15799D01*
X100594Y15752D01*
X100643Y15697D01*
X100702Y15661D01*
X100755Y15616D01*
X100822Y15586D01*
X100885Y15548D01*
X100952Y15529D01*
X101015Y15501D01*
X101088Y15491D01*
X101159Y15471D01*
X101228Y15471D01*
X101296Y15462D01*
X101369Y15472D01*
X101443Y15473D01*
X101510Y15493D01*
X101578Y15503D01*
X101645Y15533D01*
X101716Y15554D01*
X101774Y15591D01*
X101837Y15620D01*
X101893Y15667D01*
X101955Y15707D01*
X102001Y15759D01*
X102053Y15804D01*
X102086Y15857D01*
X102143Y15921D01*
X102192Y16025D01*
X102231Y16089D01*
X103748Y19751D01*
X107249Y23252D01*
X111824Y25147D01*
X116776Y25147D01*
X121351Y23252D01*
X124852Y19751D01*
X126062Y16829D01*
X126077Y16804D01*
X126086Y16776D01*
X126149Y16681D01*
X126207Y16584D01*
X126228Y16564D01*
X126244Y16539D01*
X126331Y16466D01*
X126413Y16389D01*
X126439Y16375D01*
X126462Y16356D01*
X126565Y16310D01*
X126666Y16259D01*
X126695Y16253D01*
X126722Y16241D01*
X126834Y16225D01*
X126945Y16204D01*
X126974Y16206D01*
X127003Y16202D01*
X127115Y16218D01*
X127228Y16228D01*
X127255Y16239D01*
X127285Y16243D01*
X127388Y16289D01*
X127493Y16330D01*
X127517Y16348D01*
X127544Y16360D01*
X127630Y16433D01*
X127720Y16502D01*
X127738Y16525D01*
X127760Y16544D01*
X127802Y16611D01*
X127890Y16729D01*
X127912Y16788D01*
X127938Y16829D01*
X129148Y19751D01*
X132649Y23252D01*
X135509Y24436D01*
X135607Y24494D01*
X135709Y24547D01*
X135729Y24566D01*
X135753Y24581D01*
X135832Y24664D01*
X135915Y24743D01*
X135930Y24767D01*
X135949Y24787D01*
X136001Y24889D01*
X136059Y24988D01*
X136066Y25015D01*
X136079Y25040D01*
X136101Y25153D01*
X136129Y25264D01*
X136128Y25292D01*
X136134Y25319D01*
X136124Y25433D01*
X136120Y25548D01*
X136112Y25575D01*
X136109Y25602D01*
X136068Y25709D01*
X136033Y25819D01*
X136018Y25839D01*
X136007Y25867D01*
X135935Y25963D01*
X135901Y26021D01*
X135868Y26051D01*
X135847Y26080D01*
X135838Y26092D01*
X133993Y27937D01*
X132968Y30411D01*
X132968Y33089D01*
X133993Y35563D01*
X135338Y36908D01*
X135390Y36978D01*
X135450Y37042D01*
X135476Y37091D01*
X135509Y37135D01*
X135540Y37217D01*
X135580Y37295D01*
X135588Y37342D01*
X135610Y37401D01*
X135622Y37548D01*
X135635Y37626D01*
X135635Y74096D01*
X135623Y74182D01*
X135620Y74270D01*
X135603Y74322D01*
X135595Y74377D01*
X135560Y74457D01*
X135533Y74540D01*
X135505Y74580D01*
X135479Y74637D01*
X135413Y74715D01*
X135390Y74753D01*
X135363Y74778D01*
X135338Y74814D01*
X135263Y74889D01*
X135171Y74958D01*
X135083Y75032D01*
X135058Y75043D01*
X135036Y75060D01*
X134929Y75101D01*
X134823Y75147D01*
X134796Y75151D01*
X134770Y75161D01*
X134656Y75171D01*
X134542Y75186D01*
X134514Y75182D01*
X134487Y75185D01*
X134374Y75162D01*
X134260Y75146D01*
X134235Y75134D01*
X134208Y75129D01*
X134106Y75076D01*
X134001Y75028D01*
X133980Y75011D01*
X133956Y74998D01*
X133872Y74919D01*
X133785Y74844D01*
X133772Y74823D01*
X133750Y74802D01*
X133614Y74571D01*
X133607Y74560D01*
X132707Y72387D01*
X130813Y70493D01*
X128339Y69468D01*
X125661Y69468D01*
X123187Y70493D01*
X121842Y71838D01*
X121772Y71890D01*
X121708Y71950D01*
X121659Y71976D01*
X121615Y72009D01*
X121533Y72040D01*
X121455Y72080D01*
X121408Y72088D01*
X121349Y72110D01*
X121201Y72122D01*
X121124Y72135D01*
X97376Y72135D01*
X94698Y74814D01*
X61904Y107607D01*
X61858Y107642D01*
X61817Y107685D01*
X61745Y107727D01*
X61677Y107778D01*
X61623Y107799D01*
X61572Y107828D01*
X61491Y107849D01*
X61412Y107879D01*
X61353Y107884D01*
X61297Y107899D01*
X61212Y107896D01*
X61128Y107903D01*
X61071Y107891D01*
X61013Y107889D01*
X60932Y107864D01*
X60850Y107847D01*
X60798Y107820D01*
X60742Y107802D01*
X60686Y107762D01*
X60597Y107716D01*
X60525Y107647D01*
X60469Y107607D01*
X58813Y105951D01*
X42787Y105951D01*
X41001Y107737D01*
X41001Y116263D01*
X41021Y116282D01*
X41056Y116329D01*
X41098Y116369D01*
X41141Y116442D01*
X41191Y116509D01*
X41212Y116564D01*
X41242Y116614D01*
X41263Y116696D01*
X41293Y116775D01*
X41298Y116833D01*
X41312Y116890D01*
X41309Y116974D01*
X41316Y117058D01*
X41305Y117116D01*
X41303Y117174D01*
X41277Y117254D01*
X41260Y117337D01*
X41233Y117389D01*
X41215Y117445D01*
X41175Y117501D01*
X41129Y117589D01*
X41061Y117662D01*
X41021Y117718D01*
X41001Y117737D01*
X41001Y126263D01*
X41021Y126282D01*
X41056Y126329D01*
X41098Y126369D01*
X41141Y126442D01*
X41191Y126509D01*
X41212Y126564D01*
X41242Y126614D01*
X41263Y126696D01*
X41293Y126775D01*
X41298Y126833D01*
X41312Y126890D01*
X41309Y126974D01*
X41316Y127058D01*
X41305Y127116D01*
X41303Y127174D01*
X41277Y127254D01*
X41260Y127337D01*
X41233Y127389D01*
X41215Y127445D01*
X41175Y127501D01*
X41129Y127589D01*
X41061Y127662D01*
X41021Y127718D01*
X41001Y127737D01*
X41001Y136263D01*
X41525Y136787D01*
X41566Y136841D01*
X41615Y136889D01*
X41651Y136954D01*
X41696Y137014D01*
X41720Y137078D01*
X41754Y137137D01*
X41771Y137210D01*
X41797Y137280D01*
X41803Y137348D01*
X41818Y137414D01*
X41815Y137488D01*
X41821Y137563D01*
X41807Y137630D01*
X41804Y137698D01*
X41782Y137757D01*
X41765Y137842D01*
X41712Y137943D01*
X41686Y138012D01*
X41682Y138019D01*
X41509Y138666D01*
X41509Y140501D01*
X50316Y140501D01*
X50374Y140509D01*
X50432Y140507D01*
X50514Y140529D01*
X50597Y140541D01*
X50651Y140564D01*
X50707Y140579D01*
X50780Y140622D01*
X50799Y140631D01*
X50845Y140600D01*
X50901Y140583D01*
X50953Y140556D01*
X51021Y140545D01*
X51116Y140515D01*
X51216Y140512D01*
X51284Y140501D01*
X60091Y140501D01*
X60091Y139112D01*
X60099Y139054D01*
X60097Y138996D01*
X60119Y138914D01*
X60131Y138830D01*
X60154Y138777D01*
X60169Y138721D01*
X60212Y138648D01*
X60247Y138571D01*
X60285Y138526D01*
X60314Y138476D01*
X60376Y138418D01*
X60430Y138354D01*
X60479Y138322D01*
X60522Y138282D01*
X60597Y138243D01*
X60667Y138196D01*
X60723Y138179D01*
X60775Y138152D01*
X60843Y138141D01*
X60938Y138111D01*
X61038Y138108D01*
X61106Y138097D01*
X72413Y138097D01*
X74654Y137169D01*
X78337Y133485D01*
X78362Y133466D01*
X78382Y133443D01*
X78449Y133401D01*
X78565Y133314D01*
X78625Y133291D01*
X78667Y133265D01*
X80013Y132707D01*
X81907Y130813D01*
X82932Y128339D01*
X82932Y125661D01*
X81907Y123187D01*
X80013Y121293D01*
X77840Y120393D01*
X77742Y120335D01*
X77640Y120282D01*
X77620Y120263D01*
X77596Y120249D01*
X77517Y120165D01*
X77434Y120086D01*
X77419Y120062D01*
X77400Y120042D01*
X77348Y119940D01*
X77290Y119841D01*
X77283Y119814D01*
X77270Y119789D01*
X77248Y119676D01*
X77220Y119565D01*
X77221Y119538D01*
X77215Y119510D01*
X77225Y119396D01*
X77229Y119281D01*
X77237Y119255D01*
X77240Y119227D01*
X77281Y119120D01*
X77316Y119011D01*
X77331Y118990D01*
X77342Y118962D01*
X77503Y118749D01*
X77511Y118737D01*
X85468Y110780D01*
X85492Y110763D01*
X85511Y110740D01*
X85605Y110677D01*
X85695Y110609D01*
X85723Y110599D01*
X85747Y110583D01*
X85855Y110548D01*
X85961Y110508D01*
X85990Y110506D01*
X86018Y110497D01*
X86132Y110494D01*
X86244Y110485D01*
X86273Y110490D01*
X86302Y110490D01*
X86412Y110518D01*
X86523Y110540D01*
X86549Y110554D01*
X86577Y110561D01*
X86675Y110619D01*
X86775Y110671D01*
X86797Y110692D01*
X86822Y110707D01*
X86899Y110789D01*
X86981Y110867D01*
X86996Y110893D01*
X87016Y110914D01*
X87068Y111015D01*
X87125Y111113D01*
X87132Y111141D01*
X87146Y111167D01*
X87159Y111244D01*
X87195Y111388D01*
X87193Y111451D01*
X87201Y111498D01*
X87201Y112563D01*
X88221Y113582D01*
X88256Y113629D01*
X88298Y113669D01*
X88341Y113742D01*
X88391Y113809D01*
X88412Y113864D01*
X88442Y113914D01*
X88463Y113996D01*
X88493Y114075D01*
X88498Y114133D01*
X88512Y114190D01*
X88509Y114274D01*
X88516Y114358D01*
X88505Y114416D01*
X88503Y114474D01*
X88477Y114554D01*
X88460Y114637D01*
X88433Y114689D01*
X88415Y114745D01*
X88375Y114801D01*
X88329Y114889D01*
X88261Y114962D01*
X88221Y115018D01*
X87201Y116037D01*
X87201Y129563D01*
X88987Y131349D01*
X101513Y131349D01*
X103299Y129563D01*
X103299Y120920D01*
X103311Y120834D01*
X103314Y120746D01*
X103331Y120693D01*
X103339Y120639D01*
X103374Y120559D01*
X103401Y120476D01*
X103429Y120436D01*
X103455Y120379D01*
X103551Y120266D01*
X103596Y120202D01*
X105136Y118662D01*
X105206Y118610D01*
X105270Y118550D01*
X105319Y118524D01*
X105364Y118491D01*
X105445Y118460D01*
X105523Y118420D01*
X105571Y118412D01*
X105629Y118390D01*
X105777Y118378D01*
X105854Y118365D01*
X109220Y118365D01*
X109278Y118373D01*
X109336Y118371D01*
X109418Y118393D01*
X109502Y118405D01*
X109555Y118428D01*
X109611Y118443D01*
X109684Y118486D01*
X109761Y118521D01*
X109806Y118559D01*
X109856Y118588D01*
X109914Y118650D01*
X109978Y118704D01*
X110010Y118753D01*
X110050Y118796D01*
X110089Y118871D01*
X110136Y118941D01*
X110153Y118997D01*
X110180Y119049D01*
X110191Y119117D01*
X110221Y119212D01*
X110224Y119312D01*
X110235Y119380D01*
X110235Y121913D01*
X112021Y123699D01*
X119562Y123699D01*
X119675Y123715D01*
X119790Y123725D01*
X119816Y123735D01*
X119843Y123739D01*
X119948Y123786D01*
X120055Y123827D01*
X120077Y123843D01*
X120103Y123855D01*
X120190Y123929D01*
X120282Y123998D01*
X120298Y124021D01*
X120320Y124038D01*
X120383Y124134D01*
X120452Y124226D01*
X120462Y124252D01*
X120477Y124275D01*
X120512Y124385D01*
X120552Y124492D01*
X120555Y124520D01*
X120563Y124546D01*
X120566Y124661D01*
X120575Y124775D01*
X120569Y124800D01*
X120570Y124830D01*
X120503Y125087D01*
X120500Y125103D01*
X120268Y125661D01*
X120268Y128339D01*
X121293Y130813D01*
X123187Y132707D01*
X125661Y133732D01*
X128339Y133732D01*
X130813Y132707D01*
X132707Y130813D01*
X133732Y128339D01*
X133732Y125661D01*
X133500Y125103D01*
X133472Y124991D01*
X133437Y124882D01*
X133436Y124854D01*
X133429Y124827D01*
X133433Y124713D01*
X133430Y124598D01*
X133437Y124571D01*
X133438Y124543D01*
X133473Y124434D01*
X133502Y124323D01*
X133516Y124299D01*
X133524Y124272D01*
X133588Y124177D01*
X133647Y124078D01*
X133667Y124059D01*
X133683Y124036D01*
X133770Y123962D01*
X133854Y123884D01*
X133879Y123871D01*
X133900Y123853D01*
X134005Y123806D01*
X134107Y123754D01*
X134132Y123750D01*
X134160Y123738D01*
X134424Y123701D01*
X134438Y123699D01*
X141979Y123699D01*
X143765Y121913D01*
X143765Y119380D01*
X143773Y119322D01*
X143771Y119264D01*
X143793Y119182D01*
X143805Y119098D01*
X143828Y119045D01*
X143843Y118989D01*
X143886Y118916D01*
X143921Y118839D01*
X143959Y118794D01*
X143988Y118744D01*
X144050Y118686D01*
X144104Y118622D01*
X144153Y118590D01*
X144196Y118550D01*
X144271Y118511D01*
X144341Y118464D01*
X144397Y118447D01*
X144449Y118420D01*
X144517Y118409D01*
X144612Y118379D01*
X144712Y118376D01*
X144780Y118365D01*
X148146Y118365D01*
X148232Y118377D01*
X148320Y118380D01*
X148372Y118397D01*
X148427Y118405D01*
X148507Y118440D01*
X148590Y118467D01*
X148630Y118495D01*
X148687Y118521D01*
X148800Y118617D01*
X148864Y118662D01*
X150404Y120202D01*
X150456Y120272D01*
X150516Y120336D01*
X150542Y120385D01*
X150575Y120429D01*
X150606Y120511D01*
X150646Y120589D01*
X150654Y120637D01*
X150676Y120695D01*
X150688Y120843D01*
X150701Y120920D01*
X150701Y129563D01*
X152487Y131349D01*
X165013Y131349D01*
X166799Y129563D01*
X166799Y116037D01*
X165779Y115018D01*
X165744Y114971D01*
X165702Y114931D01*
X165659Y114858D01*
X165609Y114791D01*
X165588Y114736D01*
X165558Y114686D01*
X165537Y114604D01*
X165507Y114525D01*
X165502Y114467D01*
X165488Y114410D01*
X165491Y114326D01*
X165484Y114242D01*
X165495Y114184D01*
X165497Y114126D01*
X165523Y114046D01*
X165540Y113963D01*
X165567Y113911D01*
X165585Y113855D01*
X165625Y113799D01*
X165671Y113711D01*
X165739Y113638D01*
X165779Y113582D01*
X166799Y112563D01*
X166799Y99037D01*
X165013Y97251D01*
X164948Y97251D01*
X164919Y97247D01*
X164890Y97250D01*
X164779Y97227D01*
X164667Y97211D01*
X164640Y97199D01*
X164611Y97194D01*
X164511Y97142D01*
X164407Y97095D01*
X164385Y97076D01*
X164359Y97063D01*
X164277Y96985D01*
X164190Y96912D01*
X164174Y96887D01*
X164153Y96867D01*
X164095Y96769D01*
X164033Y96675D01*
X164024Y96647D01*
X164009Y96622D01*
X163981Y96512D01*
X163947Y96404D01*
X163946Y96374D01*
X163939Y96346D01*
X163942Y96233D01*
X163940Y96120D01*
X163947Y96091D01*
X163948Y96062D01*
X163983Y95954D01*
X164011Y95845D01*
X164026Y95819D01*
X164035Y95791D01*
X164081Y95728D01*
X164157Y95600D01*
X164202Y95557D01*
X164230Y95518D01*
X169165Y90584D01*
X169165Y82076D01*
X169177Y81989D01*
X169180Y81902D01*
X169197Y81849D01*
X169205Y81794D01*
X169240Y81715D01*
X169267Y81631D01*
X169295Y81592D01*
X169321Y81535D01*
X169417Y81422D01*
X169462Y81358D01*
X170807Y80013D01*
X171832Y77539D01*
X171832Y74861D01*
X170807Y72387D01*
X169462Y71042D01*
X169410Y70972D01*
X169350Y70908D01*
X169324Y70859D01*
X169291Y70815D01*
X169260Y70733D01*
X169220Y70655D01*
X169212Y70608D01*
X169190Y70549D01*
X169178Y70401D01*
X169165Y70324D01*
X169165Y25167D01*
X169165Y25165D01*
X169165Y25164D01*
X169185Y25025D01*
X169205Y24885D01*
X169205Y24884D01*
X169205Y24882D01*
X169265Y24750D01*
X169321Y24626D01*
X169322Y24625D01*
X169323Y24623D01*
X169414Y24516D01*
X169504Y24409D01*
X169506Y24408D01*
X169507Y24407D01*
X169520Y24399D01*
X169741Y24251D01*
X169770Y24242D01*
X169791Y24229D01*
X172151Y23252D01*
X175652Y19751D01*
X177547Y15176D01*
X177547Y10224D01*
X175577Y5469D01*
X175548Y5357D01*
X175514Y5248D01*
X175513Y5220D01*
X175506Y5193D01*
X175509Y5079D01*
X175506Y4964D01*
X175513Y4937D01*
X175514Y4909D01*
X175549Y4800D01*
X175578Y4689D01*
X175592Y4665D01*
X175601Y4638D01*
X175665Y4543D01*
X175723Y4444D01*
X175744Y4425D01*
X175759Y4402D01*
X175847Y4328D01*
X175931Y4250D01*
X175955Y4237D01*
X175977Y4219D01*
X176081Y4173D01*
X176184Y4120D01*
X176208Y4116D01*
X176236Y4104D01*
X176500Y4067D01*
X176515Y4065D01*
X682481Y4065D01*
X682510Y4069D01*
X682540Y4066D01*
X682651Y4089D01*
X682763Y4105D01*
X682790Y4117D01*
X682818Y4122D01*
X682919Y4175D01*
X683022Y4221D01*
X683045Y4240D01*
X683071Y4253D01*
X683153Y4331D01*
X683239Y4404D01*
X683256Y4429D01*
X683277Y4449D01*
X683334Y4547D01*
X683397Y4641D01*
X683406Y4669D01*
X683421Y4694D01*
X683448Y4804D01*
X683483Y4912D01*
X683483Y4942D01*
X683491Y4970D01*
X683487Y5083D01*
X683490Y5196D01*
X683483Y5225D01*
X683482Y5254D01*
X683447Y5362D01*
X683418Y5471D01*
X683403Y5497D01*
X683394Y5525D01*
X683349Y5588D01*
X683273Y5716D01*
X683227Y5759D01*
X683199Y5798D01*
X681681Y7316D01*
X681681Y14580D01*
X681669Y14666D01*
X681666Y14754D01*
X681649Y14806D01*
X681641Y14861D01*
X681606Y14941D01*
X681579Y15024D01*
X681551Y15064D01*
X681525Y15121D01*
X681429Y15234D01*
X681384Y15298D01*
X669035Y27646D01*
X669035Y121124D01*
X669023Y121211D01*
X669020Y121298D01*
X669003Y121351D01*
X668995Y121406D01*
X668960Y121485D01*
X668933Y121569D01*
X668905Y121608D01*
X668879Y121665D01*
X668783Y121778D01*
X668738Y121842D01*
X667393Y123187D01*
X666368Y125661D01*
X666368Y128339D01*
X667393Y130813D01*
X669287Y132707D01*
X671761Y133732D01*
X674439Y133732D01*
X676913Y132707D01*
X678807Y130813D01*
X679832Y128339D01*
X679832Y125661D01*
X678807Y123187D01*
X677462Y121842D01*
X677410Y121772D01*
X677350Y121708D01*
X677324Y121659D01*
X677291Y121615D01*
X677260Y121533D01*
X677220Y121455D01*
X677212Y121408D01*
X677190Y121349D01*
X677178Y121201D01*
X677165Y121124D01*
X677165Y31434D01*
X677172Y31383D01*
X677171Y31360D01*
X677177Y31338D01*
X677180Y31260D01*
X677197Y31208D01*
X677205Y31153D01*
X677240Y31073D01*
X677267Y30990D01*
X677295Y30950D01*
X677321Y30893D01*
X677417Y30780D01*
X677462Y30716D01*
X687132Y21046D01*
X687202Y20994D01*
X687266Y20934D01*
X687315Y20908D01*
X687360Y20875D01*
X687441Y20844D01*
X687519Y20804D01*
X687567Y20796D01*
X687625Y20774D01*
X687773Y20762D01*
X687850Y20749D01*
X695114Y20749D01*
X697782Y18081D01*
X697829Y18046D01*
X697869Y18003D01*
X697942Y17961D01*
X698009Y17910D01*
X698064Y17889D01*
X698114Y17859D01*
X698196Y17839D01*
X698275Y17809D01*
X698333Y17804D01*
X698390Y17789D01*
X698474Y17792D01*
X698558Y17785D01*
X698616Y17797D01*
X698674Y17798D01*
X698754Y17824D01*
X698837Y17841D01*
X698889Y17868D01*
X698945Y17886D01*
X699001Y17926D01*
X699089Y17972D01*
X699162Y18041D01*
X699218Y18081D01*
X701886Y20749D01*
X702190Y20749D01*
X702248Y20757D01*
X702306Y20755D01*
X702388Y20777D01*
X702472Y20789D01*
X702525Y20812D01*
X702581Y20827D01*
X702654Y20870D01*
X702731Y20905D01*
X702776Y20943D01*
X702826Y20972D01*
X702884Y21034D01*
X702948Y21088D01*
X702980Y21137D01*
X703020Y21180D01*
X703059Y21255D01*
X703106Y21325D01*
X703123Y21381D01*
X703150Y21433D01*
X703161Y21501D01*
X703191Y21596D01*
X703194Y21696D01*
X703205Y21764D01*
X703205Y29036D01*
X703197Y29094D01*
X703199Y29152D01*
X703177Y29234D01*
X703165Y29318D01*
X703142Y29371D01*
X703127Y29427D01*
X703084Y29500D01*
X703049Y29577D01*
X703011Y29622D01*
X702982Y29672D01*
X702920Y29730D01*
X702866Y29794D01*
X702817Y29826D01*
X702774Y29866D01*
X702699Y29905D01*
X702629Y29952D01*
X702573Y29969D01*
X702521Y29996D01*
X702453Y30007D01*
X702358Y30037D01*
X702258Y30040D01*
X702190Y30051D01*
X700237Y30051D01*
X699218Y31071D01*
X699171Y31106D01*
X699131Y31148D01*
X699058Y31191D01*
X698991Y31241D01*
X698936Y31262D01*
X698886Y31292D01*
X698804Y31313D01*
X698725Y31343D01*
X698667Y31348D01*
X698610Y31362D01*
X698526Y31359D01*
X698442Y31366D01*
X698384Y31355D01*
X698326Y31353D01*
X698246Y31327D01*
X698163Y31310D01*
X698111Y31283D01*
X698055Y31265D01*
X697999Y31225D01*
X697911Y31179D01*
X697838Y31111D01*
X697782Y31071D01*
X696763Y30051D01*
X683237Y30051D01*
X681451Y31837D01*
X681451Y44363D01*
X683237Y46149D01*
X685140Y46149D01*
X685226Y46161D01*
X685314Y46164D01*
X685366Y46181D01*
X685421Y46189D01*
X685501Y46224D01*
X685584Y46251D01*
X685624Y46279D01*
X685681Y46305D01*
X685794Y46401D01*
X685858Y46446D01*
X691038Y51626D01*
X691073Y51673D01*
X691115Y51713D01*
X691158Y51786D01*
X691209Y51853D01*
X691229Y51908D01*
X691259Y51958D01*
X691280Y52040D01*
X691310Y52119D01*
X691315Y52177D01*
X691329Y52234D01*
X691326Y52318D01*
X691333Y52402D01*
X691322Y52459D01*
X691320Y52518D01*
X691294Y52598D01*
X691277Y52681D01*
X691251Y52733D01*
X691233Y52788D01*
X691192Y52845D01*
X691146Y52933D01*
X691078Y53006D01*
X691038Y53062D01*
X689101Y54998D01*
X689101Y63874D01*
X689312Y64084D01*
X689364Y64154D01*
X689424Y64218D01*
X689450Y64268D01*
X689483Y64312D01*
X689514Y64393D01*
X689554Y64471D01*
X689562Y64519D01*
X689584Y64577D01*
X689596Y64725D01*
X689609Y64802D01*
X689609Y65977D01*
X697928Y65977D01*
X697986Y65985D01*
X698045Y65984D01*
X698126Y66005D01*
X698210Y66017D01*
X698263Y66041D01*
X698320Y66056D01*
X698392Y66099D01*
X698469Y66133D01*
X698497Y66157D01*
X698563Y66124D01*
X698633Y66077D01*
X698689Y66059D01*
X698741Y66033D01*
X698809Y66021D01*
X698904Y65991D01*
X699004Y65989D01*
X699072Y65977D01*
X707391Y65977D01*
X707391Y64802D01*
X707403Y64716D01*
X707406Y64628D01*
X707423Y64576D01*
X707431Y64521D01*
X707466Y64441D01*
X707493Y64358D01*
X707521Y64319D01*
X707547Y64261D01*
X707643Y64148D01*
X707688Y64084D01*
X707899Y63874D01*
X707899Y54998D01*
X706113Y53212D01*
X703580Y53212D01*
X703522Y53204D01*
X703464Y53206D01*
X703382Y53184D01*
X703298Y53172D01*
X703245Y53149D01*
X703189Y53134D01*
X703116Y53091D01*
X703039Y53056D01*
X702994Y53018D01*
X702944Y52989D01*
X702886Y52927D01*
X702822Y52873D01*
X702790Y52824D01*
X702750Y52781D01*
X702711Y52706D01*
X702664Y52636D01*
X702647Y52580D01*
X702620Y52528D01*
X702609Y52460D01*
X702579Y52365D01*
X702576Y52265D01*
X702565Y52197D01*
X702565Y51656D01*
X699886Y48978D01*
X697628Y46719D01*
X697593Y46673D01*
X697550Y46632D01*
X697508Y46560D01*
X697457Y46492D01*
X697436Y46438D01*
X697407Y46387D01*
X697386Y46305D01*
X697356Y46227D01*
X697351Y46168D01*
X697336Y46112D01*
X697339Y46027D01*
X697332Y45943D01*
X697344Y45886D01*
X697346Y45827D01*
X697372Y45747D01*
X697388Y45665D01*
X697415Y45613D01*
X697433Y45557D01*
X697473Y45501D01*
X697519Y45412D01*
X697588Y45340D01*
X697628Y45284D01*
X697782Y45129D01*
X697829Y45094D01*
X697869Y45052D01*
X697942Y45009D01*
X698009Y44958D01*
X698064Y44938D01*
X698114Y44908D01*
X698196Y44887D01*
X698275Y44857D01*
X698333Y44852D01*
X698390Y44838D01*
X698474Y44841D01*
X698558Y44834D01*
X698616Y44845D01*
X698674Y44847D01*
X698754Y44873D01*
X698837Y44890D01*
X698889Y44917D01*
X698945Y44935D01*
X699001Y44975D01*
X699089Y45021D01*
X699162Y45089D01*
X699218Y45129D01*
X700237Y46149D01*
X713763Y46149D01*
X715549Y44363D01*
X715549Y31837D01*
X713763Y30051D01*
X712350Y30051D01*
X712292Y30043D01*
X712234Y30045D01*
X712152Y30023D01*
X712068Y30011D01*
X712015Y29988D01*
X711959Y29973D01*
X711886Y29930D01*
X711809Y29895D01*
X711764Y29857D01*
X711714Y29828D01*
X711656Y29766D01*
X711592Y29712D01*
X711560Y29663D01*
X711520Y29620D01*
X711481Y29545D01*
X711434Y29475D01*
X711417Y29419D01*
X711390Y29367D01*
X711379Y29299D01*
X711349Y29204D01*
X711346Y29104D01*
X711335Y29036D01*
X711335Y21764D01*
X711343Y21706D01*
X711341Y21648D01*
X711363Y21566D01*
X711375Y21482D01*
X711398Y21429D01*
X711413Y21373D01*
X711456Y21300D01*
X711491Y21223D01*
X711529Y21178D01*
X711558Y21128D01*
X711620Y21070D01*
X711674Y21006D01*
X711723Y20974D01*
X711766Y20934D01*
X711841Y20895D01*
X711911Y20848D01*
X711967Y20831D01*
X712019Y20804D01*
X712087Y20793D01*
X712182Y20763D01*
X712282Y20760D01*
X712350Y20749D01*
X712654Y20749D01*
X715319Y18084D01*
X715319Y7316D01*
X713801Y5798D01*
X713783Y5774D01*
X713761Y5755D01*
X713698Y5661D01*
X713630Y5571D01*
X713619Y5543D01*
X713603Y5519D01*
X713569Y5411D01*
X713529Y5305D01*
X713526Y5276D01*
X713517Y5248D01*
X713514Y5134D01*
X713505Y5022D01*
X713511Y4993D01*
X713510Y4964D01*
X713539Y4854D01*
X713561Y4743D01*
X713574Y4717D01*
X713582Y4689D01*
X713640Y4591D01*
X713692Y4491D01*
X713712Y4469D01*
X713727Y4444D01*
X713810Y4367D01*
X713888Y4285D01*
X713913Y4270D01*
X713934Y4250D01*
X714035Y4198D01*
X714133Y4141D01*
X714161Y4134D01*
X714188Y4120D01*
X714265Y4107D01*
X714408Y4071D01*
X714471Y4073D01*
X714519Y4065D01*
X1816267Y4065D01*
X1816340Y4075D01*
X1816414Y4075D01*
X1816480Y4095D01*
X1816549Y4105D01*
X1816616Y4135D01*
X1816686Y4155D01*
X1816745Y4192D01*
X1816808Y4221D01*
X1816864Y4268D01*
X1816926Y4308D01*
X1816972Y4360D01*
X1817025Y4404D01*
X1817066Y4466D01*
X1817115Y4521D01*
X1817144Y4583D01*
X1817183Y4641D01*
X1817205Y4711D01*
X1817236Y4778D01*
X1817248Y4846D01*
X1817268Y4912D01*
X1817270Y4986D01*
X1817282Y5058D01*
X1817274Y5127D01*
X1817276Y5196D01*
X1817257Y5267D01*
X1817248Y5341D01*
X1817221Y5404D01*
X1817204Y5471D01*
X1817166Y5535D01*
X1817138Y5602D01*
X1817099Y5647D01*
X1817059Y5716D01*
X1816969Y5800D01*
X1816920Y5858D01*
X1811215Y10644D01*
X1807229Y17549D01*
X1805845Y25400D01*
X1807229Y33251D01*
X1811215Y40155D01*
X1817322Y45280D01*
X1824814Y48007D01*
X1832786Y48007D01*
X1840278Y45280D01*
X1846385Y40156D01*
X1848050Y37272D01*
X1848062Y37257D01*
X1848069Y37239D01*
X1848149Y37145D01*
X1848225Y37048D01*
X1848241Y37037D01*
X1848253Y37022D01*
X1848355Y36954D01*
X1848455Y36882D01*
X1848474Y36875D01*
X1848490Y36865D01*
X1848607Y36827D01*
X1848723Y36786D01*
X1848742Y36785D01*
X1848761Y36779D01*
X1848884Y36775D01*
X1849006Y36768D01*
X1849025Y36772D01*
X1849045Y36771D01*
X1849164Y36802D01*
X1849284Y36829D01*
X1849301Y36838D01*
X1849320Y36843D01*
X1849425Y36906D01*
X1849534Y36965D01*
X1849548Y36978D01*
X1849564Y36988D01*
X1849648Y37078D01*
X1849736Y37164D01*
X1849746Y37181D01*
X1849759Y37196D01*
X1849815Y37305D01*
X1849875Y37412D01*
X1849880Y37431D01*
X1849888Y37449D01*
X1849901Y37521D01*
X1849940Y37689D01*
X1849937Y37740D01*
X1849944Y37780D01*
X1849956Y88936D01*
X1849948Y88994D01*
X1849949Y89052D01*
X1849928Y89134D01*
X1849916Y89217D01*
X1849892Y89271D01*
X1849877Y89327D01*
X1849834Y89400D01*
X1849800Y89477D01*
X1849762Y89522D01*
X1849732Y89572D01*
X1849671Y89629D01*
X1849616Y89694D01*
X1849568Y89726D01*
X1849525Y89766D01*
X1849450Y89805D01*
X1849380Y89851D01*
X1849324Y89869D01*
X1849272Y89896D01*
X1849204Y89907D01*
X1849109Y89937D01*
X1849009Y89940D01*
X1848941Y89951D01*
X1828887Y89951D01*
X1827101Y91737D01*
X1827101Y106263D01*
X1828887Y108049D01*
X1848945Y108049D01*
X1849003Y108057D01*
X1849061Y108055D01*
X1849143Y108077D01*
X1849227Y108089D01*
X1849280Y108112D01*
X1849336Y108127D01*
X1849409Y108170D01*
X1849486Y108205D01*
X1849531Y108243D01*
X1849581Y108272D01*
X1849639Y108334D01*
X1849703Y108388D01*
X1849736Y108437D01*
X1849775Y108480D01*
X1849814Y108555D01*
X1849861Y108625D01*
X1849878Y108681D01*
X1849905Y108733D01*
X1849916Y108801D01*
X1849947Y108896D01*
X1849949Y108996D01*
X1849961Y109064D01*
X1849969Y144936D01*
X1849961Y144994D01*
X1849962Y145052D01*
X1849941Y145134D01*
X1849929Y145217D01*
X1849905Y145271D01*
X1849890Y145327D01*
X1849847Y145400D01*
X1849813Y145477D01*
X1849775Y145522D01*
X1849745Y145572D01*
X1849684Y145629D01*
X1849629Y145694D01*
X1849581Y145726D01*
X1849538Y145766D01*
X1849463Y145805D01*
X1849393Y145851D01*
X1849337Y145869D01*
X1849285Y145896D01*
X1849217Y145907D01*
X1849122Y145937D01*
X1849022Y145940D01*
X1848954Y145951D01*
X1828887Y145951D01*
X1827101Y147737D01*
X1827101Y162263D01*
X1828887Y164049D01*
X1848958Y164049D01*
X1849016Y164057D01*
X1849074Y164055D01*
X1849156Y164077D01*
X1849240Y164089D01*
X1849293Y164112D01*
X1849349Y164127D01*
X1849422Y164170D01*
X1849499Y164205D01*
X1849544Y164243D01*
X1849594Y164272D01*
X1849652Y164334D01*
X1849716Y164388D01*
X1849749Y164437D01*
X1849788Y164480D01*
X1849827Y164555D01*
X1849874Y164625D01*
X1849891Y164681D01*
X1849918Y164733D01*
X1849929Y164801D01*
X1849960Y164896D01*
X1849962Y164996D01*
X1849973Y165064D01*
X1849985Y216291D01*
X1849983Y216311D01*
X1849985Y216331D01*
X1849979Y216364D01*
X1849979Y216368D01*
X1849976Y216379D01*
X1849963Y216452D01*
X1849946Y216573D01*
X1849938Y216591D01*
X1849934Y216610D01*
X1849879Y216721D01*
X1849829Y216832D01*
X1849817Y216848D01*
X1849808Y216865D01*
X1849725Y216956D01*
X1849646Y217049D01*
X1849629Y217060D01*
X1849616Y217075D01*
X1849511Y217139D01*
X1849409Y217207D01*
X1849391Y217213D01*
X1849374Y217223D01*
X1849255Y217256D01*
X1849138Y217293D01*
X1849118Y217293D01*
X1849100Y217299D01*
X1848977Y217297D01*
X1848854Y217300D01*
X1848835Y217295D01*
X1848815Y217295D01*
X1848697Y217260D01*
X1848579Y217229D01*
X1848562Y217219D01*
X1848543Y217213D01*
X1848440Y217146D01*
X1848334Y217083D01*
X1848321Y217069D01*
X1848304Y217058D01*
X1848258Y217001D01*
X1848140Y216876D01*
X1848117Y216831D01*
X1848091Y216799D01*
X1846385Y213844D01*
X1840278Y208720D01*
X1832786Y205993D01*
X1824814Y205993D01*
X1817322Y208720D01*
X1811215Y213844D01*
X1807229Y220749D01*
X1805845Y228600D01*
X1807229Y236451D01*
X1811215Y243355D01*
X1817322Y248480D01*
X1824814Y251207D01*
X1832786Y251207D01*
X1840278Y248480D01*
X1846385Y243356D01*
X1848097Y240391D01*
X1848109Y240375D01*
X1848117Y240358D01*
X1848196Y240264D01*
X1848272Y240167D01*
X1848288Y240155D01*
X1848300Y240141D01*
X1848402Y240073D01*
X1848502Y240000D01*
X1848521Y239994D01*
X1848537Y239983D01*
X1848654Y239946D01*
X1848770Y239904D01*
X1848789Y239903D01*
X1848808Y239897D01*
X1848931Y239894D01*
X1849053Y239886D01*
X1849072Y239890D01*
X1849092Y239890D01*
X1849211Y239921D01*
X1849331Y239947D01*
X1849348Y239957D01*
X1849367Y239962D01*
X1849472Y240024D01*
X1849581Y240083D01*
X1849595Y240097D01*
X1849611Y240107D01*
X1849695Y240196D01*
X1849783Y240283D01*
X1849793Y240300D01*
X1849806Y240314D01*
X1849862Y240423D01*
X1849922Y240531D01*
X1849927Y240550D01*
X1849936Y240567D01*
X1849948Y240640D01*
X1849987Y240808D01*
X1849984Y240858D01*
X1849991Y240898D01*
X1849994Y254000D01*
X1849986Y254058D01*
X1849987Y254116D01*
X1849966Y254198D01*
X1849954Y254281D01*
X1849930Y254335D01*
X1849916Y254391D01*
X1849873Y254464D01*
X1849838Y254541D01*
X1849800Y254586D01*
X1849770Y254636D01*
X1849709Y254693D01*
X1849655Y254758D01*
X1849606Y254790D01*
X1849563Y254830D01*
X1849488Y254869D01*
X1849418Y254915D01*
X1849362Y254933D01*
X1849310Y254960D01*
X1849242Y254971D01*
X1849147Y255001D01*
X1849047Y255004D01*
X1848979Y255015D01*
X5080Y255015D01*
X5022Y255007D01*
X4964Y255009D01*
X4882Y254987D01*
X4798Y254975D01*
X4745Y254952D01*
X4689Y254937D01*
X4616Y254894D01*
X4539Y254859D01*
X4494Y254821D01*
X4444Y254792D01*
X4386Y254730D01*
X4322Y254676D01*
X4290Y254627D01*
X4250Y254584D01*
X4211Y254509D01*
X4164Y254439D01*
X4147Y254383D01*
X4120Y254331D01*
X4109Y254263D01*
X4079Y254168D01*
X4076Y254068D01*
X4065Y254000D01*
X4065Y240649D01*
X4067Y240629D01*
X4065Y240610D01*
X4087Y240489D01*
X4105Y240367D01*
X4113Y240349D01*
X4116Y240330D01*
X4171Y240220D01*
X4221Y240108D01*
X4233Y240093D01*
X4242Y240075D01*
X4325Y239984D01*
X4404Y239891D01*
X4421Y239880D01*
X4434Y239865D01*
X4539Y239801D01*
X4641Y239733D01*
X4660Y239727D01*
X4676Y239717D01*
X4795Y239684D01*
X4912Y239647D01*
X4932Y239647D01*
X4951Y239642D01*
X5073Y239643D01*
X5196Y239640D01*
X5215Y239645D01*
X5235Y239645D01*
X5353Y239681D01*
X5471Y239712D01*
X5488Y239722D01*
X5507Y239728D01*
X5610Y239794D01*
X5716Y239857D01*
X5729Y239871D01*
X5746Y239882D01*
X5792Y239939D01*
X5910Y240064D01*
X5934Y240110D01*
X5959Y240141D01*
X7815Y243356D01*
X13922Y248480D01*
X21414Y251207D01*
X29386Y251207D01*
X36878Y248480D01*
X42985Y243356D01*
X46971Y236451D01*
X48355Y228600D01*
X46971Y220749D01*
X42985Y213845D01*
X36878Y208720D01*
X29386Y205993D01*
X21414Y205993D01*
X13922Y208720D01*
X7815Y213844D01*
X5959Y217059D01*
X5947Y217074D01*
X5939Y217092D01*
X5860Y217186D01*
X5784Y217283D01*
X5768Y217294D01*
X5755Y217309D01*
X5653Y217378D01*
X5554Y217449D01*
X5535Y217456D01*
X5519Y217467D01*
X5401Y217504D01*
X5286Y217546D01*
X5266Y217547D01*
X5248Y217553D01*
X5125Y217556D01*
X5002Y217564D01*
X4983Y217559D01*
X4964Y217560D01*
X4845Y217529D01*
X4725Y217502D01*
X4707Y217493D01*
X4689Y217488D01*
X4583Y217426D01*
X4475Y217367D01*
X4461Y217353D01*
X4444Y217343D01*
X4360Y217253D01*
X4273Y217167D01*
X4263Y217150D01*
X4250Y217136D01*
X4194Y217026D01*
X4134Y216919D01*
X4129Y216900D01*
X4120Y216882D01*
X4108Y216810D01*
X4069Y216642D01*
X4071Y216591D01*
X4065Y216551D01*
X4065Y165064D01*
X4073Y165006D01*
X4071Y164948D01*
X4093Y164866D01*
X4105Y164782D01*
X4128Y164729D01*
X4143Y164673D01*
X4186Y164600D01*
X4221Y164523D01*
X4259Y164478D01*
X4288Y164428D01*
X4350Y164370D01*
X4404Y164306D01*
X4453Y164274D01*
X4496Y164234D01*
X4571Y164195D01*
X4641Y164148D01*
X4697Y164131D01*
X4749Y164104D01*
X4817Y164093D01*
X4912Y164063D01*
X5012Y164060D01*
X5080Y164049D01*
X25313Y164049D01*
X27099Y162263D01*
X27099Y147737D01*
X25313Y145951D01*
X5080Y145951D01*
X5022Y145943D01*
X4964Y145945D01*
X4882Y145923D01*
X4798Y145911D01*
X4745Y145888D01*
X4689Y145873D01*
X4616Y145830D01*
X4539Y145795D01*
X4494Y145757D01*
X4444Y145728D01*
X4386Y145666D01*
X4322Y145612D01*
X4290Y145563D01*
X4250Y145520D01*
X4211Y145445D01*
X4164Y145375D01*
X4147Y145319D01*
X4120Y145267D01*
X4109Y145199D01*
X4079Y145104D01*
X4076Y145004D01*
X4065Y144936D01*
X4065Y109064D01*
X4073Y109006D01*
X4071Y108948D01*
X4093Y108866D01*
X4105Y108782D01*
X4128Y108729D01*
X4143Y108673D01*
X4186Y108600D01*
X4221Y108523D01*
X4259Y108478D01*
X4288Y108428D01*
X4350Y108370D01*
X4404Y108306D01*
X4453Y108274D01*
X4496Y108234D01*
X4571Y108195D01*
X4641Y108148D01*
X4697Y108131D01*
X4749Y108104D01*
X4817Y108093D01*
X4912Y108063D01*
X5012Y108060D01*
X5080Y108049D01*
X25313Y108049D01*
X27099Y106263D01*
X27099Y91737D01*
X25313Y89951D01*
X5080Y89951D01*
X5022Y89943D01*
X4964Y89945D01*
X4882Y89923D01*
X4798Y89911D01*
X4745Y89888D01*
X4689Y89873D01*
X4616Y89830D01*
X4539Y89795D01*
X4494Y89757D01*
X4444Y89728D01*
X4386Y89666D01*
X4322Y89612D01*
X4290Y89563D01*
X4250Y89520D01*
X4211Y89445D01*
X4164Y89375D01*
X4147Y89319D01*
X4120Y89267D01*
X4109Y89199D01*
X4079Y89104D01*
X4076Y89004D01*
X4065Y88936D01*
X4065Y37449D01*
X4067Y37429D01*
X4065Y37410D01*
X4087Y37289D01*
X4105Y37167D01*
X4113Y37149D01*
X4116Y37130D01*
X4171Y37020D01*
X4221Y36908D01*
X4233Y36893D01*
X4242Y36875D01*
X4325Y36784D01*
X4404Y36691D01*
X4421Y36680D01*
X4434Y36665D01*
X4539Y36601D01*
X4641Y36533D01*
X4660Y36527D01*
X4676Y36517D01*
X4795Y36484D01*
X4912Y36447D01*
X4932Y36447D01*
X4951Y36442D01*
X5073Y36443D01*
X5196Y36440D01*
X5215Y36445D01*
X5235Y36445D01*
X5353Y36481D01*
X5471Y36512D01*
X5488Y36522D01*
X5507Y36528D01*
X5610Y36594D01*
X5716Y36657D01*
X5729Y36671D01*
X5746Y36682D01*
X5792Y36739D01*
X5910Y36864D01*
X5934Y36910D01*
X5959Y36941D01*
X7815Y40156D01*
X13922Y45280D01*
X21414Y48007D01*
X29386Y48007D01*
X36878Y45280D01*
X42985Y40156D01*
X46971Y33251D01*
X48355Y25400D01*
X46971Y17549D01*
X42985Y10645D01*
X37280Y5858D01*
X37231Y5803D01*
X37175Y5755D01*
X37136Y5698D01*
X37090Y5646D01*
X37058Y5580D01*
X37017Y5519D01*
X36996Y5453D01*
X36966Y5390D01*
X36954Y5318D01*
X36932Y5248D01*
X36930Y5179D01*
X36918Y5110D01*
X36926Y5037D01*
X36924Y4964D01*
X36942Y4897D01*
X36949Y4828D01*
X36977Y4760D01*
X36996Y4689D01*
X37031Y4629D01*
X37058Y4565D01*
X37104Y4507D01*
X37141Y4444D01*
X37192Y4397D01*
X37235Y4343D01*
X37295Y4300D01*
X37349Y4250D01*
X37410Y4218D01*
X37467Y4178D01*
X37536Y4154D01*
X37602Y4120D01*
X37660Y4110D01*
X37735Y4084D01*
X37857Y4077D01*
X37933Y4065D01*
X78424Y4065D01*
X78515Y4078D01*
G37*
%LPC*%
G36*
X206596Y21335D02*
X206596Y21335D01*
X199135Y28796D01*
X199135Y32224D01*
X199123Y32311D01*
X199120Y32398D01*
X199103Y32451D01*
X199095Y32506D01*
X199060Y32585D01*
X199033Y32669D01*
X199005Y32708D01*
X198979Y32765D01*
X198883Y32878D01*
X198838Y32942D01*
X197493Y34287D01*
X196468Y36761D01*
X196468Y39439D01*
X196700Y39997D01*
X196728Y40109D01*
X196763Y40218D01*
X196764Y40246D01*
X196771Y40273D01*
X196767Y40387D01*
X196770Y40502D01*
X196763Y40529D01*
X196762Y40557D01*
X196727Y40666D01*
X196698Y40777D01*
X196684Y40801D01*
X196676Y40828D01*
X196612Y40923D01*
X196553Y41022D01*
X196533Y41041D01*
X196517Y41064D01*
X196430Y41138D01*
X196346Y41216D01*
X196321Y41229D01*
X196300Y41247D01*
X196195Y41294D01*
X196093Y41346D01*
X196068Y41350D01*
X196040Y41362D01*
X195776Y41399D01*
X195762Y41401D01*
X190126Y41401D01*
X189916Y41612D01*
X189846Y41664D01*
X189782Y41724D01*
X189732Y41750D01*
X189688Y41783D01*
X189607Y41814D01*
X189529Y41854D01*
X189481Y41862D01*
X189423Y41884D01*
X189275Y41896D01*
X189198Y41909D01*
X188023Y41909D01*
X188023Y50228D01*
X188015Y50286D01*
X188016Y50345D01*
X187995Y50426D01*
X187983Y50510D01*
X187959Y50563D01*
X187944Y50620D01*
X187901Y50692D01*
X187867Y50769D01*
X187843Y50797D01*
X187876Y50863D01*
X187923Y50933D01*
X187941Y50989D01*
X187967Y51041D01*
X187979Y51109D01*
X188009Y51204D01*
X188011Y51304D01*
X188023Y51372D01*
X188023Y59691D01*
X189198Y59691D01*
X189284Y59703D01*
X189372Y59706D01*
X189424Y59723D01*
X189479Y59731D01*
X189559Y59766D01*
X189642Y59793D01*
X189681Y59821D01*
X189739Y59847D01*
X189852Y59943D01*
X189916Y59988D01*
X190126Y60199D01*
X199002Y60199D01*
X200788Y58413D01*
X200788Y55880D01*
X200796Y55822D01*
X200794Y55764D01*
X200816Y55682D01*
X200828Y55598D01*
X200851Y55545D01*
X200866Y55489D01*
X200909Y55416D01*
X200944Y55339D01*
X200982Y55294D01*
X201011Y55244D01*
X201073Y55186D01*
X201127Y55122D01*
X201176Y55090D01*
X201219Y55050D01*
X201294Y55011D01*
X201364Y54964D01*
X201420Y54947D01*
X201472Y54920D01*
X201540Y54909D01*
X201635Y54879D01*
X201735Y54876D01*
X201803Y54865D01*
X203633Y54865D01*
X203719Y54877D01*
X203807Y54880D01*
X203859Y54897D01*
X203914Y54905D01*
X203994Y54940D01*
X204077Y54967D01*
X204116Y54995D01*
X204174Y55021D01*
X204287Y55117D01*
X204351Y55162D01*
X205621Y56432D01*
X205656Y56479D01*
X205698Y56519D01*
X205741Y56592D01*
X205791Y56659D01*
X205812Y56714D01*
X205842Y56764D01*
X205863Y56846D01*
X205893Y56925D01*
X205898Y56983D01*
X205912Y57040D01*
X205909Y57124D01*
X205916Y57208D01*
X205905Y57266D01*
X205903Y57324D01*
X205877Y57404D01*
X205860Y57487D01*
X205833Y57539D01*
X205815Y57595D01*
X205775Y57651D01*
X205729Y57739D01*
X205661Y57812D01*
X205621Y57868D01*
X204251Y59237D01*
X204251Y66128D01*
X204239Y66215D01*
X204236Y66303D01*
X204219Y66355D01*
X204211Y66410D01*
X204176Y66490D01*
X204149Y66573D01*
X204121Y66612D01*
X204095Y66669D01*
X203999Y66783D01*
X203954Y66846D01*
X199135Y71665D01*
X199135Y121064D01*
X206537Y128465D01*
X206555Y128490D01*
X206579Y128510D01*
X206621Y128577D01*
X206708Y128693D01*
X206731Y128753D01*
X206757Y128795D01*
X207593Y130813D01*
X208938Y132158D01*
X208990Y132228D01*
X209050Y132292D01*
X209076Y132341D01*
X209109Y132385D01*
X209140Y132467D01*
X209180Y132545D01*
X209188Y132592D01*
X209210Y132651D01*
X209222Y132799D01*
X209235Y132876D01*
X209235Y151484D01*
X214216Y156465D01*
X223236Y156465D01*
X223294Y156473D01*
X223352Y156471D01*
X223434Y156493D01*
X223518Y156505D01*
X223571Y156528D01*
X223627Y156543D01*
X223700Y156586D01*
X223777Y156621D01*
X223822Y156659D01*
X223872Y156688D01*
X223930Y156750D01*
X223994Y156804D01*
X224026Y156853D01*
X224066Y156896D01*
X224105Y156971D01*
X224152Y157041D01*
X224169Y157097D01*
X224196Y157149D01*
X224207Y157217D01*
X224237Y157312D01*
X224240Y157412D01*
X224251Y157480D01*
X224251Y158663D01*
X226037Y160449D01*
X239563Y160449D01*
X240582Y159429D01*
X240629Y159394D01*
X240669Y159352D01*
X240742Y159309D01*
X240809Y159259D01*
X240864Y159238D01*
X240914Y159208D01*
X240996Y159187D01*
X241075Y159157D01*
X241133Y159152D01*
X241190Y159138D01*
X241274Y159141D01*
X241358Y159134D01*
X241416Y159145D01*
X241474Y159147D01*
X241554Y159173D01*
X241637Y159190D01*
X241689Y159217D01*
X241745Y159235D01*
X241801Y159275D01*
X241889Y159321D01*
X241962Y159389D01*
X242018Y159429D01*
X243037Y160449D01*
X256563Y160449D01*
X258349Y158663D01*
X258349Y146137D01*
X256563Y144351D01*
X247920Y144351D01*
X247834Y144339D01*
X247746Y144336D01*
X247694Y144319D01*
X247639Y144311D01*
X247559Y144276D01*
X247476Y144249D01*
X247436Y144221D01*
X247379Y144195D01*
X247266Y144099D01*
X247202Y144054D01*
X245772Y142624D01*
X245755Y142600D01*
X245732Y142581D01*
X245669Y142487D01*
X245601Y142397D01*
X245591Y142369D01*
X245575Y142345D01*
X245540Y142237D01*
X245500Y142131D01*
X245498Y142102D01*
X245489Y142074D01*
X245486Y141960D01*
X245477Y141848D01*
X245482Y141819D01*
X245482Y141790D01*
X245510Y141680D01*
X245532Y141569D01*
X245546Y141543D01*
X245553Y141515D01*
X245611Y141417D01*
X245663Y141317D01*
X245684Y141295D01*
X245699Y141270D01*
X245781Y141193D01*
X245859Y141111D01*
X245885Y141096D01*
X245906Y141076D01*
X246007Y141024D01*
X246105Y140967D01*
X246133Y140960D01*
X246159Y140946D01*
X246236Y140933D01*
X246380Y140897D01*
X246443Y140899D01*
X246490Y140891D01*
X247769Y140891D01*
X247769Y134366D01*
X247777Y134308D01*
X247775Y134250D01*
X247797Y134168D01*
X247809Y134085D01*
X247833Y134031D01*
X247847Y133975D01*
X247890Y133902D01*
X247925Y133825D01*
X247963Y133781D01*
X247993Y133730D01*
X248054Y133673D01*
X248109Y133608D01*
X248157Y133576D01*
X248200Y133536D01*
X248275Y133497D01*
X248345Y133451D01*
X248401Y133433D01*
X248453Y133406D01*
X248521Y133395D01*
X248616Y133365D01*
X248716Y133362D01*
X248784Y133351D01*
X249801Y133351D01*
X249801Y133349D01*
X248784Y133349D01*
X248726Y133341D01*
X248668Y133342D01*
X248586Y133321D01*
X248503Y133309D01*
X248449Y133285D01*
X248393Y133271D01*
X248320Y133228D01*
X248243Y133193D01*
X248198Y133155D01*
X248148Y133125D01*
X248090Y133064D01*
X248026Y133009D01*
X247994Y132961D01*
X247954Y132918D01*
X247915Y132843D01*
X247869Y132773D01*
X247851Y132717D01*
X247824Y132665D01*
X247813Y132597D01*
X247783Y132502D01*
X247780Y132402D01*
X247769Y132334D01*
X247769Y125809D01*
X246380Y125809D01*
X246322Y125801D01*
X246264Y125803D01*
X246182Y125781D01*
X246098Y125769D01*
X246045Y125746D01*
X245989Y125731D01*
X245916Y125688D01*
X245839Y125653D01*
X245794Y125615D01*
X245744Y125586D01*
X245686Y125524D01*
X245622Y125470D01*
X245590Y125421D01*
X245550Y125378D01*
X245511Y125303D01*
X245464Y125233D01*
X245447Y125177D01*
X245420Y125125D01*
X245409Y125057D01*
X245379Y124962D01*
X245376Y124862D01*
X245365Y124794D01*
X245365Y112616D01*
X236264Y103516D01*
X236212Y103446D01*
X236152Y103382D01*
X236126Y103333D01*
X236093Y103288D01*
X236062Y103207D01*
X236022Y103129D01*
X236014Y103081D01*
X235992Y103023D01*
X235980Y102875D01*
X235967Y102798D01*
X235967Y100135D01*
X234845Y97427D01*
X232962Y95544D01*
X232910Y95474D01*
X232850Y95410D01*
X232824Y95361D01*
X232791Y95317D01*
X232760Y95235D01*
X232720Y95157D01*
X232712Y95110D01*
X232690Y95051D01*
X232678Y94903D01*
X232665Y94826D01*
X232665Y87216D01*
X230397Y84949D01*
X230328Y84857D01*
X230254Y84769D01*
X230243Y84744D01*
X230226Y84722D01*
X230185Y84614D01*
X230139Y84509D01*
X230135Y84482D01*
X230125Y84456D01*
X230115Y84342D01*
X230100Y84228D01*
X230104Y84200D01*
X230101Y84173D01*
X230124Y84060D01*
X230140Y83946D01*
X230152Y83921D01*
X230157Y83894D01*
X230210Y83792D01*
X230258Y83687D01*
X230276Y83666D01*
X230288Y83642D01*
X230367Y83558D01*
X230442Y83471D01*
X230463Y83458D01*
X230484Y83435D01*
X230714Y83301D01*
X230726Y83293D01*
X232773Y82445D01*
X234845Y80373D01*
X235967Y77665D01*
X235967Y75002D01*
X235979Y74916D01*
X235982Y74828D01*
X235999Y74775D01*
X236007Y74721D01*
X236042Y74641D01*
X236069Y74558D01*
X236097Y74518D01*
X236123Y74461D01*
X236219Y74348D01*
X236264Y74284D01*
X242686Y67862D01*
X242756Y67810D01*
X242820Y67750D01*
X242869Y67724D01*
X242914Y67691D01*
X242995Y67660D01*
X243073Y67620D01*
X243121Y67612D01*
X243179Y67590D01*
X243327Y67578D01*
X243404Y67565D01*
X250493Y67565D01*
X250578Y67577D01*
X250664Y67579D01*
X250718Y67597D01*
X250775Y67605D01*
X250853Y67640D01*
X250935Y67666D01*
X250982Y67698D01*
X251034Y67721D01*
X251100Y67776D01*
X251171Y67824D01*
X251208Y67868D01*
X251251Y67904D01*
X251299Y67976D01*
X251354Y68042D01*
X251377Y68094D01*
X251409Y68141D01*
X251435Y68223D01*
X251470Y68302D01*
X251477Y68358D01*
X251495Y68412D01*
X251497Y68498D01*
X251508Y68583D01*
X251500Y68639D01*
X251502Y68696D01*
X251480Y68779D01*
X251468Y68865D01*
X251444Y68916D01*
X251430Y68971D01*
X251386Y69045D01*
X251351Y69124D01*
X251314Y69167D01*
X251285Y69216D01*
X251222Y69275D01*
X251166Y69340D01*
X251124Y69366D01*
X251077Y69410D01*
X250948Y69476D01*
X250882Y69518D01*
X249827Y69955D01*
X247755Y72027D01*
X246633Y74735D01*
X246633Y77665D01*
X247755Y80373D01*
X249827Y82445D01*
X252535Y83567D01*
X255465Y83567D01*
X258173Y82445D01*
X259485Y81133D01*
X259532Y81098D01*
X259572Y81055D01*
X259645Y81012D01*
X259713Y80962D01*
X259767Y80941D01*
X259818Y80911D01*
X259899Y80891D01*
X259978Y80861D01*
X260037Y80856D01*
X260093Y80841D01*
X260178Y80844D01*
X260262Y80837D01*
X260319Y80849D01*
X260377Y80850D01*
X260458Y80876D01*
X260540Y80893D01*
X260592Y80920D01*
X260648Y80938D01*
X260704Y80978D01*
X260793Y81024D01*
X260865Y81093D01*
X260921Y81133D01*
X261621Y81832D01*
X261656Y81879D01*
X261698Y81919D01*
X261741Y81992D01*
X261791Y82059D01*
X261812Y82114D01*
X261842Y82164D01*
X261863Y82246D01*
X261893Y82325D01*
X261898Y82383D01*
X261912Y82440D01*
X261909Y82524D01*
X261916Y82608D01*
X261905Y82666D01*
X261903Y82724D01*
X261877Y82804D01*
X261860Y82887D01*
X261833Y82939D01*
X261815Y82995D01*
X261775Y83051D01*
X261729Y83139D01*
X261661Y83212D01*
X261621Y83268D01*
X260251Y84637D01*
X260251Y93163D01*
X261621Y94532D01*
X261656Y94579D01*
X261698Y94619D01*
X261741Y94692D01*
X261791Y94759D01*
X261812Y94814D01*
X261842Y94864D01*
X261863Y94946D01*
X261893Y95025D01*
X261898Y95083D01*
X261912Y95140D01*
X261909Y95224D01*
X261916Y95308D01*
X261905Y95366D01*
X261903Y95424D01*
X261877Y95504D01*
X261860Y95587D01*
X261833Y95639D01*
X261815Y95695D01*
X261775Y95751D01*
X261729Y95839D01*
X261661Y95912D01*
X261621Y95968D01*
X260562Y97026D01*
X260515Y97062D01*
X260475Y97104D01*
X260402Y97147D01*
X260335Y97197D01*
X260280Y97218D01*
X260230Y97248D01*
X260148Y97268D01*
X260069Y97299D01*
X260011Y97303D01*
X259954Y97318D01*
X259870Y97315D01*
X259786Y97322D01*
X259729Y97311D01*
X259670Y97309D01*
X259590Y97283D01*
X259507Y97266D01*
X259455Y97239D01*
X259400Y97221D01*
X259343Y97181D01*
X259255Y97135D01*
X259182Y97066D01*
X259126Y97026D01*
X258372Y96273D01*
X257249Y95522D01*
X256001Y95005D01*
X255269Y94859D01*
X255269Y101346D01*
X255261Y101404D01*
X255263Y101462D01*
X255241Y101544D01*
X255232Y101612D01*
X255255Y101686D01*
X255258Y101786D01*
X255269Y101854D01*
X255269Y108341D01*
X256001Y108195D01*
X257249Y107678D01*
X258372Y106927D01*
X259126Y106174D01*
X259173Y106139D01*
X259213Y106096D01*
X259286Y106053D01*
X259353Y106003D01*
X259408Y105982D01*
X259458Y105952D01*
X259540Y105931D01*
X259619Y105901D01*
X259677Y105897D01*
X259734Y105882D01*
X259818Y105885D01*
X259902Y105878D01*
X259960Y105889D01*
X260018Y105891D01*
X260098Y105917D01*
X260181Y105934D01*
X260233Y105961D01*
X260289Y105979D01*
X260345Y106019D01*
X260433Y106065D01*
X260506Y106134D01*
X260562Y106174D01*
X262019Y107630D01*
X262048Y107669D01*
X262084Y107702D01*
X262133Y107783D01*
X262190Y107857D01*
X262207Y107903D01*
X262232Y107945D01*
X262257Y108035D01*
X262291Y108123D01*
X262295Y108172D01*
X262308Y108219D01*
X262307Y108313D01*
X262314Y108406D01*
X262305Y108454D01*
X262304Y108503D01*
X262277Y108593D01*
X262259Y108685D01*
X262236Y108728D01*
X262222Y108775D01*
X262171Y108854D01*
X262128Y108937D01*
X262094Y108973D01*
X262067Y109014D01*
X262010Y109061D01*
X261932Y109144D01*
X261857Y109187D01*
X261808Y109227D01*
X261740Y109267D01*
X261267Y109740D01*
X260932Y110319D01*
X260759Y110966D01*
X260759Y112801D01*
X268816Y112801D01*
X268874Y112809D01*
X268932Y112807D01*
X269014Y112829D01*
X269097Y112841D01*
X269151Y112864D01*
X269207Y112879D01*
X269280Y112922D01*
X269299Y112931D01*
X269345Y112900D01*
X269401Y112883D01*
X269453Y112856D01*
X269521Y112845D01*
X269616Y112815D01*
X269716Y112812D01*
X269784Y112801D01*
X277841Y112801D01*
X277841Y110966D01*
X277668Y110319D01*
X277333Y109740D01*
X276860Y109267D01*
X276792Y109227D01*
X276753Y109197D01*
X276710Y109175D01*
X276642Y109110D01*
X276568Y109052D01*
X276539Y109013D01*
X276504Y108979D01*
X276456Y108898D01*
X276401Y108822D01*
X276385Y108776D01*
X276360Y108734D01*
X276337Y108643D01*
X276305Y108554D01*
X276302Y108505D01*
X276290Y108458D01*
X276293Y108364D01*
X276287Y108270D01*
X276297Y108223D01*
X276299Y108174D01*
X276328Y108085D01*
X276348Y107993D01*
X276371Y107950D01*
X276386Y107904D01*
X276429Y107843D01*
X276484Y107743D01*
X276545Y107681D01*
X276581Y107630D01*
X277414Y106798D01*
X277460Y106763D01*
X277501Y106720D01*
X277574Y106678D01*
X277641Y106627D01*
X277695Y106606D01*
X277746Y106577D01*
X277828Y106556D01*
X277907Y106526D01*
X277965Y106521D01*
X278021Y106506D01*
X278106Y106509D01*
X278190Y106502D01*
X278247Y106514D01*
X278306Y106516D01*
X278386Y106541D01*
X278469Y106558D01*
X278520Y106585D01*
X278576Y106603D01*
X278632Y106643D01*
X278721Y106689D01*
X278793Y106758D01*
X278849Y106798D01*
X287738Y115686D01*
X287790Y115756D01*
X287850Y115820D01*
X287876Y115869D01*
X287909Y115914D01*
X287940Y115995D01*
X287980Y116073D01*
X287988Y116121D01*
X288010Y116179D01*
X288022Y116327D01*
X288035Y116404D01*
X288035Y162996D01*
X288023Y163082D01*
X288020Y163170D01*
X288003Y163222D01*
X287995Y163277D01*
X287960Y163357D01*
X287933Y163440D01*
X287905Y163480D01*
X287879Y163537D01*
X287783Y163650D01*
X287738Y163714D01*
X275474Y175978D01*
X275404Y176030D01*
X275340Y176090D01*
X275291Y176116D01*
X275246Y176149D01*
X275165Y176180D01*
X275087Y176220D01*
X275039Y176228D01*
X274981Y176250D01*
X274833Y176262D01*
X274756Y176275D01*
X180585Y176275D01*
X180566Y176273D01*
X180546Y176275D01*
X180425Y176253D01*
X180304Y176235D01*
X180286Y176227D01*
X180266Y176224D01*
X180156Y176169D01*
X180044Y176119D01*
X180029Y176106D01*
X180012Y176098D01*
X179921Y176015D01*
X179827Y175936D01*
X179816Y175919D01*
X179802Y175906D01*
X179738Y175801D01*
X179670Y175699D01*
X179664Y175680D01*
X179653Y175663D01*
X179621Y175545D01*
X179584Y175428D01*
X179583Y175408D01*
X179578Y175389D01*
X179580Y175267D01*
X179576Y175144D01*
X179581Y175125D01*
X179582Y175105D01*
X179617Y174987D01*
X179648Y174869D01*
X179658Y174852D01*
X179664Y174833D01*
X179731Y174729D01*
X179794Y174624D01*
X179808Y174611D01*
X179818Y174594D01*
X179875Y174547D01*
X180001Y174430D01*
X180046Y174406D01*
X180077Y174381D01*
X180160Y174333D01*
X180633Y173860D01*
X180968Y173281D01*
X181141Y172634D01*
X181141Y169799D01*
X175584Y169799D01*
X175526Y169791D01*
X175468Y169793D01*
X175386Y169771D01*
X175303Y169759D01*
X175249Y169736D01*
X175193Y169721D01*
X175120Y169678D01*
X175043Y169643D01*
X174999Y169605D01*
X174948Y169576D01*
X174891Y169514D01*
X174826Y169460D01*
X174794Y169411D01*
X174754Y169368D01*
X174715Y169293D01*
X174669Y169223D01*
X174651Y169167D01*
X174624Y169115D01*
X174613Y169047D01*
X174600Y169005D01*
X174591Y169066D01*
X174567Y169119D01*
X174553Y169175D01*
X174509Y169248D01*
X174475Y169325D01*
X174437Y169370D01*
X174407Y169420D01*
X174346Y169478D01*
X174291Y169542D01*
X174243Y169574D01*
X174200Y169614D01*
X174125Y169653D01*
X174055Y169700D01*
X173999Y169717D01*
X173947Y169744D01*
X173879Y169755D01*
X173784Y169785D01*
X173684Y169788D01*
X173616Y169799D01*
X168059Y169799D01*
X168059Y172634D01*
X168232Y173281D01*
X168567Y173860D01*
X169040Y174333D01*
X169123Y174381D01*
X169138Y174393D01*
X169156Y174401D01*
X169250Y174480D01*
X169346Y174556D01*
X169358Y174572D01*
X169373Y174585D01*
X169441Y174687D01*
X169513Y174786D01*
X169520Y174805D01*
X169530Y174821D01*
X169568Y174939D01*
X169609Y175054D01*
X169610Y175073D01*
X169616Y175092D01*
X169619Y175215D01*
X169627Y175338D01*
X169623Y175357D01*
X169624Y175376D01*
X169593Y175495D01*
X169566Y175615D01*
X169557Y175633D01*
X169552Y175651D01*
X169489Y175757D01*
X169430Y175865D01*
X169417Y175879D01*
X169406Y175896D01*
X169317Y175980D01*
X169231Y176067D01*
X169214Y176077D01*
X169199Y176090D01*
X169090Y176146D01*
X168983Y176206D01*
X168964Y176211D01*
X168946Y176220D01*
X168873Y176232D01*
X168706Y176271D01*
X168655Y176269D01*
X168615Y176275D01*
X162387Y176275D01*
X162358Y176271D01*
X162329Y176274D01*
X162218Y176251D01*
X162106Y176235D01*
X162079Y176223D01*
X162050Y176218D01*
X161950Y176165D01*
X161846Y176119D01*
X161824Y176100D01*
X161798Y176087D01*
X161716Y176009D01*
X161629Y175936D01*
X161613Y175911D01*
X161592Y175891D01*
X161535Y175793D01*
X161472Y175699D01*
X161463Y175671D01*
X161448Y175646D01*
X161420Y175536D01*
X161386Y175428D01*
X161385Y175398D01*
X161378Y175370D01*
X161382Y175257D01*
X161379Y175144D01*
X161386Y175115D01*
X161387Y175086D01*
X161422Y174978D01*
X161451Y174869D01*
X161465Y174843D01*
X161475Y174815D01*
X161520Y174751D01*
X161596Y174624D01*
X161641Y174581D01*
X161669Y174542D01*
X162649Y173563D01*
X162649Y162037D01*
X160863Y160251D01*
X150337Y160251D01*
X148551Y162037D01*
X148551Y162720D01*
X148543Y162778D01*
X148545Y162836D01*
X148523Y162918D01*
X148511Y163002D01*
X148488Y163055D01*
X148473Y163111D01*
X148430Y163184D01*
X148395Y163261D01*
X148357Y163306D01*
X148328Y163356D01*
X148266Y163414D01*
X148212Y163478D01*
X148163Y163510D01*
X148120Y163550D01*
X148045Y163589D01*
X147975Y163636D01*
X147919Y163653D01*
X147867Y163680D01*
X147799Y163691D01*
X147704Y163721D01*
X147604Y163724D01*
X147536Y163735D01*
X140396Y163735D01*
X139194Y164938D01*
X139124Y164990D01*
X139060Y165050D01*
X139011Y165076D01*
X138966Y165109D01*
X138885Y165140D01*
X138807Y165180D01*
X138759Y165188D01*
X138701Y165210D01*
X138553Y165222D01*
X138476Y165235D01*
X136064Y165235D01*
X136006Y165227D01*
X135948Y165229D01*
X135866Y165207D01*
X135782Y165195D01*
X135729Y165172D01*
X135673Y165157D01*
X135600Y165114D01*
X135523Y165079D01*
X135478Y165041D01*
X135428Y165012D01*
X135370Y164950D01*
X135306Y164896D01*
X135274Y164847D01*
X135234Y164804D01*
X135195Y164729D01*
X135148Y164659D01*
X135131Y164603D01*
X135104Y164551D01*
X135093Y164483D01*
X135063Y164388D01*
X135060Y164288D01*
X135049Y164220D01*
X135049Y162537D01*
X133263Y160751D01*
X120737Y160751D01*
X118951Y162537D01*
X118951Y176063D01*
X119971Y177082D01*
X120006Y177129D01*
X120048Y177169D01*
X120091Y177242D01*
X120141Y177309D01*
X120162Y177364D01*
X120192Y177414D01*
X120213Y177496D01*
X120243Y177575D01*
X120248Y177633D01*
X120262Y177690D01*
X120259Y177774D01*
X120266Y177858D01*
X120255Y177916D01*
X120253Y177974D01*
X120227Y178054D01*
X120210Y178137D01*
X120183Y178189D01*
X120165Y178245D01*
X120125Y178301D01*
X120079Y178389D01*
X120011Y178462D01*
X119971Y178518D01*
X118951Y179537D01*
X118951Y193063D01*
X120737Y194849D01*
X133263Y194849D01*
X135049Y193063D01*
X135049Y191380D01*
X135057Y191322D01*
X135055Y191264D01*
X135077Y191182D01*
X135089Y191098D01*
X135112Y191045D01*
X135127Y190989D01*
X135170Y190916D01*
X135205Y190839D01*
X135243Y190794D01*
X135272Y190744D01*
X135334Y190686D01*
X135388Y190622D01*
X135437Y190590D01*
X135480Y190550D01*
X135555Y190511D01*
X135625Y190464D01*
X135681Y190447D01*
X135733Y190420D01*
X135801Y190409D01*
X135896Y190379D01*
X135996Y190376D01*
X136064Y190365D01*
X145584Y190365D01*
X151246Y184702D01*
X151316Y184650D01*
X151380Y184590D01*
X151429Y184564D01*
X151474Y184531D01*
X151555Y184500D01*
X151633Y184460D01*
X151681Y184452D01*
X151739Y184430D01*
X151887Y184418D01*
X151964Y184405D01*
X157036Y184405D01*
X157094Y184413D01*
X157152Y184411D01*
X157234Y184433D01*
X157318Y184445D01*
X157371Y184468D01*
X157427Y184483D01*
X157500Y184526D01*
X157577Y184561D01*
X157622Y184599D01*
X157672Y184628D01*
X157730Y184690D01*
X157794Y184744D01*
X157826Y184793D01*
X157866Y184836D01*
X157905Y184911D01*
X157952Y184981D01*
X157969Y185037D01*
X157996Y185089D01*
X158007Y185157D01*
X158037Y185252D01*
X158040Y185352D01*
X158051Y185420D01*
X158051Y194563D01*
X159837Y196349D01*
X160020Y196349D01*
X160078Y196357D01*
X160136Y196355D01*
X160218Y196377D01*
X160302Y196389D01*
X160355Y196412D01*
X160411Y196427D01*
X160484Y196470D01*
X160561Y196505D01*
X160606Y196543D01*
X160656Y196572D01*
X160714Y196634D01*
X160778Y196688D01*
X160810Y196737D01*
X160850Y196780D01*
X160889Y196855D01*
X160936Y196925D01*
X160953Y196981D01*
X160980Y197033D01*
X160991Y197101D01*
X161021Y197196D01*
X161024Y197296D01*
X161035Y197364D01*
X161035Y199881D01*
X161031Y199910D01*
X161034Y199940D01*
X161011Y200051D01*
X160995Y200163D01*
X160983Y200190D01*
X160978Y200218D01*
X160925Y200319D01*
X160879Y200422D01*
X160860Y200445D01*
X160847Y200471D01*
X160769Y200553D01*
X160696Y200639D01*
X160671Y200656D01*
X160651Y200677D01*
X160553Y200734D01*
X160459Y200797D01*
X160431Y200806D01*
X160406Y200821D01*
X160296Y200848D01*
X160188Y200883D01*
X160158Y200883D01*
X160130Y200891D01*
X160017Y200887D01*
X159904Y200890D01*
X159875Y200883D01*
X159846Y200882D01*
X159738Y200847D01*
X159629Y200818D01*
X159603Y200803D01*
X159575Y200794D01*
X159512Y200749D01*
X159384Y200673D01*
X159341Y200627D01*
X159302Y200599D01*
X157784Y199081D01*
X147016Y199081D01*
X144351Y201746D01*
X144351Y210820D01*
X144343Y210878D01*
X144345Y210936D01*
X144323Y211018D01*
X144311Y211102D01*
X144288Y211155D01*
X144273Y211211D01*
X144230Y211284D01*
X144195Y211361D01*
X144157Y211406D01*
X144128Y211456D01*
X144066Y211514D01*
X144012Y211578D01*
X143963Y211610D01*
X143920Y211650D01*
X143845Y211689D01*
X143775Y211736D01*
X143719Y211753D01*
X143667Y211780D01*
X143599Y211791D01*
X143504Y211821D01*
X143404Y211824D01*
X143336Y211835D01*
X137604Y211835D01*
X137518Y211823D01*
X137430Y211820D01*
X137377Y211803D01*
X137323Y211795D01*
X137243Y211760D01*
X137160Y211733D01*
X137120Y211705D01*
X137063Y211679D01*
X136950Y211583D01*
X136886Y211538D01*
X135346Y209998D01*
X135294Y209928D01*
X135234Y209864D01*
X135208Y209815D01*
X135175Y209771D01*
X135144Y209689D01*
X135104Y209611D01*
X135096Y209563D01*
X135074Y209505D01*
X135062Y209357D01*
X135049Y209280D01*
X135049Y200637D01*
X133263Y198851D01*
X120737Y198851D01*
X118951Y200637D01*
X118951Y214163D01*
X119971Y215182D01*
X120006Y215229D01*
X120048Y215269D01*
X120091Y215342D01*
X120141Y215409D01*
X120162Y215464D01*
X120192Y215514D01*
X120213Y215596D01*
X120243Y215675D01*
X120248Y215733D01*
X120262Y215790D01*
X120259Y215874D01*
X120266Y215958D01*
X120255Y216016D01*
X120253Y216074D01*
X120227Y216154D01*
X120210Y216237D01*
X120183Y216289D01*
X120165Y216345D01*
X120125Y216401D01*
X120079Y216489D01*
X120011Y216562D01*
X119971Y216618D01*
X118951Y217637D01*
X118951Y231163D01*
X120737Y232949D01*
X133263Y232949D01*
X135049Y231163D01*
X135049Y229750D01*
X135057Y229692D01*
X135055Y229634D01*
X135077Y229552D01*
X135089Y229468D01*
X135112Y229415D01*
X135127Y229359D01*
X135170Y229286D01*
X135205Y229209D01*
X135243Y229164D01*
X135272Y229114D01*
X135334Y229056D01*
X135388Y228992D01*
X135437Y228960D01*
X135480Y228920D01*
X135555Y228881D01*
X135625Y228834D01*
X135681Y228817D01*
X135733Y228790D01*
X135801Y228779D01*
X135896Y228749D01*
X135996Y228746D01*
X136064Y228735D01*
X143336Y228735D01*
X143394Y228743D01*
X143452Y228741D01*
X143534Y228763D01*
X143618Y228775D01*
X143671Y228798D01*
X143727Y228813D01*
X143800Y228856D01*
X143877Y228891D01*
X143922Y228929D01*
X143972Y228958D01*
X144030Y229020D01*
X144094Y229074D01*
X144126Y229123D01*
X144166Y229166D01*
X144205Y229241D01*
X144252Y229311D01*
X144269Y229367D01*
X144296Y229419D01*
X144307Y229487D01*
X144337Y229582D01*
X144340Y229682D01*
X144351Y229750D01*
X144351Y230054D01*
X147016Y232719D01*
X157784Y232719D01*
X160449Y230054D01*
X160449Y220980D01*
X160457Y220922D01*
X160455Y220864D01*
X160477Y220782D01*
X160489Y220698D01*
X160512Y220645D01*
X160527Y220589D01*
X160570Y220516D01*
X160605Y220439D01*
X160643Y220394D01*
X160672Y220344D01*
X160734Y220286D01*
X160788Y220222D01*
X160837Y220190D01*
X160880Y220150D01*
X160955Y220111D01*
X161025Y220064D01*
X161081Y220047D01*
X161133Y220020D01*
X161201Y220009D01*
X161296Y219979D01*
X161396Y219976D01*
X161464Y219965D01*
X168736Y219965D01*
X168794Y219973D01*
X168852Y219971D01*
X168934Y219993D01*
X169018Y220005D01*
X169071Y220028D01*
X169127Y220043D01*
X169200Y220086D01*
X169277Y220121D01*
X169322Y220159D01*
X169372Y220188D01*
X169430Y220250D01*
X169494Y220304D01*
X169526Y220353D01*
X169566Y220396D01*
X169605Y220471D01*
X169652Y220541D01*
X169669Y220597D01*
X169696Y220649D01*
X169707Y220717D01*
X169737Y220812D01*
X169740Y220912D01*
X169751Y220980D01*
X169751Y231163D01*
X171537Y232949D01*
X184063Y232949D01*
X185849Y231163D01*
X185849Y229480D01*
X185857Y229422D01*
X185855Y229364D01*
X185877Y229282D01*
X185889Y229198D01*
X185912Y229145D01*
X185927Y229089D01*
X185970Y229016D01*
X186005Y228939D01*
X186043Y228894D01*
X186072Y228844D01*
X186134Y228786D01*
X186188Y228722D01*
X186237Y228690D01*
X186280Y228650D01*
X186355Y228611D01*
X186425Y228564D01*
X186481Y228547D01*
X186533Y228520D01*
X186601Y228509D01*
X186696Y228479D01*
X186796Y228476D01*
X186864Y228465D01*
X198924Y228465D01*
X200776Y226612D01*
X200846Y226560D01*
X200910Y226500D01*
X200959Y226474D01*
X201004Y226441D01*
X201085Y226410D01*
X201163Y226370D01*
X201211Y226362D01*
X201269Y226340D01*
X201417Y226328D01*
X201494Y226315D01*
X208026Y226315D01*
X208084Y226323D01*
X208142Y226321D01*
X208224Y226343D01*
X208308Y226355D01*
X208361Y226378D01*
X208417Y226393D01*
X208490Y226436D01*
X208567Y226471D01*
X208612Y226509D01*
X208662Y226538D01*
X208720Y226600D01*
X208784Y226654D01*
X208816Y226703D01*
X208856Y226746D01*
X208895Y226821D01*
X208942Y226891D01*
X208959Y226947D01*
X208986Y226999D01*
X208997Y227067D01*
X209027Y227162D01*
X209030Y227262D01*
X209041Y227330D01*
X209041Y233673D01*
X210827Y235459D01*
X233673Y235459D01*
X235459Y233673D01*
X235459Y210827D01*
X233629Y208998D01*
X233612Y208974D01*
X233589Y208955D01*
X233527Y208861D01*
X233459Y208771D01*
X233448Y208743D01*
X233432Y208719D01*
X233398Y208611D01*
X233357Y208505D01*
X233355Y208476D01*
X233346Y208448D01*
X233343Y208334D01*
X233334Y208222D01*
X233339Y208193D01*
X233339Y208164D01*
X233367Y208054D01*
X233390Y207943D01*
X233403Y207917D01*
X233411Y207889D01*
X233468Y207791D01*
X233521Y207691D01*
X233541Y207669D01*
X233556Y207644D01*
X233638Y207567D01*
X233716Y207485D01*
X233742Y207470D01*
X233763Y207450D01*
X233864Y207398D01*
X233962Y207341D01*
X233990Y207334D01*
X234016Y207320D01*
X234094Y207307D01*
X234237Y207271D01*
X234300Y207273D01*
X234347Y207265D01*
X236096Y207265D01*
X236182Y207277D01*
X236270Y207280D01*
X236322Y207297D01*
X236377Y207305D01*
X236457Y207340D01*
X236540Y207367D01*
X236580Y207395D01*
X236637Y207421D01*
X236750Y207517D01*
X236814Y207562D01*
X244977Y215726D01*
X244978Y215727D01*
X244979Y215728D01*
X245064Y215841D01*
X245148Y215953D01*
X245149Y215954D01*
X245150Y215955D01*
X245199Y216087D01*
X245249Y216218D01*
X245249Y216220D01*
X245250Y216221D01*
X245262Y216366D01*
X245273Y216502D01*
X245273Y216503D01*
X245273Y216505D01*
X245269Y216520D01*
X245217Y216780D01*
X245203Y216808D01*
X245197Y216832D01*
X244041Y219623D01*
X244041Y224877D01*
X246052Y229732D01*
X249768Y233448D01*
X254623Y235459D01*
X259877Y235459D01*
X264732Y233448D01*
X268448Y229732D01*
X270459Y224877D01*
X270459Y219623D01*
X268448Y214768D01*
X264732Y211052D01*
X259877Y209041D01*
X254623Y209041D01*
X251832Y210197D01*
X251830Y210198D01*
X251829Y210198D01*
X251696Y210232D01*
X251557Y210268D01*
X251555Y210268D01*
X251554Y210269D01*
X251413Y210264D01*
X251272Y210260D01*
X251271Y210260D01*
X251269Y210259D01*
X251135Y210216D01*
X251002Y210173D01*
X251000Y210172D01*
X250999Y210172D01*
X250987Y210163D01*
X250766Y210015D01*
X250746Y209992D01*
X250726Y209977D01*
X239884Y199135D01*
X201516Y199135D01*
X189114Y211538D01*
X189044Y211590D01*
X188980Y211650D01*
X188931Y211676D01*
X188886Y211709D01*
X188805Y211740D01*
X188727Y211780D01*
X188679Y211788D01*
X188621Y211810D01*
X188473Y211822D01*
X188396Y211835D01*
X186864Y211835D01*
X186806Y211827D01*
X186748Y211829D01*
X186666Y211807D01*
X186582Y211795D01*
X186529Y211772D01*
X186473Y211757D01*
X186400Y211714D01*
X186323Y211679D01*
X186278Y211641D01*
X186228Y211612D01*
X186170Y211550D01*
X186106Y211496D01*
X186074Y211447D01*
X186034Y211404D01*
X185995Y211329D01*
X185948Y211259D01*
X185931Y211203D01*
X185904Y211151D01*
X185893Y211083D01*
X185863Y210988D01*
X185860Y210888D01*
X185849Y210820D01*
X185849Y200637D01*
X184063Y198851D01*
X171537Y198851D01*
X170898Y199491D01*
X170874Y199508D01*
X170855Y199531D01*
X170761Y199593D01*
X170671Y199661D01*
X170643Y199672D01*
X170619Y199688D01*
X170511Y199722D01*
X170405Y199763D01*
X170376Y199765D01*
X170348Y199774D01*
X170234Y199777D01*
X170122Y199786D01*
X170093Y199781D01*
X170064Y199781D01*
X169954Y199753D01*
X169843Y199730D01*
X169817Y199717D01*
X169789Y199709D01*
X169691Y199652D01*
X169591Y199599D01*
X169569Y199579D01*
X169544Y199564D01*
X169467Y199482D01*
X169385Y199404D01*
X169370Y199378D01*
X169350Y199357D01*
X169298Y199256D01*
X169241Y199158D01*
X169234Y199130D01*
X169220Y199104D01*
X169207Y199026D01*
X169171Y198883D01*
X169173Y198820D01*
X169165Y198773D01*
X169165Y197364D01*
X169173Y197306D01*
X169171Y197248D01*
X169193Y197166D01*
X169205Y197082D01*
X169228Y197029D01*
X169243Y196973D01*
X169286Y196900D01*
X169321Y196823D01*
X169359Y196778D01*
X169388Y196728D01*
X169450Y196670D01*
X169504Y196606D01*
X169553Y196574D01*
X169596Y196534D01*
X169671Y196495D01*
X169741Y196448D01*
X169797Y196431D01*
X169849Y196404D01*
X169917Y196393D01*
X170012Y196363D01*
X170112Y196360D01*
X170180Y196349D01*
X170363Y196349D01*
X172149Y194563D01*
X172149Y185420D01*
X172157Y185362D01*
X172155Y185304D01*
X172177Y185222D01*
X172189Y185138D01*
X172212Y185085D01*
X172227Y185029D01*
X172270Y184956D01*
X172305Y184879D01*
X172343Y184834D01*
X172372Y184784D01*
X172434Y184726D01*
X172488Y184662D01*
X172537Y184630D01*
X172580Y184590D01*
X172655Y184551D01*
X172725Y184504D01*
X172781Y184487D01*
X172833Y184460D01*
X172901Y184449D01*
X172996Y184419D01*
X173096Y184416D01*
X173164Y184405D01*
X278544Y184405D01*
X296165Y166784D01*
X296165Y112616D01*
X281084Y97535D01*
X278967Y97535D01*
X278881Y97523D01*
X278793Y97520D01*
X278741Y97503D01*
X278686Y97495D01*
X278606Y97460D01*
X278523Y97433D01*
X278483Y97405D01*
X278426Y97379D01*
X278313Y97283D01*
X278249Y97238D01*
X276979Y95968D01*
X276944Y95921D01*
X276902Y95881D01*
X276859Y95808D01*
X276809Y95741D01*
X276788Y95686D01*
X276758Y95636D01*
X276737Y95554D01*
X276707Y95475D01*
X276702Y95417D01*
X276688Y95360D01*
X276691Y95276D01*
X276684Y95192D01*
X276695Y95134D01*
X276697Y95076D01*
X276723Y94996D01*
X276740Y94913D01*
X276767Y94861D01*
X276785Y94805D01*
X276825Y94749D01*
X276871Y94661D01*
X276939Y94588D01*
X276979Y94532D01*
X278249Y93262D01*
X278319Y93210D01*
X278383Y93150D01*
X278433Y93124D01*
X278477Y93091D01*
X278558Y93060D01*
X278636Y93020D01*
X278684Y93012D01*
X278742Y92990D01*
X278890Y92978D01*
X278967Y92965D01*
X289996Y92965D01*
X290082Y92977D01*
X290170Y92980D01*
X290222Y92997D01*
X290277Y93005D01*
X290357Y93040D01*
X290440Y93067D01*
X290480Y93095D01*
X290537Y93121D01*
X290650Y93217D01*
X290714Y93262D01*
X387816Y190365D01*
X575136Y190365D01*
X575194Y190373D01*
X575252Y190371D01*
X575334Y190393D01*
X575418Y190405D01*
X575471Y190428D01*
X575527Y190443D01*
X575600Y190486D01*
X575677Y190521D01*
X575722Y190559D01*
X575772Y190588D01*
X575830Y190650D01*
X575894Y190704D01*
X575926Y190753D01*
X575966Y190796D01*
X576005Y190871D01*
X576052Y190941D01*
X576069Y190997D01*
X576096Y191049D01*
X576107Y191117D01*
X576137Y191212D01*
X576140Y191312D01*
X576151Y191380D01*
X576151Y193063D01*
X577937Y194849D01*
X590463Y194849D01*
X592249Y193063D01*
X592249Y179537D01*
X591229Y178518D01*
X591194Y178471D01*
X591152Y178431D01*
X591109Y178358D01*
X591059Y178291D01*
X591038Y178236D01*
X591008Y178186D01*
X590987Y178104D01*
X590957Y178025D01*
X590952Y177967D01*
X590938Y177910D01*
X590941Y177826D01*
X590934Y177742D01*
X590945Y177684D01*
X590947Y177626D01*
X590973Y177546D01*
X590990Y177463D01*
X591017Y177411D01*
X591035Y177355D01*
X591075Y177299D01*
X591121Y177211D01*
X591189Y177138D01*
X591229Y177082D01*
X592249Y176063D01*
X592249Y172880D01*
X592257Y172822D01*
X592255Y172764D01*
X592277Y172682D01*
X592289Y172598D01*
X592312Y172545D01*
X592327Y172489D01*
X592370Y172416D01*
X592405Y172339D01*
X592443Y172294D01*
X592472Y172244D01*
X592534Y172186D01*
X592588Y172122D01*
X592637Y172090D01*
X592680Y172050D01*
X592755Y172011D01*
X592825Y171964D01*
X592881Y171947D01*
X592933Y171920D01*
X593001Y171909D01*
X593096Y171879D01*
X593196Y171876D01*
X593264Y171865D01*
X604736Y171865D01*
X604794Y171873D01*
X604852Y171871D01*
X604934Y171893D01*
X605018Y171905D01*
X605071Y171928D01*
X605127Y171943D01*
X605200Y171986D01*
X605277Y172021D01*
X605322Y172059D01*
X605372Y172088D01*
X605430Y172150D01*
X605494Y172204D01*
X605526Y172253D01*
X605566Y172296D01*
X605605Y172371D01*
X605652Y172441D01*
X605669Y172497D01*
X605696Y172549D01*
X605707Y172617D01*
X605737Y172712D01*
X605740Y172812D01*
X605751Y172880D01*
X605751Y173563D01*
X607537Y175349D01*
X618063Y175349D01*
X619849Y173563D01*
X619849Y162037D01*
X618063Y160251D01*
X607537Y160251D01*
X605751Y162037D01*
X605751Y162720D01*
X605743Y162778D01*
X605745Y162836D01*
X605723Y162918D01*
X605711Y163002D01*
X605688Y163055D01*
X605673Y163111D01*
X605630Y163184D01*
X605595Y163261D01*
X605557Y163306D01*
X605528Y163356D01*
X605466Y163414D01*
X605412Y163478D01*
X605363Y163510D01*
X605320Y163550D01*
X605245Y163589D01*
X605175Y163636D01*
X605119Y163653D01*
X605067Y163680D01*
X604999Y163691D01*
X604904Y163721D01*
X604804Y163724D01*
X604736Y163735D01*
X593264Y163735D01*
X593206Y163727D01*
X593148Y163729D01*
X593066Y163707D01*
X592982Y163695D01*
X592929Y163672D01*
X592873Y163657D01*
X592800Y163614D01*
X592723Y163579D01*
X592678Y163541D01*
X592628Y163512D01*
X592570Y163450D01*
X592506Y163396D01*
X592474Y163347D01*
X592434Y163304D01*
X592395Y163229D01*
X592348Y163159D01*
X592331Y163103D01*
X592304Y163051D01*
X592293Y162983D01*
X592263Y162888D01*
X592260Y162788D01*
X592249Y162720D01*
X592249Y162537D01*
X590463Y160751D01*
X577937Y160751D01*
X576151Y162537D01*
X576151Y176063D01*
X577171Y177082D01*
X577206Y177129D01*
X577248Y177169D01*
X577291Y177242D01*
X577341Y177309D01*
X577362Y177364D01*
X577392Y177414D01*
X577413Y177496D01*
X577443Y177575D01*
X577448Y177633D01*
X577462Y177690D01*
X577459Y177774D01*
X577466Y177858D01*
X577455Y177916D01*
X577453Y177974D01*
X577427Y178054D01*
X577410Y178137D01*
X577383Y178189D01*
X577365Y178245D01*
X577325Y178301D01*
X577279Y178389D01*
X577211Y178462D01*
X577171Y178518D01*
X576151Y179537D01*
X576151Y181220D01*
X576143Y181278D01*
X576145Y181336D01*
X576123Y181418D01*
X576111Y181502D01*
X576088Y181555D01*
X576073Y181611D01*
X576030Y181684D01*
X575995Y181761D01*
X575957Y181806D01*
X575928Y181856D01*
X575866Y181914D01*
X575812Y181978D01*
X575763Y182010D01*
X575720Y182050D01*
X575645Y182089D01*
X575575Y182136D01*
X575519Y182153D01*
X575467Y182180D01*
X575399Y182191D01*
X575304Y182221D01*
X575204Y182224D01*
X575136Y182235D01*
X391604Y182235D01*
X391518Y182223D01*
X391430Y182220D01*
X391378Y182203D01*
X391323Y182195D01*
X391243Y182160D01*
X391160Y182133D01*
X391120Y182105D01*
X391063Y182079D01*
X390950Y181983D01*
X390886Y181938D01*
X293784Y84835D01*
X278967Y84835D01*
X278881Y84823D01*
X278793Y84820D01*
X278741Y84803D01*
X278686Y84795D01*
X278606Y84760D01*
X278523Y84733D01*
X278483Y84705D01*
X278426Y84679D01*
X278313Y84583D01*
X278249Y84538D01*
X276979Y83268D01*
X276944Y83221D01*
X276902Y83181D01*
X276859Y83108D01*
X276809Y83041D01*
X276788Y82986D01*
X276758Y82936D01*
X276737Y82854D01*
X276707Y82775D01*
X276702Y82717D01*
X276688Y82660D01*
X276691Y82576D01*
X276684Y82492D01*
X276695Y82434D01*
X276697Y82376D01*
X276723Y82296D01*
X276740Y82213D01*
X276767Y82161D01*
X276785Y82105D01*
X276825Y82049D01*
X276871Y81961D01*
X276939Y81888D01*
X276979Y81832D01*
X278249Y80562D01*
X278319Y80510D01*
X278383Y80450D01*
X278433Y80424D01*
X278477Y80391D01*
X278558Y80360D01*
X278636Y80320D01*
X278684Y80312D01*
X278742Y80290D01*
X278890Y80278D01*
X278967Y80265D01*
X582096Y80265D01*
X582182Y80277D01*
X582270Y80280D01*
X582322Y80297D01*
X582377Y80305D01*
X582457Y80340D01*
X582540Y80367D01*
X582580Y80395D01*
X582637Y80421D01*
X582750Y80517D01*
X582814Y80562D01*
X692616Y190365D01*
X1032336Y190365D01*
X1032394Y190373D01*
X1032452Y190371D01*
X1032534Y190393D01*
X1032618Y190405D01*
X1032671Y190428D01*
X1032727Y190443D01*
X1032800Y190486D01*
X1032877Y190521D01*
X1032922Y190559D01*
X1032972Y190588D01*
X1033030Y190650D01*
X1033094Y190704D01*
X1033126Y190753D01*
X1033166Y190796D01*
X1033205Y190871D01*
X1033252Y190941D01*
X1033269Y190997D01*
X1033296Y191049D01*
X1033307Y191117D01*
X1033337Y191212D01*
X1033340Y191312D01*
X1033351Y191380D01*
X1033351Y193063D01*
X1035137Y194849D01*
X1047663Y194849D01*
X1049449Y193063D01*
X1049449Y179537D01*
X1048429Y178518D01*
X1048394Y178471D01*
X1048352Y178431D01*
X1048309Y178358D01*
X1048259Y178291D01*
X1048238Y178236D01*
X1048208Y178186D01*
X1048187Y178104D01*
X1048157Y178025D01*
X1048152Y177967D01*
X1048138Y177910D01*
X1048141Y177826D01*
X1048134Y177742D01*
X1048145Y177684D01*
X1048147Y177626D01*
X1048173Y177546D01*
X1048190Y177463D01*
X1048217Y177411D01*
X1048235Y177355D01*
X1048275Y177299D01*
X1048321Y177211D01*
X1048389Y177138D01*
X1048429Y177082D01*
X1049449Y176063D01*
X1049449Y174380D01*
X1049457Y174322D01*
X1049455Y174264D01*
X1049477Y174182D01*
X1049489Y174098D01*
X1049512Y174045D01*
X1049527Y173989D01*
X1049570Y173916D01*
X1049605Y173839D01*
X1049643Y173794D01*
X1049672Y173744D01*
X1049734Y173686D01*
X1049788Y173622D01*
X1049837Y173590D01*
X1049880Y173550D01*
X1049955Y173511D01*
X1050025Y173464D01*
X1050081Y173447D01*
X1050133Y173420D01*
X1050201Y173409D01*
X1050296Y173379D01*
X1050396Y173376D01*
X1050464Y173365D01*
X1055394Y173365D01*
X1056756Y172002D01*
X1056826Y171950D01*
X1056890Y171890D01*
X1056939Y171864D01*
X1056984Y171831D01*
X1057065Y171800D01*
X1057143Y171760D01*
X1057191Y171752D01*
X1057249Y171730D01*
X1057397Y171718D01*
X1057474Y171705D01*
X1061936Y171705D01*
X1061994Y171713D01*
X1062052Y171711D01*
X1062134Y171733D01*
X1062218Y171745D01*
X1062271Y171768D01*
X1062327Y171783D01*
X1062400Y171826D01*
X1062477Y171861D01*
X1062522Y171899D01*
X1062572Y171928D01*
X1062630Y171990D01*
X1062694Y172044D01*
X1062726Y172093D01*
X1062766Y172136D01*
X1062805Y172211D01*
X1062852Y172281D01*
X1062869Y172337D01*
X1062896Y172389D01*
X1062907Y172457D01*
X1062937Y172552D01*
X1062940Y172652D01*
X1062951Y172720D01*
X1062951Y173563D01*
X1064737Y175349D01*
X1075263Y175349D01*
X1077049Y173563D01*
X1077049Y162037D01*
X1075263Y160251D01*
X1064737Y160251D01*
X1062951Y162037D01*
X1062951Y162560D01*
X1062943Y162618D01*
X1062945Y162676D01*
X1062923Y162758D01*
X1062911Y162842D01*
X1062888Y162895D01*
X1062873Y162951D01*
X1062830Y163024D01*
X1062795Y163101D01*
X1062757Y163146D01*
X1062728Y163196D01*
X1062666Y163254D01*
X1062612Y163318D01*
X1062563Y163350D01*
X1062520Y163390D01*
X1062445Y163429D01*
X1062375Y163476D01*
X1062319Y163493D01*
X1062267Y163520D01*
X1062199Y163531D01*
X1062104Y163561D01*
X1062004Y163564D01*
X1061936Y163575D01*
X1053686Y163575D01*
X1052324Y164938D01*
X1052254Y164990D01*
X1052190Y165050D01*
X1052141Y165076D01*
X1052096Y165109D01*
X1052015Y165140D01*
X1051937Y165180D01*
X1051889Y165188D01*
X1051831Y165210D01*
X1051683Y165222D01*
X1051606Y165235D01*
X1050464Y165235D01*
X1050406Y165227D01*
X1050348Y165229D01*
X1050266Y165207D01*
X1050182Y165195D01*
X1050129Y165172D01*
X1050073Y165157D01*
X1050000Y165114D01*
X1049923Y165079D01*
X1049878Y165041D01*
X1049828Y165012D01*
X1049770Y164950D01*
X1049706Y164896D01*
X1049674Y164847D01*
X1049634Y164804D01*
X1049595Y164729D01*
X1049548Y164659D01*
X1049531Y164603D01*
X1049504Y164551D01*
X1049493Y164483D01*
X1049463Y164388D01*
X1049460Y164288D01*
X1049449Y164220D01*
X1049449Y162537D01*
X1047663Y160751D01*
X1035137Y160751D01*
X1033351Y162537D01*
X1033351Y176063D01*
X1034371Y177082D01*
X1034406Y177129D01*
X1034448Y177169D01*
X1034491Y177242D01*
X1034541Y177309D01*
X1034562Y177364D01*
X1034592Y177414D01*
X1034613Y177496D01*
X1034643Y177575D01*
X1034648Y177633D01*
X1034662Y177690D01*
X1034659Y177774D01*
X1034666Y177858D01*
X1034655Y177916D01*
X1034653Y177974D01*
X1034627Y178054D01*
X1034610Y178137D01*
X1034583Y178189D01*
X1034565Y178245D01*
X1034525Y178301D01*
X1034479Y178389D01*
X1034411Y178462D01*
X1034371Y178518D01*
X1033351Y179537D01*
X1033351Y181220D01*
X1033343Y181278D01*
X1033345Y181336D01*
X1033323Y181418D01*
X1033311Y181502D01*
X1033288Y181555D01*
X1033273Y181611D01*
X1033230Y181684D01*
X1033195Y181761D01*
X1033157Y181806D01*
X1033128Y181856D01*
X1033066Y181914D01*
X1033012Y181978D01*
X1032963Y182010D01*
X1032920Y182050D01*
X1032845Y182089D01*
X1032775Y182136D01*
X1032719Y182153D01*
X1032667Y182180D01*
X1032599Y182191D01*
X1032504Y182221D01*
X1032404Y182224D01*
X1032336Y182235D01*
X696404Y182235D01*
X696318Y182223D01*
X696230Y182220D01*
X696178Y182203D01*
X696123Y182195D01*
X696043Y182160D01*
X695960Y182133D01*
X695920Y182105D01*
X695863Y182079D01*
X695750Y181983D01*
X695686Y181938D01*
X671946Y158198D01*
X671929Y158174D01*
X671906Y158155D01*
X671843Y158061D01*
X671775Y157971D01*
X671765Y157943D01*
X671749Y157919D01*
X671714Y157811D01*
X671674Y157705D01*
X671672Y157676D01*
X671663Y157648D01*
X671660Y157534D01*
X671651Y157422D01*
X671656Y157393D01*
X671656Y157364D01*
X671684Y157254D01*
X671706Y157143D01*
X671720Y157117D01*
X671727Y157089D01*
X671785Y156991D01*
X671837Y156891D01*
X671858Y156869D01*
X671873Y156844D01*
X671955Y156767D01*
X672033Y156685D01*
X672059Y156670D01*
X672080Y156650D01*
X672181Y156598D01*
X672279Y156541D01*
X672307Y156534D01*
X672333Y156520D01*
X672410Y156507D01*
X672554Y156471D01*
X672617Y156473D01*
X672664Y156465D01*
X1204396Y156465D01*
X1204482Y156477D01*
X1204570Y156480D01*
X1204622Y156497D01*
X1204677Y156505D01*
X1204757Y156540D01*
X1204840Y156567D01*
X1204880Y156595D01*
X1204937Y156621D01*
X1205050Y156717D01*
X1205114Y156762D01*
X1238716Y190365D01*
X1489536Y190365D01*
X1489594Y190373D01*
X1489652Y190371D01*
X1489734Y190393D01*
X1489818Y190405D01*
X1489871Y190428D01*
X1489927Y190443D01*
X1490000Y190486D01*
X1490077Y190521D01*
X1490122Y190559D01*
X1490172Y190588D01*
X1490230Y190650D01*
X1490294Y190704D01*
X1490326Y190753D01*
X1490366Y190796D01*
X1490405Y190871D01*
X1490452Y190941D01*
X1490469Y190997D01*
X1490496Y191049D01*
X1490507Y191117D01*
X1490537Y191212D01*
X1490540Y191312D01*
X1490551Y191380D01*
X1490551Y193063D01*
X1492337Y194849D01*
X1504863Y194849D01*
X1506649Y193063D01*
X1506649Y179537D01*
X1505629Y178518D01*
X1505594Y178471D01*
X1505552Y178431D01*
X1505509Y178358D01*
X1505459Y178291D01*
X1505438Y178236D01*
X1505408Y178186D01*
X1505387Y178104D01*
X1505357Y178025D01*
X1505352Y177967D01*
X1505338Y177910D01*
X1505341Y177826D01*
X1505334Y177742D01*
X1505345Y177684D01*
X1505347Y177626D01*
X1505373Y177546D01*
X1505390Y177463D01*
X1505417Y177411D01*
X1505435Y177355D01*
X1505475Y177299D01*
X1505521Y177211D01*
X1505589Y177138D01*
X1505629Y177082D01*
X1506649Y176063D01*
X1506649Y174380D01*
X1506657Y174322D01*
X1506655Y174264D01*
X1506677Y174182D01*
X1506689Y174098D01*
X1506712Y174045D01*
X1506727Y173989D01*
X1506770Y173916D01*
X1506805Y173839D01*
X1506843Y173794D01*
X1506872Y173744D01*
X1506934Y173686D01*
X1506988Y173622D01*
X1507037Y173590D01*
X1507080Y173550D01*
X1507155Y173511D01*
X1507225Y173464D01*
X1507281Y173447D01*
X1507333Y173420D01*
X1507401Y173409D01*
X1507496Y173379D01*
X1507596Y173376D01*
X1507664Y173365D01*
X1512594Y173365D01*
X1513956Y172002D01*
X1514026Y171950D01*
X1514090Y171890D01*
X1514139Y171864D01*
X1514184Y171831D01*
X1514265Y171800D01*
X1514343Y171760D01*
X1514391Y171752D01*
X1514449Y171730D01*
X1514597Y171718D01*
X1514674Y171705D01*
X1519136Y171705D01*
X1519194Y171713D01*
X1519252Y171711D01*
X1519334Y171733D01*
X1519418Y171745D01*
X1519471Y171768D01*
X1519527Y171783D01*
X1519600Y171826D01*
X1519677Y171861D01*
X1519722Y171899D01*
X1519772Y171928D01*
X1519830Y171990D01*
X1519894Y172044D01*
X1519926Y172093D01*
X1519966Y172136D01*
X1520005Y172211D01*
X1520052Y172281D01*
X1520069Y172337D01*
X1520096Y172389D01*
X1520107Y172457D01*
X1520137Y172552D01*
X1520140Y172652D01*
X1520151Y172720D01*
X1520151Y173563D01*
X1521937Y175349D01*
X1532463Y175349D01*
X1534249Y173563D01*
X1534249Y162037D01*
X1532463Y160251D01*
X1521937Y160251D01*
X1520151Y162037D01*
X1520151Y162560D01*
X1520143Y162618D01*
X1520145Y162676D01*
X1520123Y162758D01*
X1520111Y162842D01*
X1520088Y162895D01*
X1520073Y162951D01*
X1520030Y163024D01*
X1519995Y163101D01*
X1519957Y163146D01*
X1519928Y163196D01*
X1519866Y163254D01*
X1519812Y163318D01*
X1519763Y163350D01*
X1519720Y163390D01*
X1519645Y163429D01*
X1519575Y163476D01*
X1519519Y163493D01*
X1519467Y163520D01*
X1519399Y163531D01*
X1519304Y163561D01*
X1519204Y163564D01*
X1519136Y163575D01*
X1510886Y163575D01*
X1509524Y164938D01*
X1509454Y164990D01*
X1509390Y165050D01*
X1509341Y165076D01*
X1509296Y165109D01*
X1509215Y165140D01*
X1509137Y165180D01*
X1509089Y165188D01*
X1509031Y165210D01*
X1508883Y165222D01*
X1508806Y165235D01*
X1507664Y165235D01*
X1507606Y165227D01*
X1507548Y165229D01*
X1507466Y165207D01*
X1507382Y165195D01*
X1507329Y165172D01*
X1507273Y165157D01*
X1507200Y165114D01*
X1507123Y165079D01*
X1507078Y165041D01*
X1507028Y165012D01*
X1506970Y164950D01*
X1506906Y164896D01*
X1506874Y164847D01*
X1506834Y164804D01*
X1506795Y164729D01*
X1506748Y164659D01*
X1506731Y164603D01*
X1506704Y164551D01*
X1506693Y164483D01*
X1506663Y164388D01*
X1506660Y164288D01*
X1506649Y164220D01*
X1506649Y162537D01*
X1504863Y160751D01*
X1492337Y160751D01*
X1490551Y162537D01*
X1490551Y176063D01*
X1491571Y177082D01*
X1491606Y177129D01*
X1491648Y177169D01*
X1491691Y177242D01*
X1491741Y177309D01*
X1491762Y177364D01*
X1491792Y177414D01*
X1491813Y177496D01*
X1491843Y177575D01*
X1491848Y177633D01*
X1491862Y177690D01*
X1491859Y177774D01*
X1491866Y177858D01*
X1491855Y177916D01*
X1491853Y177974D01*
X1491827Y178054D01*
X1491810Y178137D01*
X1491783Y178189D01*
X1491765Y178245D01*
X1491725Y178301D01*
X1491679Y178389D01*
X1491611Y178462D01*
X1491571Y178518D01*
X1490551Y179537D01*
X1490551Y181220D01*
X1490543Y181278D01*
X1490545Y181336D01*
X1490523Y181418D01*
X1490511Y181502D01*
X1490488Y181555D01*
X1490473Y181611D01*
X1490430Y181684D01*
X1490395Y181761D01*
X1490357Y181806D01*
X1490328Y181856D01*
X1490266Y181914D01*
X1490212Y181978D01*
X1490163Y182010D01*
X1490120Y182050D01*
X1490045Y182089D01*
X1489975Y182136D01*
X1489919Y182153D01*
X1489867Y182180D01*
X1489799Y182191D01*
X1489704Y182221D01*
X1489604Y182224D01*
X1489536Y182235D01*
X1242504Y182235D01*
X1242418Y182223D01*
X1242330Y182220D01*
X1242278Y182203D01*
X1242223Y182195D01*
X1242143Y182160D01*
X1242060Y182133D01*
X1242020Y182105D01*
X1241963Y182079D01*
X1241850Y181983D01*
X1241786Y181938D01*
X1211215Y151367D01*
X1211180Y151320D01*
X1211138Y151280D01*
X1211095Y151207D01*
X1211044Y151140D01*
X1211024Y151085D01*
X1210994Y151035D01*
X1210973Y150953D01*
X1210943Y150874D01*
X1210938Y150816D01*
X1210924Y150759D01*
X1210927Y150675D01*
X1210920Y150591D01*
X1210931Y150534D01*
X1210933Y150475D01*
X1210959Y150395D01*
X1210976Y150312D01*
X1211003Y150260D01*
X1211021Y150205D01*
X1211061Y150148D01*
X1211107Y150060D01*
X1211175Y149987D01*
X1211215Y149931D01*
X1214785Y146362D01*
X1214854Y146310D01*
X1214918Y146250D01*
X1214968Y146224D01*
X1215012Y146191D01*
X1215093Y146160D01*
X1215171Y146120D01*
X1215219Y146112D01*
X1215277Y146090D01*
X1215425Y146078D01*
X1215502Y146065D01*
X1792983Y146065D01*
X1793069Y146077D01*
X1793157Y146080D01*
X1793209Y146097D01*
X1793264Y146105D01*
X1793344Y146140D01*
X1793427Y146167D01*
X1793466Y146195D01*
X1793524Y146221D01*
X1793637Y146317D01*
X1793701Y146362D01*
X1795387Y148049D01*
X1811413Y148049D01*
X1813199Y146263D01*
X1813199Y137737D01*
X1813179Y137718D01*
X1813144Y137671D01*
X1813102Y137631D01*
X1813059Y137558D01*
X1813009Y137491D01*
X1812988Y137436D01*
X1812958Y137386D01*
X1812937Y137304D01*
X1812907Y137225D01*
X1812902Y137167D01*
X1812888Y137110D01*
X1812891Y137026D01*
X1812884Y136942D01*
X1812895Y136884D01*
X1812897Y136826D01*
X1812923Y136746D01*
X1812940Y136663D01*
X1812967Y136611D01*
X1812985Y136555D01*
X1813025Y136499D01*
X1813071Y136411D01*
X1813139Y136338D01*
X1813179Y136282D01*
X1813199Y136263D01*
X1813199Y127737D01*
X1813179Y127718D01*
X1813144Y127671D01*
X1813102Y127631D01*
X1813059Y127558D01*
X1813009Y127491D01*
X1812988Y127436D01*
X1812958Y127386D01*
X1812937Y127304D01*
X1812907Y127225D01*
X1812902Y127167D01*
X1812888Y127110D01*
X1812891Y127026D01*
X1812884Y126942D01*
X1812895Y126884D01*
X1812897Y126826D01*
X1812923Y126746D01*
X1812940Y126663D01*
X1812967Y126611D01*
X1812985Y126555D01*
X1813025Y126499D01*
X1813071Y126411D01*
X1813139Y126338D01*
X1813179Y126282D01*
X1813199Y126263D01*
X1813199Y117737D01*
X1812675Y117213D01*
X1812634Y117159D01*
X1812585Y117111D01*
X1812549Y117046D01*
X1812504Y116986D01*
X1812480Y116922D01*
X1812446Y116863D01*
X1812429Y116790D01*
X1812403Y116720D01*
X1812397Y116652D01*
X1812382Y116586D01*
X1812385Y116512D01*
X1812379Y116437D01*
X1812393Y116370D01*
X1812396Y116302D01*
X1812418Y116243D01*
X1812435Y116158D01*
X1812488Y116057D01*
X1812514Y115988D01*
X1812518Y115981D01*
X1812691Y115334D01*
X1812691Y113499D01*
X1803884Y113499D01*
X1803826Y113491D01*
X1803768Y113493D01*
X1803686Y113471D01*
X1803603Y113459D01*
X1803549Y113436D01*
X1803493Y113421D01*
X1803420Y113378D01*
X1803401Y113369D01*
X1803355Y113400D01*
X1803299Y113417D01*
X1803247Y113444D01*
X1803179Y113455D01*
X1803084Y113485D01*
X1802984Y113488D01*
X1802916Y113499D01*
X1794109Y113499D01*
X1794109Y114888D01*
X1794101Y114946D01*
X1794103Y115004D01*
X1794081Y115086D01*
X1794069Y115170D01*
X1794046Y115223D01*
X1794031Y115279D01*
X1793988Y115352D01*
X1793953Y115429D01*
X1793915Y115474D01*
X1793886Y115524D01*
X1793824Y115582D01*
X1793770Y115646D01*
X1793721Y115678D01*
X1793678Y115718D01*
X1793603Y115757D01*
X1793533Y115804D01*
X1793477Y115821D01*
X1793425Y115848D01*
X1793357Y115859D01*
X1793262Y115889D01*
X1793162Y115892D01*
X1793094Y115903D01*
X1763246Y115903D01*
X1763159Y115891D01*
X1763072Y115888D01*
X1763019Y115871D01*
X1762964Y115863D01*
X1762885Y115828D01*
X1762801Y115801D01*
X1762762Y115773D01*
X1762705Y115747D01*
X1762592Y115651D01*
X1762528Y115606D01*
X1759085Y112163D01*
X1759066Y112138D01*
X1759043Y112118D01*
X1759001Y112051D01*
X1758914Y111935D01*
X1758891Y111875D01*
X1758865Y111833D01*
X1758307Y110487D01*
X1756413Y108593D01*
X1753939Y107568D01*
X1751261Y107568D01*
X1748787Y108593D01*
X1746893Y110487D01*
X1745868Y112961D01*
X1745868Y115639D01*
X1746893Y118113D01*
X1748787Y120007D01*
X1750133Y120565D01*
X1750160Y120580D01*
X1750189Y120590D01*
X1750253Y120635D01*
X1750378Y120709D01*
X1750422Y120756D01*
X1750463Y120785D01*
X1754989Y125311D01*
X1755880Y126202D01*
X1755895Y126221D01*
X1755910Y126234D01*
X1755912Y126238D01*
X1755920Y126245D01*
X1755983Y126339D01*
X1756051Y126429D01*
X1756061Y126457D01*
X1756078Y126481D01*
X1756112Y126589D01*
X1756152Y126695D01*
X1756155Y126724D01*
X1756163Y126752D01*
X1756166Y126866D01*
X1756176Y126978D01*
X1756170Y127007D01*
X1756171Y127036D01*
X1756142Y127146D01*
X1756120Y127257D01*
X1756106Y127283D01*
X1756099Y127311D01*
X1756041Y127409D01*
X1755989Y127509D01*
X1755969Y127531D01*
X1755954Y127556D01*
X1755871Y127633D01*
X1755793Y127715D01*
X1755768Y127730D01*
X1755746Y127750D01*
X1755645Y127802D01*
X1755548Y127859D01*
X1755519Y127866D01*
X1755493Y127880D01*
X1755416Y127893D01*
X1755272Y127929D01*
X1755210Y127927D01*
X1755162Y127935D01*
X1216326Y127935D01*
X1203844Y140418D01*
X1203774Y140470D01*
X1203710Y140530D01*
X1203661Y140556D01*
X1203616Y140589D01*
X1203535Y140620D01*
X1203457Y140660D01*
X1203409Y140668D01*
X1203351Y140690D01*
X1203203Y140702D01*
X1203126Y140715D01*
X671394Y140715D01*
X671308Y140703D01*
X671220Y140700D01*
X671168Y140683D01*
X671113Y140675D01*
X671033Y140640D01*
X670950Y140613D01*
X670910Y140585D01*
X670853Y140559D01*
X670740Y140463D01*
X670676Y140418D01*
X551594Y21335D01*
X206596Y21335D01*
G37*
%LPD*%
%LPC*%
G36*
X1074237Y181251D02*
X1074237Y181251D01*
X1072451Y183037D01*
X1072451Y194563D01*
X1074237Y196349D01*
X1074420Y196349D01*
X1074478Y196357D01*
X1074536Y196355D01*
X1074618Y196377D01*
X1074702Y196389D01*
X1074755Y196412D01*
X1074811Y196427D01*
X1074884Y196470D01*
X1074961Y196505D01*
X1075006Y196543D01*
X1075056Y196572D01*
X1075114Y196634D01*
X1075178Y196688D01*
X1075210Y196737D01*
X1075250Y196780D01*
X1075289Y196855D01*
X1075336Y196925D01*
X1075353Y196981D01*
X1075380Y197033D01*
X1075391Y197101D01*
X1075421Y197196D01*
X1075424Y197296D01*
X1075435Y197364D01*
X1075435Y199881D01*
X1075431Y199910D01*
X1075434Y199940D01*
X1075411Y200051D01*
X1075395Y200163D01*
X1075383Y200190D01*
X1075378Y200218D01*
X1075325Y200319D01*
X1075279Y200422D01*
X1075260Y200445D01*
X1075247Y200471D01*
X1075169Y200553D01*
X1075096Y200639D01*
X1075071Y200656D01*
X1075051Y200677D01*
X1074953Y200734D01*
X1074859Y200797D01*
X1074831Y200806D01*
X1074806Y200821D01*
X1074696Y200848D01*
X1074588Y200883D01*
X1074558Y200883D01*
X1074530Y200891D01*
X1074417Y200887D01*
X1074304Y200890D01*
X1074275Y200883D01*
X1074246Y200882D01*
X1074138Y200847D01*
X1074029Y200818D01*
X1074003Y200803D01*
X1073975Y200794D01*
X1073912Y200749D01*
X1073784Y200673D01*
X1073741Y200627D01*
X1073702Y200599D01*
X1072184Y199081D01*
X1061416Y199081D01*
X1058751Y201746D01*
X1058751Y210820D01*
X1058743Y210878D01*
X1058745Y210936D01*
X1058723Y211018D01*
X1058711Y211102D01*
X1058688Y211155D01*
X1058673Y211211D01*
X1058630Y211284D01*
X1058595Y211361D01*
X1058557Y211406D01*
X1058528Y211456D01*
X1058466Y211514D01*
X1058412Y211578D01*
X1058363Y211610D01*
X1058320Y211650D01*
X1058245Y211689D01*
X1058175Y211736D01*
X1058119Y211753D01*
X1058067Y211780D01*
X1057999Y211791D01*
X1057904Y211821D01*
X1057804Y211824D01*
X1057736Y211835D01*
X1056204Y211835D01*
X1056118Y211823D01*
X1056030Y211820D01*
X1055978Y211803D01*
X1055923Y211795D01*
X1055843Y211760D01*
X1055760Y211733D01*
X1055720Y211705D01*
X1055663Y211679D01*
X1055550Y211583D01*
X1055486Y211538D01*
X1049746Y205798D01*
X1049730Y205776D01*
X1049711Y205760D01*
X1049679Y205712D01*
X1049634Y205664D01*
X1049608Y205615D01*
X1049575Y205570D01*
X1049563Y205538D01*
X1049553Y205523D01*
X1049539Y205478D01*
X1049504Y205411D01*
X1049496Y205363D01*
X1049474Y205305D01*
X1049470Y205263D01*
X1049467Y205252D01*
X1049466Y205209D01*
X1049462Y205157D01*
X1049449Y205080D01*
X1049449Y200637D01*
X1047663Y198851D01*
X1035137Y198851D01*
X1033351Y200637D01*
X1033351Y214163D01*
X1034371Y215182D01*
X1034406Y215229D01*
X1034448Y215269D01*
X1034491Y215342D01*
X1034541Y215409D01*
X1034562Y215464D01*
X1034592Y215514D01*
X1034613Y215596D01*
X1034643Y215675D01*
X1034648Y215733D01*
X1034662Y215790D01*
X1034659Y215874D01*
X1034666Y215958D01*
X1034655Y216016D01*
X1034653Y216074D01*
X1034627Y216154D01*
X1034610Y216237D01*
X1034583Y216289D01*
X1034565Y216345D01*
X1034525Y216401D01*
X1034479Y216489D01*
X1034411Y216562D01*
X1034371Y216618D01*
X1033351Y217637D01*
X1033351Y231163D01*
X1035137Y232949D01*
X1047663Y232949D01*
X1049449Y231163D01*
X1049449Y229750D01*
X1049457Y229692D01*
X1049455Y229634D01*
X1049477Y229552D01*
X1049489Y229468D01*
X1049512Y229415D01*
X1049527Y229359D01*
X1049570Y229286D01*
X1049605Y229209D01*
X1049643Y229164D01*
X1049672Y229114D01*
X1049734Y229056D01*
X1049788Y228992D01*
X1049837Y228960D01*
X1049880Y228920D01*
X1049955Y228881D01*
X1050025Y228834D01*
X1050081Y228817D01*
X1050133Y228790D01*
X1050201Y228779D01*
X1050296Y228749D01*
X1050396Y228746D01*
X1050464Y228735D01*
X1057736Y228735D01*
X1057794Y228743D01*
X1057852Y228741D01*
X1057934Y228763D01*
X1058018Y228775D01*
X1058071Y228798D01*
X1058127Y228813D01*
X1058200Y228856D01*
X1058277Y228891D01*
X1058322Y228929D01*
X1058372Y228958D01*
X1058430Y229020D01*
X1058494Y229074D01*
X1058526Y229123D01*
X1058566Y229166D01*
X1058605Y229241D01*
X1058652Y229311D01*
X1058669Y229367D01*
X1058696Y229419D01*
X1058707Y229487D01*
X1058737Y229582D01*
X1058740Y229682D01*
X1058751Y229750D01*
X1058751Y230054D01*
X1061416Y232719D01*
X1072184Y232719D01*
X1074849Y230054D01*
X1074849Y220980D01*
X1074857Y220922D01*
X1074855Y220864D01*
X1074877Y220782D01*
X1074889Y220698D01*
X1074912Y220645D01*
X1074927Y220589D01*
X1074970Y220516D01*
X1075005Y220439D01*
X1075043Y220394D01*
X1075072Y220344D01*
X1075134Y220286D01*
X1075188Y220222D01*
X1075237Y220190D01*
X1075280Y220150D01*
X1075355Y220111D01*
X1075425Y220064D01*
X1075481Y220047D01*
X1075533Y220020D01*
X1075601Y220009D01*
X1075696Y219979D01*
X1075796Y219976D01*
X1075864Y219965D01*
X1083136Y219965D01*
X1083194Y219973D01*
X1083252Y219971D01*
X1083334Y219993D01*
X1083418Y220005D01*
X1083471Y220028D01*
X1083527Y220043D01*
X1083600Y220086D01*
X1083677Y220121D01*
X1083722Y220159D01*
X1083772Y220188D01*
X1083830Y220250D01*
X1083894Y220304D01*
X1083926Y220353D01*
X1083966Y220396D01*
X1084005Y220471D01*
X1084052Y220541D01*
X1084069Y220597D01*
X1084096Y220649D01*
X1084107Y220717D01*
X1084137Y220812D01*
X1084140Y220912D01*
X1084151Y220980D01*
X1084151Y231163D01*
X1085937Y232949D01*
X1098463Y232949D01*
X1100249Y231163D01*
X1100249Y229480D01*
X1100257Y229422D01*
X1100255Y229364D01*
X1100277Y229282D01*
X1100289Y229198D01*
X1100312Y229145D01*
X1100327Y229089D01*
X1100370Y229016D01*
X1100405Y228939D01*
X1100443Y228894D01*
X1100472Y228844D01*
X1100534Y228786D01*
X1100588Y228722D01*
X1100637Y228690D01*
X1100680Y228650D01*
X1100755Y228611D01*
X1100825Y228564D01*
X1100881Y228547D01*
X1100933Y228520D01*
X1101001Y228509D01*
X1101096Y228479D01*
X1101196Y228476D01*
X1101264Y228465D01*
X1110784Y228465D01*
X1112636Y226612D01*
X1112706Y226560D01*
X1112770Y226500D01*
X1112819Y226474D01*
X1112864Y226441D01*
X1112945Y226410D01*
X1113023Y226370D01*
X1113071Y226362D01*
X1113129Y226340D01*
X1113277Y226328D01*
X1113354Y226315D01*
X1122426Y226315D01*
X1122484Y226323D01*
X1122542Y226321D01*
X1122624Y226343D01*
X1122708Y226355D01*
X1122761Y226378D01*
X1122817Y226393D01*
X1122890Y226436D01*
X1122967Y226471D01*
X1123012Y226509D01*
X1123062Y226538D01*
X1123120Y226600D01*
X1123184Y226654D01*
X1123216Y226703D01*
X1123256Y226746D01*
X1123295Y226821D01*
X1123342Y226891D01*
X1123359Y226947D01*
X1123386Y226999D01*
X1123397Y227067D01*
X1123427Y227162D01*
X1123430Y227262D01*
X1123441Y227330D01*
X1123441Y233673D01*
X1125227Y235459D01*
X1148073Y235459D01*
X1149859Y233673D01*
X1149859Y210827D01*
X1148029Y208998D01*
X1148012Y208974D01*
X1147989Y208955D01*
X1147927Y208861D01*
X1147859Y208771D01*
X1147848Y208743D01*
X1147832Y208719D01*
X1147798Y208611D01*
X1147757Y208505D01*
X1147755Y208476D01*
X1147746Y208448D01*
X1147743Y208334D01*
X1147734Y208222D01*
X1147739Y208193D01*
X1147739Y208164D01*
X1147767Y208054D01*
X1147790Y207943D01*
X1147803Y207917D01*
X1147811Y207889D01*
X1147868Y207791D01*
X1147921Y207691D01*
X1147941Y207669D01*
X1147956Y207644D01*
X1148038Y207567D01*
X1148116Y207485D01*
X1148142Y207470D01*
X1148163Y207450D01*
X1148264Y207398D01*
X1148362Y207341D01*
X1148390Y207334D01*
X1148416Y207320D01*
X1148494Y207307D01*
X1148637Y207271D01*
X1148700Y207273D01*
X1148747Y207265D01*
X1153596Y207265D01*
X1153682Y207277D01*
X1153770Y207280D01*
X1153822Y207297D01*
X1153877Y207305D01*
X1153957Y207340D01*
X1154040Y207367D01*
X1154080Y207395D01*
X1154137Y207421D01*
X1154250Y207517D01*
X1154314Y207562D01*
X1160285Y213534D01*
X1160286Y213535D01*
X1160287Y213536D01*
X1160295Y213545D01*
X1160295Y213546D01*
X1160297Y213549D01*
X1160373Y213651D01*
X1160456Y213761D01*
X1160457Y213762D01*
X1160458Y213763D01*
X1160508Y213897D01*
X1160557Y214026D01*
X1160557Y214028D01*
X1160558Y214029D01*
X1160569Y214166D01*
X1160581Y214310D01*
X1160580Y214311D01*
X1160581Y214313D01*
X1160577Y214328D01*
X1160525Y214588D01*
X1160511Y214616D01*
X1160505Y214640D01*
X1158441Y219623D01*
X1158441Y224877D01*
X1160452Y229732D01*
X1164168Y233448D01*
X1169023Y235459D01*
X1174277Y235459D01*
X1179132Y233448D01*
X1182848Y229732D01*
X1184859Y224877D01*
X1184859Y219623D01*
X1182848Y214768D01*
X1179132Y211052D01*
X1174277Y209041D01*
X1169023Y209041D01*
X1168424Y209289D01*
X1168422Y209290D01*
X1168421Y209290D01*
X1168287Y209325D01*
X1168149Y209360D01*
X1168147Y209360D01*
X1168146Y209361D01*
X1168005Y209356D01*
X1167865Y209352D01*
X1167863Y209352D01*
X1167861Y209351D01*
X1167729Y209309D01*
X1167594Y209265D01*
X1167592Y209264D01*
X1167591Y209264D01*
X1167579Y209255D01*
X1167358Y209107D01*
X1167338Y209084D01*
X1167318Y209069D01*
X1157384Y199135D01*
X1115916Y199135D01*
X1103514Y211538D01*
X1103444Y211590D01*
X1103380Y211650D01*
X1103331Y211676D01*
X1103286Y211709D01*
X1103205Y211740D01*
X1103127Y211780D01*
X1103079Y211788D01*
X1103021Y211810D01*
X1102873Y211822D01*
X1102796Y211835D01*
X1101264Y211835D01*
X1101206Y211827D01*
X1101148Y211829D01*
X1101066Y211807D01*
X1100982Y211795D01*
X1100929Y211772D01*
X1100873Y211757D01*
X1100800Y211714D01*
X1100723Y211679D01*
X1100678Y211641D01*
X1100628Y211612D01*
X1100570Y211550D01*
X1100506Y211496D01*
X1100474Y211447D01*
X1100434Y211404D01*
X1100395Y211329D01*
X1100348Y211259D01*
X1100331Y211203D01*
X1100304Y211151D01*
X1100293Y211083D01*
X1100263Y210988D01*
X1100260Y210888D01*
X1100249Y210820D01*
X1100249Y200637D01*
X1098463Y198851D01*
X1085937Y198851D01*
X1085298Y199491D01*
X1085274Y199508D01*
X1085255Y199531D01*
X1085161Y199593D01*
X1085071Y199661D01*
X1085043Y199672D01*
X1085019Y199688D01*
X1084911Y199722D01*
X1084805Y199763D01*
X1084776Y199765D01*
X1084748Y199774D01*
X1084634Y199777D01*
X1084522Y199786D01*
X1084493Y199781D01*
X1084464Y199781D01*
X1084354Y199753D01*
X1084243Y199730D01*
X1084217Y199717D01*
X1084189Y199709D01*
X1084091Y199652D01*
X1083991Y199599D01*
X1083969Y199579D01*
X1083944Y199564D01*
X1083867Y199482D01*
X1083785Y199404D01*
X1083770Y199378D01*
X1083750Y199357D01*
X1083698Y199256D01*
X1083641Y199158D01*
X1083634Y199130D01*
X1083620Y199104D01*
X1083607Y199026D01*
X1083571Y198883D01*
X1083573Y198820D01*
X1083565Y198773D01*
X1083565Y197364D01*
X1083573Y197306D01*
X1083571Y197248D01*
X1083593Y197166D01*
X1083605Y197082D01*
X1083628Y197029D01*
X1083643Y196973D01*
X1083686Y196900D01*
X1083721Y196823D01*
X1083759Y196778D01*
X1083788Y196728D01*
X1083850Y196670D01*
X1083904Y196606D01*
X1083953Y196574D01*
X1083996Y196534D01*
X1084071Y196495D01*
X1084141Y196448D01*
X1084197Y196431D01*
X1084249Y196404D01*
X1084317Y196393D01*
X1084412Y196363D01*
X1084512Y196360D01*
X1084580Y196349D01*
X1084763Y196349D01*
X1086549Y194563D01*
X1086549Y183037D01*
X1084763Y181251D01*
X1074237Y181251D01*
G37*
%LPD*%
%LPC*%
G36*
X1531437Y181251D02*
X1531437Y181251D01*
X1529651Y183037D01*
X1529651Y194563D01*
X1531437Y196349D01*
X1531620Y196349D01*
X1531678Y196357D01*
X1531736Y196355D01*
X1531818Y196377D01*
X1531902Y196389D01*
X1531955Y196412D01*
X1532011Y196427D01*
X1532084Y196470D01*
X1532161Y196505D01*
X1532206Y196543D01*
X1532256Y196572D01*
X1532314Y196634D01*
X1532378Y196688D01*
X1532410Y196737D01*
X1532450Y196780D01*
X1532489Y196855D01*
X1532536Y196925D01*
X1532553Y196981D01*
X1532580Y197033D01*
X1532591Y197101D01*
X1532621Y197196D01*
X1532624Y197296D01*
X1532635Y197364D01*
X1532635Y199881D01*
X1532631Y199910D01*
X1532634Y199940D01*
X1532611Y200051D01*
X1532595Y200163D01*
X1532583Y200190D01*
X1532578Y200218D01*
X1532525Y200319D01*
X1532479Y200422D01*
X1532460Y200445D01*
X1532447Y200471D01*
X1532369Y200553D01*
X1532296Y200639D01*
X1532271Y200656D01*
X1532251Y200677D01*
X1532153Y200734D01*
X1532059Y200797D01*
X1532031Y200806D01*
X1532006Y200821D01*
X1531896Y200848D01*
X1531788Y200883D01*
X1531758Y200883D01*
X1531730Y200891D01*
X1531617Y200887D01*
X1531504Y200890D01*
X1531475Y200883D01*
X1531446Y200882D01*
X1531338Y200847D01*
X1531229Y200818D01*
X1531203Y200803D01*
X1531175Y200794D01*
X1531112Y200749D01*
X1530984Y200673D01*
X1530941Y200627D01*
X1530902Y200599D01*
X1529384Y199081D01*
X1518616Y199081D01*
X1515951Y201746D01*
X1515951Y210820D01*
X1515943Y210878D01*
X1515945Y210936D01*
X1515923Y211018D01*
X1515911Y211102D01*
X1515888Y211155D01*
X1515873Y211211D01*
X1515830Y211284D01*
X1515795Y211361D01*
X1515757Y211406D01*
X1515728Y211456D01*
X1515666Y211514D01*
X1515612Y211578D01*
X1515563Y211610D01*
X1515520Y211650D01*
X1515445Y211689D01*
X1515375Y211736D01*
X1515319Y211753D01*
X1515267Y211780D01*
X1515199Y211791D01*
X1515104Y211821D01*
X1515004Y211824D01*
X1514936Y211835D01*
X1509204Y211835D01*
X1509118Y211823D01*
X1509030Y211820D01*
X1508978Y211803D01*
X1508923Y211795D01*
X1508843Y211760D01*
X1508760Y211733D01*
X1508720Y211705D01*
X1508663Y211679D01*
X1508550Y211583D01*
X1508486Y211538D01*
X1506946Y209998D01*
X1506894Y209928D01*
X1506834Y209864D01*
X1506808Y209815D01*
X1506775Y209770D01*
X1506744Y209689D01*
X1506704Y209611D01*
X1506696Y209563D01*
X1506674Y209505D01*
X1506662Y209357D01*
X1506649Y209280D01*
X1506649Y200637D01*
X1504863Y198851D01*
X1492337Y198851D01*
X1490551Y200637D01*
X1490551Y214163D01*
X1491571Y215182D01*
X1491606Y215229D01*
X1491648Y215269D01*
X1491691Y215342D01*
X1491741Y215409D01*
X1491762Y215464D01*
X1491792Y215514D01*
X1491813Y215596D01*
X1491843Y215675D01*
X1491848Y215733D01*
X1491862Y215790D01*
X1491859Y215874D01*
X1491866Y215958D01*
X1491855Y216016D01*
X1491853Y216074D01*
X1491827Y216154D01*
X1491810Y216237D01*
X1491783Y216289D01*
X1491765Y216345D01*
X1491725Y216401D01*
X1491679Y216489D01*
X1491611Y216562D01*
X1491571Y216618D01*
X1490551Y217637D01*
X1490551Y231163D01*
X1492337Y232949D01*
X1504863Y232949D01*
X1506649Y231163D01*
X1506649Y229750D01*
X1506657Y229692D01*
X1506655Y229634D01*
X1506677Y229552D01*
X1506689Y229468D01*
X1506712Y229415D01*
X1506727Y229359D01*
X1506770Y229286D01*
X1506805Y229209D01*
X1506843Y229164D01*
X1506872Y229114D01*
X1506934Y229056D01*
X1506988Y228992D01*
X1507037Y228960D01*
X1507080Y228920D01*
X1507155Y228881D01*
X1507225Y228834D01*
X1507281Y228817D01*
X1507333Y228790D01*
X1507401Y228779D01*
X1507496Y228749D01*
X1507596Y228746D01*
X1507664Y228735D01*
X1514936Y228735D01*
X1514994Y228743D01*
X1515052Y228741D01*
X1515134Y228763D01*
X1515218Y228775D01*
X1515271Y228798D01*
X1515327Y228813D01*
X1515400Y228856D01*
X1515477Y228891D01*
X1515522Y228929D01*
X1515572Y228958D01*
X1515630Y229020D01*
X1515694Y229074D01*
X1515726Y229123D01*
X1515766Y229166D01*
X1515805Y229241D01*
X1515852Y229311D01*
X1515869Y229367D01*
X1515896Y229419D01*
X1515907Y229487D01*
X1515937Y229582D01*
X1515940Y229682D01*
X1515951Y229750D01*
X1515951Y230054D01*
X1518616Y232719D01*
X1529384Y232719D01*
X1532049Y230054D01*
X1532049Y220980D01*
X1532057Y220922D01*
X1532055Y220864D01*
X1532077Y220782D01*
X1532089Y220698D01*
X1532112Y220645D01*
X1532127Y220589D01*
X1532170Y220516D01*
X1532205Y220439D01*
X1532243Y220394D01*
X1532272Y220344D01*
X1532334Y220286D01*
X1532388Y220222D01*
X1532437Y220190D01*
X1532480Y220150D01*
X1532555Y220111D01*
X1532625Y220064D01*
X1532681Y220047D01*
X1532733Y220020D01*
X1532801Y220009D01*
X1532896Y219979D01*
X1532996Y219976D01*
X1533064Y219965D01*
X1540336Y219965D01*
X1540394Y219973D01*
X1540452Y219971D01*
X1540534Y219993D01*
X1540618Y220005D01*
X1540671Y220028D01*
X1540727Y220043D01*
X1540800Y220086D01*
X1540877Y220121D01*
X1540922Y220159D01*
X1540972Y220188D01*
X1541030Y220250D01*
X1541094Y220304D01*
X1541126Y220353D01*
X1541166Y220396D01*
X1541205Y220471D01*
X1541252Y220541D01*
X1541269Y220597D01*
X1541296Y220649D01*
X1541307Y220717D01*
X1541337Y220812D01*
X1541340Y220912D01*
X1541351Y220980D01*
X1541351Y231163D01*
X1543137Y232949D01*
X1555663Y232949D01*
X1557449Y231163D01*
X1557449Y229480D01*
X1557457Y229422D01*
X1557455Y229364D01*
X1557477Y229282D01*
X1557489Y229198D01*
X1557512Y229145D01*
X1557527Y229089D01*
X1557570Y229016D01*
X1557605Y228939D01*
X1557643Y228894D01*
X1557672Y228844D01*
X1557734Y228786D01*
X1557788Y228722D01*
X1557837Y228690D01*
X1557880Y228650D01*
X1557955Y228611D01*
X1558025Y228564D01*
X1558081Y228547D01*
X1558133Y228520D01*
X1558201Y228509D01*
X1558296Y228479D01*
X1558396Y228476D01*
X1558464Y228465D01*
X1567984Y228465D01*
X1569836Y226612D01*
X1569906Y226560D01*
X1569970Y226500D01*
X1570019Y226474D01*
X1570064Y226441D01*
X1570145Y226410D01*
X1570223Y226370D01*
X1570271Y226362D01*
X1570329Y226340D01*
X1570477Y226328D01*
X1570554Y226315D01*
X1579626Y226315D01*
X1579684Y226323D01*
X1579742Y226321D01*
X1579824Y226343D01*
X1579908Y226355D01*
X1579961Y226378D01*
X1580017Y226393D01*
X1580090Y226436D01*
X1580167Y226471D01*
X1580212Y226509D01*
X1580262Y226538D01*
X1580320Y226600D01*
X1580384Y226654D01*
X1580416Y226703D01*
X1580456Y226746D01*
X1580495Y226821D01*
X1580542Y226891D01*
X1580559Y226947D01*
X1580586Y226999D01*
X1580597Y227067D01*
X1580627Y227162D01*
X1580630Y227262D01*
X1580641Y227330D01*
X1580641Y233673D01*
X1582427Y235459D01*
X1605273Y235459D01*
X1607059Y233673D01*
X1607059Y210827D01*
X1605229Y208998D01*
X1605212Y208974D01*
X1605189Y208955D01*
X1605127Y208861D01*
X1605059Y208771D01*
X1605048Y208743D01*
X1605032Y208719D01*
X1604998Y208611D01*
X1604957Y208505D01*
X1604955Y208476D01*
X1604946Y208448D01*
X1604943Y208334D01*
X1604934Y208222D01*
X1604939Y208193D01*
X1604939Y208164D01*
X1604967Y208054D01*
X1604990Y207943D01*
X1605003Y207917D01*
X1605011Y207889D01*
X1605068Y207791D01*
X1605121Y207691D01*
X1605141Y207669D01*
X1605156Y207644D01*
X1605238Y207567D01*
X1605316Y207485D01*
X1605342Y207470D01*
X1605363Y207450D01*
X1605464Y207398D01*
X1605562Y207341D01*
X1605590Y207334D01*
X1605616Y207320D01*
X1605694Y207307D01*
X1605837Y207271D01*
X1605900Y207273D01*
X1605947Y207265D01*
X1610796Y207265D01*
X1610882Y207277D01*
X1610970Y207280D01*
X1611022Y207297D01*
X1611077Y207305D01*
X1611157Y207340D01*
X1611240Y207367D01*
X1611280Y207395D01*
X1611337Y207421D01*
X1611450Y207517D01*
X1611514Y207562D01*
X1617485Y213534D01*
X1617486Y213535D01*
X1617487Y213536D01*
X1617495Y213545D01*
X1617495Y213546D01*
X1617497Y213549D01*
X1617573Y213651D01*
X1617656Y213761D01*
X1617657Y213762D01*
X1617658Y213763D01*
X1617708Y213897D01*
X1617757Y214026D01*
X1617757Y214028D01*
X1617758Y214029D01*
X1617769Y214166D01*
X1617781Y214310D01*
X1617780Y214311D01*
X1617781Y214313D01*
X1617777Y214328D01*
X1617725Y214588D01*
X1617711Y214616D01*
X1617705Y214640D01*
X1615641Y219623D01*
X1615641Y224877D01*
X1617652Y229732D01*
X1621368Y233448D01*
X1626223Y235459D01*
X1631477Y235459D01*
X1636332Y233448D01*
X1640048Y229732D01*
X1642059Y224877D01*
X1642059Y219623D01*
X1640048Y214768D01*
X1636332Y211052D01*
X1631477Y209041D01*
X1626223Y209041D01*
X1625624Y209289D01*
X1625622Y209290D01*
X1625621Y209290D01*
X1625487Y209325D01*
X1625349Y209360D01*
X1625347Y209360D01*
X1625346Y209361D01*
X1625205Y209356D01*
X1625065Y209352D01*
X1625063Y209352D01*
X1625061Y209351D01*
X1624929Y209309D01*
X1624794Y209265D01*
X1624792Y209264D01*
X1624791Y209264D01*
X1624779Y209255D01*
X1624558Y209107D01*
X1624538Y209084D01*
X1624518Y209069D01*
X1614584Y199135D01*
X1573116Y199135D01*
X1560714Y211538D01*
X1560644Y211590D01*
X1560580Y211650D01*
X1560531Y211676D01*
X1560486Y211709D01*
X1560405Y211740D01*
X1560327Y211780D01*
X1560279Y211788D01*
X1560221Y211810D01*
X1560073Y211822D01*
X1559996Y211835D01*
X1558464Y211835D01*
X1558406Y211827D01*
X1558348Y211829D01*
X1558266Y211807D01*
X1558182Y211795D01*
X1558129Y211772D01*
X1558073Y211757D01*
X1558000Y211714D01*
X1557923Y211679D01*
X1557878Y211641D01*
X1557828Y211612D01*
X1557770Y211550D01*
X1557706Y211496D01*
X1557674Y211447D01*
X1557634Y211404D01*
X1557595Y211329D01*
X1557548Y211259D01*
X1557531Y211203D01*
X1557504Y211151D01*
X1557493Y211083D01*
X1557463Y210988D01*
X1557460Y210888D01*
X1557449Y210820D01*
X1557449Y200637D01*
X1555663Y198851D01*
X1543137Y198851D01*
X1542498Y199491D01*
X1542474Y199508D01*
X1542455Y199531D01*
X1542361Y199593D01*
X1542271Y199661D01*
X1542243Y199672D01*
X1542219Y199688D01*
X1542111Y199722D01*
X1542005Y199763D01*
X1541976Y199765D01*
X1541948Y199774D01*
X1541834Y199777D01*
X1541722Y199786D01*
X1541693Y199781D01*
X1541664Y199781D01*
X1541554Y199753D01*
X1541443Y199730D01*
X1541417Y199717D01*
X1541389Y199709D01*
X1541291Y199652D01*
X1541191Y199599D01*
X1541169Y199579D01*
X1541144Y199564D01*
X1541067Y199482D01*
X1540985Y199404D01*
X1540970Y199378D01*
X1540950Y199357D01*
X1540898Y199256D01*
X1540841Y199158D01*
X1540834Y199130D01*
X1540820Y199104D01*
X1540807Y199026D01*
X1540771Y198883D01*
X1540773Y198820D01*
X1540765Y198773D01*
X1540765Y197364D01*
X1540773Y197306D01*
X1540771Y197248D01*
X1540793Y197166D01*
X1540805Y197082D01*
X1540828Y197029D01*
X1540843Y196973D01*
X1540886Y196900D01*
X1540921Y196823D01*
X1540959Y196778D01*
X1540988Y196728D01*
X1541050Y196670D01*
X1541104Y196606D01*
X1541153Y196574D01*
X1541196Y196534D01*
X1541271Y196495D01*
X1541341Y196448D01*
X1541397Y196431D01*
X1541449Y196404D01*
X1541517Y196393D01*
X1541612Y196363D01*
X1541712Y196360D01*
X1541780Y196349D01*
X1541963Y196349D01*
X1543749Y194563D01*
X1543749Y183037D01*
X1541963Y181251D01*
X1531437Y181251D01*
G37*
%LPD*%
%LPC*%
G36*
X617037Y181251D02*
X617037Y181251D01*
X615251Y183037D01*
X615251Y194563D01*
X617037Y196349D01*
X617220Y196349D01*
X617278Y196357D01*
X617336Y196355D01*
X617418Y196377D01*
X617502Y196389D01*
X617555Y196412D01*
X617611Y196427D01*
X617684Y196470D01*
X617761Y196505D01*
X617806Y196543D01*
X617856Y196572D01*
X617914Y196634D01*
X617978Y196688D01*
X618010Y196737D01*
X618050Y196780D01*
X618089Y196855D01*
X618136Y196925D01*
X618153Y196981D01*
X618180Y197033D01*
X618191Y197101D01*
X618221Y197196D01*
X618224Y197296D01*
X618235Y197364D01*
X618235Y199881D01*
X618231Y199910D01*
X618234Y199940D01*
X618211Y200051D01*
X618195Y200163D01*
X618183Y200190D01*
X618178Y200218D01*
X618125Y200319D01*
X618079Y200422D01*
X618060Y200445D01*
X618047Y200471D01*
X617969Y200553D01*
X617896Y200639D01*
X617871Y200656D01*
X617851Y200677D01*
X617753Y200734D01*
X617659Y200797D01*
X617631Y200806D01*
X617606Y200821D01*
X617496Y200848D01*
X617388Y200883D01*
X617358Y200883D01*
X617330Y200891D01*
X617217Y200887D01*
X617104Y200890D01*
X617075Y200883D01*
X617046Y200882D01*
X616938Y200847D01*
X616829Y200818D01*
X616803Y200803D01*
X616775Y200794D01*
X616712Y200749D01*
X616584Y200673D01*
X616541Y200627D01*
X616502Y200599D01*
X614984Y199081D01*
X604216Y199081D01*
X601551Y201746D01*
X601551Y210820D01*
X601543Y210878D01*
X601545Y210936D01*
X601523Y211018D01*
X601511Y211102D01*
X601488Y211155D01*
X601473Y211211D01*
X601430Y211284D01*
X601395Y211361D01*
X601357Y211406D01*
X601328Y211456D01*
X601266Y211514D01*
X601212Y211578D01*
X601163Y211610D01*
X601120Y211650D01*
X601045Y211689D01*
X600975Y211736D01*
X600919Y211753D01*
X600867Y211780D01*
X600799Y211791D01*
X600704Y211821D01*
X600604Y211824D01*
X600536Y211835D01*
X594804Y211835D01*
X594718Y211823D01*
X594630Y211820D01*
X594578Y211803D01*
X594523Y211795D01*
X594443Y211760D01*
X594360Y211733D01*
X594320Y211705D01*
X594263Y211679D01*
X594150Y211583D01*
X594086Y211538D01*
X592546Y209998D01*
X592494Y209928D01*
X592434Y209864D01*
X592408Y209815D01*
X592375Y209770D01*
X592344Y209689D01*
X592304Y209611D01*
X592296Y209563D01*
X592274Y209505D01*
X592262Y209357D01*
X592249Y209280D01*
X592249Y200637D01*
X590463Y198851D01*
X577937Y198851D01*
X576151Y200637D01*
X576151Y214163D01*
X577171Y215182D01*
X577206Y215229D01*
X577248Y215269D01*
X577291Y215342D01*
X577341Y215409D01*
X577362Y215464D01*
X577392Y215514D01*
X577413Y215596D01*
X577443Y215675D01*
X577448Y215733D01*
X577462Y215790D01*
X577459Y215874D01*
X577466Y215958D01*
X577455Y216016D01*
X577453Y216074D01*
X577427Y216154D01*
X577410Y216237D01*
X577383Y216289D01*
X577365Y216345D01*
X577325Y216401D01*
X577279Y216489D01*
X577211Y216562D01*
X577171Y216618D01*
X576151Y217637D01*
X576151Y231163D01*
X577937Y232949D01*
X590463Y232949D01*
X592249Y231163D01*
X592249Y229750D01*
X592257Y229692D01*
X592255Y229634D01*
X592277Y229552D01*
X592289Y229468D01*
X592312Y229415D01*
X592327Y229359D01*
X592370Y229286D01*
X592405Y229209D01*
X592443Y229164D01*
X592472Y229114D01*
X592534Y229056D01*
X592588Y228992D01*
X592637Y228960D01*
X592680Y228920D01*
X592755Y228881D01*
X592825Y228834D01*
X592881Y228817D01*
X592933Y228790D01*
X593001Y228779D01*
X593096Y228749D01*
X593196Y228746D01*
X593264Y228735D01*
X600536Y228735D01*
X600594Y228743D01*
X600652Y228741D01*
X600734Y228763D01*
X600818Y228775D01*
X600871Y228798D01*
X600927Y228813D01*
X601000Y228856D01*
X601077Y228891D01*
X601122Y228929D01*
X601172Y228958D01*
X601230Y229020D01*
X601294Y229074D01*
X601326Y229123D01*
X601366Y229166D01*
X601405Y229241D01*
X601452Y229311D01*
X601469Y229367D01*
X601496Y229419D01*
X601507Y229487D01*
X601537Y229582D01*
X601540Y229682D01*
X601551Y229750D01*
X601551Y230054D01*
X604216Y232719D01*
X614984Y232719D01*
X617649Y230054D01*
X617649Y220980D01*
X617657Y220922D01*
X617655Y220864D01*
X617677Y220782D01*
X617689Y220698D01*
X617712Y220645D01*
X617727Y220589D01*
X617770Y220516D01*
X617805Y220439D01*
X617843Y220394D01*
X617872Y220344D01*
X617934Y220286D01*
X617988Y220222D01*
X618037Y220190D01*
X618080Y220150D01*
X618155Y220111D01*
X618225Y220064D01*
X618281Y220047D01*
X618333Y220020D01*
X618401Y220009D01*
X618496Y219979D01*
X618596Y219976D01*
X618664Y219965D01*
X625936Y219965D01*
X625994Y219973D01*
X626052Y219971D01*
X626134Y219993D01*
X626218Y220005D01*
X626271Y220028D01*
X626327Y220043D01*
X626400Y220086D01*
X626477Y220121D01*
X626522Y220159D01*
X626572Y220188D01*
X626630Y220250D01*
X626694Y220304D01*
X626726Y220353D01*
X626766Y220396D01*
X626805Y220471D01*
X626852Y220541D01*
X626869Y220597D01*
X626896Y220649D01*
X626907Y220717D01*
X626937Y220812D01*
X626940Y220912D01*
X626951Y220980D01*
X626951Y231163D01*
X628737Y232949D01*
X641263Y232949D01*
X643049Y231163D01*
X643049Y229480D01*
X643057Y229422D01*
X643055Y229364D01*
X643077Y229282D01*
X643089Y229198D01*
X643112Y229145D01*
X643127Y229089D01*
X643170Y229016D01*
X643205Y228939D01*
X643243Y228894D01*
X643272Y228844D01*
X643334Y228786D01*
X643388Y228722D01*
X643437Y228690D01*
X643480Y228650D01*
X643555Y228611D01*
X643625Y228564D01*
X643681Y228547D01*
X643733Y228520D01*
X643801Y228509D01*
X643896Y228479D01*
X643996Y228476D01*
X644064Y228465D01*
X652314Y228465D01*
X654166Y226612D01*
X654236Y226560D01*
X654300Y226500D01*
X654349Y226474D01*
X654394Y226441D01*
X654475Y226410D01*
X654553Y226370D01*
X654601Y226362D01*
X654659Y226340D01*
X654807Y226328D01*
X654884Y226315D01*
X665226Y226315D01*
X665284Y226323D01*
X665342Y226321D01*
X665424Y226343D01*
X665508Y226355D01*
X665561Y226378D01*
X665617Y226393D01*
X665690Y226436D01*
X665767Y226471D01*
X665812Y226509D01*
X665862Y226538D01*
X665920Y226600D01*
X665984Y226654D01*
X666016Y226703D01*
X666056Y226746D01*
X666095Y226821D01*
X666142Y226891D01*
X666159Y226947D01*
X666186Y226999D01*
X666197Y227067D01*
X666227Y227162D01*
X666230Y227262D01*
X666241Y227330D01*
X666241Y233673D01*
X668027Y235459D01*
X690873Y235459D01*
X692659Y233673D01*
X692659Y210827D01*
X690829Y208998D01*
X690812Y208974D01*
X690789Y208955D01*
X690727Y208861D01*
X690659Y208771D01*
X690648Y208743D01*
X690632Y208719D01*
X690598Y208611D01*
X690557Y208505D01*
X690555Y208476D01*
X690546Y208448D01*
X690543Y208334D01*
X690534Y208222D01*
X690539Y208193D01*
X690539Y208164D01*
X690567Y208054D01*
X690590Y207943D01*
X690603Y207917D01*
X690611Y207889D01*
X690668Y207791D01*
X690721Y207691D01*
X690741Y207669D01*
X690756Y207644D01*
X690838Y207567D01*
X690916Y207485D01*
X690942Y207470D01*
X690963Y207450D01*
X691064Y207398D01*
X691162Y207341D01*
X691190Y207334D01*
X691216Y207320D01*
X691294Y207307D01*
X691437Y207271D01*
X691500Y207273D01*
X691547Y207265D01*
X696396Y207265D01*
X696482Y207277D01*
X696570Y207280D01*
X696622Y207297D01*
X696677Y207305D01*
X696757Y207340D01*
X696840Y207367D01*
X696880Y207395D01*
X696937Y207421D01*
X697050Y207517D01*
X697114Y207562D01*
X703085Y213533D01*
X703086Y213535D01*
X703087Y213536D01*
X703095Y213545D01*
X703095Y213546D01*
X703097Y213549D01*
X703172Y213649D01*
X703256Y213761D01*
X703257Y213762D01*
X703258Y213763D01*
X703307Y213895D01*
X703357Y214026D01*
X703357Y214028D01*
X703358Y214029D01*
X703369Y214166D01*
X703381Y214310D01*
X703381Y214311D01*
X703381Y214313D01*
X703377Y214328D01*
X703325Y214588D01*
X703311Y214616D01*
X703305Y214640D01*
X701241Y219623D01*
X701241Y224877D01*
X703252Y229732D01*
X706968Y233448D01*
X711823Y235459D01*
X717077Y235459D01*
X721932Y233448D01*
X725648Y229732D01*
X727659Y224877D01*
X727659Y219623D01*
X725648Y214768D01*
X721932Y211052D01*
X717077Y209041D01*
X711823Y209041D01*
X711224Y209289D01*
X711222Y209290D01*
X711221Y209290D01*
X711089Y209324D01*
X710949Y209360D01*
X710947Y209360D01*
X710946Y209361D01*
X710805Y209356D01*
X710665Y209352D01*
X710663Y209352D01*
X710661Y209352D01*
X710526Y209308D01*
X710394Y209265D01*
X710392Y209265D01*
X710391Y209264D01*
X710378Y209255D01*
X710158Y209107D01*
X710138Y209084D01*
X710118Y209069D01*
X700184Y199135D01*
X658716Y199135D01*
X646314Y211538D01*
X646244Y211590D01*
X646180Y211650D01*
X646131Y211676D01*
X646086Y211709D01*
X646005Y211740D01*
X645927Y211780D01*
X645879Y211788D01*
X645821Y211810D01*
X645673Y211822D01*
X645596Y211835D01*
X644064Y211835D01*
X644006Y211827D01*
X643948Y211829D01*
X643866Y211807D01*
X643782Y211795D01*
X643729Y211772D01*
X643673Y211757D01*
X643600Y211714D01*
X643523Y211679D01*
X643478Y211641D01*
X643428Y211612D01*
X643370Y211550D01*
X643306Y211496D01*
X643274Y211447D01*
X643234Y211404D01*
X643195Y211329D01*
X643148Y211259D01*
X643131Y211203D01*
X643104Y211151D01*
X643093Y211083D01*
X643063Y210988D01*
X643060Y210888D01*
X643049Y210820D01*
X643049Y200637D01*
X641263Y198851D01*
X628737Y198851D01*
X628098Y199491D01*
X628074Y199508D01*
X628055Y199531D01*
X627961Y199593D01*
X627871Y199661D01*
X627843Y199672D01*
X627819Y199688D01*
X627711Y199722D01*
X627605Y199763D01*
X627576Y199765D01*
X627548Y199774D01*
X627434Y199777D01*
X627322Y199786D01*
X627293Y199781D01*
X627264Y199781D01*
X627154Y199753D01*
X627043Y199730D01*
X627017Y199717D01*
X626989Y199709D01*
X626891Y199652D01*
X626791Y199599D01*
X626769Y199579D01*
X626744Y199564D01*
X626667Y199482D01*
X626585Y199404D01*
X626570Y199378D01*
X626550Y199357D01*
X626498Y199256D01*
X626441Y199158D01*
X626434Y199130D01*
X626420Y199104D01*
X626407Y199026D01*
X626371Y198883D01*
X626373Y198820D01*
X626365Y198773D01*
X626365Y197364D01*
X626373Y197306D01*
X626371Y197248D01*
X626393Y197166D01*
X626405Y197082D01*
X626428Y197029D01*
X626443Y196973D01*
X626486Y196900D01*
X626521Y196823D01*
X626559Y196778D01*
X626588Y196728D01*
X626650Y196670D01*
X626704Y196606D01*
X626753Y196574D01*
X626796Y196534D01*
X626871Y196495D01*
X626941Y196448D01*
X626997Y196431D01*
X627049Y196404D01*
X627117Y196393D01*
X627212Y196363D01*
X627312Y196360D01*
X627380Y196349D01*
X627563Y196349D01*
X629349Y194563D01*
X629349Y183037D01*
X627563Y181251D01*
X617037Y181251D01*
G37*
%LPD*%
%LPC*%
G36*
X1789099Y233251D02*
X1789099Y233251D01*
X1786141Y234477D01*
X1783877Y236741D01*
X1782651Y239699D01*
X1782651Y242901D01*
X1783877Y245859D01*
X1786141Y248123D01*
X1789099Y249349D01*
X1792301Y249349D01*
X1795259Y248123D01*
X1797523Y245859D01*
X1798749Y242901D01*
X1798749Y239699D01*
X1797523Y236741D01*
X1795259Y234477D01*
X1792301Y233251D01*
X1789099Y233251D01*
G37*
%LPD*%
%LPC*%
G36*
X49199Y42751D02*
X49199Y42751D01*
X46241Y43977D01*
X43977Y46241D01*
X42751Y49199D01*
X42751Y52401D01*
X43977Y55359D01*
X46241Y57623D01*
X49199Y58849D01*
X52401Y58849D01*
X55359Y57623D01*
X57623Y55359D01*
X58849Y52401D01*
X58849Y49199D01*
X57623Y46241D01*
X55359Y43977D01*
X52401Y42751D01*
X49199Y42751D01*
G37*
%LPD*%
%LPC*%
G36*
X77134Y14731D02*
X77134Y14731D01*
X77255Y15496D01*
X77836Y17283D01*
X78689Y18957D01*
X79794Y20478D01*
X81122Y21806D01*
X82643Y22911D01*
X84317Y23764D01*
X86104Y24345D01*
X86869Y24466D01*
X86869Y14731D01*
X77134Y14731D01*
G37*
%LPD*%
G36*
X134067Y112979D02*
X134067Y112979D01*
X134090Y112983D01*
X134097Y112998D01*
X134106Y113004D01*
X134104Y113014D01*
X134111Y113030D01*
X134111Y115570D01*
X134099Y115589D01*
X134096Y115611D01*
X134080Y115618D01*
X134074Y115627D01*
X134064Y115626D01*
X134049Y115633D01*
X119952Y115633D01*
X119933Y115621D01*
X119910Y115617D01*
X119903Y115602D01*
X119894Y115596D01*
X119896Y115586D01*
X119889Y115570D01*
X119889Y113030D01*
X119901Y113011D01*
X119904Y112989D01*
X119920Y112982D01*
X119926Y112973D01*
X119936Y112974D01*
X119952Y112967D01*
X134049Y112967D01*
X134067Y112979D01*
G37*
%LPC*%
G36*
X251831Y135381D02*
X251831Y135381D01*
X251831Y140891D01*
X255634Y140891D01*
X256281Y140718D01*
X256860Y140383D01*
X257333Y139910D01*
X257668Y139331D01*
X257841Y138684D01*
X257841Y135381D01*
X251831Y135381D01*
G37*
%LPD*%
%LPC*%
G36*
X251831Y125809D02*
X251831Y125809D01*
X251831Y131319D01*
X257841Y131319D01*
X257841Y128016D01*
X257668Y127369D01*
X257333Y126790D01*
X256860Y126317D01*
X256281Y125982D01*
X255634Y125809D01*
X251831Y125809D01*
G37*
%LPD*%
%LPC*%
G36*
X52299Y143499D02*
X52299Y143499D01*
X52299Y147541D01*
X57884Y147541D01*
X58531Y147368D01*
X59110Y147033D01*
X59583Y146560D01*
X59918Y145981D01*
X60091Y145334D01*
X60091Y143499D01*
X52299Y143499D01*
G37*
%LPD*%
%LPC*%
G36*
X41509Y143499D02*
X41509Y143499D01*
X41509Y145334D01*
X41682Y145981D01*
X42017Y146560D01*
X42490Y147033D01*
X43069Y147368D01*
X43716Y147541D01*
X49301Y147541D01*
X49301Y143499D01*
X41509Y143499D01*
G37*
%LPD*%
%LPC*%
G36*
X1804899Y106459D02*
X1804899Y106459D01*
X1804899Y110501D01*
X1812691Y110501D01*
X1812691Y108666D01*
X1812518Y108019D01*
X1812183Y107440D01*
X1811710Y106967D01*
X1811131Y106632D01*
X1810484Y106459D01*
X1804899Y106459D01*
G37*
%LPD*%
%LPC*%
G36*
X1796316Y106459D02*
X1796316Y106459D01*
X1795669Y106632D01*
X1795090Y106967D01*
X1794617Y107440D01*
X1794282Y108019D01*
X1794109Y108666D01*
X1794109Y110501D01*
X1801901Y110501D01*
X1801901Y106459D01*
X1796316Y106459D01*
G37*
%LPD*%
%LPC*%
G36*
X700087Y69151D02*
X700087Y69151D01*
X700087Y73280D01*
X705184Y73280D01*
X705831Y73107D01*
X706410Y72772D01*
X706883Y72299D01*
X707218Y71720D01*
X707391Y71073D01*
X707391Y69151D01*
X700087Y69151D01*
G37*
%LPD*%
%LPC*%
G36*
X689609Y69151D02*
X689609Y69151D01*
X689609Y71073D01*
X689782Y71720D01*
X690117Y72299D01*
X690590Y72772D01*
X691169Y73107D01*
X691816Y73280D01*
X696913Y73280D01*
X696913Y69151D01*
X689609Y69151D01*
G37*
%LPD*%
%LPC*%
G36*
X180720Y52387D02*
X180720Y52387D01*
X180720Y57484D01*
X180893Y58131D01*
X181228Y58710D01*
X181701Y59183D01*
X182280Y59518D01*
X182927Y59691D01*
X184849Y59691D01*
X184849Y52387D01*
X180720Y52387D01*
G37*
%LPD*%
%LPC*%
G36*
X182927Y41909D02*
X182927Y41909D01*
X182280Y42082D01*
X181701Y42417D01*
X181228Y42890D01*
X180893Y43469D01*
X180720Y44116D01*
X180720Y49213D01*
X184849Y49213D01*
X184849Y41909D01*
X182927Y41909D01*
G37*
%LPD*%
%LPC*%
G36*
X270799Y115799D02*
X270799Y115799D01*
X270799Y119841D01*
X275634Y119841D01*
X276281Y119668D01*
X276860Y119333D01*
X277333Y118860D01*
X277668Y118281D01*
X277841Y117634D01*
X277841Y115799D01*
X270799Y115799D01*
G37*
%LPD*%
%LPC*%
G36*
X260759Y115799D02*
X260759Y115799D01*
X260759Y117634D01*
X260932Y118281D01*
X261267Y118860D01*
X261740Y119333D01*
X262319Y119668D01*
X262966Y119841D01*
X267801Y119841D01*
X267801Y115799D01*
X260759Y115799D01*
G37*
%LPD*%
%LPC*%
G36*
X1548199Y169799D02*
X1548199Y169799D01*
X1548199Y174841D01*
X1550534Y174841D01*
X1551181Y174668D01*
X1551760Y174333D01*
X1552233Y173860D01*
X1552568Y173281D01*
X1552741Y172634D01*
X1552741Y169799D01*
X1548199Y169799D01*
G37*
%LPD*%
%LPC*%
G36*
X1090999Y169799D02*
X1090999Y169799D01*
X1090999Y174841D01*
X1093334Y174841D01*
X1093981Y174668D01*
X1094560Y174333D01*
X1095033Y173860D01*
X1095368Y173281D01*
X1095541Y172634D01*
X1095541Y169799D01*
X1090999Y169799D01*
G37*
%LPD*%
%LPC*%
G36*
X633799Y169799D02*
X633799Y169799D01*
X633799Y174841D01*
X636134Y174841D01*
X636781Y174668D01*
X637360Y174333D01*
X637833Y173860D01*
X638168Y173281D01*
X638341Y172634D01*
X638341Y169799D01*
X633799Y169799D01*
G37*
%LPD*%
%LPC*%
G36*
X625259Y169799D02*
X625259Y169799D01*
X625259Y172634D01*
X625432Y173281D01*
X625767Y173860D01*
X626240Y174333D01*
X626819Y174668D01*
X627466Y174841D01*
X629801Y174841D01*
X629801Y169799D01*
X625259Y169799D01*
G37*
%LPD*%
%LPC*%
G36*
X1548199Y160759D02*
X1548199Y160759D01*
X1548199Y165801D01*
X1552741Y165801D01*
X1552741Y162966D01*
X1552568Y162319D01*
X1552233Y161740D01*
X1551760Y161267D01*
X1551181Y160932D01*
X1550534Y160759D01*
X1548199Y160759D01*
G37*
%LPD*%
%LPC*%
G36*
X1090999Y160759D02*
X1090999Y160759D01*
X1090999Y165801D01*
X1095541Y165801D01*
X1095541Y162966D01*
X1095368Y162319D01*
X1095033Y161740D01*
X1094560Y161267D01*
X1093981Y160932D01*
X1093334Y160759D01*
X1090999Y160759D01*
G37*
%LPD*%
%LPC*%
G36*
X176599Y160759D02*
X176599Y160759D01*
X176599Y165801D01*
X181141Y165801D01*
X181141Y162966D01*
X180968Y162319D01*
X180633Y161740D01*
X180160Y161267D01*
X179581Y160932D01*
X178934Y160759D01*
X176599Y160759D01*
G37*
%LPD*%
%LPC*%
G36*
X633799Y160759D02*
X633799Y160759D01*
X633799Y165801D01*
X638341Y165801D01*
X638341Y162966D01*
X638168Y162319D01*
X637833Y161740D01*
X637360Y161267D01*
X636781Y160932D01*
X636134Y160759D01*
X633799Y160759D01*
G37*
%LPD*%
%LPC*%
G36*
X1082459Y169799D02*
X1082459Y169799D01*
X1082459Y172634D01*
X1082632Y173281D01*
X1082967Y173860D01*
X1083440Y174333D01*
X1084019Y174668D01*
X1084666Y174841D01*
X1087001Y174841D01*
X1087001Y169799D01*
X1082459Y169799D01*
G37*
%LPD*%
%LPC*%
G36*
X1539659Y169799D02*
X1539659Y169799D01*
X1539659Y172634D01*
X1539832Y173281D01*
X1540167Y173860D01*
X1540640Y174333D01*
X1541219Y174668D01*
X1541866Y174841D01*
X1544201Y174841D01*
X1544201Y169799D01*
X1539659Y169799D01*
G37*
%LPD*%
%LPC*%
G36*
X170266Y160759D02*
X170266Y160759D01*
X169619Y160932D01*
X169040Y161267D01*
X168567Y161740D01*
X168232Y162319D01*
X168059Y162966D01*
X168059Y165801D01*
X172601Y165801D01*
X172601Y160759D01*
X170266Y160759D01*
G37*
%LPD*%
%LPC*%
G36*
X1084666Y160759D02*
X1084666Y160759D01*
X1084019Y160932D01*
X1083440Y161267D01*
X1082967Y161740D01*
X1082632Y162319D01*
X1082459Y162966D01*
X1082459Y165801D01*
X1087001Y165801D01*
X1087001Y160759D01*
X1084666Y160759D01*
G37*
%LPD*%
%LPC*%
G36*
X1541866Y160759D02*
X1541866Y160759D01*
X1541219Y160932D01*
X1540640Y161267D01*
X1540167Y161740D01*
X1539832Y162319D01*
X1539659Y162966D01*
X1539659Y165801D01*
X1544201Y165801D01*
X1544201Y160759D01*
X1541866Y160759D01*
G37*
%LPD*%
%LPC*%
G36*
X627466Y160759D02*
X627466Y160759D01*
X626819Y160932D01*
X626240Y161267D01*
X625767Y161740D01*
X625432Y162319D01*
X625259Y162966D01*
X625259Y165801D01*
X629801Y165801D01*
X629801Y160759D01*
X627466Y160759D01*
G37*
%LPD*%
%LPC*%
G36*
X247259Y102869D02*
X247259Y102869D01*
X247405Y103601D01*
X247922Y104849D01*
X248673Y105972D01*
X249628Y106927D01*
X250751Y107678D01*
X251999Y108195D01*
X252731Y108341D01*
X252731Y102869D01*
X247259Y102869D01*
G37*
%LPD*%
%LPC*%
G36*
X251999Y95005D02*
X251999Y95005D01*
X250751Y95522D01*
X249628Y96273D01*
X248673Y97228D01*
X247922Y98351D01*
X247405Y99599D01*
X247259Y100331D01*
X252731Y100331D01*
X252731Y94859D01*
X251999Y95005D01*
G37*
%LPD*%
D10*
X232800Y133350D03*
X249800Y133350D03*
D11*
X1520500Y210630D02*
X1527500Y210630D01*
X1527500Y203630D01*
X1520500Y203630D01*
X1520500Y210630D01*
X1520500Y206480D02*
X1527500Y206480D01*
X1527500Y209330D02*
X1520500Y209330D01*
X1520500Y228170D02*
X1527500Y228170D01*
X1527500Y221170D01*
X1520500Y221170D01*
X1520500Y228170D01*
X1520500Y224020D02*
X1527500Y224020D01*
X1527500Y226870D02*
X1520500Y226870D01*
X703770Y16200D02*
X703770Y9200D01*
X703770Y16200D02*
X710770Y16200D01*
X710770Y9200D01*
X703770Y9200D01*
X703770Y12050D02*
X710770Y12050D01*
X710770Y14900D02*
X703770Y14900D01*
X686230Y16200D02*
X686230Y9200D01*
X686230Y16200D02*
X693230Y16200D01*
X693230Y9200D01*
X686230Y9200D01*
X686230Y12050D02*
X693230Y12050D01*
X693230Y14900D02*
X686230Y14900D01*
X1063300Y210630D02*
X1070300Y210630D01*
X1070300Y203630D01*
X1063300Y203630D01*
X1063300Y210630D01*
X1063300Y206480D02*
X1070300Y206480D01*
X1070300Y209330D02*
X1063300Y209330D01*
X1063300Y228170D02*
X1070300Y228170D01*
X1070300Y221170D01*
X1063300Y221170D01*
X1063300Y228170D01*
X1063300Y224020D02*
X1070300Y224020D01*
X1070300Y226870D02*
X1063300Y226870D01*
X613100Y210630D02*
X606100Y210630D01*
X613100Y210630D02*
X613100Y203630D01*
X606100Y203630D01*
X606100Y210630D01*
X606100Y206480D02*
X613100Y206480D01*
X613100Y209330D02*
X606100Y209330D01*
X606100Y228170D02*
X613100Y228170D01*
X613100Y221170D01*
X606100Y221170D01*
X606100Y228170D01*
X606100Y224020D02*
X613100Y224020D01*
X613100Y226870D02*
X606100Y226870D01*
X155900Y210630D02*
X148900Y210630D01*
X155900Y210630D02*
X155900Y203630D01*
X148900Y203630D01*
X148900Y210630D01*
X148900Y206480D02*
X155900Y206480D01*
X155900Y209330D02*
X148900Y209330D01*
X148900Y228170D02*
X155900Y228170D01*
X155900Y221170D01*
X148900Y221170D01*
X148900Y228170D01*
X148900Y224020D02*
X155900Y224020D01*
X155900Y226870D02*
X148900Y226870D01*
D12*
X1790700Y241300D03*
X50800Y50800D03*
D13*
X165100Y12700D03*
X139700Y12700D03*
X114300Y12700D03*
X88900Y12700D03*
D14*
X1840150Y99000D03*
X1840150Y155000D03*
D15*
X1803400Y112000D03*
X1803400Y122000D03*
X1803400Y132000D03*
X1803400Y142000D03*
D14*
X14050Y155000D03*
X14050Y99000D03*
D15*
X50800Y142000D03*
X50800Y132000D03*
X50800Y122000D03*
X50800Y112000D03*
D16*
X228600Y50800D03*
X254000Y50800D03*
X228600Y76200D03*
X254000Y76200D03*
X228600Y101600D03*
X254000Y101600D03*
D17*
X698500Y67564D03*
X698500Y59436D03*
D18*
X194564Y50800D03*
X186436Y50800D03*
D19*
X1136650Y222250D03*
D20*
X1171650Y222250D03*
D19*
X1593850Y222250D03*
D20*
X1628850Y222250D03*
D19*
X679450Y222250D03*
D20*
X714450Y222250D03*
D19*
X222250Y222250D03*
D20*
X257250Y222250D03*
D21*
X1527200Y167800D03*
X1546200Y167800D03*
X1536700Y188800D03*
X1070000Y167800D03*
X1089000Y167800D03*
X1079500Y188800D03*
X612800Y167800D03*
X631800Y167800D03*
X622300Y188800D03*
X155600Y167800D03*
X174600Y167800D03*
X165100Y188800D03*
D22*
X1498600Y224400D03*
X1498600Y207400D03*
X127000Y224400D03*
X127000Y207400D03*
D10*
X707000Y38100D03*
X690000Y38100D03*
D22*
X177800Y207400D03*
X177800Y224400D03*
X127000Y169300D03*
X127000Y186300D03*
D10*
X232800Y152400D03*
X249800Y152400D03*
D22*
X1549400Y207400D03*
X1549400Y224400D03*
X1498600Y169300D03*
X1498600Y186300D03*
X1041400Y224400D03*
X1041400Y207400D03*
X1092200Y207400D03*
X1092200Y224400D03*
X1041400Y169300D03*
X1041400Y186300D03*
X584200Y224400D03*
X584200Y207400D03*
X635000Y207400D03*
X635000Y224400D03*
X584200Y169300D03*
X584200Y186300D03*
D23*
X213300Y114300D03*
X213300Y101600D03*
X213300Y88900D03*
X213300Y76200D03*
X213300Y63500D03*
X213300Y50800D03*
X213300Y38100D03*
X269300Y38100D03*
X269300Y50800D03*
X269300Y63500D03*
X269300Y76200D03*
X269300Y88900D03*
X269300Y101600D03*
X269300Y114300D03*
D24*
X116586Y114300D03*
X127000Y114300D03*
X137414Y114300D03*
D22*
X95250Y122800D03*
X95250Y105800D03*
X158750Y122800D03*
X158750Y105800D03*
D25*
X177800Y152400D03*
X279400Y139700D03*
X241300Y88900D03*
X622300Y152400D03*
X1104900Y165100D03*
X990600Y38100D03*
X736600Y76200D03*
X1574800Y165100D03*
X1778000Y88900D03*
D26*
X217110Y38100D02*
X213300Y38100D01*
X203200Y38100D01*
D25*
X203200Y38100D03*
D26*
X139700Y76200D02*
X121920Y93980D01*
X139700Y76200D02*
X139700Y31750D01*
D25*
X139700Y31750D03*
D26*
X1218010Y132000D02*
X1803400Y132000D01*
X1218010Y132000D02*
X1205230Y144780D01*
X208280Y25400D02*
X203200Y30480D01*
X203200Y38100D01*
X669290Y144780D02*
X1205230Y144780D01*
X669290Y144780D02*
X549910Y25400D01*
X208280Y25400D01*
X95250Y105800D02*
X84700Y105800D01*
X68500Y122000D02*
X50800Y122000D01*
X68500Y122000D02*
X84700Y105800D01*
X88900Y93980D02*
X121920Y93980D01*
X88900Y93980D02*
X84700Y98180D01*
X84700Y105800D01*
X266700Y50800D02*
X269300Y50800D01*
X266700Y50800D02*
X254000Y63500D01*
X241300Y63500D01*
X228600Y76200D01*
D25*
X165100Y76200D03*
D26*
X165100Y12700D01*
X165100Y76200D02*
X165100Y88900D01*
X158750Y95250D02*
X158750Y105800D01*
X158750Y95250D02*
X165100Y88900D01*
X63260Y112000D02*
X50800Y112000D01*
D25*
X127000Y76200D03*
D26*
X99060Y76200D02*
X63260Y112000D01*
X99060Y76200D02*
X127000Y76200D01*
X269300Y50800D02*
X569576Y50800D01*
X1206808Y148590D02*
X1213398Y142000D01*
X1803400Y142000D01*
X1206808Y148590D02*
X667366Y148590D01*
X569576Y50800D01*
X584200Y207400D02*
X592700Y215900D01*
X647700Y215900D01*
X660400Y203200D01*
X698500Y203200D01*
X714450Y219150D01*
X714450Y222250D01*
X1041400Y207400D02*
X1045600Y207400D01*
X1054100Y215900D01*
X1104900Y215900D01*
X1117600Y203200D01*
X1155700Y203200D01*
X1171650Y219150D01*
X1171650Y222250D01*
X1498600Y207400D02*
X1507100Y215900D01*
X1562100Y215900D01*
X135500Y215900D02*
X127000Y207400D01*
X135500Y215900D02*
X190500Y215900D01*
X203200Y203200D01*
X238200Y203200D01*
X257250Y222250D01*
D27*
X71200Y132000D02*
X50800Y132000D01*
X71200Y132000D02*
X76200Y127000D01*
D25*
X76200Y127000D03*
X1752600Y114300D03*
D27*
X1760300Y122000D01*
X1803400Y122000D01*
D26*
X232800Y152400D02*
X215900Y152400D01*
X213300Y149800D02*
X213300Y133350D01*
X213300Y127000D01*
X213300Y114300D01*
X213300Y149800D02*
X215900Y152400D01*
X213300Y133350D02*
X232800Y133350D01*
D25*
X213300Y127000D03*
D26*
X238951Y50800D02*
X254000Y50800D01*
X238951Y50800D02*
X220457Y69294D01*
X207255Y69294D02*
X203200Y73349D01*
X203200Y119380D01*
X210820Y127000D01*
X213300Y127000D01*
X207255Y69294D02*
X220457Y69294D01*
X673100Y29330D02*
X689730Y12700D01*
X1562100Y215900D02*
X1574800Y203200D01*
X1612900Y203200D01*
X1628850Y219150D01*
X1628850Y222250D01*
D25*
X673100Y127000D03*
D26*
X673100Y29330D01*
X127000Y114300D02*
X127000Y127000D01*
D25*
X127000Y127000D03*
D26*
X241300Y143900D02*
X249800Y152400D01*
X241300Y114300D02*
X228600Y101600D01*
X241300Y114300D02*
X241300Y143900D01*
X215900Y76200D02*
X213300Y76200D01*
X215900Y76200D02*
X228600Y88900D01*
X228600Y101600D01*
X707000Y38100D02*
X707270Y37830D01*
X707270Y12700D01*
X241300Y38100D02*
X228600Y50800D01*
X241300Y38100D02*
X269300Y38100D01*
X1240400Y186300D02*
X1498600Y186300D01*
X1240400Y186300D02*
X1206500Y152400D01*
X576888Y63500D02*
X269300Y63500D01*
X665788Y152400D02*
X1206500Y152400D01*
X665788Y152400D02*
X576888Y63500D01*
X584200Y76200D02*
X269300Y76200D01*
X694300Y186300D02*
X1041400Y186300D01*
X694300Y186300D02*
X584200Y76200D01*
X584200Y186300D02*
X389500Y186300D01*
X292100Y88900D01*
X269300Y88900D01*
X143900Y186300D02*
X127000Y186300D01*
X143900Y186300D02*
X149860Y180340D01*
X276860Y180340D01*
X292100Y165100D01*
X292100Y114300D01*
X279400Y101600D01*
X269300Y101600D01*
X213300Y50800D02*
X194564Y50800D01*
X690000Y44840D02*
X690000Y38100D01*
X690000Y44840D02*
X698500Y53340D01*
X698500Y59436D01*
X1549130Y207130D02*
X1549400Y207400D01*
X1549130Y207130D02*
X1536700Y207130D01*
X1524000Y207130D01*
X1536700Y207130D02*
X1536700Y188800D01*
X1510910Y169300D02*
X1498600Y169300D01*
X1510910Y169300D02*
X1512570Y167640D01*
X1527040Y167640D01*
X1527200Y167800D01*
X1549400Y224400D02*
X1566300Y224400D01*
X1568450Y222250D01*
X1593850Y222250D01*
X1524000Y224670D02*
X1498870Y224670D01*
X1498600Y224400D01*
X1079500Y207130D02*
X1066800Y207130D01*
X1079500Y207130D02*
X1091930Y207130D01*
X1092200Y207400D01*
X1079500Y207130D02*
X1079500Y188800D01*
X1053710Y169300D02*
X1041400Y169300D01*
X1053710Y169300D02*
X1055370Y167640D01*
X1069840Y167640D01*
X1070000Y167800D01*
X1092200Y224400D02*
X1109100Y224400D01*
X1111250Y222250D01*
X1136650Y222250D01*
X1066800Y224670D02*
X1041670Y224670D01*
X1041400Y224400D01*
X622300Y207130D02*
X609600Y207130D01*
X622300Y207130D02*
X634730Y207130D01*
X635000Y207400D01*
X622300Y207130D02*
X622300Y188800D01*
X612800Y167800D02*
X585700Y167800D01*
X584200Y169300D01*
X635000Y224400D02*
X650630Y224400D01*
X652780Y222250D01*
X679450Y222250D01*
X609600Y224670D02*
X584470Y224670D01*
X584200Y224400D01*
X165100Y207130D02*
X152400Y207130D01*
X165100Y207130D02*
X177530Y207130D01*
X177800Y207400D01*
X165100Y207130D02*
X165100Y188800D01*
X155600Y167800D02*
X142080Y167800D01*
X140580Y169300D02*
X127000Y169300D01*
X140580Y169300D02*
X142080Y167800D01*
X177800Y224400D02*
X197240Y224400D01*
X199390Y222250D01*
X222250Y222250D01*
X152400Y224670D02*
X127270Y224670D01*
X127000Y224400D01*
X158750Y122800D02*
X150250Y114300D01*
X137414Y114300D01*
X103750Y114300D02*
X95250Y122800D01*
X103750Y114300D02*
X116586Y114300D01*
M02*
