G04 EAGLE Gerber RS-274X export*
G75*
%MOMM*%
%FSLAX34Y34*%
%LPD*%
%IN*%
%IPPOS*%
%AMOC8*
5,1,8,0,0,1.08239X$1,22.5*%
G01*
%ADD10C,0.203200*%
%ADD11C,0.381000*%
%ADD12C,0.279400*%
%ADD13C,0.254000*%
%ADD14C,0.000000*%


D10*
X25400Y0D02*
X1828800Y0D01*
X1854200Y25400D02*
X1854200Y889000D01*
X1828800Y914400D02*
X25400Y914400D01*
X0Y889000D02*
X0Y25400D01*
X0Y889000D02*
X7Y889614D01*
X30Y890227D01*
X67Y890840D01*
X119Y891451D01*
X185Y892062D01*
X267Y892670D01*
X363Y893276D01*
X473Y893880D01*
X598Y894481D01*
X738Y895079D01*
X892Y895673D01*
X1061Y896263D01*
X1243Y896849D01*
X1440Y897430D01*
X1651Y898007D01*
X1875Y898578D01*
X2113Y899144D01*
X2365Y899704D01*
X2631Y900257D01*
X2909Y900804D01*
X3201Y901344D01*
X3506Y901877D01*
X3824Y902402D01*
X4154Y902920D01*
X4496Y903429D01*
X4851Y903930D01*
X5218Y904422D01*
X5596Y904905D01*
X5986Y905379D01*
X6388Y905843D01*
X6800Y906298D01*
X7224Y906742D01*
X7658Y907176D01*
X8102Y907600D01*
X8557Y908012D01*
X9021Y908414D01*
X9495Y908804D01*
X9978Y909182D01*
X10470Y909549D01*
X10971Y909904D01*
X11480Y910246D01*
X11998Y910576D01*
X12523Y910894D01*
X13056Y911199D01*
X13596Y911491D01*
X14143Y911769D01*
X14696Y912035D01*
X15256Y912287D01*
X15822Y912525D01*
X16393Y912749D01*
X16970Y912960D01*
X17551Y913157D01*
X18137Y913339D01*
X18727Y913508D01*
X19321Y913662D01*
X19919Y913802D01*
X20520Y913927D01*
X21124Y914037D01*
X21730Y914133D01*
X22338Y914215D01*
X22949Y914281D01*
X23560Y914333D01*
X24173Y914370D01*
X24786Y914393D01*
X25400Y914400D01*
X0Y25400D02*
X7Y24786D01*
X30Y24173D01*
X67Y23560D01*
X119Y22949D01*
X185Y22338D01*
X267Y21730D01*
X363Y21124D01*
X473Y20520D01*
X598Y19919D01*
X738Y19321D01*
X892Y18727D01*
X1061Y18137D01*
X1243Y17551D01*
X1440Y16970D01*
X1651Y16393D01*
X1875Y15822D01*
X2113Y15256D01*
X2365Y14696D01*
X2631Y14143D01*
X2909Y13596D01*
X3201Y13056D01*
X3506Y12523D01*
X3824Y11998D01*
X4154Y11480D01*
X4496Y10971D01*
X4851Y10470D01*
X5218Y9978D01*
X5596Y9495D01*
X5986Y9021D01*
X6388Y8557D01*
X6800Y8102D01*
X7224Y7658D01*
X7658Y7224D01*
X8102Y6800D01*
X8557Y6388D01*
X9021Y5986D01*
X9495Y5596D01*
X9978Y5218D01*
X10470Y4851D01*
X10971Y4496D01*
X11480Y4154D01*
X11998Y3824D01*
X12523Y3506D01*
X13056Y3201D01*
X13596Y2909D01*
X14143Y2631D01*
X14696Y2365D01*
X15256Y2113D01*
X15822Y1875D01*
X16393Y1651D01*
X16970Y1440D01*
X17551Y1243D01*
X18137Y1061D01*
X18727Y892D01*
X19321Y738D01*
X19919Y598D01*
X20520Y473D01*
X21124Y363D01*
X21730Y267D01*
X22338Y185D01*
X22949Y119D01*
X23560Y67D01*
X24173Y30D01*
X24786Y7D01*
X25400Y0D01*
X1828800Y914400D02*
X1829414Y914393D01*
X1830027Y914370D01*
X1830640Y914333D01*
X1831251Y914281D01*
X1831862Y914215D01*
X1832470Y914133D01*
X1833076Y914037D01*
X1833680Y913927D01*
X1834281Y913802D01*
X1834879Y913662D01*
X1835473Y913508D01*
X1836063Y913339D01*
X1836649Y913157D01*
X1837230Y912960D01*
X1837807Y912749D01*
X1838378Y912525D01*
X1838944Y912287D01*
X1839504Y912035D01*
X1840057Y911769D01*
X1840604Y911491D01*
X1841144Y911199D01*
X1841677Y910894D01*
X1842202Y910576D01*
X1842720Y910246D01*
X1843229Y909904D01*
X1843730Y909549D01*
X1844222Y909182D01*
X1844705Y908804D01*
X1845179Y908414D01*
X1845643Y908012D01*
X1846098Y907600D01*
X1846542Y907176D01*
X1846976Y906742D01*
X1847400Y906298D01*
X1847812Y905843D01*
X1848214Y905379D01*
X1848604Y904905D01*
X1848982Y904422D01*
X1849349Y903930D01*
X1849704Y903429D01*
X1850046Y902920D01*
X1850376Y902402D01*
X1850694Y901877D01*
X1850999Y901344D01*
X1851291Y900804D01*
X1851569Y900257D01*
X1851835Y899704D01*
X1852087Y899144D01*
X1852325Y898578D01*
X1852549Y898007D01*
X1852760Y897430D01*
X1852957Y896849D01*
X1853139Y896263D01*
X1853308Y895673D01*
X1853462Y895079D01*
X1853602Y894481D01*
X1853727Y893880D01*
X1853837Y893276D01*
X1853933Y892670D01*
X1854015Y892062D01*
X1854081Y891451D01*
X1854133Y890840D01*
X1854170Y890227D01*
X1854193Y889614D01*
X1854200Y889000D01*
X1854200Y25400D02*
X1854193Y24786D01*
X1854170Y24173D01*
X1854133Y23560D01*
X1854081Y22949D01*
X1854015Y22338D01*
X1853933Y21730D01*
X1853837Y21124D01*
X1853727Y20520D01*
X1853602Y19919D01*
X1853462Y19321D01*
X1853308Y18727D01*
X1853139Y18137D01*
X1852957Y17551D01*
X1852760Y16970D01*
X1852549Y16393D01*
X1852325Y15822D01*
X1852087Y15256D01*
X1851835Y14696D01*
X1851569Y14143D01*
X1851291Y13596D01*
X1850999Y13056D01*
X1850694Y12523D01*
X1850376Y11998D01*
X1850046Y11480D01*
X1849704Y10971D01*
X1849349Y10470D01*
X1848982Y9978D01*
X1848604Y9495D01*
X1848214Y9021D01*
X1847812Y8557D01*
X1847400Y8102D01*
X1846976Y7658D01*
X1846542Y7224D01*
X1846098Y6800D01*
X1845643Y6388D01*
X1845179Y5986D01*
X1844705Y5596D01*
X1844222Y5218D01*
X1843730Y4851D01*
X1843229Y4496D01*
X1842720Y4154D01*
X1842202Y3824D01*
X1841677Y3506D01*
X1841144Y3201D01*
X1840604Y2909D01*
X1840057Y2631D01*
X1839504Y2365D01*
X1838944Y2113D01*
X1838378Y1875D01*
X1837807Y1651D01*
X1837230Y1440D01*
X1836649Y1243D01*
X1836063Y1061D01*
X1835473Y892D01*
X1834879Y738D01*
X1834281Y598D01*
X1833680Y473D01*
X1833076Y363D01*
X1832470Y267D01*
X1831862Y185D01*
X1831251Y119D01*
X1830640Y67D01*
X1830027Y30D01*
X1829414Y7D01*
X1828800Y0D01*
X1828800Y919480D02*
X25400Y919480D01*
X1854200Y944880D02*
X1854200Y1808480D01*
X1828800Y1833880D02*
X25400Y1833880D01*
X0Y1808480D02*
X0Y944880D01*
X0Y1808480D02*
X7Y1809094D01*
X30Y1809707D01*
X67Y1810320D01*
X119Y1810931D01*
X185Y1811542D01*
X267Y1812150D01*
X363Y1812756D01*
X473Y1813360D01*
X598Y1813961D01*
X738Y1814559D01*
X892Y1815153D01*
X1061Y1815743D01*
X1243Y1816329D01*
X1440Y1816910D01*
X1651Y1817487D01*
X1875Y1818058D01*
X2113Y1818624D01*
X2365Y1819184D01*
X2631Y1819737D01*
X2909Y1820284D01*
X3201Y1820824D01*
X3506Y1821357D01*
X3824Y1821882D01*
X4154Y1822400D01*
X4496Y1822909D01*
X4851Y1823410D01*
X5218Y1823902D01*
X5596Y1824385D01*
X5986Y1824859D01*
X6388Y1825323D01*
X6800Y1825778D01*
X7224Y1826222D01*
X7658Y1826656D01*
X8102Y1827080D01*
X8557Y1827492D01*
X9021Y1827894D01*
X9495Y1828284D01*
X9978Y1828662D01*
X10470Y1829029D01*
X10971Y1829384D01*
X11480Y1829726D01*
X11998Y1830056D01*
X12523Y1830374D01*
X13056Y1830679D01*
X13596Y1830971D01*
X14143Y1831249D01*
X14696Y1831515D01*
X15256Y1831767D01*
X15822Y1832005D01*
X16393Y1832229D01*
X16970Y1832440D01*
X17551Y1832637D01*
X18137Y1832819D01*
X18727Y1832988D01*
X19321Y1833142D01*
X19919Y1833282D01*
X20520Y1833407D01*
X21124Y1833517D01*
X21730Y1833613D01*
X22338Y1833695D01*
X22949Y1833761D01*
X23560Y1833813D01*
X24173Y1833850D01*
X24786Y1833873D01*
X25400Y1833880D01*
X0Y944880D02*
X7Y944266D01*
X30Y943653D01*
X67Y943040D01*
X119Y942429D01*
X185Y941818D01*
X267Y941210D01*
X363Y940604D01*
X473Y940000D01*
X598Y939399D01*
X738Y938801D01*
X892Y938207D01*
X1061Y937617D01*
X1243Y937031D01*
X1440Y936450D01*
X1651Y935873D01*
X1875Y935302D01*
X2113Y934736D01*
X2365Y934176D01*
X2631Y933623D01*
X2909Y933076D01*
X3201Y932536D01*
X3506Y932003D01*
X3824Y931478D01*
X4154Y930960D01*
X4496Y930451D01*
X4851Y929950D01*
X5218Y929458D01*
X5596Y928975D01*
X5986Y928501D01*
X6388Y928037D01*
X6800Y927582D01*
X7224Y927138D01*
X7658Y926704D01*
X8102Y926280D01*
X8557Y925868D01*
X9021Y925466D01*
X9495Y925076D01*
X9978Y924698D01*
X10470Y924331D01*
X10971Y923976D01*
X11480Y923634D01*
X11998Y923304D01*
X12523Y922986D01*
X13056Y922681D01*
X13596Y922389D01*
X14143Y922111D01*
X14696Y921845D01*
X15256Y921593D01*
X15822Y921355D01*
X16393Y921131D01*
X16970Y920920D01*
X17551Y920723D01*
X18137Y920541D01*
X18727Y920372D01*
X19321Y920218D01*
X19919Y920078D01*
X20520Y919953D01*
X21124Y919843D01*
X21730Y919747D01*
X22338Y919665D01*
X22949Y919599D01*
X23560Y919547D01*
X24173Y919510D01*
X24786Y919487D01*
X25400Y919480D01*
X1828800Y1833880D02*
X1829414Y1833873D01*
X1830027Y1833850D01*
X1830640Y1833813D01*
X1831251Y1833761D01*
X1831862Y1833695D01*
X1832470Y1833613D01*
X1833076Y1833517D01*
X1833680Y1833407D01*
X1834281Y1833282D01*
X1834879Y1833142D01*
X1835473Y1832988D01*
X1836063Y1832819D01*
X1836649Y1832637D01*
X1837230Y1832440D01*
X1837807Y1832229D01*
X1838378Y1832005D01*
X1838944Y1831767D01*
X1839504Y1831515D01*
X1840057Y1831249D01*
X1840604Y1830971D01*
X1841144Y1830679D01*
X1841677Y1830374D01*
X1842202Y1830056D01*
X1842720Y1829726D01*
X1843229Y1829384D01*
X1843730Y1829029D01*
X1844222Y1828662D01*
X1844705Y1828284D01*
X1845179Y1827894D01*
X1845643Y1827492D01*
X1846098Y1827080D01*
X1846542Y1826656D01*
X1846976Y1826222D01*
X1847400Y1825778D01*
X1847812Y1825323D01*
X1848214Y1824859D01*
X1848604Y1824385D01*
X1848982Y1823902D01*
X1849349Y1823410D01*
X1849704Y1822909D01*
X1850046Y1822400D01*
X1850376Y1821882D01*
X1850694Y1821357D01*
X1850999Y1820824D01*
X1851291Y1820284D01*
X1851569Y1819737D01*
X1851835Y1819184D01*
X1852087Y1818624D01*
X1852325Y1818058D01*
X1852549Y1817487D01*
X1852760Y1816910D01*
X1852957Y1816329D01*
X1853139Y1815743D01*
X1853308Y1815153D01*
X1853462Y1814559D01*
X1853602Y1813961D01*
X1853727Y1813360D01*
X1853837Y1812756D01*
X1853933Y1812150D01*
X1854015Y1811542D01*
X1854081Y1810931D01*
X1854133Y1810320D01*
X1854170Y1809707D01*
X1854193Y1809094D01*
X1854200Y1808480D01*
X1854200Y944880D02*
X1854193Y944266D01*
X1854170Y943653D01*
X1854133Y943040D01*
X1854081Y942429D01*
X1854015Y941818D01*
X1853933Y941210D01*
X1853837Y940604D01*
X1853727Y940000D01*
X1853602Y939399D01*
X1853462Y938801D01*
X1853308Y938207D01*
X1853139Y937617D01*
X1852957Y937031D01*
X1852760Y936450D01*
X1852549Y935873D01*
X1852325Y935302D01*
X1852087Y934736D01*
X1851835Y934176D01*
X1851569Y933623D01*
X1851291Y933076D01*
X1850999Y932536D01*
X1850694Y932003D01*
X1850376Y931478D01*
X1850046Y930960D01*
X1849704Y930451D01*
X1849349Y929950D01*
X1848982Y929458D01*
X1848604Y928975D01*
X1848214Y928501D01*
X1847812Y928037D01*
X1847400Y927582D01*
X1846976Y927138D01*
X1846542Y926704D01*
X1846098Y926280D01*
X1845643Y925868D01*
X1845179Y925466D01*
X1844705Y925076D01*
X1844222Y924698D01*
X1843730Y924331D01*
X1843229Y923976D01*
X1842720Y923634D01*
X1842202Y923304D01*
X1841677Y922986D01*
X1841144Y922681D01*
X1840604Y922389D01*
X1840057Y922111D01*
X1839504Y921845D01*
X1838944Y921593D01*
X1838378Y921355D01*
X1837807Y921131D01*
X1837230Y920920D01*
X1836649Y920723D01*
X1836063Y920541D01*
X1835473Y920372D01*
X1834879Y920218D01*
X1834281Y920078D01*
X1833680Y919953D01*
X1833076Y919843D01*
X1832470Y919747D01*
X1831862Y919665D01*
X1831251Y919599D01*
X1830640Y919547D01*
X1830027Y919510D01*
X1829414Y919487D01*
X1828800Y919480D01*
D11*
X-2540Y-68580D02*
X-2540Y1965960D01*
D12*
X-42921Y1981327D02*
X-46251Y1991318D01*
X-39590Y1991318D02*
X-42921Y1981327D01*
X-32806Y1987155D02*
X-22815Y1987155D01*
X-14261Y1987155D02*
X-10098Y1985490D01*
X-14261Y1987154D02*
X-14346Y1987190D01*
X-14429Y1987230D01*
X-14510Y1987273D01*
X-14590Y1987320D01*
X-14667Y1987370D01*
X-14743Y1987423D01*
X-14816Y1987479D01*
X-14886Y1987539D01*
X-14954Y1987601D01*
X-15019Y1987666D01*
X-15081Y1987734D01*
X-15141Y1987805D01*
X-15197Y1987878D01*
X-15250Y1987953D01*
X-15300Y1988031D01*
X-15346Y1988110D01*
X-15389Y1988192D01*
X-15429Y1988275D01*
X-15465Y1988360D01*
X-15497Y1988446D01*
X-15526Y1988534D01*
X-15550Y1988623D01*
X-15571Y1988713D01*
X-15588Y1988803D01*
X-15602Y1988894D01*
X-15611Y1988986D01*
X-15616Y1989078D01*
X-15618Y1989170D01*
X-15616Y1989262D01*
X-15609Y1989354D01*
X-15599Y1989446D01*
X-15585Y1989537D01*
X-15567Y1989628D01*
X-15545Y1989717D01*
X-15519Y1989806D01*
X-15489Y1989893D01*
X-15456Y1989979D01*
X-15419Y1990063D01*
X-15379Y1990146D01*
X-15335Y1990227D01*
X-15288Y1990306D01*
X-15237Y1990383D01*
X-15183Y1990458D01*
X-15126Y1990531D01*
X-15066Y1990601D01*
X-15003Y1990668D01*
X-14937Y1990732D01*
X-14869Y1990794D01*
X-14798Y1990853D01*
X-14724Y1990908D01*
X-14648Y1990961D01*
X-14570Y1991010D01*
X-14490Y1991056D01*
X-14409Y1991098D01*
X-14325Y1991137D01*
X-14240Y1991172D01*
X-14153Y1991203D01*
X-14065Y1991231D01*
X-13976Y1991255D01*
X-13886Y1991275D01*
X-13796Y1991292D01*
X-13704Y1991304D01*
X-13612Y1991313D01*
X-13520Y1991317D01*
X-13428Y1991318D01*
X-13201Y1991312D01*
X-12974Y1991301D01*
X-12747Y1991284D01*
X-12521Y1991261D01*
X-12295Y1991234D01*
X-12070Y1991200D01*
X-11846Y1991162D01*
X-11623Y1991118D01*
X-11401Y1991069D01*
X-11180Y1991014D01*
X-10961Y1990954D01*
X-10743Y1990889D01*
X-10527Y1990818D01*
X-10313Y1990743D01*
X-10100Y1990662D01*
X-9890Y1990576D01*
X-9681Y1990485D01*
X-10098Y1985490D02*
X-10013Y1985454D01*
X-9930Y1985414D01*
X-9849Y1985371D01*
X-9769Y1985324D01*
X-9692Y1985274D01*
X-9616Y1985221D01*
X-9543Y1985165D01*
X-9473Y1985105D01*
X-9405Y1985043D01*
X-9340Y1984978D01*
X-9278Y1984910D01*
X-9218Y1984839D01*
X-9162Y1984766D01*
X-9109Y1984691D01*
X-9059Y1984613D01*
X-9013Y1984534D01*
X-8970Y1984452D01*
X-8930Y1984369D01*
X-8894Y1984284D01*
X-8862Y1984198D01*
X-8833Y1984110D01*
X-8809Y1984021D01*
X-8788Y1983931D01*
X-8771Y1983841D01*
X-8757Y1983750D01*
X-8748Y1983658D01*
X-8743Y1983566D01*
X-8741Y1983474D01*
X-8743Y1983382D01*
X-8750Y1983290D01*
X-8760Y1983198D01*
X-8774Y1983107D01*
X-8792Y1983016D01*
X-8814Y1982927D01*
X-8840Y1982838D01*
X-8870Y1982751D01*
X-8903Y1982665D01*
X-8940Y1982581D01*
X-8980Y1982498D01*
X-9024Y1982417D01*
X-9071Y1982338D01*
X-9122Y1982261D01*
X-9176Y1982186D01*
X-9233Y1982113D01*
X-9293Y1982043D01*
X-9356Y1981976D01*
X-9422Y1981912D01*
X-9490Y1981850D01*
X-9561Y1981791D01*
X-9635Y1981736D01*
X-9711Y1981683D01*
X-9789Y1981634D01*
X-9869Y1981588D01*
X-9950Y1981546D01*
X-10034Y1981507D01*
X-10119Y1981472D01*
X-10206Y1981441D01*
X-10294Y1981413D01*
X-10383Y1981389D01*
X-10473Y1981369D01*
X-10563Y1981352D01*
X-10655Y1981340D01*
X-10747Y1981331D01*
X-10839Y1981327D01*
X-10931Y1981326D01*
X-10931Y1981327D02*
X-11265Y1981336D01*
X-11598Y1981353D01*
X-11931Y1981377D01*
X-12264Y1981410D01*
X-12595Y1981450D01*
X-12926Y1981498D01*
X-13255Y1981554D01*
X-13583Y1981617D01*
X-13909Y1981689D01*
X-14233Y1981768D01*
X-14556Y1981854D01*
X-14876Y1981949D01*
X-15194Y1982051D01*
X-15510Y1982160D01*
X562Y1981327D02*
X3892Y1981327D01*
X562Y1981327D02*
X464Y1981329D01*
X366Y1981335D01*
X268Y1981344D01*
X171Y1981358D01*
X75Y1981375D01*
X-21Y1981396D01*
X-116Y1981421D01*
X-210Y1981449D01*
X-303Y1981481D01*
X-394Y1981517D01*
X-484Y1981556D01*
X-572Y1981599D01*
X-659Y1981646D01*
X-743Y1981695D01*
X-826Y1981748D01*
X-906Y1981804D01*
X-985Y1981863D01*
X-1060Y1981926D01*
X-1134Y1981991D01*
X-1204Y1982059D01*
X-1272Y1982129D01*
X-1338Y1982203D01*
X-1400Y1982279D01*
X-1459Y1982357D01*
X-1515Y1982437D01*
X-1568Y1982520D01*
X-1618Y1982604D01*
X-1664Y1982691D01*
X-1707Y1982779D01*
X-1746Y1982869D01*
X-1782Y1982960D01*
X-1814Y1983053D01*
X-1842Y1983147D01*
X-1867Y1983242D01*
X-1888Y1983338D01*
X-1905Y1983434D01*
X-1919Y1983531D01*
X-1928Y1983629D01*
X-1934Y1983727D01*
X-1936Y1983825D01*
X-1936Y1988820D01*
X-1934Y1988918D01*
X-1928Y1989016D01*
X-1919Y1989114D01*
X-1905Y1989211D01*
X-1888Y1989307D01*
X-1867Y1989403D01*
X-1842Y1989498D01*
X-1814Y1989592D01*
X-1782Y1989685D01*
X-1746Y1989776D01*
X-1707Y1989866D01*
X-1664Y1989954D01*
X-1617Y1990041D01*
X-1568Y1990125D01*
X-1515Y1990208D01*
X-1459Y1990288D01*
X-1400Y1990366D01*
X-1337Y1990442D01*
X-1272Y1990516D01*
X-1204Y1990586D01*
X-1134Y1990654D01*
X-1060Y1990719D01*
X-984Y1990782D01*
X-906Y1990841D01*
X-826Y1990897D01*
X-743Y1990950D01*
X-659Y1990999D01*
X-572Y1991046D01*
X-484Y1991089D01*
X-394Y1991128D01*
X-303Y1991164D01*
X-210Y1991196D01*
X-116Y1991224D01*
X-21Y1991249D01*
X75Y1991270D01*
X171Y1991287D01*
X268Y1991301D01*
X366Y1991310D01*
X464Y1991316D01*
X562Y1991318D01*
X3892Y1991318D01*
X10022Y1987987D02*
X10022Y1984657D01*
X10022Y1987987D02*
X10024Y1988101D01*
X10030Y1988214D01*
X10039Y1988328D01*
X10053Y1988440D01*
X10070Y1988553D01*
X10092Y1988665D01*
X10117Y1988775D01*
X10145Y1988885D01*
X10178Y1988994D01*
X10214Y1989102D01*
X10254Y1989209D01*
X10298Y1989314D01*
X10345Y1989417D01*
X10395Y1989519D01*
X10449Y1989619D01*
X10507Y1989717D01*
X10568Y1989813D01*
X10631Y1989907D01*
X10699Y1989999D01*
X10769Y1990089D01*
X10842Y1990175D01*
X10918Y1990260D01*
X10997Y1990342D01*
X11079Y1990421D01*
X11164Y1990497D01*
X11250Y1990570D01*
X11340Y1990640D01*
X11432Y1990708D01*
X11526Y1990771D01*
X11622Y1990832D01*
X11720Y1990890D01*
X11820Y1990944D01*
X11922Y1990994D01*
X12025Y1991041D01*
X12130Y1991085D01*
X12237Y1991125D01*
X12345Y1991161D01*
X12454Y1991194D01*
X12564Y1991222D01*
X12674Y1991247D01*
X12786Y1991269D01*
X12899Y1991286D01*
X13011Y1991300D01*
X13125Y1991309D01*
X13238Y1991315D01*
X13352Y1991317D01*
X13466Y1991315D01*
X13579Y1991309D01*
X13693Y1991300D01*
X13805Y1991286D01*
X13918Y1991269D01*
X14030Y1991247D01*
X14140Y1991222D01*
X14250Y1991194D01*
X14359Y1991161D01*
X14467Y1991125D01*
X14574Y1991085D01*
X14679Y1991041D01*
X14782Y1990994D01*
X14884Y1990944D01*
X14984Y1990890D01*
X15082Y1990832D01*
X15178Y1990771D01*
X15272Y1990708D01*
X15364Y1990640D01*
X15454Y1990570D01*
X15540Y1990497D01*
X15625Y1990421D01*
X15707Y1990342D01*
X15786Y1990260D01*
X15862Y1990175D01*
X15935Y1990089D01*
X16005Y1989999D01*
X16073Y1989907D01*
X16136Y1989813D01*
X16197Y1989717D01*
X16255Y1989619D01*
X16309Y1989519D01*
X16359Y1989417D01*
X16406Y1989314D01*
X16450Y1989209D01*
X16490Y1989102D01*
X16526Y1988994D01*
X16559Y1988885D01*
X16587Y1988775D01*
X16612Y1988665D01*
X16634Y1988553D01*
X16651Y1988440D01*
X16665Y1988328D01*
X16674Y1988214D01*
X16680Y1988101D01*
X16682Y1987987D01*
X16682Y1984657D01*
X16680Y1984543D01*
X16674Y1984430D01*
X16665Y1984316D01*
X16651Y1984204D01*
X16634Y1984091D01*
X16612Y1983979D01*
X16587Y1983869D01*
X16559Y1983759D01*
X16526Y1983650D01*
X16490Y1983542D01*
X16450Y1983435D01*
X16406Y1983330D01*
X16359Y1983227D01*
X16309Y1983125D01*
X16255Y1983025D01*
X16197Y1982927D01*
X16136Y1982831D01*
X16073Y1982737D01*
X16005Y1982645D01*
X15935Y1982555D01*
X15862Y1982469D01*
X15786Y1982384D01*
X15707Y1982302D01*
X15625Y1982223D01*
X15540Y1982147D01*
X15454Y1982074D01*
X15364Y1982004D01*
X15272Y1981936D01*
X15178Y1981873D01*
X15082Y1981812D01*
X14984Y1981754D01*
X14884Y1981700D01*
X14782Y1981650D01*
X14679Y1981603D01*
X14574Y1981559D01*
X14467Y1981519D01*
X14359Y1981483D01*
X14250Y1981450D01*
X14140Y1981422D01*
X14030Y1981397D01*
X13918Y1981375D01*
X13805Y1981358D01*
X13693Y1981344D01*
X13579Y1981335D01*
X13466Y1981329D01*
X13352Y1981327D01*
X13238Y1981329D01*
X13125Y1981335D01*
X13011Y1981344D01*
X12899Y1981358D01*
X12786Y1981375D01*
X12674Y1981397D01*
X12564Y1981422D01*
X12454Y1981450D01*
X12345Y1981483D01*
X12237Y1981519D01*
X12130Y1981559D01*
X12025Y1981603D01*
X11922Y1981650D01*
X11820Y1981700D01*
X11720Y1981754D01*
X11622Y1981812D01*
X11526Y1981873D01*
X11432Y1981936D01*
X11340Y1982004D01*
X11250Y1982074D01*
X11164Y1982147D01*
X11079Y1982223D01*
X10997Y1982302D01*
X10918Y1982384D01*
X10842Y1982469D01*
X10769Y1982555D01*
X10699Y1982645D01*
X10631Y1982737D01*
X10568Y1982831D01*
X10507Y1982927D01*
X10449Y1983025D01*
X10395Y1983125D01*
X10345Y1983227D01*
X10298Y1983330D01*
X10254Y1983435D01*
X10214Y1983542D01*
X10178Y1983650D01*
X10145Y1983759D01*
X10117Y1983869D01*
X10092Y1983979D01*
X10070Y1984091D01*
X10053Y1984204D01*
X10039Y1984316D01*
X10030Y1984430D01*
X10024Y1984543D01*
X10022Y1984657D01*
X24218Y1981327D02*
X24218Y1991318D01*
X29213Y1991318D01*
X29213Y1989653D01*
X37008Y1981327D02*
X41171Y1981327D01*
X37008Y1981327D02*
X36910Y1981329D01*
X36812Y1981335D01*
X36714Y1981344D01*
X36617Y1981358D01*
X36521Y1981375D01*
X36425Y1981396D01*
X36330Y1981421D01*
X36236Y1981449D01*
X36143Y1981481D01*
X36052Y1981517D01*
X35962Y1981556D01*
X35874Y1981599D01*
X35787Y1981646D01*
X35703Y1981695D01*
X35620Y1981748D01*
X35540Y1981804D01*
X35462Y1981863D01*
X35386Y1981926D01*
X35312Y1981991D01*
X35242Y1982059D01*
X35174Y1982129D01*
X35109Y1982203D01*
X35046Y1982279D01*
X34987Y1982357D01*
X34931Y1982437D01*
X34878Y1982520D01*
X34829Y1982604D01*
X34782Y1982691D01*
X34739Y1982779D01*
X34700Y1982869D01*
X34664Y1982960D01*
X34632Y1983053D01*
X34604Y1983147D01*
X34579Y1983242D01*
X34558Y1983338D01*
X34541Y1983434D01*
X34527Y1983531D01*
X34518Y1983629D01*
X34512Y1983727D01*
X34510Y1983825D01*
X34510Y1987987D01*
X34511Y1987987D02*
X34513Y1988101D01*
X34519Y1988214D01*
X34528Y1988328D01*
X34542Y1988440D01*
X34559Y1988553D01*
X34581Y1988665D01*
X34606Y1988775D01*
X34634Y1988885D01*
X34667Y1988994D01*
X34703Y1989102D01*
X34743Y1989209D01*
X34787Y1989314D01*
X34834Y1989417D01*
X34884Y1989519D01*
X34938Y1989619D01*
X34996Y1989717D01*
X35057Y1989813D01*
X35120Y1989907D01*
X35188Y1989999D01*
X35258Y1990089D01*
X35331Y1990175D01*
X35407Y1990260D01*
X35486Y1990342D01*
X35568Y1990421D01*
X35653Y1990497D01*
X35739Y1990570D01*
X35829Y1990640D01*
X35921Y1990708D01*
X36015Y1990771D01*
X36111Y1990832D01*
X36209Y1990890D01*
X36309Y1990944D01*
X36411Y1990994D01*
X36514Y1991041D01*
X36619Y1991085D01*
X36726Y1991125D01*
X36834Y1991161D01*
X36943Y1991194D01*
X37053Y1991222D01*
X37163Y1991247D01*
X37275Y1991269D01*
X37388Y1991286D01*
X37500Y1991300D01*
X37614Y1991309D01*
X37727Y1991315D01*
X37841Y1991317D01*
X37955Y1991315D01*
X38068Y1991309D01*
X38182Y1991300D01*
X38294Y1991286D01*
X38407Y1991269D01*
X38519Y1991247D01*
X38629Y1991222D01*
X38739Y1991194D01*
X38848Y1991161D01*
X38956Y1991125D01*
X39063Y1991085D01*
X39168Y1991041D01*
X39271Y1990994D01*
X39373Y1990944D01*
X39473Y1990890D01*
X39571Y1990832D01*
X39667Y1990771D01*
X39761Y1990708D01*
X39853Y1990640D01*
X39943Y1990570D01*
X40029Y1990497D01*
X40114Y1990421D01*
X40196Y1990342D01*
X40275Y1990260D01*
X40351Y1990175D01*
X40424Y1990089D01*
X40494Y1989999D01*
X40562Y1989907D01*
X40625Y1989813D01*
X40686Y1989717D01*
X40744Y1989619D01*
X40798Y1989519D01*
X40848Y1989417D01*
X40895Y1989314D01*
X40939Y1989209D01*
X40979Y1989102D01*
X41015Y1988994D01*
X41048Y1988885D01*
X41076Y1988775D01*
X41101Y1988665D01*
X41123Y1988553D01*
X41140Y1988440D01*
X41154Y1988328D01*
X41163Y1988214D01*
X41169Y1988101D01*
X41171Y1987987D01*
X41171Y1986322D01*
X34510Y1986322D01*
D11*
X1856740Y1965960D02*
X1856740Y-68580D01*
D12*
X1816359Y1981327D02*
X1813029Y1991318D01*
X1819690Y1991318D02*
X1816359Y1981327D01*
X1826474Y1987155D02*
X1836465Y1987155D01*
X1845019Y1987155D02*
X1849182Y1985490D01*
X1845019Y1987154D02*
X1844934Y1987190D01*
X1844851Y1987230D01*
X1844770Y1987273D01*
X1844690Y1987320D01*
X1844613Y1987370D01*
X1844537Y1987423D01*
X1844464Y1987479D01*
X1844394Y1987539D01*
X1844326Y1987601D01*
X1844261Y1987666D01*
X1844199Y1987734D01*
X1844139Y1987805D01*
X1844083Y1987878D01*
X1844030Y1987953D01*
X1843980Y1988031D01*
X1843934Y1988110D01*
X1843891Y1988192D01*
X1843851Y1988275D01*
X1843815Y1988360D01*
X1843783Y1988446D01*
X1843754Y1988534D01*
X1843730Y1988623D01*
X1843709Y1988713D01*
X1843692Y1988803D01*
X1843678Y1988894D01*
X1843669Y1988986D01*
X1843664Y1989078D01*
X1843662Y1989170D01*
X1843664Y1989262D01*
X1843671Y1989354D01*
X1843681Y1989446D01*
X1843695Y1989537D01*
X1843713Y1989628D01*
X1843735Y1989717D01*
X1843761Y1989806D01*
X1843791Y1989893D01*
X1843824Y1989979D01*
X1843861Y1990063D01*
X1843901Y1990146D01*
X1843945Y1990227D01*
X1843992Y1990306D01*
X1844043Y1990383D01*
X1844097Y1990458D01*
X1844154Y1990531D01*
X1844214Y1990601D01*
X1844277Y1990668D01*
X1844343Y1990732D01*
X1844411Y1990794D01*
X1844482Y1990853D01*
X1844556Y1990908D01*
X1844632Y1990961D01*
X1844710Y1991010D01*
X1844790Y1991056D01*
X1844871Y1991098D01*
X1844955Y1991137D01*
X1845040Y1991172D01*
X1845127Y1991203D01*
X1845215Y1991231D01*
X1845304Y1991255D01*
X1845394Y1991275D01*
X1845484Y1991292D01*
X1845576Y1991304D01*
X1845668Y1991313D01*
X1845760Y1991317D01*
X1845852Y1991318D01*
X1846079Y1991312D01*
X1846306Y1991301D01*
X1846533Y1991284D01*
X1846759Y1991261D01*
X1846985Y1991234D01*
X1847210Y1991200D01*
X1847434Y1991162D01*
X1847657Y1991118D01*
X1847879Y1991069D01*
X1848100Y1991014D01*
X1848319Y1990954D01*
X1848537Y1990889D01*
X1848753Y1990818D01*
X1848967Y1990743D01*
X1849180Y1990662D01*
X1849390Y1990576D01*
X1849599Y1990485D01*
X1849182Y1985490D02*
X1849267Y1985454D01*
X1849350Y1985414D01*
X1849431Y1985371D01*
X1849511Y1985324D01*
X1849588Y1985274D01*
X1849664Y1985221D01*
X1849737Y1985165D01*
X1849807Y1985105D01*
X1849875Y1985043D01*
X1849940Y1984978D01*
X1850002Y1984910D01*
X1850062Y1984839D01*
X1850118Y1984766D01*
X1850171Y1984691D01*
X1850221Y1984613D01*
X1850267Y1984534D01*
X1850310Y1984452D01*
X1850350Y1984369D01*
X1850386Y1984284D01*
X1850418Y1984198D01*
X1850447Y1984110D01*
X1850471Y1984021D01*
X1850492Y1983931D01*
X1850509Y1983841D01*
X1850523Y1983750D01*
X1850532Y1983658D01*
X1850537Y1983566D01*
X1850539Y1983474D01*
X1850537Y1983382D01*
X1850530Y1983290D01*
X1850520Y1983198D01*
X1850506Y1983107D01*
X1850488Y1983016D01*
X1850466Y1982927D01*
X1850440Y1982838D01*
X1850410Y1982751D01*
X1850377Y1982665D01*
X1850340Y1982581D01*
X1850300Y1982498D01*
X1850256Y1982417D01*
X1850209Y1982338D01*
X1850158Y1982261D01*
X1850104Y1982186D01*
X1850047Y1982113D01*
X1849987Y1982043D01*
X1849924Y1981976D01*
X1849858Y1981912D01*
X1849790Y1981850D01*
X1849719Y1981791D01*
X1849645Y1981736D01*
X1849569Y1981683D01*
X1849491Y1981634D01*
X1849411Y1981588D01*
X1849330Y1981546D01*
X1849246Y1981507D01*
X1849161Y1981472D01*
X1849074Y1981441D01*
X1848986Y1981413D01*
X1848897Y1981389D01*
X1848807Y1981369D01*
X1848717Y1981352D01*
X1848625Y1981340D01*
X1848533Y1981331D01*
X1848441Y1981327D01*
X1848349Y1981326D01*
X1848349Y1981327D02*
X1848015Y1981336D01*
X1847682Y1981353D01*
X1847349Y1981377D01*
X1847016Y1981410D01*
X1846685Y1981450D01*
X1846354Y1981498D01*
X1846025Y1981554D01*
X1845697Y1981617D01*
X1845371Y1981689D01*
X1845047Y1981768D01*
X1844724Y1981854D01*
X1844404Y1981949D01*
X1844086Y1982051D01*
X1843770Y1982160D01*
X1859842Y1981327D02*
X1863172Y1981327D01*
X1859842Y1981327D02*
X1859744Y1981329D01*
X1859646Y1981335D01*
X1859548Y1981344D01*
X1859451Y1981358D01*
X1859355Y1981375D01*
X1859259Y1981396D01*
X1859164Y1981421D01*
X1859070Y1981449D01*
X1858977Y1981481D01*
X1858886Y1981517D01*
X1858796Y1981556D01*
X1858708Y1981599D01*
X1858621Y1981646D01*
X1858537Y1981695D01*
X1858454Y1981748D01*
X1858374Y1981804D01*
X1858296Y1981863D01*
X1858220Y1981926D01*
X1858146Y1981991D01*
X1858076Y1982059D01*
X1858008Y1982129D01*
X1857943Y1982203D01*
X1857880Y1982279D01*
X1857821Y1982357D01*
X1857765Y1982437D01*
X1857712Y1982520D01*
X1857663Y1982604D01*
X1857616Y1982691D01*
X1857573Y1982779D01*
X1857534Y1982869D01*
X1857498Y1982960D01*
X1857466Y1983053D01*
X1857438Y1983147D01*
X1857413Y1983242D01*
X1857392Y1983338D01*
X1857375Y1983434D01*
X1857361Y1983531D01*
X1857352Y1983629D01*
X1857346Y1983727D01*
X1857344Y1983825D01*
X1857344Y1988820D01*
X1857346Y1988918D01*
X1857352Y1989016D01*
X1857361Y1989114D01*
X1857375Y1989211D01*
X1857392Y1989307D01*
X1857413Y1989403D01*
X1857438Y1989498D01*
X1857466Y1989592D01*
X1857498Y1989685D01*
X1857534Y1989776D01*
X1857573Y1989866D01*
X1857616Y1989954D01*
X1857663Y1990041D01*
X1857712Y1990125D01*
X1857765Y1990208D01*
X1857821Y1990288D01*
X1857880Y1990367D01*
X1857943Y1990442D01*
X1858008Y1990516D01*
X1858076Y1990586D01*
X1858146Y1990654D01*
X1858220Y1990720D01*
X1858296Y1990782D01*
X1858374Y1990841D01*
X1858454Y1990897D01*
X1858537Y1990950D01*
X1858621Y1991000D01*
X1858708Y1991046D01*
X1858796Y1991089D01*
X1858886Y1991128D01*
X1858977Y1991164D01*
X1859070Y1991196D01*
X1859164Y1991224D01*
X1859259Y1991249D01*
X1859355Y1991270D01*
X1859451Y1991287D01*
X1859548Y1991301D01*
X1859646Y1991310D01*
X1859744Y1991316D01*
X1859842Y1991318D01*
X1863172Y1991318D01*
X1869302Y1987987D02*
X1869302Y1984657D01*
X1869302Y1987987D02*
X1869304Y1988101D01*
X1869310Y1988214D01*
X1869319Y1988328D01*
X1869333Y1988440D01*
X1869350Y1988553D01*
X1869372Y1988665D01*
X1869397Y1988775D01*
X1869425Y1988885D01*
X1869458Y1988994D01*
X1869494Y1989102D01*
X1869534Y1989209D01*
X1869578Y1989314D01*
X1869625Y1989417D01*
X1869675Y1989519D01*
X1869729Y1989619D01*
X1869787Y1989717D01*
X1869848Y1989813D01*
X1869911Y1989907D01*
X1869979Y1989999D01*
X1870049Y1990089D01*
X1870122Y1990175D01*
X1870198Y1990260D01*
X1870277Y1990342D01*
X1870359Y1990421D01*
X1870444Y1990497D01*
X1870530Y1990570D01*
X1870620Y1990640D01*
X1870712Y1990708D01*
X1870806Y1990771D01*
X1870902Y1990832D01*
X1871000Y1990890D01*
X1871100Y1990944D01*
X1871202Y1990994D01*
X1871305Y1991041D01*
X1871410Y1991085D01*
X1871517Y1991125D01*
X1871625Y1991161D01*
X1871734Y1991194D01*
X1871844Y1991222D01*
X1871954Y1991247D01*
X1872066Y1991269D01*
X1872179Y1991286D01*
X1872291Y1991300D01*
X1872405Y1991309D01*
X1872518Y1991315D01*
X1872632Y1991317D01*
X1872746Y1991315D01*
X1872859Y1991309D01*
X1872973Y1991300D01*
X1873085Y1991286D01*
X1873198Y1991269D01*
X1873310Y1991247D01*
X1873420Y1991222D01*
X1873530Y1991194D01*
X1873639Y1991161D01*
X1873747Y1991125D01*
X1873854Y1991085D01*
X1873959Y1991041D01*
X1874062Y1990994D01*
X1874164Y1990944D01*
X1874264Y1990890D01*
X1874362Y1990832D01*
X1874458Y1990771D01*
X1874552Y1990708D01*
X1874644Y1990640D01*
X1874734Y1990570D01*
X1874820Y1990497D01*
X1874905Y1990421D01*
X1874987Y1990342D01*
X1875066Y1990260D01*
X1875142Y1990175D01*
X1875215Y1990089D01*
X1875285Y1989999D01*
X1875353Y1989907D01*
X1875416Y1989813D01*
X1875477Y1989717D01*
X1875535Y1989619D01*
X1875589Y1989519D01*
X1875639Y1989417D01*
X1875686Y1989314D01*
X1875730Y1989209D01*
X1875770Y1989102D01*
X1875806Y1988994D01*
X1875839Y1988885D01*
X1875867Y1988775D01*
X1875892Y1988665D01*
X1875914Y1988553D01*
X1875931Y1988440D01*
X1875945Y1988328D01*
X1875954Y1988214D01*
X1875960Y1988101D01*
X1875962Y1987987D01*
X1875962Y1984657D01*
X1875960Y1984543D01*
X1875954Y1984430D01*
X1875945Y1984316D01*
X1875931Y1984204D01*
X1875914Y1984091D01*
X1875892Y1983979D01*
X1875867Y1983869D01*
X1875839Y1983759D01*
X1875806Y1983650D01*
X1875770Y1983542D01*
X1875730Y1983435D01*
X1875686Y1983330D01*
X1875639Y1983227D01*
X1875589Y1983125D01*
X1875535Y1983025D01*
X1875477Y1982927D01*
X1875416Y1982831D01*
X1875353Y1982737D01*
X1875285Y1982645D01*
X1875215Y1982555D01*
X1875142Y1982469D01*
X1875066Y1982384D01*
X1874987Y1982302D01*
X1874905Y1982223D01*
X1874820Y1982147D01*
X1874734Y1982074D01*
X1874644Y1982004D01*
X1874552Y1981936D01*
X1874458Y1981873D01*
X1874362Y1981812D01*
X1874264Y1981754D01*
X1874164Y1981700D01*
X1874062Y1981650D01*
X1873959Y1981603D01*
X1873854Y1981559D01*
X1873747Y1981519D01*
X1873639Y1981483D01*
X1873530Y1981450D01*
X1873420Y1981422D01*
X1873310Y1981397D01*
X1873198Y1981375D01*
X1873085Y1981358D01*
X1872973Y1981344D01*
X1872859Y1981335D01*
X1872746Y1981329D01*
X1872632Y1981327D01*
X1872518Y1981329D01*
X1872405Y1981335D01*
X1872291Y1981344D01*
X1872179Y1981358D01*
X1872066Y1981375D01*
X1871954Y1981397D01*
X1871844Y1981422D01*
X1871734Y1981450D01*
X1871625Y1981483D01*
X1871517Y1981519D01*
X1871410Y1981559D01*
X1871305Y1981603D01*
X1871202Y1981650D01*
X1871100Y1981700D01*
X1871000Y1981754D01*
X1870902Y1981812D01*
X1870806Y1981873D01*
X1870712Y1981936D01*
X1870620Y1982004D01*
X1870530Y1982074D01*
X1870444Y1982147D01*
X1870359Y1982223D01*
X1870277Y1982302D01*
X1870198Y1982384D01*
X1870122Y1982469D01*
X1870049Y1982555D01*
X1869979Y1982645D01*
X1869911Y1982737D01*
X1869848Y1982831D01*
X1869787Y1982927D01*
X1869729Y1983025D01*
X1869675Y1983125D01*
X1869625Y1983227D01*
X1869578Y1983330D01*
X1869534Y1983435D01*
X1869494Y1983542D01*
X1869458Y1983650D01*
X1869425Y1983759D01*
X1869397Y1983869D01*
X1869372Y1983979D01*
X1869350Y1984091D01*
X1869333Y1984204D01*
X1869319Y1984316D01*
X1869310Y1984430D01*
X1869304Y1984543D01*
X1869302Y1984657D01*
X1883498Y1981327D02*
X1883498Y1991318D01*
X1888493Y1991318D01*
X1888493Y1989653D01*
X1896288Y1981327D02*
X1900451Y1981327D01*
X1896288Y1981327D02*
X1896190Y1981329D01*
X1896092Y1981335D01*
X1895994Y1981344D01*
X1895897Y1981358D01*
X1895801Y1981375D01*
X1895705Y1981396D01*
X1895610Y1981421D01*
X1895516Y1981449D01*
X1895423Y1981481D01*
X1895332Y1981517D01*
X1895242Y1981556D01*
X1895154Y1981599D01*
X1895067Y1981646D01*
X1894983Y1981695D01*
X1894900Y1981748D01*
X1894820Y1981804D01*
X1894742Y1981863D01*
X1894666Y1981926D01*
X1894592Y1981991D01*
X1894522Y1982059D01*
X1894454Y1982129D01*
X1894389Y1982203D01*
X1894326Y1982279D01*
X1894267Y1982357D01*
X1894211Y1982437D01*
X1894158Y1982520D01*
X1894109Y1982604D01*
X1894062Y1982691D01*
X1894019Y1982779D01*
X1893980Y1982869D01*
X1893944Y1982960D01*
X1893912Y1983053D01*
X1893884Y1983147D01*
X1893859Y1983242D01*
X1893838Y1983338D01*
X1893821Y1983434D01*
X1893807Y1983531D01*
X1893798Y1983629D01*
X1893792Y1983727D01*
X1893790Y1983825D01*
X1893790Y1987987D01*
X1893791Y1987987D02*
X1893793Y1988101D01*
X1893799Y1988214D01*
X1893808Y1988328D01*
X1893822Y1988440D01*
X1893839Y1988553D01*
X1893861Y1988665D01*
X1893886Y1988775D01*
X1893914Y1988885D01*
X1893947Y1988994D01*
X1893983Y1989102D01*
X1894023Y1989209D01*
X1894067Y1989314D01*
X1894114Y1989417D01*
X1894164Y1989519D01*
X1894218Y1989619D01*
X1894276Y1989717D01*
X1894337Y1989813D01*
X1894400Y1989907D01*
X1894468Y1989999D01*
X1894538Y1990089D01*
X1894611Y1990175D01*
X1894687Y1990260D01*
X1894766Y1990342D01*
X1894848Y1990421D01*
X1894933Y1990497D01*
X1895019Y1990570D01*
X1895109Y1990640D01*
X1895201Y1990708D01*
X1895295Y1990771D01*
X1895391Y1990832D01*
X1895489Y1990890D01*
X1895589Y1990944D01*
X1895691Y1990994D01*
X1895794Y1991041D01*
X1895899Y1991085D01*
X1896006Y1991125D01*
X1896114Y1991161D01*
X1896223Y1991194D01*
X1896333Y1991222D01*
X1896443Y1991247D01*
X1896555Y1991269D01*
X1896668Y1991286D01*
X1896780Y1991300D01*
X1896894Y1991309D01*
X1897007Y1991315D01*
X1897121Y1991317D01*
X1897235Y1991315D01*
X1897348Y1991309D01*
X1897462Y1991300D01*
X1897574Y1991286D01*
X1897687Y1991269D01*
X1897799Y1991247D01*
X1897909Y1991222D01*
X1898019Y1991194D01*
X1898128Y1991161D01*
X1898236Y1991125D01*
X1898343Y1991085D01*
X1898448Y1991041D01*
X1898551Y1990994D01*
X1898653Y1990944D01*
X1898753Y1990890D01*
X1898851Y1990832D01*
X1898947Y1990771D01*
X1899041Y1990708D01*
X1899133Y1990640D01*
X1899223Y1990570D01*
X1899309Y1990497D01*
X1899394Y1990421D01*
X1899476Y1990342D01*
X1899555Y1990260D01*
X1899631Y1990175D01*
X1899704Y1990089D01*
X1899774Y1989999D01*
X1899842Y1989907D01*
X1899905Y1989813D01*
X1899966Y1989717D01*
X1900024Y1989619D01*
X1900078Y1989519D01*
X1900128Y1989417D01*
X1900175Y1989314D01*
X1900219Y1989209D01*
X1900259Y1989102D01*
X1900295Y1988994D01*
X1900328Y1988885D01*
X1900356Y1988775D01*
X1900381Y1988665D01*
X1900403Y1988553D01*
X1900420Y1988440D01*
X1900434Y1988328D01*
X1900443Y1988214D01*
X1900449Y1988101D01*
X1900451Y1987987D01*
X1900451Y1986322D01*
X1893790Y1986322D01*
D11*
X1986280Y-2540D02*
X-68580Y-2540D01*
D12*
X2018769Y-42D02*
X2022099Y-10033D01*
X2025430Y-42D01*
X2032214Y-4205D02*
X2042205Y-4205D01*
X2050759Y-4205D02*
X2054922Y-5870D01*
X2050759Y-4206D02*
X2050674Y-4170D01*
X2050591Y-4130D01*
X2050510Y-4087D01*
X2050430Y-4040D01*
X2050353Y-3990D01*
X2050277Y-3937D01*
X2050204Y-3881D01*
X2050134Y-3821D01*
X2050066Y-3759D01*
X2050001Y-3694D01*
X2049939Y-3626D01*
X2049879Y-3555D01*
X2049823Y-3482D01*
X2049770Y-3407D01*
X2049720Y-3329D01*
X2049674Y-3250D01*
X2049631Y-3168D01*
X2049591Y-3085D01*
X2049555Y-3000D01*
X2049523Y-2914D01*
X2049494Y-2826D01*
X2049470Y-2737D01*
X2049449Y-2647D01*
X2049432Y-2557D01*
X2049418Y-2466D01*
X2049409Y-2374D01*
X2049404Y-2282D01*
X2049402Y-2190D01*
X2049404Y-2098D01*
X2049411Y-2006D01*
X2049421Y-1914D01*
X2049435Y-1823D01*
X2049453Y-1732D01*
X2049475Y-1643D01*
X2049501Y-1554D01*
X2049531Y-1467D01*
X2049564Y-1381D01*
X2049601Y-1297D01*
X2049641Y-1214D01*
X2049685Y-1133D01*
X2049732Y-1054D01*
X2049783Y-977D01*
X2049837Y-902D01*
X2049894Y-829D01*
X2049954Y-759D01*
X2050017Y-692D01*
X2050083Y-628D01*
X2050151Y-566D01*
X2050222Y-507D01*
X2050296Y-452D01*
X2050372Y-399D01*
X2050450Y-350D01*
X2050530Y-304D01*
X2050611Y-262D01*
X2050695Y-223D01*
X2050780Y-188D01*
X2050867Y-157D01*
X2050955Y-129D01*
X2051044Y-105D01*
X2051134Y-85D01*
X2051224Y-68D01*
X2051316Y-56D01*
X2051408Y-47D01*
X2051500Y-43D01*
X2051592Y-42D01*
X2051819Y-48D01*
X2052046Y-59D01*
X2052273Y-76D01*
X2052499Y-99D01*
X2052725Y-126D01*
X2052950Y-160D01*
X2053174Y-198D01*
X2053397Y-242D01*
X2053619Y-291D01*
X2053840Y-346D01*
X2054059Y-406D01*
X2054277Y-471D01*
X2054493Y-542D01*
X2054707Y-617D01*
X2054920Y-698D01*
X2055130Y-784D01*
X2055339Y-875D01*
X2054922Y-5870D02*
X2055007Y-5906D01*
X2055090Y-5946D01*
X2055171Y-5989D01*
X2055251Y-6036D01*
X2055328Y-6086D01*
X2055404Y-6139D01*
X2055477Y-6195D01*
X2055547Y-6255D01*
X2055615Y-6317D01*
X2055680Y-6382D01*
X2055742Y-6450D01*
X2055802Y-6521D01*
X2055858Y-6594D01*
X2055911Y-6669D01*
X2055961Y-6747D01*
X2056007Y-6826D01*
X2056050Y-6908D01*
X2056090Y-6991D01*
X2056126Y-7076D01*
X2056158Y-7162D01*
X2056187Y-7250D01*
X2056211Y-7339D01*
X2056232Y-7429D01*
X2056249Y-7519D01*
X2056263Y-7610D01*
X2056272Y-7702D01*
X2056277Y-7794D01*
X2056279Y-7886D01*
X2056277Y-7978D01*
X2056270Y-8070D01*
X2056260Y-8162D01*
X2056246Y-8253D01*
X2056228Y-8344D01*
X2056206Y-8433D01*
X2056180Y-8522D01*
X2056150Y-8609D01*
X2056117Y-8695D01*
X2056080Y-8779D01*
X2056040Y-8862D01*
X2055996Y-8943D01*
X2055949Y-9022D01*
X2055898Y-9099D01*
X2055844Y-9174D01*
X2055787Y-9247D01*
X2055727Y-9317D01*
X2055664Y-9384D01*
X2055598Y-9448D01*
X2055530Y-9510D01*
X2055459Y-9569D01*
X2055385Y-9624D01*
X2055309Y-9677D01*
X2055231Y-9726D01*
X2055151Y-9772D01*
X2055070Y-9814D01*
X2054986Y-9853D01*
X2054901Y-9888D01*
X2054814Y-9919D01*
X2054726Y-9947D01*
X2054637Y-9971D01*
X2054547Y-9991D01*
X2054457Y-10008D01*
X2054365Y-10020D01*
X2054273Y-10029D01*
X2054181Y-10033D01*
X2054089Y-10034D01*
X2054089Y-10033D02*
X2053755Y-10024D01*
X2053422Y-10007D01*
X2053089Y-9983D01*
X2052756Y-9950D01*
X2052425Y-9910D01*
X2052094Y-9862D01*
X2051765Y-9806D01*
X2051437Y-9743D01*
X2051111Y-9671D01*
X2050787Y-9592D01*
X2050464Y-9506D01*
X2050144Y-9411D01*
X2049826Y-9309D01*
X2049510Y-9200D01*
X2065582Y-10033D02*
X2068912Y-10033D01*
X2065582Y-10033D02*
X2065484Y-10031D01*
X2065386Y-10025D01*
X2065288Y-10016D01*
X2065191Y-10002D01*
X2065095Y-9985D01*
X2064999Y-9964D01*
X2064904Y-9939D01*
X2064810Y-9911D01*
X2064717Y-9879D01*
X2064626Y-9843D01*
X2064536Y-9804D01*
X2064448Y-9761D01*
X2064361Y-9714D01*
X2064277Y-9665D01*
X2064194Y-9612D01*
X2064114Y-9556D01*
X2064036Y-9497D01*
X2063960Y-9435D01*
X2063886Y-9369D01*
X2063816Y-9301D01*
X2063748Y-9231D01*
X2063683Y-9157D01*
X2063620Y-9082D01*
X2063561Y-9003D01*
X2063505Y-8923D01*
X2063452Y-8840D01*
X2063403Y-8756D01*
X2063356Y-8669D01*
X2063313Y-8581D01*
X2063274Y-8491D01*
X2063238Y-8400D01*
X2063206Y-8307D01*
X2063178Y-8213D01*
X2063153Y-8118D01*
X2063132Y-8022D01*
X2063115Y-7926D01*
X2063101Y-7829D01*
X2063092Y-7731D01*
X2063086Y-7633D01*
X2063084Y-7535D01*
X2063084Y-2540D01*
X2063086Y-2442D01*
X2063092Y-2344D01*
X2063101Y-2246D01*
X2063115Y-2149D01*
X2063132Y-2053D01*
X2063153Y-1957D01*
X2063178Y-1862D01*
X2063206Y-1768D01*
X2063238Y-1675D01*
X2063274Y-1584D01*
X2063313Y-1494D01*
X2063356Y-1406D01*
X2063403Y-1319D01*
X2063452Y-1235D01*
X2063505Y-1152D01*
X2063561Y-1072D01*
X2063620Y-994D01*
X2063683Y-918D01*
X2063748Y-844D01*
X2063816Y-774D01*
X2063886Y-706D01*
X2063960Y-641D01*
X2064036Y-578D01*
X2064114Y-519D01*
X2064194Y-463D01*
X2064277Y-410D01*
X2064361Y-361D01*
X2064448Y-314D01*
X2064536Y-271D01*
X2064626Y-232D01*
X2064717Y-196D01*
X2064810Y-164D01*
X2064904Y-136D01*
X2064999Y-111D01*
X2065095Y-90D01*
X2065191Y-73D01*
X2065288Y-59D01*
X2065386Y-50D01*
X2065484Y-44D01*
X2065582Y-42D01*
X2068912Y-42D01*
X2075042Y-3373D02*
X2075042Y-6703D01*
X2075042Y-3373D02*
X2075044Y-3259D01*
X2075050Y-3146D01*
X2075059Y-3032D01*
X2075073Y-2920D01*
X2075090Y-2807D01*
X2075112Y-2695D01*
X2075137Y-2585D01*
X2075165Y-2475D01*
X2075198Y-2366D01*
X2075234Y-2258D01*
X2075274Y-2151D01*
X2075318Y-2046D01*
X2075365Y-1943D01*
X2075415Y-1841D01*
X2075469Y-1741D01*
X2075527Y-1643D01*
X2075588Y-1547D01*
X2075651Y-1453D01*
X2075719Y-1361D01*
X2075789Y-1271D01*
X2075862Y-1185D01*
X2075938Y-1100D01*
X2076017Y-1018D01*
X2076099Y-939D01*
X2076184Y-863D01*
X2076270Y-790D01*
X2076360Y-720D01*
X2076452Y-652D01*
X2076546Y-589D01*
X2076642Y-528D01*
X2076740Y-470D01*
X2076840Y-416D01*
X2076942Y-366D01*
X2077045Y-319D01*
X2077150Y-275D01*
X2077257Y-235D01*
X2077365Y-199D01*
X2077474Y-166D01*
X2077584Y-138D01*
X2077694Y-113D01*
X2077806Y-91D01*
X2077919Y-74D01*
X2078031Y-60D01*
X2078145Y-51D01*
X2078258Y-45D01*
X2078372Y-43D01*
X2078486Y-45D01*
X2078599Y-51D01*
X2078713Y-60D01*
X2078825Y-74D01*
X2078938Y-91D01*
X2079050Y-113D01*
X2079160Y-138D01*
X2079270Y-166D01*
X2079379Y-199D01*
X2079487Y-235D01*
X2079594Y-275D01*
X2079699Y-319D01*
X2079802Y-366D01*
X2079904Y-416D01*
X2080004Y-470D01*
X2080102Y-528D01*
X2080198Y-589D01*
X2080292Y-652D01*
X2080384Y-720D01*
X2080474Y-790D01*
X2080560Y-863D01*
X2080645Y-939D01*
X2080727Y-1018D01*
X2080806Y-1100D01*
X2080882Y-1185D01*
X2080955Y-1271D01*
X2081025Y-1361D01*
X2081093Y-1453D01*
X2081156Y-1547D01*
X2081217Y-1643D01*
X2081275Y-1741D01*
X2081329Y-1841D01*
X2081379Y-1943D01*
X2081426Y-2046D01*
X2081470Y-2151D01*
X2081510Y-2258D01*
X2081546Y-2366D01*
X2081579Y-2475D01*
X2081607Y-2585D01*
X2081632Y-2695D01*
X2081654Y-2807D01*
X2081671Y-2920D01*
X2081685Y-3032D01*
X2081694Y-3146D01*
X2081700Y-3259D01*
X2081702Y-3373D01*
X2081702Y-6703D01*
X2081700Y-6817D01*
X2081694Y-6930D01*
X2081685Y-7044D01*
X2081671Y-7156D01*
X2081654Y-7269D01*
X2081632Y-7381D01*
X2081607Y-7491D01*
X2081579Y-7601D01*
X2081546Y-7710D01*
X2081510Y-7818D01*
X2081470Y-7925D01*
X2081426Y-8030D01*
X2081379Y-8133D01*
X2081329Y-8235D01*
X2081275Y-8335D01*
X2081217Y-8433D01*
X2081156Y-8529D01*
X2081093Y-8623D01*
X2081025Y-8715D01*
X2080955Y-8805D01*
X2080882Y-8891D01*
X2080806Y-8976D01*
X2080727Y-9058D01*
X2080645Y-9137D01*
X2080560Y-9213D01*
X2080474Y-9286D01*
X2080384Y-9356D01*
X2080292Y-9424D01*
X2080198Y-9487D01*
X2080102Y-9548D01*
X2080004Y-9606D01*
X2079904Y-9660D01*
X2079802Y-9710D01*
X2079699Y-9757D01*
X2079594Y-9801D01*
X2079487Y-9841D01*
X2079379Y-9877D01*
X2079270Y-9910D01*
X2079160Y-9938D01*
X2079050Y-9963D01*
X2078938Y-9985D01*
X2078825Y-10002D01*
X2078713Y-10016D01*
X2078599Y-10025D01*
X2078486Y-10031D01*
X2078372Y-10033D01*
X2078258Y-10031D01*
X2078145Y-10025D01*
X2078031Y-10016D01*
X2077919Y-10002D01*
X2077806Y-9985D01*
X2077694Y-9963D01*
X2077584Y-9938D01*
X2077474Y-9910D01*
X2077365Y-9877D01*
X2077257Y-9841D01*
X2077150Y-9801D01*
X2077045Y-9757D01*
X2076942Y-9710D01*
X2076840Y-9660D01*
X2076740Y-9606D01*
X2076642Y-9548D01*
X2076546Y-9487D01*
X2076452Y-9424D01*
X2076360Y-9356D01*
X2076270Y-9286D01*
X2076184Y-9213D01*
X2076099Y-9137D01*
X2076017Y-9058D01*
X2075938Y-8976D01*
X2075862Y-8891D01*
X2075789Y-8805D01*
X2075719Y-8715D01*
X2075651Y-8623D01*
X2075588Y-8529D01*
X2075527Y-8433D01*
X2075469Y-8335D01*
X2075415Y-8235D01*
X2075365Y-8133D01*
X2075318Y-8030D01*
X2075274Y-7925D01*
X2075234Y-7818D01*
X2075198Y-7710D01*
X2075165Y-7601D01*
X2075137Y-7491D01*
X2075112Y-7381D01*
X2075090Y-7269D01*
X2075073Y-7156D01*
X2075059Y-7044D01*
X2075050Y-6930D01*
X2075044Y-6817D01*
X2075042Y-6703D01*
X2089238Y-10033D02*
X2089238Y-42D01*
X2094233Y-42D01*
X2094233Y-1707D01*
X2102028Y-10033D02*
X2106191Y-10033D01*
X2102028Y-10033D02*
X2101930Y-10031D01*
X2101832Y-10025D01*
X2101734Y-10016D01*
X2101637Y-10002D01*
X2101541Y-9985D01*
X2101445Y-9964D01*
X2101350Y-9939D01*
X2101256Y-9911D01*
X2101163Y-9879D01*
X2101072Y-9843D01*
X2100982Y-9804D01*
X2100894Y-9761D01*
X2100807Y-9714D01*
X2100723Y-9665D01*
X2100640Y-9612D01*
X2100560Y-9556D01*
X2100482Y-9497D01*
X2100406Y-9435D01*
X2100332Y-9369D01*
X2100262Y-9301D01*
X2100194Y-9231D01*
X2100129Y-9157D01*
X2100066Y-9082D01*
X2100007Y-9003D01*
X2099951Y-8923D01*
X2099898Y-8840D01*
X2099849Y-8756D01*
X2099802Y-8669D01*
X2099759Y-8581D01*
X2099720Y-8491D01*
X2099684Y-8400D01*
X2099652Y-8307D01*
X2099624Y-8213D01*
X2099599Y-8118D01*
X2099578Y-8022D01*
X2099561Y-7926D01*
X2099547Y-7829D01*
X2099538Y-7731D01*
X2099532Y-7633D01*
X2099530Y-7535D01*
X2099530Y-3373D01*
X2099531Y-3373D02*
X2099533Y-3259D01*
X2099539Y-3146D01*
X2099548Y-3032D01*
X2099562Y-2920D01*
X2099579Y-2807D01*
X2099601Y-2695D01*
X2099626Y-2585D01*
X2099654Y-2475D01*
X2099687Y-2366D01*
X2099723Y-2258D01*
X2099763Y-2151D01*
X2099807Y-2046D01*
X2099854Y-1943D01*
X2099904Y-1841D01*
X2099958Y-1741D01*
X2100016Y-1643D01*
X2100077Y-1547D01*
X2100140Y-1453D01*
X2100208Y-1361D01*
X2100278Y-1271D01*
X2100351Y-1185D01*
X2100427Y-1100D01*
X2100506Y-1018D01*
X2100588Y-939D01*
X2100673Y-863D01*
X2100759Y-790D01*
X2100849Y-720D01*
X2100941Y-652D01*
X2101035Y-589D01*
X2101131Y-528D01*
X2101229Y-470D01*
X2101329Y-416D01*
X2101431Y-366D01*
X2101534Y-319D01*
X2101639Y-275D01*
X2101746Y-235D01*
X2101854Y-199D01*
X2101963Y-166D01*
X2102073Y-138D01*
X2102183Y-113D01*
X2102295Y-91D01*
X2102408Y-74D01*
X2102520Y-60D01*
X2102634Y-51D01*
X2102747Y-45D01*
X2102861Y-43D01*
X2102975Y-45D01*
X2103088Y-51D01*
X2103202Y-60D01*
X2103314Y-74D01*
X2103427Y-91D01*
X2103539Y-113D01*
X2103649Y-138D01*
X2103759Y-166D01*
X2103868Y-199D01*
X2103976Y-235D01*
X2104083Y-275D01*
X2104188Y-319D01*
X2104291Y-366D01*
X2104393Y-416D01*
X2104493Y-470D01*
X2104591Y-528D01*
X2104687Y-589D01*
X2104781Y-652D01*
X2104873Y-720D01*
X2104963Y-790D01*
X2105049Y-863D01*
X2105134Y-939D01*
X2105216Y-1018D01*
X2105295Y-1100D01*
X2105371Y-1185D01*
X2105444Y-1271D01*
X2105514Y-1361D01*
X2105582Y-1453D01*
X2105645Y-1547D01*
X2105706Y-1643D01*
X2105764Y-1741D01*
X2105818Y-1841D01*
X2105868Y-1943D01*
X2105915Y-2046D01*
X2105959Y-2151D01*
X2105999Y-2258D01*
X2106035Y-2366D01*
X2106068Y-2475D01*
X2106096Y-2585D01*
X2106121Y-2695D01*
X2106143Y-2807D01*
X2106160Y-2920D01*
X2106174Y-3032D01*
X2106183Y-3146D01*
X2106189Y-3259D01*
X2106191Y-3373D01*
X2106191Y-5038D01*
X2099530Y-5038D01*
D11*
X1986280Y916940D02*
X-68580Y916940D01*
D12*
X2018769Y919438D02*
X2022099Y909447D01*
X2025430Y919438D01*
X2032214Y915275D02*
X2042205Y915275D01*
X2050759Y915275D02*
X2054922Y913610D01*
X2050759Y915274D02*
X2050674Y915310D01*
X2050591Y915350D01*
X2050510Y915393D01*
X2050430Y915440D01*
X2050353Y915490D01*
X2050277Y915543D01*
X2050204Y915599D01*
X2050134Y915659D01*
X2050066Y915721D01*
X2050001Y915786D01*
X2049939Y915854D01*
X2049879Y915925D01*
X2049823Y915998D01*
X2049770Y916073D01*
X2049720Y916151D01*
X2049674Y916230D01*
X2049631Y916312D01*
X2049591Y916395D01*
X2049555Y916480D01*
X2049523Y916566D01*
X2049494Y916654D01*
X2049470Y916743D01*
X2049449Y916833D01*
X2049432Y916923D01*
X2049418Y917014D01*
X2049409Y917106D01*
X2049404Y917198D01*
X2049402Y917290D01*
X2049404Y917382D01*
X2049411Y917474D01*
X2049421Y917566D01*
X2049435Y917657D01*
X2049453Y917748D01*
X2049475Y917837D01*
X2049501Y917926D01*
X2049531Y918013D01*
X2049564Y918099D01*
X2049601Y918183D01*
X2049641Y918266D01*
X2049685Y918347D01*
X2049732Y918426D01*
X2049783Y918503D01*
X2049837Y918578D01*
X2049894Y918651D01*
X2049954Y918721D01*
X2050017Y918788D01*
X2050083Y918852D01*
X2050151Y918914D01*
X2050222Y918973D01*
X2050296Y919028D01*
X2050372Y919081D01*
X2050450Y919130D01*
X2050530Y919176D01*
X2050611Y919218D01*
X2050695Y919257D01*
X2050780Y919292D01*
X2050867Y919323D01*
X2050955Y919351D01*
X2051044Y919375D01*
X2051134Y919395D01*
X2051224Y919412D01*
X2051316Y919424D01*
X2051408Y919433D01*
X2051500Y919437D01*
X2051592Y919438D01*
X2051819Y919432D01*
X2052046Y919421D01*
X2052273Y919404D01*
X2052499Y919381D01*
X2052725Y919354D01*
X2052950Y919320D01*
X2053174Y919282D01*
X2053397Y919238D01*
X2053619Y919189D01*
X2053840Y919134D01*
X2054059Y919074D01*
X2054277Y919009D01*
X2054493Y918938D01*
X2054707Y918863D01*
X2054920Y918782D01*
X2055130Y918696D01*
X2055339Y918605D01*
X2054922Y913610D02*
X2055007Y913574D01*
X2055090Y913534D01*
X2055171Y913491D01*
X2055251Y913444D01*
X2055328Y913394D01*
X2055404Y913341D01*
X2055477Y913285D01*
X2055547Y913225D01*
X2055615Y913163D01*
X2055680Y913098D01*
X2055742Y913030D01*
X2055802Y912959D01*
X2055858Y912886D01*
X2055911Y912811D01*
X2055961Y912733D01*
X2056007Y912654D01*
X2056050Y912572D01*
X2056090Y912489D01*
X2056126Y912404D01*
X2056158Y912318D01*
X2056187Y912230D01*
X2056211Y912141D01*
X2056232Y912051D01*
X2056249Y911961D01*
X2056263Y911870D01*
X2056272Y911778D01*
X2056277Y911686D01*
X2056279Y911594D01*
X2056277Y911502D01*
X2056270Y911410D01*
X2056260Y911318D01*
X2056246Y911227D01*
X2056228Y911136D01*
X2056206Y911047D01*
X2056180Y910958D01*
X2056150Y910871D01*
X2056117Y910785D01*
X2056080Y910701D01*
X2056040Y910618D01*
X2055996Y910537D01*
X2055949Y910458D01*
X2055898Y910381D01*
X2055844Y910306D01*
X2055787Y910233D01*
X2055727Y910163D01*
X2055664Y910096D01*
X2055598Y910032D01*
X2055530Y909970D01*
X2055459Y909911D01*
X2055385Y909856D01*
X2055309Y909803D01*
X2055231Y909754D01*
X2055151Y909708D01*
X2055070Y909666D01*
X2054986Y909627D01*
X2054901Y909592D01*
X2054814Y909561D01*
X2054726Y909533D01*
X2054637Y909509D01*
X2054547Y909489D01*
X2054457Y909472D01*
X2054365Y909460D01*
X2054273Y909451D01*
X2054181Y909447D01*
X2054089Y909446D01*
X2054089Y909447D02*
X2053755Y909456D01*
X2053422Y909473D01*
X2053089Y909497D01*
X2052756Y909530D01*
X2052425Y909570D01*
X2052094Y909618D01*
X2051765Y909674D01*
X2051437Y909737D01*
X2051111Y909809D01*
X2050787Y909888D01*
X2050464Y909974D01*
X2050144Y910069D01*
X2049826Y910171D01*
X2049510Y910280D01*
X2065582Y909447D02*
X2068912Y909447D01*
X2065582Y909447D02*
X2065484Y909449D01*
X2065386Y909455D01*
X2065288Y909464D01*
X2065191Y909478D01*
X2065095Y909495D01*
X2064999Y909516D01*
X2064904Y909541D01*
X2064810Y909569D01*
X2064717Y909601D01*
X2064626Y909637D01*
X2064536Y909676D01*
X2064448Y909719D01*
X2064361Y909766D01*
X2064277Y909815D01*
X2064194Y909868D01*
X2064114Y909924D01*
X2064036Y909983D01*
X2063960Y910046D01*
X2063886Y910111D01*
X2063816Y910179D01*
X2063748Y910249D01*
X2063683Y910323D01*
X2063620Y910399D01*
X2063561Y910477D01*
X2063505Y910557D01*
X2063452Y910640D01*
X2063403Y910724D01*
X2063356Y910811D01*
X2063313Y910899D01*
X2063274Y910989D01*
X2063238Y911080D01*
X2063206Y911173D01*
X2063178Y911267D01*
X2063153Y911362D01*
X2063132Y911458D01*
X2063115Y911554D01*
X2063101Y911651D01*
X2063092Y911749D01*
X2063086Y911847D01*
X2063084Y911945D01*
X2063084Y916940D01*
X2063086Y917038D01*
X2063092Y917136D01*
X2063101Y917234D01*
X2063115Y917331D01*
X2063132Y917427D01*
X2063153Y917523D01*
X2063178Y917618D01*
X2063206Y917712D01*
X2063238Y917805D01*
X2063274Y917896D01*
X2063313Y917986D01*
X2063356Y918074D01*
X2063403Y918161D01*
X2063452Y918245D01*
X2063505Y918328D01*
X2063561Y918408D01*
X2063620Y918487D01*
X2063683Y918562D01*
X2063748Y918636D01*
X2063816Y918706D01*
X2063886Y918774D01*
X2063960Y918840D01*
X2064036Y918902D01*
X2064114Y918961D01*
X2064194Y919017D01*
X2064277Y919070D01*
X2064361Y919120D01*
X2064448Y919166D01*
X2064536Y919209D01*
X2064626Y919248D01*
X2064717Y919284D01*
X2064810Y919316D01*
X2064904Y919344D01*
X2064999Y919369D01*
X2065095Y919390D01*
X2065191Y919407D01*
X2065288Y919421D01*
X2065386Y919430D01*
X2065484Y919436D01*
X2065582Y919438D01*
X2068912Y919438D01*
X2075042Y916107D02*
X2075042Y912777D01*
X2075042Y916107D02*
X2075044Y916221D01*
X2075050Y916334D01*
X2075059Y916448D01*
X2075073Y916560D01*
X2075090Y916673D01*
X2075112Y916785D01*
X2075137Y916895D01*
X2075165Y917005D01*
X2075198Y917114D01*
X2075234Y917222D01*
X2075274Y917329D01*
X2075318Y917434D01*
X2075365Y917537D01*
X2075415Y917639D01*
X2075469Y917739D01*
X2075527Y917837D01*
X2075588Y917933D01*
X2075651Y918027D01*
X2075719Y918119D01*
X2075789Y918209D01*
X2075862Y918295D01*
X2075938Y918380D01*
X2076017Y918462D01*
X2076099Y918541D01*
X2076184Y918617D01*
X2076270Y918690D01*
X2076360Y918760D01*
X2076452Y918828D01*
X2076546Y918891D01*
X2076642Y918952D01*
X2076740Y919010D01*
X2076840Y919064D01*
X2076942Y919114D01*
X2077045Y919161D01*
X2077150Y919205D01*
X2077257Y919245D01*
X2077365Y919281D01*
X2077474Y919314D01*
X2077584Y919342D01*
X2077694Y919367D01*
X2077806Y919389D01*
X2077919Y919406D01*
X2078031Y919420D01*
X2078145Y919429D01*
X2078258Y919435D01*
X2078372Y919437D01*
X2078486Y919435D01*
X2078599Y919429D01*
X2078713Y919420D01*
X2078825Y919406D01*
X2078938Y919389D01*
X2079050Y919367D01*
X2079160Y919342D01*
X2079270Y919314D01*
X2079379Y919281D01*
X2079487Y919245D01*
X2079594Y919205D01*
X2079699Y919161D01*
X2079802Y919114D01*
X2079904Y919064D01*
X2080004Y919010D01*
X2080102Y918952D01*
X2080198Y918891D01*
X2080292Y918828D01*
X2080384Y918760D01*
X2080474Y918690D01*
X2080560Y918617D01*
X2080645Y918541D01*
X2080727Y918462D01*
X2080806Y918380D01*
X2080882Y918295D01*
X2080955Y918209D01*
X2081025Y918119D01*
X2081093Y918027D01*
X2081156Y917933D01*
X2081217Y917837D01*
X2081275Y917739D01*
X2081329Y917639D01*
X2081379Y917537D01*
X2081426Y917434D01*
X2081470Y917329D01*
X2081510Y917222D01*
X2081546Y917114D01*
X2081579Y917005D01*
X2081607Y916895D01*
X2081632Y916785D01*
X2081654Y916673D01*
X2081671Y916560D01*
X2081685Y916448D01*
X2081694Y916334D01*
X2081700Y916221D01*
X2081702Y916107D01*
X2081702Y912777D01*
X2081700Y912663D01*
X2081694Y912550D01*
X2081685Y912436D01*
X2081671Y912324D01*
X2081654Y912211D01*
X2081632Y912099D01*
X2081607Y911989D01*
X2081579Y911879D01*
X2081546Y911770D01*
X2081510Y911662D01*
X2081470Y911555D01*
X2081426Y911450D01*
X2081379Y911347D01*
X2081329Y911245D01*
X2081275Y911145D01*
X2081217Y911047D01*
X2081156Y910951D01*
X2081093Y910857D01*
X2081025Y910765D01*
X2080955Y910675D01*
X2080882Y910589D01*
X2080806Y910504D01*
X2080727Y910422D01*
X2080645Y910343D01*
X2080560Y910267D01*
X2080474Y910194D01*
X2080384Y910124D01*
X2080292Y910056D01*
X2080198Y909993D01*
X2080102Y909932D01*
X2080004Y909874D01*
X2079904Y909820D01*
X2079802Y909770D01*
X2079699Y909723D01*
X2079594Y909679D01*
X2079487Y909639D01*
X2079379Y909603D01*
X2079270Y909570D01*
X2079160Y909542D01*
X2079050Y909517D01*
X2078938Y909495D01*
X2078825Y909478D01*
X2078713Y909464D01*
X2078599Y909455D01*
X2078486Y909449D01*
X2078372Y909447D01*
X2078258Y909449D01*
X2078145Y909455D01*
X2078031Y909464D01*
X2077919Y909478D01*
X2077806Y909495D01*
X2077694Y909517D01*
X2077584Y909542D01*
X2077474Y909570D01*
X2077365Y909603D01*
X2077257Y909639D01*
X2077150Y909679D01*
X2077045Y909723D01*
X2076942Y909770D01*
X2076840Y909820D01*
X2076740Y909874D01*
X2076642Y909932D01*
X2076546Y909993D01*
X2076452Y910056D01*
X2076360Y910124D01*
X2076270Y910194D01*
X2076184Y910267D01*
X2076099Y910343D01*
X2076017Y910422D01*
X2075938Y910504D01*
X2075862Y910589D01*
X2075789Y910675D01*
X2075719Y910765D01*
X2075651Y910857D01*
X2075588Y910951D01*
X2075527Y911047D01*
X2075469Y911145D01*
X2075415Y911245D01*
X2075365Y911347D01*
X2075318Y911450D01*
X2075274Y911555D01*
X2075234Y911662D01*
X2075198Y911770D01*
X2075165Y911879D01*
X2075137Y911989D01*
X2075112Y912099D01*
X2075090Y912211D01*
X2075073Y912324D01*
X2075059Y912436D01*
X2075050Y912550D01*
X2075044Y912663D01*
X2075042Y912777D01*
X2089238Y909447D02*
X2089238Y919438D01*
X2094233Y919438D01*
X2094233Y917773D01*
X2102028Y909447D02*
X2106191Y909447D01*
X2102028Y909447D02*
X2101930Y909449D01*
X2101832Y909455D01*
X2101734Y909464D01*
X2101637Y909478D01*
X2101541Y909495D01*
X2101445Y909516D01*
X2101350Y909541D01*
X2101256Y909569D01*
X2101163Y909601D01*
X2101072Y909637D01*
X2100982Y909676D01*
X2100894Y909719D01*
X2100807Y909766D01*
X2100723Y909815D01*
X2100640Y909868D01*
X2100560Y909924D01*
X2100482Y909983D01*
X2100406Y910046D01*
X2100332Y910111D01*
X2100262Y910179D01*
X2100194Y910249D01*
X2100129Y910323D01*
X2100066Y910399D01*
X2100007Y910477D01*
X2099951Y910557D01*
X2099898Y910640D01*
X2099849Y910724D01*
X2099802Y910811D01*
X2099759Y910899D01*
X2099720Y910989D01*
X2099684Y911080D01*
X2099652Y911173D01*
X2099624Y911267D01*
X2099599Y911362D01*
X2099578Y911458D01*
X2099561Y911554D01*
X2099547Y911651D01*
X2099538Y911749D01*
X2099532Y911847D01*
X2099530Y911945D01*
X2099530Y916107D01*
X2099531Y916107D02*
X2099533Y916221D01*
X2099539Y916334D01*
X2099548Y916448D01*
X2099562Y916560D01*
X2099579Y916673D01*
X2099601Y916785D01*
X2099626Y916895D01*
X2099654Y917005D01*
X2099687Y917114D01*
X2099723Y917222D01*
X2099763Y917329D01*
X2099807Y917434D01*
X2099854Y917537D01*
X2099904Y917639D01*
X2099958Y917739D01*
X2100016Y917837D01*
X2100077Y917933D01*
X2100140Y918027D01*
X2100208Y918119D01*
X2100278Y918209D01*
X2100351Y918295D01*
X2100427Y918380D01*
X2100506Y918462D01*
X2100588Y918541D01*
X2100673Y918617D01*
X2100759Y918690D01*
X2100849Y918760D01*
X2100941Y918828D01*
X2101035Y918891D01*
X2101131Y918952D01*
X2101229Y919010D01*
X2101329Y919064D01*
X2101431Y919114D01*
X2101534Y919161D01*
X2101639Y919205D01*
X2101746Y919245D01*
X2101854Y919281D01*
X2101963Y919314D01*
X2102073Y919342D01*
X2102183Y919367D01*
X2102295Y919389D01*
X2102408Y919406D01*
X2102520Y919420D01*
X2102634Y919429D01*
X2102747Y919435D01*
X2102861Y919437D01*
X2102975Y919435D01*
X2103088Y919429D01*
X2103202Y919420D01*
X2103314Y919406D01*
X2103427Y919389D01*
X2103539Y919367D01*
X2103649Y919342D01*
X2103759Y919314D01*
X2103868Y919281D01*
X2103976Y919245D01*
X2104083Y919205D01*
X2104188Y919161D01*
X2104291Y919114D01*
X2104393Y919064D01*
X2104493Y919010D01*
X2104591Y918952D01*
X2104687Y918891D01*
X2104781Y918828D01*
X2104873Y918760D01*
X2104963Y918690D01*
X2105049Y918617D01*
X2105134Y918541D01*
X2105216Y918462D01*
X2105295Y918380D01*
X2105371Y918295D01*
X2105444Y918209D01*
X2105514Y918119D01*
X2105582Y918027D01*
X2105645Y917933D01*
X2105706Y917837D01*
X2105764Y917739D01*
X2105818Y917639D01*
X2105868Y917537D01*
X2105915Y917434D01*
X2105959Y917329D01*
X2105999Y917222D01*
X2106035Y917114D01*
X2106068Y917005D01*
X2106096Y916895D01*
X2106121Y916785D01*
X2106143Y916673D01*
X2106160Y916560D01*
X2106174Y916448D01*
X2106183Y916334D01*
X2106189Y916221D01*
X2106191Y916107D01*
X2106191Y914442D01*
X2099530Y914442D01*
D11*
X1986280Y1836420D02*
X-68580Y1836420D01*
D12*
X2018769Y1838918D02*
X2022099Y1828927D01*
X2025430Y1838918D01*
X2032214Y1834755D02*
X2042205Y1834755D01*
X2050759Y1834755D02*
X2054922Y1833090D01*
X2050759Y1834754D02*
X2050674Y1834790D01*
X2050591Y1834830D01*
X2050510Y1834873D01*
X2050430Y1834920D01*
X2050353Y1834970D01*
X2050277Y1835023D01*
X2050204Y1835079D01*
X2050134Y1835139D01*
X2050066Y1835201D01*
X2050001Y1835266D01*
X2049939Y1835334D01*
X2049879Y1835405D01*
X2049823Y1835478D01*
X2049770Y1835553D01*
X2049720Y1835631D01*
X2049674Y1835710D01*
X2049631Y1835792D01*
X2049591Y1835875D01*
X2049555Y1835960D01*
X2049523Y1836046D01*
X2049494Y1836134D01*
X2049470Y1836223D01*
X2049449Y1836313D01*
X2049432Y1836403D01*
X2049418Y1836494D01*
X2049409Y1836586D01*
X2049404Y1836678D01*
X2049402Y1836770D01*
X2049404Y1836862D01*
X2049411Y1836954D01*
X2049421Y1837046D01*
X2049435Y1837137D01*
X2049453Y1837228D01*
X2049475Y1837317D01*
X2049501Y1837406D01*
X2049531Y1837493D01*
X2049564Y1837579D01*
X2049601Y1837663D01*
X2049641Y1837746D01*
X2049685Y1837827D01*
X2049732Y1837906D01*
X2049783Y1837983D01*
X2049837Y1838058D01*
X2049894Y1838131D01*
X2049954Y1838201D01*
X2050017Y1838268D01*
X2050083Y1838332D01*
X2050151Y1838394D01*
X2050222Y1838453D01*
X2050296Y1838508D01*
X2050372Y1838561D01*
X2050450Y1838610D01*
X2050530Y1838656D01*
X2050611Y1838698D01*
X2050695Y1838737D01*
X2050780Y1838772D01*
X2050867Y1838803D01*
X2050955Y1838831D01*
X2051044Y1838855D01*
X2051134Y1838875D01*
X2051224Y1838892D01*
X2051316Y1838904D01*
X2051408Y1838913D01*
X2051500Y1838917D01*
X2051592Y1838918D01*
X2051819Y1838912D01*
X2052046Y1838901D01*
X2052273Y1838884D01*
X2052499Y1838861D01*
X2052725Y1838834D01*
X2052950Y1838800D01*
X2053174Y1838762D01*
X2053397Y1838718D01*
X2053619Y1838669D01*
X2053840Y1838614D01*
X2054059Y1838554D01*
X2054277Y1838489D01*
X2054493Y1838418D01*
X2054707Y1838343D01*
X2054920Y1838262D01*
X2055130Y1838176D01*
X2055339Y1838085D01*
X2054922Y1833090D02*
X2055007Y1833054D01*
X2055090Y1833014D01*
X2055171Y1832971D01*
X2055251Y1832924D01*
X2055328Y1832874D01*
X2055404Y1832821D01*
X2055477Y1832765D01*
X2055547Y1832705D01*
X2055615Y1832643D01*
X2055680Y1832578D01*
X2055742Y1832510D01*
X2055802Y1832439D01*
X2055858Y1832366D01*
X2055911Y1832291D01*
X2055961Y1832213D01*
X2056007Y1832134D01*
X2056050Y1832052D01*
X2056090Y1831969D01*
X2056126Y1831884D01*
X2056158Y1831798D01*
X2056187Y1831710D01*
X2056211Y1831621D01*
X2056232Y1831531D01*
X2056249Y1831441D01*
X2056263Y1831350D01*
X2056272Y1831258D01*
X2056277Y1831166D01*
X2056279Y1831074D01*
X2056277Y1830982D01*
X2056270Y1830890D01*
X2056260Y1830798D01*
X2056246Y1830707D01*
X2056228Y1830616D01*
X2056206Y1830527D01*
X2056180Y1830438D01*
X2056150Y1830351D01*
X2056117Y1830265D01*
X2056080Y1830181D01*
X2056040Y1830098D01*
X2055996Y1830017D01*
X2055949Y1829938D01*
X2055898Y1829861D01*
X2055844Y1829786D01*
X2055787Y1829713D01*
X2055727Y1829643D01*
X2055664Y1829576D01*
X2055598Y1829512D01*
X2055530Y1829450D01*
X2055459Y1829391D01*
X2055385Y1829336D01*
X2055309Y1829283D01*
X2055231Y1829234D01*
X2055151Y1829188D01*
X2055070Y1829146D01*
X2054986Y1829107D01*
X2054901Y1829072D01*
X2054814Y1829041D01*
X2054726Y1829013D01*
X2054637Y1828989D01*
X2054547Y1828969D01*
X2054457Y1828952D01*
X2054365Y1828940D01*
X2054273Y1828931D01*
X2054181Y1828927D01*
X2054089Y1828926D01*
X2054089Y1828927D02*
X2053755Y1828936D01*
X2053422Y1828953D01*
X2053089Y1828977D01*
X2052756Y1829010D01*
X2052425Y1829050D01*
X2052094Y1829098D01*
X2051765Y1829154D01*
X2051437Y1829217D01*
X2051111Y1829289D01*
X2050787Y1829368D01*
X2050464Y1829454D01*
X2050144Y1829549D01*
X2049826Y1829651D01*
X2049510Y1829760D01*
X2065582Y1828927D02*
X2068912Y1828927D01*
X2065582Y1828927D02*
X2065484Y1828929D01*
X2065386Y1828935D01*
X2065288Y1828944D01*
X2065191Y1828958D01*
X2065095Y1828975D01*
X2064999Y1828996D01*
X2064904Y1829021D01*
X2064810Y1829049D01*
X2064717Y1829081D01*
X2064626Y1829117D01*
X2064536Y1829156D01*
X2064448Y1829199D01*
X2064361Y1829246D01*
X2064277Y1829295D01*
X2064194Y1829348D01*
X2064114Y1829404D01*
X2064036Y1829463D01*
X2063960Y1829526D01*
X2063886Y1829591D01*
X2063816Y1829659D01*
X2063748Y1829729D01*
X2063683Y1829803D01*
X2063620Y1829879D01*
X2063561Y1829957D01*
X2063505Y1830037D01*
X2063452Y1830120D01*
X2063403Y1830204D01*
X2063356Y1830291D01*
X2063313Y1830379D01*
X2063274Y1830469D01*
X2063238Y1830560D01*
X2063206Y1830653D01*
X2063178Y1830747D01*
X2063153Y1830842D01*
X2063132Y1830938D01*
X2063115Y1831034D01*
X2063101Y1831131D01*
X2063092Y1831229D01*
X2063086Y1831327D01*
X2063084Y1831425D01*
X2063084Y1836420D01*
X2063086Y1836518D01*
X2063092Y1836616D01*
X2063101Y1836714D01*
X2063115Y1836811D01*
X2063132Y1836907D01*
X2063153Y1837003D01*
X2063178Y1837098D01*
X2063206Y1837192D01*
X2063238Y1837285D01*
X2063274Y1837376D01*
X2063313Y1837466D01*
X2063356Y1837554D01*
X2063403Y1837641D01*
X2063452Y1837725D01*
X2063505Y1837808D01*
X2063561Y1837888D01*
X2063620Y1837967D01*
X2063683Y1838042D01*
X2063748Y1838116D01*
X2063816Y1838186D01*
X2063886Y1838254D01*
X2063960Y1838320D01*
X2064036Y1838382D01*
X2064114Y1838441D01*
X2064194Y1838497D01*
X2064277Y1838550D01*
X2064361Y1838600D01*
X2064448Y1838646D01*
X2064536Y1838689D01*
X2064626Y1838728D01*
X2064717Y1838764D01*
X2064810Y1838796D01*
X2064904Y1838824D01*
X2064999Y1838849D01*
X2065095Y1838870D01*
X2065191Y1838887D01*
X2065288Y1838901D01*
X2065386Y1838910D01*
X2065484Y1838916D01*
X2065582Y1838918D01*
X2068912Y1838918D01*
X2075042Y1835587D02*
X2075042Y1832257D01*
X2075042Y1835587D02*
X2075044Y1835701D01*
X2075050Y1835814D01*
X2075059Y1835928D01*
X2075073Y1836040D01*
X2075090Y1836153D01*
X2075112Y1836265D01*
X2075137Y1836375D01*
X2075165Y1836485D01*
X2075198Y1836594D01*
X2075234Y1836702D01*
X2075274Y1836809D01*
X2075318Y1836914D01*
X2075365Y1837017D01*
X2075415Y1837119D01*
X2075469Y1837219D01*
X2075527Y1837317D01*
X2075588Y1837413D01*
X2075651Y1837507D01*
X2075719Y1837599D01*
X2075789Y1837689D01*
X2075862Y1837775D01*
X2075938Y1837860D01*
X2076017Y1837942D01*
X2076099Y1838021D01*
X2076184Y1838097D01*
X2076270Y1838170D01*
X2076360Y1838240D01*
X2076452Y1838308D01*
X2076546Y1838371D01*
X2076642Y1838432D01*
X2076740Y1838490D01*
X2076840Y1838544D01*
X2076942Y1838594D01*
X2077045Y1838641D01*
X2077150Y1838685D01*
X2077257Y1838725D01*
X2077365Y1838761D01*
X2077474Y1838794D01*
X2077584Y1838822D01*
X2077694Y1838847D01*
X2077806Y1838869D01*
X2077919Y1838886D01*
X2078031Y1838900D01*
X2078145Y1838909D01*
X2078258Y1838915D01*
X2078372Y1838917D01*
X2078486Y1838915D01*
X2078599Y1838909D01*
X2078713Y1838900D01*
X2078825Y1838886D01*
X2078938Y1838869D01*
X2079050Y1838847D01*
X2079160Y1838822D01*
X2079270Y1838794D01*
X2079379Y1838761D01*
X2079487Y1838725D01*
X2079594Y1838685D01*
X2079699Y1838641D01*
X2079802Y1838594D01*
X2079904Y1838544D01*
X2080004Y1838490D01*
X2080102Y1838432D01*
X2080198Y1838371D01*
X2080292Y1838308D01*
X2080384Y1838240D01*
X2080474Y1838170D01*
X2080560Y1838097D01*
X2080645Y1838021D01*
X2080727Y1837942D01*
X2080806Y1837860D01*
X2080882Y1837775D01*
X2080955Y1837689D01*
X2081025Y1837599D01*
X2081093Y1837507D01*
X2081156Y1837413D01*
X2081217Y1837317D01*
X2081275Y1837219D01*
X2081329Y1837119D01*
X2081379Y1837017D01*
X2081426Y1836914D01*
X2081470Y1836809D01*
X2081510Y1836702D01*
X2081546Y1836594D01*
X2081579Y1836485D01*
X2081607Y1836375D01*
X2081632Y1836265D01*
X2081654Y1836153D01*
X2081671Y1836040D01*
X2081685Y1835928D01*
X2081694Y1835814D01*
X2081700Y1835701D01*
X2081702Y1835587D01*
X2081702Y1832257D01*
X2081700Y1832143D01*
X2081694Y1832030D01*
X2081685Y1831916D01*
X2081671Y1831804D01*
X2081654Y1831691D01*
X2081632Y1831579D01*
X2081607Y1831469D01*
X2081579Y1831359D01*
X2081546Y1831250D01*
X2081510Y1831142D01*
X2081470Y1831035D01*
X2081426Y1830930D01*
X2081379Y1830827D01*
X2081329Y1830725D01*
X2081275Y1830625D01*
X2081217Y1830527D01*
X2081156Y1830431D01*
X2081093Y1830337D01*
X2081025Y1830245D01*
X2080955Y1830155D01*
X2080882Y1830069D01*
X2080806Y1829984D01*
X2080727Y1829902D01*
X2080645Y1829823D01*
X2080560Y1829747D01*
X2080474Y1829674D01*
X2080384Y1829604D01*
X2080292Y1829536D01*
X2080198Y1829473D01*
X2080102Y1829412D01*
X2080004Y1829354D01*
X2079904Y1829300D01*
X2079802Y1829250D01*
X2079699Y1829203D01*
X2079594Y1829159D01*
X2079487Y1829119D01*
X2079379Y1829083D01*
X2079270Y1829050D01*
X2079160Y1829022D01*
X2079050Y1828997D01*
X2078938Y1828975D01*
X2078825Y1828958D01*
X2078713Y1828944D01*
X2078599Y1828935D01*
X2078486Y1828929D01*
X2078372Y1828927D01*
X2078258Y1828929D01*
X2078145Y1828935D01*
X2078031Y1828944D01*
X2077919Y1828958D01*
X2077806Y1828975D01*
X2077694Y1828997D01*
X2077584Y1829022D01*
X2077474Y1829050D01*
X2077365Y1829083D01*
X2077257Y1829119D01*
X2077150Y1829159D01*
X2077045Y1829203D01*
X2076942Y1829250D01*
X2076840Y1829300D01*
X2076740Y1829354D01*
X2076642Y1829412D01*
X2076546Y1829473D01*
X2076452Y1829536D01*
X2076360Y1829604D01*
X2076270Y1829674D01*
X2076184Y1829747D01*
X2076099Y1829823D01*
X2076017Y1829902D01*
X2075938Y1829984D01*
X2075862Y1830069D01*
X2075789Y1830155D01*
X2075719Y1830245D01*
X2075651Y1830337D01*
X2075588Y1830431D01*
X2075527Y1830527D01*
X2075469Y1830625D01*
X2075415Y1830725D01*
X2075365Y1830827D01*
X2075318Y1830930D01*
X2075274Y1831035D01*
X2075234Y1831142D01*
X2075198Y1831250D01*
X2075165Y1831359D01*
X2075137Y1831469D01*
X2075112Y1831579D01*
X2075090Y1831691D01*
X2075073Y1831804D01*
X2075059Y1831916D01*
X2075050Y1832030D01*
X2075044Y1832143D01*
X2075042Y1832257D01*
X2089238Y1828927D02*
X2089238Y1838918D01*
X2094233Y1838918D01*
X2094233Y1837253D01*
X2102028Y1828927D02*
X2106191Y1828927D01*
X2102028Y1828927D02*
X2101930Y1828929D01*
X2101832Y1828935D01*
X2101734Y1828944D01*
X2101637Y1828958D01*
X2101541Y1828975D01*
X2101445Y1828996D01*
X2101350Y1829021D01*
X2101256Y1829049D01*
X2101163Y1829081D01*
X2101072Y1829117D01*
X2100982Y1829156D01*
X2100894Y1829199D01*
X2100807Y1829246D01*
X2100723Y1829295D01*
X2100640Y1829348D01*
X2100560Y1829404D01*
X2100482Y1829463D01*
X2100406Y1829526D01*
X2100332Y1829591D01*
X2100262Y1829659D01*
X2100194Y1829729D01*
X2100129Y1829803D01*
X2100066Y1829879D01*
X2100007Y1829957D01*
X2099951Y1830037D01*
X2099898Y1830120D01*
X2099849Y1830204D01*
X2099802Y1830291D01*
X2099759Y1830379D01*
X2099720Y1830469D01*
X2099684Y1830560D01*
X2099652Y1830653D01*
X2099624Y1830747D01*
X2099599Y1830842D01*
X2099578Y1830938D01*
X2099561Y1831034D01*
X2099547Y1831131D01*
X2099538Y1831229D01*
X2099532Y1831327D01*
X2099530Y1831425D01*
X2099530Y1835587D01*
X2099531Y1835587D02*
X2099533Y1835701D01*
X2099539Y1835814D01*
X2099548Y1835928D01*
X2099562Y1836040D01*
X2099579Y1836153D01*
X2099601Y1836265D01*
X2099626Y1836375D01*
X2099654Y1836485D01*
X2099687Y1836594D01*
X2099723Y1836702D01*
X2099763Y1836809D01*
X2099807Y1836914D01*
X2099854Y1837017D01*
X2099904Y1837119D01*
X2099958Y1837219D01*
X2100016Y1837317D01*
X2100077Y1837413D01*
X2100140Y1837507D01*
X2100208Y1837599D01*
X2100278Y1837689D01*
X2100351Y1837775D01*
X2100427Y1837860D01*
X2100506Y1837942D01*
X2100588Y1838021D01*
X2100673Y1838097D01*
X2100759Y1838170D01*
X2100849Y1838240D01*
X2100941Y1838308D01*
X2101035Y1838371D01*
X2101131Y1838432D01*
X2101229Y1838490D01*
X2101329Y1838544D01*
X2101431Y1838594D01*
X2101534Y1838641D01*
X2101639Y1838685D01*
X2101746Y1838725D01*
X2101854Y1838761D01*
X2101963Y1838794D01*
X2102073Y1838822D01*
X2102183Y1838847D01*
X2102295Y1838869D01*
X2102408Y1838886D01*
X2102520Y1838900D01*
X2102634Y1838909D01*
X2102747Y1838915D01*
X2102861Y1838917D01*
X2102975Y1838915D01*
X2103088Y1838909D01*
X2103202Y1838900D01*
X2103314Y1838886D01*
X2103427Y1838869D01*
X2103539Y1838847D01*
X2103649Y1838822D01*
X2103759Y1838794D01*
X2103868Y1838761D01*
X2103976Y1838725D01*
X2104083Y1838685D01*
X2104188Y1838641D01*
X2104291Y1838594D01*
X2104393Y1838544D01*
X2104493Y1838490D01*
X2104591Y1838432D01*
X2104687Y1838371D01*
X2104781Y1838308D01*
X2104873Y1838240D01*
X2104963Y1838170D01*
X2105049Y1838097D01*
X2105134Y1838021D01*
X2105216Y1837942D01*
X2105295Y1837860D01*
X2105371Y1837775D01*
X2105444Y1837689D01*
X2105514Y1837599D01*
X2105582Y1837507D01*
X2105645Y1837413D01*
X2105706Y1837317D01*
X2105764Y1837219D01*
X2105818Y1837119D01*
X2105868Y1837017D01*
X2105915Y1836914D01*
X2105959Y1836809D01*
X2105999Y1836702D01*
X2106035Y1836594D01*
X2106068Y1836485D01*
X2106096Y1836375D01*
X2106121Y1836265D01*
X2106143Y1836153D01*
X2106160Y1836040D01*
X2106174Y1835928D01*
X2106183Y1835814D01*
X2106189Y1835701D01*
X2106191Y1835587D01*
X2106191Y1833922D01*
X2099530Y1833922D01*
D13*
X1922780Y-5080D02*
X-68580Y-5080D01*
X1922780Y-5080D02*
X1922780Y-68580D01*
X-68580Y-68580D01*
X-68580Y-5080D01*
X1859280Y1833880D02*
X1922780Y1833880D01*
X1922780Y0D01*
X1859280Y0D01*
X1859280Y1833880D01*
X1922780Y1902460D02*
X-68580Y1902460D01*
X1922780Y1902460D02*
X1922780Y1838960D01*
X-68580Y1838960D01*
X-68580Y1902460D01*
X-68580Y1833880D02*
X-5080Y1833880D01*
X-5080Y0D01*
X-68580Y0D01*
X-68580Y1833880D01*
D14*
X1812290Y25400D02*
X1812295Y25805D01*
X1812310Y26210D01*
X1812335Y26615D01*
X1812370Y27018D01*
X1812414Y27421D01*
X1812469Y27823D01*
X1812533Y28223D01*
X1812607Y28621D01*
X1812691Y29017D01*
X1812785Y29412D01*
X1812888Y29803D01*
X1813001Y30193D01*
X1813123Y30579D01*
X1813255Y30962D01*
X1813396Y31342D01*
X1813547Y31718D01*
X1813706Y32091D01*
X1813875Y32459D01*
X1814053Y32823D01*
X1814239Y33183D01*
X1814435Y33538D01*
X1814639Y33888D01*
X1814851Y34233D01*
X1815072Y34572D01*
X1815302Y34907D01*
X1815539Y35235D01*
X1815784Y35557D01*
X1816038Y35874D01*
X1816298Y36184D01*
X1816567Y36487D01*
X1816843Y36784D01*
X1817126Y37074D01*
X1817416Y37357D01*
X1817713Y37633D01*
X1818016Y37902D01*
X1818326Y38162D01*
X1818643Y38416D01*
X1818965Y38661D01*
X1819293Y38898D01*
X1819628Y39128D01*
X1819967Y39349D01*
X1820312Y39561D01*
X1820662Y39765D01*
X1821017Y39961D01*
X1821377Y40147D01*
X1821741Y40325D01*
X1822109Y40494D01*
X1822482Y40653D01*
X1822858Y40804D01*
X1823238Y40945D01*
X1823621Y41077D01*
X1824007Y41199D01*
X1824397Y41312D01*
X1824788Y41415D01*
X1825183Y41509D01*
X1825579Y41593D01*
X1825977Y41667D01*
X1826377Y41731D01*
X1826779Y41786D01*
X1827182Y41830D01*
X1827585Y41865D01*
X1827990Y41890D01*
X1828395Y41905D01*
X1828800Y41910D01*
X1829205Y41905D01*
X1829610Y41890D01*
X1830015Y41865D01*
X1830418Y41830D01*
X1830821Y41786D01*
X1831223Y41731D01*
X1831623Y41667D01*
X1832021Y41593D01*
X1832417Y41509D01*
X1832812Y41415D01*
X1833203Y41312D01*
X1833593Y41199D01*
X1833979Y41077D01*
X1834362Y40945D01*
X1834742Y40804D01*
X1835118Y40653D01*
X1835491Y40494D01*
X1835859Y40325D01*
X1836223Y40147D01*
X1836583Y39961D01*
X1836938Y39765D01*
X1837288Y39561D01*
X1837633Y39349D01*
X1837972Y39128D01*
X1838307Y38898D01*
X1838635Y38661D01*
X1838957Y38416D01*
X1839274Y38162D01*
X1839584Y37902D01*
X1839887Y37633D01*
X1840184Y37357D01*
X1840474Y37074D01*
X1840757Y36784D01*
X1841033Y36487D01*
X1841302Y36184D01*
X1841562Y35874D01*
X1841816Y35557D01*
X1842061Y35235D01*
X1842298Y34907D01*
X1842528Y34572D01*
X1842749Y34233D01*
X1842961Y33888D01*
X1843165Y33538D01*
X1843361Y33183D01*
X1843547Y32823D01*
X1843725Y32459D01*
X1843894Y32091D01*
X1844053Y31718D01*
X1844204Y31342D01*
X1844345Y30962D01*
X1844477Y30579D01*
X1844599Y30193D01*
X1844712Y29803D01*
X1844815Y29412D01*
X1844909Y29017D01*
X1844993Y28621D01*
X1845067Y28223D01*
X1845131Y27823D01*
X1845186Y27421D01*
X1845230Y27018D01*
X1845265Y26615D01*
X1845290Y26210D01*
X1845305Y25805D01*
X1845310Y25400D01*
X1845305Y24995D01*
X1845290Y24590D01*
X1845265Y24185D01*
X1845230Y23782D01*
X1845186Y23379D01*
X1845131Y22977D01*
X1845067Y22577D01*
X1844993Y22179D01*
X1844909Y21783D01*
X1844815Y21388D01*
X1844712Y20997D01*
X1844599Y20607D01*
X1844477Y20221D01*
X1844345Y19838D01*
X1844204Y19458D01*
X1844053Y19082D01*
X1843894Y18709D01*
X1843725Y18341D01*
X1843547Y17977D01*
X1843361Y17617D01*
X1843165Y17262D01*
X1842961Y16912D01*
X1842749Y16567D01*
X1842528Y16228D01*
X1842298Y15893D01*
X1842061Y15565D01*
X1841816Y15243D01*
X1841562Y14926D01*
X1841302Y14616D01*
X1841033Y14313D01*
X1840757Y14016D01*
X1840474Y13726D01*
X1840184Y13443D01*
X1839887Y13167D01*
X1839584Y12898D01*
X1839274Y12638D01*
X1838957Y12384D01*
X1838635Y12139D01*
X1838307Y11902D01*
X1837972Y11672D01*
X1837633Y11451D01*
X1837288Y11239D01*
X1836938Y11035D01*
X1836583Y10839D01*
X1836223Y10653D01*
X1835859Y10475D01*
X1835491Y10306D01*
X1835118Y10147D01*
X1834742Y9996D01*
X1834362Y9855D01*
X1833979Y9723D01*
X1833593Y9601D01*
X1833203Y9488D01*
X1832812Y9385D01*
X1832417Y9291D01*
X1832021Y9207D01*
X1831623Y9133D01*
X1831223Y9069D01*
X1830821Y9014D01*
X1830418Y8970D01*
X1830015Y8935D01*
X1829610Y8910D01*
X1829205Y8895D01*
X1828800Y8890D01*
X1828395Y8895D01*
X1827990Y8910D01*
X1827585Y8935D01*
X1827182Y8970D01*
X1826779Y9014D01*
X1826377Y9069D01*
X1825977Y9133D01*
X1825579Y9207D01*
X1825183Y9291D01*
X1824788Y9385D01*
X1824397Y9488D01*
X1824007Y9601D01*
X1823621Y9723D01*
X1823238Y9855D01*
X1822858Y9996D01*
X1822482Y10147D01*
X1822109Y10306D01*
X1821741Y10475D01*
X1821377Y10653D01*
X1821017Y10839D01*
X1820662Y11035D01*
X1820312Y11239D01*
X1819967Y11451D01*
X1819628Y11672D01*
X1819293Y11902D01*
X1818965Y12139D01*
X1818643Y12384D01*
X1818326Y12638D01*
X1818016Y12898D01*
X1817713Y13167D01*
X1817416Y13443D01*
X1817126Y13726D01*
X1816843Y14016D01*
X1816567Y14313D01*
X1816298Y14616D01*
X1816038Y14926D01*
X1815784Y15243D01*
X1815539Y15565D01*
X1815302Y15893D01*
X1815072Y16228D01*
X1814851Y16567D01*
X1814639Y16912D01*
X1814435Y17262D01*
X1814239Y17617D01*
X1814053Y17977D01*
X1813875Y18341D01*
X1813706Y18709D01*
X1813547Y19082D01*
X1813396Y19458D01*
X1813255Y19838D01*
X1813123Y20221D01*
X1813001Y20607D01*
X1812888Y20997D01*
X1812785Y21388D01*
X1812691Y21783D01*
X1812607Y22179D01*
X1812533Y22577D01*
X1812469Y22977D01*
X1812414Y23379D01*
X1812370Y23782D01*
X1812335Y24185D01*
X1812310Y24590D01*
X1812295Y24995D01*
X1812290Y25400D01*
X8890Y228600D02*
X8895Y229005D01*
X8910Y229410D01*
X8935Y229815D01*
X8970Y230218D01*
X9014Y230621D01*
X9069Y231023D01*
X9133Y231423D01*
X9207Y231821D01*
X9291Y232217D01*
X9385Y232612D01*
X9488Y233003D01*
X9601Y233393D01*
X9723Y233779D01*
X9855Y234162D01*
X9996Y234542D01*
X10147Y234918D01*
X10306Y235291D01*
X10475Y235659D01*
X10653Y236023D01*
X10839Y236383D01*
X11035Y236738D01*
X11239Y237088D01*
X11451Y237433D01*
X11672Y237772D01*
X11902Y238107D01*
X12139Y238435D01*
X12384Y238757D01*
X12638Y239074D01*
X12898Y239384D01*
X13167Y239687D01*
X13443Y239984D01*
X13726Y240274D01*
X14016Y240557D01*
X14313Y240833D01*
X14616Y241102D01*
X14926Y241362D01*
X15243Y241616D01*
X15565Y241861D01*
X15893Y242098D01*
X16228Y242328D01*
X16567Y242549D01*
X16912Y242761D01*
X17262Y242965D01*
X17617Y243161D01*
X17977Y243347D01*
X18341Y243525D01*
X18709Y243694D01*
X19082Y243853D01*
X19458Y244004D01*
X19838Y244145D01*
X20221Y244277D01*
X20607Y244399D01*
X20997Y244512D01*
X21388Y244615D01*
X21783Y244709D01*
X22179Y244793D01*
X22577Y244867D01*
X22977Y244931D01*
X23379Y244986D01*
X23782Y245030D01*
X24185Y245065D01*
X24590Y245090D01*
X24995Y245105D01*
X25400Y245110D01*
X25805Y245105D01*
X26210Y245090D01*
X26615Y245065D01*
X27018Y245030D01*
X27421Y244986D01*
X27823Y244931D01*
X28223Y244867D01*
X28621Y244793D01*
X29017Y244709D01*
X29412Y244615D01*
X29803Y244512D01*
X30193Y244399D01*
X30579Y244277D01*
X30962Y244145D01*
X31342Y244004D01*
X31718Y243853D01*
X32091Y243694D01*
X32459Y243525D01*
X32823Y243347D01*
X33183Y243161D01*
X33538Y242965D01*
X33888Y242761D01*
X34233Y242549D01*
X34572Y242328D01*
X34907Y242098D01*
X35235Y241861D01*
X35557Y241616D01*
X35874Y241362D01*
X36184Y241102D01*
X36487Y240833D01*
X36784Y240557D01*
X37074Y240274D01*
X37357Y239984D01*
X37633Y239687D01*
X37902Y239384D01*
X38162Y239074D01*
X38416Y238757D01*
X38661Y238435D01*
X38898Y238107D01*
X39128Y237772D01*
X39349Y237433D01*
X39561Y237088D01*
X39765Y236738D01*
X39961Y236383D01*
X40147Y236023D01*
X40325Y235659D01*
X40494Y235291D01*
X40653Y234918D01*
X40804Y234542D01*
X40945Y234162D01*
X41077Y233779D01*
X41199Y233393D01*
X41312Y233003D01*
X41415Y232612D01*
X41509Y232217D01*
X41593Y231821D01*
X41667Y231423D01*
X41731Y231023D01*
X41786Y230621D01*
X41830Y230218D01*
X41865Y229815D01*
X41890Y229410D01*
X41905Y229005D01*
X41910Y228600D01*
X41905Y228195D01*
X41890Y227790D01*
X41865Y227385D01*
X41830Y226982D01*
X41786Y226579D01*
X41731Y226177D01*
X41667Y225777D01*
X41593Y225379D01*
X41509Y224983D01*
X41415Y224588D01*
X41312Y224197D01*
X41199Y223807D01*
X41077Y223421D01*
X40945Y223038D01*
X40804Y222658D01*
X40653Y222282D01*
X40494Y221909D01*
X40325Y221541D01*
X40147Y221177D01*
X39961Y220817D01*
X39765Y220462D01*
X39561Y220112D01*
X39349Y219767D01*
X39128Y219428D01*
X38898Y219093D01*
X38661Y218765D01*
X38416Y218443D01*
X38162Y218126D01*
X37902Y217816D01*
X37633Y217513D01*
X37357Y217216D01*
X37074Y216926D01*
X36784Y216643D01*
X36487Y216367D01*
X36184Y216098D01*
X35874Y215838D01*
X35557Y215584D01*
X35235Y215339D01*
X34907Y215102D01*
X34572Y214872D01*
X34233Y214651D01*
X33888Y214439D01*
X33538Y214235D01*
X33183Y214039D01*
X32823Y213853D01*
X32459Y213675D01*
X32091Y213506D01*
X31718Y213347D01*
X31342Y213196D01*
X30962Y213055D01*
X30579Y212923D01*
X30193Y212801D01*
X29803Y212688D01*
X29412Y212585D01*
X29017Y212491D01*
X28621Y212407D01*
X28223Y212333D01*
X27823Y212269D01*
X27421Y212214D01*
X27018Y212170D01*
X26615Y212135D01*
X26210Y212110D01*
X25805Y212095D01*
X25400Y212090D01*
X24995Y212095D01*
X24590Y212110D01*
X24185Y212135D01*
X23782Y212170D01*
X23379Y212214D01*
X22977Y212269D01*
X22577Y212333D01*
X22179Y212407D01*
X21783Y212491D01*
X21388Y212585D01*
X20997Y212688D01*
X20607Y212801D01*
X20221Y212923D01*
X19838Y213055D01*
X19458Y213196D01*
X19082Y213347D01*
X18709Y213506D01*
X18341Y213675D01*
X17977Y213853D01*
X17617Y214039D01*
X17262Y214235D01*
X16912Y214439D01*
X16567Y214651D01*
X16228Y214872D01*
X15893Y215102D01*
X15565Y215339D01*
X15243Y215584D01*
X14926Y215838D01*
X14616Y216098D01*
X14313Y216367D01*
X14016Y216643D01*
X13726Y216926D01*
X13443Y217216D01*
X13167Y217513D01*
X12898Y217816D01*
X12638Y218126D01*
X12384Y218443D01*
X12139Y218765D01*
X11902Y219093D01*
X11672Y219428D01*
X11451Y219767D01*
X11239Y220112D01*
X11035Y220462D01*
X10839Y220817D01*
X10653Y221177D01*
X10475Y221541D01*
X10306Y221909D01*
X10147Y222282D01*
X9996Y222658D01*
X9855Y223038D01*
X9723Y223421D01*
X9601Y223807D01*
X9488Y224197D01*
X9385Y224588D01*
X9291Y224983D01*
X9207Y225379D01*
X9133Y225777D01*
X9069Y226177D01*
X9014Y226579D01*
X8970Y226982D01*
X8935Y227385D01*
X8910Y227790D01*
X8895Y228195D01*
X8890Y228600D01*
X8890Y25400D02*
X8895Y25805D01*
X8910Y26210D01*
X8935Y26615D01*
X8970Y27018D01*
X9014Y27421D01*
X9069Y27823D01*
X9133Y28223D01*
X9207Y28621D01*
X9291Y29017D01*
X9385Y29412D01*
X9488Y29803D01*
X9601Y30193D01*
X9723Y30579D01*
X9855Y30962D01*
X9996Y31342D01*
X10147Y31718D01*
X10306Y32091D01*
X10475Y32459D01*
X10653Y32823D01*
X10839Y33183D01*
X11035Y33538D01*
X11239Y33888D01*
X11451Y34233D01*
X11672Y34572D01*
X11902Y34907D01*
X12139Y35235D01*
X12384Y35557D01*
X12638Y35874D01*
X12898Y36184D01*
X13167Y36487D01*
X13443Y36784D01*
X13726Y37074D01*
X14016Y37357D01*
X14313Y37633D01*
X14616Y37902D01*
X14926Y38162D01*
X15243Y38416D01*
X15565Y38661D01*
X15893Y38898D01*
X16228Y39128D01*
X16567Y39349D01*
X16912Y39561D01*
X17262Y39765D01*
X17617Y39961D01*
X17977Y40147D01*
X18341Y40325D01*
X18709Y40494D01*
X19082Y40653D01*
X19458Y40804D01*
X19838Y40945D01*
X20221Y41077D01*
X20607Y41199D01*
X20997Y41312D01*
X21388Y41415D01*
X21783Y41509D01*
X22179Y41593D01*
X22577Y41667D01*
X22977Y41731D01*
X23379Y41786D01*
X23782Y41830D01*
X24185Y41865D01*
X24590Y41890D01*
X24995Y41905D01*
X25400Y41910D01*
X25805Y41905D01*
X26210Y41890D01*
X26615Y41865D01*
X27018Y41830D01*
X27421Y41786D01*
X27823Y41731D01*
X28223Y41667D01*
X28621Y41593D01*
X29017Y41509D01*
X29412Y41415D01*
X29803Y41312D01*
X30193Y41199D01*
X30579Y41077D01*
X30962Y40945D01*
X31342Y40804D01*
X31718Y40653D01*
X32091Y40494D01*
X32459Y40325D01*
X32823Y40147D01*
X33183Y39961D01*
X33538Y39765D01*
X33888Y39561D01*
X34233Y39349D01*
X34572Y39128D01*
X34907Y38898D01*
X35235Y38661D01*
X35557Y38416D01*
X35874Y38162D01*
X36184Y37902D01*
X36487Y37633D01*
X36784Y37357D01*
X37074Y37074D01*
X37357Y36784D01*
X37633Y36487D01*
X37902Y36184D01*
X38162Y35874D01*
X38416Y35557D01*
X38661Y35235D01*
X38898Y34907D01*
X39128Y34572D01*
X39349Y34233D01*
X39561Y33888D01*
X39765Y33538D01*
X39961Y33183D01*
X40147Y32823D01*
X40325Y32459D01*
X40494Y32091D01*
X40653Y31718D01*
X40804Y31342D01*
X40945Y30962D01*
X41077Y30579D01*
X41199Y30193D01*
X41312Y29803D01*
X41415Y29412D01*
X41509Y29017D01*
X41593Y28621D01*
X41667Y28223D01*
X41731Y27823D01*
X41786Y27421D01*
X41830Y27018D01*
X41865Y26615D01*
X41890Y26210D01*
X41905Y25805D01*
X41910Y25400D01*
X41905Y24995D01*
X41890Y24590D01*
X41865Y24185D01*
X41830Y23782D01*
X41786Y23379D01*
X41731Y22977D01*
X41667Y22577D01*
X41593Y22179D01*
X41509Y21783D01*
X41415Y21388D01*
X41312Y20997D01*
X41199Y20607D01*
X41077Y20221D01*
X40945Y19838D01*
X40804Y19458D01*
X40653Y19082D01*
X40494Y18709D01*
X40325Y18341D01*
X40147Y17977D01*
X39961Y17617D01*
X39765Y17262D01*
X39561Y16912D01*
X39349Y16567D01*
X39128Y16228D01*
X38898Y15893D01*
X38661Y15565D01*
X38416Y15243D01*
X38162Y14926D01*
X37902Y14616D01*
X37633Y14313D01*
X37357Y14016D01*
X37074Y13726D01*
X36784Y13443D01*
X36487Y13167D01*
X36184Y12898D01*
X35874Y12638D01*
X35557Y12384D01*
X35235Y12139D01*
X34907Y11902D01*
X34572Y11672D01*
X34233Y11451D01*
X33888Y11239D01*
X33538Y11035D01*
X33183Y10839D01*
X32823Y10653D01*
X32459Y10475D01*
X32091Y10306D01*
X31718Y10147D01*
X31342Y9996D01*
X30962Y9855D01*
X30579Y9723D01*
X30193Y9601D01*
X29803Y9488D01*
X29412Y9385D01*
X29017Y9291D01*
X28621Y9207D01*
X28223Y9133D01*
X27823Y9069D01*
X27421Y9014D01*
X27018Y8970D01*
X26615Y8935D01*
X26210Y8910D01*
X25805Y8895D01*
X25400Y8890D01*
X24995Y8895D01*
X24590Y8910D01*
X24185Y8935D01*
X23782Y8970D01*
X23379Y9014D01*
X22977Y9069D01*
X22577Y9133D01*
X22179Y9207D01*
X21783Y9291D01*
X21388Y9385D01*
X20997Y9488D01*
X20607Y9601D01*
X20221Y9723D01*
X19838Y9855D01*
X19458Y9996D01*
X19082Y10147D01*
X18709Y10306D01*
X18341Y10475D01*
X17977Y10653D01*
X17617Y10839D01*
X17262Y11035D01*
X16912Y11239D01*
X16567Y11451D01*
X16228Y11672D01*
X15893Y11902D01*
X15565Y12139D01*
X15243Y12384D01*
X14926Y12638D01*
X14616Y12898D01*
X14313Y13167D01*
X14016Y13443D01*
X13726Y13726D01*
X13443Y14016D01*
X13167Y14313D01*
X12898Y14616D01*
X12638Y14926D01*
X12384Y15243D01*
X12139Y15565D01*
X11902Y15893D01*
X11672Y16228D01*
X11451Y16567D01*
X11239Y16912D01*
X11035Y17262D01*
X10839Y17617D01*
X10653Y17977D01*
X10475Y18341D01*
X10306Y18709D01*
X10147Y19082D01*
X9996Y19458D01*
X9855Y19838D01*
X9723Y20221D01*
X9601Y20607D01*
X9488Y20997D01*
X9385Y21388D01*
X9291Y21783D01*
X9207Y22179D01*
X9133Y22577D01*
X9069Y22977D01*
X9014Y23379D01*
X8970Y23782D01*
X8935Y24185D01*
X8910Y24590D01*
X8895Y24995D01*
X8890Y25400D01*
X1812290Y228600D02*
X1812295Y229005D01*
X1812310Y229410D01*
X1812335Y229815D01*
X1812370Y230218D01*
X1812414Y230621D01*
X1812469Y231023D01*
X1812533Y231423D01*
X1812607Y231821D01*
X1812691Y232217D01*
X1812785Y232612D01*
X1812888Y233003D01*
X1813001Y233393D01*
X1813123Y233779D01*
X1813255Y234162D01*
X1813396Y234542D01*
X1813547Y234918D01*
X1813706Y235291D01*
X1813875Y235659D01*
X1814053Y236023D01*
X1814239Y236383D01*
X1814435Y236738D01*
X1814639Y237088D01*
X1814851Y237433D01*
X1815072Y237772D01*
X1815302Y238107D01*
X1815539Y238435D01*
X1815784Y238757D01*
X1816038Y239074D01*
X1816298Y239384D01*
X1816567Y239687D01*
X1816843Y239984D01*
X1817126Y240274D01*
X1817416Y240557D01*
X1817713Y240833D01*
X1818016Y241102D01*
X1818326Y241362D01*
X1818643Y241616D01*
X1818965Y241861D01*
X1819293Y242098D01*
X1819628Y242328D01*
X1819967Y242549D01*
X1820312Y242761D01*
X1820662Y242965D01*
X1821017Y243161D01*
X1821377Y243347D01*
X1821741Y243525D01*
X1822109Y243694D01*
X1822482Y243853D01*
X1822858Y244004D01*
X1823238Y244145D01*
X1823621Y244277D01*
X1824007Y244399D01*
X1824397Y244512D01*
X1824788Y244615D01*
X1825183Y244709D01*
X1825579Y244793D01*
X1825977Y244867D01*
X1826377Y244931D01*
X1826779Y244986D01*
X1827182Y245030D01*
X1827585Y245065D01*
X1827990Y245090D01*
X1828395Y245105D01*
X1828800Y245110D01*
X1829205Y245105D01*
X1829610Y245090D01*
X1830015Y245065D01*
X1830418Y245030D01*
X1830821Y244986D01*
X1831223Y244931D01*
X1831623Y244867D01*
X1832021Y244793D01*
X1832417Y244709D01*
X1832812Y244615D01*
X1833203Y244512D01*
X1833593Y244399D01*
X1833979Y244277D01*
X1834362Y244145D01*
X1834742Y244004D01*
X1835118Y243853D01*
X1835491Y243694D01*
X1835859Y243525D01*
X1836223Y243347D01*
X1836583Y243161D01*
X1836938Y242965D01*
X1837288Y242761D01*
X1837633Y242549D01*
X1837972Y242328D01*
X1838307Y242098D01*
X1838635Y241861D01*
X1838957Y241616D01*
X1839274Y241362D01*
X1839584Y241102D01*
X1839887Y240833D01*
X1840184Y240557D01*
X1840474Y240274D01*
X1840757Y239984D01*
X1841033Y239687D01*
X1841302Y239384D01*
X1841562Y239074D01*
X1841816Y238757D01*
X1842061Y238435D01*
X1842298Y238107D01*
X1842528Y237772D01*
X1842749Y237433D01*
X1842961Y237088D01*
X1843165Y236738D01*
X1843361Y236383D01*
X1843547Y236023D01*
X1843725Y235659D01*
X1843894Y235291D01*
X1844053Y234918D01*
X1844204Y234542D01*
X1844345Y234162D01*
X1844477Y233779D01*
X1844599Y233393D01*
X1844712Y233003D01*
X1844815Y232612D01*
X1844909Y232217D01*
X1844993Y231821D01*
X1845067Y231423D01*
X1845131Y231023D01*
X1845186Y230621D01*
X1845230Y230218D01*
X1845265Y229815D01*
X1845290Y229410D01*
X1845305Y229005D01*
X1845310Y228600D01*
X1845305Y228195D01*
X1845290Y227790D01*
X1845265Y227385D01*
X1845230Y226982D01*
X1845186Y226579D01*
X1845131Y226177D01*
X1845067Y225777D01*
X1844993Y225379D01*
X1844909Y224983D01*
X1844815Y224588D01*
X1844712Y224197D01*
X1844599Y223807D01*
X1844477Y223421D01*
X1844345Y223038D01*
X1844204Y222658D01*
X1844053Y222282D01*
X1843894Y221909D01*
X1843725Y221541D01*
X1843547Y221177D01*
X1843361Y220817D01*
X1843165Y220462D01*
X1842961Y220112D01*
X1842749Y219767D01*
X1842528Y219428D01*
X1842298Y219093D01*
X1842061Y218765D01*
X1841816Y218443D01*
X1841562Y218126D01*
X1841302Y217816D01*
X1841033Y217513D01*
X1840757Y217216D01*
X1840474Y216926D01*
X1840184Y216643D01*
X1839887Y216367D01*
X1839584Y216098D01*
X1839274Y215838D01*
X1838957Y215584D01*
X1838635Y215339D01*
X1838307Y215102D01*
X1837972Y214872D01*
X1837633Y214651D01*
X1837288Y214439D01*
X1836938Y214235D01*
X1836583Y214039D01*
X1836223Y213853D01*
X1835859Y213675D01*
X1835491Y213506D01*
X1835118Y213347D01*
X1834742Y213196D01*
X1834362Y213055D01*
X1833979Y212923D01*
X1833593Y212801D01*
X1833203Y212688D01*
X1832812Y212585D01*
X1832417Y212491D01*
X1832021Y212407D01*
X1831623Y212333D01*
X1831223Y212269D01*
X1830821Y212214D01*
X1830418Y212170D01*
X1830015Y212135D01*
X1829610Y212110D01*
X1829205Y212095D01*
X1828800Y212090D01*
X1828395Y212095D01*
X1827990Y212110D01*
X1827585Y212135D01*
X1827182Y212170D01*
X1826779Y212214D01*
X1826377Y212269D01*
X1825977Y212333D01*
X1825579Y212407D01*
X1825183Y212491D01*
X1824788Y212585D01*
X1824397Y212688D01*
X1824007Y212801D01*
X1823621Y212923D01*
X1823238Y213055D01*
X1822858Y213196D01*
X1822482Y213347D01*
X1822109Y213506D01*
X1821741Y213675D01*
X1821377Y213853D01*
X1821017Y214039D01*
X1820662Y214235D01*
X1820312Y214439D01*
X1819967Y214651D01*
X1819628Y214872D01*
X1819293Y215102D01*
X1818965Y215339D01*
X1818643Y215584D01*
X1818326Y215838D01*
X1818016Y216098D01*
X1817713Y216367D01*
X1817416Y216643D01*
X1817126Y216926D01*
X1816843Y217216D01*
X1816567Y217513D01*
X1816298Y217816D01*
X1816038Y218126D01*
X1815784Y218443D01*
X1815539Y218765D01*
X1815302Y219093D01*
X1815072Y219428D01*
X1814851Y219767D01*
X1814639Y220112D01*
X1814435Y220462D01*
X1814239Y220817D01*
X1814053Y221177D01*
X1813875Y221541D01*
X1813706Y221909D01*
X1813547Y222282D01*
X1813396Y222658D01*
X1813255Y223038D01*
X1813123Y223421D01*
X1813001Y223807D01*
X1812888Y224197D01*
X1812785Y224588D01*
X1812691Y224983D01*
X1812607Y225379D01*
X1812533Y225777D01*
X1812469Y226177D01*
X1812414Y226579D01*
X1812370Y226982D01*
X1812335Y227385D01*
X1812310Y227790D01*
X1812295Y228195D01*
X1812290Y228600D01*
X910590Y228600D02*
X910595Y229005D01*
X910610Y229410D01*
X910635Y229815D01*
X910670Y230218D01*
X910714Y230621D01*
X910769Y231023D01*
X910833Y231423D01*
X910907Y231821D01*
X910991Y232217D01*
X911085Y232612D01*
X911188Y233003D01*
X911301Y233393D01*
X911423Y233779D01*
X911555Y234162D01*
X911696Y234542D01*
X911847Y234918D01*
X912006Y235291D01*
X912175Y235659D01*
X912353Y236023D01*
X912539Y236383D01*
X912735Y236738D01*
X912939Y237088D01*
X913151Y237433D01*
X913372Y237772D01*
X913602Y238107D01*
X913839Y238435D01*
X914084Y238757D01*
X914338Y239074D01*
X914598Y239384D01*
X914867Y239687D01*
X915143Y239984D01*
X915426Y240274D01*
X915716Y240557D01*
X916013Y240833D01*
X916316Y241102D01*
X916626Y241362D01*
X916943Y241616D01*
X917265Y241861D01*
X917593Y242098D01*
X917928Y242328D01*
X918267Y242549D01*
X918612Y242761D01*
X918962Y242965D01*
X919317Y243161D01*
X919677Y243347D01*
X920041Y243525D01*
X920409Y243694D01*
X920782Y243853D01*
X921158Y244004D01*
X921538Y244145D01*
X921921Y244277D01*
X922307Y244399D01*
X922697Y244512D01*
X923088Y244615D01*
X923483Y244709D01*
X923879Y244793D01*
X924277Y244867D01*
X924677Y244931D01*
X925079Y244986D01*
X925482Y245030D01*
X925885Y245065D01*
X926290Y245090D01*
X926695Y245105D01*
X927100Y245110D01*
X927505Y245105D01*
X927910Y245090D01*
X928315Y245065D01*
X928718Y245030D01*
X929121Y244986D01*
X929523Y244931D01*
X929923Y244867D01*
X930321Y244793D01*
X930717Y244709D01*
X931112Y244615D01*
X931503Y244512D01*
X931893Y244399D01*
X932279Y244277D01*
X932662Y244145D01*
X933042Y244004D01*
X933418Y243853D01*
X933791Y243694D01*
X934159Y243525D01*
X934523Y243347D01*
X934883Y243161D01*
X935238Y242965D01*
X935588Y242761D01*
X935933Y242549D01*
X936272Y242328D01*
X936607Y242098D01*
X936935Y241861D01*
X937257Y241616D01*
X937574Y241362D01*
X937884Y241102D01*
X938187Y240833D01*
X938484Y240557D01*
X938774Y240274D01*
X939057Y239984D01*
X939333Y239687D01*
X939602Y239384D01*
X939862Y239074D01*
X940116Y238757D01*
X940361Y238435D01*
X940598Y238107D01*
X940828Y237772D01*
X941049Y237433D01*
X941261Y237088D01*
X941465Y236738D01*
X941661Y236383D01*
X941847Y236023D01*
X942025Y235659D01*
X942194Y235291D01*
X942353Y234918D01*
X942504Y234542D01*
X942645Y234162D01*
X942777Y233779D01*
X942899Y233393D01*
X943012Y233003D01*
X943115Y232612D01*
X943209Y232217D01*
X943293Y231821D01*
X943367Y231423D01*
X943431Y231023D01*
X943486Y230621D01*
X943530Y230218D01*
X943565Y229815D01*
X943590Y229410D01*
X943605Y229005D01*
X943610Y228600D01*
X943605Y228195D01*
X943590Y227790D01*
X943565Y227385D01*
X943530Y226982D01*
X943486Y226579D01*
X943431Y226177D01*
X943367Y225777D01*
X943293Y225379D01*
X943209Y224983D01*
X943115Y224588D01*
X943012Y224197D01*
X942899Y223807D01*
X942777Y223421D01*
X942645Y223038D01*
X942504Y222658D01*
X942353Y222282D01*
X942194Y221909D01*
X942025Y221541D01*
X941847Y221177D01*
X941661Y220817D01*
X941465Y220462D01*
X941261Y220112D01*
X941049Y219767D01*
X940828Y219428D01*
X940598Y219093D01*
X940361Y218765D01*
X940116Y218443D01*
X939862Y218126D01*
X939602Y217816D01*
X939333Y217513D01*
X939057Y217216D01*
X938774Y216926D01*
X938484Y216643D01*
X938187Y216367D01*
X937884Y216098D01*
X937574Y215838D01*
X937257Y215584D01*
X936935Y215339D01*
X936607Y215102D01*
X936272Y214872D01*
X935933Y214651D01*
X935588Y214439D01*
X935238Y214235D01*
X934883Y214039D01*
X934523Y213853D01*
X934159Y213675D01*
X933791Y213506D01*
X933418Y213347D01*
X933042Y213196D01*
X932662Y213055D01*
X932279Y212923D01*
X931893Y212801D01*
X931503Y212688D01*
X931112Y212585D01*
X930717Y212491D01*
X930321Y212407D01*
X929923Y212333D01*
X929523Y212269D01*
X929121Y212214D01*
X928718Y212170D01*
X928315Y212135D01*
X927910Y212110D01*
X927505Y212095D01*
X927100Y212090D01*
X926695Y212095D01*
X926290Y212110D01*
X925885Y212135D01*
X925482Y212170D01*
X925079Y212214D01*
X924677Y212269D01*
X924277Y212333D01*
X923879Y212407D01*
X923483Y212491D01*
X923088Y212585D01*
X922697Y212688D01*
X922307Y212801D01*
X921921Y212923D01*
X921538Y213055D01*
X921158Y213196D01*
X920782Y213347D01*
X920409Y213506D01*
X920041Y213675D01*
X919677Y213853D01*
X919317Y214039D01*
X918962Y214235D01*
X918612Y214439D01*
X918267Y214651D01*
X917928Y214872D01*
X917593Y215102D01*
X917265Y215339D01*
X916943Y215584D01*
X916626Y215838D01*
X916316Y216098D01*
X916013Y216367D01*
X915716Y216643D01*
X915426Y216926D01*
X915143Y217216D01*
X914867Y217513D01*
X914598Y217816D01*
X914338Y218126D01*
X914084Y218443D01*
X913839Y218765D01*
X913602Y219093D01*
X913372Y219428D01*
X913151Y219767D01*
X912939Y220112D01*
X912735Y220462D01*
X912539Y220817D01*
X912353Y221177D01*
X912175Y221541D01*
X912006Y221909D01*
X911847Y222282D01*
X911696Y222658D01*
X911555Y223038D01*
X911423Y223421D01*
X911301Y223807D01*
X911188Y224197D01*
X911085Y224588D01*
X910991Y224983D01*
X910907Y225379D01*
X910833Y225777D01*
X910769Y226177D01*
X910714Y226579D01*
X910670Y226982D01*
X910635Y227385D01*
X910610Y227790D01*
X910595Y228195D01*
X910590Y228600D01*
X1812290Y889000D02*
X1812295Y889405D01*
X1812310Y889810D01*
X1812335Y890215D01*
X1812370Y890618D01*
X1812414Y891021D01*
X1812469Y891423D01*
X1812533Y891823D01*
X1812607Y892221D01*
X1812691Y892617D01*
X1812785Y893012D01*
X1812888Y893403D01*
X1813001Y893793D01*
X1813123Y894179D01*
X1813255Y894562D01*
X1813396Y894942D01*
X1813547Y895318D01*
X1813706Y895691D01*
X1813875Y896059D01*
X1814053Y896423D01*
X1814239Y896783D01*
X1814435Y897138D01*
X1814639Y897488D01*
X1814851Y897833D01*
X1815072Y898172D01*
X1815302Y898507D01*
X1815539Y898835D01*
X1815784Y899157D01*
X1816038Y899474D01*
X1816298Y899784D01*
X1816567Y900087D01*
X1816843Y900384D01*
X1817126Y900674D01*
X1817416Y900957D01*
X1817713Y901233D01*
X1818016Y901502D01*
X1818326Y901762D01*
X1818643Y902016D01*
X1818965Y902261D01*
X1819293Y902498D01*
X1819628Y902728D01*
X1819967Y902949D01*
X1820312Y903161D01*
X1820662Y903365D01*
X1821017Y903561D01*
X1821377Y903747D01*
X1821741Y903925D01*
X1822109Y904094D01*
X1822482Y904253D01*
X1822858Y904404D01*
X1823238Y904545D01*
X1823621Y904677D01*
X1824007Y904799D01*
X1824397Y904912D01*
X1824788Y905015D01*
X1825183Y905109D01*
X1825579Y905193D01*
X1825977Y905267D01*
X1826377Y905331D01*
X1826779Y905386D01*
X1827182Y905430D01*
X1827585Y905465D01*
X1827990Y905490D01*
X1828395Y905505D01*
X1828800Y905510D01*
X1829205Y905505D01*
X1829610Y905490D01*
X1830015Y905465D01*
X1830418Y905430D01*
X1830821Y905386D01*
X1831223Y905331D01*
X1831623Y905267D01*
X1832021Y905193D01*
X1832417Y905109D01*
X1832812Y905015D01*
X1833203Y904912D01*
X1833593Y904799D01*
X1833979Y904677D01*
X1834362Y904545D01*
X1834742Y904404D01*
X1835118Y904253D01*
X1835491Y904094D01*
X1835859Y903925D01*
X1836223Y903747D01*
X1836583Y903561D01*
X1836938Y903365D01*
X1837288Y903161D01*
X1837633Y902949D01*
X1837972Y902728D01*
X1838307Y902498D01*
X1838635Y902261D01*
X1838957Y902016D01*
X1839274Y901762D01*
X1839584Y901502D01*
X1839887Y901233D01*
X1840184Y900957D01*
X1840474Y900674D01*
X1840757Y900384D01*
X1841033Y900087D01*
X1841302Y899784D01*
X1841562Y899474D01*
X1841816Y899157D01*
X1842061Y898835D01*
X1842298Y898507D01*
X1842528Y898172D01*
X1842749Y897833D01*
X1842961Y897488D01*
X1843165Y897138D01*
X1843361Y896783D01*
X1843547Y896423D01*
X1843725Y896059D01*
X1843894Y895691D01*
X1844053Y895318D01*
X1844204Y894942D01*
X1844345Y894562D01*
X1844477Y894179D01*
X1844599Y893793D01*
X1844712Y893403D01*
X1844815Y893012D01*
X1844909Y892617D01*
X1844993Y892221D01*
X1845067Y891823D01*
X1845131Y891423D01*
X1845186Y891021D01*
X1845230Y890618D01*
X1845265Y890215D01*
X1845290Y889810D01*
X1845305Y889405D01*
X1845310Y889000D01*
X1845305Y888595D01*
X1845290Y888190D01*
X1845265Y887785D01*
X1845230Y887382D01*
X1845186Y886979D01*
X1845131Y886577D01*
X1845067Y886177D01*
X1844993Y885779D01*
X1844909Y885383D01*
X1844815Y884988D01*
X1844712Y884597D01*
X1844599Y884207D01*
X1844477Y883821D01*
X1844345Y883438D01*
X1844204Y883058D01*
X1844053Y882682D01*
X1843894Y882309D01*
X1843725Y881941D01*
X1843547Y881577D01*
X1843361Y881217D01*
X1843165Y880862D01*
X1842961Y880512D01*
X1842749Y880167D01*
X1842528Y879828D01*
X1842298Y879493D01*
X1842061Y879165D01*
X1841816Y878843D01*
X1841562Y878526D01*
X1841302Y878216D01*
X1841033Y877913D01*
X1840757Y877616D01*
X1840474Y877326D01*
X1840184Y877043D01*
X1839887Y876767D01*
X1839584Y876498D01*
X1839274Y876238D01*
X1838957Y875984D01*
X1838635Y875739D01*
X1838307Y875502D01*
X1837972Y875272D01*
X1837633Y875051D01*
X1837288Y874839D01*
X1836938Y874635D01*
X1836583Y874439D01*
X1836223Y874253D01*
X1835859Y874075D01*
X1835491Y873906D01*
X1835118Y873747D01*
X1834742Y873596D01*
X1834362Y873455D01*
X1833979Y873323D01*
X1833593Y873201D01*
X1833203Y873088D01*
X1832812Y872985D01*
X1832417Y872891D01*
X1832021Y872807D01*
X1831623Y872733D01*
X1831223Y872669D01*
X1830821Y872614D01*
X1830418Y872570D01*
X1830015Y872535D01*
X1829610Y872510D01*
X1829205Y872495D01*
X1828800Y872490D01*
X1828395Y872495D01*
X1827990Y872510D01*
X1827585Y872535D01*
X1827182Y872570D01*
X1826779Y872614D01*
X1826377Y872669D01*
X1825977Y872733D01*
X1825579Y872807D01*
X1825183Y872891D01*
X1824788Y872985D01*
X1824397Y873088D01*
X1824007Y873201D01*
X1823621Y873323D01*
X1823238Y873455D01*
X1822858Y873596D01*
X1822482Y873747D01*
X1822109Y873906D01*
X1821741Y874075D01*
X1821377Y874253D01*
X1821017Y874439D01*
X1820662Y874635D01*
X1820312Y874839D01*
X1819967Y875051D01*
X1819628Y875272D01*
X1819293Y875502D01*
X1818965Y875739D01*
X1818643Y875984D01*
X1818326Y876238D01*
X1818016Y876498D01*
X1817713Y876767D01*
X1817416Y877043D01*
X1817126Y877326D01*
X1816843Y877616D01*
X1816567Y877913D01*
X1816298Y878216D01*
X1816038Y878526D01*
X1815784Y878843D01*
X1815539Y879165D01*
X1815302Y879493D01*
X1815072Y879828D01*
X1814851Y880167D01*
X1814639Y880512D01*
X1814435Y880862D01*
X1814239Y881217D01*
X1814053Y881577D01*
X1813875Y881941D01*
X1813706Y882309D01*
X1813547Y882682D01*
X1813396Y883058D01*
X1813255Y883438D01*
X1813123Y883821D01*
X1813001Y884207D01*
X1812888Y884597D01*
X1812785Y884988D01*
X1812691Y885383D01*
X1812607Y885779D01*
X1812533Y886177D01*
X1812469Y886577D01*
X1812414Y886979D01*
X1812370Y887382D01*
X1812335Y887785D01*
X1812310Y888190D01*
X1812295Y888595D01*
X1812290Y889000D01*
X910590Y889000D02*
X910595Y889405D01*
X910610Y889810D01*
X910635Y890215D01*
X910670Y890618D01*
X910714Y891021D01*
X910769Y891423D01*
X910833Y891823D01*
X910907Y892221D01*
X910991Y892617D01*
X911085Y893012D01*
X911188Y893403D01*
X911301Y893793D01*
X911423Y894179D01*
X911555Y894562D01*
X911696Y894942D01*
X911847Y895318D01*
X912006Y895691D01*
X912175Y896059D01*
X912353Y896423D01*
X912539Y896783D01*
X912735Y897138D01*
X912939Y897488D01*
X913151Y897833D01*
X913372Y898172D01*
X913602Y898507D01*
X913839Y898835D01*
X914084Y899157D01*
X914338Y899474D01*
X914598Y899784D01*
X914867Y900087D01*
X915143Y900384D01*
X915426Y900674D01*
X915716Y900957D01*
X916013Y901233D01*
X916316Y901502D01*
X916626Y901762D01*
X916943Y902016D01*
X917265Y902261D01*
X917593Y902498D01*
X917928Y902728D01*
X918267Y902949D01*
X918612Y903161D01*
X918962Y903365D01*
X919317Y903561D01*
X919677Y903747D01*
X920041Y903925D01*
X920409Y904094D01*
X920782Y904253D01*
X921158Y904404D01*
X921538Y904545D01*
X921921Y904677D01*
X922307Y904799D01*
X922697Y904912D01*
X923088Y905015D01*
X923483Y905109D01*
X923879Y905193D01*
X924277Y905267D01*
X924677Y905331D01*
X925079Y905386D01*
X925482Y905430D01*
X925885Y905465D01*
X926290Y905490D01*
X926695Y905505D01*
X927100Y905510D01*
X927505Y905505D01*
X927910Y905490D01*
X928315Y905465D01*
X928718Y905430D01*
X929121Y905386D01*
X929523Y905331D01*
X929923Y905267D01*
X930321Y905193D01*
X930717Y905109D01*
X931112Y905015D01*
X931503Y904912D01*
X931893Y904799D01*
X932279Y904677D01*
X932662Y904545D01*
X933042Y904404D01*
X933418Y904253D01*
X933791Y904094D01*
X934159Y903925D01*
X934523Y903747D01*
X934883Y903561D01*
X935238Y903365D01*
X935588Y903161D01*
X935933Y902949D01*
X936272Y902728D01*
X936607Y902498D01*
X936935Y902261D01*
X937257Y902016D01*
X937574Y901762D01*
X937884Y901502D01*
X938187Y901233D01*
X938484Y900957D01*
X938774Y900674D01*
X939057Y900384D01*
X939333Y900087D01*
X939602Y899784D01*
X939862Y899474D01*
X940116Y899157D01*
X940361Y898835D01*
X940598Y898507D01*
X940828Y898172D01*
X941049Y897833D01*
X941261Y897488D01*
X941465Y897138D01*
X941661Y896783D01*
X941847Y896423D01*
X942025Y896059D01*
X942194Y895691D01*
X942353Y895318D01*
X942504Y894942D01*
X942645Y894562D01*
X942777Y894179D01*
X942899Y893793D01*
X943012Y893403D01*
X943115Y893012D01*
X943209Y892617D01*
X943293Y892221D01*
X943367Y891823D01*
X943431Y891423D01*
X943486Y891021D01*
X943530Y890618D01*
X943565Y890215D01*
X943590Y889810D01*
X943605Y889405D01*
X943610Y889000D01*
X943605Y888595D01*
X943590Y888190D01*
X943565Y887785D01*
X943530Y887382D01*
X943486Y886979D01*
X943431Y886577D01*
X943367Y886177D01*
X943293Y885779D01*
X943209Y885383D01*
X943115Y884988D01*
X943012Y884597D01*
X942899Y884207D01*
X942777Y883821D01*
X942645Y883438D01*
X942504Y883058D01*
X942353Y882682D01*
X942194Y882309D01*
X942025Y881941D01*
X941847Y881577D01*
X941661Y881217D01*
X941465Y880862D01*
X941261Y880512D01*
X941049Y880167D01*
X940828Y879828D01*
X940598Y879493D01*
X940361Y879165D01*
X940116Y878843D01*
X939862Y878526D01*
X939602Y878216D01*
X939333Y877913D01*
X939057Y877616D01*
X938774Y877326D01*
X938484Y877043D01*
X938187Y876767D01*
X937884Y876498D01*
X937574Y876238D01*
X937257Y875984D01*
X936935Y875739D01*
X936607Y875502D01*
X936272Y875272D01*
X935933Y875051D01*
X935588Y874839D01*
X935238Y874635D01*
X934883Y874439D01*
X934523Y874253D01*
X934159Y874075D01*
X933791Y873906D01*
X933418Y873747D01*
X933042Y873596D01*
X932662Y873455D01*
X932279Y873323D01*
X931893Y873201D01*
X931503Y873088D01*
X931112Y872985D01*
X930717Y872891D01*
X930321Y872807D01*
X929923Y872733D01*
X929523Y872669D01*
X929121Y872614D01*
X928718Y872570D01*
X928315Y872535D01*
X927910Y872510D01*
X927505Y872495D01*
X927100Y872490D01*
X926695Y872495D01*
X926290Y872510D01*
X925885Y872535D01*
X925482Y872570D01*
X925079Y872614D01*
X924677Y872669D01*
X924277Y872733D01*
X923879Y872807D01*
X923483Y872891D01*
X923088Y872985D01*
X922697Y873088D01*
X922307Y873201D01*
X921921Y873323D01*
X921538Y873455D01*
X921158Y873596D01*
X920782Y873747D01*
X920409Y873906D01*
X920041Y874075D01*
X919677Y874253D01*
X919317Y874439D01*
X918962Y874635D01*
X918612Y874839D01*
X918267Y875051D01*
X917928Y875272D01*
X917593Y875502D01*
X917265Y875739D01*
X916943Y875984D01*
X916626Y876238D01*
X916316Y876498D01*
X916013Y876767D01*
X915716Y877043D01*
X915426Y877326D01*
X915143Y877616D01*
X914867Y877913D01*
X914598Y878216D01*
X914338Y878526D01*
X914084Y878843D01*
X913839Y879165D01*
X913602Y879493D01*
X913372Y879828D01*
X913151Y880167D01*
X912939Y880512D01*
X912735Y880862D01*
X912539Y881217D01*
X912353Y881577D01*
X912175Y881941D01*
X912006Y882309D01*
X911847Y882682D01*
X911696Y883058D01*
X911555Y883438D01*
X911423Y883821D01*
X911301Y884207D01*
X911188Y884597D01*
X911085Y884988D01*
X910991Y885383D01*
X910907Y885779D01*
X910833Y886177D01*
X910769Y886577D01*
X910714Y886979D01*
X910670Y887382D01*
X910635Y887785D01*
X910610Y888190D01*
X910595Y888595D01*
X910590Y889000D01*
X8890Y889000D02*
X8895Y889405D01*
X8910Y889810D01*
X8935Y890215D01*
X8970Y890618D01*
X9014Y891021D01*
X9069Y891423D01*
X9133Y891823D01*
X9207Y892221D01*
X9291Y892617D01*
X9385Y893012D01*
X9488Y893403D01*
X9601Y893793D01*
X9723Y894179D01*
X9855Y894562D01*
X9996Y894942D01*
X10147Y895318D01*
X10306Y895691D01*
X10475Y896059D01*
X10653Y896423D01*
X10839Y896783D01*
X11035Y897138D01*
X11239Y897488D01*
X11451Y897833D01*
X11672Y898172D01*
X11902Y898507D01*
X12139Y898835D01*
X12384Y899157D01*
X12638Y899474D01*
X12898Y899784D01*
X13167Y900087D01*
X13443Y900384D01*
X13726Y900674D01*
X14016Y900957D01*
X14313Y901233D01*
X14616Y901502D01*
X14926Y901762D01*
X15243Y902016D01*
X15565Y902261D01*
X15893Y902498D01*
X16228Y902728D01*
X16567Y902949D01*
X16912Y903161D01*
X17262Y903365D01*
X17617Y903561D01*
X17977Y903747D01*
X18341Y903925D01*
X18709Y904094D01*
X19082Y904253D01*
X19458Y904404D01*
X19838Y904545D01*
X20221Y904677D01*
X20607Y904799D01*
X20997Y904912D01*
X21388Y905015D01*
X21783Y905109D01*
X22179Y905193D01*
X22577Y905267D01*
X22977Y905331D01*
X23379Y905386D01*
X23782Y905430D01*
X24185Y905465D01*
X24590Y905490D01*
X24995Y905505D01*
X25400Y905510D01*
X25805Y905505D01*
X26210Y905490D01*
X26615Y905465D01*
X27018Y905430D01*
X27421Y905386D01*
X27823Y905331D01*
X28223Y905267D01*
X28621Y905193D01*
X29017Y905109D01*
X29412Y905015D01*
X29803Y904912D01*
X30193Y904799D01*
X30579Y904677D01*
X30962Y904545D01*
X31342Y904404D01*
X31718Y904253D01*
X32091Y904094D01*
X32459Y903925D01*
X32823Y903747D01*
X33183Y903561D01*
X33538Y903365D01*
X33888Y903161D01*
X34233Y902949D01*
X34572Y902728D01*
X34907Y902498D01*
X35235Y902261D01*
X35557Y902016D01*
X35874Y901762D01*
X36184Y901502D01*
X36487Y901233D01*
X36784Y900957D01*
X37074Y900674D01*
X37357Y900384D01*
X37633Y900087D01*
X37902Y899784D01*
X38162Y899474D01*
X38416Y899157D01*
X38661Y898835D01*
X38898Y898507D01*
X39128Y898172D01*
X39349Y897833D01*
X39561Y897488D01*
X39765Y897138D01*
X39961Y896783D01*
X40147Y896423D01*
X40325Y896059D01*
X40494Y895691D01*
X40653Y895318D01*
X40804Y894942D01*
X40945Y894562D01*
X41077Y894179D01*
X41199Y893793D01*
X41312Y893403D01*
X41415Y893012D01*
X41509Y892617D01*
X41593Y892221D01*
X41667Y891823D01*
X41731Y891423D01*
X41786Y891021D01*
X41830Y890618D01*
X41865Y890215D01*
X41890Y889810D01*
X41905Y889405D01*
X41910Y889000D01*
X41905Y888595D01*
X41890Y888190D01*
X41865Y887785D01*
X41830Y887382D01*
X41786Y886979D01*
X41731Y886577D01*
X41667Y886177D01*
X41593Y885779D01*
X41509Y885383D01*
X41415Y884988D01*
X41312Y884597D01*
X41199Y884207D01*
X41077Y883821D01*
X40945Y883438D01*
X40804Y883058D01*
X40653Y882682D01*
X40494Y882309D01*
X40325Y881941D01*
X40147Y881577D01*
X39961Y881217D01*
X39765Y880862D01*
X39561Y880512D01*
X39349Y880167D01*
X39128Y879828D01*
X38898Y879493D01*
X38661Y879165D01*
X38416Y878843D01*
X38162Y878526D01*
X37902Y878216D01*
X37633Y877913D01*
X37357Y877616D01*
X37074Y877326D01*
X36784Y877043D01*
X36487Y876767D01*
X36184Y876498D01*
X35874Y876238D01*
X35557Y875984D01*
X35235Y875739D01*
X34907Y875502D01*
X34572Y875272D01*
X34233Y875051D01*
X33888Y874839D01*
X33538Y874635D01*
X33183Y874439D01*
X32823Y874253D01*
X32459Y874075D01*
X32091Y873906D01*
X31718Y873747D01*
X31342Y873596D01*
X30962Y873455D01*
X30579Y873323D01*
X30193Y873201D01*
X29803Y873088D01*
X29412Y872985D01*
X29017Y872891D01*
X28621Y872807D01*
X28223Y872733D01*
X27823Y872669D01*
X27421Y872614D01*
X27018Y872570D01*
X26615Y872535D01*
X26210Y872510D01*
X25805Y872495D01*
X25400Y872490D01*
X24995Y872495D01*
X24590Y872510D01*
X24185Y872535D01*
X23782Y872570D01*
X23379Y872614D01*
X22977Y872669D01*
X22577Y872733D01*
X22179Y872807D01*
X21783Y872891D01*
X21388Y872985D01*
X20997Y873088D01*
X20607Y873201D01*
X20221Y873323D01*
X19838Y873455D01*
X19458Y873596D01*
X19082Y873747D01*
X18709Y873906D01*
X18341Y874075D01*
X17977Y874253D01*
X17617Y874439D01*
X17262Y874635D01*
X16912Y874839D01*
X16567Y875051D01*
X16228Y875272D01*
X15893Y875502D01*
X15565Y875739D01*
X15243Y875984D01*
X14926Y876238D01*
X14616Y876498D01*
X14313Y876767D01*
X14016Y877043D01*
X13726Y877326D01*
X13443Y877616D01*
X13167Y877913D01*
X12898Y878216D01*
X12638Y878526D01*
X12384Y878843D01*
X12139Y879165D01*
X11902Y879493D01*
X11672Y879828D01*
X11451Y880167D01*
X11239Y880512D01*
X11035Y880862D01*
X10839Y881217D01*
X10653Y881577D01*
X10475Y881941D01*
X10306Y882309D01*
X10147Y882682D01*
X9996Y883058D01*
X9855Y883438D01*
X9723Y883821D01*
X9601Y884207D01*
X9488Y884597D01*
X9385Y884988D01*
X9291Y885383D01*
X9207Y885779D01*
X9133Y886177D01*
X9069Y886577D01*
X9014Y886979D01*
X8970Y887382D01*
X8935Y887785D01*
X8910Y888190D01*
X8895Y888595D01*
X8890Y889000D01*
X1812290Y944880D02*
X1812295Y945285D01*
X1812310Y945690D01*
X1812335Y946095D01*
X1812370Y946498D01*
X1812414Y946901D01*
X1812469Y947303D01*
X1812533Y947703D01*
X1812607Y948101D01*
X1812691Y948497D01*
X1812785Y948892D01*
X1812888Y949283D01*
X1813001Y949673D01*
X1813123Y950059D01*
X1813255Y950442D01*
X1813396Y950822D01*
X1813547Y951198D01*
X1813706Y951571D01*
X1813875Y951939D01*
X1814053Y952303D01*
X1814239Y952663D01*
X1814435Y953018D01*
X1814639Y953368D01*
X1814851Y953713D01*
X1815072Y954052D01*
X1815302Y954387D01*
X1815539Y954715D01*
X1815784Y955037D01*
X1816038Y955354D01*
X1816298Y955664D01*
X1816567Y955967D01*
X1816843Y956264D01*
X1817126Y956554D01*
X1817416Y956837D01*
X1817713Y957113D01*
X1818016Y957382D01*
X1818326Y957642D01*
X1818643Y957896D01*
X1818965Y958141D01*
X1819293Y958378D01*
X1819628Y958608D01*
X1819967Y958829D01*
X1820312Y959041D01*
X1820662Y959245D01*
X1821017Y959441D01*
X1821377Y959627D01*
X1821741Y959805D01*
X1822109Y959974D01*
X1822482Y960133D01*
X1822858Y960284D01*
X1823238Y960425D01*
X1823621Y960557D01*
X1824007Y960679D01*
X1824397Y960792D01*
X1824788Y960895D01*
X1825183Y960989D01*
X1825579Y961073D01*
X1825977Y961147D01*
X1826377Y961211D01*
X1826779Y961266D01*
X1827182Y961310D01*
X1827585Y961345D01*
X1827990Y961370D01*
X1828395Y961385D01*
X1828800Y961390D01*
X1829205Y961385D01*
X1829610Y961370D01*
X1830015Y961345D01*
X1830418Y961310D01*
X1830821Y961266D01*
X1831223Y961211D01*
X1831623Y961147D01*
X1832021Y961073D01*
X1832417Y960989D01*
X1832812Y960895D01*
X1833203Y960792D01*
X1833593Y960679D01*
X1833979Y960557D01*
X1834362Y960425D01*
X1834742Y960284D01*
X1835118Y960133D01*
X1835491Y959974D01*
X1835859Y959805D01*
X1836223Y959627D01*
X1836583Y959441D01*
X1836938Y959245D01*
X1837288Y959041D01*
X1837633Y958829D01*
X1837972Y958608D01*
X1838307Y958378D01*
X1838635Y958141D01*
X1838957Y957896D01*
X1839274Y957642D01*
X1839584Y957382D01*
X1839887Y957113D01*
X1840184Y956837D01*
X1840474Y956554D01*
X1840757Y956264D01*
X1841033Y955967D01*
X1841302Y955664D01*
X1841562Y955354D01*
X1841816Y955037D01*
X1842061Y954715D01*
X1842298Y954387D01*
X1842528Y954052D01*
X1842749Y953713D01*
X1842961Y953368D01*
X1843165Y953018D01*
X1843361Y952663D01*
X1843547Y952303D01*
X1843725Y951939D01*
X1843894Y951571D01*
X1844053Y951198D01*
X1844204Y950822D01*
X1844345Y950442D01*
X1844477Y950059D01*
X1844599Y949673D01*
X1844712Y949283D01*
X1844815Y948892D01*
X1844909Y948497D01*
X1844993Y948101D01*
X1845067Y947703D01*
X1845131Y947303D01*
X1845186Y946901D01*
X1845230Y946498D01*
X1845265Y946095D01*
X1845290Y945690D01*
X1845305Y945285D01*
X1845310Y944880D01*
X1845305Y944475D01*
X1845290Y944070D01*
X1845265Y943665D01*
X1845230Y943262D01*
X1845186Y942859D01*
X1845131Y942457D01*
X1845067Y942057D01*
X1844993Y941659D01*
X1844909Y941263D01*
X1844815Y940868D01*
X1844712Y940477D01*
X1844599Y940087D01*
X1844477Y939701D01*
X1844345Y939318D01*
X1844204Y938938D01*
X1844053Y938562D01*
X1843894Y938189D01*
X1843725Y937821D01*
X1843547Y937457D01*
X1843361Y937097D01*
X1843165Y936742D01*
X1842961Y936392D01*
X1842749Y936047D01*
X1842528Y935708D01*
X1842298Y935373D01*
X1842061Y935045D01*
X1841816Y934723D01*
X1841562Y934406D01*
X1841302Y934096D01*
X1841033Y933793D01*
X1840757Y933496D01*
X1840474Y933206D01*
X1840184Y932923D01*
X1839887Y932647D01*
X1839584Y932378D01*
X1839274Y932118D01*
X1838957Y931864D01*
X1838635Y931619D01*
X1838307Y931382D01*
X1837972Y931152D01*
X1837633Y930931D01*
X1837288Y930719D01*
X1836938Y930515D01*
X1836583Y930319D01*
X1836223Y930133D01*
X1835859Y929955D01*
X1835491Y929786D01*
X1835118Y929627D01*
X1834742Y929476D01*
X1834362Y929335D01*
X1833979Y929203D01*
X1833593Y929081D01*
X1833203Y928968D01*
X1832812Y928865D01*
X1832417Y928771D01*
X1832021Y928687D01*
X1831623Y928613D01*
X1831223Y928549D01*
X1830821Y928494D01*
X1830418Y928450D01*
X1830015Y928415D01*
X1829610Y928390D01*
X1829205Y928375D01*
X1828800Y928370D01*
X1828395Y928375D01*
X1827990Y928390D01*
X1827585Y928415D01*
X1827182Y928450D01*
X1826779Y928494D01*
X1826377Y928549D01*
X1825977Y928613D01*
X1825579Y928687D01*
X1825183Y928771D01*
X1824788Y928865D01*
X1824397Y928968D01*
X1824007Y929081D01*
X1823621Y929203D01*
X1823238Y929335D01*
X1822858Y929476D01*
X1822482Y929627D01*
X1822109Y929786D01*
X1821741Y929955D01*
X1821377Y930133D01*
X1821017Y930319D01*
X1820662Y930515D01*
X1820312Y930719D01*
X1819967Y930931D01*
X1819628Y931152D01*
X1819293Y931382D01*
X1818965Y931619D01*
X1818643Y931864D01*
X1818326Y932118D01*
X1818016Y932378D01*
X1817713Y932647D01*
X1817416Y932923D01*
X1817126Y933206D01*
X1816843Y933496D01*
X1816567Y933793D01*
X1816298Y934096D01*
X1816038Y934406D01*
X1815784Y934723D01*
X1815539Y935045D01*
X1815302Y935373D01*
X1815072Y935708D01*
X1814851Y936047D01*
X1814639Y936392D01*
X1814435Y936742D01*
X1814239Y937097D01*
X1814053Y937457D01*
X1813875Y937821D01*
X1813706Y938189D01*
X1813547Y938562D01*
X1813396Y938938D01*
X1813255Y939318D01*
X1813123Y939701D01*
X1813001Y940087D01*
X1812888Y940477D01*
X1812785Y940868D01*
X1812691Y941263D01*
X1812607Y941659D01*
X1812533Y942057D01*
X1812469Y942457D01*
X1812414Y942859D01*
X1812370Y943262D01*
X1812335Y943665D01*
X1812310Y944070D01*
X1812295Y944475D01*
X1812290Y944880D01*
X8890Y1148080D02*
X8895Y1148485D01*
X8910Y1148890D01*
X8935Y1149295D01*
X8970Y1149698D01*
X9014Y1150101D01*
X9069Y1150503D01*
X9133Y1150903D01*
X9207Y1151301D01*
X9291Y1151697D01*
X9385Y1152092D01*
X9488Y1152483D01*
X9601Y1152873D01*
X9723Y1153259D01*
X9855Y1153642D01*
X9996Y1154022D01*
X10147Y1154398D01*
X10306Y1154771D01*
X10475Y1155139D01*
X10653Y1155503D01*
X10839Y1155863D01*
X11035Y1156218D01*
X11239Y1156568D01*
X11451Y1156913D01*
X11672Y1157252D01*
X11902Y1157587D01*
X12139Y1157915D01*
X12384Y1158237D01*
X12638Y1158554D01*
X12898Y1158864D01*
X13167Y1159167D01*
X13443Y1159464D01*
X13726Y1159754D01*
X14016Y1160037D01*
X14313Y1160313D01*
X14616Y1160582D01*
X14926Y1160842D01*
X15243Y1161096D01*
X15565Y1161341D01*
X15893Y1161578D01*
X16228Y1161808D01*
X16567Y1162029D01*
X16912Y1162241D01*
X17262Y1162445D01*
X17617Y1162641D01*
X17977Y1162827D01*
X18341Y1163005D01*
X18709Y1163174D01*
X19082Y1163333D01*
X19458Y1163484D01*
X19838Y1163625D01*
X20221Y1163757D01*
X20607Y1163879D01*
X20997Y1163992D01*
X21388Y1164095D01*
X21783Y1164189D01*
X22179Y1164273D01*
X22577Y1164347D01*
X22977Y1164411D01*
X23379Y1164466D01*
X23782Y1164510D01*
X24185Y1164545D01*
X24590Y1164570D01*
X24995Y1164585D01*
X25400Y1164590D01*
X25805Y1164585D01*
X26210Y1164570D01*
X26615Y1164545D01*
X27018Y1164510D01*
X27421Y1164466D01*
X27823Y1164411D01*
X28223Y1164347D01*
X28621Y1164273D01*
X29017Y1164189D01*
X29412Y1164095D01*
X29803Y1163992D01*
X30193Y1163879D01*
X30579Y1163757D01*
X30962Y1163625D01*
X31342Y1163484D01*
X31718Y1163333D01*
X32091Y1163174D01*
X32459Y1163005D01*
X32823Y1162827D01*
X33183Y1162641D01*
X33538Y1162445D01*
X33888Y1162241D01*
X34233Y1162029D01*
X34572Y1161808D01*
X34907Y1161578D01*
X35235Y1161341D01*
X35557Y1161096D01*
X35874Y1160842D01*
X36184Y1160582D01*
X36487Y1160313D01*
X36784Y1160037D01*
X37074Y1159754D01*
X37357Y1159464D01*
X37633Y1159167D01*
X37902Y1158864D01*
X38162Y1158554D01*
X38416Y1158237D01*
X38661Y1157915D01*
X38898Y1157587D01*
X39128Y1157252D01*
X39349Y1156913D01*
X39561Y1156568D01*
X39765Y1156218D01*
X39961Y1155863D01*
X40147Y1155503D01*
X40325Y1155139D01*
X40494Y1154771D01*
X40653Y1154398D01*
X40804Y1154022D01*
X40945Y1153642D01*
X41077Y1153259D01*
X41199Y1152873D01*
X41312Y1152483D01*
X41415Y1152092D01*
X41509Y1151697D01*
X41593Y1151301D01*
X41667Y1150903D01*
X41731Y1150503D01*
X41786Y1150101D01*
X41830Y1149698D01*
X41865Y1149295D01*
X41890Y1148890D01*
X41905Y1148485D01*
X41910Y1148080D01*
X41905Y1147675D01*
X41890Y1147270D01*
X41865Y1146865D01*
X41830Y1146462D01*
X41786Y1146059D01*
X41731Y1145657D01*
X41667Y1145257D01*
X41593Y1144859D01*
X41509Y1144463D01*
X41415Y1144068D01*
X41312Y1143677D01*
X41199Y1143287D01*
X41077Y1142901D01*
X40945Y1142518D01*
X40804Y1142138D01*
X40653Y1141762D01*
X40494Y1141389D01*
X40325Y1141021D01*
X40147Y1140657D01*
X39961Y1140297D01*
X39765Y1139942D01*
X39561Y1139592D01*
X39349Y1139247D01*
X39128Y1138908D01*
X38898Y1138573D01*
X38661Y1138245D01*
X38416Y1137923D01*
X38162Y1137606D01*
X37902Y1137296D01*
X37633Y1136993D01*
X37357Y1136696D01*
X37074Y1136406D01*
X36784Y1136123D01*
X36487Y1135847D01*
X36184Y1135578D01*
X35874Y1135318D01*
X35557Y1135064D01*
X35235Y1134819D01*
X34907Y1134582D01*
X34572Y1134352D01*
X34233Y1134131D01*
X33888Y1133919D01*
X33538Y1133715D01*
X33183Y1133519D01*
X32823Y1133333D01*
X32459Y1133155D01*
X32091Y1132986D01*
X31718Y1132827D01*
X31342Y1132676D01*
X30962Y1132535D01*
X30579Y1132403D01*
X30193Y1132281D01*
X29803Y1132168D01*
X29412Y1132065D01*
X29017Y1131971D01*
X28621Y1131887D01*
X28223Y1131813D01*
X27823Y1131749D01*
X27421Y1131694D01*
X27018Y1131650D01*
X26615Y1131615D01*
X26210Y1131590D01*
X25805Y1131575D01*
X25400Y1131570D01*
X24995Y1131575D01*
X24590Y1131590D01*
X24185Y1131615D01*
X23782Y1131650D01*
X23379Y1131694D01*
X22977Y1131749D01*
X22577Y1131813D01*
X22179Y1131887D01*
X21783Y1131971D01*
X21388Y1132065D01*
X20997Y1132168D01*
X20607Y1132281D01*
X20221Y1132403D01*
X19838Y1132535D01*
X19458Y1132676D01*
X19082Y1132827D01*
X18709Y1132986D01*
X18341Y1133155D01*
X17977Y1133333D01*
X17617Y1133519D01*
X17262Y1133715D01*
X16912Y1133919D01*
X16567Y1134131D01*
X16228Y1134352D01*
X15893Y1134582D01*
X15565Y1134819D01*
X15243Y1135064D01*
X14926Y1135318D01*
X14616Y1135578D01*
X14313Y1135847D01*
X14016Y1136123D01*
X13726Y1136406D01*
X13443Y1136696D01*
X13167Y1136993D01*
X12898Y1137296D01*
X12638Y1137606D01*
X12384Y1137923D01*
X12139Y1138245D01*
X11902Y1138573D01*
X11672Y1138908D01*
X11451Y1139247D01*
X11239Y1139592D01*
X11035Y1139942D01*
X10839Y1140297D01*
X10653Y1140657D01*
X10475Y1141021D01*
X10306Y1141389D01*
X10147Y1141762D01*
X9996Y1142138D01*
X9855Y1142518D01*
X9723Y1142901D01*
X9601Y1143287D01*
X9488Y1143677D01*
X9385Y1144068D01*
X9291Y1144463D01*
X9207Y1144859D01*
X9133Y1145257D01*
X9069Y1145657D01*
X9014Y1146059D01*
X8970Y1146462D01*
X8935Y1146865D01*
X8910Y1147270D01*
X8895Y1147675D01*
X8890Y1148080D01*
X8890Y944880D02*
X8895Y945285D01*
X8910Y945690D01*
X8935Y946095D01*
X8970Y946498D01*
X9014Y946901D01*
X9069Y947303D01*
X9133Y947703D01*
X9207Y948101D01*
X9291Y948497D01*
X9385Y948892D01*
X9488Y949283D01*
X9601Y949673D01*
X9723Y950059D01*
X9855Y950442D01*
X9996Y950822D01*
X10147Y951198D01*
X10306Y951571D01*
X10475Y951939D01*
X10653Y952303D01*
X10839Y952663D01*
X11035Y953018D01*
X11239Y953368D01*
X11451Y953713D01*
X11672Y954052D01*
X11902Y954387D01*
X12139Y954715D01*
X12384Y955037D01*
X12638Y955354D01*
X12898Y955664D01*
X13167Y955967D01*
X13443Y956264D01*
X13726Y956554D01*
X14016Y956837D01*
X14313Y957113D01*
X14616Y957382D01*
X14926Y957642D01*
X15243Y957896D01*
X15565Y958141D01*
X15893Y958378D01*
X16228Y958608D01*
X16567Y958829D01*
X16912Y959041D01*
X17262Y959245D01*
X17617Y959441D01*
X17977Y959627D01*
X18341Y959805D01*
X18709Y959974D01*
X19082Y960133D01*
X19458Y960284D01*
X19838Y960425D01*
X20221Y960557D01*
X20607Y960679D01*
X20997Y960792D01*
X21388Y960895D01*
X21783Y960989D01*
X22179Y961073D01*
X22577Y961147D01*
X22977Y961211D01*
X23379Y961266D01*
X23782Y961310D01*
X24185Y961345D01*
X24590Y961370D01*
X24995Y961385D01*
X25400Y961390D01*
X25805Y961385D01*
X26210Y961370D01*
X26615Y961345D01*
X27018Y961310D01*
X27421Y961266D01*
X27823Y961211D01*
X28223Y961147D01*
X28621Y961073D01*
X29017Y960989D01*
X29412Y960895D01*
X29803Y960792D01*
X30193Y960679D01*
X30579Y960557D01*
X30962Y960425D01*
X31342Y960284D01*
X31718Y960133D01*
X32091Y959974D01*
X32459Y959805D01*
X32823Y959627D01*
X33183Y959441D01*
X33538Y959245D01*
X33888Y959041D01*
X34233Y958829D01*
X34572Y958608D01*
X34907Y958378D01*
X35235Y958141D01*
X35557Y957896D01*
X35874Y957642D01*
X36184Y957382D01*
X36487Y957113D01*
X36784Y956837D01*
X37074Y956554D01*
X37357Y956264D01*
X37633Y955967D01*
X37902Y955664D01*
X38162Y955354D01*
X38416Y955037D01*
X38661Y954715D01*
X38898Y954387D01*
X39128Y954052D01*
X39349Y953713D01*
X39561Y953368D01*
X39765Y953018D01*
X39961Y952663D01*
X40147Y952303D01*
X40325Y951939D01*
X40494Y951571D01*
X40653Y951198D01*
X40804Y950822D01*
X40945Y950442D01*
X41077Y950059D01*
X41199Y949673D01*
X41312Y949283D01*
X41415Y948892D01*
X41509Y948497D01*
X41593Y948101D01*
X41667Y947703D01*
X41731Y947303D01*
X41786Y946901D01*
X41830Y946498D01*
X41865Y946095D01*
X41890Y945690D01*
X41905Y945285D01*
X41910Y944880D01*
X41905Y944475D01*
X41890Y944070D01*
X41865Y943665D01*
X41830Y943262D01*
X41786Y942859D01*
X41731Y942457D01*
X41667Y942057D01*
X41593Y941659D01*
X41509Y941263D01*
X41415Y940868D01*
X41312Y940477D01*
X41199Y940087D01*
X41077Y939701D01*
X40945Y939318D01*
X40804Y938938D01*
X40653Y938562D01*
X40494Y938189D01*
X40325Y937821D01*
X40147Y937457D01*
X39961Y937097D01*
X39765Y936742D01*
X39561Y936392D01*
X39349Y936047D01*
X39128Y935708D01*
X38898Y935373D01*
X38661Y935045D01*
X38416Y934723D01*
X38162Y934406D01*
X37902Y934096D01*
X37633Y933793D01*
X37357Y933496D01*
X37074Y933206D01*
X36784Y932923D01*
X36487Y932647D01*
X36184Y932378D01*
X35874Y932118D01*
X35557Y931864D01*
X35235Y931619D01*
X34907Y931382D01*
X34572Y931152D01*
X34233Y930931D01*
X33888Y930719D01*
X33538Y930515D01*
X33183Y930319D01*
X32823Y930133D01*
X32459Y929955D01*
X32091Y929786D01*
X31718Y929627D01*
X31342Y929476D01*
X30962Y929335D01*
X30579Y929203D01*
X30193Y929081D01*
X29803Y928968D01*
X29412Y928865D01*
X29017Y928771D01*
X28621Y928687D01*
X28223Y928613D01*
X27823Y928549D01*
X27421Y928494D01*
X27018Y928450D01*
X26615Y928415D01*
X26210Y928390D01*
X25805Y928375D01*
X25400Y928370D01*
X24995Y928375D01*
X24590Y928390D01*
X24185Y928415D01*
X23782Y928450D01*
X23379Y928494D01*
X22977Y928549D01*
X22577Y928613D01*
X22179Y928687D01*
X21783Y928771D01*
X21388Y928865D01*
X20997Y928968D01*
X20607Y929081D01*
X20221Y929203D01*
X19838Y929335D01*
X19458Y929476D01*
X19082Y929627D01*
X18709Y929786D01*
X18341Y929955D01*
X17977Y930133D01*
X17617Y930319D01*
X17262Y930515D01*
X16912Y930719D01*
X16567Y930931D01*
X16228Y931152D01*
X15893Y931382D01*
X15565Y931619D01*
X15243Y931864D01*
X14926Y932118D01*
X14616Y932378D01*
X14313Y932647D01*
X14016Y932923D01*
X13726Y933206D01*
X13443Y933496D01*
X13167Y933793D01*
X12898Y934096D01*
X12638Y934406D01*
X12384Y934723D01*
X12139Y935045D01*
X11902Y935373D01*
X11672Y935708D01*
X11451Y936047D01*
X11239Y936392D01*
X11035Y936742D01*
X10839Y937097D01*
X10653Y937457D01*
X10475Y937821D01*
X10306Y938189D01*
X10147Y938562D01*
X9996Y938938D01*
X9855Y939318D01*
X9723Y939701D01*
X9601Y940087D01*
X9488Y940477D01*
X9385Y940868D01*
X9291Y941263D01*
X9207Y941659D01*
X9133Y942057D01*
X9069Y942457D01*
X9014Y942859D01*
X8970Y943262D01*
X8935Y943665D01*
X8910Y944070D01*
X8895Y944475D01*
X8890Y944880D01*
X1812290Y1148080D02*
X1812295Y1148485D01*
X1812310Y1148890D01*
X1812335Y1149295D01*
X1812370Y1149698D01*
X1812414Y1150101D01*
X1812469Y1150503D01*
X1812533Y1150903D01*
X1812607Y1151301D01*
X1812691Y1151697D01*
X1812785Y1152092D01*
X1812888Y1152483D01*
X1813001Y1152873D01*
X1813123Y1153259D01*
X1813255Y1153642D01*
X1813396Y1154022D01*
X1813547Y1154398D01*
X1813706Y1154771D01*
X1813875Y1155139D01*
X1814053Y1155503D01*
X1814239Y1155863D01*
X1814435Y1156218D01*
X1814639Y1156568D01*
X1814851Y1156913D01*
X1815072Y1157252D01*
X1815302Y1157587D01*
X1815539Y1157915D01*
X1815784Y1158237D01*
X1816038Y1158554D01*
X1816298Y1158864D01*
X1816567Y1159167D01*
X1816843Y1159464D01*
X1817126Y1159754D01*
X1817416Y1160037D01*
X1817713Y1160313D01*
X1818016Y1160582D01*
X1818326Y1160842D01*
X1818643Y1161096D01*
X1818965Y1161341D01*
X1819293Y1161578D01*
X1819628Y1161808D01*
X1819967Y1162029D01*
X1820312Y1162241D01*
X1820662Y1162445D01*
X1821017Y1162641D01*
X1821377Y1162827D01*
X1821741Y1163005D01*
X1822109Y1163174D01*
X1822482Y1163333D01*
X1822858Y1163484D01*
X1823238Y1163625D01*
X1823621Y1163757D01*
X1824007Y1163879D01*
X1824397Y1163992D01*
X1824788Y1164095D01*
X1825183Y1164189D01*
X1825579Y1164273D01*
X1825977Y1164347D01*
X1826377Y1164411D01*
X1826779Y1164466D01*
X1827182Y1164510D01*
X1827585Y1164545D01*
X1827990Y1164570D01*
X1828395Y1164585D01*
X1828800Y1164590D01*
X1829205Y1164585D01*
X1829610Y1164570D01*
X1830015Y1164545D01*
X1830418Y1164510D01*
X1830821Y1164466D01*
X1831223Y1164411D01*
X1831623Y1164347D01*
X1832021Y1164273D01*
X1832417Y1164189D01*
X1832812Y1164095D01*
X1833203Y1163992D01*
X1833593Y1163879D01*
X1833979Y1163757D01*
X1834362Y1163625D01*
X1834742Y1163484D01*
X1835118Y1163333D01*
X1835491Y1163174D01*
X1835859Y1163005D01*
X1836223Y1162827D01*
X1836583Y1162641D01*
X1836938Y1162445D01*
X1837288Y1162241D01*
X1837633Y1162029D01*
X1837972Y1161808D01*
X1838307Y1161578D01*
X1838635Y1161341D01*
X1838957Y1161096D01*
X1839274Y1160842D01*
X1839584Y1160582D01*
X1839887Y1160313D01*
X1840184Y1160037D01*
X1840474Y1159754D01*
X1840757Y1159464D01*
X1841033Y1159167D01*
X1841302Y1158864D01*
X1841562Y1158554D01*
X1841816Y1158237D01*
X1842061Y1157915D01*
X1842298Y1157587D01*
X1842528Y1157252D01*
X1842749Y1156913D01*
X1842961Y1156568D01*
X1843165Y1156218D01*
X1843361Y1155863D01*
X1843547Y1155503D01*
X1843725Y1155139D01*
X1843894Y1154771D01*
X1844053Y1154398D01*
X1844204Y1154022D01*
X1844345Y1153642D01*
X1844477Y1153259D01*
X1844599Y1152873D01*
X1844712Y1152483D01*
X1844815Y1152092D01*
X1844909Y1151697D01*
X1844993Y1151301D01*
X1845067Y1150903D01*
X1845131Y1150503D01*
X1845186Y1150101D01*
X1845230Y1149698D01*
X1845265Y1149295D01*
X1845290Y1148890D01*
X1845305Y1148485D01*
X1845310Y1148080D01*
X1845305Y1147675D01*
X1845290Y1147270D01*
X1845265Y1146865D01*
X1845230Y1146462D01*
X1845186Y1146059D01*
X1845131Y1145657D01*
X1845067Y1145257D01*
X1844993Y1144859D01*
X1844909Y1144463D01*
X1844815Y1144068D01*
X1844712Y1143677D01*
X1844599Y1143287D01*
X1844477Y1142901D01*
X1844345Y1142518D01*
X1844204Y1142138D01*
X1844053Y1141762D01*
X1843894Y1141389D01*
X1843725Y1141021D01*
X1843547Y1140657D01*
X1843361Y1140297D01*
X1843165Y1139942D01*
X1842961Y1139592D01*
X1842749Y1139247D01*
X1842528Y1138908D01*
X1842298Y1138573D01*
X1842061Y1138245D01*
X1841816Y1137923D01*
X1841562Y1137606D01*
X1841302Y1137296D01*
X1841033Y1136993D01*
X1840757Y1136696D01*
X1840474Y1136406D01*
X1840184Y1136123D01*
X1839887Y1135847D01*
X1839584Y1135578D01*
X1839274Y1135318D01*
X1838957Y1135064D01*
X1838635Y1134819D01*
X1838307Y1134582D01*
X1837972Y1134352D01*
X1837633Y1134131D01*
X1837288Y1133919D01*
X1836938Y1133715D01*
X1836583Y1133519D01*
X1836223Y1133333D01*
X1835859Y1133155D01*
X1835491Y1132986D01*
X1835118Y1132827D01*
X1834742Y1132676D01*
X1834362Y1132535D01*
X1833979Y1132403D01*
X1833593Y1132281D01*
X1833203Y1132168D01*
X1832812Y1132065D01*
X1832417Y1131971D01*
X1832021Y1131887D01*
X1831623Y1131813D01*
X1831223Y1131749D01*
X1830821Y1131694D01*
X1830418Y1131650D01*
X1830015Y1131615D01*
X1829610Y1131590D01*
X1829205Y1131575D01*
X1828800Y1131570D01*
X1828395Y1131575D01*
X1827990Y1131590D01*
X1827585Y1131615D01*
X1827182Y1131650D01*
X1826779Y1131694D01*
X1826377Y1131749D01*
X1825977Y1131813D01*
X1825579Y1131887D01*
X1825183Y1131971D01*
X1824788Y1132065D01*
X1824397Y1132168D01*
X1824007Y1132281D01*
X1823621Y1132403D01*
X1823238Y1132535D01*
X1822858Y1132676D01*
X1822482Y1132827D01*
X1822109Y1132986D01*
X1821741Y1133155D01*
X1821377Y1133333D01*
X1821017Y1133519D01*
X1820662Y1133715D01*
X1820312Y1133919D01*
X1819967Y1134131D01*
X1819628Y1134352D01*
X1819293Y1134582D01*
X1818965Y1134819D01*
X1818643Y1135064D01*
X1818326Y1135318D01*
X1818016Y1135578D01*
X1817713Y1135847D01*
X1817416Y1136123D01*
X1817126Y1136406D01*
X1816843Y1136696D01*
X1816567Y1136993D01*
X1816298Y1137296D01*
X1816038Y1137606D01*
X1815784Y1137923D01*
X1815539Y1138245D01*
X1815302Y1138573D01*
X1815072Y1138908D01*
X1814851Y1139247D01*
X1814639Y1139592D01*
X1814435Y1139942D01*
X1814239Y1140297D01*
X1814053Y1140657D01*
X1813875Y1141021D01*
X1813706Y1141389D01*
X1813547Y1141762D01*
X1813396Y1142138D01*
X1813255Y1142518D01*
X1813123Y1142901D01*
X1813001Y1143287D01*
X1812888Y1143677D01*
X1812785Y1144068D01*
X1812691Y1144463D01*
X1812607Y1144859D01*
X1812533Y1145257D01*
X1812469Y1145657D01*
X1812414Y1146059D01*
X1812370Y1146462D01*
X1812335Y1146865D01*
X1812310Y1147270D01*
X1812295Y1147675D01*
X1812290Y1148080D01*
X910590Y1148080D02*
X910595Y1148485D01*
X910610Y1148890D01*
X910635Y1149295D01*
X910670Y1149698D01*
X910714Y1150101D01*
X910769Y1150503D01*
X910833Y1150903D01*
X910907Y1151301D01*
X910991Y1151697D01*
X911085Y1152092D01*
X911188Y1152483D01*
X911301Y1152873D01*
X911423Y1153259D01*
X911555Y1153642D01*
X911696Y1154022D01*
X911847Y1154398D01*
X912006Y1154771D01*
X912175Y1155139D01*
X912353Y1155503D01*
X912539Y1155863D01*
X912735Y1156218D01*
X912939Y1156568D01*
X913151Y1156913D01*
X913372Y1157252D01*
X913602Y1157587D01*
X913839Y1157915D01*
X914084Y1158237D01*
X914338Y1158554D01*
X914598Y1158864D01*
X914867Y1159167D01*
X915143Y1159464D01*
X915426Y1159754D01*
X915716Y1160037D01*
X916013Y1160313D01*
X916316Y1160582D01*
X916626Y1160842D01*
X916943Y1161096D01*
X917265Y1161341D01*
X917593Y1161578D01*
X917928Y1161808D01*
X918267Y1162029D01*
X918612Y1162241D01*
X918962Y1162445D01*
X919317Y1162641D01*
X919677Y1162827D01*
X920041Y1163005D01*
X920409Y1163174D01*
X920782Y1163333D01*
X921158Y1163484D01*
X921538Y1163625D01*
X921921Y1163757D01*
X922307Y1163879D01*
X922697Y1163992D01*
X923088Y1164095D01*
X923483Y1164189D01*
X923879Y1164273D01*
X924277Y1164347D01*
X924677Y1164411D01*
X925079Y1164466D01*
X925482Y1164510D01*
X925885Y1164545D01*
X926290Y1164570D01*
X926695Y1164585D01*
X927100Y1164590D01*
X927505Y1164585D01*
X927910Y1164570D01*
X928315Y1164545D01*
X928718Y1164510D01*
X929121Y1164466D01*
X929523Y1164411D01*
X929923Y1164347D01*
X930321Y1164273D01*
X930717Y1164189D01*
X931112Y1164095D01*
X931503Y1163992D01*
X931893Y1163879D01*
X932279Y1163757D01*
X932662Y1163625D01*
X933042Y1163484D01*
X933418Y1163333D01*
X933791Y1163174D01*
X934159Y1163005D01*
X934523Y1162827D01*
X934883Y1162641D01*
X935238Y1162445D01*
X935588Y1162241D01*
X935933Y1162029D01*
X936272Y1161808D01*
X936607Y1161578D01*
X936935Y1161341D01*
X937257Y1161096D01*
X937574Y1160842D01*
X937884Y1160582D01*
X938187Y1160313D01*
X938484Y1160037D01*
X938774Y1159754D01*
X939057Y1159464D01*
X939333Y1159167D01*
X939602Y1158864D01*
X939862Y1158554D01*
X940116Y1158237D01*
X940361Y1157915D01*
X940598Y1157587D01*
X940828Y1157252D01*
X941049Y1156913D01*
X941261Y1156568D01*
X941465Y1156218D01*
X941661Y1155863D01*
X941847Y1155503D01*
X942025Y1155139D01*
X942194Y1154771D01*
X942353Y1154398D01*
X942504Y1154022D01*
X942645Y1153642D01*
X942777Y1153259D01*
X942899Y1152873D01*
X943012Y1152483D01*
X943115Y1152092D01*
X943209Y1151697D01*
X943293Y1151301D01*
X943367Y1150903D01*
X943431Y1150503D01*
X943486Y1150101D01*
X943530Y1149698D01*
X943565Y1149295D01*
X943590Y1148890D01*
X943605Y1148485D01*
X943610Y1148080D01*
X943605Y1147675D01*
X943590Y1147270D01*
X943565Y1146865D01*
X943530Y1146462D01*
X943486Y1146059D01*
X943431Y1145657D01*
X943367Y1145257D01*
X943293Y1144859D01*
X943209Y1144463D01*
X943115Y1144068D01*
X943012Y1143677D01*
X942899Y1143287D01*
X942777Y1142901D01*
X942645Y1142518D01*
X942504Y1142138D01*
X942353Y1141762D01*
X942194Y1141389D01*
X942025Y1141021D01*
X941847Y1140657D01*
X941661Y1140297D01*
X941465Y1139942D01*
X941261Y1139592D01*
X941049Y1139247D01*
X940828Y1138908D01*
X940598Y1138573D01*
X940361Y1138245D01*
X940116Y1137923D01*
X939862Y1137606D01*
X939602Y1137296D01*
X939333Y1136993D01*
X939057Y1136696D01*
X938774Y1136406D01*
X938484Y1136123D01*
X938187Y1135847D01*
X937884Y1135578D01*
X937574Y1135318D01*
X937257Y1135064D01*
X936935Y1134819D01*
X936607Y1134582D01*
X936272Y1134352D01*
X935933Y1134131D01*
X935588Y1133919D01*
X935238Y1133715D01*
X934883Y1133519D01*
X934523Y1133333D01*
X934159Y1133155D01*
X933791Y1132986D01*
X933418Y1132827D01*
X933042Y1132676D01*
X932662Y1132535D01*
X932279Y1132403D01*
X931893Y1132281D01*
X931503Y1132168D01*
X931112Y1132065D01*
X930717Y1131971D01*
X930321Y1131887D01*
X929923Y1131813D01*
X929523Y1131749D01*
X929121Y1131694D01*
X928718Y1131650D01*
X928315Y1131615D01*
X927910Y1131590D01*
X927505Y1131575D01*
X927100Y1131570D01*
X926695Y1131575D01*
X926290Y1131590D01*
X925885Y1131615D01*
X925482Y1131650D01*
X925079Y1131694D01*
X924677Y1131749D01*
X924277Y1131813D01*
X923879Y1131887D01*
X923483Y1131971D01*
X923088Y1132065D01*
X922697Y1132168D01*
X922307Y1132281D01*
X921921Y1132403D01*
X921538Y1132535D01*
X921158Y1132676D01*
X920782Y1132827D01*
X920409Y1132986D01*
X920041Y1133155D01*
X919677Y1133333D01*
X919317Y1133519D01*
X918962Y1133715D01*
X918612Y1133919D01*
X918267Y1134131D01*
X917928Y1134352D01*
X917593Y1134582D01*
X917265Y1134819D01*
X916943Y1135064D01*
X916626Y1135318D01*
X916316Y1135578D01*
X916013Y1135847D01*
X915716Y1136123D01*
X915426Y1136406D01*
X915143Y1136696D01*
X914867Y1136993D01*
X914598Y1137296D01*
X914338Y1137606D01*
X914084Y1137923D01*
X913839Y1138245D01*
X913602Y1138573D01*
X913372Y1138908D01*
X913151Y1139247D01*
X912939Y1139592D01*
X912735Y1139942D01*
X912539Y1140297D01*
X912353Y1140657D01*
X912175Y1141021D01*
X912006Y1141389D01*
X911847Y1141762D01*
X911696Y1142138D01*
X911555Y1142518D01*
X911423Y1142901D01*
X911301Y1143287D01*
X911188Y1143677D01*
X911085Y1144068D01*
X910991Y1144463D01*
X910907Y1144859D01*
X910833Y1145257D01*
X910769Y1145657D01*
X910714Y1146059D01*
X910670Y1146462D01*
X910635Y1146865D01*
X910610Y1147270D01*
X910595Y1147675D01*
X910590Y1148080D01*
X1812290Y1808480D02*
X1812295Y1808885D01*
X1812310Y1809290D01*
X1812335Y1809695D01*
X1812370Y1810098D01*
X1812414Y1810501D01*
X1812469Y1810903D01*
X1812533Y1811303D01*
X1812607Y1811701D01*
X1812691Y1812097D01*
X1812785Y1812492D01*
X1812888Y1812883D01*
X1813001Y1813273D01*
X1813123Y1813659D01*
X1813255Y1814042D01*
X1813396Y1814422D01*
X1813547Y1814798D01*
X1813706Y1815171D01*
X1813875Y1815539D01*
X1814053Y1815903D01*
X1814239Y1816263D01*
X1814435Y1816618D01*
X1814639Y1816968D01*
X1814851Y1817313D01*
X1815072Y1817652D01*
X1815302Y1817987D01*
X1815539Y1818315D01*
X1815784Y1818637D01*
X1816038Y1818954D01*
X1816298Y1819264D01*
X1816567Y1819567D01*
X1816843Y1819864D01*
X1817126Y1820154D01*
X1817416Y1820437D01*
X1817713Y1820713D01*
X1818016Y1820982D01*
X1818326Y1821242D01*
X1818643Y1821496D01*
X1818965Y1821741D01*
X1819293Y1821978D01*
X1819628Y1822208D01*
X1819967Y1822429D01*
X1820312Y1822641D01*
X1820662Y1822845D01*
X1821017Y1823041D01*
X1821377Y1823227D01*
X1821741Y1823405D01*
X1822109Y1823574D01*
X1822482Y1823733D01*
X1822858Y1823884D01*
X1823238Y1824025D01*
X1823621Y1824157D01*
X1824007Y1824279D01*
X1824397Y1824392D01*
X1824788Y1824495D01*
X1825183Y1824589D01*
X1825579Y1824673D01*
X1825977Y1824747D01*
X1826377Y1824811D01*
X1826779Y1824866D01*
X1827182Y1824910D01*
X1827585Y1824945D01*
X1827990Y1824970D01*
X1828395Y1824985D01*
X1828800Y1824990D01*
X1829205Y1824985D01*
X1829610Y1824970D01*
X1830015Y1824945D01*
X1830418Y1824910D01*
X1830821Y1824866D01*
X1831223Y1824811D01*
X1831623Y1824747D01*
X1832021Y1824673D01*
X1832417Y1824589D01*
X1832812Y1824495D01*
X1833203Y1824392D01*
X1833593Y1824279D01*
X1833979Y1824157D01*
X1834362Y1824025D01*
X1834742Y1823884D01*
X1835118Y1823733D01*
X1835491Y1823574D01*
X1835859Y1823405D01*
X1836223Y1823227D01*
X1836583Y1823041D01*
X1836938Y1822845D01*
X1837288Y1822641D01*
X1837633Y1822429D01*
X1837972Y1822208D01*
X1838307Y1821978D01*
X1838635Y1821741D01*
X1838957Y1821496D01*
X1839274Y1821242D01*
X1839584Y1820982D01*
X1839887Y1820713D01*
X1840184Y1820437D01*
X1840474Y1820154D01*
X1840757Y1819864D01*
X1841033Y1819567D01*
X1841302Y1819264D01*
X1841562Y1818954D01*
X1841816Y1818637D01*
X1842061Y1818315D01*
X1842298Y1817987D01*
X1842528Y1817652D01*
X1842749Y1817313D01*
X1842961Y1816968D01*
X1843165Y1816618D01*
X1843361Y1816263D01*
X1843547Y1815903D01*
X1843725Y1815539D01*
X1843894Y1815171D01*
X1844053Y1814798D01*
X1844204Y1814422D01*
X1844345Y1814042D01*
X1844477Y1813659D01*
X1844599Y1813273D01*
X1844712Y1812883D01*
X1844815Y1812492D01*
X1844909Y1812097D01*
X1844993Y1811701D01*
X1845067Y1811303D01*
X1845131Y1810903D01*
X1845186Y1810501D01*
X1845230Y1810098D01*
X1845265Y1809695D01*
X1845290Y1809290D01*
X1845305Y1808885D01*
X1845310Y1808480D01*
X1845305Y1808075D01*
X1845290Y1807670D01*
X1845265Y1807265D01*
X1845230Y1806862D01*
X1845186Y1806459D01*
X1845131Y1806057D01*
X1845067Y1805657D01*
X1844993Y1805259D01*
X1844909Y1804863D01*
X1844815Y1804468D01*
X1844712Y1804077D01*
X1844599Y1803687D01*
X1844477Y1803301D01*
X1844345Y1802918D01*
X1844204Y1802538D01*
X1844053Y1802162D01*
X1843894Y1801789D01*
X1843725Y1801421D01*
X1843547Y1801057D01*
X1843361Y1800697D01*
X1843165Y1800342D01*
X1842961Y1799992D01*
X1842749Y1799647D01*
X1842528Y1799308D01*
X1842298Y1798973D01*
X1842061Y1798645D01*
X1841816Y1798323D01*
X1841562Y1798006D01*
X1841302Y1797696D01*
X1841033Y1797393D01*
X1840757Y1797096D01*
X1840474Y1796806D01*
X1840184Y1796523D01*
X1839887Y1796247D01*
X1839584Y1795978D01*
X1839274Y1795718D01*
X1838957Y1795464D01*
X1838635Y1795219D01*
X1838307Y1794982D01*
X1837972Y1794752D01*
X1837633Y1794531D01*
X1837288Y1794319D01*
X1836938Y1794115D01*
X1836583Y1793919D01*
X1836223Y1793733D01*
X1835859Y1793555D01*
X1835491Y1793386D01*
X1835118Y1793227D01*
X1834742Y1793076D01*
X1834362Y1792935D01*
X1833979Y1792803D01*
X1833593Y1792681D01*
X1833203Y1792568D01*
X1832812Y1792465D01*
X1832417Y1792371D01*
X1832021Y1792287D01*
X1831623Y1792213D01*
X1831223Y1792149D01*
X1830821Y1792094D01*
X1830418Y1792050D01*
X1830015Y1792015D01*
X1829610Y1791990D01*
X1829205Y1791975D01*
X1828800Y1791970D01*
X1828395Y1791975D01*
X1827990Y1791990D01*
X1827585Y1792015D01*
X1827182Y1792050D01*
X1826779Y1792094D01*
X1826377Y1792149D01*
X1825977Y1792213D01*
X1825579Y1792287D01*
X1825183Y1792371D01*
X1824788Y1792465D01*
X1824397Y1792568D01*
X1824007Y1792681D01*
X1823621Y1792803D01*
X1823238Y1792935D01*
X1822858Y1793076D01*
X1822482Y1793227D01*
X1822109Y1793386D01*
X1821741Y1793555D01*
X1821377Y1793733D01*
X1821017Y1793919D01*
X1820662Y1794115D01*
X1820312Y1794319D01*
X1819967Y1794531D01*
X1819628Y1794752D01*
X1819293Y1794982D01*
X1818965Y1795219D01*
X1818643Y1795464D01*
X1818326Y1795718D01*
X1818016Y1795978D01*
X1817713Y1796247D01*
X1817416Y1796523D01*
X1817126Y1796806D01*
X1816843Y1797096D01*
X1816567Y1797393D01*
X1816298Y1797696D01*
X1816038Y1798006D01*
X1815784Y1798323D01*
X1815539Y1798645D01*
X1815302Y1798973D01*
X1815072Y1799308D01*
X1814851Y1799647D01*
X1814639Y1799992D01*
X1814435Y1800342D01*
X1814239Y1800697D01*
X1814053Y1801057D01*
X1813875Y1801421D01*
X1813706Y1801789D01*
X1813547Y1802162D01*
X1813396Y1802538D01*
X1813255Y1802918D01*
X1813123Y1803301D01*
X1813001Y1803687D01*
X1812888Y1804077D01*
X1812785Y1804468D01*
X1812691Y1804863D01*
X1812607Y1805259D01*
X1812533Y1805657D01*
X1812469Y1806057D01*
X1812414Y1806459D01*
X1812370Y1806862D01*
X1812335Y1807265D01*
X1812310Y1807670D01*
X1812295Y1808075D01*
X1812290Y1808480D01*
X910590Y1808480D02*
X910595Y1808885D01*
X910610Y1809290D01*
X910635Y1809695D01*
X910670Y1810098D01*
X910714Y1810501D01*
X910769Y1810903D01*
X910833Y1811303D01*
X910907Y1811701D01*
X910991Y1812097D01*
X911085Y1812492D01*
X911188Y1812883D01*
X911301Y1813273D01*
X911423Y1813659D01*
X911555Y1814042D01*
X911696Y1814422D01*
X911847Y1814798D01*
X912006Y1815171D01*
X912175Y1815539D01*
X912353Y1815903D01*
X912539Y1816263D01*
X912735Y1816618D01*
X912939Y1816968D01*
X913151Y1817313D01*
X913372Y1817652D01*
X913602Y1817987D01*
X913839Y1818315D01*
X914084Y1818637D01*
X914338Y1818954D01*
X914598Y1819264D01*
X914867Y1819567D01*
X915143Y1819864D01*
X915426Y1820154D01*
X915716Y1820437D01*
X916013Y1820713D01*
X916316Y1820982D01*
X916626Y1821242D01*
X916943Y1821496D01*
X917265Y1821741D01*
X917593Y1821978D01*
X917928Y1822208D01*
X918267Y1822429D01*
X918612Y1822641D01*
X918962Y1822845D01*
X919317Y1823041D01*
X919677Y1823227D01*
X920041Y1823405D01*
X920409Y1823574D01*
X920782Y1823733D01*
X921158Y1823884D01*
X921538Y1824025D01*
X921921Y1824157D01*
X922307Y1824279D01*
X922697Y1824392D01*
X923088Y1824495D01*
X923483Y1824589D01*
X923879Y1824673D01*
X924277Y1824747D01*
X924677Y1824811D01*
X925079Y1824866D01*
X925482Y1824910D01*
X925885Y1824945D01*
X926290Y1824970D01*
X926695Y1824985D01*
X927100Y1824990D01*
X927505Y1824985D01*
X927910Y1824970D01*
X928315Y1824945D01*
X928718Y1824910D01*
X929121Y1824866D01*
X929523Y1824811D01*
X929923Y1824747D01*
X930321Y1824673D01*
X930717Y1824589D01*
X931112Y1824495D01*
X931503Y1824392D01*
X931893Y1824279D01*
X932279Y1824157D01*
X932662Y1824025D01*
X933042Y1823884D01*
X933418Y1823733D01*
X933791Y1823574D01*
X934159Y1823405D01*
X934523Y1823227D01*
X934883Y1823041D01*
X935238Y1822845D01*
X935588Y1822641D01*
X935933Y1822429D01*
X936272Y1822208D01*
X936607Y1821978D01*
X936935Y1821741D01*
X937257Y1821496D01*
X937574Y1821242D01*
X937884Y1820982D01*
X938187Y1820713D01*
X938484Y1820437D01*
X938774Y1820154D01*
X939057Y1819864D01*
X939333Y1819567D01*
X939602Y1819264D01*
X939862Y1818954D01*
X940116Y1818637D01*
X940361Y1818315D01*
X940598Y1817987D01*
X940828Y1817652D01*
X941049Y1817313D01*
X941261Y1816968D01*
X941465Y1816618D01*
X941661Y1816263D01*
X941847Y1815903D01*
X942025Y1815539D01*
X942194Y1815171D01*
X942353Y1814798D01*
X942504Y1814422D01*
X942645Y1814042D01*
X942777Y1813659D01*
X942899Y1813273D01*
X943012Y1812883D01*
X943115Y1812492D01*
X943209Y1812097D01*
X943293Y1811701D01*
X943367Y1811303D01*
X943431Y1810903D01*
X943486Y1810501D01*
X943530Y1810098D01*
X943565Y1809695D01*
X943590Y1809290D01*
X943605Y1808885D01*
X943610Y1808480D01*
X943605Y1808075D01*
X943590Y1807670D01*
X943565Y1807265D01*
X943530Y1806862D01*
X943486Y1806459D01*
X943431Y1806057D01*
X943367Y1805657D01*
X943293Y1805259D01*
X943209Y1804863D01*
X943115Y1804468D01*
X943012Y1804077D01*
X942899Y1803687D01*
X942777Y1803301D01*
X942645Y1802918D01*
X942504Y1802538D01*
X942353Y1802162D01*
X942194Y1801789D01*
X942025Y1801421D01*
X941847Y1801057D01*
X941661Y1800697D01*
X941465Y1800342D01*
X941261Y1799992D01*
X941049Y1799647D01*
X940828Y1799308D01*
X940598Y1798973D01*
X940361Y1798645D01*
X940116Y1798323D01*
X939862Y1798006D01*
X939602Y1797696D01*
X939333Y1797393D01*
X939057Y1797096D01*
X938774Y1796806D01*
X938484Y1796523D01*
X938187Y1796247D01*
X937884Y1795978D01*
X937574Y1795718D01*
X937257Y1795464D01*
X936935Y1795219D01*
X936607Y1794982D01*
X936272Y1794752D01*
X935933Y1794531D01*
X935588Y1794319D01*
X935238Y1794115D01*
X934883Y1793919D01*
X934523Y1793733D01*
X934159Y1793555D01*
X933791Y1793386D01*
X933418Y1793227D01*
X933042Y1793076D01*
X932662Y1792935D01*
X932279Y1792803D01*
X931893Y1792681D01*
X931503Y1792568D01*
X931112Y1792465D01*
X930717Y1792371D01*
X930321Y1792287D01*
X929923Y1792213D01*
X929523Y1792149D01*
X929121Y1792094D01*
X928718Y1792050D01*
X928315Y1792015D01*
X927910Y1791990D01*
X927505Y1791975D01*
X927100Y1791970D01*
X926695Y1791975D01*
X926290Y1791990D01*
X925885Y1792015D01*
X925482Y1792050D01*
X925079Y1792094D01*
X924677Y1792149D01*
X924277Y1792213D01*
X923879Y1792287D01*
X923483Y1792371D01*
X923088Y1792465D01*
X922697Y1792568D01*
X922307Y1792681D01*
X921921Y1792803D01*
X921538Y1792935D01*
X921158Y1793076D01*
X920782Y1793227D01*
X920409Y1793386D01*
X920041Y1793555D01*
X919677Y1793733D01*
X919317Y1793919D01*
X918962Y1794115D01*
X918612Y1794319D01*
X918267Y1794531D01*
X917928Y1794752D01*
X917593Y1794982D01*
X917265Y1795219D01*
X916943Y1795464D01*
X916626Y1795718D01*
X916316Y1795978D01*
X916013Y1796247D01*
X915716Y1796523D01*
X915426Y1796806D01*
X915143Y1797096D01*
X914867Y1797393D01*
X914598Y1797696D01*
X914338Y1798006D01*
X914084Y1798323D01*
X913839Y1798645D01*
X913602Y1798973D01*
X913372Y1799308D01*
X913151Y1799647D01*
X912939Y1799992D01*
X912735Y1800342D01*
X912539Y1800697D01*
X912353Y1801057D01*
X912175Y1801421D01*
X912006Y1801789D01*
X911847Y1802162D01*
X911696Y1802538D01*
X911555Y1802918D01*
X911423Y1803301D01*
X911301Y1803687D01*
X911188Y1804077D01*
X911085Y1804468D01*
X910991Y1804863D01*
X910907Y1805259D01*
X910833Y1805657D01*
X910769Y1806057D01*
X910714Y1806459D01*
X910670Y1806862D01*
X910635Y1807265D01*
X910610Y1807670D01*
X910595Y1808075D01*
X910590Y1808480D01*
X8890Y1808480D02*
X8895Y1808885D01*
X8910Y1809290D01*
X8935Y1809695D01*
X8970Y1810098D01*
X9014Y1810501D01*
X9069Y1810903D01*
X9133Y1811303D01*
X9207Y1811701D01*
X9291Y1812097D01*
X9385Y1812492D01*
X9488Y1812883D01*
X9601Y1813273D01*
X9723Y1813659D01*
X9855Y1814042D01*
X9996Y1814422D01*
X10147Y1814798D01*
X10306Y1815171D01*
X10475Y1815539D01*
X10653Y1815903D01*
X10839Y1816263D01*
X11035Y1816618D01*
X11239Y1816968D01*
X11451Y1817313D01*
X11672Y1817652D01*
X11902Y1817987D01*
X12139Y1818315D01*
X12384Y1818637D01*
X12638Y1818954D01*
X12898Y1819264D01*
X13167Y1819567D01*
X13443Y1819864D01*
X13726Y1820154D01*
X14016Y1820437D01*
X14313Y1820713D01*
X14616Y1820982D01*
X14926Y1821242D01*
X15243Y1821496D01*
X15565Y1821741D01*
X15893Y1821978D01*
X16228Y1822208D01*
X16567Y1822429D01*
X16912Y1822641D01*
X17262Y1822845D01*
X17617Y1823041D01*
X17977Y1823227D01*
X18341Y1823405D01*
X18709Y1823574D01*
X19082Y1823733D01*
X19458Y1823884D01*
X19838Y1824025D01*
X20221Y1824157D01*
X20607Y1824279D01*
X20997Y1824392D01*
X21388Y1824495D01*
X21783Y1824589D01*
X22179Y1824673D01*
X22577Y1824747D01*
X22977Y1824811D01*
X23379Y1824866D01*
X23782Y1824910D01*
X24185Y1824945D01*
X24590Y1824970D01*
X24995Y1824985D01*
X25400Y1824990D01*
X25805Y1824985D01*
X26210Y1824970D01*
X26615Y1824945D01*
X27018Y1824910D01*
X27421Y1824866D01*
X27823Y1824811D01*
X28223Y1824747D01*
X28621Y1824673D01*
X29017Y1824589D01*
X29412Y1824495D01*
X29803Y1824392D01*
X30193Y1824279D01*
X30579Y1824157D01*
X30962Y1824025D01*
X31342Y1823884D01*
X31718Y1823733D01*
X32091Y1823574D01*
X32459Y1823405D01*
X32823Y1823227D01*
X33183Y1823041D01*
X33538Y1822845D01*
X33888Y1822641D01*
X34233Y1822429D01*
X34572Y1822208D01*
X34907Y1821978D01*
X35235Y1821741D01*
X35557Y1821496D01*
X35874Y1821242D01*
X36184Y1820982D01*
X36487Y1820713D01*
X36784Y1820437D01*
X37074Y1820154D01*
X37357Y1819864D01*
X37633Y1819567D01*
X37902Y1819264D01*
X38162Y1818954D01*
X38416Y1818637D01*
X38661Y1818315D01*
X38898Y1817987D01*
X39128Y1817652D01*
X39349Y1817313D01*
X39561Y1816968D01*
X39765Y1816618D01*
X39961Y1816263D01*
X40147Y1815903D01*
X40325Y1815539D01*
X40494Y1815171D01*
X40653Y1814798D01*
X40804Y1814422D01*
X40945Y1814042D01*
X41077Y1813659D01*
X41199Y1813273D01*
X41312Y1812883D01*
X41415Y1812492D01*
X41509Y1812097D01*
X41593Y1811701D01*
X41667Y1811303D01*
X41731Y1810903D01*
X41786Y1810501D01*
X41830Y1810098D01*
X41865Y1809695D01*
X41890Y1809290D01*
X41905Y1808885D01*
X41910Y1808480D01*
X41905Y1808075D01*
X41890Y1807670D01*
X41865Y1807265D01*
X41830Y1806862D01*
X41786Y1806459D01*
X41731Y1806057D01*
X41667Y1805657D01*
X41593Y1805259D01*
X41509Y1804863D01*
X41415Y1804468D01*
X41312Y1804077D01*
X41199Y1803687D01*
X41077Y1803301D01*
X40945Y1802918D01*
X40804Y1802538D01*
X40653Y1802162D01*
X40494Y1801789D01*
X40325Y1801421D01*
X40147Y1801057D01*
X39961Y1800697D01*
X39765Y1800342D01*
X39561Y1799992D01*
X39349Y1799647D01*
X39128Y1799308D01*
X38898Y1798973D01*
X38661Y1798645D01*
X38416Y1798323D01*
X38162Y1798006D01*
X37902Y1797696D01*
X37633Y1797393D01*
X37357Y1797096D01*
X37074Y1796806D01*
X36784Y1796523D01*
X36487Y1796247D01*
X36184Y1795978D01*
X35874Y1795718D01*
X35557Y1795464D01*
X35235Y1795219D01*
X34907Y1794982D01*
X34572Y1794752D01*
X34233Y1794531D01*
X33888Y1794319D01*
X33538Y1794115D01*
X33183Y1793919D01*
X32823Y1793733D01*
X32459Y1793555D01*
X32091Y1793386D01*
X31718Y1793227D01*
X31342Y1793076D01*
X30962Y1792935D01*
X30579Y1792803D01*
X30193Y1792681D01*
X29803Y1792568D01*
X29412Y1792465D01*
X29017Y1792371D01*
X28621Y1792287D01*
X28223Y1792213D01*
X27823Y1792149D01*
X27421Y1792094D01*
X27018Y1792050D01*
X26615Y1792015D01*
X26210Y1791990D01*
X25805Y1791975D01*
X25400Y1791970D01*
X24995Y1791975D01*
X24590Y1791990D01*
X24185Y1792015D01*
X23782Y1792050D01*
X23379Y1792094D01*
X22977Y1792149D01*
X22577Y1792213D01*
X22179Y1792287D01*
X21783Y1792371D01*
X21388Y1792465D01*
X20997Y1792568D01*
X20607Y1792681D01*
X20221Y1792803D01*
X19838Y1792935D01*
X19458Y1793076D01*
X19082Y1793227D01*
X18709Y1793386D01*
X18341Y1793555D01*
X17977Y1793733D01*
X17617Y1793919D01*
X17262Y1794115D01*
X16912Y1794319D01*
X16567Y1794531D01*
X16228Y1794752D01*
X15893Y1794982D01*
X15565Y1795219D01*
X15243Y1795464D01*
X14926Y1795718D01*
X14616Y1795978D01*
X14313Y1796247D01*
X14016Y1796523D01*
X13726Y1796806D01*
X13443Y1797096D01*
X13167Y1797393D01*
X12898Y1797696D01*
X12638Y1798006D01*
X12384Y1798323D01*
X12139Y1798645D01*
X11902Y1798973D01*
X11672Y1799308D01*
X11451Y1799647D01*
X11239Y1799992D01*
X11035Y1800342D01*
X10839Y1800697D01*
X10653Y1801057D01*
X10475Y1801421D01*
X10306Y1801789D01*
X10147Y1802162D01*
X9996Y1802538D01*
X9855Y1802918D01*
X9723Y1803301D01*
X9601Y1803687D01*
X9488Y1804077D01*
X9385Y1804468D01*
X9291Y1804863D01*
X9207Y1805259D01*
X9133Y1805657D01*
X9069Y1806057D01*
X9014Y1806459D01*
X8970Y1806862D01*
X8935Y1807265D01*
X8910Y1807670D01*
X8895Y1808075D01*
X8890Y1808480D01*
M02*
