G04 EAGLE Gerber RS-274X export*
G75*
%MOMM*%
%FSLAX34Y34*%
%LPD*%
%INBottom Copper*%
%IPPOS*%
%AMOC8*
5,1,8,0,0,1.08239X$1,22.5*%
G01*
%ADD10C,0.203200*%
%ADD11C,1.000000*%
%ADD12C,1.879600*%
%ADD13C,0.863600*%
%ADD14R,2.032000X2.032000*%
%ADD15C,2.032000*%
%ADD16C,5.600000*%
%ADD17C,0.736600*%
%ADD18C,0.609600*%
%ADD19C,0.254000*%

G36*
X65815Y923558D02*
X65815Y923558D01*
X65907Y923561D01*
X65956Y923577D01*
X66006Y923585D01*
X66090Y923622D01*
X66177Y923651D01*
X66219Y923680D01*
X66265Y923701D01*
X66335Y923760D01*
X66411Y923812D01*
X66443Y923852D01*
X66482Y923884D01*
X66533Y923961D01*
X66592Y924032D01*
X66612Y924079D01*
X66640Y924121D01*
X66668Y924209D01*
X66704Y924293D01*
X66710Y924344D01*
X66726Y924392D01*
X66728Y924484D01*
X66739Y924575D01*
X66732Y924626D01*
X66733Y924676D01*
X66710Y924765D01*
X66695Y924856D01*
X66675Y924896D01*
X66661Y924951D01*
X66580Y925088D01*
X66546Y925157D01*
X65989Y925923D01*
X65136Y927597D01*
X64555Y929384D01*
X64434Y930149D01*
X75184Y930149D01*
X75242Y930157D01*
X75300Y930155D01*
X75382Y930177D01*
X75465Y930189D01*
X75519Y930213D01*
X75575Y930227D01*
X75648Y930270D01*
X75725Y930305D01*
X75769Y930343D01*
X75820Y930373D01*
X75877Y930434D01*
X75942Y930489D01*
X75974Y930537D01*
X76014Y930580D01*
X76053Y930655D01*
X76099Y930725D01*
X76117Y930781D01*
X76144Y930833D01*
X76155Y930901D01*
X76185Y930996D01*
X76188Y931096D01*
X76199Y931164D01*
X76199Y932181D01*
X77216Y932181D01*
X77274Y932189D01*
X77332Y932188D01*
X77414Y932209D01*
X77497Y932221D01*
X77551Y932245D01*
X77607Y932259D01*
X77680Y932302D01*
X77757Y932337D01*
X77802Y932375D01*
X77852Y932405D01*
X77910Y932466D01*
X77974Y932521D01*
X78006Y932569D01*
X78046Y932612D01*
X78085Y932687D01*
X78131Y932757D01*
X78149Y932813D01*
X78176Y932865D01*
X78187Y932933D01*
X78217Y933028D01*
X78220Y933128D01*
X78231Y933196D01*
X78231Y943946D01*
X78996Y943825D01*
X80783Y943244D01*
X82457Y942391D01*
X83978Y941286D01*
X85306Y939958D01*
X86411Y938437D01*
X87264Y936763D01*
X87628Y935643D01*
X87658Y935581D01*
X87679Y935515D01*
X87720Y935454D01*
X87753Y935388D01*
X87799Y935337D01*
X87838Y935279D01*
X87894Y935232D01*
X87943Y935177D01*
X88002Y935141D01*
X88055Y935096D01*
X88122Y935066D01*
X88185Y935027D01*
X88252Y935009D01*
X88315Y934981D01*
X88388Y934971D01*
X88459Y934951D01*
X88528Y934951D01*
X88597Y934942D01*
X88669Y934952D01*
X88743Y934953D01*
X88810Y934973D01*
X88878Y934982D01*
X88945Y935013D01*
X89016Y935034D01*
X89074Y935071D01*
X89137Y935100D01*
X89193Y935147D01*
X89255Y935187D01*
X89301Y935239D01*
X89353Y935284D01*
X89386Y935337D01*
X89443Y935401D01*
X89492Y935505D01*
X89531Y935569D01*
X91048Y939231D01*
X94549Y942732D01*
X94876Y942867D01*
X94878Y942868D01*
X94879Y942868D01*
X94997Y942938D01*
X95121Y943012D01*
X95122Y943013D01*
X95124Y943014D01*
X95219Y943115D01*
X95317Y943218D01*
X95317Y943220D01*
X95318Y943221D01*
X95381Y943343D01*
X95447Y943471D01*
X95447Y943473D01*
X95448Y943474D01*
X95450Y943489D01*
X95487Y943674D01*
X95489Y943682D01*
X95489Y943688D01*
X95502Y943750D01*
X95499Y943781D01*
X95503Y943805D01*
X95503Y1039368D01*
X95495Y1039426D01*
X95497Y1039484D01*
X95475Y1039566D01*
X95463Y1039650D01*
X95440Y1039703D01*
X95425Y1039759D01*
X95382Y1039832D01*
X95347Y1039909D01*
X95309Y1039954D01*
X95280Y1040004D01*
X95218Y1040062D01*
X95164Y1040126D01*
X95115Y1040158D01*
X95072Y1040198D01*
X94997Y1040237D01*
X94927Y1040284D01*
X94871Y1040301D01*
X94819Y1040328D01*
X94751Y1040339D01*
X94656Y1040369D01*
X94556Y1040372D01*
X94488Y1040383D01*
X79274Y1040383D01*
X79243Y1040379D01*
X79213Y1040381D01*
X79136Y1040364D01*
X78992Y1040343D01*
X78934Y1040317D01*
X78885Y1040306D01*
X77539Y1039748D01*
X74861Y1039748D01*
X72387Y1040773D01*
X70493Y1042667D01*
X69468Y1045141D01*
X69468Y1047819D01*
X70493Y1050293D01*
X72387Y1052187D01*
X74861Y1053212D01*
X77539Y1053212D01*
X78885Y1052654D01*
X78915Y1052646D01*
X78943Y1052632D01*
X79020Y1052619D01*
X79161Y1052583D01*
X79225Y1052585D01*
X79274Y1052577D01*
X123926Y1052577D01*
X123957Y1052581D01*
X123987Y1052579D01*
X124064Y1052596D01*
X124207Y1052617D01*
X124266Y1052643D01*
X124315Y1052654D01*
X125661Y1053212D01*
X128339Y1053212D01*
X129685Y1052654D01*
X129715Y1052646D01*
X129743Y1052632D01*
X129820Y1052619D01*
X129961Y1052583D01*
X130025Y1052585D01*
X130074Y1052577D01*
X250138Y1052577D01*
X250196Y1052585D01*
X250254Y1052583D01*
X250336Y1052605D01*
X250420Y1052617D01*
X250473Y1052640D01*
X250529Y1052655D01*
X250602Y1052698D01*
X250679Y1052733D01*
X250724Y1052771D01*
X250774Y1052800D01*
X250832Y1052862D01*
X250896Y1052916D01*
X250928Y1052965D01*
X250968Y1053008D01*
X251007Y1053083D01*
X251054Y1053153D01*
X251071Y1053209D01*
X251098Y1053261D01*
X251109Y1053329D01*
X251139Y1053424D01*
X251142Y1053524D01*
X251153Y1053592D01*
X251153Y1116580D01*
X251153Y1116582D01*
X251153Y1116583D01*
X251133Y1116723D01*
X251113Y1116861D01*
X251113Y1116863D01*
X251113Y1116864D01*
X251056Y1116990D01*
X250997Y1117121D01*
X250996Y1117122D01*
X250995Y1117124D01*
X250904Y1117231D01*
X250814Y1117338D01*
X250812Y1117339D01*
X250811Y1117340D01*
X250798Y1117348D01*
X250577Y1117495D01*
X250548Y1117505D01*
X250527Y1117518D01*
X249768Y1117832D01*
X246052Y1121548D01*
X244041Y1126403D01*
X244041Y1131657D01*
X246052Y1136512D01*
X249768Y1140228D01*
X254623Y1142239D01*
X259877Y1142239D01*
X264732Y1140228D01*
X268448Y1136512D01*
X270459Y1131657D01*
X270459Y1126403D01*
X268448Y1121548D01*
X264732Y1117832D01*
X263973Y1117518D01*
X263972Y1117517D01*
X263971Y1117517D01*
X263852Y1117447D01*
X263729Y1117373D01*
X263728Y1117372D01*
X263726Y1117371D01*
X263629Y1117267D01*
X263533Y1117167D01*
X263533Y1117165D01*
X263532Y1117164D01*
X263467Y1117038D01*
X263403Y1116914D01*
X263403Y1116912D01*
X263402Y1116911D01*
X263400Y1116896D01*
X263348Y1116635D01*
X263351Y1116605D01*
X263347Y1116580D01*
X263347Y1053592D01*
X263355Y1053534D01*
X263353Y1053476D01*
X263375Y1053394D01*
X263387Y1053310D01*
X263410Y1053257D01*
X263425Y1053201D01*
X263468Y1053128D01*
X263503Y1053051D01*
X263541Y1053006D01*
X263570Y1052956D01*
X263632Y1052898D01*
X263686Y1052834D01*
X263735Y1052802D01*
X263778Y1052762D01*
X263853Y1052723D01*
X263923Y1052676D01*
X263979Y1052659D01*
X264031Y1052632D01*
X264099Y1052621D01*
X264194Y1052591D01*
X264294Y1052588D01*
X264362Y1052577D01*
X311826Y1052577D01*
X311857Y1052581D01*
X311887Y1052579D01*
X311964Y1052596D01*
X312107Y1052617D01*
X312166Y1052643D01*
X312215Y1052654D01*
X313561Y1053212D01*
X316239Y1053212D01*
X317585Y1052654D01*
X317615Y1052646D01*
X317643Y1052632D01*
X317720Y1052619D01*
X317861Y1052583D01*
X317925Y1052585D01*
X317974Y1052577D01*
X670026Y1052577D01*
X670057Y1052581D01*
X670087Y1052579D01*
X670164Y1052596D01*
X670308Y1052617D01*
X670366Y1052643D01*
X670415Y1052654D01*
X671761Y1053212D01*
X674439Y1053212D01*
X675785Y1052654D01*
X675815Y1052646D01*
X675843Y1052632D01*
X675920Y1052619D01*
X676061Y1052583D01*
X676125Y1052585D01*
X676174Y1052577D01*
X707338Y1052577D01*
X707396Y1052585D01*
X707454Y1052583D01*
X707536Y1052605D01*
X707620Y1052617D01*
X707673Y1052640D01*
X707729Y1052655D01*
X707802Y1052698D01*
X707879Y1052733D01*
X707924Y1052771D01*
X707974Y1052800D01*
X708032Y1052862D01*
X708096Y1052916D01*
X708128Y1052965D01*
X708168Y1053008D01*
X708207Y1053083D01*
X708254Y1053153D01*
X708271Y1053209D01*
X708298Y1053261D01*
X708309Y1053329D01*
X708339Y1053424D01*
X708342Y1053524D01*
X708353Y1053592D01*
X708353Y1116580D01*
X708353Y1116582D01*
X708353Y1116583D01*
X708333Y1116723D01*
X708313Y1116861D01*
X708313Y1116863D01*
X708313Y1116864D01*
X708256Y1116990D01*
X708197Y1117121D01*
X708196Y1117122D01*
X708195Y1117124D01*
X708104Y1117231D01*
X708014Y1117338D01*
X708012Y1117339D01*
X708011Y1117340D01*
X707998Y1117348D01*
X707777Y1117495D01*
X707748Y1117505D01*
X707727Y1117518D01*
X706968Y1117832D01*
X703252Y1121548D01*
X701241Y1126403D01*
X701241Y1131657D01*
X703252Y1136512D01*
X706968Y1140228D01*
X711823Y1142239D01*
X717077Y1142239D01*
X721932Y1140228D01*
X725648Y1136512D01*
X727659Y1131657D01*
X727659Y1126403D01*
X725648Y1121548D01*
X721932Y1117832D01*
X721173Y1117518D01*
X721172Y1117517D01*
X721171Y1117517D01*
X721052Y1117447D01*
X720929Y1117373D01*
X720928Y1117372D01*
X720926Y1117371D01*
X720829Y1117267D01*
X720733Y1117167D01*
X720733Y1117165D01*
X720732Y1117164D01*
X720667Y1117038D01*
X720603Y1116914D01*
X720603Y1116912D01*
X720602Y1116911D01*
X720600Y1116896D01*
X720548Y1116635D01*
X720551Y1116605D01*
X720547Y1116580D01*
X720547Y1053592D01*
X720555Y1053534D01*
X720553Y1053476D01*
X720575Y1053394D01*
X720587Y1053310D01*
X720610Y1053257D01*
X720625Y1053201D01*
X720668Y1053128D01*
X720703Y1053051D01*
X720741Y1053006D01*
X720770Y1052956D01*
X720832Y1052898D01*
X720886Y1052834D01*
X720935Y1052802D01*
X720978Y1052762D01*
X721053Y1052723D01*
X721123Y1052676D01*
X721179Y1052659D01*
X721231Y1052632D01*
X721299Y1052621D01*
X721394Y1052591D01*
X721494Y1052588D01*
X721562Y1052577D01*
X1164538Y1052577D01*
X1164596Y1052585D01*
X1164654Y1052583D01*
X1164736Y1052605D01*
X1164820Y1052617D01*
X1164873Y1052640D01*
X1164929Y1052655D01*
X1165002Y1052698D01*
X1165079Y1052733D01*
X1165124Y1052771D01*
X1165174Y1052800D01*
X1165232Y1052862D01*
X1165296Y1052916D01*
X1165328Y1052965D01*
X1165368Y1053008D01*
X1165407Y1053083D01*
X1165454Y1053153D01*
X1165471Y1053209D01*
X1165498Y1053261D01*
X1165509Y1053329D01*
X1165539Y1053424D01*
X1165542Y1053524D01*
X1165553Y1053592D01*
X1165553Y1116580D01*
X1165553Y1116582D01*
X1165553Y1116583D01*
X1165533Y1116723D01*
X1165513Y1116861D01*
X1165513Y1116863D01*
X1165513Y1116864D01*
X1165456Y1116990D01*
X1165397Y1117121D01*
X1165396Y1117122D01*
X1165395Y1117124D01*
X1165304Y1117231D01*
X1165214Y1117338D01*
X1165212Y1117339D01*
X1165211Y1117340D01*
X1165198Y1117348D01*
X1164977Y1117495D01*
X1164948Y1117505D01*
X1164927Y1117518D01*
X1164168Y1117832D01*
X1160452Y1121548D01*
X1158441Y1126403D01*
X1158441Y1131657D01*
X1160452Y1136512D01*
X1164168Y1140228D01*
X1169023Y1142239D01*
X1174277Y1142239D01*
X1179132Y1140228D01*
X1182848Y1136512D01*
X1184859Y1131657D01*
X1184859Y1126403D01*
X1182848Y1121548D01*
X1179132Y1117832D01*
X1178373Y1117518D01*
X1178372Y1117517D01*
X1178371Y1117517D01*
X1178252Y1117447D01*
X1178129Y1117373D01*
X1178128Y1117372D01*
X1178126Y1117371D01*
X1178029Y1117267D01*
X1177933Y1117167D01*
X1177933Y1117165D01*
X1177932Y1117164D01*
X1177867Y1117038D01*
X1177803Y1116914D01*
X1177803Y1116912D01*
X1177802Y1116911D01*
X1177800Y1116896D01*
X1177748Y1116635D01*
X1177751Y1116605D01*
X1177747Y1116580D01*
X1177747Y1053592D01*
X1177755Y1053534D01*
X1177753Y1053476D01*
X1177775Y1053394D01*
X1177787Y1053310D01*
X1177810Y1053257D01*
X1177825Y1053201D01*
X1177868Y1053128D01*
X1177903Y1053051D01*
X1177941Y1053006D01*
X1177970Y1052956D01*
X1178032Y1052898D01*
X1178086Y1052834D01*
X1178135Y1052802D01*
X1178178Y1052762D01*
X1178253Y1052723D01*
X1178323Y1052676D01*
X1178379Y1052659D01*
X1178431Y1052632D01*
X1178499Y1052621D01*
X1178594Y1052591D01*
X1178694Y1052588D01*
X1178762Y1052577D01*
X1621738Y1052577D01*
X1621796Y1052585D01*
X1621854Y1052583D01*
X1621936Y1052605D01*
X1622020Y1052617D01*
X1622073Y1052640D01*
X1622129Y1052655D01*
X1622202Y1052698D01*
X1622279Y1052733D01*
X1622324Y1052771D01*
X1622374Y1052800D01*
X1622432Y1052862D01*
X1622496Y1052916D01*
X1622528Y1052965D01*
X1622568Y1053008D01*
X1622607Y1053083D01*
X1622654Y1053153D01*
X1622671Y1053209D01*
X1622698Y1053261D01*
X1622709Y1053329D01*
X1622739Y1053424D01*
X1622742Y1053524D01*
X1622753Y1053592D01*
X1622753Y1116580D01*
X1622753Y1116582D01*
X1622753Y1116583D01*
X1622733Y1116723D01*
X1622713Y1116861D01*
X1622713Y1116863D01*
X1622713Y1116864D01*
X1622656Y1116990D01*
X1622597Y1117121D01*
X1622596Y1117122D01*
X1622595Y1117124D01*
X1622504Y1117231D01*
X1622414Y1117338D01*
X1622412Y1117339D01*
X1622411Y1117340D01*
X1622398Y1117348D01*
X1622177Y1117495D01*
X1622148Y1117505D01*
X1622127Y1117518D01*
X1621368Y1117832D01*
X1617652Y1121548D01*
X1615641Y1126403D01*
X1615641Y1131657D01*
X1617652Y1136512D01*
X1621368Y1140228D01*
X1626223Y1142239D01*
X1631477Y1142239D01*
X1636332Y1140228D01*
X1640048Y1136512D01*
X1642059Y1131657D01*
X1642059Y1126403D01*
X1640048Y1121548D01*
X1636332Y1117832D01*
X1635573Y1117518D01*
X1635572Y1117517D01*
X1635571Y1117517D01*
X1635452Y1117447D01*
X1635329Y1117373D01*
X1635328Y1117372D01*
X1635326Y1117371D01*
X1635229Y1117267D01*
X1635133Y1117167D01*
X1635133Y1117165D01*
X1635132Y1117164D01*
X1635067Y1117038D01*
X1635003Y1116914D01*
X1635003Y1116912D01*
X1635002Y1116911D01*
X1635000Y1116896D01*
X1634948Y1116635D01*
X1634951Y1116605D01*
X1634947Y1116580D01*
X1634947Y1053592D01*
X1634955Y1053534D01*
X1634953Y1053476D01*
X1634975Y1053394D01*
X1634987Y1053310D01*
X1635010Y1053257D01*
X1635025Y1053201D01*
X1635068Y1053128D01*
X1635103Y1053051D01*
X1635141Y1053006D01*
X1635170Y1052956D01*
X1635232Y1052898D01*
X1635286Y1052834D01*
X1635335Y1052802D01*
X1635378Y1052762D01*
X1635453Y1052723D01*
X1635523Y1052676D01*
X1635579Y1052659D01*
X1635631Y1052632D01*
X1635699Y1052621D01*
X1635794Y1052591D01*
X1635894Y1052588D01*
X1635962Y1052577D01*
X1741113Y1052577D01*
X1743354Y1051649D01*
X1754737Y1040265D01*
X1754762Y1040246D01*
X1754782Y1040223D01*
X1754849Y1040181D01*
X1754965Y1040094D01*
X1755025Y1040071D01*
X1755067Y1040045D01*
X1756413Y1039487D01*
X1758307Y1037593D01*
X1759332Y1035119D01*
X1759332Y1032441D01*
X1758307Y1029967D01*
X1756413Y1028073D01*
X1753939Y1027048D01*
X1751261Y1027048D01*
X1748787Y1028073D01*
X1746893Y1029967D01*
X1746335Y1031313D01*
X1746320Y1031340D01*
X1746310Y1031369D01*
X1746265Y1031433D01*
X1746191Y1031558D01*
X1746144Y1031602D01*
X1746115Y1031643D01*
X1737672Y1040086D01*
X1737602Y1040138D01*
X1737538Y1040198D01*
X1737489Y1040224D01*
X1737445Y1040257D01*
X1737363Y1040288D01*
X1737285Y1040328D01*
X1737238Y1040336D01*
X1737179Y1040358D01*
X1737031Y1040370D01*
X1736954Y1040383D01*
X676174Y1040383D01*
X676143Y1040379D01*
X676113Y1040381D01*
X676036Y1040364D01*
X675893Y1040343D01*
X675834Y1040317D01*
X675785Y1040306D01*
X674439Y1039748D01*
X671761Y1039748D01*
X670415Y1040306D01*
X670385Y1040314D01*
X670357Y1040328D01*
X670280Y1040341D01*
X670139Y1040377D01*
X670075Y1040375D01*
X670026Y1040383D01*
X317974Y1040383D01*
X317943Y1040379D01*
X317913Y1040381D01*
X317836Y1040364D01*
X317692Y1040343D01*
X317634Y1040317D01*
X317585Y1040306D01*
X316239Y1039748D01*
X313561Y1039748D01*
X312215Y1040306D01*
X312185Y1040314D01*
X312157Y1040328D01*
X312080Y1040341D01*
X311939Y1040377D01*
X311875Y1040375D01*
X311826Y1040383D01*
X130074Y1040383D01*
X130043Y1040379D01*
X130013Y1040381D01*
X129936Y1040364D01*
X129793Y1040343D01*
X129734Y1040317D01*
X129685Y1040306D01*
X128339Y1039748D01*
X125661Y1039748D01*
X124315Y1040306D01*
X124285Y1040314D01*
X124257Y1040328D01*
X124180Y1040341D01*
X124039Y1040377D01*
X123975Y1040375D01*
X123926Y1040383D01*
X108712Y1040383D01*
X108654Y1040375D01*
X108596Y1040377D01*
X108514Y1040355D01*
X108430Y1040343D01*
X108377Y1040320D01*
X108321Y1040305D01*
X108248Y1040262D01*
X108171Y1040227D01*
X108126Y1040189D01*
X108076Y1040160D01*
X108018Y1040098D01*
X107954Y1040044D01*
X107922Y1039995D01*
X107882Y1039952D01*
X107843Y1039877D01*
X107796Y1039807D01*
X107779Y1039751D01*
X107752Y1039699D01*
X107741Y1039631D01*
X107711Y1039536D01*
X107708Y1039436D01*
X107697Y1039368D01*
X107697Y943805D01*
X107697Y943804D01*
X107697Y943802D01*
X107704Y943752D01*
X107703Y943733D01*
X107711Y943706D01*
X107717Y943660D01*
X107737Y943524D01*
X107737Y943522D01*
X107737Y943521D01*
X107795Y943393D01*
X107853Y943264D01*
X107854Y943263D01*
X107855Y943262D01*
X107945Y943155D01*
X108036Y943047D01*
X108038Y943046D01*
X108039Y943045D01*
X108052Y943037D01*
X108273Y942890D01*
X108302Y942880D01*
X108324Y942867D01*
X108651Y942732D01*
X112152Y939231D01*
X113362Y936309D01*
X113377Y936284D01*
X113386Y936256D01*
X113449Y936161D01*
X113507Y936064D01*
X113528Y936044D01*
X113544Y936019D01*
X113631Y935946D01*
X113713Y935869D01*
X113739Y935855D01*
X113762Y935836D01*
X113865Y935790D01*
X113966Y935739D01*
X113995Y935733D01*
X114022Y935721D01*
X114134Y935705D01*
X114245Y935684D01*
X114274Y935686D01*
X114303Y935682D01*
X114415Y935698D01*
X114528Y935708D01*
X114555Y935719D01*
X114585Y935723D01*
X114688Y935769D01*
X114793Y935810D01*
X114817Y935828D01*
X114844Y935840D01*
X114930Y935913D01*
X115020Y935982D01*
X115038Y936005D01*
X115060Y936024D01*
X115102Y936091D01*
X115190Y936209D01*
X115212Y936268D01*
X115238Y936309D01*
X116448Y939231D01*
X119949Y942732D01*
X124524Y944627D01*
X126928Y944627D01*
X127014Y944639D01*
X127102Y944642D01*
X127155Y944659D01*
X127209Y944667D01*
X127289Y944702D01*
X127372Y944729D01*
X127412Y944757D01*
X127469Y944783D01*
X127582Y944879D01*
X127646Y944924D01*
X132671Y949949D01*
X132723Y950019D01*
X132783Y950083D01*
X132809Y950132D01*
X132842Y950176D01*
X132873Y950258D01*
X132913Y950336D01*
X132921Y950384D01*
X132943Y950442D01*
X132955Y950590D01*
X132968Y950667D01*
X132968Y952569D01*
X133993Y955043D01*
X135887Y956937D01*
X138361Y957962D01*
X140263Y957962D01*
X140349Y957974D01*
X140437Y957977D01*
X140490Y957994D01*
X140544Y958002D01*
X140624Y958037D01*
X140707Y958064D01*
X140747Y958092D01*
X140804Y958118D01*
X140917Y958214D01*
X140981Y958259D01*
X144366Y961645D01*
X268444Y961645D01*
X268531Y961657D01*
X268618Y961660D01*
X268671Y961677D01*
X268726Y961685D01*
X268805Y961720D01*
X268889Y961747D01*
X268928Y961775D01*
X268985Y961801D01*
X269098Y961897D01*
X269162Y961942D01*
X270507Y963287D01*
X272981Y964312D01*
X275659Y964312D01*
X278133Y963287D01*
X279478Y961942D01*
X279548Y961890D01*
X279612Y961830D01*
X279661Y961804D01*
X279705Y961771D01*
X279787Y961740D01*
X279865Y961700D01*
X279912Y961692D01*
X279971Y961670D01*
X280119Y961658D01*
X280196Y961645D01*
X326693Y961645D01*
X326778Y961657D01*
X326864Y961659D01*
X326918Y961677D01*
X326975Y961685D01*
X327053Y961720D01*
X327135Y961746D01*
X327182Y961778D01*
X327234Y961801D01*
X327300Y961856D01*
X327371Y961904D01*
X327408Y961948D01*
X327451Y961984D01*
X327499Y962056D01*
X327554Y962122D01*
X327577Y962174D01*
X327609Y962221D01*
X327635Y962303D01*
X327670Y962382D01*
X327677Y962438D01*
X327695Y962492D01*
X327697Y962578D01*
X327708Y962663D01*
X327700Y962719D01*
X327702Y962776D01*
X327680Y962859D01*
X327668Y962945D01*
X327644Y962996D01*
X327630Y963051D01*
X327586Y963125D01*
X327551Y963204D01*
X327514Y963247D01*
X327485Y963296D01*
X327422Y963355D01*
X327366Y963420D01*
X327324Y963446D01*
X327277Y963490D01*
X327148Y963556D01*
X327082Y963598D01*
X326027Y964035D01*
X323955Y966107D01*
X322833Y968815D01*
X322833Y971745D01*
X323955Y974453D01*
X326027Y976525D01*
X328735Y977647D01*
X331665Y977647D01*
X334373Y976525D01*
X336445Y974453D01*
X337293Y972406D01*
X337351Y972308D01*
X337404Y972206D01*
X337423Y972186D01*
X337437Y972162D01*
X337521Y972083D01*
X337600Y972000D01*
X337624Y971986D01*
X337644Y971966D01*
X337746Y971914D01*
X337845Y971856D01*
X337872Y971849D01*
X337897Y971836D01*
X338010Y971814D01*
X338121Y971786D01*
X338148Y971787D01*
X338176Y971781D01*
X338290Y971791D01*
X338405Y971795D01*
X338431Y971803D01*
X338459Y971806D01*
X338566Y971847D01*
X338675Y971882D01*
X338696Y971897D01*
X338724Y971908D01*
X338936Y972068D01*
X338949Y972077D01*
X351238Y984366D01*
X351290Y984436D01*
X351350Y984500D01*
X351376Y984549D01*
X351409Y984594D01*
X351440Y984675D01*
X351480Y984753D01*
X351488Y984801D01*
X351510Y984859D01*
X351522Y985007D01*
X351535Y985084D01*
X351535Y988906D01*
X351523Y988993D01*
X351520Y989080D01*
X351503Y989133D01*
X351495Y989188D01*
X351460Y989267D01*
X351433Y989351D01*
X351405Y989390D01*
X351379Y989447D01*
X351283Y989560D01*
X351238Y989624D01*
X349355Y991507D01*
X348233Y994215D01*
X348233Y997145D01*
X349355Y999853D01*
X351427Y1001925D01*
X354135Y1003047D01*
X357065Y1003047D01*
X359773Y1001925D01*
X361845Y999853D01*
X362967Y997145D01*
X362967Y994215D01*
X361845Y991507D01*
X359962Y989624D01*
X359910Y989554D01*
X359850Y989490D01*
X359824Y989441D01*
X359791Y989397D01*
X359760Y989315D01*
X359720Y989237D01*
X359712Y989190D01*
X359690Y989131D01*
X359678Y988983D01*
X359665Y988906D01*
X359665Y981296D01*
X357397Y979029D01*
X357328Y978937D01*
X357254Y978849D01*
X357243Y978824D01*
X357226Y978802D01*
X357185Y978694D01*
X357139Y978589D01*
X357135Y978562D01*
X357125Y978536D01*
X357115Y978422D01*
X357100Y978308D01*
X357104Y978280D01*
X357101Y978253D01*
X357124Y978140D01*
X357140Y978026D01*
X357152Y978001D01*
X357157Y977974D01*
X357210Y977872D01*
X357258Y977767D01*
X357276Y977746D01*
X357288Y977722D01*
X357367Y977638D01*
X357442Y977551D01*
X357463Y977538D01*
X357484Y977515D01*
X357714Y977381D01*
X357726Y977373D01*
X359773Y976525D01*
X361845Y974453D01*
X362967Y971745D01*
X362967Y968815D01*
X361845Y966107D01*
X359773Y964035D01*
X357065Y962913D01*
X354135Y962913D01*
X351427Y964035D01*
X349355Y966107D01*
X348507Y968154D01*
X348449Y968252D01*
X348396Y968354D01*
X348377Y968374D01*
X348363Y968398D01*
X348279Y968477D01*
X348200Y968560D01*
X348176Y968574D01*
X348156Y968594D01*
X348054Y968646D01*
X347955Y968704D01*
X347928Y968711D01*
X347903Y968724D01*
X347790Y968746D01*
X347679Y968774D01*
X347652Y968773D01*
X347624Y968779D01*
X347510Y968769D01*
X347395Y968765D01*
X347369Y968757D01*
X347341Y968754D01*
X347234Y968713D01*
X347125Y968678D01*
X347104Y968663D01*
X347076Y968652D01*
X346864Y968492D01*
X346851Y968483D01*
X334562Y956194D01*
X331884Y953515D01*
X280196Y953515D01*
X280109Y953503D01*
X280022Y953500D01*
X279969Y953483D01*
X279914Y953475D01*
X279835Y953440D01*
X279751Y953413D01*
X279712Y953385D01*
X279655Y953359D01*
X279542Y953263D01*
X279478Y953218D01*
X278133Y951873D01*
X275659Y950848D01*
X272981Y950848D01*
X270507Y951873D01*
X269162Y953218D01*
X269092Y953270D01*
X269028Y953330D01*
X268979Y953356D01*
X268935Y953389D01*
X268853Y953420D01*
X268775Y953460D01*
X268728Y953468D01*
X268669Y953490D01*
X268521Y953502D01*
X268444Y953515D01*
X148154Y953515D01*
X148068Y953503D01*
X147980Y953500D01*
X147928Y953483D01*
X147873Y953475D01*
X147793Y953440D01*
X147710Y953413D01*
X147670Y953385D01*
X147613Y953359D01*
X147500Y953263D01*
X147436Y953218D01*
X146729Y952511D01*
X146677Y952441D01*
X146617Y952377D01*
X146591Y952328D01*
X146558Y952284D01*
X146527Y952202D01*
X146487Y952124D01*
X146479Y952076D01*
X146457Y952018D01*
X146445Y951870D01*
X146432Y951793D01*
X146432Y949891D01*
X145407Y947417D01*
X143513Y945523D01*
X141039Y944498D01*
X139137Y944498D01*
X139051Y944486D01*
X138963Y944483D01*
X138910Y944466D01*
X138856Y944458D01*
X138776Y944423D01*
X138693Y944396D01*
X138653Y944368D01*
X138596Y944342D01*
X138483Y944246D01*
X138419Y944201D01*
X136218Y942000D01*
X136183Y941953D01*
X136141Y941913D01*
X136098Y941840D01*
X136047Y941773D01*
X136027Y941718D01*
X135997Y941668D01*
X135976Y941586D01*
X135946Y941507D01*
X135941Y941449D01*
X135927Y941392D01*
X135930Y941308D01*
X135923Y941224D01*
X135934Y941166D01*
X135936Y941108D01*
X135962Y941028D01*
X135978Y940945D01*
X136005Y940893D01*
X136023Y940837D01*
X136063Y940781D01*
X136109Y940693D01*
X136178Y940620D01*
X136218Y940564D01*
X137552Y939231D01*
X138762Y936309D01*
X138777Y936284D01*
X138786Y936256D01*
X138849Y936161D01*
X138907Y936064D01*
X138928Y936044D01*
X138944Y936019D01*
X139031Y935946D01*
X139113Y935869D01*
X139139Y935855D01*
X139162Y935836D01*
X139265Y935790D01*
X139366Y935739D01*
X139395Y935733D01*
X139422Y935721D01*
X139534Y935705D01*
X139645Y935684D01*
X139674Y935686D01*
X139703Y935682D01*
X139815Y935698D01*
X139928Y935708D01*
X139955Y935719D01*
X139985Y935723D01*
X140088Y935769D01*
X140193Y935810D01*
X140217Y935828D01*
X140244Y935840D01*
X140330Y935913D01*
X140420Y935982D01*
X140438Y936005D01*
X140460Y936024D01*
X140502Y936091D01*
X140590Y936209D01*
X140612Y936268D01*
X140638Y936309D01*
X141848Y939231D01*
X145349Y942732D01*
X149924Y944627D01*
X154876Y944627D01*
X159451Y942732D01*
X162952Y939231D01*
X164162Y936309D01*
X164177Y936284D01*
X164186Y936256D01*
X164249Y936161D01*
X164307Y936064D01*
X164328Y936044D01*
X164344Y936019D01*
X164431Y935947D01*
X164513Y935869D01*
X164539Y935855D01*
X164562Y935837D01*
X164665Y935791D01*
X164766Y935739D01*
X164795Y935733D01*
X164822Y935721D01*
X164934Y935705D01*
X165045Y935684D01*
X165074Y935686D01*
X165103Y935682D01*
X165215Y935698D01*
X165328Y935708D01*
X165355Y935719D01*
X165384Y935723D01*
X165488Y935769D01*
X165593Y935810D01*
X165617Y935828D01*
X165644Y935840D01*
X165730Y935913D01*
X165820Y935982D01*
X165838Y936005D01*
X165860Y936024D01*
X165902Y936091D01*
X165990Y936209D01*
X166012Y936268D01*
X166038Y936309D01*
X167248Y939231D01*
X170749Y942732D01*
X175324Y944627D01*
X180276Y944627D01*
X184851Y942732D01*
X188352Y939231D01*
X190247Y934656D01*
X190247Y929704D01*
X188277Y924949D01*
X188248Y924837D01*
X188214Y924728D01*
X188213Y924700D01*
X188206Y924673D01*
X188209Y924559D01*
X188206Y924444D01*
X188213Y924417D01*
X188214Y924389D01*
X188249Y924280D01*
X188278Y924169D01*
X188292Y924145D01*
X188301Y924118D01*
X188365Y924023D01*
X188423Y923924D01*
X188444Y923905D01*
X188459Y923882D01*
X188547Y923808D01*
X188631Y923730D01*
X188655Y923717D01*
X188677Y923699D01*
X188781Y923653D01*
X188884Y923600D01*
X188908Y923596D01*
X188936Y923584D01*
X189200Y923547D01*
X189215Y923545D01*
X1567350Y923545D01*
X1567353Y923545D01*
X1567357Y923545D01*
X1567494Y923565D01*
X1567631Y923585D01*
X1567635Y923586D01*
X1567638Y923586D01*
X1567764Y923644D01*
X1567891Y923701D01*
X1567893Y923703D01*
X1567897Y923704D01*
X1568001Y923794D01*
X1568108Y923884D01*
X1568110Y923887D01*
X1568112Y923890D01*
X1568188Y924004D01*
X1568265Y924121D01*
X1568267Y924124D01*
X1568268Y924127D01*
X1568309Y924260D01*
X1568351Y924392D01*
X1568351Y924396D01*
X1568352Y924399D01*
X1568355Y924538D01*
X1568359Y924676D01*
X1568358Y924680D01*
X1568358Y924683D01*
X1568350Y924711D01*
X1568287Y924951D01*
X1568270Y924979D01*
X1568263Y925005D01*
X1568068Y925403D01*
X1568068Y931337D01*
X1568727Y932688D01*
X1568729Y932693D01*
X1568732Y932698D01*
X1568743Y932736D01*
X1568815Y932958D01*
X1568816Y932993D01*
X1568823Y933021D01*
X1568872Y933456D01*
X1569022Y933575D01*
X1569103Y933662D01*
X1569188Y933744D01*
X1569198Y933763D01*
X1569217Y933782D01*
X1569347Y934035D01*
X1569347Y934037D01*
X1569348Y934039D01*
X1569827Y935438D01*
X1573091Y937769D01*
X1577102Y937769D01*
X1580365Y935438D01*
X1580469Y935135D01*
X1580497Y935081D01*
X1580515Y935023D01*
X1580561Y934955D01*
X1580598Y934882D01*
X1580639Y934838D01*
X1580673Y934787D01*
X1580736Y934734D01*
X1580792Y934674D01*
X1580844Y934643D01*
X1580891Y934604D01*
X1580966Y934571D01*
X1581036Y934529D01*
X1581095Y934513D01*
X1581150Y934489D01*
X1581232Y934477D01*
X1581311Y934456D01*
X1581372Y934458D01*
X1581432Y934449D01*
X1581513Y934461D01*
X1581595Y934463D01*
X1581653Y934481D01*
X1581713Y934490D01*
X1581788Y934524D01*
X1581866Y934548D01*
X1581917Y934582D01*
X1581972Y934607D01*
X1582023Y934652D01*
X1582103Y934705D01*
X1582170Y934784D01*
X1582222Y934831D01*
X1582240Y934852D01*
X1582255Y934879D01*
X1582277Y934902D01*
X1582287Y934921D01*
X1582287Y934922D01*
X1582290Y934928D01*
X1582327Y935001D01*
X1582384Y935097D01*
X1582392Y935127D01*
X1582406Y935155D01*
X1582419Y935232D01*
X1582455Y935372D01*
X1582455Y935381D01*
X1583453Y936379D01*
X1583492Y936430D01*
X1583528Y936463D01*
X1584414Y937571D01*
X1584474Y937590D01*
X1584582Y937618D01*
X1584609Y937634D01*
X1584639Y937643D01*
X1584703Y937689D01*
X1584827Y937762D01*
X1584833Y937769D01*
X1586245Y937769D01*
X1586308Y937778D01*
X1586357Y937775D01*
X1587767Y937932D01*
X1587823Y937903D01*
X1587919Y937846D01*
X1587949Y937839D01*
X1587977Y937824D01*
X1588055Y937811D01*
X1588194Y937775D01*
X1588203Y937775D01*
X1589202Y936777D01*
X1589253Y936739D01*
X1589285Y936702D01*
X1592373Y934232D01*
X1592418Y934205D01*
X1592458Y934171D01*
X1592540Y934133D01*
X1592618Y934087D01*
X1592669Y934074D01*
X1592716Y934052D01*
X1592806Y934038D01*
X1592893Y934016D01*
X1592946Y934017D01*
X1592997Y934009D01*
X1593069Y934020D01*
X1593178Y934023D01*
X1593264Y934051D01*
X1593329Y934061D01*
X1594755Y934537D01*
X1596359Y933734D01*
X1596375Y933729D01*
X1596390Y933720D01*
X1596510Y933684D01*
X1596629Y933644D01*
X1596646Y933643D01*
X1596662Y933638D01*
X1596788Y933637D01*
X1596913Y933632D01*
X1596929Y933636D01*
X1596946Y933636D01*
X1597014Y933657D01*
X1597189Y933699D01*
X1597231Y933723D01*
X1597267Y933734D01*
X1598872Y934537D01*
X1602067Y933472D01*
X1603573Y930460D01*
X1601713Y924881D01*
X1601699Y924803D01*
X1601675Y924728D01*
X1601673Y924664D01*
X1601662Y924601D01*
X1601670Y924523D01*
X1601668Y924444D01*
X1601684Y924382D01*
X1601690Y924319D01*
X1601719Y924245D01*
X1601739Y924169D01*
X1601772Y924114D01*
X1601796Y924055D01*
X1601844Y923992D01*
X1601885Y923924D01*
X1601931Y923881D01*
X1601970Y923830D01*
X1602034Y923784D01*
X1602092Y923730D01*
X1602149Y923701D01*
X1602200Y923663D01*
X1602275Y923636D01*
X1602345Y923600D01*
X1602399Y923591D01*
X1602468Y923566D01*
X1602599Y923558D01*
X1602676Y923545D01*
X1816267Y923545D01*
X1816340Y923555D01*
X1816414Y923555D01*
X1816480Y923575D01*
X1816549Y923585D01*
X1816616Y923615D01*
X1816686Y923635D01*
X1816745Y923672D01*
X1816808Y923701D01*
X1816864Y923748D01*
X1816926Y923788D01*
X1816972Y923840D01*
X1817025Y923884D01*
X1817066Y923946D01*
X1817115Y924001D01*
X1817144Y924063D01*
X1817183Y924121D01*
X1817205Y924191D01*
X1817236Y924258D01*
X1817248Y924326D01*
X1817268Y924392D01*
X1817270Y924466D01*
X1817282Y924538D01*
X1817274Y924607D01*
X1817276Y924676D01*
X1817257Y924747D01*
X1817248Y924821D01*
X1817221Y924884D01*
X1817204Y924951D01*
X1817166Y925015D01*
X1817138Y925082D01*
X1817099Y925127D01*
X1817059Y925196D01*
X1816969Y925280D01*
X1816920Y925338D01*
X1811215Y930124D01*
X1807229Y937029D01*
X1805845Y944880D01*
X1807229Y952731D01*
X1811215Y959635D01*
X1817322Y964760D01*
X1824814Y967487D01*
X1832786Y967487D01*
X1840278Y964760D01*
X1846385Y959636D01*
X1848241Y956421D01*
X1848253Y956406D01*
X1848261Y956388D01*
X1848340Y956294D01*
X1848416Y956197D01*
X1848432Y956186D01*
X1848445Y956171D01*
X1848547Y956102D01*
X1848646Y956031D01*
X1848665Y956024D01*
X1848681Y956013D01*
X1848799Y955976D01*
X1848914Y955934D01*
X1848934Y955933D01*
X1848952Y955927D01*
X1849075Y955924D01*
X1849198Y955916D01*
X1849217Y955921D01*
X1849236Y955920D01*
X1849355Y955951D01*
X1849475Y955978D01*
X1849493Y955987D01*
X1849511Y955992D01*
X1849617Y956054D01*
X1849725Y956113D01*
X1849739Y956127D01*
X1849756Y956137D01*
X1849840Y956227D01*
X1849927Y956313D01*
X1849937Y956330D01*
X1849950Y956344D01*
X1850006Y956454D01*
X1850066Y956561D01*
X1850071Y956580D01*
X1850080Y956598D01*
X1850092Y956670D01*
X1850131Y956838D01*
X1850129Y956889D01*
X1850135Y956929D01*
X1850135Y1136031D01*
X1850133Y1136051D01*
X1850135Y1136070D01*
X1850113Y1136191D01*
X1850095Y1136313D01*
X1850087Y1136331D01*
X1850084Y1136350D01*
X1850029Y1136460D01*
X1849979Y1136572D01*
X1849967Y1136587D01*
X1849958Y1136605D01*
X1849875Y1136696D01*
X1849796Y1136789D01*
X1849779Y1136800D01*
X1849766Y1136815D01*
X1849661Y1136879D01*
X1849559Y1136947D01*
X1849540Y1136953D01*
X1849524Y1136963D01*
X1849405Y1136996D01*
X1849288Y1137033D01*
X1849268Y1137033D01*
X1849249Y1137038D01*
X1849127Y1137037D01*
X1849004Y1137040D01*
X1848985Y1137035D01*
X1848965Y1137035D01*
X1848847Y1136999D01*
X1848729Y1136968D01*
X1848712Y1136958D01*
X1848693Y1136952D01*
X1848590Y1136886D01*
X1848484Y1136823D01*
X1848471Y1136809D01*
X1848454Y1136798D01*
X1848408Y1136741D01*
X1848290Y1136616D01*
X1848266Y1136570D01*
X1848241Y1136539D01*
X1846385Y1133324D01*
X1840278Y1128200D01*
X1832786Y1125473D01*
X1824814Y1125473D01*
X1817322Y1128200D01*
X1811215Y1133324D01*
X1807229Y1140229D01*
X1805845Y1148080D01*
X1807229Y1155931D01*
X1811215Y1162835D01*
X1817322Y1167960D01*
X1824814Y1170687D01*
X1832786Y1170687D01*
X1840278Y1167960D01*
X1846385Y1162836D01*
X1848241Y1159621D01*
X1848253Y1159606D01*
X1848261Y1159588D01*
X1848340Y1159494D01*
X1848416Y1159397D01*
X1848432Y1159386D01*
X1848445Y1159371D01*
X1848547Y1159302D01*
X1848646Y1159231D01*
X1848665Y1159224D01*
X1848681Y1159213D01*
X1848799Y1159176D01*
X1848914Y1159134D01*
X1848934Y1159133D01*
X1848952Y1159127D01*
X1849075Y1159124D01*
X1849198Y1159116D01*
X1849217Y1159121D01*
X1849236Y1159120D01*
X1849355Y1159151D01*
X1849475Y1159178D01*
X1849493Y1159187D01*
X1849511Y1159192D01*
X1849617Y1159254D01*
X1849725Y1159313D01*
X1849739Y1159327D01*
X1849756Y1159337D01*
X1849840Y1159427D01*
X1849927Y1159513D01*
X1849937Y1159530D01*
X1849950Y1159544D01*
X1850006Y1159654D01*
X1850066Y1159761D01*
X1850071Y1159780D01*
X1850080Y1159798D01*
X1850092Y1159870D01*
X1850131Y1160038D01*
X1850129Y1160089D01*
X1850135Y1160129D01*
X1850135Y1173480D01*
X1850127Y1173538D01*
X1850129Y1173596D01*
X1850107Y1173678D01*
X1850095Y1173762D01*
X1850072Y1173815D01*
X1850057Y1173871D01*
X1850014Y1173944D01*
X1849979Y1174021D01*
X1849941Y1174066D01*
X1849912Y1174116D01*
X1849850Y1174174D01*
X1849796Y1174238D01*
X1849747Y1174270D01*
X1849704Y1174310D01*
X1849629Y1174349D01*
X1849559Y1174396D01*
X1849503Y1174413D01*
X1849451Y1174440D01*
X1849383Y1174451D01*
X1849288Y1174481D01*
X1849188Y1174484D01*
X1849120Y1174495D01*
X5080Y1174495D01*
X5022Y1174487D01*
X4964Y1174489D01*
X4882Y1174467D01*
X4798Y1174455D01*
X4745Y1174432D01*
X4689Y1174417D01*
X4616Y1174374D01*
X4539Y1174339D01*
X4494Y1174301D01*
X4444Y1174272D01*
X4386Y1174210D01*
X4322Y1174156D01*
X4290Y1174107D01*
X4250Y1174064D01*
X4211Y1173989D01*
X4164Y1173919D01*
X4147Y1173863D01*
X4120Y1173811D01*
X4109Y1173743D01*
X4079Y1173648D01*
X4076Y1173548D01*
X4065Y1173480D01*
X4065Y1160129D01*
X4067Y1160109D01*
X4065Y1160090D01*
X4087Y1159969D01*
X4105Y1159847D01*
X4113Y1159829D01*
X4116Y1159810D01*
X4171Y1159700D01*
X4221Y1159588D01*
X4233Y1159573D01*
X4242Y1159555D01*
X4325Y1159464D01*
X4404Y1159371D01*
X4421Y1159360D01*
X4434Y1159345D01*
X4539Y1159281D01*
X4641Y1159213D01*
X4660Y1159207D01*
X4676Y1159197D01*
X4795Y1159164D01*
X4912Y1159127D01*
X4932Y1159127D01*
X4951Y1159122D01*
X5073Y1159123D01*
X5196Y1159120D01*
X5215Y1159125D01*
X5235Y1159125D01*
X5353Y1159161D01*
X5471Y1159192D01*
X5488Y1159202D01*
X5507Y1159208D01*
X5610Y1159274D01*
X5716Y1159337D01*
X5729Y1159351D01*
X5746Y1159362D01*
X5792Y1159419D01*
X5910Y1159544D01*
X5934Y1159590D01*
X5959Y1159621D01*
X7815Y1162836D01*
X13922Y1167960D01*
X21414Y1170687D01*
X29386Y1170687D01*
X36878Y1167960D01*
X42985Y1162836D01*
X46971Y1155931D01*
X48355Y1148080D01*
X46971Y1140229D01*
X42985Y1133325D01*
X36878Y1128200D01*
X29386Y1125473D01*
X21414Y1125473D01*
X13922Y1128200D01*
X7815Y1133324D01*
X5959Y1136539D01*
X5947Y1136554D01*
X5939Y1136572D01*
X5860Y1136666D01*
X5784Y1136763D01*
X5768Y1136774D01*
X5755Y1136789D01*
X5653Y1136858D01*
X5554Y1136929D01*
X5535Y1136936D01*
X5519Y1136947D01*
X5401Y1136984D01*
X5286Y1137026D01*
X5266Y1137027D01*
X5248Y1137033D01*
X5125Y1137036D01*
X5002Y1137044D01*
X4983Y1137039D01*
X4964Y1137040D01*
X4845Y1137009D01*
X4725Y1136982D01*
X4707Y1136973D01*
X4689Y1136968D01*
X4583Y1136906D01*
X4475Y1136847D01*
X4461Y1136833D01*
X4444Y1136823D01*
X4360Y1136733D01*
X4273Y1136647D01*
X4263Y1136630D01*
X4250Y1136616D01*
X4194Y1136506D01*
X4134Y1136399D01*
X4129Y1136380D01*
X4120Y1136362D01*
X4108Y1136290D01*
X4069Y1136122D01*
X4071Y1136071D01*
X4065Y1136031D01*
X4065Y956929D01*
X4067Y956909D01*
X4065Y956890D01*
X4087Y956769D01*
X4105Y956647D01*
X4113Y956629D01*
X4116Y956610D01*
X4171Y956500D01*
X4221Y956388D01*
X4233Y956373D01*
X4242Y956355D01*
X4325Y956264D01*
X4404Y956171D01*
X4421Y956160D01*
X4434Y956145D01*
X4539Y956081D01*
X4641Y956013D01*
X4660Y956007D01*
X4676Y955997D01*
X4795Y955964D01*
X4912Y955927D01*
X4932Y955927D01*
X4951Y955922D01*
X5073Y955923D01*
X5196Y955920D01*
X5215Y955925D01*
X5235Y955925D01*
X5353Y955961D01*
X5471Y955992D01*
X5488Y956002D01*
X5507Y956008D01*
X5610Y956074D01*
X5716Y956137D01*
X5729Y956151D01*
X5746Y956162D01*
X5792Y956219D01*
X5910Y956344D01*
X5934Y956390D01*
X5959Y956421D01*
X7815Y959636D01*
X13922Y964760D01*
X21414Y967487D01*
X29386Y967487D01*
X36878Y964760D01*
X42985Y959636D01*
X46971Y952731D01*
X48355Y944880D01*
X46971Y937029D01*
X42985Y930125D01*
X37280Y925338D01*
X37231Y925283D01*
X37175Y925235D01*
X37136Y925178D01*
X37090Y925126D01*
X37058Y925060D01*
X37017Y924999D01*
X36996Y924933D01*
X36966Y924870D01*
X36954Y924798D01*
X36932Y924728D01*
X36930Y924659D01*
X36918Y924590D01*
X36926Y924517D01*
X36924Y924444D01*
X36942Y924377D01*
X36949Y924308D01*
X36977Y924240D01*
X36996Y924169D01*
X37031Y924109D01*
X37058Y924045D01*
X37104Y923987D01*
X37141Y923924D01*
X37192Y923877D01*
X37235Y923823D01*
X37295Y923780D01*
X37349Y923730D01*
X37410Y923698D01*
X37467Y923658D01*
X37536Y923634D01*
X37602Y923600D01*
X37660Y923590D01*
X37735Y923564D01*
X37857Y923557D01*
X37933Y923545D01*
X65724Y923545D01*
X65815Y923558D01*
G37*
G36*
X65815Y4078D02*
X65815Y4078D01*
X65907Y4081D01*
X65956Y4097D01*
X66006Y4105D01*
X66090Y4142D01*
X66177Y4171D01*
X66219Y4200D01*
X66265Y4221D01*
X66335Y4280D01*
X66411Y4332D01*
X66443Y4372D01*
X66482Y4404D01*
X66533Y4481D01*
X66592Y4552D01*
X66612Y4599D01*
X66640Y4641D01*
X66668Y4729D01*
X66704Y4813D01*
X66710Y4864D01*
X66726Y4912D01*
X66728Y5004D01*
X66739Y5095D01*
X66732Y5146D01*
X66733Y5196D01*
X66710Y5285D01*
X66695Y5376D01*
X66675Y5416D01*
X66661Y5471D01*
X66580Y5608D01*
X66546Y5677D01*
X65989Y6443D01*
X65136Y8117D01*
X64555Y9904D01*
X64434Y10669D01*
X75184Y10669D01*
X75242Y10677D01*
X75300Y10675D01*
X75382Y10697D01*
X75465Y10709D01*
X75519Y10733D01*
X75575Y10747D01*
X75648Y10790D01*
X75725Y10825D01*
X75769Y10863D01*
X75820Y10893D01*
X75877Y10954D01*
X75942Y11009D01*
X75974Y11057D01*
X76014Y11100D01*
X76053Y11175D01*
X76099Y11245D01*
X76117Y11301D01*
X76144Y11353D01*
X76155Y11421D01*
X76185Y11516D01*
X76188Y11616D01*
X76199Y11684D01*
X76199Y12701D01*
X77216Y12701D01*
X77274Y12709D01*
X77332Y12708D01*
X77414Y12729D01*
X77497Y12741D01*
X77551Y12765D01*
X77607Y12779D01*
X77680Y12822D01*
X77757Y12857D01*
X77802Y12895D01*
X77852Y12925D01*
X77910Y12986D01*
X77974Y13041D01*
X78006Y13089D01*
X78046Y13132D01*
X78085Y13207D01*
X78131Y13277D01*
X78149Y13333D01*
X78176Y13385D01*
X78187Y13453D01*
X78217Y13548D01*
X78220Y13648D01*
X78231Y13716D01*
X78231Y24466D01*
X78996Y24345D01*
X80783Y23764D01*
X82457Y22911D01*
X83978Y21806D01*
X85306Y20478D01*
X86411Y18957D01*
X87264Y17283D01*
X87628Y16163D01*
X87658Y16101D01*
X87679Y16035D01*
X87720Y15974D01*
X87753Y15908D01*
X87799Y15857D01*
X87838Y15799D01*
X87894Y15752D01*
X87943Y15697D01*
X88002Y15661D01*
X88055Y15616D01*
X88123Y15586D01*
X88185Y15548D01*
X88252Y15529D01*
X88315Y15501D01*
X88388Y15491D01*
X88459Y15471D01*
X88528Y15471D01*
X88597Y15462D01*
X88670Y15472D01*
X88743Y15473D01*
X88809Y15493D01*
X88878Y15503D01*
X88945Y15533D01*
X89016Y15554D01*
X89074Y15591D01*
X89137Y15620D01*
X89193Y15667D01*
X89255Y15707D01*
X89301Y15759D01*
X89353Y15804D01*
X89386Y15857D01*
X89443Y15921D01*
X89492Y16025D01*
X89531Y16089D01*
X91048Y19751D01*
X94549Y23252D01*
X94877Y23387D01*
X94878Y23388D01*
X94879Y23389D01*
X94998Y23459D01*
X95121Y23532D01*
X95122Y23533D01*
X95124Y23534D01*
X95221Y23638D01*
X95317Y23739D01*
X95317Y23740D01*
X95318Y23741D01*
X95383Y23867D01*
X95447Y23991D01*
X95447Y23993D01*
X95448Y23994D01*
X95450Y24009D01*
X95487Y24194D01*
X95489Y24202D01*
X95489Y24208D01*
X95502Y24270D01*
X95499Y24301D01*
X95503Y24325D01*
X95503Y119888D01*
X95495Y119946D01*
X95497Y120004D01*
X95475Y120086D01*
X95463Y120170D01*
X95440Y120223D01*
X95425Y120279D01*
X95382Y120352D01*
X95347Y120429D01*
X95309Y120474D01*
X95280Y120524D01*
X95218Y120582D01*
X95164Y120646D01*
X95115Y120678D01*
X95072Y120718D01*
X94997Y120757D01*
X94927Y120804D01*
X94871Y120821D01*
X94819Y120848D01*
X94751Y120859D01*
X94656Y120889D01*
X94556Y120892D01*
X94488Y120903D01*
X79274Y120903D01*
X79243Y120899D01*
X79213Y120901D01*
X79136Y120884D01*
X78992Y120863D01*
X78934Y120837D01*
X78885Y120826D01*
X77539Y120268D01*
X74861Y120268D01*
X72387Y121293D01*
X70493Y123187D01*
X69468Y125661D01*
X69468Y128339D01*
X70493Y130813D01*
X72387Y132707D01*
X74861Y133732D01*
X77539Y133732D01*
X78885Y133174D01*
X78915Y133166D01*
X78943Y133152D01*
X79020Y133139D01*
X79161Y133103D01*
X79225Y133105D01*
X79274Y133097D01*
X123926Y133097D01*
X123957Y133101D01*
X123987Y133099D01*
X124064Y133116D01*
X124207Y133137D01*
X124266Y133163D01*
X124315Y133174D01*
X125661Y133732D01*
X128339Y133732D01*
X129685Y133174D01*
X129715Y133166D01*
X129743Y133152D01*
X129820Y133139D01*
X129961Y133103D01*
X130025Y133105D01*
X130074Y133097D01*
X250138Y133097D01*
X250196Y133105D01*
X250254Y133103D01*
X250336Y133125D01*
X250420Y133137D01*
X250473Y133160D01*
X250529Y133175D01*
X250602Y133218D01*
X250679Y133253D01*
X250724Y133291D01*
X250774Y133320D01*
X250832Y133382D01*
X250896Y133436D01*
X250928Y133485D01*
X250968Y133528D01*
X251007Y133603D01*
X251054Y133673D01*
X251071Y133729D01*
X251098Y133781D01*
X251109Y133849D01*
X251139Y133944D01*
X251142Y134044D01*
X251153Y134112D01*
X251153Y197100D01*
X251153Y197102D01*
X251153Y197103D01*
X251133Y197243D01*
X251113Y197381D01*
X251113Y197383D01*
X251113Y197384D01*
X251056Y197510D01*
X250997Y197641D01*
X250996Y197642D01*
X250995Y197644D01*
X250904Y197751D01*
X250814Y197858D01*
X250812Y197859D01*
X250811Y197860D01*
X250798Y197868D01*
X250577Y198015D01*
X250548Y198025D01*
X250527Y198038D01*
X249768Y198352D01*
X246052Y202068D01*
X244041Y206923D01*
X244041Y212177D01*
X246052Y217032D01*
X249768Y220748D01*
X254623Y222759D01*
X259877Y222759D01*
X264732Y220748D01*
X268448Y217032D01*
X270459Y212177D01*
X270459Y206923D01*
X268448Y202068D01*
X264732Y198352D01*
X263973Y198038D01*
X263972Y198037D01*
X263971Y198037D01*
X263852Y197967D01*
X263729Y197893D01*
X263728Y197892D01*
X263726Y197891D01*
X263629Y197787D01*
X263533Y197687D01*
X263533Y197685D01*
X263532Y197684D01*
X263467Y197558D01*
X263403Y197434D01*
X263403Y197432D01*
X263402Y197431D01*
X263400Y197416D01*
X263348Y197155D01*
X263351Y197125D01*
X263347Y197100D01*
X263347Y134112D01*
X263355Y134054D01*
X263353Y133996D01*
X263375Y133914D01*
X263387Y133830D01*
X263410Y133777D01*
X263425Y133721D01*
X263468Y133648D01*
X263503Y133571D01*
X263541Y133526D01*
X263570Y133476D01*
X263632Y133418D01*
X263686Y133354D01*
X263735Y133322D01*
X263778Y133282D01*
X263853Y133243D01*
X263923Y133196D01*
X263979Y133179D01*
X264031Y133152D01*
X264099Y133141D01*
X264194Y133111D01*
X264294Y133108D01*
X264362Y133097D01*
X311826Y133097D01*
X311857Y133101D01*
X311887Y133099D01*
X311964Y133116D01*
X312107Y133137D01*
X312166Y133163D01*
X312215Y133174D01*
X313561Y133732D01*
X316239Y133732D01*
X317585Y133174D01*
X317615Y133166D01*
X317643Y133152D01*
X317720Y133139D01*
X317861Y133103D01*
X317925Y133105D01*
X317974Y133097D01*
X670026Y133097D01*
X670057Y133101D01*
X670087Y133099D01*
X670164Y133116D01*
X670308Y133137D01*
X670366Y133163D01*
X670415Y133174D01*
X671761Y133732D01*
X674439Y133732D01*
X675785Y133174D01*
X675815Y133166D01*
X675843Y133152D01*
X675920Y133139D01*
X676061Y133103D01*
X676125Y133105D01*
X676174Y133097D01*
X707338Y133097D01*
X707396Y133105D01*
X707454Y133103D01*
X707536Y133125D01*
X707620Y133137D01*
X707673Y133160D01*
X707729Y133175D01*
X707802Y133218D01*
X707879Y133253D01*
X707924Y133291D01*
X707974Y133320D01*
X708032Y133382D01*
X708096Y133436D01*
X708128Y133485D01*
X708168Y133528D01*
X708207Y133603D01*
X708254Y133673D01*
X708271Y133729D01*
X708298Y133781D01*
X708309Y133849D01*
X708339Y133944D01*
X708342Y134044D01*
X708353Y134112D01*
X708353Y197100D01*
X708353Y197102D01*
X708353Y197103D01*
X708333Y197243D01*
X708313Y197381D01*
X708313Y197383D01*
X708313Y197384D01*
X708256Y197510D01*
X708197Y197641D01*
X708196Y197642D01*
X708195Y197644D01*
X708104Y197751D01*
X708014Y197858D01*
X708012Y197859D01*
X708011Y197860D01*
X707998Y197868D01*
X707777Y198015D01*
X707748Y198025D01*
X707727Y198038D01*
X706968Y198352D01*
X703252Y202068D01*
X701241Y206923D01*
X701241Y212177D01*
X703252Y217032D01*
X706968Y220748D01*
X711823Y222759D01*
X717077Y222759D01*
X721932Y220748D01*
X725648Y217032D01*
X727659Y212177D01*
X727659Y206923D01*
X725648Y202068D01*
X721932Y198352D01*
X721173Y198038D01*
X721172Y198037D01*
X721171Y198037D01*
X721052Y197967D01*
X720929Y197893D01*
X720928Y197892D01*
X720926Y197891D01*
X720829Y197787D01*
X720733Y197687D01*
X720733Y197685D01*
X720732Y197684D01*
X720667Y197558D01*
X720603Y197434D01*
X720603Y197432D01*
X720602Y197431D01*
X720600Y197416D01*
X720548Y197155D01*
X720551Y197125D01*
X720547Y197100D01*
X720547Y134112D01*
X720555Y134054D01*
X720553Y133996D01*
X720575Y133914D01*
X720587Y133830D01*
X720610Y133777D01*
X720625Y133721D01*
X720668Y133648D01*
X720703Y133571D01*
X720741Y133526D01*
X720770Y133476D01*
X720832Y133418D01*
X720886Y133354D01*
X720935Y133322D01*
X720978Y133282D01*
X721053Y133243D01*
X721123Y133196D01*
X721179Y133179D01*
X721231Y133152D01*
X721299Y133141D01*
X721394Y133111D01*
X721494Y133108D01*
X721562Y133097D01*
X1164538Y133097D01*
X1164596Y133105D01*
X1164654Y133103D01*
X1164736Y133125D01*
X1164820Y133137D01*
X1164873Y133160D01*
X1164929Y133175D01*
X1165002Y133218D01*
X1165079Y133253D01*
X1165124Y133291D01*
X1165174Y133320D01*
X1165232Y133382D01*
X1165296Y133436D01*
X1165328Y133485D01*
X1165368Y133528D01*
X1165407Y133603D01*
X1165454Y133673D01*
X1165471Y133729D01*
X1165498Y133781D01*
X1165509Y133849D01*
X1165539Y133944D01*
X1165542Y134044D01*
X1165553Y134112D01*
X1165553Y197100D01*
X1165553Y197102D01*
X1165553Y197103D01*
X1165533Y197243D01*
X1165513Y197381D01*
X1165513Y197383D01*
X1165513Y197384D01*
X1165456Y197510D01*
X1165397Y197641D01*
X1165396Y197642D01*
X1165395Y197644D01*
X1165304Y197751D01*
X1165214Y197858D01*
X1165212Y197859D01*
X1165211Y197860D01*
X1165198Y197868D01*
X1164977Y198015D01*
X1164948Y198025D01*
X1164927Y198038D01*
X1164168Y198352D01*
X1160452Y202068D01*
X1158441Y206923D01*
X1158441Y212177D01*
X1160452Y217032D01*
X1164168Y220748D01*
X1169023Y222759D01*
X1174277Y222759D01*
X1179132Y220748D01*
X1182848Y217032D01*
X1184859Y212177D01*
X1184859Y206923D01*
X1182848Y202068D01*
X1179132Y198352D01*
X1178373Y198038D01*
X1178372Y198037D01*
X1178371Y198037D01*
X1178252Y197967D01*
X1178129Y197893D01*
X1178128Y197892D01*
X1178126Y197891D01*
X1178029Y197787D01*
X1177933Y197687D01*
X1177933Y197685D01*
X1177932Y197684D01*
X1177867Y197558D01*
X1177803Y197434D01*
X1177803Y197432D01*
X1177802Y197431D01*
X1177800Y197416D01*
X1177748Y197155D01*
X1177751Y197125D01*
X1177747Y197100D01*
X1177747Y134112D01*
X1177755Y134054D01*
X1177753Y133996D01*
X1177775Y133914D01*
X1177787Y133830D01*
X1177810Y133777D01*
X1177825Y133721D01*
X1177868Y133648D01*
X1177903Y133571D01*
X1177941Y133526D01*
X1177970Y133476D01*
X1178032Y133418D01*
X1178086Y133354D01*
X1178135Y133322D01*
X1178178Y133282D01*
X1178253Y133243D01*
X1178323Y133196D01*
X1178379Y133179D01*
X1178431Y133152D01*
X1178499Y133141D01*
X1178594Y133111D01*
X1178694Y133108D01*
X1178762Y133097D01*
X1621738Y133097D01*
X1621796Y133105D01*
X1621854Y133103D01*
X1621936Y133125D01*
X1622020Y133137D01*
X1622073Y133160D01*
X1622129Y133175D01*
X1622202Y133218D01*
X1622279Y133253D01*
X1622324Y133291D01*
X1622374Y133320D01*
X1622432Y133382D01*
X1622496Y133436D01*
X1622528Y133485D01*
X1622568Y133528D01*
X1622607Y133603D01*
X1622654Y133673D01*
X1622671Y133729D01*
X1622698Y133781D01*
X1622709Y133849D01*
X1622739Y133944D01*
X1622742Y134044D01*
X1622753Y134112D01*
X1622753Y197100D01*
X1622753Y197102D01*
X1622753Y197103D01*
X1622733Y197243D01*
X1622713Y197381D01*
X1622713Y197383D01*
X1622713Y197384D01*
X1622656Y197510D01*
X1622597Y197641D01*
X1622596Y197642D01*
X1622595Y197644D01*
X1622504Y197751D01*
X1622414Y197858D01*
X1622412Y197859D01*
X1622411Y197860D01*
X1622398Y197868D01*
X1622177Y198015D01*
X1622148Y198025D01*
X1622127Y198038D01*
X1621368Y198352D01*
X1617652Y202068D01*
X1615641Y206923D01*
X1615641Y212177D01*
X1617652Y217032D01*
X1621368Y220748D01*
X1626223Y222759D01*
X1631477Y222759D01*
X1636332Y220748D01*
X1640048Y217032D01*
X1642059Y212177D01*
X1642059Y206923D01*
X1640048Y202068D01*
X1636332Y198352D01*
X1635573Y198038D01*
X1635572Y198037D01*
X1635571Y198037D01*
X1635452Y197967D01*
X1635329Y197893D01*
X1635328Y197892D01*
X1635326Y197891D01*
X1635229Y197787D01*
X1635133Y197687D01*
X1635133Y197685D01*
X1635132Y197684D01*
X1635067Y197558D01*
X1635003Y197434D01*
X1635003Y197432D01*
X1635002Y197431D01*
X1635000Y197416D01*
X1634948Y197155D01*
X1634951Y197125D01*
X1634947Y197100D01*
X1634947Y134112D01*
X1634955Y134054D01*
X1634953Y133996D01*
X1634975Y133914D01*
X1634987Y133830D01*
X1635010Y133777D01*
X1635025Y133721D01*
X1635068Y133648D01*
X1635103Y133571D01*
X1635141Y133526D01*
X1635170Y133476D01*
X1635232Y133418D01*
X1635286Y133354D01*
X1635335Y133322D01*
X1635378Y133282D01*
X1635453Y133243D01*
X1635523Y133196D01*
X1635579Y133179D01*
X1635631Y133152D01*
X1635699Y133141D01*
X1635794Y133111D01*
X1635894Y133108D01*
X1635962Y133097D01*
X1741113Y133097D01*
X1743354Y132169D01*
X1754737Y120785D01*
X1754762Y120766D01*
X1754782Y120743D01*
X1754849Y120701D01*
X1754965Y120614D01*
X1755025Y120591D01*
X1755067Y120565D01*
X1756413Y120007D01*
X1758307Y118113D01*
X1759332Y115639D01*
X1759332Y112961D01*
X1758307Y110487D01*
X1756413Y108593D01*
X1753939Y107568D01*
X1751261Y107568D01*
X1748787Y108593D01*
X1746893Y110487D01*
X1746335Y111833D01*
X1746320Y111860D01*
X1746310Y111889D01*
X1746265Y111953D01*
X1746191Y112078D01*
X1746144Y112122D01*
X1746115Y112163D01*
X1737672Y120606D01*
X1737602Y120658D01*
X1737538Y120718D01*
X1737489Y120744D01*
X1737445Y120777D01*
X1737363Y120808D01*
X1737285Y120848D01*
X1737238Y120856D01*
X1737179Y120878D01*
X1737031Y120890D01*
X1736954Y120903D01*
X676174Y120903D01*
X676143Y120899D01*
X676113Y120901D01*
X676036Y120884D01*
X675893Y120863D01*
X675834Y120837D01*
X675785Y120826D01*
X674439Y120268D01*
X671761Y120268D01*
X670415Y120826D01*
X670385Y120834D01*
X670357Y120848D01*
X670280Y120861D01*
X670139Y120897D01*
X670075Y120895D01*
X670026Y120903D01*
X317974Y120903D01*
X317943Y120899D01*
X317913Y120901D01*
X317836Y120884D01*
X317692Y120863D01*
X317634Y120837D01*
X317585Y120826D01*
X316239Y120268D01*
X313561Y120268D01*
X312215Y120826D01*
X312185Y120834D01*
X312157Y120848D01*
X312080Y120861D01*
X311939Y120897D01*
X311875Y120895D01*
X311826Y120903D01*
X130074Y120903D01*
X130043Y120899D01*
X130013Y120901D01*
X129936Y120884D01*
X129793Y120863D01*
X129734Y120837D01*
X129685Y120826D01*
X128339Y120268D01*
X125661Y120268D01*
X124315Y120826D01*
X124285Y120834D01*
X124257Y120848D01*
X124180Y120861D01*
X124039Y120897D01*
X123975Y120895D01*
X123926Y120903D01*
X108712Y120903D01*
X108654Y120895D01*
X108596Y120897D01*
X108514Y120875D01*
X108430Y120863D01*
X108377Y120840D01*
X108321Y120825D01*
X108248Y120782D01*
X108171Y120747D01*
X108126Y120709D01*
X108076Y120680D01*
X108018Y120618D01*
X107954Y120564D01*
X107922Y120515D01*
X107882Y120472D01*
X107843Y120397D01*
X107796Y120327D01*
X107779Y120271D01*
X107752Y120219D01*
X107741Y120151D01*
X107711Y120056D01*
X107708Y119956D01*
X107697Y119888D01*
X107697Y24325D01*
X107697Y24324D01*
X107697Y24322D01*
X107704Y24272D01*
X107703Y24253D01*
X107711Y24225D01*
X107717Y24182D01*
X107737Y24044D01*
X107737Y24042D01*
X107737Y24041D01*
X107794Y23915D01*
X107853Y23784D01*
X107854Y23783D01*
X107855Y23782D01*
X107946Y23675D01*
X108036Y23567D01*
X108038Y23566D01*
X108039Y23565D01*
X108052Y23557D01*
X108273Y23410D01*
X108302Y23401D01*
X108323Y23387D01*
X108651Y23252D01*
X112152Y19751D01*
X113362Y16829D01*
X113377Y16804D01*
X113386Y16776D01*
X113449Y16681D01*
X113507Y16584D01*
X113528Y16564D01*
X113544Y16539D01*
X113631Y16466D01*
X113713Y16389D01*
X113739Y16375D01*
X113762Y16356D01*
X113865Y16310D01*
X113966Y16259D01*
X113995Y16253D01*
X114022Y16241D01*
X114134Y16225D01*
X114245Y16204D01*
X114274Y16206D01*
X114303Y16202D01*
X114415Y16218D01*
X114528Y16228D01*
X114555Y16239D01*
X114585Y16243D01*
X114688Y16289D01*
X114793Y16330D01*
X114817Y16348D01*
X114844Y16360D01*
X114930Y16433D01*
X115020Y16502D01*
X115038Y16525D01*
X115060Y16544D01*
X115102Y16611D01*
X115190Y16729D01*
X115212Y16788D01*
X115238Y16829D01*
X116448Y19751D01*
X119949Y23252D01*
X124524Y25147D01*
X126928Y25147D01*
X127014Y25159D01*
X127102Y25162D01*
X127154Y25179D01*
X127209Y25187D01*
X127289Y25222D01*
X127372Y25249D01*
X127412Y25277D01*
X127469Y25303D01*
X127582Y25399D01*
X127646Y25444D01*
X132671Y30469D01*
X132723Y30539D01*
X132783Y30603D01*
X132809Y30652D01*
X132842Y30697D01*
X132873Y30778D01*
X132913Y30856D01*
X132921Y30904D01*
X132943Y30962D01*
X132955Y31110D01*
X132968Y31187D01*
X132968Y33089D01*
X133993Y35563D01*
X135887Y37457D01*
X138361Y38482D01*
X140263Y38482D01*
X140349Y38494D01*
X140437Y38497D01*
X140489Y38514D01*
X140544Y38522D01*
X140624Y38557D01*
X140707Y38584D01*
X140747Y38612D01*
X140804Y38638D01*
X140917Y38734D01*
X140981Y38779D01*
X144366Y42165D01*
X268444Y42165D01*
X268531Y42177D01*
X268618Y42180D01*
X268671Y42197D01*
X268726Y42205D01*
X268805Y42240D01*
X268889Y42267D01*
X268928Y42295D01*
X268985Y42321D01*
X269098Y42417D01*
X269162Y42462D01*
X270507Y43807D01*
X272981Y44832D01*
X275659Y44832D01*
X278133Y43807D01*
X279478Y42462D01*
X279548Y42410D01*
X279612Y42350D01*
X279661Y42324D01*
X279705Y42291D01*
X279787Y42260D01*
X279865Y42220D01*
X279912Y42212D01*
X279971Y42190D01*
X280119Y42178D01*
X280196Y42165D01*
X326693Y42165D01*
X326778Y42177D01*
X326864Y42179D01*
X326918Y42197D01*
X326975Y42205D01*
X327053Y42240D01*
X327135Y42266D01*
X327182Y42298D01*
X327234Y42321D01*
X327300Y42376D01*
X327371Y42424D01*
X327408Y42468D01*
X327451Y42504D01*
X327499Y42576D01*
X327554Y42642D01*
X327577Y42694D01*
X327609Y42741D01*
X327635Y42823D01*
X327670Y42902D01*
X327677Y42958D01*
X327695Y43012D01*
X327697Y43098D01*
X327708Y43183D01*
X327700Y43239D01*
X327702Y43296D01*
X327680Y43379D01*
X327668Y43465D01*
X327644Y43516D01*
X327630Y43571D01*
X327586Y43645D01*
X327551Y43724D01*
X327514Y43767D01*
X327485Y43816D01*
X327422Y43875D01*
X327366Y43940D01*
X327324Y43966D01*
X327277Y44010D01*
X327148Y44076D01*
X327082Y44118D01*
X326027Y44555D01*
X323955Y46627D01*
X322833Y49335D01*
X322833Y52265D01*
X323955Y54973D01*
X326027Y57045D01*
X328735Y58167D01*
X331665Y58167D01*
X334373Y57045D01*
X336445Y54973D01*
X337293Y52926D01*
X337351Y52828D01*
X337404Y52726D01*
X337423Y52706D01*
X337437Y52682D01*
X337521Y52603D01*
X337600Y52520D01*
X337624Y52506D01*
X337644Y52486D01*
X337746Y52434D01*
X337845Y52376D01*
X337872Y52369D01*
X337897Y52356D01*
X338010Y52334D01*
X338121Y52306D01*
X338148Y52307D01*
X338176Y52301D01*
X338290Y52311D01*
X338405Y52315D01*
X338431Y52323D01*
X338459Y52326D01*
X338566Y52367D01*
X338675Y52402D01*
X338696Y52417D01*
X338724Y52428D01*
X338936Y52588D01*
X338949Y52597D01*
X351238Y64886D01*
X351290Y64956D01*
X351350Y65020D01*
X351376Y65069D01*
X351409Y65114D01*
X351440Y65195D01*
X351480Y65273D01*
X351488Y65321D01*
X351510Y65379D01*
X351522Y65527D01*
X351535Y65604D01*
X351535Y69426D01*
X351523Y69513D01*
X351520Y69600D01*
X351503Y69653D01*
X351495Y69708D01*
X351460Y69787D01*
X351433Y69871D01*
X351405Y69910D01*
X351379Y69967D01*
X351283Y70080D01*
X351238Y70144D01*
X349355Y72027D01*
X348233Y74735D01*
X348233Y77665D01*
X349355Y80373D01*
X351427Y82445D01*
X354135Y83567D01*
X357065Y83567D01*
X359773Y82445D01*
X361845Y80373D01*
X362967Y77665D01*
X362967Y74735D01*
X361845Y72027D01*
X359962Y70144D01*
X359910Y70074D01*
X359850Y70010D01*
X359824Y69961D01*
X359791Y69917D01*
X359760Y69835D01*
X359720Y69757D01*
X359712Y69710D01*
X359690Y69651D01*
X359678Y69503D01*
X359665Y69426D01*
X359665Y61816D01*
X357397Y59549D01*
X357328Y59457D01*
X357254Y59369D01*
X357243Y59344D01*
X357226Y59322D01*
X357185Y59214D01*
X357139Y59109D01*
X357135Y59082D01*
X357125Y59056D01*
X357115Y58942D01*
X357100Y58828D01*
X357104Y58800D01*
X357101Y58773D01*
X357124Y58660D01*
X357140Y58546D01*
X357152Y58521D01*
X357157Y58494D01*
X357210Y58392D01*
X357258Y58287D01*
X357276Y58266D01*
X357288Y58242D01*
X357367Y58158D01*
X357442Y58071D01*
X357463Y58058D01*
X357484Y58035D01*
X357714Y57901D01*
X357726Y57893D01*
X359773Y57045D01*
X361845Y54973D01*
X362967Y52265D01*
X362967Y49335D01*
X361845Y46627D01*
X359773Y44555D01*
X357065Y43433D01*
X354135Y43433D01*
X351427Y44555D01*
X349355Y46627D01*
X348507Y48674D01*
X348449Y48772D01*
X348396Y48874D01*
X348377Y48894D01*
X348363Y48918D01*
X348279Y48997D01*
X348200Y49080D01*
X348176Y49094D01*
X348156Y49114D01*
X348054Y49166D01*
X347955Y49224D01*
X347928Y49231D01*
X347903Y49244D01*
X347790Y49266D01*
X347679Y49294D01*
X347652Y49293D01*
X347624Y49299D01*
X347510Y49289D01*
X347395Y49285D01*
X347369Y49277D01*
X347341Y49274D01*
X347234Y49233D01*
X347125Y49198D01*
X347104Y49183D01*
X347076Y49172D01*
X346864Y49012D01*
X346851Y49003D01*
X334562Y36714D01*
X331884Y34035D01*
X280196Y34035D01*
X280109Y34023D01*
X280022Y34020D01*
X279969Y34003D01*
X279914Y33995D01*
X279835Y33960D01*
X279751Y33933D01*
X279712Y33905D01*
X279655Y33879D01*
X279542Y33783D01*
X279478Y33738D01*
X278133Y32393D01*
X275659Y31368D01*
X272981Y31368D01*
X270507Y32393D01*
X269162Y33738D01*
X269092Y33790D01*
X269028Y33850D01*
X268979Y33876D01*
X268935Y33909D01*
X268853Y33940D01*
X268775Y33980D01*
X268728Y33988D01*
X268669Y34010D01*
X268521Y34022D01*
X268444Y34035D01*
X148154Y34035D01*
X148068Y34023D01*
X147980Y34020D01*
X147928Y34003D01*
X147873Y33995D01*
X147793Y33960D01*
X147710Y33933D01*
X147670Y33905D01*
X147613Y33879D01*
X147500Y33783D01*
X147436Y33738D01*
X146729Y33031D01*
X146677Y32961D01*
X146617Y32897D01*
X146591Y32848D01*
X146558Y32803D01*
X146527Y32722D01*
X146487Y32644D01*
X146479Y32596D01*
X146457Y32538D01*
X146445Y32390D01*
X146432Y32313D01*
X146432Y30411D01*
X145407Y27937D01*
X143513Y26043D01*
X141039Y25018D01*
X139137Y25018D01*
X139051Y25006D01*
X138963Y25003D01*
X138911Y24986D01*
X138856Y24978D01*
X138776Y24943D01*
X138693Y24916D01*
X138653Y24888D01*
X138596Y24862D01*
X138483Y24766D01*
X138419Y24721D01*
X136218Y22520D01*
X136183Y22473D01*
X136141Y22433D01*
X136098Y22360D01*
X136047Y22293D01*
X136027Y22238D01*
X135997Y22188D01*
X135976Y22106D01*
X135946Y22027D01*
X135941Y21969D01*
X135927Y21912D01*
X135930Y21828D01*
X135923Y21744D01*
X135934Y21686D01*
X135936Y21628D01*
X135962Y21548D01*
X135978Y21465D01*
X136005Y21413D01*
X136023Y21357D01*
X136063Y21301D01*
X136109Y21213D01*
X136178Y21140D01*
X136218Y21084D01*
X137552Y19751D01*
X138762Y16829D01*
X138777Y16804D01*
X138786Y16776D01*
X138849Y16681D01*
X138907Y16584D01*
X138928Y16564D01*
X138944Y16539D01*
X139031Y16466D01*
X139113Y16389D01*
X139139Y16375D01*
X139162Y16356D01*
X139265Y16310D01*
X139366Y16259D01*
X139395Y16253D01*
X139422Y16241D01*
X139534Y16225D01*
X139645Y16204D01*
X139674Y16206D01*
X139703Y16202D01*
X139815Y16218D01*
X139928Y16228D01*
X139955Y16239D01*
X139985Y16243D01*
X140088Y16289D01*
X140193Y16330D01*
X140217Y16348D01*
X140244Y16360D01*
X140330Y16433D01*
X140420Y16502D01*
X140438Y16525D01*
X140460Y16544D01*
X140502Y16611D01*
X140590Y16729D01*
X140612Y16788D01*
X140638Y16829D01*
X141848Y19751D01*
X145349Y23252D01*
X149924Y25147D01*
X154876Y25147D01*
X159451Y23252D01*
X162952Y19751D01*
X164162Y16829D01*
X164177Y16804D01*
X164186Y16776D01*
X164249Y16681D01*
X164307Y16584D01*
X164328Y16564D01*
X164344Y16539D01*
X164431Y16466D01*
X164513Y16389D01*
X164539Y16375D01*
X164562Y16356D01*
X164665Y16310D01*
X164766Y16259D01*
X164795Y16253D01*
X164822Y16241D01*
X164934Y16225D01*
X165045Y16204D01*
X165074Y16206D01*
X165103Y16202D01*
X165215Y16218D01*
X165328Y16228D01*
X165355Y16239D01*
X165385Y16243D01*
X165488Y16289D01*
X165593Y16330D01*
X165617Y16348D01*
X165644Y16360D01*
X165730Y16433D01*
X165820Y16502D01*
X165838Y16525D01*
X165860Y16544D01*
X165902Y16611D01*
X165990Y16729D01*
X166012Y16788D01*
X166038Y16829D01*
X167248Y19751D01*
X170749Y23252D01*
X175324Y25147D01*
X180276Y25147D01*
X184851Y23252D01*
X188352Y19751D01*
X190247Y15176D01*
X190247Y10224D01*
X188277Y5469D01*
X188248Y5357D01*
X188214Y5248D01*
X188213Y5220D01*
X188206Y5193D01*
X188209Y5079D01*
X188206Y4964D01*
X188213Y4937D01*
X188214Y4909D01*
X188249Y4800D01*
X188278Y4689D01*
X188292Y4665D01*
X188301Y4638D01*
X188365Y4543D01*
X188423Y4444D01*
X188444Y4425D01*
X188459Y4402D01*
X188547Y4328D01*
X188631Y4250D01*
X188655Y4237D01*
X188677Y4219D01*
X188781Y4173D01*
X188884Y4120D01*
X188908Y4116D01*
X188936Y4104D01*
X189200Y4067D01*
X189215Y4065D01*
X1567350Y4065D01*
X1567353Y4065D01*
X1567357Y4065D01*
X1567494Y4085D01*
X1567631Y4105D01*
X1567635Y4106D01*
X1567638Y4106D01*
X1567764Y4164D01*
X1567891Y4221D01*
X1567893Y4223D01*
X1567897Y4224D01*
X1568001Y4314D01*
X1568108Y4404D01*
X1568110Y4407D01*
X1568112Y4410D01*
X1568188Y4524D01*
X1568265Y4641D01*
X1568267Y4644D01*
X1568268Y4647D01*
X1568309Y4780D01*
X1568351Y4912D01*
X1568351Y4916D01*
X1568352Y4919D01*
X1568355Y5058D01*
X1568359Y5196D01*
X1568358Y5200D01*
X1568358Y5203D01*
X1568350Y5231D01*
X1568287Y5471D01*
X1568270Y5499D01*
X1568263Y5525D01*
X1568068Y5923D01*
X1568068Y11857D01*
X1568727Y13208D01*
X1568729Y13213D01*
X1568732Y13218D01*
X1568743Y13256D01*
X1568815Y13478D01*
X1568816Y13513D01*
X1568823Y13541D01*
X1568872Y13976D01*
X1569022Y14095D01*
X1569103Y14182D01*
X1569188Y14264D01*
X1569198Y14283D01*
X1569217Y14302D01*
X1569347Y14555D01*
X1569347Y14557D01*
X1569348Y14559D01*
X1569827Y15958D01*
X1573091Y18289D01*
X1577102Y18289D01*
X1580365Y15958D01*
X1580469Y15655D01*
X1580497Y15601D01*
X1580515Y15543D01*
X1580561Y15475D01*
X1580598Y15402D01*
X1580639Y15358D01*
X1580673Y15307D01*
X1580736Y15254D01*
X1580792Y15194D01*
X1580844Y15163D01*
X1580891Y15124D01*
X1580966Y15091D01*
X1581036Y15049D01*
X1581095Y15033D01*
X1581150Y15009D01*
X1581232Y14997D01*
X1581311Y14976D01*
X1581372Y14978D01*
X1581432Y14969D01*
X1581513Y14981D01*
X1581595Y14983D01*
X1581653Y15001D01*
X1581713Y15010D01*
X1581788Y15044D01*
X1581866Y15068D01*
X1581917Y15102D01*
X1581972Y15127D01*
X1582023Y15172D01*
X1582103Y15225D01*
X1582170Y15304D01*
X1582222Y15351D01*
X1582240Y15372D01*
X1582255Y15399D01*
X1582277Y15422D01*
X1582287Y15441D01*
X1582287Y15442D01*
X1582290Y15448D01*
X1582327Y15521D01*
X1582384Y15617D01*
X1582392Y15647D01*
X1582406Y15675D01*
X1582419Y15752D01*
X1582455Y15892D01*
X1582455Y15901D01*
X1583453Y16899D01*
X1583492Y16950D01*
X1583528Y16983D01*
X1584414Y18091D01*
X1584474Y18110D01*
X1584582Y18138D01*
X1584609Y18154D01*
X1584639Y18163D01*
X1584703Y18209D01*
X1584827Y18282D01*
X1584833Y18289D01*
X1586245Y18289D01*
X1586308Y18298D01*
X1586357Y18295D01*
X1587767Y18452D01*
X1587823Y18423D01*
X1587919Y18366D01*
X1587949Y18359D01*
X1587977Y18344D01*
X1588055Y18331D01*
X1588194Y18295D01*
X1588203Y18295D01*
X1589202Y17297D01*
X1589253Y17259D01*
X1589285Y17222D01*
X1592373Y14752D01*
X1592418Y14725D01*
X1592458Y14691D01*
X1592540Y14653D01*
X1592618Y14607D01*
X1592669Y14594D01*
X1592716Y14572D01*
X1592806Y14558D01*
X1592893Y14536D01*
X1592946Y14537D01*
X1592997Y14529D01*
X1593069Y14540D01*
X1593178Y14543D01*
X1593264Y14571D01*
X1593329Y14581D01*
X1594755Y15057D01*
X1596359Y14254D01*
X1596375Y14249D01*
X1596390Y14240D01*
X1596510Y14204D01*
X1596629Y14164D01*
X1596646Y14163D01*
X1596662Y14158D01*
X1596788Y14157D01*
X1596913Y14152D01*
X1596929Y14156D01*
X1596946Y14156D01*
X1597014Y14177D01*
X1597189Y14219D01*
X1597231Y14243D01*
X1597267Y14254D01*
X1598872Y15057D01*
X1602067Y13992D01*
X1603573Y10980D01*
X1601713Y5401D01*
X1601699Y5323D01*
X1601675Y5248D01*
X1601673Y5184D01*
X1601662Y5121D01*
X1601670Y5043D01*
X1601668Y4964D01*
X1601684Y4902D01*
X1601690Y4839D01*
X1601719Y4765D01*
X1601739Y4689D01*
X1601772Y4634D01*
X1601796Y4575D01*
X1601844Y4512D01*
X1601885Y4444D01*
X1601931Y4401D01*
X1601970Y4350D01*
X1602034Y4304D01*
X1602092Y4250D01*
X1602149Y4221D01*
X1602200Y4183D01*
X1602275Y4156D01*
X1602345Y4120D01*
X1602399Y4111D01*
X1602468Y4086D01*
X1602599Y4078D01*
X1602676Y4065D01*
X1816267Y4065D01*
X1816340Y4075D01*
X1816414Y4075D01*
X1816480Y4095D01*
X1816549Y4105D01*
X1816616Y4135D01*
X1816686Y4155D01*
X1816745Y4192D01*
X1816808Y4221D01*
X1816864Y4268D01*
X1816926Y4308D01*
X1816972Y4360D01*
X1817025Y4404D01*
X1817066Y4466D01*
X1817115Y4521D01*
X1817144Y4583D01*
X1817183Y4641D01*
X1817205Y4711D01*
X1817236Y4778D01*
X1817248Y4846D01*
X1817268Y4912D01*
X1817270Y4986D01*
X1817282Y5058D01*
X1817274Y5127D01*
X1817276Y5196D01*
X1817257Y5267D01*
X1817248Y5341D01*
X1817221Y5404D01*
X1817204Y5471D01*
X1817166Y5535D01*
X1817138Y5602D01*
X1817099Y5647D01*
X1817059Y5716D01*
X1816969Y5800D01*
X1816920Y5858D01*
X1811215Y10644D01*
X1807229Y17549D01*
X1805845Y25400D01*
X1807229Y33251D01*
X1811215Y40155D01*
X1817322Y45280D01*
X1824814Y48007D01*
X1832786Y48007D01*
X1840278Y45280D01*
X1846385Y40156D01*
X1848241Y36941D01*
X1848253Y36926D01*
X1848261Y36908D01*
X1848340Y36814D01*
X1848416Y36717D01*
X1848432Y36706D01*
X1848445Y36691D01*
X1848547Y36622D01*
X1848646Y36551D01*
X1848665Y36544D01*
X1848681Y36533D01*
X1848799Y36496D01*
X1848914Y36454D01*
X1848934Y36453D01*
X1848952Y36447D01*
X1849075Y36444D01*
X1849198Y36436D01*
X1849217Y36441D01*
X1849236Y36440D01*
X1849355Y36471D01*
X1849475Y36498D01*
X1849493Y36507D01*
X1849511Y36512D01*
X1849617Y36574D01*
X1849725Y36633D01*
X1849739Y36647D01*
X1849756Y36657D01*
X1849840Y36747D01*
X1849927Y36833D01*
X1849937Y36850D01*
X1849950Y36864D01*
X1850006Y36974D01*
X1850066Y37081D01*
X1850071Y37100D01*
X1850080Y37118D01*
X1850092Y37190D01*
X1850131Y37358D01*
X1850129Y37409D01*
X1850135Y37449D01*
X1850135Y216551D01*
X1850133Y216571D01*
X1850135Y216590D01*
X1850113Y216711D01*
X1850095Y216833D01*
X1850087Y216851D01*
X1850084Y216870D01*
X1850029Y216980D01*
X1849979Y217092D01*
X1849967Y217107D01*
X1849958Y217125D01*
X1849875Y217216D01*
X1849796Y217309D01*
X1849779Y217320D01*
X1849766Y217335D01*
X1849661Y217399D01*
X1849559Y217467D01*
X1849540Y217473D01*
X1849524Y217483D01*
X1849405Y217516D01*
X1849288Y217553D01*
X1849268Y217553D01*
X1849249Y217558D01*
X1849127Y217557D01*
X1849004Y217560D01*
X1848985Y217555D01*
X1848965Y217555D01*
X1848847Y217519D01*
X1848729Y217488D01*
X1848712Y217478D01*
X1848693Y217472D01*
X1848590Y217406D01*
X1848484Y217343D01*
X1848471Y217329D01*
X1848454Y217318D01*
X1848408Y217261D01*
X1848290Y217136D01*
X1848266Y217090D01*
X1848241Y217059D01*
X1846385Y213844D01*
X1840278Y208720D01*
X1832786Y205993D01*
X1824814Y205993D01*
X1817322Y208720D01*
X1811215Y213844D01*
X1807229Y220749D01*
X1805845Y228600D01*
X1807229Y236451D01*
X1811215Y243355D01*
X1817322Y248480D01*
X1824814Y251207D01*
X1832786Y251207D01*
X1840278Y248480D01*
X1846385Y243356D01*
X1848241Y240141D01*
X1848253Y240126D01*
X1848261Y240108D01*
X1848340Y240014D01*
X1848416Y239917D01*
X1848432Y239906D01*
X1848445Y239891D01*
X1848547Y239822D01*
X1848646Y239751D01*
X1848665Y239744D01*
X1848681Y239733D01*
X1848799Y239696D01*
X1848914Y239654D01*
X1848934Y239653D01*
X1848952Y239647D01*
X1849075Y239644D01*
X1849198Y239636D01*
X1849217Y239641D01*
X1849236Y239640D01*
X1849355Y239671D01*
X1849475Y239698D01*
X1849493Y239707D01*
X1849511Y239712D01*
X1849617Y239774D01*
X1849725Y239833D01*
X1849739Y239847D01*
X1849756Y239857D01*
X1849840Y239947D01*
X1849927Y240033D01*
X1849937Y240050D01*
X1849950Y240064D01*
X1850006Y240174D01*
X1850066Y240281D01*
X1850071Y240300D01*
X1850080Y240318D01*
X1850092Y240390D01*
X1850131Y240558D01*
X1850129Y240609D01*
X1850135Y240649D01*
X1850135Y254000D01*
X1850127Y254058D01*
X1850129Y254116D01*
X1850107Y254198D01*
X1850095Y254282D01*
X1850072Y254335D01*
X1850057Y254391D01*
X1850014Y254464D01*
X1849979Y254541D01*
X1849941Y254586D01*
X1849912Y254636D01*
X1849850Y254694D01*
X1849796Y254758D01*
X1849747Y254790D01*
X1849704Y254830D01*
X1849629Y254869D01*
X1849559Y254916D01*
X1849503Y254933D01*
X1849451Y254960D01*
X1849383Y254971D01*
X1849288Y255001D01*
X1849188Y255004D01*
X1849120Y255015D01*
X5080Y255015D01*
X5022Y255007D01*
X4964Y255009D01*
X4882Y254987D01*
X4798Y254975D01*
X4745Y254952D01*
X4689Y254937D01*
X4616Y254894D01*
X4539Y254859D01*
X4494Y254821D01*
X4444Y254792D01*
X4386Y254730D01*
X4322Y254676D01*
X4290Y254627D01*
X4250Y254584D01*
X4211Y254509D01*
X4164Y254439D01*
X4147Y254383D01*
X4120Y254331D01*
X4109Y254263D01*
X4079Y254168D01*
X4076Y254068D01*
X4065Y254000D01*
X4065Y240649D01*
X4067Y240629D01*
X4065Y240610D01*
X4087Y240489D01*
X4105Y240367D01*
X4113Y240349D01*
X4116Y240330D01*
X4171Y240220D01*
X4221Y240108D01*
X4233Y240093D01*
X4242Y240075D01*
X4325Y239984D01*
X4404Y239891D01*
X4421Y239880D01*
X4434Y239865D01*
X4539Y239801D01*
X4641Y239733D01*
X4660Y239727D01*
X4676Y239717D01*
X4795Y239684D01*
X4912Y239647D01*
X4932Y239647D01*
X4951Y239642D01*
X5073Y239643D01*
X5196Y239640D01*
X5215Y239645D01*
X5235Y239645D01*
X5353Y239681D01*
X5471Y239712D01*
X5488Y239722D01*
X5507Y239728D01*
X5610Y239794D01*
X5716Y239857D01*
X5729Y239871D01*
X5746Y239882D01*
X5792Y239939D01*
X5910Y240064D01*
X5934Y240110D01*
X5959Y240141D01*
X7815Y243356D01*
X13922Y248480D01*
X21414Y251207D01*
X29386Y251207D01*
X36878Y248480D01*
X42985Y243356D01*
X46971Y236451D01*
X48355Y228600D01*
X46971Y220749D01*
X42985Y213845D01*
X36878Y208720D01*
X29386Y205993D01*
X21414Y205993D01*
X13922Y208720D01*
X7815Y213844D01*
X5959Y217059D01*
X5947Y217074D01*
X5939Y217092D01*
X5860Y217186D01*
X5784Y217283D01*
X5768Y217294D01*
X5755Y217309D01*
X5653Y217378D01*
X5554Y217449D01*
X5535Y217456D01*
X5519Y217467D01*
X5401Y217504D01*
X5286Y217546D01*
X5266Y217547D01*
X5248Y217553D01*
X5125Y217556D01*
X5002Y217564D01*
X4983Y217559D01*
X4964Y217560D01*
X4845Y217529D01*
X4725Y217502D01*
X4707Y217493D01*
X4689Y217488D01*
X4583Y217426D01*
X4475Y217367D01*
X4461Y217353D01*
X4444Y217343D01*
X4360Y217253D01*
X4273Y217167D01*
X4263Y217150D01*
X4250Y217136D01*
X4194Y217026D01*
X4134Y216919D01*
X4129Y216900D01*
X4120Y216882D01*
X4108Y216810D01*
X4069Y216642D01*
X4071Y216591D01*
X4065Y216551D01*
X4065Y37449D01*
X4067Y37429D01*
X4065Y37410D01*
X4087Y37289D01*
X4105Y37167D01*
X4113Y37149D01*
X4116Y37130D01*
X4171Y37020D01*
X4221Y36908D01*
X4233Y36893D01*
X4242Y36875D01*
X4325Y36784D01*
X4404Y36691D01*
X4421Y36680D01*
X4434Y36665D01*
X4539Y36601D01*
X4641Y36533D01*
X4660Y36527D01*
X4676Y36517D01*
X4795Y36484D01*
X4912Y36447D01*
X4932Y36447D01*
X4951Y36442D01*
X5073Y36443D01*
X5196Y36440D01*
X5215Y36445D01*
X5235Y36445D01*
X5353Y36481D01*
X5471Y36512D01*
X5488Y36522D01*
X5507Y36528D01*
X5610Y36594D01*
X5716Y36657D01*
X5729Y36671D01*
X5746Y36682D01*
X5792Y36739D01*
X5910Y36864D01*
X5934Y36910D01*
X5959Y36941D01*
X7815Y40156D01*
X13922Y45280D01*
X21414Y48007D01*
X29386Y48007D01*
X36878Y45280D01*
X42985Y40156D01*
X46971Y33251D01*
X48355Y25400D01*
X46971Y17549D01*
X42985Y10645D01*
X37280Y5858D01*
X37231Y5803D01*
X37175Y5755D01*
X37136Y5698D01*
X37090Y5646D01*
X37058Y5580D01*
X37017Y5519D01*
X36996Y5453D01*
X36966Y5390D01*
X36954Y5318D01*
X36932Y5248D01*
X36930Y5179D01*
X36918Y5110D01*
X36926Y5037D01*
X36924Y4964D01*
X36942Y4897D01*
X36949Y4828D01*
X36977Y4760D01*
X36996Y4689D01*
X37031Y4629D01*
X37058Y4565D01*
X37104Y4507D01*
X37141Y4444D01*
X37192Y4397D01*
X37235Y4343D01*
X37295Y4300D01*
X37349Y4250D01*
X37410Y4218D01*
X37467Y4178D01*
X37536Y4154D01*
X37602Y4120D01*
X37660Y4110D01*
X37735Y4084D01*
X37857Y4077D01*
X37933Y4065D01*
X65724Y4065D01*
X65815Y4078D01*
G37*
%LPC*%
G36*
X328735Y988313D02*
X328735Y988313D01*
X326027Y989435D01*
X324144Y991318D01*
X324074Y991370D01*
X324010Y991430D01*
X323961Y991456D01*
X323917Y991489D01*
X323835Y991520D01*
X323757Y991560D01*
X323710Y991568D01*
X323651Y991590D01*
X323503Y991602D01*
X323426Y991615D01*
X170976Y991615D01*
X170889Y991603D01*
X170802Y991600D01*
X170749Y991583D01*
X170694Y991575D01*
X170615Y991540D01*
X170531Y991513D01*
X170492Y991485D01*
X170435Y991459D01*
X170322Y991363D01*
X170258Y991318D01*
X168913Y989973D01*
X166439Y988948D01*
X163761Y988948D01*
X161287Y989973D01*
X159942Y991318D01*
X159872Y991370D01*
X159808Y991430D01*
X159759Y991456D01*
X159715Y991489D01*
X159633Y991520D01*
X159555Y991560D01*
X159508Y991568D01*
X159449Y991590D01*
X159301Y991602D01*
X159224Y991615D01*
X132876Y991615D01*
X132789Y991603D01*
X132702Y991600D01*
X132649Y991583D01*
X132594Y991575D01*
X132515Y991540D01*
X132431Y991513D01*
X132392Y991485D01*
X132335Y991459D01*
X132222Y991363D01*
X132158Y991318D01*
X130813Y989973D01*
X128339Y988948D01*
X125661Y988948D01*
X123187Y989973D01*
X121293Y991867D01*
X120268Y994341D01*
X120268Y997019D01*
X121293Y999493D01*
X123187Y1001387D01*
X125661Y1002412D01*
X128339Y1002412D01*
X130813Y1001387D01*
X132158Y1000042D01*
X132228Y999990D01*
X132292Y999930D01*
X132341Y999904D01*
X132385Y999871D01*
X132467Y999840D01*
X132545Y999800D01*
X132592Y999792D01*
X132651Y999770D01*
X132799Y999758D01*
X132876Y999745D01*
X159224Y999745D01*
X159311Y999757D01*
X159398Y999760D01*
X159451Y999777D01*
X159506Y999785D01*
X159585Y999820D01*
X159669Y999847D01*
X159708Y999875D01*
X159765Y999901D01*
X159878Y999997D01*
X159942Y1000042D01*
X161287Y1001387D01*
X163761Y1002412D01*
X166439Y1002412D01*
X168913Y1001387D01*
X170258Y1000042D01*
X170328Y999990D01*
X170392Y999930D01*
X170441Y999904D01*
X170485Y999871D01*
X170567Y999840D01*
X170645Y999800D01*
X170692Y999792D01*
X170751Y999770D01*
X170899Y999758D01*
X170976Y999745D01*
X323426Y999745D01*
X323513Y999757D01*
X323600Y999760D01*
X323653Y999777D01*
X323708Y999785D01*
X323787Y999820D01*
X323871Y999847D01*
X323910Y999875D01*
X323967Y999901D01*
X324080Y999997D01*
X324144Y1000042D01*
X326027Y1001925D01*
X328735Y1003047D01*
X331665Y1003047D01*
X334373Y1001925D01*
X336445Y999853D01*
X337567Y997145D01*
X337567Y994215D01*
X336445Y991507D01*
X334373Y989435D01*
X331665Y988313D01*
X328735Y988313D01*
G37*
%LPD*%
%LPC*%
G36*
X328735Y68833D02*
X328735Y68833D01*
X326027Y69955D01*
X324144Y71838D01*
X324074Y71890D01*
X324010Y71950D01*
X323961Y71976D01*
X323917Y72009D01*
X323835Y72040D01*
X323757Y72080D01*
X323710Y72088D01*
X323651Y72110D01*
X323503Y72122D01*
X323426Y72135D01*
X170976Y72135D01*
X170889Y72123D01*
X170802Y72120D01*
X170749Y72103D01*
X170694Y72095D01*
X170615Y72060D01*
X170531Y72033D01*
X170492Y72005D01*
X170435Y71979D01*
X170322Y71883D01*
X170258Y71838D01*
X168913Y70493D01*
X166439Y69468D01*
X163761Y69468D01*
X161287Y70493D01*
X159942Y71838D01*
X159872Y71890D01*
X159808Y71950D01*
X159759Y71976D01*
X159715Y72009D01*
X159633Y72040D01*
X159555Y72080D01*
X159508Y72088D01*
X159449Y72110D01*
X159301Y72122D01*
X159224Y72135D01*
X132876Y72135D01*
X132789Y72123D01*
X132702Y72120D01*
X132649Y72103D01*
X132594Y72095D01*
X132515Y72060D01*
X132431Y72033D01*
X132392Y72005D01*
X132335Y71979D01*
X132222Y71883D01*
X132158Y71838D01*
X130813Y70493D01*
X128339Y69468D01*
X125661Y69468D01*
X123187Y70493D01*
X121293Y72387D01*
X120268Y74861D01*
X120268Y77539D01*
X121293Y80013D01*
X123187Y81907D01*
X125661Y82932D01*
X128339Y82932D01*
X130813Y81907D01*
X132158Y80562D01*
X132228Y80510D01*
X132292Y80450D01*
X132341Y80424D01*
X132385Y80391D01*
X132467Y80360D01*
X132545Y80320D01*
X132592Y80312D01*
X132651Y80290D01*
X132799Y80278D01*
X132876Y80265D01*
X159224Y80265D01*
X159311Y80277D01*
X159398Y80280D01*
X159451Y80297D01*
X159506Y80305D01*
X159585Y80340D01*
X159669Y80367D01*
X159708Y80395D01*
X159765Y80421D01*
X159878Y80517D01*
X159942Y80562D01*
X161287Y81907D01*
X163761Y82932D01*
X166439Y82932D01*
X168913Y81907D01*
X170258Y80562D01*
X170328Y80510D01*
X170392Y80450D01*
X170441Y80424D01*
X170485Y80391D01*
X170567Y80360D01*
X170645Y80320D01*
X170692Y80312D01*
X170751Y80290D01*
X170899Y80278D01*
X170976Y80265D01*
X323426Y80265D01*
X323513Y80277D01*
X323600Y80280D01*
X323653Y80297D01*
X323708Y80305D01*
X323787Y80340D01*
X323871Y80367D01*
X323910Y80395D01*
X323967Y80421D01*
X324080Y80517D01*
X324144Y80562D01*
X326027Y82445D01*
X328735Y83567D01*
X331665Y83567D01*
X334373Y82445D01*
X336445Y80373D01*
X337567Y77665D01*
X337567Y74735D01*
X336445Y72027D01*
X334373Y69955D01*
X331665Y68833D01*
X328735Y68833D01*
G37*
%LPD*%
%LPC*%
G36*
X923114Y1125473D02*
X923114Y1125473D01*
X915622Y1128200D01*
X909515Y1133324D01*
X905529Y1140229D01*
X904145Y1148080D01*
X905529Y1155931D01*
X909515Y1162835D01*
X915622Y1167960D01*
X923114Y1170687D01*
X931086Y1170687D01*
X938578Y1167960D01*
X944685Y1162836D01*
X948671Y1155931D01*
X950055Y1148080D01*
X948671Y1140229D01*
X944685Y1133325D01*
X938578Y1128200D01*
X931086Y1125473D01*
X923114Y1125473D01*
G37*
%LPD*%
%LPC*%
G36*
X923114Y205993D02*
X923114Y205993D01*
X915622Y208720D01*
X909515Y213844D01*
X905529Y220749D01*
X904145Y228600D01*
X905529Y236451D01*
X909515Y243356D01*
X915622Y248480D01*
X923114Y251207D01*
X931086Y251207D01*
X938578Y248480D01*
X944685Y243356D01*
X948671Y236451D01*
X950055Y228600D01*
X948671Y220749D01*
X944685Y213845D01*
X938578Y208720D01*
X931086Y205993D01*
X923114Y205993D01*
G37*
%LPD*%
%LPC*%
G36*
X668027Y1115821D02*
X668027Y1115821D01*
X666241Y1117607D01*
X666241Y1140453D01*
X668027Y1142239D01*
X690873Y1142239D01*
X692659Y1140453D01*
X692659Y1117607D01*
X690873Y1115821D01*
X668027Y1115821D01*
G37*
%LPD*%
%LPC*%
G36*
X210827Y1115821D02*
X210827Y1115821D01*
X209041Y1117607D01*
X209041Y1140453D01*
X210827Y1142239D01*
X233673Y1142239D01*
X235459Y1140453D01*
X235459Y1117607D01*
X233673Y1115821D01*
X210827Y1115821D01*
G37*
%LPD*%
%LPC*%
G36*
X1582427Y1115821D02*
X1582427Y1115821D01*
X1580641Y1117607D01*
X1580641Y1140453D01*
X1582427Y1142239D01*
X1605273Y1142239D01*
X1607059Y1140453D01*
X1607059Y1117607D01*
X1605273Y1115821D01*
X1582427Y1115821D01*
G37*
%LPD*%
%LPC*%
G36*
X1125227Y1115821D02*
X1125227Y1115821D01*
X1123441Y1117607D01*
X1123441Y1140453D01*
X1125227Y1142239D01*
X1148073Y1142239D01*
X1149859Y1140453D01*
X1149859Y1117607D01*
X1148073Y1115821D01*
X1125227Y1115821D01*
G37*
%LPD*%
%LPC*%
G36*
X668027Y196341D02*
X668027Y196341D01*
X666241Y198127D01*
X666241Y220973D01*
X668027Y222759D01*
X690873Y222759D01*
X692659Y220973D01*
X692659Y198127D01*
X690873Y196341D01*
X668027Y196341D01*
G37*
%LPD*%
%LPC*%
G36*
X1125227Y196341D02*
X1125227Y196341D01*
X1123441Y198127D01*
X1123441Y220973D01*
X1125227Y222759D01*
X1148073Y222759D01*
X1149859Y220973D01*
X1149859Y198127D01*
X1148073Y196341D01*
X1125227Y196341D01*
G37*
%LPD*%
%LPC*%
G36*
X1582427Y196341D02*
X1582427Y196341D01*
X1580641Y198127D01*
X1580641Y220973D01*
X1582427Y222759D01*
X1605273Y222759D01*
X1607059Y220973D01*
X1607059Y198127D01*
X1605273Y196341D01*
X1582427Y196341D01*
G37*
%LPD*%
%LPC*%
G36*
X210827Y196341D02*
X210827Y196341D01*
X209041Y198127D01*
X209041Y220973D01*
X210827Y222759D01*
X233673Y222759D01*
X235459Y220973D01*
X235459Y198127D01*
X233673Y196341D01*
X210827Y196341D01*
G37*
%LPD*%
%LPC*%
G36*
X328735Y1013713D02*
X328735Y1013713D01*
X326027Y1014835D01*
X324398Y1016464D01*
X324328Y1016516D01*
X324264Y1016576D01*
X324215Y1016602D01*
X324171Y1016635D01*
X324089Y1016666D01*
X324011Y1016706D01*
X323964Y1016714D01*
X323905Y1016736D01*
X323757Y1016748D01*
X323680Y1016761D01*
X297722Y1016761D01*
X297635Y1016749D01*
X297548Y1016746D01*
X297495Y1016729D01*
X297440Y1016721D01*
X297361Y1016686D01*
X297277Y1016659D01*
X297238Y1016631D01*
X297181Y1016605D01*
X297068Y1016509D01*
X297004Y1016464D01*
X295913Y1015373D01*
X293439Y1014348D01*
X290761Y1014348D01*
X288287Y1015373D01*
X286393Y1017267D01*
X285368Y1019741D01*
X285368Y1022419D01*
X286393Y1024893D01*
X288287Y1026787D01*
X290761Y1027812D01*
X293439Y1027812D01*
X295913Y1026787D01*
X297004Y1025696D01*
X297074Y1025644D01*
X297138Y1025584D01*
X297187Y1025558D01*
X297231Y1025525D01*
X297313Y1025494D01*
X297391Y1025454D01*
X297438Y1025446D01*
X297497Y1025424D01*
X297645Y1025412D01*
X297722Y1025399D01*
X323680Y1025399D01*
X323767Y1025411D01*
X323854Y1025414D01*
X323907Y1025431D01*
X323962Y1025439D01*
X324041Y1025474D01*
X324125Y1025501D01*
X324164Y1025529D01*
X324221Y1025555D01*
X324334Y1025651D01*
X324398Y1025696D01*
X326027Y1027325D01*
X328735Y1028447D01*
X331665Y1028447D01*
X334373Y1027325D01*
X336445Y1025253D01*
X337567Y1022545D01*
X337567Y1019615D01*
X336445Y1016907D01*
X334373Y1014835D01*
X331665Y1013713D01*
X328735Y1013713D01*
G37*
%LPD*%
%LPC*%
G36*
X328735Y94233D02*
X328735Y94233D01*
X326027Y95355D01*
X324398Y96984D01*
X324328Y97036D01*
X324264Y97096D01*
X324215Y97122D01*
X324171Y97155D01*
X324089Y97186D01*
X324011Y97226D01*
X323964Y97234D01*
X323905Y97256D01*
X323757Y97268D01*
X323680Y97281D01*
X297722Y97281D01*
X297635Y97269D01*
X297548Y97266D01*
X297495Y97249D01*
X297440Y97241D01*
X297361Y97206D01*
X297277Y97179D01*
X297238Y97151D01*
X297181Y97125D01*
X297068Y97029D01*
X297004Y96984D01*
X295913Y95893D01*
X293439Y94868D01*
X290761Y94868D01*
X288287Y95893D01*
X286393Y97787D01*
X285368Y100261D01*
X285368Y102939D01*
X286393Y105413D01*
X288287Y107307D01*
X290761Y108332D01*
X293439Y108332D01*
X295913Y107307D01*
X297004Y106216D01*
X297074Y106164D01*
X297138Y106104D01*
X297187Y106078D01*
X297231Y106045D01*
X297313Y106014D01*
X297391Y105974D01*
X297438Y105966D01*
X297497Y105944D01*
X297645Y105932D01*
X297722Y105919D01*
X323680Y105919D01*
X323767Y105931D01*
X323854Y105934D01*
X323907Y105951D01*
X323962Y105959D01*
X324041Y105994D01*
X324125Y106021D01*
X324164Y106049D01*
X324221Y106075D01*
X324334Y106171D01*
X324398Y106216D01*
X326027Y107845D01*
X328735Y108967D01*
X331665Y108967D01*
X334373Y107845D01*
X336445Y105773D01*
X337567Y103065D01*
X337567Y100135D01*
X336445Y97427D01*
X334373Y95355D01*
X331665Y94233D01*
X328735Y94233D01*
G37*
%LPD*%
%LPC*%
G36*
X1789099Y1152731D02*
X1789099Y1152731D01*
X1786141Y1153957D01*
X1783877Y1156221D01*
X1782651Y1159179D01*
X1782651Y1162381D01*
X1783877Y1165339D01*
X1786141Y1167603D01*
X1789099Y1168829D01*
X1792301Y1168829D01*
X1795259Y1167603D01*
X1797523Y1165339D01*
X1798749Y1162381D01*
X1798749Y1159179D01*
X1797523Y1156221D01*
X1795259Y1153957D01*
X1792301Y1152731D01*
X1789099Y1152731D01*
G37*
%LPD*%
%LPC*%
G36*
X49199Y962231D02*
X49199Y962231D01*
X46241Y963457D01*
X43977Y965721D01*
X42751Y968679D01*
X42751Y971881D01*
X43977Y974839D01*
X46241Y977103D01*
X49199Y978329D01*
X52401Y978329D01*
X55359Y977103D01*
X57623Y974839D01*
X58849Y971881D01*
X58849Y968679D01*
X57623Y965721D01*
X55359Y963457D01*
X52401Y962231D01*
X49199Y962231D01*
G37*
%LPD*%
%LPC*%
G36*
X1789099Y233251D02*
X1789099Y233251D01*
X1786141Y234477D01*
X1783877Y236741D01*
X1782651Y239699D01*
X1782651Y242901D01*
X1783877Y245859D01*
X1786141Y248123D01*
X1789099Y249349D01*
X1792301Y249349D01*
X1795259Y248123D01*
X1797523Y245859D01*
X1798749Y242901D01*
X1798749Y239699D01*
X1797523Y236741D01*
X1795259Y234477D01*
X1792301Y233251D01*
X1789099Y233251D01*
G37*
%LPD*%
%LPC*%
G36*
X49199Y42751D02*
X49199Y42751D01*
X46241Y43977D01*
X43977Y46241D01*
X42751Y49199D01*
X42751Y52401D01*
X43977Y55359D01*
X46241Y57623D01*
X49199Y58849D01*
X52401Y58849D01*
X55359Y57623D01*
X57623Y55359D01*
X58849Y52401D01*
X58849Y49199D01*
X57623Y46241D01*
X55359Y43977D01*
X52401Y42751D01*
X49199Y42751D01*
G37*
%LPD*%
%LPC*%
G36*
X64434Y934211D02*
X64434Y934211D01*
X64555Y934976D01*
X65136Y936763D01*
X65989Y938437D01*
X67094Y939958D01*
X68422Y941286D01*
X69943Y942391D01*
X71617Y943244D01*
X73404Y943825D01*
X74169Y943946D01*
X74169Y934211D01*
X64434Y934211D01*
G37*
%LPD*%
%LPC*%
G36*
X64434Y14731D02*
X64434Y14731D01*
X64555Y15496D01*
X65136Y17283D01*
X65989Y18957D01*
X67094Y20478D01*
X68422Y21806D01*
X69943Y22911D01*
X71617Y23764D01*
X73404Y24345D01*
X74169Y24466D01*
X74169Y14731D01*
X64434Y14731D01*
G37*
%LPD*%
%LPC*%
G36*
X356869Y1022349D02*
X356869Y1022349D01*
X356869Y1027821D01*
X357601Y1027675D01*
X358849Y1027158D01*
X359972Y1026407D01*
X360927Y1025452D01*
X361678Y1024329D01*
X362195Y1023081D01*
X362341Y1022349D01*
X356869Y1022349D01*
G37*
%LPD*%
%LPC*%
G36*
X356869Y102869D02*
X356869Y102869D01*
X356869Y108341D01*
X357601Y108195D01*
X358849Y107678D01*
X359972Y106927D01*
X360927Y105972D01*
X361678Y104849D01*
X362195Y103601D01*
X362341Y102869D01*
X356869Y102869D01*
G37*
%LPD*%
%LPC*%
G36*
X348859Y1022349D02*
X348859Y1022349D01*
X349005Y1023081D01*
X349522Y1024329D01*
X350273Y1025452D01*
X351228Y1026407D01*
X352351Y1027158D01*
X353599Y1027675D01*
X354331Y1027821D01*
X354331Y1022349D01*
X348859Y1022349D01*
G37*
%LPD*%
%LPC*%
G36*
X356869Y1019811D02*
X356869Y1019811D01*
X362341Y1019811D01*
X362195Y1019079D01*
X361678Y1017831D01*
X360927Y1016708D01*
X359972Y1015753D01*
X358849Y1015002D01*
X357601Y1014485D01*
X356869Y1014339D01*
X356869Y1019811D01*
G37*
%LPD*%
%LPC*%
G36*
X348859Y102869D02*
X348859Y102869D01*
X349005Y103601D01*
X349522Y104849D01*
X350273Y105972D01*
X351228Y106927D01*
X352351Y107678D01*
X353599Y108195D01*
X354331Y108341D01*
X354331Y102869D01*
X348859Y102869D01*
G37*
%LPD*%
%LPC*%
G36*
X356869Y100331D02*
X356869Y100331D01*
X362341Y100331D01*
X362195Y99599D01*
X361678Y98351D01*
X360927Y97228D01*
X359972Y96273D01*
X358849Y95522D01*
X357601Y95005D01*
X356869Y94859D01*
X356869Y100331D01*
G37*
%LPD*%
%LPC*%
G36*
X353599Y1014485D02*
X353599Y1014485D01*
X352351Y1015002D01*
X351228Y1015753D01*
X350273Y1016708D01*
X349522Y1017831D01*
X349005Y1019079D01*
X348859Y1019811D01*
X354331Y1019811D01*
X354331Y1014339D01*
X353599Y1014485D01*
G37*
%LPD*%
%LPC*%
G36*
X353599Y95005D02*
X353599Y95005D01*
X352351Y95522D01*
X351228Y96273D01*
X350273Y97228D01*
X349522Y98351D01*
X349005Y99599D01*
X348859Y100331D01*
X354331Y100331D01*
X354331Y94859D01*
X353599Y95005D01*
G37*
%LPD*%
D10*
X1599184Y10668D02*
X1596813Y3556D01*
X1594443Y10668D01*
X1589490Y11853D02*
X1586526Y14224D01*
X1586526Y3556D01*
X1583563Y3556D02*
X1589490Y3556D01*
X1578060Y8890D02*
X1578057Y9100D01*
X1578050Y9310D01*
X1578037Y9519D01*
X1578020Y9728D01*
X1577997Y9937D01*
X1577970Y10145D01*
X1577938Y10352D01*
X1577900Y10559D01*
X1577858Y10764D01*
X1577811Y10969D01*
X1577759Y11172D01*
X1577702Y11374D01*
X1577640Y11575D01*
X1577574Y11774D01*
X1577502Y11971D01*
X1577426Y12167D01*
X1577346Y12361D01*
X1577261Y12553D01*
X1577171Y12742D01*
X1577170Y12742D02*
X1577139Y12827D01*
X1577105Y12911D01*
X1577067Y12993D01*
X1577025Y13074D01*
X1576980Y13153D01*
X1576932Y13230D01*
X1576881Y13305D01*
X1576827Y13377D01*
X1576770Y13448D01*
X1576710Y13516D01*
X1576647Y13581D01*
X1576582Y13644D01*
X1576514Y13704D01*
X1576443Y13761D01*
X1576371Y13815D01*
X1576296Y13867D01*
X1576219Y13915D01*
X1576140Y13960D01*
X1576059Y14001D01*
X1575977Y14039D01*
X1575893Y14074D01*
X1575808Y14105D01*
X1575722Y14133D01*
X1575635Y14157D01*
X1575546Y14177D01*
X1575457Y14194D01*
X1575367Y14207D01*
X1575277Y14217D01*
X1575187Y14222D01*
X1575096Y14224D01*
X1575005Y14222D01*
X1574915Y14217D01*
X1574825Y14207D01*
X1574735Y14194D01*
X1574646Y14177D01*
X1574557Y14157D01*
X1574470Y14133D01*
X1574384Y14105D01*
X1574299Y14074D01*
X1574215Y14039D01*
X1574133Y14001D01*
X1574052Y13960D01*
X1573973Y13915D01*
X1573896Y13867D01*
X1573821Y13816D01*
X1573749Y13761D01*
X1573678Y13704D01*
X1573610Y13644D01*
X1573545Y13581D01*
X1573482Y13516D01*
X1573422Y13448D01*
X1573365Y13377D01*
X1573311Y13305D01*
X1573260Y13230D01*
X1573212Y13153D01*
X1573167Y13074D01*
X1573125Y12993D01*
X1573087Y12911D01*
X1573053Y12827D01*
X1573022Y12742D01*
X1572932Y12553D01*
X1572847Y12361D01*
X1572767Y12167D01*
X1572691Y11971D01*
X1572619Y11774D01*
X1572553Y11575D01*
X1572491Y11374D01*
X1572434Y11172D01*
X1572382Y10969D01*
X1572335Y10764D01*
X1572293Y10559D01*
X1572255Y10352D01*
X1572223Y10145D01*
X1572196Y9937D01*
X1572173Y9728D01*
X1572156Y9519D01*
X1572143Y9310D01*
X1572136Y9100D01*
X1572133Y8890D01*
X1578059Y8890D02*
X1578056Y8680D01*
X1578049Y8470D01*
X1578036Y8261D01*
X1578019Y8052D01*
X1577996Y7843D01*
X1577969Y7635D01*
X1577937Y7428D01*
X1577899Y7221D01*
X1577857Y7016D01*
X1577810Y6811D01*
X1577758Y6608D01*
X1577701Y6406D01*
X1577639Y6205D01*
X1577573Y6006D01*
X1577501Y5809D01*
X1577425Y5613D01*
X1577345Y5419D01*
X1577260Y5228D01*
X1577170Y5038D01*
X1577139Y4953D01*
X1577105Y4869D01*
X1577067Y4787D01*
X1577025Y4706D01*
X1576980Y4627D01*
X1576932Y4550D01*
X1576881Y4475D01*
X1576827Y4403D01*
X1576770Y4332D01*
X1576710Y4264D01*
X1576647Y4199D01*
X1576582Y4136D01*
X1576514Y4076D01*
X1576443Y4019D01*
X1576371Y3964D01*
X1576296Y3913D01*
X1576219Y3865D01*
X1576140Y3820D01*
X1576059Y3779D01*
X1575977Y3741D01*
X1575893Y3706D01*
X1575808Y3675D01*
X1575722Y3647D01*
X1575635Y3623D01*
X1575546Y3603D01*
X1575457Y3586D01*
X1575367Y3573D01*
X1575277Y3563D01*
X1575187Y3558D01*
X1575096Y3556D01*
X1573022Y5038D02*
X1572932Y5228D01*
X1572847Y5419D01*
X1572767Y5613D01*
X1572691Y5809D01*
X1572619Y6006D01*
X1572553Y6205D01*
X1572491Y6406D01*
X1572434Y6608D01*
X1572382Y6811D01*
X1572335Y7016D01*
X1572293Y7221D01*
X1572255Y7428D01*
X1572223Y7635D01*
X1572196Y7843D01*
X1572173Y8052D01*
X1572156Y8261D01*
X1572143Y8470D01*
X1572136Y8680D01*
X1572133Y8890D01*
X1573022Y5038D02*
X1573053Y4953D01*
X1573087Y4869D01*
X1573126Y4787D01*
X1573167Y4706D01*
X1573212Y4627D01*
X1573260Y4550D01*
X1573311Y4475D01*
X1573365Y4403D01*
X1573422Y4332D01*
X1573482Y4264D01*
X1573545Y4199D01*
X1573610Y4136D01*
X1573678Y4076D01*
X1573749Y4019D01*
X1573821Y3964D01*
X1573896Y3913D01*
X1573973Y3865D01*
X1574052Y3820D01*
X1574133Y3779D01*
X1574215Y3741D01*
X1574299Y3706D01*
X1574384Y3675D01*
X1574470Y3647D01*
X1574557Y3623D01*
X1574646Y3603D01*
X1574735Y3586D01*
X1574825Y3573D01*
X1574915Y3563D01*
X1575005Y3558D01*
X1575096Y3556D01*
X1577467Y5927D02*
X1572726Y11853D01*
X1596813Y923036D02*
X1599184Y930148D01*
X1594443Y930148D02*
X1596813Y923036D01*
X1589490Y931333D02*
X1586526Y933704D01*
X1586526Y923036D01*
X1583563Y923036D02*
X1589490Y923036D01*
X1578060Y928370D02*
X1578057Y928580D01*
X1578050Y928790D01*
X1578037Y928999D01*
X1578020Y929208D01*
X1577997Y929417D01*
X1577970Y929625D01*
X1577938Y929832D01*
X1577900Y930039D01*
X1577858Y930244D01*
X1577811Y930449D01*
X1577759Y930652D01*
X1577702Y930854D01*
X1577640Y931055D01*
X1577574Y931254D01*
X1577502Y931451D01*
X1577426Y931647D01*
X1577346Y931841D01*
X1577261Y932033D01*
X1577171Y932222D01*
X1577170Y932222D02*
X1577139Y932307D01*
X1577105Y932391D01*
X1577067Y932473D01*
X1577025Y932554D01*
X1576980Y932633D01*
X1576932Y932710D01*
X1576881Y932785D01*
X1576827Y932857D01*
X1576770Y932928D01*
X1576710Y932996D01*
X1576647Y933061D01*
X1576582Y933124D01*
X1576514Y933184D01*
X1576443Y933241D01*
X1576371Y933295D01*
X1576296Y933347D01*
X1576219Y933395D01*
X1576140Y933440D01*
X1576059Y933481D01*
X1575977Y933519D01*
X1575893Y933554D01*
X1575808Y933585D01*
X1575722Y933613D01*
X1575635Y933637D01*
X1575546Y933657D01*
X1575457Y933674D01*
X1575367Y933687D01*
X1575277Y933697D01*
X1575187Y933702D01*
X1575096Y933704D01*
X1575005Y933702D01*
X1574915Y933697D01*
X1574825Y933687D01*
X1574735Y933674D01*
X1574646Y933657D01*
X1574557Y933637D01*
X1574470Y933613D01*
X1574384Y933585D01*
X1574299Y933554D01*
X1574215Y933519D01*
X1574133Y933481D01*
X1574052Y933440D01*
X1573973Y933395D01*
X1573896Y933347D01*
X1573821Y933296D01*
X1573749Y933241D01*
X1573678Y933184D01*
X1573610Y933124D01*
X1573545Y933061D01*
X1573482Y932996D01*
X1573422Y932928D01*
X1573365Y932857D01*
X1573311Y932785D01*
X1573260Y932710D01*
X1573212Y932633D01*
X1573167Y932554D01*
X1573125Y932473D01*
X1573087Y932391D01*
X1573053Y932307D01*
X1573022Y932222D01*
X1572932Y932033D01*
X1572847Y931841D01*
X1572767Y931647D01*
X1572691Y931451D01*
X1572619Y931254D01*
X1572553Y931055D01*
X1572491Y930854D01*
X1572434Y930652D01*
X1572382Y930449D01*
X1572335Y930244D01*
X1572293Y930039D01*
X1572255Y929832D01*
X1572223Y929625D01*
X1572196Y929417D01*
X1572173Y929208D01*
X1572156Y928999D01*
X1572143Y928790D01*
X1572136Y928580D01*
X1572133Y928370D01*
X1578059Y928370D02*
X1578056Y928160D01*
X1578049Y927950D01*
X1578036Y927741D01*
X1578019Y927532D01*
X1577996Y927323D01*
X1577969Y927115D01*
X1577937Y926908D01*
X1577899Y926701D01*
X1577857Y926496D01*
X1577810Y926291D01*
X1577758Y926088D01*
X1577701Y925886D01*
X1577639Y925685D01*
X1577573Y925486D01*
X1577501Y925289D01*
X1577425Y925093D01*
X1577345Y924899D01*
X1577260Y924708D01*
X1577170Y924518D01*
X1577139Y924433D01*
X1577105Y924349D01*
X1577067Y924267D01*
X1577025Y924186D01*
X1576980Y924107D01*
X1576932Y924030D01*
X1576881Y923955D01*
X1576827Y923883D01*
X1576770Y923812D01*
X1576710Y923744D01*
X1576647Y923679D01*
X1576582Y923616D01*
X1576514Y923556D01*
X1576443Y923499D01*
X1576371Y923444D01*
X1576296Y923393D01*
X1576219Y923345D01*
X1576140Y923300D01*
X1576059Y923259D01*
X1575977Y923221D01*
X1575893Y923186D01*
X1575808Y923155D01*
X1575722Y923127D01*
X1575635Y923103D01*
X1575546Y923083D01*
X1575457Y923066D01*
X1575367Y923053D01*
X1575277Y923043D01*
X1575187Y923038D01*
X1575096Y923036D01*
X1573022Y924518D02*
X1572932Y924708D01*
X1572847Y924899D01*
X1572767Y925093D01*
X1572691Y925289D01*
X1572619Y925486D01*
X1572553Y925685D01*
X1572491Y925886D01*
X1572434Y926088D01*
X1572382Y926291D01*
X1572335Y926496D01*
X1572293Y926701D01*
X1572255Y926908D01*
X1572223Y927115D01*
X1572196Y927323D01*
X1572173Y927532D01*
X1572156Y927741D01*
X1572143Y927950D01*
X1572136Y928160D01*
X1572133Y928370D01*
X1573022Y924518D02*
X1573053Y924433D01*
X1573087Y924349D01*
X1573126Y924267D01*
X1573167Y924186D01*
X1573212Y924107D01*
X1573260Y924030D01*
X1573311Y923955D01*
X1573365Y923883D01*
X1573422Y923812D01*
X1573482Y923744D01*
X1573545Y923679D01*
X1573610Y923616D01*
X1573678Y923556D01*
X1573749Y923499D01*
X1573821Y923444D01*
X1573896Y923393D01*
X1573973Y923345D01*
X1574052Y923300D01*
X1574133Y923259D01*
X1574215Y923221D01*
X1574299Y923186D01*
X1574384Y923155D01*
X1574470Y923127D01*
X1574557Y923103D01*
X1574646Y923083D01*
X1574735Y923066D01*
X1574825Y923053D01*
X1574915Y923043D01*
X1575005Y923038D01*
X1575096Y923036D01*
X1577467Y925407D02*
X1572726Y931333D01*
D11*
X1790700Y241300D03*
X50800Y50800D03*
D12*
X152400Y12700D03*
X127000Y12700D03*
X101600Y12700D03*
X76200Y12700D03*
D13*
X330200Y50800D03*
X355600Y50800D03*
X330200Y76200D03*
X355600Y76200D03*
X330200Y101600D03*
X355600Y101600D03*
D14*
X1136650Y209550D03*
D15*
X1171650Y209550D03*
D16*
X1155700Y323800D03*
X1155700Y793700D03*
D14*
X1593850Y209550D03*
D15*
X1628850Y209550D03*
D16*
X1612900Y323800D03*
X1612900Y793700D03*
D14*
X679450Y209550D03*
D15*
X714450Y209550D03*
D16*
X698500Y323800D03*
X698500Y793700D03*
D14*
X222250Y209550D03*
D15*
X257250Y209550D03*
D16*
X241300Y323800D03*
X241300Y793700D03*
D12*
X177800Y12700D03*
D11*
X1790700Y1160780D03*
X50800Y970280D03*
D12*
X152400Y932180D03*
X127000Y932180D03*
X101600Y932180D03*
X76200Y932180D03*
D13*
X330200Y970280D03*
X355600Y970280D03*
X330200Y995680D03*
X355600Y995680D03*
X330200Y1021080D03*
X355600Y1021080D03*
D14*
X1136650Y1129030D03*
D15*
X1171650Y1129030D03*
D16*
X1155700Y1243280D03*
X1155700Y1713180D03*
D14*
X1593850Y1129030D03*
D15*
X1628850Y1129030D03*
D16*
X1612900Y1243280D03*
X1612900Y1713180D03*
D14*
X679450Y1129030D03*
D15*
X714450Y1129030D03*
D16*
X698500Y1243280D03*
X698500Y1713180D03*
D14*
X222250Y1129030D03*
D15*
X257250Y1129030D03*
D16*
X241300Y1243280D03*
X241300Y1713180D03*
D12*
X177800Y932180D03*
D11*
X68580Y1854835D03*
X1784985Y1854835D03*
D17*
X279400Y152400D03*
X381000Y139700D03*
X342900Y88900D03*
X622300Y152400D03*
X1104900Y165100D03*
X990600Y38100D03*
X736600Y76200D03*
X1574800Y165100D03*
X1778000Y88900D03*
X274320Y38100D03*
D10*
X146050Y38100D01*
X139700Y31750D02*
X127000Y19050D01*
X127000Y12700D01*
X139700Y31750D02*
X146050Y38100D01*
X355600Y63500D02*
X355600Y76200D01*
X355600Y63500D02*
X330200Y38100D01*
X274320Y38100D01*
D17*
X139700Y31750D03*
D10*
X165100Y76200D02*
X330200Y76200D01*
D17*
X165100Y76200D03*
X127000Y76200D03*
D10*
X165100Y76200D01*
D17*
X76200Y127000D03*
D18*
X101600Y127000D01*
X127000Y127000D01*
X257810Y127000D01*
X314900Y127000D01*
X673100Y127000D02*
X716280Y127000D01*
X1171650Y127000D01*
X1628140Y127000D01*
X1739900Y127000D01*
X1752600Y114300D01*
D17*
X1752600Y114300D03*
D18*
X1171650Y127000D02*
X1171650Y209550D01*
X1628850Y209550D02*
X1628850Y127710D01*
X1628140Y127000D01*
X714450Y128830D02*
X714450Y209550D01*
X714450Y128830D02*
X716280Y127000D01*
D17*
X314900Y127000D03*
X673100Y127000D03*
X127000Y127000D03*
D18*
X101600Y127000D02*
X101600Y12700D01*
X314900Y127000D02*
X673100Y127000D01*
X257250Y127560D02*
X257250Y209550D01*
X257250Y127560D02*
X257810Y127000D01*
D17*
X292100Y101600D03*
D19*
X330200Y101600D01*
D17*
X279400Y1071880D03*
X381000Y1059180D03*
X342900Y1008380D03*
X622300Y1071880D03*
X1104900Y1084580D03*
X990600Y957580D03*
X736600Y995680D03*
X1574800Y1084580D03*
X1778000Y1008380D03*
X274320Y957580D03*
D10*
X146050Y957580D01*
X139700Y951230D02*
X127000Y938530D01*
X127000Y932180D01*
X139700Y951230D02*
X146050Y957580D01*
X355600Y982980D02*
X355600Y995680D01*
X355600Y982980D02*
X330200Y957580D01*
X274320Y957580D01*
D17*
X139700Y951230D03*
D10*
X165100Y995680D02*
X330200Y995680D01*
D17*
X165100Y995680D03*
X127000Y995680D03*
D10*
X165100Y995680D01*
D17*
X76200Y1046480D03*
D18*
X101600Y1046480D01*
X127000Y1046480D01*
X257810Y1046480D01*
X314900Y1046480D01*
X673100Y1046480D02*
X716280Y1046480D01*
X1171650Y1046480D01*
X1628140Y1046480D01*
X1739900Y1046480D01*
X1752600Y1033780D01*
D17*
X1752600Y1033780D03*
D18*
X1171650Y1046480D02*
X1171650Y1129030D01*
X1628850Y1129030D02*
X1628850Y1047190D01*
X1628140Y1046480D01*
X714450Y1048310D02*
X714450Y1129030D01*
X714450Y1048310D02*
X716280Y1046480D01*
D17*
X314900Y1046480D03*
X673100Y1046480D03*
X127000Y1046480D03*
D18*
X101600Y1046480D02*
X101600Y932180D01*
X314900Y1046480D02*
X673100Y1046480D01*
X257250Y1047040D02*
X257250Y1129030D01*
X257250Y1047040D02*
X257810Y1046480D01*
D17*
X292100Y1021080D03*
D19*
X330200Y1021080D01*
M02*
