G04 EAGLE Gerber RS-274X export*
G75*
%MOMM*%
%FSLAX34Y34*%
%LPD*%
%IN*%
%IPPOS*%
%AMOC8*
5,1,8,0,0,1.08239X$1,22.5*%
G01*
%ADD10C,0.203200*%
%ADD11C,0.000000*%
%ADD12C,0.254000*%


D10*
X0Y0D02*
X1854000Y0D01*
X1854200Y863600D01*
X0Y863600D01*
X0Y0D01*
D11*
X1812290Y25400D02*
X1812295Y25805D01*
X1812310Y26210D01*
X1812335Y26615D01*
X1812370Y27018D01*
X1812414Y27421D01*
X1812469Y27823D01*
X1812533Y28223D01*
X1812607Y28621D01*
X1812691Y29017D01*
X1812785Y29412D01*
X1812888Y29803D01*
X1813001Y30193D01*
X1813123Y30579D01*
X1813255Y30962D01*
X1813396Y31342D01*
X1813547Y31718D01*
X1813706Y32091D01*
X1813875Y32459D01*
X1814053Y32823D01*
X1814239Y33183D01*
X1814435Y33538D01*
X1814639Y33888D01*
X1814851Y34233D01*
X1815072Y34572D01*
X1815302Y34907D01*
X1815539Y35235D01*
X1815784Y35557D01*
X1816038Y35874D01*
X1816298Y36184D01*
X1816567Y36487D01*
X1816843Y36784D01*
X1817126Y37074D01*
X1817416Y37357D01*
X1817713Y37633D01*
X1818016Y37902D01*
X1818326Y38162D01*
X1818643Y38416D01*
X1818965Y38661D01*
X1819293Y38898D01*
X1819628Y39128D01*
X1819967Y39349D01*
X1820312Y39561D01*
X1820662Y39765D01*
X1821017Y39961D01*
X1821377Y40147D01*
X1821741Y40325D01*
X1822109Y40494D01*
X1822482Y40653D01*
X1822858Y40804D01*
X1823238Y40945D01*
X1823621Y41077D01*
X1824007Y41199D01*
X1824397Y41312D01*
X1824788Y41415D01*
X1825183Y41509D01*
X1825579Y41593D01*
X1825977Y41667D01*
X1826377Y41731D01*
X1826779Y41786D01*
X1827182Y41830D01*
X1827585Y41865D01*
X1827990Y41890D01*
X1828395Y41905D01*
X1828800Y41910D01*
X1829205Y41905D01*
X1829610Y41890D01*
X1830015Y41865D01*
X1830418Y41830D01*
X1830821Y41786D01*
X1831223Y41731D01*
X1831623Y41667D01*
X1832021Y41593D01*
X1832417Y41509D01*
X1832812Y41415D01*
X1833203Y41312D01*
X1833593Y41199D01*
X1833979Y41077D01*
X1834362Y40945D01*
X1834742Y40804D01*
X1835118Y40653D01*
X1835491Y40494D01*
X1835859Y40325D01*
X1836223Y40147D01*
X1836583Y39961D01*
X1836938Y39765D01*
X1837288Y39561D01*
X1837633Y39349D01*
X1837972Y39128D01*
X1838307Y38898D01*
X1838635Y38661D01*
X1838957Y38416D01*
X1839274Y38162D01*
X1839584Y37902D01*
X1839887Y37633D01*
X1840184Y37357D01*
X1840474Y37074D01*
X1840757Y36784D01*
X1841033Y36487D01*
X1841302Y36184D01*
X1841562Y35874D01*
X1841816Y35557D01*
X1842061Y35235D01*
X1842298Y34907D01*
X1842528Y34572D01*
X1842749Y34233D01*
X1842961Y33888D01*
X1843165Y33538D01*
X1843361Y33183D01*
X1843547Y32823D01*
X1843725Y32459D01*
X1843894Y32091D01*
X1844053Y31718D01*
X1844204Y31342D01*
X1844345Y30962D01*
X1844477Y30579D01*
X1844599Y30193D01*
X1844712Y29803D01*
X1844815Y29412D01*
X1844909Y29017D01*
X1844993Y28621D01*
X1845067Y28223D01*
X1845131Y27823D01*
X1845186Y27421D01*
X1845230Y27018D01*
X1845265Y26615D01*
X1845290Y26210D01*
X1845305Y25805D01*
X1845310Y25400D01*
X1845305Y24995D01*
X1845290Y24590D01*
X1845265Y24185D01*
X1845230Y23782D01*
X1845186Y23379D01*
X1845131Y22977D01*
X1845067Y22577D01*
X1844993Y22179D01*
X1844909Y21783D01*
X1844815Y21388D01*
X1844712Y20997D01*
X1844599Y20607D01*
X1844477Y20221D01*
X1844345Y19838D01*
X1844204Y19458D01*
X1844053Y19082D01*
X1843894Y18709D01*
X1843725Y18341D01*
X1843547Y17977D01*
X1843361Y17617D01*
X1843165Y17262D01*
X1842961Y16912D01*
X1842749Y16567D01*
X1842528Y16228D01*
X1842298Y15893D01*
X1842061Y15565D01*
X1841816Y15243D01*
X1841562Y14926D01*
X1841302Y14616D01*
X1841033Y14313D01*
X1840757Y14016D01*
X1840474Y13726D01*
X1840184Y13443D01*
X1839887Y13167D01*
X1839584Y12898D01*
X1839274Y12638D01*
X1838957Y12384D01*
X1838635Y12139D01*
X1838307Y11902D01*
X1837972Y11672D01*
X1837633Y11451D01*
X1837288Y11239D01*
X1836938Y11035D01*
X1836583Y10839D01*
X1836223Y10653D01*
X1835859Y10475D01*
X1835491Y10306D01*
X1835118Y10147D01*
X1834742Y9996D01*
X1834362Y9855D01*
X1833979Y9723D01*
X1833593Y9601D01*
X1833203Y9488D01*
X1832812Y9385D01*
X1832417Y9291D01*
X1832021Y9207D01*
X1831623Y9133D01*
X1831223Y9069D01*
X1830821Y9014D01*
X1830418Y8970D01*
X1830015Y8935D01*
X1829610Y8910D01*
X1829205Y8895D01*
X1828800Y8890D01*
X1828395Y8895D01*
X1827990Y8910D01*
X1827585Y8935D01*
X1827182Y8970D01*
X1826779Y9014D01*
X1826377Y9069D01*
X1825977Y9133D01*
X1825579Y9207D01*
X1825183Y9291D01*
X1824788Y9385D01*
X1824397Y9488D01*
X1824007Y9601D01*
X1823621Y9723D01*
X1823238Y9855D01*
X1822858Y9996D01*
X1822482Y10147D01*
X1822109Y10306D01*
X1821741Y10475D01*
X1821377Y10653D01*
X1821017Y10839D01*
X1820662Y11035D01*
X1820312Y11239D01*
X1819967Y11451D01*
X1819628Y11672D01*
X1819293Y11902D01*
X1818965Y12139D01*
X1818643Y12384D01*
X1818326Y12638D01*
X1818016Y12898D01*
X1817713Y13167D01*
X1817416Y13443D01*
X1817126Y13726D01*
X1816843Y14016D01*
X1816567Y14313D01*
X1816298Y14616D01*
X1816038Y14926D01*
X1815784Y15243D01*
X1815539Y15565D01*
X1815302Y15893D01*
X1815072Y16228D01*
X1814851Y16567D01*
X1814639Y16912D01*
X1814435Y17262D01*
X1814239Y17617D01*
X1814053Y17977D01*
X1813875Y18341D01*
X1813706Y18709D01*
X1813547Y19082D01*
X1813396Y19458D01*
X1813255Y19838D01*
X1813123Y20221D01*
X1813001Y20607D01*
X1812888Y20997D01*
X1812785Y21388D01*
X1812691Y21783D01*
X1812607Y22179D01*
X1812533Y22577D01*
X1812469Y22977D01*
X1812414Y23379D01*
X1812370Y23782D01*
X1812335Y24185D01*
X1812310Y24590D01*
X1812295Y24995D01*
X1812290Y25400D01*
X8890Y228600D02*
X8895Y229005D01*
X8910Y229410D01*
X8935Y229815D01*
X8970Y230218D01*
X9014Y230621D01*
X9069Y231023D01*
X9133Y231423D01*
X9207Y231821D01*
X9291Y232217D01*
X9385Y232612D01*
X9488Y233003D01*
X9601Y233393D01*
X9723Y233779D01*
X9855Y234162D01*
X9996Y234542D01*
X10147Y234918D01*
X10306Y235291D01*
X10475Y235659D01*
X10653Y236023D01*
X10839Y236383D01*
X11035Y236738D01*
X11239Y237088D01*
X11451Y237433D01*
X11672Y237772D01*
X11902Y238107D01*
X12139Y238435D01*
X12384Y238757D01*
X12638Y239074D01*
X12898Y239384D01*
X13167Y239687D01*
X13443Y239984D01*
X13726Y240274D01*
X14016Y240557D01*
X14313Y240833D01*
X14616Y241102D01*
X14926Y241362D01*
X15243Y241616D01*
X15565Y241861D01*
X15893Y242098D01*
X16228Y242328D01*
X16567Y242549D01*
X16912Y242761D01*
X17262Y242965D01*
X17617Y243161D01*
X17977Y243347D01*
X18341Y243525D01*
X18709Y243694D01*
X19082Y243853D01*
X19458Y244004D01*
X19838Y244145D01*
X20221Y244277D01*
X20607Y244399D01*
X20997Y244512D01*
X21388Y244615D01*
X21783Y244709D01*
X22179Y244793D01*
X22577Y244867D01*
X22977Y244931D01*
X23379Y244986D01*
X23782Y245030D01*
X24185Y245065D01*
X24590Y245090D01*
X24995Y245105D01*
X25400Y245110D01*
X25805Y245105D01*
X26210Y245090D01*
X26615Y245065D01*
X27018Y245030D01*
X27421Y244986D01*
X27823Y244931D01*
X28223Y244867D01*
X28621Y244793D01*
X29017Y244709D01*
X29412Y244615D01*
X29803Y244512D01*
X30193Y244399D01*
X30579Y244277D01*
X30962Y244145D01*
X31342Y244004D01*
X31718Y243853D01*
X32091Y243694D01*
X32459Y243525D01*
X32823Y243347D01*
X33183Y243161D01*
X33538Y242965D01*
X33888Y242761D01*
X34233Y242549D01*
X34572Y242328D01*
X34907Y242098D01*
X35235Y241861D01*
X35557Y241616D01*
X35874Y241362D01*
X36184Y241102D01*
X36487Y240833D01*
X36784Y240557D01*
X37074Y240274D01*
X37357Y239984D01*
X37633Y239687D01*
X37902Y239384D01*
X38162Y239074D01*
X38416Y238757D01*
X38661Y238435D01*
X38898Y238107D01*
X39128Y237772D01*
X39349Y237433D01*
X39561Y237088D01*
X39765Y236738D01*
X39961Y236383D01*
X40147Y236023D01*
X40325Y235659D01*
X40494Y235291D01*
X40653Y234918D01*
X40804Y234542D01*
X40945Y234162D01*
X41077Y233779D01*
X41199Y233393D01*
X41312Y233003D01*
X41415Y232612D01*
X41509Y232217D01*
X41593Y231821D01*
X41667Y231423D01*
X41731Y231023D01*
X41786Y230621D01*
X41830Y230218D01*
X41865Y229815D01*
X41890Y229410D01*
X41905Y229005D01*
X41910Y228600D01*
X41905Y228195D01*
X41890Y227790D01*
X41865Y227385D01*
X41830Y226982D01*
X41786Y226579D01*
X41731Y226177D01*
X41667Y225777D01*
X41593Y225379D01*
X41509Y224983D01*
X41415Y224588D01*
X41312Y224197D01*
X41199Y223807D01*
X41077Y223421D01*
X40945Y223038D01*
X40804Y222658D01*
X40653Y222282D01*
X40494Y221909D01*
X40325Y221541D01*
X40147Y221177D01*
X39961Y220817D01*
X39765Y220462D01*
X39561Y220112D01*
X39349Y219767D01*
X39128Y219428D01*
X38898Y219093D01*
X38661Y218765D01*
X38416Y218443D01*
X38162Y218126D01*
X37902Y217816D01*
X37633Y217513D01*
X37357Y217216D01*
X37074Y216926D01*
X36784Y216643D01*
X36487Y216367D01*
X36184Y216098D01*
X35874Y215838D01*
X35557Y215584D01*
X35235Y215339D01*
X34907Y215102D01*
X34572Y214872D01*
X34233Y214651D01*
X33888Y214439D01*
X33538Y214235D01*
X33183Y214039D01*
X32823Y213853D01*
X32459Y213675D01*
X32091Y213506D01*
X31718Y213347D01*
X31342Y213196D01*
X30962Y213055D01*
X30579Y212923D01*
X30193Y212801D01*
X29803Y212688D01*
X29412Y212585D01*
X29017Y212491D01*
X28621Y212407D01*
X28223Y212333D01*
X27823Y212269D01*
X27421Y212214D01*
X27018Y212170D01*
X26615Y212135D01*
X26210Y212110D01*
X25805Y212095D01*
X25400Y212090D01*
X24995Y212095D01*
X24590Y212110D01*
X24185Y212135D01*
X23782Y212170D01*
X23379Y212214D01*
X22977Y212269D01*
X22577Y212333D01*
X22179Y212407D01*
X21783Y212491D01*
X21388Y212585D01*
X20997Y212688D01*
X20607Y212801D01*
X20221Y212923D01*
X19838Y213055D01*
X19458Y213196D01*
X19082Y213347D01*
X18709Y213506D01*
X18341Y213675D01*
X17977Y213853D01*
X17617Y214039D01*
X17262Y214235D01*
X16912Y214439D01*
X16567Y214651D01*
X16228Y214872D01*
X15893Y215102D01*
X15565Y215339D01*
X15243Y215584D01*
X14926Y215838D01*
X14616Y216098D01*
X14313Y216367D01*
X14016Y216643D01*
X13726Y216926D01*
X13443Y217216D01*
X13167Y217513D01*
X12898Y217816D01*
X12638Y218126D01*
X12384Y218443D01*
X12139Y218765D01*
X11902Y219093D01*
X11672Y219428D01*
X11451Y219767D01*
X11239Y220112D01*
X11035Y220462D01*
X10839Y220817D01*
X10653Y221177D01*
X10475Y221541D01*
X10306Y221909D01*
X10147Y222282D01*
X9996Y222658D01*
X9855Y223038D01*
X9723Y223421D01*
X9601Y223807D01*
X9488Y224197D01*
X9385Y224588D01*
X9291Y224983D01*
X9207Y225379D01*
X9133Y225777D01*
X9069Y226177D01*
X9014Y226579D01*
X8970Y226982D01*
X8935Y227385D01*
X8910Y227790D01*
X8895Y228195D01*
X8890Y228600D01*
X8890Y25400D02*
X8895Y25805D01*
X8910Y26210D01*
X8935Y26615D01*
X8970Y27018D01*
X9014Y27421D01*
X9069Y27823D01*
X9133Y28223D01*
X9207Y28621D01*
X9291Y29017D01*
X9385Y29412D01*
X9488Y29803D01*
X9601Y30193D01*
X9723Y30579D01*
X9855Y30962D01*
X9996Y31342D01*
X10147Y31718D01*
X10306Y32091D01*
X10475Y32459D01*
X10653Y32823D01*
X10839Y33183D01*
X11035Y33538D01*
X11239Y33888D01*
X11451Y34233D01*
X11672Y34572D01*
X11902Y34907D01*
X12139Y35235D01*
X12384Y35557D01*
X12638Y35874D01*
X12898Y36184D01*
X13167Y36487D01*
X13443Y36784D01*
X13726Y37074D01*
X14016Y37357D01*
X14313Y37633D01*
X14616Y37902D01*
X14926Y38162D01*
X15243Y38416D01*
X15565Y38661D01*
X15893Y38898D01*
X16228Y39128D01*
X16567Y39349D01*
X16912Y39561D01*
X17262Y39765D01*
X17617Y39961D01*
X17977Y40147D01*
X18341Y40325D01*
X18709Y40494D01*
X19082Y40653D01*
X19458Y40804D01*
X19838Y40945D01*
X20221Y41077D01*
X20607Y41199D01*
X20997Y41312D01*
X21388Y41415D01*
X21783Y41509D01*
X22179Y41593D01*
X22577Y41667D01*
X22977Y41731D01*
X23379Y41786D01*
X23782Y41830D01*
X24185Y41865D01*
X24590Y41890D01*
X24995Y41905D01*
X25400Y41910D01*
X25805Y41905D01*
X26210Y41890D01*
X26615Y41865D01*
X27018Y41830D01*
X27421Y41786D01*
X27823Y41731D01*
X28223Y41667D01*
X28621Y41593D01*
X29017Y41509D01*
X29412Y41415D01*
X29803Y41312D01*
X30193Y41199D01*
X30579Y41077D01*
X30962Y40945D01*
X31342Y40804D01*
X31718Y40653D01*
X32091Y40494D01*
X32459Y40325D01*
X32823Y40147D01*
X33183Y39961D01*
X33538Y39765D01*
X33888Y39561D01*
X34233Y39349D01*
X34572Y39128D01*
X34907Y38898D01*
X35235Y38661D01*
X35557Y38416D01*
X35874Y38162D01*
X36184Y37902D01*
X36487Y37633D01*
X36784Y37357D01*
X37074Y37074D01*
X37357Y36784D01*
X37633Y36487D01*
X37902Y36184D01*
X38162Y35874D01*
X38416Y35557D01*
X38661Y35235D01*
X38898Y34907D01*
X39128Y34572D01*
X39349Y34233D01*
X39561Y33888D01*
X39765Y33538D01*
X39961Y33183D01*
X40147Y32823D01*
X40325Y32459D01*
X40494Y32091D01*
X40653Y31718D01*
X40804Y31342D01*
X40945Y30962D01*
X41077Y30579D01*
X41199Y30193D01*
X41312Y29803D01*
X41415Y29412D01*
X41509Y29017D01*
X41593Y28621D01*
X41667Y28223D01*
X41731Y27823D01*
X41786Y27421D01*
X41830Y27018D01*
X41865Y26615D01*
X41890Y26210D01*
X41905Y25805D01*
X41910Y25400D01*
X41905Y24995D01*
X41890Y24590D01*
X41865Y24185D01*
X41830Y23782D01*
X41786Y23379D01*
X41731Y22977D01*
X41667Y22577D01*
X41593Y22179D01*
X41509Y21783D01*
X41415Y21388D01*
X41312Y20997D01*
X41199Y20607D01*
X41077Y20221D01*
X40945Y19838D01*
X40804Y19458D01*
X40653Y19082D01*
X40494Y18709D01*
X40325Y18341D01*
X40147Y17977D01*
X39961Y17617D01*
X39765Y17262D01*
X39561Y16912D01*
X39349Y16567D01*
X39128Y16228D01*
X38898Y15893D01*
X38661Y15565D01*
X38416Y15243D01*
X38162Y14926D01*
X37902Y14616D01*
X37633Y14313D01*
X37357Y14016D01*
X37074Y13726D01*
X36784Y13443D01*
X36487Y13167D01*
X36184Y12898D01*
X35874Y12638D01*
X35557Y12384D01*
X35235Y12139D01*
X34907Y11902D01*
X34572Y11672D01*
X34233Y11451D01*
X33888Y11239D01*
X33538Y11035D01*
X33183Y10839D01*
X32823Y10653D01*
X32459Y10475D01*
X32091Y10306D01*
X31718Y10147D01*
X31342Y9996D01*
X30962Y9855D01*
X30579Y9723D01*
X30193Y9601D01*
X29803Y9488D01*
X29412Y9385D01*
X29017Y9291D01*
X28621Y9207D01*
X28223Y9133D01*
X27823Y9069D01*
X27421Y9014D01*
X27018Y8970D01*
X26615Y8935D01*
X26210Y8910D01*
X25805Y8895D01*
X25400Y8890D01*
X24995Y8895D01*
X24590Y8910D01*
X24185Y8935D01*
X23782Y8970D01*
X23379Y9014D01*
X22977Y9069D01*
X22577Y9133D01*
X22179Y9207D01*
X21783Y9291D01*
X21388Y9385D01*
X20997Y9488D01*
X20607Y9601D01*
X20221Y9723D01*
X19838Y9855D01*
X19458Y9996D01*
X19082Y10147D01*
X18709Y10306D01*
X18341Y10475D01*
X17977Y10653D01*
X17617Y10839D01*
X17262Y11035D01*
X16912Y11239D01*
X16567Y11451D01*
X16228Y11672D01*
X15893Y11902D01*
X15565Y12139D01*
X15243Y12384D01*
X14926Y12638D01*
X14616Y12898D01*
X14313Y13167D01*
X14016Y13443D01*
X13726Y13726D01*
X13443Y14016D01*
X13167Y14313D01*
X12898Y14616D01*
X12638Y14926D01*
X12384Y15243D01*
X12139Y15565D01*
X11902Y15893D01*
X11672Y16228D01*
X11451Y16567D01*
X11239Y16912D01*
X11035Y17262D01*
X10839Y17617D01*
X10653Y17977D01*
X10475Y18341D01*
X10306Y18709D01*
X10147Y19082D01*
X9996Y19458D01*
X9855Y19838D01*
X9723Y20221D01*
X9601Y20607D01*
X9488Y20997D01*
X9385Y21388D01*
X9291Y21783D01*
X9207Y22179D01*
X9133Y22577D01*
X9069Y22977D01*
X9014Y23379D01*
X8970Y23782D01*
X8935Y24185D01*
X8910Y24590D01*
X8895Y24995D01*
X8890Y25400D01*
X1812290Y228600D02*
X1812295Y229005D01*
X1812310Y229410D01*
X1812335Y229815D01*
X1812370Y230218D01*
X1812414Y230621D01*
X1812469Y231023D01*
X1812533Y231423D01*
X1812607Y231821D01*
X1812691Y232217D01*
X1812785Y232612D01*
X1812888Y233003D01*
X1813001Y233393D01*
X1813123Y233779D01*
X1813255Y234162D01*
X1813396Y234542D01*
X1813547Y234918D01*
X1813706Y235291D01*
X1813875Y235659D01*
X1814053Y236023D01*
X1814239Y236383D01*
X1814435Y236738D01*
X1814639Y237088D01*
X1814851Y237433D01*
X1815072Y237772D01*
X1815302Y238107D01*
X1815539Y238435D01*
X1815784Y238757D01*
X1816038Y239074D01*
X1816298Y239384D01*
X1816567Y239687D01*
X1816843Y239984D01*
X1817126Y240274D01*
X1817416Y240557D01*
X1817713Y240833D01*
X1818016Y241102D01*
X1818326Y241362D01*
X1818643Y241616D01*
X1818965Y241861D01*
X1819293Y242098D01*
X1819628Y242328D01*
X1819967Y242549D01*
X1820312Y242761D01*
X1820662Y242965D01*
X1821017Y243161D01*
X1821377Y243347D01*
X1821741Y243525D01*
X1822109Y243694D01*
X1822482Y243853D01*
X1822858Y244004D01*
X1823238Y244145D01*
X1823621Y244277D01*
X1824007Y244399D01*
X1824397Y244512D01*
X1824788Y244615D01*
X1825183Y244709D01*
X1825579Y244793D01*
X1825977Y244867D01*
X1826377Y244931D01*
X1826779Y244986D01*
X1827182Y245030D01*
X1827585Y245065D01*
X1827990Y245090D01*
X1828395Y245105D01*
X1828800Y245110D01*
X1829205Y245105D01*
X1829610Y245090D01*
X1830015Y245065D01*
X1830418Y245030D01*
X1830821Y244986D01*
X1831223Y244931D01*
X1831623Y244867D01*
X1832021Y244793D01*
X1832417Y244709D01*
X1832812Y244615D01*
X1833203Y244512D01*
X1833593Y244399D01*
X1833979Y244277D01*
X1834362Y244145D01*
X1834742Y244004D01*
X1835118Y243853D01*
X1835491Y243694D01*
X1835859Y243525D01*
X1836223Y243347D01*
X1836583Y243161D01*
X1836938Y242965D01*
X1837288Y242761D01*
X1837633Y242549D01*
X1837972Y242328D01*
X1838307Y242098D01*
X1838635Y241861D01*
X1838957Y241616D01*
X1839274Y241362D01*
X1839584Y241102D01*
X1839887Y240833D01*
X1840184Y240557D01*
X1840474Y240274D01*
X1840757Y239984D01*
X1841033Y239687D01*
X1841302Y239384D01*
X1841562Y239074D01*
X1841816Y238757D01*
X1842061Y238435D01*
X1842298Y238107D01*
X1842528Y237772D01*
X1842749Y237433D01*
X1842961Y237088D01*
X1843165Y236738D01*
X1843361Y236383D01*
X1843547Y236023D01*
X1843725Y235659D01*
X1843894Y235291D01*
X1844053Y234918D01*
X1844204Y234542D01*
X1844345Y234162D01*
X1844477Y233779D01*
X1844599Y233393D01*
X1844712Y233003D01*
X1844815Y232612D01*
X1844909Y232217D01*
X1844993Y231821D01*
X1845067Y231423D01*
X1845131Y231023D01*
X1845186Y230621D01*
X1845230Y230218D01*
X1845265Y229815D01*
X1845290Y229410D01*
X1845305Y229005D01*
X1845310Y228600D01*
X1845305Y228195D01*
X1845290Y227790D01*
X1845265Y227385D01*
X1845230Y226982D01*
X1845186Y226579D01*
X1845131Y226177D01*
X1845067Y225777D01*
X1844993Y225379D01*
X1844909Y224983D01*
X1844815Y224588D01*
X1844712Y224197D01*
X1844599Y223807D01*
X1844477Y223421D01*
X1844345Y223038D01*
X1844204Y222658D01*
X1844053Y222282D01*
X1843894Y221909D01*
X1843725Y221541D01*
X1843547Y221177D01*
X1843361Y220817D01*
X1843165Y220462D01*
X1842961Y220112D01*
X1842749Y219767D01*
X1842528Y219428D01*
X1842298Y219093D01*
X1842061Y218765D01*
X1841816Y218443D01*
X1841562Y218126D01*
X1841302Y217816D01*
X1841033Y217513D01*
X1840757Y217216D01*
X1840474Y216926D01*
X1840184Y216643D01*
X1839887Y216367D01*
X1839584Y216098D01*
X1839274Y215838D01*
X1838957Y215584D01*
X1838635Y215339D01*
X1838307Y215102D01*
X1837972Y214872D01*
X1837633Y214651D01*
X1837288Y214439D01*
X1836938Y214235D01*
X1836583Y214039D01*
X1836223Y213853D01*
X1835859Y213675D01*
X1835491Y213506D01*
X1835118Y213347D01*
X1834742Y213196D01*
X1834362Y213055D01*
X1833979Y212923D01*
X1833593Y212801D01*
X1833203Y212688D01*
X1832812Y212585D01*
X1832417Y212491D01*
X1832021Y212407D01*
X1831623Y212333D01*
X1831223Y212269D01*
X1830821Y212214D01*
X1830418Y212170D01*
X1830015Y212135D01*
X1829610Y212110D01*
X1829205Y212095D01*
X1828800Y212090D01*
X1828395Y212095D01*
X1827990Y212110D01*
X1827585Y212135D01*
X1827182Y212170D01*
X1826779Y212214D01*
X1826377Y212269D01*
X1825977Y212333D01*
X1825579Y212407D01*
X1825183Y212491D01*
X1824788Y212585D01*
X1824397Y212688D01*
X1824007Y212801D01*
X1823621Y212923D01*
X1823238Y213055D01*
X1822858Y213196D01*
X1822482Y213347D01*
X1822109Y213506D01*
X1821741Y213675D01*
X1821377Y213853D01*
X1821017Y214039D01*
X1820662Y214235D01*
X1820312Y214439D01*
X1819967Y214651D01*
X1819628Y214872D01*
X1819293Y215102D01*
X1818965Y215339D01*
X1818643Y215584D01*
X1818326Y215838D01*
X1818016Y216098D01*
X1817713Y216367D01*
X1817416Y216643D01*
X1817126Y216926D01*
X1816843Y217216D01*
X1816567Y217513D01*
X1816298Y217816D01*
X1816038Y218126D01*
X1815784Y218443D01*
X1815539Y218765D01*
X1815302Y219093D01*
X1815072Y219428D01*
X1814851Y219767D01*
X1814639Y220112D01*
X1814435Y220462D01*
X1814239Y220817D01*
X1814053Y221177D01*
X1813875Y221541D01*
X1813706Y221909D01*
X1813547Y222282D01*
X1813396Y222658D01*
X1813255Y223038D01*
X1813123Y223421D01*
X1813001Y223807D01*
X1812888Y224197D01*
X1812785Y224588D01*
X1812691Y224983D01*
X1812607Y225379D01*
X1812533Y225777D01*
X1812469Y226177D01*
X1812414Y226579D01*
X1812370Y226982D01*
X1812335Y227385D01*
X1812310Y227790D01*
X1812295Y228195D01*
X1812290Y228600D01*
X1133200Y323800D02*
X1133207Y324352D01*
X1133227Y324904D01*
X1133261Y325455D01*
X1133308Y326005D01*
X1133369Y326554D01*
X1133444Y327101D01*
X1133531Y327647D01*
X1133632Y328190D01*
X1133747Y328730D01*
X1133874Y329267D01*
X1134015Y329801D01*
X1134169Y330331D01*
X1134336Y330858D01*
X1134515Y331380D01*
X1134708Y331898D01*
X1134913Y332410D01*
X1135130Y332918D01*
X1135360Y333420D01*
X1135602Y333916D01*
X1135857Y334406D01*
X1136123Y334890D01*
X1136401Y335367D01*
X1136691Y335837D01*
X1136992Y336300D01*
X1137304Y336756D01*
X1137628Y337203D01*
X1137962Y337643D01*
X1138307Y338074D01*
X1138663Y338496D01*
X1139029Y338910D01*
X1139404Y339315D01*
X1139790Y339710D01*
X1140185Y340096D01*
X1140590Y340471D01*
X1141004Y340837D01*
X1141426Y341193D01*
X1141857Y341538D01*
X1142297Y341872D01*
X1142744Y342196D01*
X1143200Y342508D01*
X1143663Y342809D01*
X1144133Y343099D01*
X1144610Y343377D01*
X1145094Y343643D01*
X1145584Y343898D01*
X1146080Y344140D01*
X1146582Y344370D01*
X1147090Y344587D01*
X1147602Y344792D01*
X1148120Y344985D01*
X1148642Y345164D01*
X1149169Y345331D01*
X1149699Y345485D01*
X1150233Y345626D01*
X1150770Y345753D01*
X1151310Y345868D01*
X1151853Y345969D01*
X1152399Y346056D01*
X1152946Y346131D01*
X1153495Y346192D01*
X1154045Y346239D01*
X1154596Y346273D01*
X1155148Y346293D01*
X1155700Y346300D01*
X1156252Y346293D01*
X1156804Y346273D01*
X1157355Y346239D01*
X1157905Y346192D01*
X1158454Y346131D01*
X1159001Y346056D01*
X1159547Y345969D01*
X1160090Y345868D01*
X1160630Y345753D01*
X1161167Y345626D01*
X1161701Y345485D01*
X1162231Y345331D01*
X1162758Y345164D01*
X1163280Y344985D01*
X1163798Y344792D01*
X1164310Y344587D01*
X1164818Y344370D01*
X1165320Y344140D01*
X1165816Y343898D01*
X1166306Y343643D01*
X1166790Y343377D01*
X1167267Y343099D01*
X1167737Y342809D01*
X1168200Y342508D01*
X1168656Y342196D01*
X1169103Y341872D01*
X1169543Y341538D01*
X1169974Y341193D01*
X1170396Y340837D01*
X1170810Y340471D01*
X1171215Y340096D01*
X1171610Y339710D01*
X1171996Y339315D01*
X1172371Y338910D01*
X1172737Y338496D01*
X1173093Y338074D01*
X1173438Y337643D01*
X1173772Y337203D01*
X1174096Y336756D01*
X1174408Y336300D01*
X1174709Y335837D01*
X1174999Y335367D01*
X1175277Y334890D01*
X1175543Y334406D01*
X1175798Y333916D01*
X1176040Y333420D01*
X1176270Y332918D01*
X1176487Y332410D01*
X1176692Y331898D01*
X1176885Y331380D01*
X1177064Y330858D01*
X1177231Y330331D01*
X1177385Y329801D01*
X1177526Y329267D01*
X1177653Y328730D01*
X1177768Y328190D01*
X1177869Y327647D01*
X1177956Y327101D01*
X1178031Y326554D01*
X1178092Y326005D01*
X1178139Y325455D01*
X1178173Y324904D01*
X1178193Y324352D01*
X1178200Y323800D01*
X1178193Y323248D01*
X1178173Y322696D01*
X1178139Y322145D01*
X1178092Y321595D01*
X1178031Y321046D01*
X1177956Y320499D01*
X1177869Y319953D01*
X1177768Y319410D01*
X1177653Y318870D01*
X1177526Y318333D01*
X1177385Y317799D01*
X1177231Y317269D01*
X1177064Y316742D01*
X1176885Y316220D01*
X1176692Y315702D01*
X1176487Y315190D01*
X1176270Y314682D01*
X1176040Y314180D01*
X1175798Y313684D01*
X1175543Y313194D01*
X1175277Y312710D01*
X1174999Y312233D01*
X1174709Y311763D01*
X1174408Y311300D01*
X1174096Y310844D01*
X1173772Y310397D01*
X1173438Y309957D01*
X1173093Y309526D01*
X1172737Y309104D01*
X1172371Y308690D01*
X1171996Y308285D01*
X1171610Y307890D01*
X1171215Y307504D01*
X1170810Y307129D01*
X1170396Y306763D01*
X1169974Y306407D01*
X1169543Y306062D01*
X1169103Y305728D01*
X1168656Y305404D01*
X1168200Y305092D01*
X1167737Y304791D01*
X1167267Y304501D01*
X1166790Y304223D01*
X1166306Y303957D01*
X1165816Y303702D01*
X1165320Y303460D01*
X1164818Y303230D01*
X1164310Y303013D01*
X1163798Y302808D01*
X1163280Y302615D01*
X1162758Y302436D01*
X1162231Y302269D01*
X1161701Y302115D01*
X1161167Y301974D01*
X1160630Y301847D01*
X1160090Y301732D01*
X1159547Y301631D01*
X1159001Y301544D01*
X1158454Y301469D01*
X1157905Y301408D01*
X1157355Y301361D01*
X1156804Y301327D01*
X1156252Y301307D01*
X1155700Y301300D01*
X1155148Y301307D01*
X1154596Y301327D01*
X1154045Y301361D01*
X1153495Y301408D01*
X1152946Y301469D01*
X1152399Y301544D01*
X1151853Y301631D01*
X1151310Y301732D01*
X1150770Y301847D01*
X1150233Y301974D01*
X1149699Y302115D01*
X1149169Y302269D01*
X1148642Y302436D01*
X1148120Y302615D01*
X1147602Y302808D01*
X1147090Y303013D01*
X1146582Y303230D01*
X1146080Y303460D01*
X1145584Y303702D01*
X1145094Y303957D01*
X1144610Y304223D01*
X1144133Y304501D01*
X1143663Y304791D01*
X1143200Y305092D01*
X1142744Y305404D01*
X1142297Y305728D01*
X1141857Y306062D01*
X1141426Y306407D01*
X1141004Y306763D01*
X1140590Y307129D01*
X1140185Y307504D01*
X1139790Y307890D01*
X1139404Y308285D01*
X1139029Y308690D01*
X1138663Y309104D01*
X1138307Y309526D01*
X1137962Y309957D01*
X1137628Y310397D01*
X1137304Y310844D01*
X1136992Y311300D01*
X1136691Y311763D01*
X1136401Y312233D01*
X1136123Y312710D01*
X1135857Y313194D01*
X1135602Y313684D01*
X1135360Y314180D01*
X1135130Y314682D01*
X1134913Y315190D01*
X1134708Y315702D01*
X1134515Y316220D01*
X1134336Y316742D01*
X1134169Y317269D01*
X1134015Y317799D01*
X1133874Y318333D01*
X1133747Y318870D01*
X1133632Y319410D01*
X1133531Y319953D01*
X1133444Y320499D01*
X1133369Y321046D01*
X1133308Y321595D01*
X1133261Y322145D01*
X1133227Y322696D01*
X1133207Y323248D01*
X1133200Y323800D01*
X1133200Y793800D02*
X1133207Y794352D01*
X1133227Y794904D01*
X1133261Y795455D01*
X1133308Y796005D01*
X1133369Y796554D01*
X1133444Y797101D01*
X1133531Y797647D01*
X1133632Y798190D01*
X1133747Y798730D01*
X1133874Y799267D01*
X1134015Y799801D01*
X1134169Y800331D01*
X1134336Y800858D01*
X1134515Y801380D01*
X1134708Y801898D01*
X1134913Y802410D01*
X1135130Y802918D01*
X1135360Y803420D01*
X1135602Y803916D01*
X1135857Y804406D01*
X1136123Y804890D01*
X1136401Y805367D01*
X1136691Y805837D01*
X1136992Y806300D01*
X1137304Y806756D01*
X1137628Y807203D01*
X1137962Y807643D01*
X1138307Y808074D01*
X1138663Y808496D01*
X1139029Y808910D01*
X1139404Y809315D01*
X1139790Y809710D01*
X1140185Y810096D01*
X1140590Y810471D01*
X1141004Y810837D01*
X1141426Y811193D01*
X1141857Y811538D01*
X1142297Y811872D01*
X1142744Y812196D01*
X1143200Y812508D01*
X1143663Y812809D01*
X1144133Y813099D01*
X1144610Y813377D01*
X1145094Y813643D01*
X1145584Y813898D01*
X1146080Y814140D01*
X1146582Y814370D01*
X1147090Y814587D01*
X1147602Y814792D01*
X1148120Y814985D01*
X1148642Y815164D01*
X1149169Y815331D01*
X1149699Y815485D01*
X1150233Y815626D01*
X1150770Y815753D01*
X1151310Y815868D01*
X1151853Y815969D01*
X1152399Y816056D01*
X1152946Y816131D01*
X1153495Y816192D01*
X1154045Y816239D01*
X1154596Y816273D01*
X1155148Y816293D01*
X1155700Y816300D01*
X1156252Y816293D01*
X1156804Y816273D01*
X1157355Y816239D01*
X1157905Y816192D01*
X1158454Y816131D01*
X1159001Y816056D01*
X1159547Y815969D01*
X1160090Y815868D01*
X1160630Y815753D01*
X1161167Y815626D01*
X1161701Y815485D01*
X1162231Y815331D01*
X1162758Y815164D01*
X1163280Y814985D01*
X1163798Y814792D01*
X1164310Y814587D01*
X1164818Y814370D01*
X1165320Y814140D01*
X1165816Y813898D01*
X1166306Y813643D01*
X1166790Y813377D01*
X1167267Y813099D01*
X1167737Y812809D01*
X1168200Y812508D01*
X1168656Y812196D01*
X1169103Y811872D01*
X1169543Y811538D01*
X1169974Y811193D01*
X1170396Y810837D01*
X1170810Y810471D01*
X1171215Y810096D01*
X1171610Y809710D01*
X1171996Y809315D01*
X1172371Y808910D01*
X1172737Y808496D01*
X1173093Y808074D01*
X1173438Y807643D01*
X1173772Y807203D01*
X1174096Y806756D01*
X1174408Y806300D01*
X1174709Y805837D01*
X1174999Y805367D01*
X1175277Y804890D01*
X1175543Y804406D01*
X1175798Y803916D01*
X1176040Y803420D01*
X1176270Y802918D01*
X1176487Y802410D01*
X1176692Y801898D01*
X1176885Y801380D01*
X1177064Y800858D01*
X1177231Y800331D01*
X1177385Y799801D01*
X1177526Y799267D01*
X1177653Y798730D01*
X1177768Y798190D01*
X1177869Y797647D01*
X1177956Y797101D01*
X1178031Y796554D01*
X1178092Y796005D01*
X1178139Y795455D01*
X1178173Y794904D01*
X1178193Y794352D01*
X1178200Y793800D01*
X1178193Y793248D01*
X1178173Y792696D01*
X1178139Y792145D01*
X1178092Y791595D01*
X1178031Y791046D01*
X1177956Y790499D01*
X1177869Y789953D01*
X1177768Y789410D01*
X1177653Y788870D01*
X1177526Y788333D01*
X1177385Y787799D01*
X1177231Y787269D01*
X1177064Y786742D01*
X1176885Y786220D01*
X1176692Y785702D01*
X1176487Y785190D01*
X1176270Y784682D01*
X1176040Y784180D01*
X1175798Y783684D01*
X1175543Y783194D01*
X1175277Y782710D01*
X1174999Y782233D01*
X1174709Y781763D01*
X1174408Y781300D01*
X1174096Y780844D01*
X1173772Y780397D01*
X1173438Y779957D01*
X1173093Y779526D01*
X1172737Y779104D01*
X1172371Y778690D01*
X1171996Y778285D01*
X1171610Y777890D01*
X1171215Y777504D01*
X1170810Y777129D01*
X1170396Y776763D01*
X1169974Y776407D01*
X1169543Y776062D01*
X1169103Y775728D01*
X1168656Y775404D01*
X1168200Y775092D01*
X1167737Y774791D01*
X1167267Y774501D01*
X1166790Y774223D01*
X1166306Y773957D01*
X1165816Y773702D01*
X1165320Y773460D01*
X1164818Y773230D01*
X1164310Y773013D01*
X1163798Y772808D01*
X1163280Y772615D01*
X1162758Y772436D01*
X1162231Y772269D01*
X1161701Y772115D01*
X1161167Y771974D01*
X1160630Y771847D01*
X1160090Y771732D01*
X1159547Y771631D01*
X1159001Y771544D01*
X1158454Y771469D01*
X1157905Y771408D01*
X1157355Y771361D01*
X1156804Y771327D01*
X1156252Y771307D01*
X1155700Y771300D01*
X1155148Y771307D01*
X1154596Y771327D01*
X1154045Y771361D01*
X1153495Y771408D01*
X1152946Y771469D01*
X1152399Y771544D01*
X1151853Y771631D01*
X1151310Y771732D01*
X1150770Y771847D01*
X1150233Y771974D01*
X1149699Y772115D01*
X1149169Y772269D01*
X1148642Y772436D01*
X1148120Y772615D01*
X1147602Y772808D01*
X1147090Y773013D01*
X1146582Y773230D01*
X1146080Y773460D01*
X1145584Y773702D01*
X1145094Y773957D01*
X1144610Y774223D01*
X1144133Y774501D01*
X1143663Y774791D01*
X1143200Y775092D01*
X1142744Y775404D01*
X1142297Y775728D01*
X1141857Y776062D01*
X1141426Y776407D01*
X1141004Y776763D01*
X1140590Y777129D01*
X1140185Y777504D01*
X1139790Y777890D01*
X1139404Y778285D01*
X1139029Y778690D01*
X1138663Y779104D01*
X1138307Y779526D01*
X1137962Y779957D01*
X1137628Y780397D01*
X1137304Y780844D01*
X1136992Y781300D01*
X1136691Y781763D01*
X1136401Y782233D01*
X1136123Y782710D01*
X1135857Y783194D01*
X1135602Y783684D01*
X1135360Y784180D01*
X1135130Y784682D01*
X1134913Y785190D01*
X1134708Y785702D01*
X1134515Y786220D01*
X1134336Y786742D01*
X1134169Y787269D01*
X1134015Y787799D01*
X1133874Y788333D01*
X1133747Y788870D01*
X1133632Y789410D01*
X1133531Y789953D01*
X1133444Y790499D01*
X1133369Y791046D01*
X1133308Y791595D01*
X1133261Y792145D01*
X1133227Y792696D01*
X1133207Y793248D01*
X1133200Y793800D01*
X1590400Y323800D02*
X1590407Y324352D01*
X1590427Y324904D01*
X1590461Y325455D01*
X1590508Y326005D01*
X1590569Y326554D01*
X1590644Y327101D01*
X1590731Y327647D01*
X1590832Y328190D01*
X1590947Y328730D01*
X1591074Y329267D01*
X1591215Y329801D01*
X1591369Y330331D01*
X1591536Y330858D01*
X1591715Y331380D01*
X1591908Y331898D01*
X1592113Y332410D01*
X1592330Y332918D01*
X1592560Y333420D01*
X1592802Y333916D01*
X1593057Y334406D01*
X1593323Y334890D01*
X1593601Y335367D01*
X1593891Y335837D01*
X1594192Y336300D01*
X1594504Y336756D01*
X1594828Y337203D01*
X1595162Y337643D01*
X1595507Y338074D01*
X1595863Y338496D01*
X1596229Y338910D01*
X1596604Y339315D01*
X1596990Y339710D01*
X1597385Y340096D01*
X1597790Y340471D01*
X1598204Y340837D01*
X1598626Y341193D01*
X1599057Y341538D01*
X1599497Y341872D01*
X1599944Y342196D01*
X1600400Y342508D01*
X1600863Y342809D01*
X1601333Y343099D01*
X1601810Y343377D01*
X1602294Y343643D01*
X1602784Y343898D01*
X1603280Y344140D01*
X1603782Y344370D01*
X1604290Y344587D01*
X1604802Y344792D01*
X1605320Y344985D01*
X1605842Y345164D01*
X1606369Y345331D01*
X1606899Y345485D01*
X1607433Y345626D01*
X1607970Y345753D01*
X1608510Y345868D01*
X1609053Y345969D01*
X1609599Y346056D01*
X1610146Y346131D01*
X1610695Y346192D01*
X1611245Y346239D01*
X1611796Y346273D01*
X1612348Y346293D01*
X1612900Y346300D01*
X1613452Y346293D01*
X1614004Y346273D01*
X1614555Y346239D01*
X1615105Y346192D01*
X1615654Y346131D01*
X1616201Y346056D01*
X1616747Y345969D01*
X1617290Y345868D01*
X1617830Y345753D01*
X1618367Y345626D01*
X1618901Y345485D01*
X1619431Y345331D01*
X1619958Y345164D01*
X1620480Y344985D01*
X1620998Y344792D01*
X1621510Y344587D01*
X1622018Y344370D01*
X1622520Y344140D01*
X1623016Y343898D01*
X1623506Y343643D01*
X1623990Y343377D01*
X1624467Y343099D01*
X1624937Y342809D01*
X1625400Y342508D01*
X1625856Y342196D01*
X1626303Y341872D01*
X1626743Y341538D01*
X1627174Y341193D01*
X1627596Y340837D01*
X1628010Y340471D01*
X1628415Y340096D01*
X1628810Y339710D01*
X1629196Y339315D01*
X1629571Y338910D01*
X1629937Y338496D01*
X1630293Y338074D01*
X1630638Y337643D01*
X1630972Y337203D01*
X1631296Y336756D01*
X1631608Y336300D01*
X1631909Y335837D01*
X1632199Y335367D01*
X1632477Y334890D01*
X1632743Y334406D01*
X1632998Y333916D01*
X1633240Y333420D01*
X1633470Y332918D01*
X1633687Y332410D01*
X1633892Y331898D01*
X1634085Y331380D01*
X1634264Y330858D01*
X1634431Y330331D01*
X1634585Y329801D01*
X1634726Y329267D01*
X1634853Y328730D01*
X1634968Y328190D01*
X1635069Y327647D01*
X1635156Y327101D01*
X1635231Y326554D01*
X1635292Y326005D01*
X1635339Y325455D01*
X1635373Y324904D01*
X1635393Y324352D01*
X1635400Y323800D01*
X1635393Y323248D01*
X1635373Y322696D01*
X1635339Y322145D01*
X1635292Y321595D01*
X1635231Y321046D01*
X1635156Y320499D01*
X1635069Y319953D01*
X1634968Y319410D01*
X1634853Y318870D01*
X1634726Y318333D01*
X1634585Y317799D01*
X1634431Y317269D01*
X1634264Y316742D01*
X1634085Y316220D01*
X1633892Y315702D01*
X1633687Y315190D01*
X1633470Y314682D01*
X1633240Y314180D01*
X1632998Y313684D01*
X1632743Y313194D01*
X1632477Y312710D01*
X1632199Y312233D01*
X1631909Y311763D01*
X1631608Y311300D01*
X1631296Y310844D01*
X1630972Y310397D01*
X1630638Y309957D01*
X1630293Y309526D01*
X1629937Y309104D01*
X1629571Y308690D01*
X1629196Y308285D01*
X1628810Y307890D01*
X1628415Y307504D01*
X1628010Y307129D01*
X1627596Y306763D01*
X1627174Y306407D01*
X1626743Y306062D01*
X1626303Y305728D01*
X1625856Y305404D01*
X1625400Y305092D01*
X1624937Y304791D01*
X1624467Y304501D01*
X1623990Y304223D01*
X1623506Y303957D01*
X1623016Y303702D01*
X1622520Y303460D01*
X1622018Y303230D01*
X1621510Y303013D01*
X1620998Y302808D01*
X1620480Y302615D01*
X1619958Y302436D01*
X1619431Y302269D01*
X1618901Y302115D01*
X1618367Y301974D01*
X1617830Y301847D01*
X1617290Y301732D01*
X1616747Y301631D01*
X1616201Y301544D01*
X1615654Y301469D01*
X1615105Y301408D01*
X1614555Y301361D01*
X1614004Y301327D01*
X1613452Y301307D01*
X1612900Y301300D01*
X1612348Y301307D01*
X1611796Y301327D01*
X1611245Y301361D01*
X1610695Y301408D01*
X1610146Y301469D01*
X1609599Y301544D01*
X1609053Y301631D01*
X1608510Y301732D01*
X1607970Y301847D01*
X1607433Y301974D01*
X1606899Y302115D01*
X1606369Y302269D01*
X1605842Y302436D01*
X1605320Y302615D01*
X1604802Y302808D01*
X1604290Y303013D01*
X1603782Y303230D01*
X1603280Y303460D01*
X1602784Y303702D01*
X1602294Y303957D01*
X1601810Y304223D01*
X1601333Y304501D01*
X1600863Y304791D01*
X1600400Y305092D01*
X1599944Y305404D01*
X1599497Y305728D01*
X1599057Y306062D01*
X1598626Y306407D01*
X1598204Y306763D01*
X1597790Y307129D01*
X1597385Y307504D01*
X1596990Y307890D01*
X1596604Y308285D01*
X1596229Y308690D01*
X1595863Y309104D01*
X1595507Y309526D01*
X1595162Y309957D01*
X1594828Y310397D01*
X1594504Y310844D01*
X1594192Y311300D01*
X1593891Y311763D01*
X1593601Y312233D01*
X1593323Y312710D01*
X1593057Y313194D01*
X1592802Y313684D01*
X1592560Y314180D01*
X1592330Y314682D01*
X1592113Y315190D01*
X1591908Y315702D01*
X1591715Y316220D01*
X1591536Y316742D01*
X1591369Y317269D01*
X1591215Y317799D01*
X1591074Y318333D01*
X1590947Y318870D01*
X1590832Y319410D01*
X1590731Y319953D01*
X1590644Y320499D01*
X1590569Y321046D01*
X1590508Y321595D01*
X1590461Y322145D01*
X1590427Y322696D01*
X1590407Y323248D01*
X1590400Y323800D01*
X1590400Y793800D02*
X1590407Y794352D01*
X1590427Y794904D01*
X1590461Y795455D01*
X1590508Y796005D01*
X1590569Y796554D01*
X1590644Y797101D01*
X1590731Y797647D01*
X1590832Y798190D01*
X1590947Y798730D01*
X1591074Y799267D01*
X1591215Y799801D01*
X1591369Y800331D01*
X1591536Y800858D01*
X1591715Y801380D01*
X1591908Y801898D01*
X1592113Y802410D01*
X1592330Y802918D01*
X1592560Y803420D01*
X1592802Y803916D01*
X1593057Y804406D01*
X1593323Y804890D01*
X1593601Y805367D01*
X1593891Y805837D01*
X1594192Y806300D01*
X1594504Y806756D01*
X1594828Y807203D01*
X1595162Y807643D01*
X1595507Y808074D01*
X1595863Y808496D01*
X1596229Y808910D01*
X1596604Y809315D01*
X1596990Y809710D01*
X1597385Y810096D01*
X1597790Y810471D01*
X1598204Y810837D01*
X1598626Y811193D01*
X1599057Y811538D01*
X1599497Y811872D01*
X1599944Y812196D01*
X1600400Y812508D01*
X1600863Y812809D01*
X1601333Y813099D01*
X1601810Y813377D01*
X1602294Y813643D01*
X1602784Y813898D01*
X1603280Y814140D01*
X1603782Y814370D01*
X1604290Y814587D01*
X1604802Y814792D01*
X1605320Y814985D01*
X1605842Y815164D01*
X1606369Y815331D01*
X1606899Y815485D01*
X1607433Y815626D01*
X1607970Y815753D01*
X1608510Y815868D01*
X1609053Y815969D01*
X1609599Y816056D01*
X1610146Y816131D01*
X1610695Y816192D01*
X1611245Y816239D01*
X1611796Y816273D01*
X1612348Y816293D01*
X1612900Y816300D01*
X1613452Y816293D01*
X1614004Y816273D01*
X1614555Y816239D01*
X1615105Y816192D01*
X1615654Y816131D01*
X1616201Y816056D01*
X1616747Y815969D01*
X1617290Y815868D01*
X1617830Y815753D01*
X1618367Y815626D01*
X1618901Y815485D01*
X1619431Y815331D01*
X1619958Y815164D01*
X1620480Y814985D01*
X1620998Y814792D01*
X1621510Y814587D01*
X1622018Y814370D01*
X1622520Y814140D01*
X1623016Y813898D01*
X1623506Y813643D01*
X1623990Y813377D01*
X1624467Y813099D01*
X1624937Y812809D01*
X1625400Y812508D01*
X1625856Y812196D01*
X1626303Y811872D01*
X1626743Y811538D01*
X1627174Y811193D01*
X1627596Y810837D01*
X1628010Y810471D01*
X1628415Y810096D01*
X1628810Y809710D01*
X1629196Y809315D01*
X1629571Y808910D01*
X1629937Y808496D01*
X1630293Y808074D01*
X1630638Y807643D01*
X1630972Y807203D01*
X1631296Y806756D01*
X1631608Y806300D01*
X1631909Y805837D01*
X1632199Y805367D01*
X1632477Y804890D01*
X1632743Y804406D01*
X1632998Y803916D01*
X1633240Y803420D01*
X1633470Y802918D01*
X1633687Y802410D01*
X1633892Y801898D01*
X1634085Y801380D01*
X1634264Y800858D01*
X1634431Y800331D01*
X1634585Y799801D01*
X1634726Y799267D01*
X1634853Y798730D01*
X1634968Y798190D01*
X1635069Y797647D01*
X1635156Y797101D01*
X1635231Y796554D01*
X1635292Y796005D01*
X1635339Y795455D01*
X1635373Y794904D01*
X1635393Y794352D01*
X1635400Y793800D01*
X1635393Y793248D01*
X1635373Y792696D01*
X1635339Y792145D01*
X1635292Y791595D01*
X1635231Y791046D01*
X1635156Y790499D01*
X1635069Y789953D01*
X1634968Y789410D01*
X1634853Y788870D01*
X1634726Y788333D01*
X1634585Y787799D01*
X1634431Y787269D01*
X1634264Y786742D01*
X1634085Y786220D01*
X1633892Y785702D01*
X1633687Y785190D01*
X1633470Y784682D01*
X1633240Y784180D01*
X1632998Y783684D01*
X1632743Y783194D01*
X1632477Y782710D01*
X1632199Y782233D01*
X1631909Y781763D01*
X1631608Y781300D01*
X1631296Y780844D01*
X1630972Y780397D01*
X1630638Y779957D01*
X1630293Y779526D01*
X1629937Y779104D01*
X1629571Y778690D01*
X1629196Y778285D01*
X1628810Y777890D01*
X1628415Y777504D01*
X1628010Y777129D01*
X1627596Y776763D01*
X1627174Y776407D01*
X1626743Y776062D01*
X1626303Y775728D01*
X1625856Y775404D01*
X1625400Y775092D01*
X1624937Y774791D01*
X1624467Y774501D01*
X1623990Y774223D01*
X1623506Y773957D01*
X1623016Y773702D01*
X1622520Y773460D01*
X1622018Y773230D01*
X1621510Y773013D01*
X1620998Y772808D01*
X1620480Y772615D01*
X1619958Y772436D01*
X1619431Y772269D01*
X1618901Y772115D01*
X1618367Y771974D01*
X1617830Y771847D01*
X1617290Y771732D01*
X1616747Y771631D01*
X1616201Y771544D01*
X1615654Y771469D01*
X1615105Y771408D01*
X1614555Y771361D01*
X1614004Y771327D01*
X1613452Y771307D01*
X1612900Y771300D01*
X1612348Y771307D01*
X1611796Y771327D01*
X1611245Y771361D01*
X1610695Y771408D01*
X1610146Y771469D01*
X1609599Y771544D01*
X1609053Y771631D01*
X1608510Y771732D01*
X1607970Y771847D01*
X1607433Y771974D01*
X1606899Y772115D01*
X1606369Y772269D01*
X1605842Y772436D01*
X1605320Y772615D01*
X1604802Y772808D01*
X1604290Y773013D01*
X1603782Y773230D01*
X1603280Y773460D01*
X1602784Y773702D01*
X1602294Y773957D01*
X1601810Y774223D01*
X1601333Y774501D01*
X1600863Y774791D01*
X1600400Y775092D01*
X1599944Y775404D01*
X1599497Y775728D01*
X1599057Y776062D01*
X1598626Y776407D01*
X1598204Y776763D01*
X1597790Y777129D01*
X1597385Y777504D01*
X1596990Y777890D01*
X1596604Y778285D01*
X1596229Y778690D01*
X1595863Y779104D01*
X1595507Y779526D01*
X1595162Y779957D01*
X1594828Y780397D01*
X1594504Y780844D01*
X1594192Y781300D01*
X1593891Y781763D01*
X1593601Y782233D01*
X1593323Y782710D01*
X1593057Y783194D01*
X1592802Y783684D01*
X1592560Y784180D01*
X1592330Y784682D01*
X1592113Y785190D01*
X1591908Y785702D01*
X1591715Y786220D01*
X1591536Y786742D01*
X1591369Y787269D01*
X1591215Y787799D01*
X1591074Y788333D01*
X1590947Y788870D01*
X1590832Y789410D01*
X1590731Y789953D01*
X1590644Y790499D01*
X1590569Y791046D01*
X1590508Y791595D01*
X1590461Y792145D01*
X1590427Y792696D01*
X1590407Y793248D01*
X1590400Y793800D01*
X676000Y323800D02*
X676007Y324352D01*
X676027Y324904D01*
X676061Y325455D01*
X676108Y326005D01*
X676169Y326554D01*
X676244Y327101D01*
X676331Y327647D01*
X676432Y328190D01*
X676547Y328730D01*
X676674Y329267D01*
X676815Y329801D01*
X676969Y330331D01*
X677136Y330858D01*
X677315Y331380D01*
X677508Y331898D01*
X677713Y332410D01*
X677930Y332918D01*
X678160Y333420D01*
X678402Y333916D01*
X678657Y334406D01*
X678923Y334890D01*
X679201Y335367D01*
X679491Y335837D01*
X679792Y336300D01*
X680104Y336756D01*
X680428Y337203D01*
X680762Y337643D01*
X681107Y338074D01*
X681463Y338496D01*
X681829Y338910D01*
X682204Y339315D01*
X682590Y339710D01*
X682985Y340096D01*
X683390Y340471D01*
X683804Y340837D01*
X684226Y341193D01*
X684657Y341538D01*
X685097Y341872D01*
X685544Y342196D01*
X686000Y342508D01*
X686463Y342809D01*
X686933Y343099D01*
X687410Y343377D01*
X687894Y343643D01*
X688384Y343898D01*
X688880Y344140D01*
X689382Y344370D01*
X689890Y344587D01*
X690402Y344792D01*
X690920Y344985D01*
X691442Y345164D01*
X691969Y345331D01*
X692499Y345485D01*
X693033Y345626D01*
X693570Y345753D01*
X694110Y345868D01*
X694653Y345969D01*
X695199Y346056D01*
X695746Y346131D01*
X696295Y346192D01*
X696845Y346239D01*
X697396Y346273D01*
X697948Y346293D01*
X698500Y346300D01*
X699052Y346293D01*
X699604Y346273D01*
X700155Y346239D01*
X700705Y346192D01*
X701254Y346131D01*
X701801Y346056D01*
X702347Y345969D01*
X702890Y345868D01*
X703430Y345753D01*
X703967Y345626D01*
X704501Y345485D01*
X705031Y345331D01*
X705558Y345164D01*
X706080Y344985D01*
X706598Y344792D01*
X707110Y344587D01*
X707618Y344370D01*
X708120Y344140D01*
X708616Y343898D01*
X709106Y343643D01*
X709590Y343377D01*
X710067Y343099D01*
X710537Y342809D01*
X711000Y342508D01*
X711456Y342196D01*
X711903Y341872D01*
X712343Y341538D01*
X712774Y341193D01*
X713196Y340837D01*
X713610Y340471D01*
X714015Y340096D01*
X714410Y339710D01*
X714796Y339315D01*
X715171Y338910D01*
X715537Y338496D01*
X715893Y338074D01*
X716238Y337643D01*
X716572Y337203D01*
X716896Y336756D01*
X717208Y336300D01*
X717509Y335837D01*
X717799Y335367D01*
X718077Y334890D01*
X718343Y334406D01*
X718598Y333916D01*
X718840Y333420D01*
X719070Y332918D01*
X719287Y332410D01*
X719492Y331898D01*
X719685Y331380D01*
X719864Y330858D01*
X720031Y330331D01*
X720185Y329801D01*
X720326Y329267D01*
X720453Y328730D01*
X720568Y328190D01*
X720669Y327647D01*
X720756Y327101D01*
X720831Y326554D01*
X720892Y326005D01*
X720939Y325455D01*
X720973Y324904D01*
X720993Y324352D01*
X721000Y323800D01*
X720993Y323248D01*
X720973Y322696D01*
X720939Y322145D01*
X720892Y321595D01*
X720831Y321046D01*
X720756Y320499D01*
X720669Y319953D01*
X720568Y319410D01*
X720453Y318870D01*
X720326Y318333D01*
X720185Y317799D01*
X720031Y317269D01*
X719864Y316742D01*
X719685Y316220D01*
X719492Y315702D01*
X719287Y315190D01*
X719070Y314682D01*
X718840Y314180D01*
X718598Y313684D01*
X718343Y313194D01*
X718077Y312710D01*
X717799Y312233D01*
X717509Y311763D01*
X717208Y311300D01*
X716896Y310844D01*
X716572Y310397D01*
X716238Y309957D01*
X715893Y309526D01*
X715537Y309104D01*
X715171Y308690D01*
X714796Y308285D01*
X714410Y307890D01*
X714015Y307504D01*
X713610Y307129D01*
X713196Y306763D01*
X712774Y306407D01*
X712343Y306062D01*
X711903Y305728D01*
X711456Y305404D01*
X711000Y305092D01*
X710537Y304791D01*
X710067Y304501D01*
X709590Y304223D01*
X709106Y303957D01*
X708616Y303702D01*
X708120Y303460D01*
X707618Y303230D01*
X707110Y303013D01*
X706598Y302808D01*
X706080Y302615D01*
X705558Y302436D01*
X705031Y302269D01*
X704501Y302115D01*
X703967Y301974D01*
X703430Y301847D01*
X702890Y301732D01*
X702347Y301631D01*
X701801Y301544D01*
X701254Y301469D01*
X700705Y301408D01*
X700155Y301361D01*
X699604Y301327D01*
X699052Y301307D01*
X698500Y301300D01*
X697948Y301307D01*
X697396Y301327D01*
X696845Y301361D01*
X696295Y301408D01*
X695746Y301469D01*
X695199Y301544D01*
X694653Y301631D01*
X694110Y301732D01*
X693570Y301847D01*
X693033Y301974D01*
X692499Y302115D01*
X691969Y302269D01*
X691442Y302436D01*
X690920Y302615D01*
X690402Y302808D01*
X689890Y303013D01*
X689382Y303230D01*
X688880Y303460D01*
X688384Y303702D01*
X687894Y303957D01*
X687410Y304223D01*
X686933Y304501D01*
X686463Y304791D01*
X686000Y305092D01*
X685544Y305404D01*
X685097Y305728D01*
X684657Y306062D01*
X684226Y306407D01*
X683804Y306763D01*
X683390Y307129D01*
X682985Y307504D01*
X682590Y307890D01*
X682204Y308285D01*
X681829Y308690D01*
X681463Y309104D01*
X681107Y309526D01*
X680762Y309957D01*
X680428Y310397D01*
X680104Y310844D01*
X679792Y311300D01*
X679491Y311763D01*
X679201Y312233D01*
X678923Y312710D01*
X678657Y313194D01*
X678402Y313684D01*
X678160Y314180D01*
X677930Y314682D01*
X677713Y315190D01*
X677508Y315702D01*
X677315Y316220D01*
X677136Y316742D01*
X676969Y317269D01*
X676815Y317799D01*
X676674Y318333D01*
X676547Y318870D01*
X676432Y319410D01*
X676331Y319953D01*
X676244Y320499D01*
X676169Y321046D01*
X676108Y321595D01*
X676061Y322145D01*
X676027Y322696D01*
X676007Y323248D01*
X676000Y323800D01*
X676000Y793800D02*
X676007Y794352D01*
X676027Y794904D01*
X676061Y795455D01*
X676108Y796005D01*
X676169Y796554D01*
X676244Y797101D01*
X676331Y797647D01*
X676432Y798190D01*
X676547Y798730D01*
X676674Y799267D01*
X676815Y799801D01*
X676969Y800331D01*
X677136Y800858D01*
X677315Y801380D01*
X677508Y801898D01*
X677713Y802410D01*
X677930Y802918D01*
X678160Y803420D01*
X678402Y803916D01*
X678657Y804406D01*
X678923Y804890D01*
X679201Y805367D01*
X679491Y805837D01*
X679792Y806300D01*
X680104Y806756D01*
X680428Y807203D01*
X680762Y807643D01*
X681107Y808074D01*
X681463Y808496D01*
X681829Y808910D01*
X682204Y809315D01*
X682590Y809710D01*
X682985Y810096D01*
X683390Y810471D01*
X683804Y810837D01*
X684226Y811193D01*
X684657Y811538D01*
X685097Y811872D01*
X685544Y812196D01*
X686000Y812508D01*
X686463Y812809D01*
X686933Y813099D01*
X687410Y813377D01*
X687894Y813643D01*
X688384Y813898D01*
X688880Y814140D01*
X689382Y814370D01*
X689890Y814587D01*
X690402Y814792D01*
X690920Y814985D01*
X691442Y815164D01*
X691969Y815331D01*
X692499Y815485D01*
X693033Y815626D01*
X693570Y815753D01*
X694110Y815868D01*
X694653Y815969D01*
X695199Y816056D01*
X695746Y816131D01*
X696295Y816192D01*
X696845Y816239D01*
X697396Y816273D01*
X697948Y816293D01*
X698500Y816300D01*
X699052Y816293D01*
X699604Y816273D01*
X700155Y816239D01*
X700705Y816192D01*
X701254Y816131D01*
X701801Y816056D01*
X702347Y815969D01*
X702890Y815868D01*
X703430Y815753D01*
X703967Y815626D01*
X704501Y815485D01*
X705031Y815331D01*
X705558Y815164D01*
X706080Y814985D01*
X706598Y814792D01*
X707110Y814587D01*
X707618Y814370D01*
X708120Y814140D01*
X708616Y813898D01*
X709106Y813643D01*
X709590Y813377D01*
X710067Y813099D01*
X710537Y812809D01*
X711000Y812508D01*
X711456Y812196D01*
X711903Y811872D01*
X712343Y811538D01*
X712774Y811193D01*
X713196Y810837D01*
X713610Y810471D01*
X714015Y810096D01*
X714410Y809710D01*
X714796Y809315D01*
X715171Y808910D01*
X715537Y808496D01*
X715893Y808074D01*
X716238Y807643D01*
X716572Y807203D01*
X716896Y806756D01*
X717208Y806300D01*
X717509Y805837D01*
X717799Y805367D01*
X718077Y804890D01*
X718343Y804406D01*
X718598Y803916D01*
X718840Y803420D01*
X719070Y802918D01*
X719287Y802410D01*
X719492Y801898D01*
X719685Y801380D01*
X719864Y800858D01*
X720031Y800331D01*
X720185Y799801D01*
X720326Y799267D01*
X720453Y798730D01*
X720568Y798190D01*
X720669Y797647D01*
X720756Y797101D01*
X720831Y796554D01*
X720892Y796005D01*
X720939Y795455D01*
X720973Y794904D01*
X720993Y794352D01*
X721000Y793800D01*
X720993Y793248D01*
X720973Y792696D01*
X720939Y792145D01*
X720892Y791595D01*
X720831Y791046D01*
X720756Y790499D01*
X720669Y789953D01*
X720568Y789410D01*
X720453Y788870D01*
X720326Y788333D01*
X720185Y787799D01*
X720031Y787269D01*
X719864Y786742D01*
X719685Y786220D01*
X719492Y785702D01*
X719287Y785190D01*
X719070Y784682D01*
X718840Y784180D01*
X718598Y783684D01*
X718343Y783194D01*
X718077Y782710D01*
X717799Y782233D01*
X717509Y781763D01*
X717208Y781300D01*
X716896Y780844D01*
X716572Y780397D01*
X716238Y779957D01*
X715893Y779526D01*
X715537Y779104D01*
X715171Y778690D01*
X714796Y778285D01*
X714410Y777890D01*
X714015Y777504D01*
X713610Y777129D01*
X713196Y776763D01*
X712774Y776407D01*
X712343Y776062D01*
X711903Y775728D01*
X711456Y775404D01*
X711000Y775092D01*
X710537Y774791D01*
X710067Y774501D01*
X709590Y774223D01*
X709106Y773957D01*
X708616Y773702D01*
X708120Y773460D01*
X707618Y773230D01*
X707110Y773013D01*
X706598Y772808D01*
X706080Y772615D01*
X705558Y772436D01*
X705031Y772269D01*
X704501Y772115D01*
X703967Y771974D01*
X703430Y771847D01*
X702890Y771732D01*
X702347Y771631D01*
X701801Y771544D01*
X701254Y771469D01*
X700705Y771408D01*
X700155Y771361D01*
X699604Y771327D01*
X699052Y771307D01*
X698500Y771300D01*
X697948Y771307D01*
X697396Y771327D01*
X696845Y771361D01*
X696295Y771408D01*
X695746Y771469D01*
X695199Y771544D01*
X694653Y771631D01*
X694110Y771732D01*
X693570Y771847D01*
X693033Y771974D01*
X692499Y772115D01*
X691969Y772269D01*
X691442Y772436D01*
X690920Y772615D01*
X690402Y772808D01*
X689890Y773013D01*
X689382Y773230D01*
X688880Y773460D01*
X688384Y773702D01*
X687894Y773957D01*
X687410Y774223D01*
X686933Y774501D01*
X686463Y774791D01*
X686000Y775092D01*
X685544Y775404D01*
X685097Y775728D01*
X684657Y776062D01*
X684226Y776407D01*
X683804Y776763D01*
X683390Y777129D01*
X682985Y777504D01*
X682590Y777890D01*
X682204Y778285D01*
X681829Y778690D01*
X681463Y779104D01*
X681107Y779526D01*
X680762Y779957D01*
X680428Y780397D01*
X680104Y780844D01*
X679792Y781300D01*
X679491Y781763D01*
X679201Y782233D01*
X678923Y782710D01*
X678657Y783194D01*
X678402Y783684D01*
X678160Y784180D01*
X677930Y784682D01*
X677713Y785190D01*
X677508Y785702D01*
X677315Y786220D01*
X677136Y786742D01*
X676969Y787269D01*
X676815Y787799D01*
X676674Y788333D01*
X676547Y788870D01*
X676432Y789410D01*
X676331Y789953D01*
X676244Y790499D01*
X676169Y791046D01*
X676108Y791595D01*
X676061Y792145D01*
X676027Y792696D01*
X676007Y793248D01*
X676000Y793800D01*
X218800Y323800D02*
X218807Y324352D01*
X218827Y324904D01*
X218861Y325455D01*
X218908Y326005D01*
X218969Y326554D01*
X219044Y327101D01*
X219131Y327647D01*
X219232Y328190D01*
X219347Y328730D01*
X219474Y329267D01*
X219615Y329801D01*
X219769Y330331D01*
X219936Y330858D01*
X220115Y331380D01*
X220308Y331898D01*
X220513Y332410D01*
X220730Y332918D01*
X220960Y333420D01*
X221202Y333916D01*
X221457Y334406D01*
X221723Y334890D01*
X222001Y335367D01*
X222291Y335837D01*
X222592Y336300D01*
X222904Y336756D01*
X223228Y337203D01*
X223562Y337643D01*
X223907Y338074D01*
X224263Y338496D01*
X224629Y338910D01*
X225004Y339315D01*
X225390Y339710D01*
X225785Y340096D01*
X226190Y340471D01*
X226604Y340837D01*
X227026Y341193D01*
X227457Y341538D01*
X227897Y341872D01*
X228344Y342196D01*
X228800Y342508D01*
X229263Y342809D01*
X229733Y343099D01*
X230210Y343377D01*
X230694Y343643D01*
X231184Y343898D01*
X231680Y344140D01*
X232182Y344370D01*
X232690Y344587D01*
X233202Y344792D01*
X233720Y344985D01*
X234242Y345164D01*
X234769Y345331D01*
X235299Y345485D01*
X235833Y345626D01*
X236370Y345753D01*
X236910Y345868D01*
X237453Y345969D01*
X237999Y346056D01*
X238546Y346131D01*
X239095Y346192D01*
X239645Y346239D01*
X240196Y346273D01*
X240748Y346293D01*
X241300Y346300D01*
X241852Y346293D01*
X242404Y346273D01*
X242955Y346239D01*
X243505Y346192D01*
X244054Y346131D01*
X244601Y346056D01*
X245147Y345969D01*
X245690Y345868D01*
X246230Y345753D01*
X246767Y345626D01*
X247301Y345485D01*
X247831Y345331D01*
X248358Y345164D01*
X248880Y344985D01*
X249398Y344792D01*
X249910Y344587D01*
X250418Y344370D01*
X250920Y344140D01*
X251416Y343898D01*
X251906Y343643D01*
X252390Y343377D01*
X252867Y343099D01*
X253337Y342809D01*
X253800Y342508D01*
X254256Y342196D01*
X254703Y341872D01*
X255143Y341538D01*
X255574Y341193D01*
X255996Y340837D01*
X256410Y340471D01*
X256815Y340096D01*
X257210Y339710D01*
X257596Y339315D01*
X257971Y338910D01*
X258337Y338496D01*
X258693Y338074D01*
X259038Y337643D01*
X259372Y337203D01*
X259696Y336756D01*
X260008Y336300D01*
X260309Y335837D01*
X260599Y335367D01*
X260877Y334890D01*
X261143Y334406D01*
X261398Y333916D01*
X261640Y333420D01*
X261870Y332918D01*
X262087Y332410D01*
X262292Y331898D01*
X262485Y331380D01*
X262664Y330858D01*
X262831Y330331D01*
X262985Y329801D01*
X263126Y329267D01*
X263253Y328730D01*
X263368Y328190D01*
X263469Y327647D01*
X263556Y327101D01*
X263631Y326554D01*
X263692Y326005D01*
X263739Y325455D01*
X263773Y324904D01*
X263793Y324352D01*
X263800Y323800D01*
X263793Y323248D01*
X263773Y322696D01*
X263739Y322145D01*
X263692Y321595D01*
X263631Y321046D01*
X263556Y320499D01*
X263469Y319953D01*
X263368Y319410D01*
X263253Y318870D01*
X263126Y318333D01*
X262985Y317799D01*
X262831Y317269D01*
X262664Y316742D01*
X262485Y316220D01*
X262292Y315702D01*
X262087Y315190D01*
X261870Y314682D01*
X261640Y314180D01*
X261398Y313684D01*
X261143Y313194D01*
X260877Y312710D01*
X260599Y312233D01*
X260309Y311763D01*
X260008Y311300D01*
X259696Y310844D01*
X259372Y310397D01*
X259038Y309957D01*
X258693Y309526D01*
X258337Y309104D01*
X257971Y308690D01*
X257596Y308285D01*
X257210Y307890D01*
X256815Y307504D01*
X256410Y307129D01*
X255996Y306763D01*
X255574Y306407D01*
X255143Y306062D01*
X254703Y305728D01*
X254256Y305404D01*
X253800Y305092D01*
X253337Y304791D01*
X252867Y304501D01*
X252390Y304223D01*
X251906Y303957D01*
X251416Y303702D01*
X250920Y303460D01*
X250418Y303230D01*
X249910Y303013D01*
X249398Y302808D01*
X248880Y302615D01*
X248358Y302436D01*
X247831Y302269D01*
X247301Y302115D01*
X246767Y301974D01*
X246230Y301847D01*
X245690Y301732D01*
X245147Y301631D01*
X244601Y301544D01*
X244054Y301469D01*
X243505Y301408D01*
X242955Y301361D01*
X242404Y301327D01*
X241852Y301307D01*
X241300Y301300D01*
X240748Y301307D01*
X240196Y301327D01*
X239645Y301361D01*
X239095Y301408D01*
X238546Y301469D01*
X237999Y301544D01*
X237453Y301631D01*
X236910Y301732D01*
X236370Y301847D01*
X235833Y301974D01*
X235299Y302115D01*
X234769Y302269D01*
X234242Y302436D01*
X233720Y302615D01*
X233202Y302808D01*
X232690Y303013D01*
X232182Y303230D01*
X231680Y303460D01*
X231184Y303702D01*
X230694Y303957D01*
X230210Y304223D01*
X229733Y304501D01*
X229263Y304791D01*
X228800Y305092D01*
X228344Y305404D01*
X227897Y305728D01*
X227457Y306062D01*
X227026Y306407D01*
X226604Y306763D01*
X226190Y307129D01*
X225785Y307504D01*
X225390Y307890D01*
X225004Y308285D01*
X224629Y308690D01*
X224263Y309104D01*
X223907Y309526D01*
X223562Y309957D01*
X223228Y310397D01*
X222904Y310844D01*
X222592Y311300D01*
X222291Y311763D01*
X222001Y312233D01*
X221723Y312710D01*
X221457Y313194D01*
X221202Y313684D01*
X220960Y314180D01*
X220730Y314682D01*
X220513Y315190D01*
X220308Y315702D01*
X220115Y316220D01*
X219936Y316742D01*
X219769Y317269D01*
X219615Y317799D01*
X219474Y318333D01*
X219347Y318870D01*
X219232Y319410D01*
X219131Y319953D01*
X219044Y320499D01*
X218969Y321046D01*
X218908Y321595D01*
X218861Y322145D01*
X218827Y322696D01*
X218807Y323248D01*
X218800Y323800D01*
X218800Y793800D02*
X218807Y794352D01*
X218827Y794904D01*
X218861Y795455D01*
X218908Y796005D01*
X218969Y796554D01*
X219044Y797101D01*
X219131Y797647D01*
X219232Y798190D01*
X219347Y798730D01*
X219474Y799267D01*
X219615Y799801D01*
X219769Y800331D01*
X219936Y800858D01*
X220115Y801380D01*
X220308Y801898D01*
X220513Y802410D01*
X220730Y802918D01*
X220960Y803420D01*
X221202Y803916D01*
X221457Y804406D01*
X221723Y804890D01*
X222001Y805367D01*
X222291Y805837D01*
X222592Y806300D01*
X222904Y806756D01*
X223228Y807203D01*
X223562Y807643D01*
X223907Y808074D01*
X224263Y808496D01*
X224629Y808910D01*
X225004Y809315D01*
X225390Y809710D01*
X225785Y810096D01*
X226190Y810471D01*
X226604Y810837D01*
X227026Y811193D01*
X227457Y811538D01*
X227897Y811872D01*
X228344Y812196D01*
X228800Y812508D01*
X229263Y812809D01*
X229733Y813099D01*
X230210Y813377D01*
X230694Y813643D01*
X231184Y813898D01*
X231680Y814140D01*
X232182Y814370D01*
X232690Y814587D01*
X233202Y814792D01*
X233720Y814985D01*
X234242Y815164D01*
X234769Y815331D01*
X235299Y815485D01*
X235833Y815626D01*
X236370Y815753D01*
X236910Y815868D01*
X237453Y815969D01*
X237999Y816056D01*
X238546Y816131D01*
X239095Y816192D01*
X239645Y816239D01*
X240196Y816273D01*
X240748Y816293D01*
X241300Y816300D01*
X241852Y816293D01*
X242404Y816273D01*
X242955Y816239D01*
X243505Y816192D01*
X244054Y816131D01*
X244601Y816056D01*
X245147Y815969D01*
X245690Y815868D01*
X246230Y815753D01*
X246767Y815626D01*
X247301Y815485D01*
X247831Y815331D01*
X248358Y815164D01*
X248880Y814985D01*
X249398Y814792D01*
X249910Y814587D01*
X250418Y814370D01*
X250920Y814140D01*
X251416Y813898D01*
X251906Y813643D01*
X252390Y813377D01*
X252867Y813099D01*
X253337Y812809D01*
X253800Y812508D01*
X254256Y812196D01*
X254703Y811872D01*
X255143Y811538D01*
X255574Y811193D01*
X255996Y810837D01*
X256410Y810471D01*
X256815Y810096D01*
X257210Y809710D01*
X257596Y809315D01*
X257971Y808910D01*
X258337Y808496D01*
X258693Y808074D01*
X259038Y807643D01*
X259372Y807203D01*
X259696Y806756D01*
X260008Y806300D01*
X260309Y805837D01*
X260599Y805367D01*
X260877Y804890D01*
X261143Y804406D01*
X261398Y803916D01*
X261640Y803420D01*
X261870Y802918D01*
X262087Y802410D01*
X262292Y801898D01*
X262485Y801380D01*
X262664Y800858D01*
X262831Y800331D01*
X262985Y799801D01*
X263126Y799267D01*
X263253Y798730D01*
X263368Y798190D01*
X263469Y797647D01*
X263556Y797101D01*
X263631Y796554D01*
X263692Y796005D01*
X263739Y795455D01*
X263773Y794904D01*
X263793Y794352D01*
X263800Y793800D01*
X263793Y793248D01*
X263773Y792696D01*
X263739Y792145D01*
X263692Y791595D01*
X263631Y791046D01*
X263556Y790499D01*
X263469Y789953D01*
X263368Y789410D01*
X263253Y788870D01*
X263126Y788333D01*
X262985Y787799D01*
X262831Y787269D01*
X262664Y786742D01*
X262485Y786220D01*
X262292Y785702D01*
X262087Y785190D01*
X261870Y784682D01*
X261640Y784180D01*
X261398Y783684D01*
X261143Y783194D01*
X260877Y782710D01*
X260599Y782233D01*
X260309Y781763D01*
X260008Y781300D01*
X259696Y780844D01*
X259372Y780397D01*
X259038Y779957D01*
X258693Y779526D01*
X258337Y779104D01*
X257971Y778690D01*
X257596Y778285D01*
X257210Y777890D01*
X256815Y777504D01*
X256410Y777129D01*
X255996Y776763D01*
X255574Y776407D01*
X255143Y776062D01*
X254703Y775728D01*
X254256Y775404D01*
X253800Y775092D01*
X253337Y774791D01*
X252867Y774501D01*
X252390Y774223D01*
X251906Y773957D01*
X251416Y773702D01*
X250920Y773460D01*
X250418Y773230D01*
X249910Y773013D01*
X249398Y772808D01*
X248880Y772615D01*
X248358Y772436D01*
X247831Y772269D01*
X247301Y772115D01*
X246767Y771974D01*
X246230Y771847D01*
X245690Y771732D01*
X245147Y771631D01*
X244601Y771544D01*
X244054Y771469D01*
X243505Y771408D01*
X242955Y771361D01*
X242404Y771327D01*
X241852Y771307D01*
X241300Y771300D01*
X240748Y771307D01*
X240196Y771327D01*
X239645Y771361D01*
X239095Y771408D01*
X238546Y771469D01*
X237999Y771544D01*
X237453Y771631D01*
X236910Y771732D01*
X236370Y771847D01*
X235833Y771974D01*
X235299Y772115D01*
X234769Y772269D01*
X234242Y772436D01*
X233720Y772615D01*
X233202Y772808D01*
X232690Y773013D01*
X232182Y773230D01*
X231680Y773460D01*
X231184Y773702D01*
X230694Y773957D01*
X230210Y774223D01*
X229733Y774501D01*
X229263Y774791D01*
X228800Y775092D01*
X228344Y775404D01*
X227897Y775728D01*
X227457Y776062D01*
X227026Y776407D01*
X226604Y776763D01*
X226190Y777129D01*
X225785Y777504D01*
X225390Y777890D01*
X225004Y778285D01*
X224629Y778690D01*
X224263Y779104D01*
X223907Y779526D01*
X223562Y779957D01*
X223228Y780397D01*
X222904Y780844D01*
X222592Y781300D01*
X222291Y781763D01*
X222001Y782233D01*
X221723Y782710D01*
X221457Y783194D01*
X221202Y783684D01*
X220960Y784180D01*
X220730Y784682D01*
X220513Y785190D01*
X220308Y785702D01*
X220115Y786220D01*
X219936Y786742D01*
X219769Y787269D01*
X219615Y787799D01*
X219474Y788333D01*
X219347Y788870D01*
X219232Y789410D01*
X219131Y789953D01*
X219044Y790499D01*
X218969Y791046D01*
X218908Y791595D01*
X218861Y792145D01*
X218827Y792696D01*
X218807Y793248D01*
X218800Y793800D01*
D12*
X0Y0D02*
X1854000Y0D01*
X1854200Y863600D01*
X0Y863600D01*
X0Y0D01*
X1845310Y24860D02*
X1845239Y23781D01*
X1845098Y22709D01*
X1844887Y21649D01*
X1844608Y20605D01*
X1844260Y19581D01*
X1843846Y18583D01*
X1843368Y17613D01*
X1842828Y16677D01*
X1842227Y15778D01*
X1841569Y14921D01*
X1840857Y14108D01*
X1840092Y13344D01*
X1839279Y12631D01*
X1838422Y11973D01*
X1837523Y11372D01*
X1836587Y10832D01*
X1835617Y10354D01*
X1834619Y9940D01*
X1833595Y9592D01*
X1832551Y9313D01*
X1831491Y9102D01*
X1830419Y8961D01*
X1829340Y8890D01*
X1828260Y8890D01*
X1827181Y8961D01*
X1826109Y9102D01*
X1825049Y9313D01*
X1824005Y9592D01*
X1822981Y9940D01*
X1821983Y10354D01*
X1821013Y10832D01*
X1820077Y11372D01*
X1819178Y11973D01*
X1818321Y12631D01*
X1817508Y13344D01*
X1816744Y14108D01*
X1816031Y14921D01*
X1815373Y15778D01*
X1814772Y16677D01*
X1814232Y17613D01*
X1813754Y18583D01*
X1813340Y19581D01*
X1812992Y20605D01*
X1812713Y21649D01*
X1812502Y22709D01*
X1812361Y23781D01*
X1812290Y24860D01*
X1812290Y25940D01*
X1812361Y27019D01*
X1812502Y28091D01*
X1812713Y29151D01*
X1812992Y30195D01*
X1813340Y31219D01*
X1813754Y32217D01*
X1814232Y33187D01*
X1814772Y34123D01*
X1815373Y35022D01*
X1816031Y35879D01*
X1816744Y36692D01*
X1817508Y37457D01*
X1818321Y38169D01*
X1819178Y38827D01*
X1820077Y39428D01*
X1821013Y39968D01*
X1821983Y40446D01*
X1822981Y40860D01*
X1824005Y41208D01*
X1825049Y41487D01*
X1826109Y41698D01*
X1827181Y41839D01*
X1828260Y41910D01*
X1829340Y41910D01*
X1830419Y41839D01*
X1831491Y41698D01*
X1832551Y41487D01*
X1833595Y41208D01*
X1834619Y40860D01*
X1835617Y40446D01*
X1836587Y39968D01*
X1837523Y39428D01*
X1838422Y38827D01*
X1839279Y38169D01*
X1840092Y37457D01*
X1840857Y36692D01*
X1841569Y35879D01*
X1842227Y35022D01*
X1842828Y34123D01*
X1843368Y33187D01*
X1843846Y32217D01*
X1844260Y31219D01*
X1844608Y30195D01*
X1844887Y29151D01*
X1845098Y28091D01*
X1845239Y27019D01*
X1845310Y25940D01*
X1845310Y24860D01*
X41910Y228060D02*
X41839Y226981D01*
X41698Y225909D01*
X41487Y224849D01*
X41208Y223805D01*
X40860Y222781D01*
X40446Y221783D01*
X39968Y220813D01*
X39428Y219877D01*
X38827Y218978D01*
X38169Y218121D01*
X37457Y217308D01*
X36692Y216544D01*
X35879Y215831D01*
X35022Y215173D01*
X34123Y214572D01*
X33187Y214032D01*
X32217Y213554D01*
X31219Y213140D01*
X30195Y212792D01*
X29151Y212513D01*
X28091Y212302D01*
X27019Y212161D01*
X25940Y212090D01*
X24860Y212090D01*
X23781Y212161D01*
X22709Y212302D01*
X21649Y212513D01*
X20605Y212792D01*
X19581Y213140D01*
X18583Y213554D01*
X17613Y214032D01*
X16677Y214572D01*
X15778Y215173D01*
X14921Y215831D01*
X14108Y216544D01*
X13344Y217308D01*
X12631Y218121D01*
X11973Y218978D01*
X11372Y219877D01*
X10832Y220813D01*
X10354Y221783D01*
X9940Y222781D01*
X9592Y223805D01*
X9313Y224849D01*
X9102Y225909D01*
X8961Y226981D01*
X8890Y228060D01*
X8890Y229140D01*
X8961Y230219D01*
X9102Y231291D01*
X9313Y232351D01*
X9592Y233395D01*
X9940Y234419D01*
X10354Y235417D01*
X10832Y236387D01*
X11372Y237323D01*
X11973Y238222D01*
X12631Y239079D01*
X13344Y239892D01*
X14108Y240657D01*
X14921Y241369D01*
X15778Y242027D01*
X16677Y242628D01*
X17613Y243168D01*
X18583Y243646D01*
X19581Y244060D01*
X20605Y244408D01*
X21649Y244687D01*
X22709Y244898D01*
X23781Y245039D01*
X24860Y245110D01*
X25940Y245110D01*
X27019Y245039D01*
X28091Y244898D01*
X29151Y244687D01*
X30195Y244408D01*
X31219Y244060D01*
X32217Y243646D01*
X33187Y243168D01*
X34123Y242628D01*
X35022Y242027D01*
X35879Y241369D01*
X36692Y240657D01*
X37457Y239892D01*
X38169Y239079D01*
X38827Y238222D01*
X39428Y237323D01*
X39968Y236387D01*
X40446Y235417D01*
X40860Y234419D01*
X41208Y233395D01*
X41487Y232351D01*
X41698Y231291D01*
X41839Y230219D01*
X41910Y229140D01*
X41910Y228060D01*
X41910Y24860D02*
X41839Y23781D01*
X41698Y22709D01*
X41487Y21649D01*
X41208Y20605D01*
X40860Y19581D01*
X40446Y18583D01*
X39968Y17613D01*
X39428Y16677D01*
X38827Y15778D01*
X38169Y14921D01*
X37457Y14108D01*
X36692Y13344D01*
X35879Y12631D01*
X35022Y11973D01*
X34123Y11372D01*
X33187Y10832D01*
X32217Y10354D01*
X31219Y9940D01*
X30195Y9592D01*
X29151Y9313D01*
X28091Y9102D01*
X27019Y8961D01*
X25940Y8890D01*
X24860Y8890D01*
X23781Y8961D01*
X22709Y9102D01*
X21649Y9313D01*
X20605Y9592D01*
X19581Y9940D01*
X18583Y10354D01*
X17613Y10832D01*
X16677Y11372D01*
X15778Y11973D01*
X14921Y12631D01*
X14108Y13344D01*
X13344Y14108D01*
X12631Y14921D01*
X11973Y15778D01*
X11372Y16677D01*
X10832Y17613D01*
X10354Y18583D01*
X9940Y19581D01*
X9592Y20605D01*
X9313Y21649D01*
X9102Y22709D01*
X8961Y23781D01*
X8890Y24860D01*
X8890Y25940D01*
X8961Y27019D01*
X9102Y28091D01*
X9313Y29151D01*
X9592Y30195D01*
X9940Y31219D01*
X10354Y32217D01*
X10832Y33187D01*
X11372Y34123D01*
X11973Y35022D01*
X12631Y35879D01*
X13344Y36692D01*
X14108Y37457D01*
X14921Y38169D01*
X15778Y38827D01*
X16677Y39428D01*
X17613Y39968D01*
X18583Y40446D01*
X19581Y40860D01*
X20605Y41208D01*
X21649Y41487D01*
X22709Y41698D01*
X23781Y41839D01*
X24860Y41910D01*
X25940Y41910D01*
X27019Y41839D01*
X28091Y41698D01*
X29151Y41487D01*
X30195Y41208D01*
X31219Y40860D01*
X32217Y40446D01*
X33187Y39968D01*
X34123Y39428D01*
X35022Y38827D01*
X35879Y38169D01*
X36692Y37457D01*
X37457Y36692D01*
X38169Y35879D01*
X38827Y35022D01*
X39428Y34123D01*
X39968Y33187D01*
X40446Y32217D01*
X40860Y31219D01*
X41208Y30195D01*
X41487Y29151D01*
X41698Y28091D01*
X41839Y27019D01*
X41910Y25940D01*
X41910Y24860D01*
X1845310Y228060D02*
X1845239Y226981D01*
X1845098Y225909D01*
X1844887Y224849D01*
X1844608Y223805D01*
X1844260Y222781D01*
X1843846Y221783D01*
X1843368Y220813D01*
X1842828Y219877D01*
X1842227Y218978D01*
X1841569Y218121D01*
X1840857Y217308D01*
X1840092Y216544D01*
X1839279Y215831D01*
X1838422Y215173D01*
X1837523Y214572D01*
X1836587Y214032D01*
X1835617Y213554D01*
X1834619Y213140D01*
X1833595Y212792D01*
X1832551Y212513D01*
X1831491Y212302D01*
X1830419Y212161D01*
X1829340Y212090D01*
X1828260Y212090D01*
X1827181Y212161D01*
X1826109Y212302D01*
X1825049Y212513D01*
X1824005Y212792D01*
X1822981Y213140D01*
X1821983Y213554D01*
X1821013Y214032D01*
X1820077Y214572D01*
X1819178Y215173D01*
X1818321Y215831D01*
X1817508Y216544D01*
X1816744Y217308D01*
X1816031Y218121D01*
X1815373Y218978D01*
X1814772Y219877D01*
X1814232Y220813D01*
X1813754Y221783D01*
X1813340Y222781D01*
X1812992Y223805D01*
X1812713Y224849D01*
X1812502Y225909D01*
X1812361Y226981D01*
X1812290Y228060D01*
X1812290Y229140D01*
X1812361Y230219D01*
X1812502Y231291D01*
X1812713Y232351D01*
X1812992Y233395D01*
X1813340Y234419D01*
X1813754Y235417D01*
X1814232Y236387D01*
X1814772Y237323D01*
X1815373Y238222D01*
X1816031Y239079D01*
X1816744Y239892D01*
X1817508Y240657D01*
X1818321Y241369D01*
X1819178Y242027D01*
X1820077Y242628D01*
X1821013Y243168D01*
X1821983Y243646D01*
X1822981Y244060D01*
X1824005Y244408D01*
X1825049Y244687D01*
X1826109Y244898D01*
X1827181Y245039D01*
X1828260Y245110D01*
X1829340Y245110D01*
X1830419Y245039D01*
X1831491Y244898D01*
X1832551Y244687D01*
X1833595Y244408D01*
X1834619Y244060D01*
X1835617Y243646D01*
X1836587Y243168D01*
X1837523Y242628D01*
X1838422Y242027D01*
X1839279Y241369D01*
X1840092Y240657D01*
X1840857Y239892D01*
X1841569Y239079D01*
X1842227Y238222D01*
X1842828Y237323D01*
X1843368Y236387D01*
X1843846Y235417D01*
X1844260Y234419D01*
X1844608Y233395D01*
X1844887Y232351D01*
X1845098Y231291D01*
X1845239Y230219D01*
X1845310Y229140D01*
X1845310Y228060D01*
X1156331Y346300D02*
X1157592Y346229D01*
X1158847Y346088D01*
X1160091Y345876D01*
X1161322Y345595D01*
X1162535Y345246D01*
X1163727Y344829D01*
X1164894Y344346D01*
X1166031Y343798D01*
X1167136Y343187D01*
X1168205Y342515D01*
X1169235Y341785D01*
X1170222Y340998D01*
X1171164Y340156D01*
X1172056Y339264D01*
X1172898Y338322D01*
X1173685Y337335D01*
X1174415Y336305D01*
X1175087Y335236D01*
X1175698Y334131D01*
X1176246Y332994D01*
X1176729Y331827D01*
X1177146Y330635D01*
X1177495Y329422D01*
X1177776Y328191D01*
X1177988Y326947D01*
X1178129Y325692D01*
X1178200Y324431D01*
X1178200Y323169D01*
X1178129Y321908D01*
X1177988Y320653D01*
X1177776Y319409D01*
X1177495Y318178D01*
X1177146Y316965D01*
X1176729Y315773D01*
X1176246Y314606D01*
X1175698Y313469D01*
X1175087Y312364D01*
X1174415Y311295D01*
X1173685Y310265D01*
X1172898Y309278D01*
X1172056Y308337D01*
X1171164Y307444D01*
X1170222Y306602D01*
X1169235Y305815D01*
X1168205Y305085D01*
X1167136Y304413D01*
X1166031Y303802D01*
X1164894Y303254D01*
X1163727Y302771D01*
X1162535Y302354D01*
X1161322Y302005D01*
X1160091Y301724D01*
X1158847Y301512D01*
X1157592Y301371D01*
X1156331Y301300D01*
X1155069Y301300D01*
X1153808Y301371D01*
X1152553Y301512D01*
X1151309Y301724D01*
X1150078Y302005D01*
X1148865Y302354D01*
X1147673Y302771D01*
X1146506Y303254D01*
X1145369Y303802D01*
X1144264Y304413D01*
X1143195Y305085D01*
X1142165Y305815D01*
X1141178Y306602D01*
X1140237Y307444D01*
X1139344Y308337D01*
X1138502Y309278D01*
X1137715Y310265D01*
X1136985Y311295D01*
X1136313Y312364D01*
X1135702Y313469D01*
X1135154Y314606D01*
X1134671Y315773D01*
X1134254Y316965D01*
X1133905Y318178D01*
X1133624Y319409D01*
X1133412Y320653D01*
X1133271Y321908D01*
X1133200Y323169D01*
X1133200Y324431D01*
X1133271Y325692D01*
X1133412Y326947D01*
X1133624Y328191D01*
X1133905Y329422D01*
X1134254Y330635D01*
X1134671Y331827D01*
X1135154Y332994D01*
X1135702Y334131D01*
X1136313Y335236D01*
X1136985Y336305D01*
X1137715Y337335D01*
X1138502Y338322D01*
X1139344Y339264D01*
X1140237Y340156D01*
X1141178Y340998D01*
X1142165Y341785D01*
X1143195Y342515D01*
X1144264Y343187D01*
X1145369Y343798D01*
X1146506Y344346D01*
X1147673Y344829D01*
X1148865Y345246D01*
X1150078Y345595D01*
X1151309Y345876D01*
X1152553Y346088D01*
X1153808Y346229D01*
X1155069Y346300D01*
X1156331Y346300D01*
X1156331Y816300D02*
X1157592Y816229D01*
X1158847Y816088D01*
X1160091Y815876D01*
X1161322Y815595D01*
X1162535Y815246D01*
X1163727Y814829D01*
X1164894Y814346D01*
X1166031Y813798D01*
X1167136Y813187D01*
X1168205Y812515D01*
X1169235Y811785D01*
X1170222Y810998D01*
X1171164Y810156D01*
X1172056Y809264D01*
X1172898Y808322D01*
X1173685Y807335D01*
X1174415Y806305D01*
X1175087Y805236D01*
X1175698Y804131D01*
X1176246Y802994D01*
X1176729Y801827D01*
X1177146Y800635D01*
X1177495Y799422D01*
X1177776Y798191D01*
X1177988Y796947D01*
X1178129Y795692D01*
X1178200Y794431D01*
X1178200Y793169D01*
X1178129Y791908D01*
X1177988Y790653D01*
X1177776Y789409D01*
X1177495Y788178D01*
X1177146Y786965D01*
X1176729Y785773D01*
X1176246Y784606D01*
X1175698Y783469D01*
X1175087Y782364D01*
X1174415Y781295D01*
X1173685Y780265D01*
X1172898Y779278D01*
X1172056Y778337D01*
X1171164Y777444D01*
X1170222Y776602D01*
X1169235Y775815D01*
X1168205Y775085D01*
X1167136Y774413D01*
X1166031Y773802D01*
X1164894Y773254D01*
X1163727Y772771D01*
X1162535Y772354D01*
X1161322Y772005D01*
X1160091Y771724D01*
X1158847Y771512D01*
X1157592Y771371D01*
X1156331Y771300D01*
X1155069Y771300D01*
X1153808Y771371D01*
X1152553Y771512D01*
X1151309Y771724D01*
X1150078Y772005D01*
X1148865Y772354D01*
X1147673Y772771D01*
X1146506Y773254D01*
X1145369Y773802D01*
X1144264Y774413D01*
X1143195Y775085D01*
X1142165Y775815D01*
X1141178Y776602D01*
X1140237Y777444D01*
X1139344Y778337D01*
X1138502Y779278D01*
X1137715Y780265D01*
X1136985Y781295D01*
X1136313Y782364D01*
X1135702Y783469D01*
X1135154Y784606D01*
X1134671Y785773D01*
X1134254Y786965D01*
X1133905Y788178D01*
X1133624Y789409D01*
X1133412Y790653D01*
X1133271Y791908D01*
X1133200Y793169D01*
X1133200Y794431D01*
X1133271Y795692D01*
X1133412Y796947D01*
X1133624Y798191D01*
X1133905Y799422D01*
X1134254Y800635D01*
X1134671Y801827D01*
X1135154Y802994D01*
X1135702Y804131D01*
X1136313Y805236D01*
X1136985Y806305D01*
X1137715Y807335D01*
X1138502Y808322D01*
X1139344Y809264D01*
X1140237Y810156D01*
X1141178Y810998D01*
X1142165Y811785D01*
X1143195Y812515D01*
X1144264Y813187D01*
X1145369Y813798D01*
X1146506Y814346D01*
X1147673Y814829D01*
X1148865Y815246D01*
X1150078Y815595D01*
X1151309Y815876D01*
X1152553Y816088D01*
X1153808Y816229D01*
X1155069Y816300D01*
X1156331Y816300D01*
X1613531Y346300D02*
X1614792Y346229D01*
X1616047Y346088D01*
X1617291Y345876D01*
X1618522Y345595D01*
X1619735Y345246D01*
X1620927Y344829D01*
X1622094Y344346D01*
X1623231Y343798D01*
X1624336Y343187D01*
X1625405Y342515D01*
X1626435Y341785D01*
X1627422Y340998D01*
X1628364Y340156D01*
X1629256Y339264D01*
X1630098Y338322D01*
X1630885Y337335D01*
X1631615Y336305D01*
X1632287Y335236D01*
X1632898Y334131D01*
X1633446Y332994D01*
X1633929Y331827D01*
X1634346Y330635D01*
X1634695Y329422D01*
X1634976Y328191D01*
X1635188Y326947D01*
X1635329Y325692D01*
X1635400Y324431D01*
X1635400Y323169D01*
X1635329Y321908D01*
X1635188Y320653D01*
X1634976Y319409D01*
X1634695Y318178D01*
X1634346Y316965D01*
X1633929Y315773D01*
X1633446Y314606D01*
X1632898Y313469D01*
X1632287Y312364D01*
X1631615Y311295D01*
X1630885Y310265D01*
X1630098Y309278D01*
X1629256Y308337D01*
X1628364Y307444D01*
X1627422Y306602D01*
X1626435Y305815D01*
X1625405Y305085D01*
X1624336Y304413D01*
X1623231Y303802D01*
X1622094Y303254D01*
X1620927Y302771D01*
X1619735Y302354D01*
X1618522Y302005D01*
X1617291Y301724D01*
X1616047Y301512D01*
X1614792Y301371D01*
X1613531Y301300D01*
X1612269Y301300D01*
X1611008Y301371D01*
X1609753Y301512D01*
X1608509Y301724D01*
X1607278Y302005D01*
X1606065Y302354D01*
X1604873Y302771D01*
X1603706Y303254D01*
X1602569Y303802D01*
X1601464Y304413D01*
X1600395Y305085D01*
X1599365Y305815D01*
X1598378Y306602D01*
X1597437Y307444D01*
X1596544Y308337D01*
X1595702Y309278D01*
X1594915Y310265D01*
X1594185Y311295D01*
X1593513Y312364D01*
X1592902Y313469D01*
X1592354Y314606D01*
X1591871Y315773D01*
X1591454Y316965D01*
X1591105Y318178D01*
X1590824Y319409D01*
X1590612Y320653D01*
X1590471Y321908D01*
X1590400Y323169D01*
X1590400Y324431D01*
X1590471Y325692D01*
X1590612Y326947D01*
X1590824Y328191D01*
X1591105Y329422D01*
X1591454Y330635D01*
X1591871Y331827D01*
X1592354Y332994D01*
X1592902Y334131D01*
X1593513Y335236D01*
X1594185Y336305D01*
X1594915Y337335D01*
X1595702Y338322D01*
X1596544Y339264D01*
X1597437Y340156D01*
X1598378Y340998D01*
X1599365Y341785D01*
X1600395Y342515D01*
X1601464Y343187D01*
X1602569Y343798D01*
X1603706Y344346D01*
X1604873Y344829D01*
X1606065Y345246D01*
X1607278Y345595D01*
X1608509Y345876D01*
X1609753Y346088D01*
X1611008Y346229D01*
X1612269Y346300D01*
X1613531Y346300D01*
X1613531Y816300D02*
X1614792Y816229D01*
X1616047Y816088D01*
X1617291Y815876D01*
X1618522Y815595D01*
X1619735Y815246D01*
X1620927Y814829D01*
X1622094Y814346D01*
X1623231Y813798D01*
X1624336Y813187D01*
X1625405Y812515D01*
X1626435Y811785D01*
X1627422Y810998D01*
X1628364Y810156D01*
X1629256Y809264D01*
X1630098Y808322D01*
X1630885Y807335D01*
X1631615Y806305D01*
X1632287Y805236D01*
X1632898Y804131D01*
X1633446Y802994D01*
X1633929Y801827D01*
X1634346Y800635D01*
X1634695Y799422D01*
X1634976Y798191D01*
X1635188Y796947D01*
X1635329Y795692D01*
X1635400Y794431D01*
X1635400Y793169D01*
X1635329Y791908D01*
X1635188Y790653D01*
X1634976Y789409D01*
X1634695Y788178D01*
X1634346Y786965D01*
X1633929Y785773D01*
X1633446Y784606D01*
X1632898Y783469D01*
X1632287Y782364D01*
X1631615Y781295D01*
X1630885Y780265D01*
X1630098Y779278D01*
X1629256Y778337D01*
X1628364Y777444D01*
X1627422Y776602D01*
X1626435Y775815D01*
X1625405Y775085D01*
X1624336Y774413D01*
X1623231Y773802D01*
X1622094Y773254D01*
X1620927Y772771D01*
X1619735Y772354D01*
X1618522Y772005D01*
X1617291Y771724D01*
X1616047Y771512D01*
X1614792Y771371D01*
X1613531Y771300D01*
X1612269Y771300D01*
X1611008Y771371D01*
X1609753Y771512D01*
X1608509Y771724D01*
X1607278Y772005D01*
X1606065Y772354D01*
X1604873Y772771D01*
X1603706Y773254D01*
X1602569Y773802D01*
X1601464Y774413D01*
X1600395Y775085D01*
X1599365Y775815D01*
X1598378Y776602D01*
X1597437Y777444D01*
X1596544Y778337D01*
X1595702Y779278D01*
X1594915Y780265D01*
X1594185Y781295D01*
X1593513Y782364D01*
X1592902Y783469D01*
X1592354Y784606D01*
X1591871Y785773D01*
X1591454Y786965D01*
X1591105Y788178D01*
X1590824Y789409D01*
X1590612Y790653D01*
X1590471Y791908D01*
X1590400Y793169D01*
X1590400Y794431D01*
X1590471Y795692D01*
X1590612Y796947D01*
X1590824Y798191D01*
X1591105Y799422D01*
X1591454Y800635D01*
X1591871Y801827D01*
X1592354Y802994D01*
X1592902Y804131D01*
X1593513Y805236D01*
X1594185Y806305D01*
X1594915Y807335D01*
X1595702Y808322D01*
X1596544Y809264D01*
X1597437Y810156D01*
X1598378Y810998D01*
X1599365Y811785D01*
X1600395Y812515D01*
X1601464Y813187D01*
X1602569Y813798D01*
X1603706Y814346D01*
X1604873Y814829D01*
X1606065Y815246D01*
X1607278Y815595D01*
X1608509Y815876D01*
X1609753Y816088D01*
X1611008Y816229D01*
X1612269Y816300D01*
X1613531Y816300D01*
X699131Y346300D02*
X700392Y346229D01*
X701647Y346088D01*
X702891Y345876D01*
X704122Y345595D01*
X705335Y345246D01*
X706527Y344829D01*
X707694Y344346D01*
X708831Y343798D01*
X709936Y343187D01*
X711005Y342515D01*
X712035Y341785D01*
X713022Y340998D01*
X713964Y340156D01*
X714856Y339264D01*
X715698Y338322D01*
X716485Y337335D01*
X717215Y336305D01*
X717887Y335236D01*
X718498Y334131D01*
X719046Y332994D01*
X719529Y331827D01*
X719946Y330635D01*
X720295Y329422D01*
X720576Y328191D01*
X720788Y326947D01*
X720929Y325692D01*
X721000Y324431D01*
X721000Y323169D01*
X720929Y321908D01*
X720788Y320653D01*
X720576Y319409D01*
X720295Y318178D01*
X719946Y316965D01*
X719529Y315773D01*
X719046Y314606D01*
X718498Y313469D01*
X717887Y312364D01*
X717215Y311295D01*
X716485Y310265D01*
X715698Y309278D01*
X714856Y308337D01*
X713964Y307444D01*
X713022Y306602D01*
X712035Y305815D01*
X711005Y305085D01*
X709936Y304413D01*
X708831Y303802D01*
X707694Y303254D01*
X706527Y302771D01*
X705335Y302354D01*
X704122Y302005D01*
X702891Y301724D01*
X701647Y301512D01*
X700392Y301371D01*
X699131Y301300D01*
X697869Y301300D01*
X696608Y301371D01*
X695353Y301512D01*
X694109Y301724D01*
X692878Y302005D01*
X691665Y302354D01*
X690473Y302771D01*
X689306Y303254D01*
X688169Y303802D01*
X687064Y304413D01*
X685995Y305085D01*
X684965Y305815D01*
X683978Y306602D01*
X683037Y307444D01*
X682144Y308337D01*
X681302Y309278D01*
X680515Y310265D01*
X679785Y311295D01*
X679113Y312364D01*
X678502Y313469D01*
X677954Y314606D01*
X677471Y315773D01*
X677054Y316965D01*
X676705Y318178D01*
X676424Y319409D01*
X676212Y320653D01*
X676071Y321908D01*
X676000Y323169D01*
X676000Y324431D01*
X676071Y325692D01*
X676212Y326947D01*
X676424Y328191D01*
X676705Y329422D01*
X677054Y330635D01*
X677471Y331827D01*
X677954Y332994D01*
X678502Y334131D01*
X679113Y335236D01*
X679785Y336305D01*
X680515Y337335D01*
X681302Y338322D01*
X682144Y339264D01*
X683037Y340156D01*
X683978Y340998D01*
X684965Y341785D01*
X685995Y342515D01*
X687064Y343187D01*
X688169Y343798D01*
X689306Y344346D01*
X690473Y344829D01*
X691665Y345246D01*
X692878Y345595D01*
X694109Y345876D01*
X695353Y346088D01*
X696608Y346229D01*
X697869Y346300D01*
X699131Y346300D01*
X699131Y816300D02*
X700392Y816229D01*
X701647Y816088D01*
X702891Y815876D01*
X704122Y815595D01*
X705335Y815246D01*
X706527Y814829D01*
X707694Y814346D01*
X708831Y813798D01*
X709936Y813187D01*
X711005Y812515D01*
X712035Y811785D01*
X713022Y810998D01*
X713964Y810156D01*
X714856Y809264D01*
X715698Y808322D01*
X716485Y807335D01*
X717215Y806305D01*
X717887Y805236D01*
X718498Y804131D01*
X719046Y802994D01*
X719529Y801827D01*
X719946Y800635D01*
X720295Y799422D01*
X720576Y798191D01*
X720788Y796947D01*
X720929Y795692D01*
X721000Y794431D01*
X721000Y793169D01*
X720929Y791908D01*
X720788Y790653D01*
X720576Y789409D01*
X720295Y788178D01*
X719946Y786965D01*
X719529Y785773D01*
X719046Y784606D01*
X718498Y783469D01*
X717887Y782364D01*
X717215Y781295D01*
X716485Y780265D01*
X715698Y779278D01*
X714856Y778337D01*
X713964Y777444D01*
X713022Y776602D01*
X712035Y775815D01*
X711005Y775085D01*
X709936Y774413D01*
X708831Y773802D01*
X707694Y773254D01*
X706527Y772771D01*
X705335Y772354D01*
X704122Y772005D01*
X702891Y771724D01*
X701647Y771512D01*
X700392Y771371D01*
X699131Y771300D01*
X697869Y771300D01*
X696608Y771371D01*
X695353Y771512D01*
X694109Y771724D01*
X692878Y772005D01*
X691665Y772354D01*
X690473Y772771D01*
X689306Y773254D01*
X688169Y773802D01*
X687064Y774413D01*
X685995Y775085D01*
X684965Y775815D01*
X683978Y776602D01*
X683037Y777444D01*
X682144Y778337D01*
X681302Y779278D01*
X680515Y780265D01*
X679785Y781295D01*
X679113Y782364D01*
X678502Y783469D01*
X677954Y784606D01*
X677471Y785773D01*
X677054Y786965D01*
X676705Y788178D01*
X676424Y789409D01*
X676212Y790653D01*
X676071Y791908D01*
X676000Y793169D01*
X676000Y794431D01*
X676071Y795692D01*
X676212Y796947D01*
X676424Y798191D01*
X676705Y799422D01*
X677054Y800635D01*
X677471Y801827D01*
X677954Y802994D01*
X678502Y804131D01*
X679113Y805236D01*
X679785Y806305D01*
X680515Y807335D01*
X681302Y808322D01*
X682144Y809264D01*
X683037Y810156D01*
X683978Y810998D01*
X684965Y811785D01*
X685995Y812515D01*
X687064Y813187D01*
X688169Y813798D01*
X689306Y814346D01*
X690473Y814829D01*
X691665Y815246D01*
X692878Y815595D01*
X694109Y815876D01*
X695353Y816088D01*
X696608Y816229D01*
X697869Y816300D01*
X699131Y816300D01*
X241931Y346300D02*
X243192Y346229D01*
X244447Y346088D01*
X245691Y345876D01*
X246922Y345595D01*
X248135Y345246D01*
X249327Y344829D01*
X250494Y344346D01*
X251631Y343798D01*
X252736Y343187D01*
X253805Y342515D01*
X254835Y341785D01*
X255822Y340998D01*
X256764Y340156D01*
X257656Y339264D01*
X258498Y338322D01*
X259285Y337335D01*
X260015Y336305D01*
X260687Y335236D01*
X261298Y334131D01*
X261846Y332994D01*
X262329Y331827D01*
X262746Y330635D01*
X263095Y329422D01*
X263376Y328191D01*
X263588Y326947D01*
X263729Y325692D01*
X263800Y324431D01*
X263800Y323169D01*
X263729Y321908D01*
X263588Y320653D01*
X263376Y319409D01*
X263095Y318178D01*
X262746Y316965D01*
X262329Y315773D01*
X261846Y314606D01*
X261298Y313469D01*
X260687Y312364D01*
X260015Y311295D01*
X259285Y310265D01*
X258498Y309278D01*
X257656Y308337D01*
X256764Y307444D01*
X255822Y306602D01*
X254835Y305815D01*
X253805Y305085D01*
X252736Y304413D01*
X251631Y303802D01*
X250494Y303254D01*
X249327Y302771D01*
X248135Y302354D01*
X246922Y302005D01*
X245691Y301724D01*
X244447Y301512D01*
X243192Y301371D01*
X241931Y301300D01*
X240669Y301300D01*
X239408Y301371D01*
X238153Y301512D01*
X236909Y301724D01*
X235678Y302005D01*
X234465Y302354D01*
X233273Y302771D01*
X232106Y303254D01*
X230969Y303802D01*
X229864Y304413D01*
X228795Y305085D01*
X227765Y305815D01*
X226778Y306602D01*
X225837Y307444D01*
X224944Y308337D01*
X224102Y309278D01*
X223315Y310265D01*
X222585Y311295D01*
X221913Y312364D01*
X221302Y313469D01*
X220754Y314606D01*
X220271Y315773D01*
X219854Y316965D01*
X219505Y318178D01*
X219224Y319409D01*
X219012Y320653D01*
X218871Y321908D01*
X218800Y323169D01*
X218800Y324431D01*
X218871Y325692D01*
X219012Y326947D01*
X219224Y328191D01*
X219505Y329422D01*
X219854Y330635D01*
X220271Y331827D01*
X220754Y332994D01*
X221302Y334131D01*
X221913Y335236D01*
X222585Y336305D01*
X223315Y337335D01*
X224102Y338322D01*
X224944Y339264D01*
X225837Y340156D01*
X226778Y340998D01*
X227765Y341785D01*
X228795Y342515D01*
X229864Y343187D01*
X230969Y343798D01*
X232106Y344346D01*
X233273Y344829D01*
X234465Y345246D01*
X235678Y345595D01*
X236909Y345876D01*
X238153Y346088D01*
X239408Y346229D01*
X240669Y346300D01*
X241931Y346300D01*
X241931Y816300D02*
X243192Y816229D01*
X244447Y816088D01*
X245691Y815876D01*
X246922Y815595D01*
X248135Y815246D01*
X249327Y814829D01*
X250494Y814346D01*
X251631Y813798D01*
X252736Y813187D01*
X253805Y812515D01*
X254835Y811785D01*
X255822Y810998D01*
X256764Y810156D01*
X257656Y809264D01*
X258498Y808322D01*
X259285Y807335D01*
X260015Y806305D01*
X260687Y805236D01*
X261298Y804131D01*
X261846Y802994D01*
X262329Y801827D01*
X262746Y800635D01*
X263095Y799422D01*
X263376Y798191D01*
X263588Y796947D01*
X263729Y795692D01*
X263800Y794431D01*
X263800Y793169D01*
X263729Y791908D01*
X263588Y790653D01*
X263376Y789409D01*
X263095Y788178D01*
X262746Y786965D01*
X262329Y785773D01*
X261846Y784606D01*
X261298Y783469D01*
X260687Y782364D01*
X260015Y781295D01*
X259285Y780265D01*
X258498Y779278D01*
X257656Y778337D01*
X256764Y777444D01*
X255822Y776602D01*
X254835Y775815D01*
X253805Y775085D01*
X252736Y774413D01*
X251631Y773802D01*
X250494Y773254D01*
X249327Y772771D01*
X248135Y772354D01*
X246922Y772005D01*
X245691Y771724D01*
X244447Y771512D01*
X243192Y771371D01*
X241931Y771300D01*
X240669Y771300D01*
X239408Y771371D01*
X238153Y771512D01*
X236909Y771724D01*
X235678Y772005D01*
X234465Y772354D01*
X233273Y772771D01*
X232106Y773254D01*
X230969Y773802D01*
X229864Y774413D01*
X228795Y775085D01*
X227765Y775815D01*
X226778Y776602D01*
X225837Y777444D01*
X224944Y778337D01*
X224102Y779278D01*
X223315Y780265D01*
X222585Y781295D01*
X221913Y782364D01*
X221302Y783469D01*
X220754Y784606D01*
X220271Y785773D01*
X219854Y786965D01*
X219505Y788178D01*
X219224Y789409D01*
X219012Y790653D01*
X218871Y791908D01*
X218800Y793169D01*
X218800Y794431D01*
X218871Y795692D01*
X219012Y796947D01*
X219224Y798191D01*
X219505Y799422D01*
X219854Y800635D01*
X220271Y801827D01*
X220754Y802994D01*
X221302Y804131D01*
X221913Y805236D01*
X222585Y806305D01*
X223315Y807335D01*
X224102Y808322D01*
X224944Y809264D01*
X225837Y810156D01*
X226778Y810998D01*
X227765Y811785D01*
X228795Y812515D01*
X229864Y813187D01*
X230969Y813798D01*
X232106Y814346D01*
X233273Y814829D01*
X234465Y815246D01*
X235678Y815595D01*
X236909Y815876D01*
X238153Y816088D01*
X239408Y816229D01*
X240669Y816300D01*
X241931Y816300D01*
M02*
