G04 EAGLE Gerber RS-274X export*
G75*
%MOMM*%
%FSLAX34Y34*%
%LPD*%
%INSoldermask Bottom*%
%IPPOS*%
%AMOC8*
5,1,8,0,0,1.08239X$1,22.5*%
G01*
%ADD10C,1.203200*%
%ADD11C,2.082800*%
%ADD12C,1.221313*%
%ADD13C,3.505200*%
%ADD14R,2.235200X2.235200*%
%ADD15C,2.235200*%
%ADD16C,5.803200*%


D10*
X1790700Y241300D03*
X50800Y50800D03*
D11*
X152400Y12700D03*
X127000Y12700D03*
X101600Y12700D03*
X76200Y12700D03*
D12*
X355600Y50800D03*
X355600Y76200D03*
X355600Y101600D03*
X330200Y50800D03*
X330200Y76200D03*
X330200Y101600D03*
D13*
X1828800Y25400D03*
X25400Y228600D03*
X25400Y25400D03*
X1828800Y228600D03*
D14*
X1136650Y209550D03*
D15*
X1171650Y209550D03*
D16*
X1155700Y323800D03*
X1155700Y793700D03*
D14*
X1593850Y209550D03*
D15*
X1628850Y209550D03*
D16*
X1612900Y323800D03*
X1612900Y793700D03*
D14*
X679450Y209550D03*
D15*
X714450Y209550D03*
D16*
X698500Y323800D03*
X698500Y793700D03*
D14*
X222250Y209550D03*
D15*
X257250Y209550D03*
D16*
X241300Y323800D03*
X241300Y793700D03*
D11*
X177800Y12700D03*
D13*
X927100Y228600D03*
X1828800Y889000D03*
X927100Y889000D03*
X25400Y889000D03*
D10*
X1790700Y1160780D03*
X50800Y970280D03*
D11*
X152400Y932180D03*
X127000Y932180D03*
X101600Y932180D03*
X76200Y932180D03*
D12*
X355600Y970280D03*
X355600Y995680D03*
X355600Y1021080D03*
X330200Y970280D03*
X330200Y995680D03*
X330200Y1021080D03*
D13*
X1828800Y944880D03*
X25400Y1148080D03*
X25400Y944880D03*
X1828800Y1148080D03*
D14*
X1136650Y1129030D03*
D15*
X1171650Y1129030D03*
D16*
X1155700Y1243280D03*
X1155700Y1713180D03*
D14*
X1593850Y1129030D03*
D15*
X1628850Y1129030D03*
D16*
X1612900Y1243280D03*
X1612900Y1713180D03*
D14*
X679450Y1129030D03*
D15*
X714450Y1129030D03*
D16*
X698500Y1243280D03*
X698500Y1713180D03*
D14*
X222250Y1129030D03*
D15*
X257250Y1129030D03*
D16*
X241300Y1243280D03*
X241300Y1713180D03*
D11*
X177800Y932180D03*
D13*
X927100Y1148080D03*
X1828800Y1808480D03*
X927100Y1808480D03*
X25400Y1808480D03*
D10*
X68580Y1854835D03*
X1784985Y1854835D03*
M02*
