M48
;GenerationSoftware,Autodesk,EAGLE,9.6.0*%
;CreationDate,2020-05-29T21:54:17Z*%
FMAT,2
ICI,OFF
METRIC,TZ,000.000
T6C0.381
T5C0.508
T4C1.016
T3C1.200
T2C3.302
T1C3.730
%
G90
M71
T1
X24130Y171318
X161290Y124328
X161290Y79370
X24130Y32380
X115570Y124328
X69850Y32380
X115570Y79370
X24130Y124328
X69850Y79370
X115570Y171318
X69850Y171318
X69850Y124328
X115570Y32380
X24130Y79370
X161290Y32380
X161290Y171318
T2
X182880Y114808
X92710Y114808
X182880Y180848
X92710Y180848
X2540Y180848
X182880Y94488
X2540Y114808
X182880Y22860
X2540Y94488
X182880Y2540
X2540Y22860
X2540Y2540
X92710Y22860
X182880Y88900
X92710Y88900
X2540Y88900
T3
X25725Y112903
X22225Y112903
X159385Y20955
X71445Y112903
X117165Y20955
X113665Y20955
X25725Y20955
X22225Y20955
X113665Y112903
X159385Y112903
X117165Y112903
X71445Y20955
X67945Y20955
X162885Y112903
X67945Y112903
X162885Y20955
T4
X15240Y1270
X17780Y1270
X12700Y93218
X10160Y93218
X7620Y93218
X17780Y93218
X15240Y93218
X12700Y1270
X10160Y1270
X7620Y1270
T5
X35560Y7620
X33020Y102108
X35560Y5080
X33020Y7620
X33020Y5080
X33020Y10160
X33020Y97028
X35560Y97028
X33020Y99568
X35560Y99568
X35560Y102108
X35560Y10160
T6
X67310Y104648
X31490Y104648
X175260Y103378
X7620Y104648
X12700Y99568
X16510Y99568
X13970Y95123
X27432Y95758
X177800Y100838
X157480Y108458
X99060Y95758
X110490Y108458
X62230Y107188
X29210Y102108
X27940Y15240
X38100Y13970
X34290Y8890
X62230Y15240
X110490Y16510
X73660Y99568
X99060Y3810
X34290Y100838
X38100Y105918
X27940Y107188
X7620Y12700
X12700Y104648
X12700Y12700
X67310Y12700
X31490Y12700
X175260Y11430
X12700Y7620
X29210Y10160
X13970Y3175
X27432Y3810
X177800Y8890
X157480Y16510
X73660Y7620
X16510Y7620
M30